{"asset": {"version": "2.0", "generator": "tongari-nsbmd-to-gltf"}, "scene": 0, "scenes": [{"nodes": [0, 4]}], "nodes": [{"name": "world_root", "translation": [0.0, 0.0, 0.0], "children": [1, 2, 3]}, {"name": "imig13_08_b", "translation": [0.0, 0.0, 0.0]}, {"name": "imig13_08_off", "translation": [0.0, 0.0, 0.0]}, {"name": "imig13_08_on", "translation": [0.0, 0.0, 0.0]}, {"mesh": 0, "name": "3357IMIG13_08"}], "meshes": [{"name": "3357IMIG13_08", "primitives": [{"attributes": {"POSITION": 0, "TEXCOORD_0": 1, "NORMAL": 2}, "indices": 3, "mode": 4, "material": 1}, {"attributes": {"POSITION": 4, "TEXCOORD_0": 5, "NORMAL": 6}, "indices": 7, "mode": 4, "material": 0}, {"attributes": {"POSITION": 8, "TEXCOORD_0": 9, "NORMAL": 10}, "indices": 11, "mode": 4, "material": 1}]}], "materials": [{"name": "imig13_08_0", "pbrMetallicRoughness": {"baseColorFactor": [1.0, 1.0, 1.0, 1.0], "metallicFactor": 0.0, "roughnessFactor": 1.0}, "alphaMode": "OPAQUE", "doubleSided": true}, {"name": "imig13_08_1", "pbrMetallicRoughness": {"baseColorFactor": [1.0, 1.0, 1.0, 1.0], "metallicFactor": 0.0, "roughnessFactor": 1.0}, "alphaMode": "OPAQUE", "doubleSided": true}], "buffers": [{"byteLength": 6184, "uri": "data:application/octet-stream;base64,"}], "bufferViews": [{"buffer": 0, "byteOffset": 0, "byteLength": 384}, {"buffer": 0, "byteOffset": 384, "byteLength": 256}, {"buffer": 0, "byteOffset": 640, "byteLength": 384}, {"buffer": 0, "byteOffset": 1024, "byteLength": 96}, {"buffer": 0, "byteOffset": 1120, "byteLength": 864}, {"buffer": 0, "byteOffset": 1984, "byteLength": 576}, {"buffer": 0, "byteOffset": 2560, "byteLength": 864}, {"buffer": 0, "byteOffset": 3424, "byteLength": 228}, {"buffer": 0, "byteOffset": 3652, "byteLength": 864}, {"buffer": 0, "byteOffset": 4516, "byteLength": 576}, {"buffer": 0, "byteOffset": 5092, "byteLength": 864}, {"buffer": 0, "byteOffset": 5956, "byteLength": 228}], "accessors": [{"bufferView": 0, "byteOffset": 0, "componentType": 5126, "count": 32, "type": "VEC3", "min": [-0.700927734375, 0.0, -0.07861328125], "max": [0.4580078125, 0.271484375, 0.07861328125]}, {"bufferView": 1, "byteOffset": 0, "componentType": 5126, "count": 32, "type": "VEC2"}, {"bufferView": 2, "byteOffset": 0, "componentType": 5126, "count": 32, "type": "VEC3"}, {"bufferView": 3, "byteOffset": 0, "componentType": 5123, "count": 48, "type": "SCALAR"}, {"bufferView": 4, "byteOffset": 0, "componentType": 5126, "count": 72, "type": "VEC3", "min": [-0.968017578125, 0.242431640625, -0.089599609375], "max": [0.958740234375, 0.9951171875, 0.089599609375]}, {"bufferView": 5, "byteOffset": 0, "componentType": 5126, "count": 72, "type": "VEC2"}, {"bufferView": 6, "byteOffset": 0, "componentType": 5126, "count": 72, "type": "VEC3"}, {"bufferView": 7, "byteOffset": 0, "componentType": 5123, "count": 114, "type": "SCALAR"}, {"bufferView": 8, "byteOffset": 0, "componentType": 5126, "count": 72, "type": "VEC3", "min": [-0.968017578125, 0.242431640625, -0.089599609375], "max": [0.958740234375, 0.9951171875, 0.089599609375]}, {"bufferView": 9, "byteOffset": 0, "componentType": 5126, "count": 72, "type": "VEC2"}, {"bufferView": 10, "byteOffset": 0, "componentType": 5126, "count": 72, "type": "VEC3"}, {"bufferView": 11, "byteOffset": 0, "componentType": 5123, "count": 114, "type": "SCALAR"}], "samplers": [{"magFilter": 9729, "minFilter": 9729, "wrapS": 10497, "wrapT": 10497}]}