{"asset": {"version": "2.0", "generator": "tongari-nsbmd-to-gltf"}, "scene": 0, "scenes": [{"nodes": [0, 1]}], "nodes": [{"name": "imsy01_15", "translation": [0.0, 0.0, 0.0]}, {"mesh": 0, "name": "3453IMSY01_15"}], "meshes": [{"name": "3453IMSY01_15", "primitives": [{"attributes": {"POSITION": 0, "TEXCOORD_0": 1, "NORMAL": 2}, "indices": 3, "mode": 4, "material": 0}, {"attributes": {"POSITION": 4, "TEXCOORD_0": 5, "NORMAL": 6}, "indices": 7, "mode": 4, "material": 2}, {"attributes": {"POSITION": 8, "TEXCOORD_0": 9, "NORMAL": 10}, "indices": 11, "mode": 4, "material": 1}]}], "materials": [{"name": "imsy01_15_0", "pbrMetallicRoughness": {"baseColorFactor": [1.0, 1.0, 1.0, 1.0], "metallicFactor": 0.0, "roughnessFactor": 1.0}, "alphaMode": "OPAQUE", "doubleSided": true}, {"name": "imsy01_15_1", "pbrMetallicRoughness": {"baseColorFactor": [1.0, 1.0, 1.0, 1.0], "metallicFactor": 0.0, "roughnessFactor": 1.0}, "alphaMode": "OPAQUE", "doubleSided": true}, {"name": "imsy01_15_2", "pbrMetallicRoughness": {"baseColorFactor": [1.0, 1.0, 1.0, 1.0], "metallicFactor": 0.0, "roughnessFactor": 1.0}, "alphaMode": "OPAQUE", "doubleSided": true}], "buffers": [{"byteLength": 4068, "uri": "data:application/octet-stream;base64,"}], "bufferViews": [{"buffer": 0, "byteOffset": 0, "byteLength": 984}, {"buffer": 0, "byteOffset": 984, "byteLength": 656}, {"buffer": 0, "byteOffset": 1640, "byteLength": 984}, {"buffer": 0, "byteOffset": 2624, "byteLength": 276}, {"buffer": 0, "byteOffset": 2900, "byteLength": 192}, {"buffer": 0, "byteOffset": 3092, "byteLength": 128}, {"buffer": 0, "byteOffset": 3220, "byteLength": 192}, {"buffer": 0, "byteOffset": 3412, "byteLength": 72}, {"buffer": 0, "byteOffset": 3484, "byteLength": 192}, {"buffer": 0, "byteOffset": 3676, "byteLength": 128}, {"buffer": 0, "byteOffset": 3804, "byteLength": 192}, {"buffer": 0, "byteOffset": 3996, "byteLength": 72}], "accessors": [{"bufferView": 0, "byteOffset": 0, "componentType": 5126, "count": 82, "type": "VEC3", "min": [-0.444580078125, 0.093017578125, -0.4248046875], "max": [0.444580078125, 1.853759765625, 0.43994140625]}, {"bufferView": 1, "byteOffset": 0, "componentType": 5126, "count": 82, "type": "VEC2"}, {"bufferView": 2, "byteOffset": 0, "componentType": 5126, "count": 82, "type": "VEC3"}, {"bufferView": 3, "byteOffset": 0, "componentType": 5123, "count": 138, "type": "SCALAR"}, {"bufferView": 4, "byteOffset": 0, "componentType": 5126, "count": 16, "type": "VEC3", "min": [-0.445556640625, 0.000244140625, -0.43994140625], "max": [0.445556640625, 0.633544921875, 0.437744140625]}, {"bufferView": 5, "byteOffset": 0, "componentType": 5126, "count": 16, "type": "VEC2"}, {"bufferView": 6, "byteOffset": 0, "componentType": 5126, "count": 16, "type": "VEC3"}, {"bufferView": 7, "byteOffset": 0, "componentType": 5123, "count": 36, "type": "SCALAR"}, {"bufferView": 8, "byteOffset": 0, "componentType": 5126, "count": 16, "type": "VEC3", "min": [-0.445556640625, 0.000244140625, -0.43994140625], "max": [0.445556640625, 0.633544921875, 0.437744140625]}, {"bufferView": 9, "byteOffset": 0, "componentType": 5126, "count": 16, "type": "VEC2"}, {"bufferView": 10, "byteOffset": 0, "componentType": 5126, "count": 16, "type": "VEC3"}, {"bufferView": 11, "byteOffset": 0, "componentType": 5123, "count": 36, "type": "SCALAR"}], "samplers": [{"magFilter": 9729, "minFilter": 9729, "wrapS": 10497, "wrapT": 10497}]}