{"asset": {"version": "2.0", "generator": "tongari-nsbmd-to-gltf"}, "scene": 0, "scenes": [{"nodes": [0, 1]}], "nodes": [{"name": "imfy03_05", "translation": [0.0, 0.0, 0.0]}, {"mesh": 0, "name": "3153IMFY03_05"}], "meshes": [{"name": "3153IMFY03_05", "primitives": [{"attributes": {"POSITION": 0, "TEXCOORD_0": 1, "NORMAL": 2}, "indices": 3, "mode": 4, "material": 1}, {"attributes": {"POSITION": 4, "TEXCOORD_0": 5, "NORMAL": 6}, "indices": 7, "mode": 4, "material": 0}]}], "materials": [{"name": "imfy03_05_0", "pbrMetallicRoughness": {"baseColorFactor": [1.0, 1.0, 1.0, 1.0], "metallicFactor": 0.0, "roughnessFactor": 1.0}, "alphaMode": "OPAQUE", "doubleSided": true}, {"name": "imfy03_05_1", "pbrMetallicRoughness": {"baseColorFactor": [1.0, 1.0, 1.0, 1.0], "metallicFactor": 0.0, "roughnessFactor": 1.0}, "alphaMode": "OPAQUE", "doubleSided": true}], "buffers": [{"byteLength": 4108, "uri": "data:application/octet-stream;base64,"}], "bufferViews": [{"buffer": 0, "byteOffset": 0, "byteLength": 1344}, {"buffer": 0, "byteOffset": 1344, "byteLength": 896}, {"buffer": 0, "byteOffset": 2240, "byteLength": 1344}, {"buffer": 0, "byteOffset": 3584, "byteLength": 384}, {"buffer": 0, "byteOffset": 3968, "byteLength": 48}, {"buffer": 0, "byteOffset": 4016, "byteLength": 32}, {"buffer": 0, "byteOffset": 4048, "byteLength": 48}, {"buffer": 0, "byteOffset": 4096, "byteLength": 12}], "accessors": [{"bufferView": 0, "byteOffset": 0, "componentType": 5126, "count": 112, "type": "VEC3", "min": [-0.97509765625, 0.0, -0.47509765625], "max": [0.97509765625, 0.75, 0.47509765625]}, {"bufferView": 1, "byteOffset": 0, "componentType": 5126, "count": 112, "type": "VEC2"}, {"bufferView": 2, "byteOffset": 0, "componentType": 5126, "count": 112, "type": "VEC3"}, {"bufferView": 3, "byteOffset": 0, "componentType": 5123, "count": 192, "type": "SCALAR"}, {"bufferView": 4, "byteOffset": 0, "componentType": 5126, "count": 4, "type": "VEC3", "min": [-0.688720703125, 0.75, -0.47509765625], "max": [0.688720703125, 0.75, 0.47509765625]}, {"bufferView": 5, "byteOffset": 0, "componentType": 5126, "count": 4, "type": "VEC2"}, {"bufferView": 6, "byteOffset": 0, "componentType": 5126, "count": 4, "type": "VEC3"}, {"bufferView": 7, "byteOffset": 0, "componentType": 5123, "count": 6, "type": "SCALAR"}], "samplers": [{"magFilter": 9729, "minFilter": 9729, "wrapS": 10497, "wrapT": 10497}]}