{"asset": {"version": "2.0", "generator": "tongari-nsbmd-to-gltf"}, "scene": 0, "scenes": [{"nodes": [0, 5]}], "nodes": [{"name": "berry_af_cra", "translation": [0.0, 0.0, 0.0], "children": [1, 2, 3, 4]}, {"name": "ha", "translation": [-0.01123046875, 0.55517578125, -0.31982421875]}, {"name": "mi0", "translation": [0.52587890625, -1.97216796875, 0.26171875]}, {"name": "mi1", "translation": [0.07958984375, 0.888671875, -0.022216796875]}, {"name": "mi2", "translation": [-0.530517578125, -1.817138671875, 0.037353515625]}, {"mesh": 0, "name": "berry_af_cra"}], "meshes": [{"name": "berry_af_cra", "primitives": [{"attributes": {"POSITION": 0, "TEXCOORD_0": 1, "NORMAL": 2}, "indices": 3, "mode": 4, "material": 1}, {"attributes": {"POSITION": 4, "TEXCOORD_0": 5, "NORMAL": 6}, "indices": 7, "mode": 4, "material": 1}, {"attributes": {"POSITION": 8, "TEXCOORD_0": 9, "NORMAL": 10}, "indices": 11, "mode": 4, "material": 0}, {"attributes": {"POSITION": 12, "TEXCOORD_0": 13, "NORMAL": 14}, "indices": 15, "mode": 4, "material": 0}, {"attributes": {"POSITION": 16, "TEXCOORD_0": 17, "NORMAL": 18}, "indices": 19, "mode": 4, "material": 0}]}], "materials": [{"name": "berry_cra", "pbrMetallicRoughness": {"baseColorFactor": [1.0, 1.0, 1.0, 1.0], "metallicFactor": 0.0, "roughnessFactor": 1.0}, "alphaMode": "OPAQUE", "doubleSided": true}, {"name": "berry_ha", "pbrMetallicRoughness": {"baseColorFactor": [1.0, 1.0, 1.0, 1.0], "metallicFactor": 0.0, "roughnessFactor": 1.0}, "alphaMode": "OPAQUE", "doubleSided": true}], "buffers": [{"byteLength": 1260, "uri": "data:application/octet-stream;base64,"}], "bufferViews": [{"buffer": 0, "byteOffset": 0, "byteLength": 48}, {"buffer": 0, "byteOffset": 48, "byteLength": 32}, {"buffer": 0, "byteOffset": 80, "byteLength": 48}, {"buffer": 0, "byteOffset": 128, "byteLength": 12}, {"buffer": 0, "byteOffset": 140, "byteLength": 240}, {"buffer": 0, "byteOffset": 380, "byteLength": 160}, {"buffer": 0, "byteOffset": 540, "byteLength": 240}, {"buffer": 0, "byteOffset": 780, "byteLength": 60}, {"buffer": 0, "byteOffset": 840, "byteLength": 48}, {"buffer": 0, "byteOffset": 888, "byteLength": 32}, {"buffer": 0, "byteOffset": 920, "byteLength": 48}, {"buffer": 0, "byteOffset": 968, "byteLength": 12}, {"buffer": 0, "byteOffset": 980, "byteLength": 48}, {"buffer": 0, "byteOffset": 1028, "byteLength": 32}, {"buffer": 0, "byteOffset": 1060, "byteLength": 48}, {"buffer": 0, "byteOffset": 1108, "byteLength": 12}, {"buffer": 0, "byteOffset": 1120, "byteLength": 48}, {"buffer": 0, "byteOffset": 1168, "byteLength": 32}, {"buffer": 0, "byteOffset": 1200, "byteLength": 48}, {"buffer": 0, "byteOffset": 1248, "byteLength": 12}], "accessors": [{"bufferView": 0, "byteOffset": 0, "componentType": 5126, "count": 4, "type": "VEC3", "min": [-0.337158203125, -0.052734375, -0.383056640625], "max": [0.3994140625, 0.58740234375, -0.013427734375]}, {"bufferView": 1, "byteOffset": 0, "componentType": 5126, "count": 4, "type": "VEC2"}, {"bufferView": 2, "byteOffset": 0, "componentType": 5126, "count": 4, "type": "VEC3"}, {"bufferView": 3, "byteOffset": 0, "componentType": 5123, "count": 6, "type": "SCALAR"}, {"bufferView": 4, "byteOffset": 0, "componentType": 5126, "count": 20, "type": "VEC3", "min": [-1.158935546875, -0.739990234375, -0.6201171875], "max": [1.158935546875, 0.739990234375, 0.55810546875]}, {"bufferView": 5, "byteOffset": 0, "componentType": 5126, "count": 20, "type": "VEC2"}, {"bufferView": 6, "byteOffset": 0, "componentType": 5126, "count": 20, "type": "VEC3"}, {"bufferView": 7, "byteOffset": 0, "componentType": 5123, "count": 30, "type": "SCALAR"}, {"bufferView": 8, "byteOffset": 0, "componentType": 5126, "count": 4, "type": "VEC3", "min": [-0.2197265625, 0.0, -0.220458984375], "max": [0.2197265625, 0.380126953125, 0.0]}, {"bufferView": 9, "byteOffset": 0, "componentType": 5126, "count": 4, "type": "VEC2"}, {"bufferView": 10, "byteOffset": 0, "componentType": 5126, "count": 4, "type": "VEC3"}, {"bufferView": 11, "byteOffset": 0, "componentType": 5123, "count": 6, "type": "SCALAR"}, {"bufferView": 12, "byteOffset": 0, "componentType": 5126, "count": 4, "type": "VEC3", "min": [-0.2197265625, 0.0, -0.220458984375], "max": [0.2197265625, 0.380126953125, 0.0]}, {"bufferView": 13, "byteOffset": 0, "componentType": 5126, "count": 4, "type": "VEC2"}, {"bufferView": 14, "byteOffset": 0, "componentType": 5126, "count": 4, "type": "VEC3"}, {"bufferView": 15, "byteOffset": 0, "componentType": 5123, "count": 6, "type": "SCALAR"}, {"bufferView": 16, "byteOffset": 0, "componentType": 5126, "count": 4, "type": "VEC3", "min": [-0.2197265625, 0.0, -0.220458984375], "max": [0.2197265625, 0.380126953125, 0.0]}, {"bufferView": 17, "byteOffset": 0, "componentType": 5126, "count": 4, "type": "VEC2"}, {"bufferView": 18, "byteOffset": 0, "componentType": 5126, "count": 4, "type": "VEC3"}, {"bufferView": 19, "byteOffset": 0, "componentType": 5123, "count": 6, "type": "SCALAR"}], "samplers": [{"magFilter": 9729, "minFilter": 9729, "wrapS": 10497, "wrapT": 10497}]}