{"asset": {"version": "2.0", "generator": "tongari-nsbmd-to-gltf"}, "scene": 0, "scenes": [{"nodes": [0, 9]}], "nodes": [{"name": "ef_33", "translation": [0.0, 0.0, 0.0], "children": [1, 2, 3, 4, 5, 6, 7, 8]}, {"name": "pPlane1", "translation": [1.171875, -0.62841796875, -0.242919921875], "rotation": [0.0, 0.0, 0.7071067811865476, 0.0]}, {"name": "pPlane1_1", "translation": [0.0, -0.331787109375, 1.0]}, {"name": "pPlane2", "translation": [0.846923828125, -0.352783203125, 0.408935546875], "rotation": [0.0, 0.0, 0.7071067811865476, 0.0]}, {"name": "pPlane2_1", "translation": [-0.24365234375, -0.658447265625, 0.574462890625], "rotation": [0.0, 0.0, 0.7071067811865476, 0.0]}, {"name": "pPlane2_2", "translation": [-0.654296875, -0.645751953125, 0.06396484375], "rotation": [0.0, 0.0, 0.7071067811865476, 0.0]}, {"name": "pPlane2_3", "translation": [-0.65185546875, 0.0205078125, 0.675048828125], "rotation": [0.5, 0.5, 0.5, 0.5]}, {"name": "pPlane2_4", "translation": [-0.817626953125, -0.331787109375, -0.41552734375]}, {"name": "pPlane2_5", "translation": [-0.306884765625, -0.331787109375, -0.826416015625]}, {"mesh": 0, "name": "ef_054"}], "meshes": [{"name": "ef_054", "primitives": [{"attributes": {"POSITION": 0, "TEXCOORD_0": 1}, "indices": 2, "mode": 4, "material": 0}, {"attributes": {"POSITION": 3, "TEXCOORD_0": 4}, "indices": 5, "mode": 4, "material": 0}, {"attributes": {"POSITION": 6, "TEXCOORD_0": 7}, "indices": 8, "mode": 4, "material": 0}, {"attributes": {"POSITION": 9, "TEXCOORD_0": 10}, "indices": 11, "mode": 4, "material": 0}, {"attributes": {"POSITION": 12, "TEXCOORD_0": 13}, "indices": 14, "mode": 4, "material": 0}, {"attributes": {"POSITION": 15, "TEXCOORD_0": 16}, "indices": 17, "mode": 4, "material": 0}, {"attributes": {"POSITION": 18, "TEXCOORD_0": 19}, "indices": 20, "mode": 4, "material": 0}, {"attributes": {"POSITION": 21, "TEXCOORD_0": 22}, "indices": 23, "mode": 4, "material": 0}]}], "materials": [{"name": "lambert3", "pbrMetallicRoughness": {"baseColorFactor": [1.0, 1.0, 1.0, 1.0], "metallicFactor": 0.0, "roughnessFactor": 1.0}, "alphaMode": "OPAQUE", "doubleSided": true}], "buffers": [{"byteLength": 736, "uri": "data:application/octet-stream;base64,"}], "bufferViews": [{"buffer": 0, "byteOffset": 0, "byteLength": 48}, {"buffer": 0, "byteOffset": 48, "byteLength": 32}, {"buffer": 0, "byteOffset": 80, "byteLength": 12}, {"buffer": 0, "byteOffset": 92, "byteLength": 48}, {"buffer": 0, "byteOffset": 140, "byteLength": 32}, {"buffer": 0, "byteOffset": 172, "byteLength": 12}, {"buffer": 0, "byteOffset": 184, "byteLength": 48}, {"buffer": 0, "byteOffset": 232, "byteLength": 32}, {"buffer": 0, "byteOffset": 264, "byteLength": 12}, {"buffer": 0, "byteOffset": 276, "byteLength": 48}, {"buffer": 0, "byteOffset": 324, "byteLength": 32}, {"buffer": 0, "byteOffset": 356, "byteLength": 12}, {"buffer": 0, "byteOffset": 368, "byteLength": 48}, {"buffer": 0, "byteOffset": 416, "byteLength": 32}, {"buffer": 0, "byteOffset": 448, "byteLength": 12}, {"buffer": 0, "byteOffset": 460, "byteLength": 48}, {"buffer": 0, "byteOffset": 508, "byteLength": 32}, {"buffer": 0, "byteOffset": 540, "byteLength": 12}, {"buffer": 0, "byteOffset": 552, "byteLength": 48}, {"buffer": 0, "byteOffset": 600, "byteLength": 32}, {"buffer": 0, "byteOffset": 632, "byteLength": 12}, {"buffer": 0, "byteOffset": 644, "byteLength": 48}, {"buffer": 0, "byteOffset": 692, "byteLength": 32}, {"buffer": 0, "byteOffset": 724, "byteLength": 12}], "accessors": [{"bufferView": 0, "byteOffset": 0, "componentType": 5126, "count": 4, "type": "VEC3", "min": [-0.264404296875, -0.264404296875, 0.0], "max": [0.264404296875, 0.264404296875, 0.0]}, {"bufferView": 1, "byteOffset": 0, "componentType": 5126, "count": 4, "type": "VEC2"}, {"bufferView": 2, "byteOffset": 0, "componentType": 5123, "count": 6, "type": "SCALAR"}, {"bufferView": 3, "byteOffset": 0, "componentType": 5126, "count": 4, "type": "VEC3", "min": [-0.264404296875, -0.264404296875, 0.0], "max": [0.264404296875, 0.264404296875, 0.0]}, {"bufferView": 4, "byteOffset": 0, "componentType": 5126, "count": 4, "type": "VEC2"}, {"bufferView": 5, "byteOffset": 0, "componentType": 5123, "count": 6, "type": "SCALAR"}, {"bufferView": 6, "byteOffset": 0, "componentType": 5126, "count": 4, "type": "VEC3", "min": [-0.264404296875, -0.264404296875, 0.0], "max": [0.264404296875, 0.264404296875, 0.0]}, {"bufferView": 7, "byteOffset": 0, "componentType": 5126, "count": 4, "type": "VEC2"}, {"bufferView": 8, "byteOffset": 0, "componentType": 5123, "count": 6, "type": "SCALAR"}, {"bufferView": 9, "byteOffset": 0, "componentType": 5126, "count": 4, "type": "VEC3", "min": [-0.264404296875, -0.264404296875, 0.0], "max": [0.264404296875, 0.264404296875, 0.0]}, {"bufferView": 10, "byteOffset": 0, "componentType": 5126, "count": 4, "type": "VEC2"}, {"bufferView": 11, "byteOffset": 0, "componentType": 5123, "count": 6, "type": "SCALAR"}, {"bufferView": 12, "byteOffset": 0, "componentType": 5126, "count": 4, "type": "VEC3", "min": [-0.264404296875, -0.264404296875, 0.0], "max": [0.264404296875, 0.264404296875, 0.0]}, {"bufferView": 13, "byteOffset": 0, "componentType": 5126, "count": 4, "type": "VEC2"}, {"bufferView": 14, "byteOffset": 0, "componentType": 5123, "count": 6, "type": "SCALAR"}, {"bufferView": 15, "byteOffset": 0, "componentType": 5126, "count": 4, "type": "VEC3", "min": [-0.264404296875, -0.264404296875, 0.0], "max": [0.264404296875, 0.264404296875, 0.0]}, {"bufferView": 16, "byteOffset": 0, "componentType": 5126, "count": 4, "type": "VEC2"}, {"bufferView": 17, "byteOffset": 0, "componentType": 5123, "count": 6, "type": "SCALAR"}, {"bufferView": 18, "byteOffset": 0, "componentType": 5126, "count": 4, "type": "VEC3", "min": [-0.264404296875, -0.264404296875, 0.0], "max": [0.264404296875, 0.264404296875, 0.0]}, {"bufferView": 19, "byteOffset": 0, "componentType": 5126, "count": 4, "type": "VEC2"}, {"bufferView": 20, "byteOffset": 0, "componentType": 5123, "count": 6, "type": "SCALAR"}, {"bufferView": 21, "byteOffset": 0, "componentType": 5126, "count": 4, "type": "VEC3", "min": [-0.264404296875, -0.264404296875, 0.0], "max": [0.264404296875, 0.264404296875, 0.0]}, {"bufferView": 22, "byteOffset": 0, "componentType": 5126, "count": 4, "type": "VEC2"}, {"bufferView": 23, "byteOffset": 0, "componentType": 5123, "count": 6, "type": "SCALAR"}], "samplers": [{"magFilter": 9729, "minFilter": 9729, "wrapS": 10497, "wrapT": 10497}]}