{"asset": {"version": "2.0", "generator": "tongari-nsbmd-to-gltf"}, "scene": 0, "scenes": [{"nodes": [0, 1]}], "nodes": [{"name": "sc_passage", "translation": [0.0, 0.0, 0.0]}, {"mesh": 0, "name": "sc_passage"}], "meshes": [{"name": "sc_passage", "primitives": [{"attributes": {"POSITION": 0, "TEXCOORD_0": 1, "NORMAL": 2}, "indices": 3, "mode": 4, "material": 18}, {"attributes": {"POSITION": 4, "TEXCOORD_0": 5, "NORMAL": 6}, "indices": 7, "mode": 4, "material": 10}, {"attributes": {"POSITION": 8, "TEXCOORD_0": 9, "NORMAL": 10}, "indices": 11, "mode": 4, "material": 23}, {"attributes": {"POSITION": 12, "TEXCOORD_0": 13, "NORMAL": 14}, "indices": 15, "mode": 4, "material": 22}, {"attributes": {"POSITION": 16, "TEXCOORD_0": 17, "NORMAL": 18}, "indices": 19, "mode": 4, "material": 5}, {"attributes": {"POSITION": 20, "TEXCOORD_0": 21, "NORMAL": 22}, "indices": 23, "mode": 4, "material": 6}, {"attributes": {"POSITION": 24, "TEXCOORD_0": 25, "NORMAL": 26}, "indices": 27, "mode": 4, "material": 24}, {"attributes": {"POSITION": 28, "TEXCOORD_0": 29, "NORMAL": 30}, "indices": 31, "mode": 4, "material": 29}, {"attributes": {"POSITION": 32, "TEXCOORD_0": 33, "NORMAL": 34}, "indices": 35, "mode": 4, "material": 17}, {"attributes": {"POSITION": 36, "TEXCOORD_0": 37, "NORMAL": 38}, "indices": 39, "mode": 4, "material": 16}, {"attributes": {"POSITION": 40, "TEXCOORD_0": 41, "NORMAL": 42}, "indices": 43, "mode": 4, "material": 28}, {"attributes": {"POSITION": 44, "TEXCOORD_0": 45, "NORMAL": 46}, "indices": 47, "mode": 4, "material": 19}, {"attributes": {"POSITION": 48, "TEXCOORD_0": 49, "NORMAL": 50}, "indices": 51, "mode": 4, "material": 21}, {"attributes": {"POSITION": 52, "TEXCOORD_0": 53, "NORMAL": 54}, "indices": 55, "mode": 4, "material": 8}, {"attributes": {"POSITION": 56, "TEXCOORD_0": 57, "NORMAL": 58}, "indices": 59, "mode": 4, "material": 7}, {"attributes": {"POSITION": 60, "TEXCOORD_0": 61, "NORMAL": 62}, "indices": 63, "mode": 4, "material": 9}, {"attributes": {"POSITION": 64, "TEXCOORD_0": 65, "NORMAL": 66}, "indices": 67, "mode": 4, "material": 12}, {"attributes": {"POSITION": 68, "TEXCOORD_0": 69, "NORMAL": 70}, "indices": 71, "mode": 4, "material": 1}, {"attributes": {"POSITION": 72, "TEXCOORD_0": 73, "NORMAL": 74}, "indices": 75, "mode": 4, "material": 0}, {"attributes": {"POSITION": 76, "TEXCOORD_0": 77, "NORMAL": 78}, "indices": 79, "mode": 4, "material": 26}, {"attributes": {"POSITION": 80, "TEXCOORD_0": 81, "NORMAL": 82}, "indices": 83, "mode": 4, "material": 25}, {"attributes": {"POSITION": 84, "TEXCOORD_0": 85, "NORMAL": 86}, "indices": 87, "mode": 4, "material": 27}, {"attributes": {"POSITION": 88, "TEXCOORD_0": 89, "NORMAL": 90}, "indices": 91, "mode": 4, "material": 30}, {"attributes": {"POSITION": 92, "TEXCOORD_0": 93, "NORMAL": 94}, "indices": 95, "mode": 4, "material": 2}, {"attributes": {"POSITION": 96, "TEXCOORD_0": 97, "NORMAL": 98}, "indices": 99, "mode": 4, "material": 3}, {"attributes": {"POSITION": 100, "TEXCOORD_0": 101, "NORMAL": 102}, "indices": 103, "mode": 4, "material": 4}, {"attributes": {"POSITION": 104, "TEXCOORD_0": 105, "NORMAL": 106}, "indices": 107, "mode": 4, "material": 31}, {"attributes": {"POSITION": 108, "TEXCOORD_0": 109, "NORMAL": 110}, "indices": 111, "mode": 4, "material": 11}, {"attributes": {"POSITION": 112, "TEXCOORD_0": 113, "NORMAL": 114}, "indices": 115, "mode": 4, "material": 13}, {"attributes": {"POSITION": 116, "TEXCOORD_0": 117, "NORMAL": 118}, "indices": 119, "mode": 4, "material": 20}, {"attributes": {"POSITION": 120, "TEXCOORD_0": 121, "NORMAL": 122}, "indices": 123, "mode": 4, "material": 15}, {"attributes": {"POSITION": 124, "TEXCOORD_0": 125, "NORMAL": 126}, "indices": 127, "mode": 4, "material": 14}]}], "materials": [{"name": "bg_r_sc00_o05", "pbrMetallicRoughness": {"baseColorFactor": [1.0, 1.0, 1.0, 1.0], "metallicFactor": 0.0, "roughnessFactor": 1.0}, "alphaMode": "OPAQUE", "doubleSided": true}, {"name": "object_shade", "pbrMetallicRoughness": {"baseColorFactor": [0.803921568627451, 0.803921568627451, 0.803921568627451, 0.41935483870967744], "metallicFactor": 0.0, "roughnessFactor": 1.0}, "alphaMode": "BLEND", "doubleSided": true}, {"name": "r_zakka_lt01", "pbrMetallicRoughness": {"baseColorFactor": [1.0, 1.0, 1.0, 1.0], "metallicFactor": 0.0, "roughnessFactor": 1.0}, "alphaMode": "OPAQUE", "doubleSided": true}, {"name": "r_zakka_lt02", "pbrMetallicRoughness": {"baseColorFactor": [1.0, 1.0, 1.0, 1.0], "metallicFactor": 0.0, "roughnessFactor": 1.0}, "alphaMode": "OPAQUE", "doubleSided": true}, {"name": "r_zakka_lt03", "pbrMetallicRoughness": {"baseColorFactor": [1.0, 1.0, 1.0, 1.0], "metallicFactor": 0.0, "roughnessFactor": 1.0}, "alphaMode": "OPAQUE", "doubleSided": true}, {"name": "sc_heri0", "pbrMetallicRoughness": {"baseColorFactor": [1.0, 1.0, 1.0, 1.0], "metallicFactor": 0.0, "roughnessFactor": 1.0}, "alphaMode": "OPAQUE", "doubleSided": true}, {"name": "sc_heri01", "pbrMetallicRoughness": {"baseColorFactor": [1.0, 1.0, 1.0, 1.0], "metallicFactor": 0.0, "roughnessFactor": 1.0}, "alphaMode": "OPAQUE", "doubleSided": true}, {"name": "sc_path_dwk00", "pbrMetallicRoughness": {"baseColorFactor": [1.0, 1.0, 1.0, 1.0], "metallicFactor": 0.0, "roughnessFactor": 1.0}, "alphaMode": "OPAQUE", "doubleSided": true}, {"name": "sc_path_dwk01", "pbrMetallicRoughness": {"baseColorFactor": [1.0, 1.0, 1.0, 1.0], "metallicFactor": 0.0, "roughnessFactor": 1.0}, "alphaMode": "OPAQUE", "doubleSided": true}, {"name": "sc_path_dwk02", "pbrMetallicRoughness": {"baseColorFactor": [1.0, 1.0, 1.0, 1.0], "metallicFactor": 0.0, "roughnessFactor": 1.0}, "alphaMode": "OPAQUE", "doubleSided": true}, {"name": "sc_path_f00", "pbrMetallicRoughness": {"baseColorFactor": [1.0, 1.0, 1.0, 1.0], "metallicFactor": 0.0, "roughnessFactor": 1.0}, "alphaMode": "OPAQUE", "doubleSided": true}, {"name": "sc_path_f01", "pbrMetallicRoughness": {"baseColorFactor": [1.0, 1.0, 1.0, 1.0], "metallicFactor": 0.0, "roughnessFactor": 1.0}, "alphaMode": "OPAQUE", "doubleSided": true}, {"name": "sc_path_frame", "pbrMetallicRoughness": {"baseColorFactor": [1.0, 1.0, 1.0, 1.0], "metallicFactor": 0.0, "roughnessFactor": 1.0}, "alphaMode": "OPAQUE", "doubleSided": true}, {"name": "sc_path_ke00", "pbrMetallicRoughness": {"baseColorFactor": [1.0, 1.0, 1.0, 1.0], "metallicFactor": 0.0, "roughnessFactor": 1.0}, "alphaMode": "OPAQUE", "doubleSided": true}, {"name": "sc_path_lt00", "pbrMetallicRoughness": {"baseColorFactor": [1.0, 1.0, 1.0, 1.0], "metallicFactor": 0.0, "roughnessFactor": 1.0}, "alphaMode": "OPAQUE", "doubleSided": true}, {"name": "sc_path_lt01", "pbrMetallicRoughness": {"baseColorFactor": [1.0, 1.0, 1.0, 1.0], "metallicFactor": 0.0, "roughnessFactor": 1.0}, "alphaMode": "OPAQUE", "doubleSided": true}, {"name": "sc_path_mark0", "pbrMetallicRoughness": {"baseColorFactor": [1.0, 1.0, 1.0, 1.0], "metallicFactor": 0.0, "roughnessFactor": 1.0}, "alphaMode": "OPAQUE", "doubleSided": true}, {"name": "sc_path_mark1", "pbrMetallicRoughness": {"baseColorFactor": [1.0, 1.0, 1.0, 1.0], "metallicFactor": 0.0, "roughnessFactor": 1.0}, "alphaMode": "OPAQUE", "doubleSided": true}, {"name": "sc_path_mark2", "pbrMetallicRoughness": {"baseColorFactor": [1.0, 1.0, 1.0, 1.0], "metallicFactor": 0.0, "roughnessFactor": 1.0}, "alphaMode": "OPAQUE", "doubleSided": true}, {"name": "sc_path_mark3", "pbrMetallicRoughness": {"baseColorFactor": [1.0, 1.0, 1.0, 1.0], "metallicFactor": 0.0, "roughnessFactor": 1.0}, "alphaMode": "OPAQUE", "doubleSided": true}, {"name": "sc_path_pi00", "pbrMetallicRoughness": {"baseColorFactor": [1.0, 1.0, 1.0, 1.0], "metallicFactor": 0.0, "roughnessFactor": 1.0}, "alphaMode": "OPAQUE", "doubleSided": true}, {"name": "sc_path_siren", "pbrMetallicRoughness": {"baseColorFactor": [1.0, 1.0, 1.0, 1.0], "metallicFactor": 0.0, "roughnessFactor": 1.0}, "alphaMode": "OPAQUE", "doubleSided": true}, {"name": "sc_path_sk00", "pbrMetallicRoughness": {"baseColorFactor": [0.803921568627451, 0.803921568627451, 0.803921568627451, 1.0], "metallicFactor": 0.0, "roughnessFactor": 1.0}, "alphaMode": "OPAQUE", "doubleSided": true}, {"name": "sc_path_sk01", "pbrMetallicRoughness": {"baseColorFactor": [1.0, 1.0, 1.0, 1.0], "metallicFactor": 0.0, "roughnessFactor": 1.0}, "alphaMode": "OPAQUE", "doubleSided": true}, {"name": "sc_path_step0", "pbrMetallicRoughness": {"baseColorFactor": [1.0, 1.0, 1.0, 1.0], "metallicFactor": 0.0, "roughnessFactor": 1.0}, "alphaMode": "OPAQUE", "doubleSided": true}, {"name": "sc_path_w01", "pbrMetallicRoughness": {"baseColorFactor": [1.0, 1.0, 1.0, 1.0], "metallicFactor": 0.0, "roughnessFactor": 1.0}, "alphaMode": "OPAQUE", "doubleSided": true}, {"name": "sc_path_w02", "pbrMetallicRoughness": {"baseColorFactor": [1.0, 1.0, 1.0, 1.0], "metallicFactor": 0.0, "roughnessFactor": 1.0}, "alphaMode": "OPAQUE", "doubleSided": true}, {"name": "sc_path_w03", "pbrMetallicRoughness": {"baseColorFactor": [1.0, 1.0, 1.0, 1.0], "metallicFactor": 0.0, "roughnessFactor": 1.0}, "alphaMode": "OPAQUE", "doubleSided": true}, {"name": "sh_path_mark4", "pbrMetallicRoughness": {"baseColorFactor": [1.0, 1.0, 1.0, 1.0], "metallicFactor": 0.0, "roughnessFactor": 1.0}, "alphaMode": "OPAQUE", "doubleSided": true}, {"name": "shade_shade", "pbrMetallicRoughness": {"baseColorFactor": [0.803921568627451, 0.803921568627451, 0.803921568627451, 1.0], "metallicFactor": 0.0, "roughnessFactor": 1.0}, "alphaMode": "OPAQUE", "doubleSided": true}, {"name": "wall", "pbrMetallicRoughness": {"baseColorFactor": [1.0, 1.0, 1.0, 1.0], "metallicFactor": 0.0, "roughnessFactor": 1.0}, "alphaMode": "OPAQUE", "doubleSided": true}, {"name": "wall01", "pbrMetallicRoughness": {"baseColorFactor": [1.0, 1.0, 1.0, 1.0], "metallicFactor": 0.0, "roughnessFactor": 1.0}, "alphaMode": "OPAQUE", "doubleSided": true}], "buffers": [{"byteLength": 107802, "uri": "data:application/octet-stream;base64,"}], "bufferViews": [{"buffer": 0, "byteOffset": 0, "byteLength": 48}, {"buffer": 0, "byteOffset": 48, "byteLength": 32}, {"buffer": 0, "byteOffset": 80, "byteLength": 48}, {"buffer": 0, "byteOffset": 128, "byteLength": 12}, {"buffer": 0, "byteOffset": 140, "byteLength": 984}, {"buffer": 0, "byteOffset": 1124, "byteLength": 656}, {"buffer": 0, "byteOffset": 1780, "byteLength": 984}, {"buffer": 0, "byteOffset": 2764, "byteLength": 324}, {"buffer": 0, "byteOffset": 3088, "byteLength": 1128}, {"buffer": 0, "byteOffset": 4216, "byteLength": 752}, {"buffer": 0, "byteOffset": 4968, "byteLength": 1128}, {"buffer": 0, "byteOffset": 6096, "byteLength": 252}, {"buffer": 0, "byteOffset": 6348, "byteLength": 720}, {"buffer": 0, "byteOffset": 7068, "byteLength": 480}, {"buffer": 0, "byteOffset": 7548, "byteLength": 720}, {"buffer": 0, "byteOffset": 8268, "byteLength": 180}, {"buffer": 0, "byteOffset": 8448, "byteLength": 384}, {"buffer": 0, "byteOffset": 8832, "byteLength": 256}, {"buffer": 0, "byteOffset": 9088, "byteLength": 384}, {"buffer": 0, "byteOffset": 9472, "byteLength": 96}, {"buffer": 0, "byteOffset": 9568, "byteLength": 624}, {"buffer": 0, "byteOffset": 10192, "byteLength": 416}, {"buffer": 0, "byteOffset": 10608, "byteLength": 624}, {"buffer": 0, "byteOffset": 11232, "byteLength": 168}, {"buffer": 0, "byteOffset": 11400, "byteLength": 8832}, {"buffer": 0, "byteOffset": 20232, "byteLength": 5888}, {"buffer": 0, "byteOffset": 26120, "byteLength": 8832}, {"buffer": 0, "byteOffset": 34952, "byteLength": 2736}, {"buffer": 0, "byteOffset": 37688, "byteLength": 384}, {"buffer": 0, "byteOffset": 38072, "byteLength": 256}, {"buffer": 0, "byteOffset": 38328, "byteLength": 384}, {"buffer": 0, "byteOffset": 38712, "byteLength": 108}, {"buffer": 0, "byteOffset": 38820, "byteLength": 48}, {"buffer": 0, "byteOffset": 38868, "byteLength": 32}, {"buffer": 0, "byteOffset": 38900, "byteLength": 48}, {"buffer": 0, "byteOffset": 38948, "byteLength": 12}, {"buffer": 0, "byteOffset": 38960, "byteLength": 48}, {"buffer": 0, "byteOffset": 39008, "byteLength": 32}, {"buffer": 0, "byteOffset": 39040, "byteLength": 48}, {"buffer": 0, "byteOffset": 39088, "byteLength": 12}, {"buffer": 0, "byteOffset": 39100, "byteLength": 48}, {"buffer": 0, "byteOffset": 39148, "byteLength": 32}, {"buffer": 0, "byteOffset": 39180, "byteLength": 48}, {"buffer": 0, "byteOffset": 39228, "byteLength": 12}, {"buffer": 0, "byteOffset": 39240, "byteLength": 48}, {"buffer": 0, "byteOffset": 39288, "byteLength": 32}, {"buffer": 0, "byteOffset": 39320, "byteLength": 48}, {"buffer": 0, "byteOffset": 39368, "byteLength": 12}, {"buffer": 0, "byteOffset": 39380, "byteLength": 552}, {"buffer": 0, "byteOffset": 39932, "byteLength": 368}, {"buffer": 0, "byteOffset": 40300, "byteLength": 552}, {"buffer": 0, "byteOffset": 40852, "byteLength": 180}, {"buffer": 0, "byteOffset": 41032, "byteLength": 600}, {"buffer": 0, "byteOffset": 41632, "byteLength": 400}, {"buffer": 0, "byteOffset": 42032, "byteLength": 600}, {"buffer": 0, "byteOffset": 42632, "byteLength": 240}, {"buffer": 0, "byteOffset": 42872, "byteLength": 1488}, {"buffer": 0, "byteOffset": 44360, "byteLength": 992}, {"buffer": 0, "byteOffset": 45352, "byteLength": 1488}, {"buffer": 0, "byteOffset": 46840, "byteLength": 480}, {"buffer": 0, "byteOffset": 47320, "byteLength": 168}, {"buffer": 0, "byteOffset": 47488, "byteLength": 112}, {"buffer": 0, "byteOffset": 47600, "byteLength": 168}, {"buffer": 0, "byteOffset": 47768, "byteLength": 48}, {"buffer": 0, "byteOffset": 47816, "byteLength": 48}, {"buffer": 0, "byteOffset": 47864, "byteLength": 32}, {"buffer": 0, "byteOffset": 47896, "byteLength": 48}, {"buffer": 0, "byteOffset": 47944, "byteLength": 12}, {"buffer": 0, "byteOffset": 47956, "byteLength": 528}, {"buffer": 0, "byteOffset": 48484, "byteLength": 352}, {"buffer": 0, "byteOffset": 48836, "byteLength": 528}, {"buffer": 0, "byteOffset": 49364, "byteLength": 168}, {"buffer": 0, "byteOffset": 49532, "byteLength": 1620}, {"buffer": 0, "byteOffset": 51152, "byteLength": 1080}, {"buffer": 0, "byteOffset": 52232, "byteLength": 1620}, {"buffer": 0, "byteOffset": 53852, "byteLength": 522}, {"buffer": 0, "byteOffset": 54376, "byteLength": 2688}, {"buffer": 0, "byteOffset": 57064, "byteLength": 1792}, {"buffer": 0, "byteOffset": 58856, "byteLength": 2688}, {"buffer": 0, "byteOffset": 61544, "byteLength": 960}, {"buffer": 0, "byteOffset": 62504, "byteLength": 480}, {"buffer": 0, "byteOffset": 62984, "byteLength": 320}, {"buffer": 0, "byteOffset": 63304, "byteLength": 480}, {"buffer": 0, "byteOffset": 63784, "byteLength": 144}, {"buffer": 0, "byteOffset": 63928, "byteLength": 312}, {"buffer": 0, "byteOffset": 64240, "byteLength": 208}, {"buffer": 0, "byteOffset": 64448, "byteLength": 312}, {"buffer": 0, "byteOffset": 64760, "byteLength": 96}, {"buffer": 0, "byteOffset": 64856, "byteLength": 2148}, {"buffer": 0, "byteOffset": 67004, "byteLength": 1432}, {"buffer": 0, "byteOffset": 68436, "byteLength": 2148}, {"buffer": 0, "byteOffset": 70584, "byteLength": 594}, {"buffer": 0, "byteOffset": 71180, "byteLength": 2064}, {"buffer": 0, "byteOffset": 73244, "byteLength": 1376}, {"buffer": 0, "byteOffset": 74620, "byteLength": 2064}, {"buffer": 0, "byteOffset": 76684, "byteLength": 432}, {"buffer": 0, "byteOffset": 77116, "byteLength": 1056}, {"buffer": 0, "byteOffset": 78172, "byteLength": 704}, {"buffer": 0, "byteOffset": 78876, "byteLength": 1056}, {"buffer": 0, "byteOffset": 79932, "byteLength": 264}, {"buffer": 0, "byteOffset": 80196, "byteLength": 288}, {"buffer": 0, "byteOffset": 80484, "byteLength": 192}, {"buffer": 0, "byteOffset": 80676, "byteLength": 288}, {"buffer": 0, "byteOffset": 80964, "byteLength": 96}, {"buffer": 0, "byteOffset": 81060, "byteLength": 48}, {"buffer": 0, "byteOffset": 81108, "byteLength": 32}, {"buffer": 0, "byteOffset": 81140, "byteLength": 48}, {"buffer": 0, "byteOffset": 81188, "byteLength": 12}, {"buffer": 0, "byteOffset": 81200, "byteLength": 648}, {"buffer": 0, "byteOffset": 81848, "byteLength": 432}, {"buffer": 0, "byteOffset": 82280, "byteLength": 648}, {"buffer": 0, "byteOffset": 82928, "byteLength": 156}, {"buffer": 0, "byteOffset": 83084, "byteLength": 936}, {"buffer": 0, "byteOffset": 84020, "byteLength": 624}, {"buffer": 0, "byteOffset": 84644, "byteLength": 936}, {"buffer": 0, "byteOffset": 85580, "byteLength": 300}, {"buffer": 0, "byteOffset": 85880, "byteLength": 2112}, {"buffer": 0, "byteOffset": 87992, "byteLength": 1408}, {"buffer": 0, "byteOffset": 89400, "byteLength": 2112}, {"buffer": 0, "byteOffset": 91512, "byteLength": 864}, {"buffer": 0, "byteOffset": 92376, "byteLength": 576}, {"buffer": 0, "byteOffset": 92952, "byteLength": 384}, {"buffer": 0, "byteOffset": 93336, "byteLength": 576}, {"buffer": 0, "byteOffset": 93912, "byteLength": 144}, {"buffer": 0, "byteOffset": 94056, "byteLength": 4500}, {"buffer": 0, "byteOffset": 98556, "byteLength": 3000}, {"buffer": 0, "byteOffset": 101556, "byteLength": 4500}, {"buffer": 0, "byteOffset": 106056, "byteLength": 1746}], "accessors": [{"bufferView": 0, "byteOffset": 0, "componentType": 5126, "count": 4, "type": "VEC3", "min": [3.85009765625, 1.531982421875, 0.27490234375], "max": [4.14990234375, 1.968017578125, 0.27490234375]}, {"bufferView": 1, "byteOffset": 0, "componentType": 5126, "count": 4, "type": "VEC2"}, {"bufferView": 2, "byteOffset": 0, "componentType": 5126, "count": 4, "type": "VEC3"}, {"bufferView": 3, "byteOffset": 0, "componentType": 5123, "count": 6, "type": "SCALAR"}, {"bufferView": 4, "byteOffset": 0, "componentType": 5126, "count": 82, "type": "VEC3", "min": [0.25, 0.0, 0.25], "max": [5.75, 1.75, 4.75]}, {"bufferView": 5, "byteOffset": 0, "componentType": 5126, "count": 82, "type": "VEC2"}, {"bufferView": 6, "byteOffset": 0, "componentType": 5126, "count": 82, "type": "VEC3"}, {"bufferView": 7, "byteOffset": 0, "componentType": 5123, "count": 162, "type": "SCALAR"}, {"bufferView": 8, "byteOffset": 0, "componentType": 5126, "count": 94, "type": "VEC3", "min": [0.39990234375, 0.288330078125, 1.074951171875], "max": [5.616455078125, 2.050048828125, 2.730712890625]}, {"bufferView": 9, "byteOffset": 0, "componentType": 5126, "count": 94, "type": "VEC2"}, {"bufferView": 10, "byteOffset": 0, "componentType": 5126, "count": 94, "type": "VEC3"}, {"bufferView": 11, "byteOffset": 0, "componentType": 5123, "count": 126, "type": "SCALAR"}, {"bufferView": 12, "byteOffset": 0, "componentType": 5126, "count": 60, "type": "VEC3", "min": [1.35009765625, 0.288330078125, 1.113525390625], "max": [4.64990234375, 2.074951171875, 2.730712890625]}, {"bufferView": 13, "byteOffset": 0, "componentType": 5126, "count": 60, "type": "VEC2"}, {"bufferView": 14, "byteOffset": 0, "componentType": 5126, "count": 60, "type": "VEC3"}, {"bufferView": 15, "byteOffset": 0, "componentType": 5123, "count": 90, "type": "SCALAR"}, {"bufferView": 16, "byteOffset": 0, "componentType": 5126, "count": 32, "type": "VEC3", "min": [0.27490234375, 1.0, 0.27490234375], "max": [5.72509765625, 2.25, 3.699951171875]}, {"bufferView": 17, "byteOffset": 0, "componentType": 5126, "count": 32, "type": "VEC2"}, {"bufferView": 18, "byteOffset": 0, "componentType": 5126, "count": 32, "type": "VEC3"}, {"bufferView": 19, "byteOffset": 0, "componentType": 5123, "count": 48, "type": "SCALAR"}, {"bufferView": 20, "byteOffset": 0, "componentType": 5126, "count": 52, "type": "VEC3", "min": [0.27490234375, 1.0, 0.02490234375], "max": [5.72509765625, 2.25, 4.0]}, {"bufferView": 21, "byteOffset": 0, "componentType": 5126, "count": 52, "type": "VEC2"}, {"bufferView": 22, "byteOffset": 0, "componentType": 5126, "count": 52, "type": "VEC3"}, {"bufferView": 23, "byteOffset": 0, "componentType": 5123, "count": 84, "type": "SCALAR"}, {"bufferView": 24, "byteOffset": 0, "componentType": 5126, "count": 736, "type": "VEC3", "min": [0.25, 0.0, -1.35009765625], "max": [5.75, 3.0, 2.875]}, {"bufferView": 25, "byteOffset": 0, "componentType": 5126, "count": 736, "type": "VEC2"}, {"bufferView": 26, "byteOffset": 0, "componentType": 5126, "count": 736, "type": "VEC3"}, {"bufferView": 27, "byteOffset": 0, "componentType": 5123, "count": 1368, "type": "SCALAR"}, {"bufferView": 28, "byteOffset": 0, "componentType": 5126, "count": 32, "type": "VEC3", "min": [0.0, 2.998046875, 0.5322265625], "max": [6.0, 4.75, 4.050048828125]}, {"bufferView": 29, "byteOffset": 0, "componentType": 5126, "count": 32, "type": "VEC2"}, {"bufferView": 30, "byteOffset": 0, "componentType": 5126, "count": 32, "type": "VEC3"}, {"bufferView": 31, "byteOffset": 0, "componentType": 5123, "count": 54, "type": "SCALAR"}, {"bufferView": 32, "byteOffset": 0, "componentType": 5126, "count": 4, "type": "VEC3", "min": [4.34619140625, 0.698974609375, 1.27490234375], "max": [4.65380859375, 0.97607421875, 1.27490234375]}, {"bufferView": 33, "byteOffset": 0, "componentType": 5126, "count": 4, "type": "VEC2"}, {"bufferView": 34, "byteOffset": 0, "componentType": 5126, "count": 4, "type": "VEC3"}, {"bufferView": 35, "byteOffset": 0, "componentType": 5123, "count": 6, "type": "SCALAR"}, {"bufferView": 36, "byteOffset": 0, "componentType": 5126, "count": 4, "type": "VEC3", "min": [4.97119140625, 0.698974609375, 1.27490234375], "max": [5.27880859375, 0.97607421875, 1.27490234375]}, {"bufferView": 37, "byteOffset": 0, "componentType": 5126, "count": 4, "type": "VEC2"}, {"bufferView": 38, "byteOffset": 0, "componentType": 5126, "count": 4, "type": "VEC3"}, {"bufferView": 39, "byteOffset": 0, "componentType": 5123, "count": 6, "type": "SCALAR"}, {"bufferView": 40, "byteOffset": 0, "componentType": 5126, "count": 4, "type": "VEC3", "min": [3.47509765625, 1.531982421875, 0.27490234375], "max": [3.77490234375, 1.968017578125, 0.27490234375]}, {"bufferView": 41, "byteOffset": 0, "componentType": 5126, "count": 4, "type": "VEC2"}, {"bufferView": 42, "byteOffset": 0, "componentType": 5126, "count": 4, "type": "VEC3"}, {"bufferView": 43, "byteOffset": 0, "componentType": 5123, "count": 6, "type": "SCALAR"}, {"bufferView": 44, "byteOffset": 0, "componentType": 5126, "count": 4, "type": "VEC3", "min": [2.22509765625, 1.531982421875, 0.27490234375], "max": [2.52490234375, 1.968017578125, 0.27490234375]}, {"bufferView": 45, "byteOffset": 0, "componentType": 5126, "count": 4, "type": "VEC2"}, {"bufferView": 46, "byteOffset": 0, "componentType": 5126, "count": 4, "type": "VEC3"}, {"bufferView": 47, "byteOffset": 0, "componentType": 5123, "count": 6, "type": "SCALAR"}, {"bufferView": 48, "byteOffset": 0, "componentType": 5126, "count": 46, "type": "VEC3", "min": [0.25, 0.0, 1.875], "max": [0.339599609375, 0.5, 2.25]}, {"bufferView": 49, "byteOffset": 0, "componentType": 5126, "count": 46, "type": "VEC2"}, {"bufferView": 50, "byteOffset": 0, "componentType": 5126, "count": 46, "type": "VEC3"}, {"bufferView": 51, "byteOffset": 0, "componentType": 5123, "count": 90, "type": "SCALAR"}, {"bufferView": 52, "byteOffset": 0, "componentType": 5126, "count": 50, "type": "VEC3", "min": [0.705078125, 0.750244140625, 0.240234375], "max": [3.324951171875, 2.32177734375, 1.324951171875]}, {"bufferView": 53, "byteOffset": 0, "componentType": 5126, "count": 50, "type": "VEC2"}, {"bufferView": 54, "byteOffset": 0, "componentType": 5126, "count": 50, "type": "VEC3"}, {"bufferView": 55, "byteOffset": 0, "componentType": 5123, "count": 120, "type": "SCALAR"}, {"bufferView": 56, "byteOffset": 0, "componentType": 5126, "count": 124, "type": "VEC3", "min": [0.598388671875, 0.000244140625, 0.25], "max": [3.39990234375, 2.0, 1.375]}, {"bufferView": 57, "byteOffset": 0, "componentType": 5126, "count": 124, "type": "VEC2"}, {"bufferView": 58, "byteOffset": 0, "componentType": 5126, "count": 124, "type": "VEC3"}, {"bufferView": 59, "byteOffset": 0, "componentType": 5123, "count": 240, "type": "SCALAR"}, {"bufferView": 60, "byteOffset": 0, "componentType": 5126, "count": 14, "type": "VEC3", "min": [0.705078125, 0.750244140625, 1.324951171875], "max": [1.291748046875, 1.043701171875, 1.324951171875]}, {"bufferView": 61, "byteOffset": 0, "componentType": 5126, "count": 14, "type": "VEC2"}, {"bufferView": 62, "byteOffset": 0, "componentType": 5126, "count": 14, "type": "VEC3"}, {"bufferView": 63, "byteOffset": 0, "componentType": 5123, "count": 24, "type": "SCALAR"}, {"bufferView": 64, "byteOffset": 0, "componentType": 5126, "count": 4, "type": "VEC3", "min": [2.4453125, 2.369140625, 0.324951171875], "max": [3.5546875, 2.78076171875, 0.449951171875]}, {"bufferView": 65, "byteOffset": 0, "componentType": 5126, "count": 4, "type": "VEC2"}, {"bufferView": 66, "byteOffset": 0, "componentType": 5126, "count": 4, "type": "VEC3"}, {"bufferView": 67, "byteOffset": 0, "componentType": 5123, "count": 6, "type": "SCALAR"}, {"bufferView": 68, "byteOffset": 0, "componentType": 5126, "count": 44, "type": "VEC3", "min": [0.5625, -0.009765625, 0.262451171875], "max": [4.074951171875, 2.13916015625, 3.175048828125]}, {"bufferView": 69, "byteOffset": 0, "componentType": 5126, "count": 44, "type": "VEC2"}, {"bufferView": 70, "byteOffset": 0, "componentType": 5126, "count": 44, "type": "VEC3"}, {"bufferView": 71, "byteOffset": 0, "componentType": 5123, "count": 84, "type": "SCALAR"}, {"bufferView": 72, "byteOffset": 0, "componentType": 5126, "count": 135, "type": "VEC3", "min": [0.320556640625, 0.0, 1.29248046875], "max": [0.4541015625, 0.2880859375, 1.365478515625]}, {"bufferView": 73, "byteOffset": 0, "componentType": 5126, "count": 135, "type": "VEC2"}, {"bufferView": 74, "byteOffset": 0, "componentType": 5126, "count": 135, "type": "VEC3"}, {"bufferView": 75, "byteOffset": 0, "componentType": 5123, "count": 261, "type": "SCALAR"}, {"bufferView": 76, "byteOffset": 0, "componentType": 5126, "count": 224, "type": "VEC3", "min": [0.27587890625, 0.0, 1.0], "max": [5.726318359375, 2.159912109375, 2.949951171875]}, {"bufferView": 77, "byteOffset": 0, "componentType": 5126, "count": 224, "type": "VEC2"}, {"bufferView": 78, "byteOffset": 0, "componentType": 5126, "count": 224, "type": "VEC3"}, {"bufferView": 79, "byteOffset": 0, "componentType": 5123, "count": 480, "type": "SCALAR"}, {"bufferView": 80, "byteOffset": 0, "componentType": 5126, "count": 40, "type": "VEC3", "min": [0.25, 1.25, -1.5], "max": [5.75, 2.625, 4.0]}, {"bufferView": 81, "byteOffset": 0, "componentType": 5126, "count": 40, "type": "VEC2"}, {"bufferView": 82, "byteOffset": 0, "componentType": 5126, "count": 40, "type": "VEC3"}, {"bufferView": 83, "byteOffset": 0, "componentType": 5123, "count": 72, "type": "SCALAR"}, {"bufferView": 84, "byteOffset": 0, "componentType": 5126, "count": 26, "type": "VEC3", "min": [0.25, 2.625, -1.5], "max": [5.75, 3.75, 4.0]}, {"bufferView": 85, "byteOffset": 0, "componentType": 5126, "count": 26, "type": "VEC2"}, {"bufferView": 86, "byteOffset": 0, "componentType": 5126, "count": 26, "type": "VEC3"}, {"bufferView": 87, "byteOffset": 0, "componentType": 5123, "count": 48, "type": "SCALAR"}, {"bufferView": 88, "byteOffset": 0, "componentType": 5126, "count": 179, "type": "VEC3", "min": [-0.21240234375, 0.0, -2.0], "max": [6.206298828125, 3.75, 4.0]}, {"bufferView": 89, "byteOffset": 0, "componentType": 5126, "count": 179, "type": "VEC2"}, {"bufferView": 90, "byteOffset": 0, "componentType": 5126, "count": 179, "type": "VEC3"}, {"bufferView": 91, "byteOffset": 0, "componentType": 5123, "count": 297, "type": "SCALAR"}, {"bufferView": 92, "byteOffset": 0, "componentType": 5126, "count": 172, "type": "VEC3", "min": [0.83251953125, 2.27490234375, 2.328857421875], "max": [5.16748046875, 2.35009765625, 2.66357421875]}, {"bufferView": 93, "byteOffset": 0, "componentType": 5126, "count": 172, "type": "VEC2"}, {"bufferView": 94, "byteOffset": 0, "componentType": 5126, "count": 172, "type": "VEC3"}, {"bufferView": 95, "byteOffset": 0, "componentType": 5123, "count": 216, "type": "SCALAR"}, {"bufferView": 96, "byteOffset": 0, "componentType": 5126, "count": 88, "type": "VEC3", "min": [0.60009765625, 2.35009765625, 2.496337890625], "max": [5.425048828125, 3.030517578125, 2.671142578125]}, {"bufferView": 97, "byteOffset": 0, "componentType": 5126, "count": 88, "type": "VEC2"}, {"bufferView": 98, "byteOffset": 0, "componentType": 5126, "count": 88, "type": "VEC3"}, {"bufferView": 99, "byteOffset": 0, "componentType": 5123, "count": 132, "type": "SCALAR"}, {"bufferView": 100, "byteOffset": 0, "componentType": 5126, "count": 24, "type": "VEC3", "min": [0.81591796875, 2.35009765625, 2.3857421875], "max": [5.18408203125, 4.47509765625, 2.496337890625]}, {"bufferView": 101, "byteOffset": 0, "componentType": 5126, "count": 24, "type": "VEC2"}, {"bufferView": 102, "byteOffset": 0, "componentType": 5126, "count": 24, "type": "VEC3"}, {"bufferView": 103, "byteOffset": 0, "componentType": 5123, "count": 48, "type": "SCALAR"}, {"bufferView": 104, "byteOffset": 0, "componentType": 5126, "count": 4, "type": "VEC3", "min": [2.5, 0.0, 4.75], "max": [3.5, 0.0, 5.25]}, {"bufferView": 105, "byteOffset": 0, "componentType": 5126, "count": 4, "type": "VEC2"}, {"bufferView": 106, "byteOffset": 0, "componentType": 5126, "count": 4, "type": "VEC3"}, {"bufferView": 107, "byteOffset": 0, "componentType": 5123, "count": 6, "type": "SCALAR"}, {"bufferView": 108, "byteOffset": 0, "componentType": 5126, "count": 54, "type": "VEC3", "min": [0.14990234375, -0.10009765625, 4.0], "max": [5.85009765625, 3.25, 5.25]}, {"bufferView": 109, "byteOffset": 0, "componentType": 5126, "count": 54, "type": "VEC2"}, {"bufferView": 110, "byteOffset": 0, "componentType": 5126, "count": 54, "type": "VEC3"}, {"bufferView": 111, "byteOffset": 0, "componentType": 5123, "count": 78, "type": "SCALAR"}, {"bufferView": 112, "byteOffset": 0, "componentType": 5126, "count": 78, "type": "VEC3", "min": [1.63671875, 0.375, 1.25], "max": [2.11328125, 0.884765625, 1.300048828125]}, {"bufferView": 113, "byteOffset": 0, "componentType": 5126, "count": 78, "type": "VEC2"}, {"bufferView": 114, "byteOffset": 0, "componentType": 5126, "count": 78, "type": "VEC3"}, {"bufferView": 115, "byteOffset": 0, "componentType": 5123, "count": 150, "type": "SCALAR"}, {"bufferView": 116, "byteOffset": 0, "componentType": 5126, "count": 176, "type": "VEC3", "min": [0.25, 1.618896484375, -1.60009765625], "max": [5.72509765625, 4.0, 0.387451171875]}, {"bufferView": 117, "byteOffset": 0, "componentType": 5126, "count": 176, "type": "VEC2"}, {"bufferView": 118, "byteOffset": 0, "componentType": 5126, "count": 176, "type": "VEC3"}, {"bufferView": 119, "byteOffset": 0, "componentType": 5123, "count": 432, "type": "SCALAR"}, {"bufferView": 120, "byteOffset": 0, "componentType": 5126, "count": 48, "type": "VEC3", "min": [0.264892578125, 0.861328125, 1.334716796875], "max": [5.68505859375, 0.988037109375, 1.40478515625]}, {"bufferView": 121, "byteOffset": 0, "componentType": 5126, "count": 48, "type": "VEC2"}, {"bufferView": 122, "byteOffset": 0, "componentType": 5126, "count": 48, "type": "VEC3"}, {"bufferView": 123, "byteOffset": 0, "componentType": 5123, "count": 72, "type": "SCALAR"}, {"bufferView": 124, "byteOffset": 0, "componentType": 5126, "count": 375, "type": "VEC3", "min": [0.284423828125, 0.612060546875, 1.2841796875], "max": [5.67138671875, 0.91552734375, 1.36572265625]}, {"bufferView": 125, "byteOffset": 0, "componentType": 5126, "count": 375, "type": "VEC2"}, {"bufferView": 126, "byteOffset": 0, "componentType": 5126, "count": 375, "type": "VEC3"}, {"bufferView": 127, "byteOffset": 0, "componentType": 5123, "count": 873, "type": "SCALAR"}], "samplers": [{"magFilter": 9729, "minFilter": 9729, "wrapS": 10497, "wrapT": 10497}]}