{"asset": {"version": "2.0", "generator": "tongari-nsbmd-to-gltf"}, "scene": 0, "scenes": [{"nodes": [0, 1]}], "nodes": [{"name": "kg_sh0_08", "translation": [0.0, 0.0, 0.0]}, {"mesh": 0, "name": "3761kg_sh0_08"}], "meshes": [{"name": "3761kg_sh0_08", "primitives": [{"attributes": {"POSITION": 0, "TEXCOORD_0": 1, "NORMAL": 2}, "indices": 3, "mode": 4, "material": 0}]}], "materials": [{"name": "sh0_08_0", "pbrMetallicRoughness": {"baseColorFactor": [1.0, 1.0, 1.0, 1.0], "metallicFactor": 0.0, "roughnessFactor": 1.0}, "alphaMode": "OPAQUE", "doubleSided": true}], "buffers": [{"byteLength": 4414, "uri": "data:application/octet-stream;base64,"}], "bufferViews": [{"buffer": 0, "byteOffset": 0, "byteLength": 1500}, {"buffer": 0, "byteOffset": 1500, "byteLength": 1000}, {"buffer": 0, "byteOffset": 2500, "byteLength": 1500}, {"buffer": 0, "byteOffset": 4000, "byteLength": 414}], "accessors": [{"bufferView": 0, "byteOffset": 0, "componentType": 5126, "count": 125, "type": "VEC3", "min": [-0.462646484375, -0.006103515625, -0.326416015625], "max": [0.361572265625, 1.1201171875, 0.326416015625]}, {"bufferView": 1, "byteOffset": 0, "componentType": 5126, "count": 125, "type": "VEC2"}, {"bufferView": 2, "byteOffset": 0, "componentType": 5126, "count": 125, "type": "VEC3"}, {"bufferView": 3, "byteOffset": 0, "componentType": 5123, "count": 207, "type": "SCALAR"}], "samplers": [{"magFilter": 9729, "minFilter": 9729, "wrapS": 10497, "wrapT": 10497}]}