{"asset": {"version": "2.0", "generator": "tongari-nsbmd-to-gltf"}, "scene": 0, "scenes": [{"nodes": [0, 5]}], "nodes": [{"name": "sp_tyotin", "translation": [0.0, 0.0, 0.0], "children": [1]}, {"name": "up", "translation": [-0.04345703125, 1.722412109375, 0.0400390625], "children": [2, 4]}, {"name": "down", "translation": [0.01708984375, -1.175048828125, -0.36572265625], "children": [3]}, {"name": "berobero", "translation": [-0.01708984375, 0.3125, -0.035888671875]}, {"name": "eye", "translation": [-0.00048828125, -0.717529296875, 0.630126953125]}, {"mesh": 0, "name": "sp_tyotin"}], "meshes": [{"name": "sp_tyotin", "primitives": [{"attributes": {"POSITION": 0, "TEXCOORD_0": 1, "NORMAL": 2}, "indices": 3, "mode": 4, "material": 1}, {"attributes": {"POSITION": 4, "TEXCOORD_0": 5, "NORMAL": 6}, "indices": 7, "mode": 4, "material": 2}, {"attributes": {"POSITION": 8, "TEXCOORD_0": 9}, "indices": 10, "mode": 4, "material": 0}, {"attributes": {"POSITION": 11, "TEXCOORD_0": 12}, "indices": 13, "mode": 4, "material": 0}, {"attributes": {"POSITION": 14, "TEXCOORD_0": 15, "NORMAL": 16}, "indices": 17, "mode": 4, "material": 2}, {"attributes": {"POSITION": 18, "TEXCOORD_0": 19, "NORMAL": 20}, "indices": 21, "mode": 4, "material": 3}, {"attributes": {"POSITION": 22, "TEXCOORD_0": 23, "NORMAL": 24}, "indices": 25, "mode": 4, "material": 4}]}], "materials": [{"name": "sp_tyotin0", "pbrMetallicRoughness": {"baseColorFactor": [1.0, 1.0, 1.0, 1.0], "metallicFactor": 0.0, "roughnessFactor": 1.0}, "alphaMode": "OPAQUE", "doubleSided": true}, {"name": "sp_tyotin2", "pbrMetallicRoughness": {"baseColorFactor": [0.803921568627451, 0.803921568627451, 0.803921568627451, 1.0], "metallicFactor": 0.0, "roughnessFactor": 1.0}, "alphaMode": "OPAQUE", "doubleSided": true}, {"name": "sp_tyotin3", "pbrMetallicRoughness": {"baseColorFactor": [0.803921568627451, 0.803921568627451, 0.803921568627451, 1.0], "metallicFactor": 0.0, "roughnessFactor": 1.0}, "alphaMode": "OPAQUE", "doubleSided": true}, {"name": "sp_tyotin4", "pbrMetallicRoughness": {"baseColorFactor": [0.803921568627451, 0.803921568627451, 0.803921568627451, 1.0], "metallicFactor": 0.0, "roughnessFactor": 1.0}, "alphaMode": "OPAQUE", "doubleSided": true}, {"name": "sp_tyotin5", "pbrMetallicRoughness": {"baseColorFactor": [1.0, 1.0, 1.0, 1.0], "metallicFactor": 0.0, "roughnessFactor": 1.0}, "alphaMode": "OPAQUE", "doubleSided": true}], "buffers": [{"byteLength": 4080, "uri": "data:application/octet-stream;base64,"}], "bufferViews": [{"buffer": 0, "byteOffset": 0, "byteLength": 336}, {"buffer": 0, "byteOffset": 336, "byteLength": 224}, {"buffer": 0, "byteOffset": 560, "byteLength": 336}, {"buffer": 0, "byteOffset": 896, "byteLength": 84}, {"buffer": 0, "byteOffset": 980, "byteLength": 312}, {"buffer": 0, "byteOffset": 1292, "byteLength": 208}, {"buffer": 0, "byteOffset": 1500, "byteLength": 312}, {"buffer": 0, "byteOffset": 1812, "byteLength": 84}, {"buffer": 0, "byteOffset": 1896, "byteLength": 408}, {"buffer": 0, "byteOffset": 2304, "byteLength": 272}, {"buffer": 0, "byteOffset": 2576, "byteLength": 108}, {"buffer": 0, "byteOffset": 2684, "byteLength": 384}, {"buffer": 0, "byteOffset": 3068, "byteLength": 256}, {"buffer": 0, "byteOffset": 3324, "byteLength": 108}, {"buffer": 0, "byteOffset": 3432, "byteLength": 120}, {"buffer": 0, "byteOffset": 3552, "byteLength": 80}, {"buffer": 0, "byteOffset": 3632, "byteLength": 120}, {"buffer": 0, "byteOffset": 3752, "byteLength": 48}, {"buffer": 0, "byteOffset": 3800, "byteLength": 48}, {"buffer": 0, "byteOffset": 3848, "byteLength": 32}, {"buffer": 0, "byteOffset": 3880, "byteLength": 48}, {"buffer": 0, "byteOffset": 3928, "byteLength": 12}, {"buffer": 0, "byteOffset": 3940, "byteLength": 48}, {"buffer": 0, "byteOffset": 3988, "byteLength": 32}, {"buffer": 0, "byteOffset": 4020, "byteLength": 48}, {"buffer": 0, "byteOffset": 4068, "byteLength": 12}], "accessors": [{"bufferView": 0, "byteOffset": 0, "componentType": 5126, "count": 28, "type": "VEC3", "min": [-0.133544921875, 0.0, -0.3818359375], "max": [0.3818359375, 1.88232421875, 0.133544921875]}, {"bufferView": 1, "byteOffset": 0, "componentType": 5126, "count": 28, "type": "VEC2"}, {"bufferView": 2, "byteOffset": 0, "componentType": 5126, "count": 28, "type": "VEC3"}, {"bufferView": 3, "byteOffset": 0, "componentType": 5123, "count": 42, "type": "SCALAR"}, {"bufferView": 4, "byteOffset": 0, "componentType": 5126, "count": 26, "type": "VEC3", "min": [-0.41259765625, -0.560302734375, -0.356201171875], "max": [0.42138671875, -0.001953125, 0.384033203125]}, {"bufferView": 5, "byteOffset": 0, "componentType": 5126, "count": 26, "type": "VEC2"}, {"bufferView": 6, "byteOffset": 0, "componentType": 5126, "count": 26, "type": "VEC3"}, {"bufferView": 7, "byteOffset": 0, "componentType": 5123, "count": 42, "type": "SCALAR"}, {"bufferView": 8, "byteOffset": 0, "componentType": 5126, "count": 34, "type": "VEC3", "min": [-0.744384765625, -0.99560546875, -0.63818359375], "max": [0.744384765625, -0.0556640625, 0.63818359375]}, {"bufferView": 9, "byteOffset": 0, "componentType": 5126, "count": 34, "type": "VEC2"}, {"bufferView": 10, "byteOffset": 0, "componentType": 5123, "count": 54, "type": "SCALAR"}, {"bufferView": 11, "byteOffset": 0, "componentType": 5126, "count": 32, "type": "VEC3", "min": [-0.761474609375, -0.766845703125, -0.272216796875], "max": [0.727294921875, 0.179443359375, 1.00390625]}, {"bufferView": 12, "byteOffset": 0, "componentType": 5126, "count": 32, "type": "VEC2"}, {"bufferView": 13, "byteOffset": 0, "componentType": 5123, "count": 54, "type": "SCALAR"}, {"bufferView": 14, "byteOffset": 0, "componentType": 5126, "count": 10, "type": "VEC3", "min": [-0.466796875, -0.754638671875, 0.369873046875], "max": [0.4150390625, -0.4716796875, 0.75390625]}, {"bufferView": 15, "byteOffset": 0, "componentType": 5126, "count": 10, "type": "VEC2"}, {"bufferView": 16, "byteOffset": 0, "componentType": 5126, "count": 10, "type": "VEC3"}, {"bufferView": 17, "byteOffset": 0, "componentType": 5123, "count": 24, "type": "SCALAR"}, {"bufferView": 18, "byteOffset": 0, "componentType": 5126, "count": 4, "type": "VEC3", "min": [-0.372314453125, 0.0, 0.0], "max": [0.372314453125, 0.002685546875, 0.942138671875]}, {"bufferView": 19, "byteOffset": 0, "componentType": 5126, "count": 4, "type": "VEC2"}, {"bufferView": 20, "byteOffset": 0, "componentType": 5126, "count": 4, "type": "VEC3"}, {"bufferView": 21, "byteOffset": 0, "componentType": 5123, "count": 6, "type": "SCALAR"}, {"bufferView": 22, "byteOffset": 0, "componentType": 5126, "count": 4, "type": "VEC3", "min": [-0.205322265625, -0.13916015625, -0.028076171875], "max": [0.205322265625, 0.13916015625, 0.028076171875]}, {"bufferView": 23, "byteOffset": 0, "componentType": 5126, "count": 4, "type": "VEC2"}, {"bufferView": 24, "byteOffset": 0, "componentType": 5126, "count": 4, "type": "VEC3"}, {"bufferView": 25, "byteOffset": 0, "componentType": 5123, "count": 6, "type": "SCALAR"}], "samplers": [{"magFilter": 9729, "minFilter": 9729, "wrapS": 10497, "wrapT": 10497}]}