{"asset": {"version": "2.0", "generator": "tongari-nsbmd-to-gltf"}, "scene": 0, "scenes": [{"nodes": [0, 1]}], "nodes": [{"name": "kg_sh2_01", "translation": [0.0, 0.0, 0.0]}, {"mesh": 0, "name": "3209kg_sh2_01"}], "meshes": [{"name": "3209kg_sh2_01", "primitives": [{"attributes": {"POSITION": 0, "TEXCOORD_0": 1, "NORMAL": 2}, "indices": 3, "mode": 4, "material": 0}, {"attributes": {"POSITION": 4, "TEXCOORD_0": 5, "NORMAL": 6}, "indices": 7, "mode": 4, "material": 3}, {"attributes": {"POSITION": 8, "TEXCOORD_0": 9, "NORMAL": 10}, "indices": 11, "mode": 4, "material": 2}, {"attributes": {"POSITION": 12, "TEXCOORD_0": 13, "NORMAL": 14}, "indices": 15, "mode": 4, "material": 1}]}], "materials": [{"name": "sh2_01_0", "pbrMetallicRoughness": {"baseColorFactor": [1.0, 1.0, 1.0, 1.0], "metallicFactor": 0.0, "roughnessFactor": 1.0}, "alphaMode": "OPAQUE", "doubleSided": true}, {"name": "sh2_01_1", "pbrMetallicRoughness": {"baseColorFactor": [1.0, 1.0, 1.0, 1.0], "metallicFactor": 0.0, "roughnessFactor": 1.0}, "alphaMode": "OPAQUE", "doubleSided": true}, {"name": "sh2_01_2", "pbrMetallicRoughness": {"baseColorFactor": [1.0, 1.0, 1.0, 1.0], "metallicFactor": 0.0, "roughnessFactor": 1.0}, "alphaMode": "OPAQUE", "doubleSided": true}, {"name": "sh2_01_3", "pbrMetallicRoughness": {"baseColorFactor": [1.0, 1.0, 1.0, 0.5161290322580645], "metallicFactor": 0.0, "roughnessFactor": 1.0}, "alphaMode": "BLEND", "doubleSided": true}], "buffers": [{"byteLength": 4684, "uri": "data:application/octet-stream;base64,"}], "bufferViews": [{"buffer": 0, "byteOffset": 0, "byteLength": 816}, {"buffer": 0, "byteOffset": 816, "byteLength": 544}, {"buffer": 0, "byteOffset": 1360, "byteLength": 816}, {"buffer": 0, "byteOffset": 2176, "byteLength": 204}, {"buffer": 0, "byteOffset": 2380, "byteLength": 144}, {"buffer": 0, "byteOffset": 2524, "byteLength": 96}, {"buffer": 0, "byteOffset": 2620, "byteLength": 144}, {"buffer": 0, "byteOffset": 2764, "byteLength": 36}, {"buffer": 0, "byteOffset": 2800, "byteLength": 408}, {"buffer": 0, "byteOffset": 3208, "byteLength": 272}, {"buffer": 0, "byteOffset": 3480, "byteLength": 408}, {"buffer": 0, "byteOffset": 3888, "byteLength": 96}, {"buffer": 0, "byteOffset": 3984, "byteLength": 240}, {"buffer": 0, "byteOffset": 4224, "byteLength": 160}, {"buffer": 0, "byteOffset": 4384, "byteLength": 240}, {"buffer": 0, "byteOffset": 4624, "byteLength": 60}], "accessors": [{"bufferView": 0, "byteOffset": 0, "componentType": 5126, "count": 68, "type": "VEC3", "min": [-0.5, -0.00634765625, -0.240234375], "max": [0.5, 1.49609375, 0.240234375]}, {"bufferView": 1, "byteOffset": 0, "componentType": 5126, "count": 68, "type": "VEC2"}, {"bufferView": 2, "byteOffset": 0, "componentType": 5126, "count": 68, "type": "VEC3"}, {"bufferView": 3, "byteOffset": 0, "componentType": 5123, "count": 102, "type": "SCALAR"}, {"bufferView": 4, "byteOffset": 0, "componentType": 5126, "count": 12, "type": "VEC3", "min": [-0.275634765625, 0.20458984375, -0.210693359375], "max": [0.275634765625, 1.117919921875, 0.21484375]}, {"bufferView": 5, "byteOffset": 0, "componentType": 5126, "count": 12, "type": "VEC2"}, {"bufferView": 6, "byteOffset": 0, "componentType": 5126, "count": 12, "type": "VEC3"}, {"bufferView": 7, "byteOffset": 0, "componentType": 5123, "count": 18, "type": "SCALAR"}, {"bufferView": 8, "byteOffset": 0, "componentType": 5126, "count": 34, "type": "VEC3", "min": [-0.40673828125, -0.257080078125, -0.22705078125], "max": [0.30126953125, 0.587158203125, 0.25830078125]}, {"bufferView": 9, "byteOffset": 0, "componentType": 5126, "count": 34, "type": "VEC2"}, {"bufferView": 10, "byteOffset": 0, "componentType": 5126, "count": 34, "type": "VEC3"}, {"bufferView": 11, "byteOffset": 0, "componentType": 5123, "count": 48, "type": "SCALAR"}, {"bufferView": 12, "byteOffset": 0, "componentType": 5126, "count": 20, "type": "VEC3", "min": [-0.41162109375, 0.637939453125, -0.3056640625], "max": [0.199462890625, 1.635498046875, 0.3056640625]}, {"bufferView": 13, "byteOffset": 0, "componentType": 5126, "count": 20, "type": "VEC2"}, {"bufferView": 14, "byteOffset": 0, "componentType": 5126, "count": 20, "type": "VEC3"}, {"bufferView": 15, "byteOffset": 0, "componentType": 5123, "count": 30, "type": "SCALAR"}], "samplers": [{"magFilter": 9729, "minFilter": 9729, "wrapS": 10497, "wrapT": 10497}]}