{"asset": {"version": "2.0", "generator": "tongari-nsbmd-to-gltf"}, "scene": 0, "scenes": [{"nodes": [0, 1]}], "nodes": [{"name": "kb_ma_atelier", "translation": [0.0, 0.0, 0.0]}, {"mesh": 0, "name": "kb_ma_atelier"}], "meshes": [{"name": "kb_ma_atelier", "primitives": [{"attributes": {"POSITION": 0, "TEXCOORD_0": 1}, "indices": 2, "mode": 4, "material": 52}, {"attributes": {"POSITION": 3, "TEXCOORD_0": 4, "NORMAL": 5}, "indices": 6, "mode": 4, "material": 35}, {"attributes": {"POSITION": 7, "TEXCOORD_0": 8, "NORMAL": 9}, "indices": 10, "mode": 4, "material": 27}, {"attributes": {"POSITION": 11, "TEXCOORD_0": 12}, "indices": 13, "mode": 4, "material": 23}, {"attributes": {"POSITION": 14, "TEXCOORD_0": 15, "NORMAL": 16}, "indices": 17, "mode": 4, "material": 47}, {"attributes": {"POSITION": 18, "TEXCOORD_0": 19}, "indices": 20, "mode": 4, "material": 62}, {"attributes": {"POSITION": 21, "TEXCOORD_0": 22, "NORMAL": 23}, "indices": 24, "mode": 4, "material": 48}, {"attributes": {"POSITION": 25, "TEXCOORD_0": 26, "NORMAL": 27}, "indices": 28, "mode": 4, "material": 53}, {"attributes": {"POSITION": 29, "TEXCOORD_0": 30, "NORMAL": 31}, "indices": 32, "mode": 4, "material": 7}, {"attributes": {"POSITION": 33, "TEXCOORD_0": 34, "NORMAL": 35}, "indices": 36, "mode": 4, "material": 8}, {"attributes": {"POSITION": 37, "TEXCOORD_0": 38, "NORMAL": 39}, "indices": 40, "mode": 4, "material": 9}, {"attributes": {"POSITION": 41, "TEXCOORD_0": 42, "NORMAL": 43}, "indices": 44, "mode": 4, "material": 18}, {"attributes": {"POSITION": 45, "TEXCOORD_0": 46, "NORMAL": 47}, "indices": 48, "mode": 4, "material": 34}, {"attributes": {"POSITION": 49, "TEXCOORD_0": 50, "NORMAL": 51}, "indices": 52, "mode": 4, "material": 12}, {"attributes": {"POSITION": 53, "TEXCOORD_0": 54, "NORMAL": 55}, "indices": 56, "mode": 4, "material": 19}, {"attributes": {"POSITION": 57, "TEXCOORD_0": 58, "NORMAL": 59}, "indices": 60, "mode": 4, "material": 24}, {"attributes": {"POSITION": 61, "TEXCOORD_0": 62, "NORMAL": 63}, "indices": 64, "mode": 4, "material": 56}, {"attributes": {"POSITION": 65, "TEXCOORD_0": 66, "NORMAL": 67}, "indices": 68, "mode": 4, "material": 57}, {"attributes": {"POSITION": 69, "TEXCOORD_0": 70, "NORMAL": 71}, "indices": 72, "mode": 4, "material": 60}, {"attributes": {"POSITION": 73, "TEXCOORD_0": 74, "NORMAL": 75}, "indices": 76, "mode": 4, "material": 0}, {"attributes": {"POSITION": 77, "TEXCOORD_0": 78, "NORMAL": 79}, "indices": 80, "mode": 4, "material": 43}, {"attributes": {"POSITION": 81, "TEXCOORD_0": 82, "NORMAL": 83}, "indices": 84, "mode": 4, "material": 16}, {"attributes": {"POSITION": 85, "TEXCOORD_0": 86, "NORMAL": 87}, "indices": 88, "mode": 4, "material": 58}, {"attributes": {"POSITION": 89, "TEXCOORD_0": 90}, "indices": 91, "mode": 4, "material": 59}, {"attributes": {"POSITION": 92, "TEXCOORD_0": 93, "NORMAL": 94}, "indices": 95, "mode": 4, "material": 15}, {"attributes": {"POSITION": 96, "TEXCOORD_0": 97, "NORMAL": 98}, "indices": 99, "mode": 4, "material": 49}, {"attributes": {"POSITION": 100, "TEXCOORD_0": 101, "NORMAL": 102}, "indices": 103, "mode": 4, "material": 45}, {"attributes": {"POSITION": 104, "TEXCOORD_0": 105}, "indices": 106, "mode": 4, "material": 29}, {"attributes": {"POSITION": 107, "TEXCOORD_0": 108, "NORMAL": 109}, "indices": 110, "mode": 4, "material": 26}, {"attributes": {"POSITION": 111, "TEXCOORD_0": 112, "NORMAL": 113}, "indices": 114, "mode": 4, "material": 3}, {"attributes": {"POSITION": 115, "TEXCOORD_0": 116, "NORMAL": 117}, "indices": 118, "mode": 4, "material": 37}, {"attributes": {"POSITION": 119, "TEXCOORD_0": 120, "NORMAL": 121}, "indices": 122, "mode": 4, "material": 6}, {"attributes": {"POSITION": 123, "TEXCOORD_0": 124, "NORMAL": 125}, "indices": 126, "mode": 4, "material": 28}, {"attributes": {"POSITION": 127, "TEXCOORD_0": 128, "NORMAL": 129}, "indices": 130, "mode": 4, "material": 11}, {"attributes": {"POSITION": 131, "TEXCOORD_0": 132, "NORMAL": 133}, "indices": 134, "mode": 4, "material": 17}, {"attributes": {"POSITION": 135, "TEXCOORD_0": 136, "NORMAL": 137}, "indices": 138, "mode": 4, "material": 10}, {"attributes": {"POSITION": 139, "TEXCOORD_0": 140, "NORMAL": 141}, "indices": 142, "mode": 4, "material": 55}, {"attributes": {"POSITION": 143, "TEXCOORD_0": 144, "NORMAL": 145}, "indices": 146, "mode": 4, "material": 20}, {"attributes": {"POSITION": 147, "TEXCOORD_0": 148, "NORMAL": 149}, "indices": 150, "mode": 4, "material": 46}, {"attributes": {"POSITION": 151, "TEXCOORD_0": 152, "NORMAL": 153}, "indices": 154, "mode": 4, "material": 22}, {"attributes": {"POSITION": 155, "TEXCOORD_0": 156, "NORMAL": 157}, "indices": 158, "mode": 4, "material": 25}, {"attributes": {"POSITION": 159, "TEXCOORD_0": 160, "NORMAL": 161}, "indices": 162, "mode": 4, "material": 1}, {"attributes": {"POSITION": 163, "TEXCOORD_0": 164, "NORMAL": 165}, "indices": 166, "mode": 4, "material": 41}, {"attributes": {"POSITION": 167, "TEXCOORD_0": 168, "NORMAL": 169}, "indices": 170, "mode": 4, "material": 42}, {"attributes": {"POSITION": 171, "TEXCOORD_0": 172, "NORMAL": 173}, "indices": 174, "mode": 4, "material": 30}, {"attributes": {"POSITION": 175, "TEXCOORD_0": 176, "NORMAL": 177}, "indices": 178, "mode": 4, "material": 13}, {"attributes": {"POSITION": 179, "TEXCOORD_0": 180, "NORMAL": 181}, "indices": 182, "mode": 4, "material": 14}, {"attributes": {"POSITION": 183, "TEXCOORD_0": 184, "NORMAL": 185}, "indices": 186, "mode": 4, "material": 31}, {"attributes": {"POSITION": 187, "TEXCOORD_0": 188, "NORMAL": 189}, "indices": 190, "mode": 4, "material": 32}, {"attributes": {"POSITION": 191, "TEXCOORD_0": 192, "NORMAL": 193}, "indices": 194, "mode": 4, "material": 33}, {"attributes": {"POSITION": 195, "TEXCOORD_0": 196, "NORMAL": 197}, "indices": 198, "mode": 4, "material": 36}, {"attributes": {"POSITION": 199, "TEXCOORD_0": 200, "NORMAL": 201}, "indices": 202, "mode": 4, "material": 40}, {"attributes": {"POSITION": 203, "TEXCOORD_0": 204, "NORMAL": 205}, "indices": 206, "mode": 4, "material": 39}, {"attributes": {"POSITION": 207, "TEXCOORD_0": 208, "NORMAL": 209}, "indices": 210, "mode": 4, "material": 38}, {"attributes": {"POSITION": 211, "TEXCOORD_0": 212, "NORMAL": 213}, "indices": 214, "mode": 4, "material": 54}, {"attributes": {"POSITION": 215, "TEXCOORD_0": 216, "NORMAL": 217}, "indices": 218, "mode": 4, "material": 44}, {"attributes": {"POSITION": 219, "TEXCOORD_0": 220, "NORMAL": 221}, "indices": 222, "mode": 4, "material": 61}, {"attributes": {"POSITION": 223, "TEXCOORD_0": 224, "NORMAL": 225}, "indices": 226, "mode": 4, "material": 50}, {"attributes": {"POSITION": 227, "TEXCOORD_0": 228, "NORMAL": 229}, "indices": 230, "mode": 4, "material": 21}, {"attributes": {"POSITION": 231, "TEXCOORD_0": 232, "NORMAL": 233}, "indices": 234, "mode": 4, "material": 5}, {"attributes": {"POSITION": 235, "TEXCOORD_0": 236, "NORMAL": 237}, "indices": 238, "mode": 4, "material": 4}, {"attributes": {"POSITION": 239, "TEXCOORD_0": 240, "NORMAL": 241}, "indices": 242, "mode": 4, "material": 2}, {"attributes": {"POSITION": 243, "TEXCOORD_0": 244}, "indices": 245, "mode": 4, "material": 51}]}], "materials": [{"name": "a_desk1", "pbrMetallicRoughness": {"baseColorFactor": [0.803921568627451, 0.803921568627451, 0.803921568627451, 1.0], "metallicFactor": 0.0, "roughnessFactor": 1.0}, "alphaMode": "OPAQUE", "doubleSided": true}, {"name": "a_nuno00", "pbrMetallicRoughness": {"baseColorFactor": [0.803921568627451, 0.803921568627451, 0.803921568627451, 1.0], "metallicFactor": 0.0, "roughnessFactor": 1.0}, "alphaMode": "OPAQUE", "doubleSided": true}, {"name": "a_nuno03", "pbrMetallicRoughness": {"baseColorFactor": [0.803921568627451, 0.803921568627451, 0.803921568627451, 1.0], "metallicFactor": 0.0, "roughnessFactor": 1.0}, "alphaMode": "OPAQUE", "doubleSided": true}, {"name": "a_ribbon1", "pbrMetallicRoughness": {"baseColorFactor": [0.803921568627451, 0.803921568627451, 0.803921568627451, 1.0], "metallicFactor": 0.0, "roughnessFactor": 1.0}, "alphaMode": "OPAQUE", "doubleSided": true}, {"name": "a_ribbon2", "pbrMetallicRoughness": {"baseColorFactor": [0.803921568627451, 0.803921568627451, 0.803921568627451, 1.0], "metallicFactor": 0.0, "roughnessFactor": 1.0}, "alphaMode": "OPAQUE", "doubleSided": true}, {"name": "a_ribbon3", "pbrMetallicRoughness": {"baseColorFactor": [0.803921568627451, 0.803921568627451, 0.803921568627451, 1.0], "metallicFactor": 0.0, "roughnessFactor": 1.0}, "alphaMode": "OPAQUE", "doubleSided": true}, {"name": "book10", "pbrMetallicRoughness": {"baseColorFactor": [0.803921568627451, 0.803921568627451, 0.803921568627451, 1.0], "metallicFactor": 0.0, "roughnessFactor": 1.0}, "alphaMode": "OPAQUE", "doubleSided": true}, {"name": "c_han00", "pbrMetallicRoughness": {"baseColorFactor": [1.0, 1.0, 1.0, 1.0], "metallicFactor": 0.0, "roughnessFactor": 1.0}, "alphaMode": "OPAQUE", "doubleSided": true}, {"name": "c_manekin00", "pbrMetallicRoughness": {"baseColorFactor": [1.0, 1.0, 1.0, 1.0], "metallicFactor": 0.0, "roughnessFactor": 1.0}, "alphaMode": "OPAQUE", "doubleSided": true}, {"name": "c_manekin01", "pbrMetallicRoughness": {"baseColorFactor": [1.0, 1.0, 1.0, 1.0], "metallicFactor": 0.0, "roughnessFactor": 1.0}, "alphaMode": "OPAQUE", "doubleSided": true}, {"name": "cute_a_komo00", "pbrMetallicRoughness": {"baseColorFactor": [0.803921568627451, 0.803921568627451, 0.803921568627451, 1.0], "metallicFactor": 0.0, "roughnessFactor": 1.0}, "alphaMode": "OPAQUE", "doubleSided": true}, {"name": "dai", "pbrMetallicRoughness": {"baseColorFactor": [0.803921568627451, 0.803921568627451, 0.803921568627451, 1.0], "metallicFactor": 0.0, "roughnessFactor": 1.0}, "alphaMode": "OPAQUE", "doubleSided": true}, {"name": "desk0", "pbrMetallicRoughness": {"baseColorFactor": [0.803921568627451, 0.803921568627451, 0.803921568627451, 1.0], "metallicFactor": 0.0, "roughnessFactor": 1.0}, "alphaMode": "OPAQUE", "doubleSided": true}, {"name": "desk_s00", "pbrMetallicRoughness": {"baseColorFactor": [0.803921568627451, 0.803921568627451, 0.803921568627451, 1.0], "metallicFactor": 0.0, "roughnessFactor": 1.0}, "alphaMode": "OPAQUE", "doubleSided": true}, {"name": "desk_s01", "pbrMetallicRoughness": {"baseColorFactor": [0.803921568627451, 0.803921568627451, 0.803921568627451, 1.0], "metallicFactor": 0.0, "roughnessFactor": 1.0}, "alphaMode": "OPAQUE", "doubleSided": true}, {"name": "door1", "pbrMetallicRoughness": {"baseColorFactor": [0.803921568627451, 0.803921568627451, 0.803921568627451, 1.0], "metallicFactor": 0.0, "roughnessFactor": 1.0}, "alphaMode": "OPAQUE", "doubleSided": true}, {"name": "door2", "pbrMetallicRoughness": {"baseColorFactor": [0.803921568627451, 0.803921568627451, 0.803921568627451, 1.0], "metallicFactor": 0.0, "roughnessFactor": 1.0}, "alphaMode": "OPAQUE", "doubleSided": true}, {"name": "dougu2", "pbrMetallicRoughness": {"baseColorFactor": [1.0, 1.0, 1.0, 1.0], "metallicFactor": 0.0, "roughnessFactor": 1.0}, "alphaMode": "OPAQUE", "doubleSided": true}, {"name": "flower00", "pbrMetallicRoughness": {"baseColorFactor": [1.0, 1.0, 1.0, 1.0], "metallicFactor": 0.0, "roughnessFactor": 1.0}, "alphaMode": "OPAQUE", "doubleSided": true}, {"name": "flower01", "pbrMetallicRoughness": {"baseColorFactor": [0.803921568627451, 0.803921568627451, 0.803921568627451, 1.0], "metallicFactor": 0.0, "roughnessFactor": 1.0}, "alphaMode": "OPAQUE", "doubleSided": true}, {"name": "hari00", "pbrMetallicRoughness": {"baseColorFactor": [0.803921568627451, 0.803921568627451, 0.803921568627451, 1.0], "metallicFactor": 0.0, "roughnessFactor": 1.0}, "alphaMode": "OPAQUE", "doubleSided": true}, {"name": "iron00", "pbrMetallicRoughness": {"baseColorFactor": [0.803921568627451, 0.803921568627451, 0.803921568627451, 1.0], "metallicFactor": 0.0, "roughnessFactor": 1.0}, "alphaMode": "OPAQUE", "doubleSided": true}, {"name": "ito00", "pbrMetallicRoughness": {"baseColorFactor": [0.803921568627451, 0.803921568627451, 0.803921568627451, 1.0], "metallicFactor": 0.0, "roughnessFactor": 1.0}, "alphaMode": "OPAQUE", "doubleSided": true}, {"name": "kabe", "pbrMetallicRoughness": {"baseColorFactor": [0.803921568627451, 0.803921568627451, 0.803921568627451, 1.0], "metallicFactor": 0.0, "roughnessFactor": 1.0}, "alphaMode": "OPAQUE", "doubleSided": true}, {"name": "kabin", "pbrMetallicRoughness": {"baseColorFactor": [0.803921568627451, 0.803921568627451, 0.803921568627451, 1.0], "metallicFactor": 0.0, "roughnessFactor": 1.0}, "alphaMode": "OPAQUE", "doubleSided": true}, {"name": "kago", "pbrMetallicRoughness": {"baseColorFactor": [0.803921568627451, 0.803921568627451, 0.803921568627451, 1.0], "metallicFactor": 0.0, "roughnessFactor": 1.0}, "alphaMode": "OPAQUE", "doubleSided": true}, {"name": "lambert150", "pbrMetallicRoughness": {"baseColorFactor": [0.803921568627451, 0.803921568627451, 0.803921568627451, 1.0], "metallicFactor": 0.0, "roughnessFactor": 1.0}, "alphaMode": "OPAQUE", "doubleSided": true}, {"name": "lambert257", "pbrMetallicRoughness": {"baseColorFactor": [0.803921568627451, 0.803921568627451, 0.803921568627451, 1.0], "metallicFactor": 0.0, "roughnessFactor": 1.0}, "alphaMode": "OPAQUE", "doubleSided": true}, {"name": "lamp", "pbrMetallicRoughness": {"baseColorFactor": [0.803921568627451, 0.803921568627451, 0.803921568627451, 1.0], "metallicFactor": 0.0, "roughnessFactor": 1.0}, "alphaMode": "OPAQUE", "doubleSided": true}, {"name": "light", "pbrMetallicRoughness": {"baseColorFactor": [0.803921568627451, 0.803921568627451, 0.803921568627451, 0.6451612903225806], "metallicFactor": 0.0, "roughnessFactor": 1.0}, "alphaMode": "BLEND", "doubleSided": true}, {"name": "light1", "pbrMetallicRoughness": {"baseColorFactor": [0.803921568627451, 0.803921568627451, 0.803921568627451, 1.0], "metallicFactor": 0.0, "roughnessFactor": 1.0}, "alphaMode": "OPAQUE", "doubleSided": true}, {"name": "lt00", "pbrMetallicRoughness": {"baseColorFactor": [0.803921568627451, 0.803921568627451, 0.803921568627451, 1.0], "metallicFactor": 0.0, "roughnessFactor": 1.0}, "alphaMode": "OPAQUE", "doubleSided": true}, {"name": "lt01", "pbrMetallicRoughness": {"baseColorFactor": [0.803921568627451, 0.803921568627451, 0.803921568627451, 1.0], "metallicFactor": 0.0, "roughnessFactor": 1.0}, "alphaMode": "OPAQUE", "doubleSided": true}, {"name": "ma_waku00", "pbrMetallicRoughness": {"baseColorFactor": [0.803921568627451, 0.803921568627451, 0.803921568627451, 1.0], "metallicFactor": 0.0, "roughnessFactor": 1.0}, "alphaMode": "OPAQUE", "doubleSided": true}, {"name": "mag_a_kago00", "pbrMetallicRoughness": {"baseColorFactor": [1.0, 1.0, 1.0, 1.0], "metallicFactor": 0.0, "roughnessFactor": 1.0}, "alphaMode": "OPAQUE", "doubleSided": true}, {"name": "mane00", "pbrMetallicRoughness": {"baseColorFactor": [0.803921568627451, 0.803921568627451, 0.803921568627451, 1.0], "metallicFactor": 0.0, "roughnessFactor": 1.0}, "alphaMode": "OPAQUE", "doubleSided": true}, {"name": "metal", "pbrMetallicRoughness": {"baseColorFactor": [0.803921568627451, 0.803921568627451, 0.803921568627451, 1.0], "metallicFactor": 0.0, "roughnessFactor": 1.0}, "alphaMode": "OPAQUE", "doubleSided": true}, {"name": "misin", "pbrMetallicRoughness": {"baseColorFactor": [0.803921568627451, 0.803921568627451, 0.803921568627451, 1.0], "metallicFactor": 0.0, "roughnessFactor": 1.0}, "alphaMode": "OPAQUE", "doubleSided": true}, {"name": "nuno00", "pbrMetallicRoughness": {"baseColorFactor": [0.803921568627451, 0.803921568627451, 0.803921568627451, 1.0], "metallicFactor": 0.0, "roughnessFactor": 1.0}, "alphaMode": "OPAQUE", "doubleSided": true}, {"name": "nuno01", "pbrMetallicRoughness": {"baseColorFactor": [0.803921568627451, 0.803921568627451, 0.803921568627451, 1.0], "metallicFactor": 0.0, "roughnessFactor": 1.0}, "alphaMode": "OPAQUE", "doubleSided": true}, {"name": "nuno02", "pbrMetallicRoughness": {"baseColorFactor": [0.803921568627451, 0.803921568627451, 0.803921568627451, 1.0], "metallicFactor": 0.0, "roughnessFactor": 1.0}, "alphaMode": "OPAQUE", "doubleSided": true}, {"name": "nuno11", "pbrMetallicRoughness": {"baseColorFactor": [0.803921568627451, 0.803921568627451, 0.803921568627451, 1.0], "metallicFactor": 0.0, "roughnessFactor": 1.0}, "alphaMode": "OPAQUE", "doubleSided": true}, {"name": "nuno12", "pbrMetallicRoughness": {"baseColorFactor": [0.803921568627451, 0.803921568627451, 0.803921568627451, 1.0], "metallicFactor": 0.0, "roughnessFactor": 1.0}, "alphaMode": "OPAQUE", "doubleSided": true}, {"name": "object_shade", "pbrMetallicRoughness": {"baseColorFactor": [0.803921568627451, 0.803921568627451, 0.803921568627451, 0.41935483870967744], "metallicFactor": 0.0, "roughnessFactor": 1.0}, "alphaMode": "BLEND", "doubleSided": true}, {"name": "paper00", "pbrMetallicRoughness": {"baseColorFactor": [0.803921568627451, 0.803921568627451, 0.803921568627451, 1.0], "metallicFactor": 0.0, "roughnessFactor": 1.0}, "alphaMode": "OPAQUE", "doubleSided": true}, {"name": "pi00", "pbrMetallicRoughness": {"baseColorFactor": [0.803921568627451, 0.803921568627451, 0.803921568627451, 1.0], "metallicFactor": 0.0, "roughnessFactor": 1.0}, "alphaMode": "OPAQUE", "doubleSided": true}, {"name": "pi01", "pbrMetallicRoughness": {"baseColorFactor": [1.0, 1.0, 1.0, 1.0], "metallicFactor": 0.0, "roughnessFactor": 1.0}, "alphaMode": "OPAQUE", "doubleSided": true}, {"name": "plane", "pbrMetallicRoughness": {"baseColorFactor": [0.803921568627451, 0.803921568627451, 0.803921568627451, 1.0], "metallicFactor": 0.0, "roughnessFactor": 1.0}, "alphaMode": "OPAQUE", "doubleSided": true}, {"name": "room_mat00", "pbrMetallicRoughness": {"baseColorFactor": [1.0, 1.0, 1.0, 1.0], "metallicFactor": 0.0, "roughnessFactor": 1.0}, "alphaMode": "OPAQUE", "doubleSided": true}, {"name": "shade00", "pbrMetallicRoughness": {"baseColorFactor": [0.803921568627451, 0.803921568627451, 0.803921568627451, 1.0], "metallicFactor": 0.0, "roughnessFactor": 1.0}, "alphaMode": "OPAQUE", "doubleSided": true}, {"name": "spider00", "pbrMetallicRoughness": {"baseColorFactor": [0.803921568627451, 0.803921568627451, 0.803921568627451, 1.0], "metallicFactor": 0.0, "roughnessFactor": 1.0}, "alphaMode": "OPAQUE", "doubleSided": true}, {"name": "switch1", "pbrMetallicRoughness": {"baseColorFactor": [0.803921568627451, 0.803921568627451, 0.803921568627451, 1.0], "metallicFactor": 0.0, "roughnessFactor": 1.0}, "alphaMode": "OPAQUE", "doubleSided": true}, {"name": "switch2", "pbrMetallicRoughness": {"baseColorFactor": [0.803921568627451, 0.803921568627451, 0.803921568627451, 1.0], "metallicFactor": 0.0, "roughnessFactor": 1.0}, "alphaMode": "OPAQUE", "doubleSided": true}, {"name": "tana", "pbrMetallicRoughness": {"baseColorFactor": [0.803921568627451, 0.803921568627451, 0.803921568627451, 1.0], "metallicFactor": 0.0, "roughnessFactor": 1.0}, "alphaMode": "OPAQUE", "doubleSided": true}, {"name": "tana00", "pbrMetallicRoughness": {"baseColorFactor": [0.803921568627451, 0.803921568627451, 0.803921568627451, 1.0], "metallicFactor": 0.0, "roughnessFactor": 1.0}, "alphaMode": "OPAQUE", "doubleSided": true}, {"name": "tana1", "pbrMetallicRoughness": {"baseColorFactor": [0.803921568627451, 0.803921568627451, 0.803921568627451, 1.0], "metallicFactor": 0.0, "roughnessFactor": 1.0}, "alphaMode": "OPAQUE", "doubleSided": true}, {"name": "tansu", "pbrMetallicRoughness": {"baseColorFactor": [0.803921568627451, 0.803921568627451, 0.803921568627451, 1.0], "metallicFactor": 0.0, "roughnessFactor": 1.0}, "alphaMode": "OPAQUE", "doubleSided": true}, {"name": "tansu1", "pbrMetallicRoughness": {"baseColorFactor": [0.803921568627451, 0.803921568627451, 0.803921568627451, 1.0], "metallicFactor": 0.0, "roughnessFactor": 1.0}, "alphaMode": "OPAQUE", "doubleSided": true}, {"name": "taru00", "pbrMetallicRoughness": {"baseColorFactor": [1.0, 1.0, 1.0, 1.0], "metallicFactor": 0.0, "roughnessFactor": 1.0}, "alphaMode": "OPAQUE", "doubleSided": true}, {"name": "taru_box", "pbrMetallicRoughness": {"baseColorFactor": [1.0, 1.0, 1.0, 1.0], "metallicFactor": 0.0, "roughnessFactor": 1.0}, "alphaMode": "OPAQUE", "doubleSided": true}, {"name": "tree1", "pbrMetallicRoughness": {"baseColorFactor": [1.0, 1.0, 1.0, 1.0], "metallicFactor": 0.0, "roughnessFactor": 1.0}, "alphaMode": "OPAQUE", "doubleSided": true}, {"name": "waku01", "pbrMetallicRoughness": {"baseColorFactor": [0.803921568627451, 0.803921568627451, 0.803921568627451, 1.0], "metallicFactor": 0.0, "roughnessFactor": 1.0}, "alphaMode": "OPAQUE", "doubleSided": true}, {"name": "yuka", "pbrMetallicRoughness": {"baseColorFactor": [0.803921568627451, 0.803921568627451, 0.803921568627451, 1.0], "metallicFactor": 0.0, "roughnessFactor": 1.0}, "alphaMode": "OPAQUE", "doubleSided": true}], "buffers": [{"byteLength": 76840, "uri": "data:application/octet-stream;base64,"}], "bufferViews": [{"buffer": 0, "byteOffset": 0, "byteLength": 240}, {"buffer": 0, "byteOffset": 240, "byteLength": 160}, {"buffer": 0, "byteOffset": 400, "byteLength": 60}, {"buffer": 0, "byteOffset": 460, "byteLength": 96}, {"buffer": 0, "byteOffset": 556, "byteLength": 64}, {"buffer": 0, "byteOffset": 620, "byteLength": 96}, {"buffer": 0, "byteOffset": 716, "byteLength": 24}, {"buffer": 0, "byteOffset": 740, "byteLength": 816}, {"buffer": 0, "byteOffset": 1556, "byteLength": 544}, {"buffer": 0, "byteOffset": 2100, "byteLength": 816}, {"buffer": 0, "byteOffset": 2916, "byteLength": 240}, {"buffer": 0, "byteOffset": 3156, "byteLength": 996}, {"buffer": 0, "byteOffset": 4152, "byteLength": 664}, {"buffer": 0, "byteOffset": 4816, "byteLength": 282}, {"buffer": 0, "byteOffset": 5100, "byteLength": 336}, {"buffer": 0, "byteOffset": 5436, "byteLength": 224}, {"buffer": 0, "byteOffset": 5660, "byteLength": 336}, {"buffer": 0, "byteOffset": 5996, "byteLength": 84}, {"buffer": 0, "byteOffset": 6080, "byteLength": 372}, {"buffer": 0, "byteOffset": 6452, "byteLength": 248}, {"buffer": 0, "byteOffset": 6700, "byteLength": 102}, {"buffer": 0, "byteOffset": 6804, "byteLength": 96}, {"buffer": 0, "byteOffset": 6900, "byteLength": 64}, {"buffer": 0, "byteOffset": 6964, "byteLength": 96}, {"buffer": 0, "byteOffset": 7060, "byteLength": 24}, {"buffer": 0, "byteOffset": 7084, "byteLength": 1224}, {"buffer": 0, "byteOffset": 8308, "byteLength": 816}, {"buffer": 0, "byteOffset": 9124, "byteLength": 1224}, {"buffer": 0, "byteOffset": 10348, "byteLength": 408}, {"buffer": 0, "byteOffset": 10756, "byteLength": 1176}, {"buffer": 0, "byteOffset": 11932, "byteLength": 784}, {"buffer": 0, "byteOffset": 12716, "byteLength": 1176}, {"buffer": 0, "byteOffset": 13892, "byteLength": 312}, {"buffer": 0, "byteOffset": 14204, "byteLength": 924}, {"buffer": 0, "byteOffset": 15128, "byteLength": 616}, {"buffer": 0, "byteOffset": 15744, "byteLength": 924}, {"buffer": 0, "byteOffset": 16668, "byteLength": 294}, {"buffer": 0, "byteOffset": 16964, "byteLength": 48}, {"buffer": 0, "byteOffset": 17012, "byteLength": 32}, {"buffer": 0, "byteOffset": 17044, "byteLength": 48}, {"buffer": 0, "byteOffset": 17092, "byteLength": 12}, {"buffer": 0, "byteOffset": 17104, "byteLength": 48}, {"buffer": 0, "byteOffset": 17152, "byteLength": 32}, {"buffer": 0, "byteOffset": 17184, "byteLength": 48}, {"buffer": 0, "byteOffset": 17232, "byteLength": 12}, {"buffer": 0, "byteOffset": 17244, "byteLength": 960}, {"buffer": 0, "byteOffset": 18204, "byteLength": 640}, {"buffer": 0, "byteOffset": 18844, "byteLength": 960}, {"buffer": 0, "byteOffset": 19804, "byteLength": 252}, {"buffer": 0, "byteOffset": 20056, "byteLength": 576}, {"buffer": 0, "byteOffset": 20632, "byteLength": 384}, {"buffer": 0, "byteOffset": 21016, "byteLength": 576}, {"buffer": 0, "byteOffset": 21592, "byteLength": 168}, {"buffer": 0, "byteOffset": 21760, "byteLength": 48}, {"buffer": 0, "byteOffset": 21808, "byteLength": 32}, {"buffer": 0, "byteOffset": 21840, "byteLength": 48}, {"buffer": 0, "byteOffset": 21888, "byteLength": 12}, {"buffer": 0, "byteOffset": 21900, "byteLength": 96}, {"buffer": 0, "byteOffset": 21996, "byteLength": 64}, {"buffer": 0, "byteOffset": 22060, "byteLength": 96}, {"buffer": 0, "byteOffset": 22156, "byteLength": 24}, {"buffer": 0, "byteOffset": 22180, "byteLength": 1104}, {"buffer": 0, "byteOffset": 23284, "byteLength": 736}, {"buffer": 0, "byteOffset": 24020, "byteLength": 1104}, {"buffer": 0, "byteOffset": 25124, "byteLength": 324}, {"buffer": 0, "byteOffset": 25448, "byteLength": 180}, {"buffer": 0, "byteOffset": 25628, "byteLength": 120}, {"buffer": 0, "byteOffset": 25748, "byteLength": 180}, {"buffer": 0, "byteOffset": 25928, "byteLength": 42}, {"buffer": 0, "byteOffset": 25972, "byteLength": 1368}, {"buffer": 0, "byteOffset": 27340, "byteLength": 912}, {"buffer": 0, "byteOffset": 28252, "byteLength": 1368}, {"buffer": 0, "byteOffset": 29620, "byteLength": 456}, {"buffer": 0, "byteOffset": 30076, "byteLength": 696}, {"buffer": 0, "byteOffset": 30772, "byteLength": 464}, {"buffer": 0, "byteOffset": 31236, "byteLength": 696}, {"buffer": 0, "byteOffset": 31932, "byteLength": 228}, {"buffer": 0, "byteOffset": 32160, "byteLength": 456}, {"buffer": 0, "byteOffset": 32616, "byteLength": 304}, {"buffer": 0, "byteOffset": 32920, "byteLength": 456}, {"buffer": 0, "byteOffset": 33376, "byteLength": 108}, {"buffer": 0, "byteOffset": 33484, "byteLength": 240}, {"buffer": 0, "byteOffset": 33724, "byteLength": 160}, {"buffer": 0, "byteOffset": 33884, "byteLength": 240}, {"buffer": 0, "byteOffset": 34124, "byteLength": 72}, {"buffer": 0, "byteOffset": 34196, "byteLength": 264}, {"buffer": 0, "byteOffset": 34460, "byteLength": 176}, {"buffer": 0, "byteOffset": 34636, "byteLength": 264}, {"buffer": 0, "byteOffset": 34900, "byteLength": 96}, {"buffer": 0, "byteOffset": 34996, "byteLength": 504}, {"buffer": 0, "byteOffset": 35500, "byteLength": 336}, {"buffer": 0, "byteOffset": 35836, "byteLength": 144}, {"buffer": 0, "byteOffset": 35980, "byteLength": 156}, {"buffer": 0, "byteOffset": 36136, "byteLength": 104}, {"buffer": 0, "byteOffset": 36240, "byteLength": 156}, {"buffer": 0, "byteOffset": 36396, "byteLength": 42}, {"buffer": 0, "byteOffset": 36440, "byteLength": 144}, {"buffer": 0, "byteOffset": 36584, "byteLength": 96}, {"buffer": 0, "byteOffset": 36680, "byteLength": 144}, {"buffer": 0, "byteOffset": 36824, "byteLength": 48}, {"buffer": 0, "byteOffset": 36872, "byteLength": 768}, {"buffer": 0, "byteOffset": 37640, "byteLength": 512}, {"buffer": 0, "byteOffset": 38152, "byteLength": 768}, {"buffer": 0, "byteOffset": 38920, "byteLength": 252}, {"buffer": 0, "byteOffset": 39172, "byteLength": 96}, {"buffer": 0, "byteOffset": 39268, "byteLength": 64}, {"buffer": 0, "byteOffset": 39332, "byteLength": 24}, {"buffer": 0, "byteOffset": 39356, "byteLength": 144}, {"buffer": 0, "byteOffset": 39500, "byteLength": 96}, {"buffer": 0, "byteOffset": 39596, "byteLength": 144}, {"buffer": 0, "byteOffset": 39740, "byteLength": 48}, {"buffer": 0, "byteOffset": 39788, "byteLength": 912}, {"buffer": 0, "byteOffset": 40700, "byteLength": 608}, {"buffer": 0, "byteOffset": 41308, "byteLength": 912}, {"buffer": 0, "byteOffset": 42220, "byteLength": 324}, {"buffer": 0, "byteOffset": 42544, "byteLength": 1572}, {"buffer": 0, "byteOffset": 44116, "byteLength": 1048}, {"buffer": 0, "byteOffset": 45164, "byteLength": 1572}, {"buffer": 0, "byteOffset": 46736, "byteLength": 462}, {"buffer": 0, "byteOffset": 47200, "byteLength": 360}, {"buffer": 0, "byteOffset": 47560, "byteLength": 240}, {"buffer": 0, "byteOffset": 47800, "byteLength": 360}, {"buffer": 0, "byteOffset": 48160, "byteLength": 108}, {"buffer": 0, "byteOffset": 48268, "byteLength": 2880}, {"buffer": 0, "byteOffset": 51148, "byteLength": 1920}, {"buffer": 0, "byteOffset": 53068, "byteLength": 2880}, {"buffer": 0, "byteOffset": 55948, "byteLength": 936}, {"buffer": 0, "byteOffset": 56884, "byteLength": 264}, {"buffer": 0, "byteOffset": 57148, "byteLength": 176}, {"buffer": 0, "byteOffset": 57324, "byteLength": 264}, {"buffer": 0, "byteOffset": 57588, "byteLength": 84}, {"buffer": 0, "byteOffset": 57672, "byteLength": 744}, {"buffer": 0, "byteOffset": 58416, "byteLength": 496}, {"buffer": 0, "byteOffset": 58912, "byteLength": 744}, {"buffer": 0, "byteOffset": 59656, "byteLength": 216}, {"buffer": 0, "byteOffset": 59872, "byteLength": 96}, {"buffer": 0, "byteOffset": 59968, "byteLength": 64}, {"buffer": 0, "byteOffset": 60032, "byteLength": 96}, {"buffer": 0, "byteOffset": 60128, "byteLength": 24}, {"buffer": 0, "byteOffset": 60152, "byteLength": 504}, {"buffer": 0, "byteOffset": 60656, "byteLength": 336}, {"buffer": 0, "byteOffset": 60992, "byteLength": 504}, {"buffer": 0, "byteOffset": 61496, "byteLength": 144}, {"buffer": 0, "byteOffset": 61640, "byteLength": 48}, {"buffer": 0, "byteOffset": 61688, "byteLength": 32}, {"buffer": 0, "byteOffset": 61720, "byteLength": 48}, {"buffer": 0, "byteOffset": 61768, "byteLength": 12}, {"buffer": 0, "byteOffset": 61780, "byteLength": 144}, {"buffer": 0, "byteOffset": 61924, "byteLength": 96}, {"buffer": 0, "byteOffset": 62020, "byteLength": 144}, {"buffer": 0, "byteOffset": 62164, "byteLength": 48}, {"buffer": 0, "byteOffset": 62212, "byteLength": 144}, {"buffer": 0, "byteOffset": 62356, "byteLength": 96}, {"buffer": 0, "byteOffset": 62452, "byteLength": 144}, {"buffer": 0, "byteOffset": 62596, "byteLength": 36}, {"buffer": 0, "byteOffset": 62632, "byteLength": 192}, {"buffer": 0, "byteOffset": 62824, "byteLength": 128}, {"buffer": 0, "byteOffset": 62952, "byteLength": 192}, {"buffer": 0, "byteOffset": 63144, "byteLength": 60}, {"buffer": 0, "byteOffset": 63204, "byteLength": 48}, {"buffer": 0, "byteOffset": 63252, "byteLength": 32}, {"buffer": 0, "byteOffset": 63284, "byteLength": 48}, {"buffer": 0, "byteOffset": 63332, "byteLength": 12}, {"buffer": 0, "byteOffset": 63344, "byteLength": 48}, {"buffer": 0, "byteOffset": 63392, "byteLength": 32}, {"buffer": 0, "byteOffset": 63424, "byteLength": 48}, {"buffer": 0, "byteOffset": 63472, "byteLength": 12}, {"buffer": 0, "byteOffset": 63484, "byteLength": 48}, {"buffer": 0, "byteOffset": 63532, "byteLength": 32}, {"buffer": 0, "byteOffset": 63564, "byteLength": 48}, {"buffer": 0, "byteOffset": 63612, "byteLength": 12}, {"buffer": 0, "byteOffset": 63624, "byteLength": 384}, {"buffer": 0, "byteOffset": 64008, "byteLength": 256}, {"buffer": 0, "byteOffset": 64264, "byteLength": 384}, {"buffer": 0, "byteOffset": 64648, "byteLength": 120}, {"buffer": 0, "byteOffset": 64768, "byteLength": 144}, {"buffer": 0, "byteOffset": 64912, "byteLength": 96}, {"buffer": 0, "byteOffset": 65008, "byteLength": 144}, {"buffer": 0, "byteOffset": 65152, "byteLength": 36}, {"buffer": 0, "byteOffset": 65188, "byteLength": 264}, {"buffer": 0, "byteOffset": 65452, "byteLength": 176}, {"buffer": 0, "byteOffset": 65628, "byteLength": 264}, {"buffer": 0, "byteOffset": 65892, "byteLength": 72}, {"buffer": 0, "byteOffset": 65964, "byteLength": 48}, {"buffer": 0, "byteOffset": 66012, "byteLength": 32}, {"buffer": 0, "byteOffset": 66044, "byteLength": 48}, {"buffer": 0, "byteOffset": 66092, "byteLength": 12}, {"buffer": 0, "byteOffset": 66104, "byteLength": 144}, {"buffer": 0, "byteOffset": 66248, "byteLength": 96}, {"buffer": 0, "byteOffset": 66344, "byteLength": 144}, {"buffer": 0, "byteOffset": 66488, "byteLength": 36}, {"buffer": 0, "byteOffset": 66524, "byteLength": 72}, {"buffer": 0, "byteOffset": 66596, "byteLength": 48}, {"buffer": 0, "byteOffset": 66644, "byteLength": 72}, {"buffer": 0, "byteOffset": 66716, "byteLength": 24}, {"buffer": 0, "byteOffset": 66740, "byteLength": 480}, {"buffer": 0, "byteOffset": 67220, "byteLength": 320}, {"buffer": 0, "byteOffset": 67540, "byteLength": 480}, {"buffer": 0, "byteOffset": 68020, "byteLength": 120}, {"buffer": 0, "byteOffset": 68140, "byteLength": 96}, {"buffer": 0, "byteOffset": 68236, "byteLength": 64}, {"buffer": 0, "byteOffset": 68300, "byteLength": 96}, {"buffer": 0, "byteOffset": 68396, "byteLength": 24}, {"buffer": 0, "byteOffset": 68420, "byteLength": 144}, {"buffer": 0, "byteOffset": 68564, "byteLength": 96}, {"buffer": 0, "byteOffset": 68660, "byteLength": 144}, {"buffer": 0, "byteOffset": 68804, "byteLength": 36}, {"buffer": 0, "byteOffset": 68840, "byteLength": 96}, {"buffer": 0, "byteOffset": 68936, "byteLength": 64}, {"buffer": 0, "byteOffset": 69000, "byteLength": 96}, {"buffer": 0, "byteOffset": 69096, "byteLength": 24}, {"buffer": 0, "byteOffset": 69120, "byteLength": 48}, {"buffer": 0, "byteOffset": 69168, "byteLength": 32}, {"buffer": 0, "byteOffset": 69200, "byteLength": 48}, {"buffer": 0, "byteOffset": 69248, "byteLength": 12}, {"buffer": 0, "byteOffset": 69260, "byteLength": 144}, {"buffer": 0, "byteOffset": 69404, "byteLength": 96}, {"buffer": 0, "byteOffset": 69500, "byteLength": 144}, {"buffer": 0, "byteOffset": 69644, "byteLength": 36}, {"buffer": 0, "byteOffset": 69680, "byteLength": 168}, {"buffer": 0, "byteOffset": 69848, "byteLength": 112}, {"buffer": 0, "byteOffset": 69960, "byteLength": 168}, {"buffer": 0, "byteOffset": 70128, "byteLength": 48}, {"buffer": 0, "byteOffset": 70176, "byteLength": 300}, {"buffer": 0, "byteOffset": 70476, "byteLength": 200}, {"buffer": 0, "byteOffset": 70676, "byteLength": 300}, {"buffer": 0, "byteOffset": 70976, "byteLength": 78}, {"buffer": 0, "byteOffset": 71056, "byteLength": 216}, {"buffer": 0, "byteOffset": 71272, "byteLength": 144}, {"buffer": 0, "byteOffset": 71416, "byteLength": 216}, {"buffer": 0, "byteOffset": 71632, "byteLength": 60}, {"buffer": 0, "byteOffset": 71692, "byteLength": 288}, {"buffer": 0, "byteOffset": 71980, "byteLength": 192}, {"buffer": 0, "byteOffset": 72172, "byteLength": 288}, {"buffer": 0, "byteOffset": 72460, "byteLength": 72}, {"buffer": 0, "byteOffset": 72532, "byteLength": 384}, {"buffer": 0, "byteOffset": 72916, "byteLength": 256}, {"buffer": 0, "byteOffset": 73172, "byteLength": 384}, {"buffer": 0, "byteOffset": 73556, "byteLength": 96}, {"buffer": 0, "byteOffset": 73652, "byteLength": 960}, {"buffer": 0, "byteOffset": 74612, "byteLength": 640}, {"buffer": 0, "byteOffset": 75252, "byteLength": 960}, {"buffer": 0, "byteOffset": 76212, "byteLength": 288}, {"buffer": 0, "byteOffset": 76500, "byteLength": 168}, {"buffer": 0, "byteOffset": 76668, "byteLength": 112}, {"buffer": 0, "byteOffset": 76780, "byteLength": 60}], "accessors": [{"bufferView": 0, "byteOffset": 0, "componentType": 5126, "count": 20, "type": "VEC3", "min": [4.87353515625, 0.2587890625, 1.60302734375], "max": [4.913818359375, 0.284912109375, 1.636962890625]}, {"bufferView": 1, "byteOffset": 0, "componentType": 5126, "count": 20, "type": "VEC2"}, {"bufferView": 2, "byteOffset": 0, "componentType": 5123, "count": 30, "type": "SCALAR"}, {"bufferView": 3, "byteOffset": 0, "componentType": 5126, "count": 8, "type": "VEC3", "min": [2.58203125, 0.199951171875, 1.419921875], "max": [2.8134765625, 0.449462890625, 1.530029296875]}, {"bufferView": 4, "byteOffset": 0, "componentType": 5126, "count": 8, "type": "VEC2"}, {"bufferView": 5, "byteOffset": 0, "componentType": 5126, "count": 8, "type": "VEC3"}, {"bufferView": 6, "byteOffset": 0, "componentType": 5123, "count": 12, "type": "SCALAR"}, {"bufferView": 7, "byteOffset": 0, "componentType": 5126, "count": 68, "type": "VEC3", "min": [0.46337890625, -0.0009765625, 1.71728515625], "max": [2.536376953125, 0.67333984375, 2.281494140625]}, {"bufferView": 8, "byteOffset": 0, "componentType": 5126, "count": 68, "type": "VEC2"}, {"bufferView": 9, "byteOffset": 0, "componentType": 5126, "count": 68, "type": "VEC3"}, {"bufferView": 10, "byteOffset": 0, "componentType": 5123, "count": 120, "type": "SCALAR"}, {"bufferView": 11, "byteOffset": 0, "componentType": 5126, "count": 83, "type": "VEC3", "min": [0.5, -0.011474609375, -0.2529296875], "max": [5.39990234375, 1.46630859375, 2.510009765625]}, {"bufferView": 12, "byteOffset": 0, "componentType": 5126, "count": 83, "type": "VEC2"}, {"bufferView": 13, "byteOffset": 0, "componentType": 5123, "count": 141, "type": "SCALAR"}, {"bufferView": 14, "byteOffset": 0, "componentType": 5126, "count": 28, "type": "VEC3", "min": [-0.189208984375, -0.125, 1.422607421875], "max": [5.867431640625, 1.938232421875, 2.58837890625]}, {"bufferView": 15, "byteOffset": 0, "componentType": 5126, "count": 28, "type": "VEC2"}, {"bufferView": 16, "byteOffset": 0, "componentType": 5126, "count": 28, "type": "VEC3"}, {"bufferView": 17, "byteOffset": 0, "componentType": 5123, "count": 42, "type": "SCALAR"}, {"bufferView": 18, "byteOffset": 0, "componentType": 5126, "count": 31, "type": "VEC3", "min": [0.49169921875, -0.0009765625, -0.2529296875], "max": [5.19140625, 0.0, 2.502685546875]}, {"bufferView": 19, "byteOffset": 0, "componentType": 5126, "count": 31, "type": "VEC2"}, {"bufferView": 20, "byteOffset": 0, "componentType": 5123, "count": 51, "type": "SCALAR"}, {"bufferView": 21, "byteOffset": 0, "componentType": 5126, "count": 8, "type": "VEC3", "min": [0.25, -0.0009765625, 1.7470703125], "max": [2.749755859375, 0.003173828125, 2.25]}, {"bufferView": 22, "byteOffset": 0, "componentType": 5126, "count": 8, "type": "VEC2"}, {"bufferView": 23, "byteOffset": 0, "componentType": 5126, "count": 8, "type": "VEC3"}, {"bufferView": 24, "byteOffset": 0, "componentType": 5123, "count": 12, "type": "SCALAR"}, {"bufferView": 25, "byteOffset": 0, "componentType": 5126, "count": 102, "type": "VEC3", "min": [2.568603515625, 0.300048828125, -0.25], "max": [5.35009765625, 1.02490234375, 2.22509765625]}, {"bufferView": 26, "byteOffset": 0, "componentType": 5126, "count": 102, "type": "VEC2"}, {"bufferView": 27, "byteOffset": 0, "componentType": 5126, "count": 102, "type": "VEC3"}, {"bufferView": 28, "byteOffset": 0, "componentType": 5123, "count": 204, "type": "SCALAR"}, {"bufferView": 29, "byteOffset": 0, "componentType": 5126, "count": 98, "type": "VEC3", "min": [4.6181640625, 0.0, 0.6298828125], "max": [4.781494140625, 0.22509765625, 0.769287109375]}, {"bufferView": 30, "byteOffset": 0, "componentType": 5126, "count": 98, "type": "VEC2"}, {"bufferView": 31, "byteOffset": 0, "componentType": 5126, "count": 98, "type": "VEC3"}, {"bufferView": 32, "byteOffset": 0, "componentType": 5123, "count": 156, "type": "SCALAR"}, {"bufferView": 33, "byteOffset": 0, "componentType": 5126, "count": 77, "type": "VEC3", "min": [4.62646484375, 0.211669921875, 0.636474609375], "max": [4.76220703125, 0.39990234375, 0.756591796875]}, {"bufferView": 34, "byteOffset": 0, "componentType": 5126, "count": 77, "type": "VEC2"}, {"bufferView": 35, "byteOffset": 0, "componentType": 5126, "count": 77, "type": "VEC3"}, {"bufferView": 36, "byteOffset": 0, "componentType": 5123, "count": 147, "type": "SCALAR"}, {"bufferView": 37, "byteOffset": 0, "componentType": 5126, "count": 4, "type": "VEC3", "min": [4.65234375, 0.398681640625, 0.66845703125], "max": [4.7392578125, 0.49853515625, 0.7177734375]}, {"bufferView": 38, "byteOffset": 0, "componentType": 5126, "count": 4, "type": "VEC2"}, {"bufferView": 39, "byteOffset": 0, "componentType": 5126, "count": 4, "type": "VEC3"}, {"bufferView": 40, "byteOffset": 0, "componentType": 5123, "count": 6, "type": "SCALAR"}, {"bufferView": 41, "byteOffset": 0, "componentType": 5126, "count": 4, "type": "VEC3", "min": [3.27490234375, 0.887451171875, -0.104736328125], "max": [3.574951171875, 1.21923828125, -0.104736328125]}, {"bufferView": 42, "byteOffset": 0, "componentType": 5126, "count": 4, "type": "VEC2"}, {"bufferView": 43, "byteOffset": 0, "componentType": 5126, "count": 4, "type": "VEC3"}, {"bufferView": 44, "byteOffset": 0, "componentType": 5123, "count": 6, "type": "SCALAR"}, {"bufferView": 45, "byteOffset": 0, "componentType": 5126, "count": 80, "type": "VEC3", "min": [2.634033203125, 0.490478515625, -0.15576171875], "max": [4.64208984375, 1.65234375, 2.22509765625]}, {"bufferView": 46, "byteOffset": 0, "componentType": 5126, "count": 80, "type": "VEC2"}, {"bufferView": 47, "byteOffset": 0, "componentType": 5126, "count": 80, "type": "VEC3"}, {"bufferView": 48, "byteOffset": 0, "componentType": 5123, "count": 126, "type": "SCALAR"}, {"bufferView": 49, "byteOffset": 0, "componentType": 5126, "count": 48, "type": "VEC3", "min": [2.494384765625, 0.010009765625, -0.199951171875], "max": [4.425048828125, 0.175048828125, 1.72509765625]}, {"bufferView": 50, "byteOffset": 0, "componentType": 5126, "count": 48, "type": "VEC2"}, {"bufferView": 51, "byteOffset": 0, "componentType": 5126, "count": 48, "type": "VEC3"}, {"bufferView": 52, "byteOffset": 0, "componentType": 5123, "count": 84, "type": "SCALAR"}, {"bufferView": 53, "byteOffset": 0, "componentType": 5126, "count": 4, "type": "VEC3", "min": [3.71728515625, 0.833251953125, -0.119384765625], "max": [3.98974609375, 1.019775390625, -0.119384765625]}, {"bufferView": 54, "byteOffset": 0, "componentType": 5126, "count": 4, "type": "VEC2"}, {"bufferView": 55, "byteOffset": 0, "componentType": 5126, "count": 4, "type": "VEC3"}, {"bufferView": 56, "byteOffset": 0, "componentType": 5123, "count": 6, "type": "SCALAR"}, {"bufferView": 57, "byteOffset": 0, "componentType": 5126, "count": 8, "type": "VEC3", "min": [3.300048828125, 0.714111328125, -0.1328125], "max": [3.976318359375, 1.045166015625, -0.100341796875]}, {"bufferView": 58, "byteOffset": 0, "componentType": 5126, "count": 8, "type": "VEC2"}, {"bufferView": 59, "byteOffset": 0, "componentType": 5126, "count": 8, "type": "VEC3"}, {"bufferView": 60, "byteOffset": 0, "componentType": 5123, "count": 12, "type": "SCALAR"}, {"bufferView": 61, "byteOffset": 0, "componentType": 5126, "count": 92, "type": "VEC3", "min": [4.450927734375, 0.0, -0.13818359375], "max": [5.1513671875, 1.175048828125, 0.415771484375]}, {"bufferView": 62, "byteOffset": 0, "componentType": 5126, "count": 92, "type": "VEC2"}, {"bufferView": 63, "byteOffset": 0, "componentType": 5126, "count": 92, "type": "VEC3"}, {"bufferView": 64, "byteOffset": 0, "componentType": 5123, "count": 162, "type": "SCALAR"}, {"bufferView": 65, "byteOffset": 0, "componentType": 5126, "count": 15, "type": "VEC3", "min": [4.43212890625, 0.0, 0.038818359375], "max": [4.894287109375, 0.331787109375, 0.496826171875]}, {"bufferView": 66, "byteOffset": 0, "componentType": 5126, "count": 15, "type": "VEC2"}, {"bufferView": 67, "byteOffset": 0, "componentType": 5126, "count": 15, "type": "VEC3"}, {"bufferView": 68, "byteOffset": 0, "componentType": 5123, "count": 21, "type": "SCALAR"}, {"bufferView": 69, "byteOffset": 0, "componentType": 5126, "count": 114, "type": "VEC3", "min": [0.222412109375, -0.093994140625, 2.536376953125], "max": [5.2646484375, 1.710693359375, 2.604248046875]}, {"bufferView": 70, "byteOffset": 0, "componentType": 5126, "count": 114, "type": "VEC2"}, {"bufferView": 71, "byteOffset": 0, "componentType": 5126, "count": 114, "type": "VEC3"}, {"bufferView": 72, "byteOffset": 0, "componentType": 5123, "count": 228, "type": "SCALAR"}, {"bufferView": 73, "byteOffset": 0, "componentType": 5126, "count": 58, "type": "VEC3", "min": [4.81396484375, 0.0009765625, 0.51171875], "max": [5.186279296875, 0.14990234375, 2.50244140625]}, {"bufferView": 74, "byteOffset": 0, "componentType": 5126, "count": 58, "type": "VEC2"}, {"bufferView": 75, "byteOffset": 0, "componentType": 5126, "count": 58, "type": "VEC3"}, {"bufferView": 76, "byteOffset": 0, "componentType": 5123, "count": 114, "type": "SCALAR"}, {"bufferView": 77, "byteOffset": 0, "componentType": 5126, "count": 38, "type": "VEC3", "min": [0.425537109375, 0.010009765625, 0.5], "max": [5.181640625, 0.166259765625, 1.87353515625]}, {"bufferView": 78, "byteOffset": 0, "componentType": 5126, "count": 38, "type": "VEC2"}, {"bufferView": 79, "byteOffset": 0, "componentType": 5126, "count": 38, "type": "VEC3"}, {"bufferView": 80, "byteOffset": 0, "componentType": 5123, "count": 54, "type": "SCALAR"}, {"bufferView": 81, "byteOffset": 0, "componentType": 5126, "count": 20, "type": "VEC3", "min": [1.094970703125, 0.000244140625, 1.48876953125], "max": [1.904052734375, 0.690185546875, 1.622314453125]}, {"bufferView": 82, "byteOffset": 0, "componentType": 5126, "count": 20, "type": "VEC2"}, {"bufferView": 83, "byteOffset": 0, "componentType": 5126, "count": 20, "type": "VEC3"}, {"bufferView": 84, "byteOffset": 0, "componentType": 5123, "count": 36, "type": "SCALAR"}, {"bufferView": 85, "byteOffset": 0, "componentType": 5126, "count": 22, "type": "VEC3", "min": [2.22509765625, 0.02099609375, 1.5498046875], "max": [2.47265625, 0.2236328125, 1.746337890625]}, {"bufferView": 86, "byteOffset": 0, "componentType": 5126, "count": 22, "type": "VEC2"}, {"bufferView": 87, "byteOffset": 0, "componentType": 5126, "count": 22, "type": "VEC3"}, {"bufferView": 88, "byteOffset": 0, "componentType": 5123, "count": 48, "type": "SCALAR"}, {"bufferView": 89, "byteOffset": 0, "componentType": 5126, "count": 42, "type": "VEC3", "min": [0.54833984375, 0.004150390625, 0.026611328125], "max": [1.72998046875, 0.447509765625, 1.778076171875]}, {"bufferView": 90, "byteOffset": 0, "componentType": 5126, "count": 42, "type": "VEC2"}, {"bufferView": 91, "byteOffset": 0, "componentType": 5123, "count": 72, "type": "SCALAR"}, {"bufferView": 92, "byteOffset": 0, "componentType": 5126, "count": 13, "type": "VEC3", "min": [1.1826171875, 0.6865234375, 1.5390625], "max": [1.81689453125, 1.003662109375, 1.5390625]}, {"bufferView": 93, "byteOffset": 0, "componentType": 5126, "count": 13, "type": "VEC2"}, {"bufferView": 94, "byteOffset": 0, "componentType": 5126, "count": 13, "type": "VEC3"}, {"bufferView": 95, "byteOffset": 0, "componentType": 5123, "count": 21, "type": "SCALAR"}, {"bufferView": 96, "byteOffset": 0, "componentType": 5126, "count": 12, "type": "VEC3", "min": [0.530029296875, 0.263916015625, 1.422607421875], "max": [2.4765625, 1.212158203125, 2.58837890625]}, {"bufferView": 97, "byteOffset": 0, "componentType": 5126, "count": 12, "type": "VEC2"}, {"bufferView": 98, "byteOffset": 0, "componentType": 5126, "count": 12, "type": "VEC3"}, {"bufferView": 99, "byteOffset": 0, "componentType": 5123, "count": 24, "type": "SCALAR"}, {"bufferView": 100, "byteOffset": 0, "componentType": 5126, "count": 64, "type": "VEC3", "min": [0.46337890625, 0.00341796875, 0.456787109375], "max": [2.9130859375, 1.522705078125, 1.59423828125]}, {"bufferView": 101, "byteOffset": 0, "componentType": 5126, "count": 64, "type": "VEC2"}, {"bufferView": 102, "byteOffset": 0, "componentType": 5126, "count": 64, "type": "VEC3"}, {"bufferView": 103, "byteOffset": 0, "componentType": 5123, "count": 126, "type": "SCALAR"}, {"bufferView": 104, "byteOffset": 0, "componentType": 5126, "count": 8, "type": "VEC3", "min": [0.708251953125, 0.489501953125, 1.633544921875], "max": [2.29638671875, 0.847900390625, 1.633544921875]}, {"bufferView": 105, "byteOffset": 0, "componentType": 5126, "count": 8, "type": "VEC2"}, {"bufferView": 106, "byteOffset": 0, "componentType": 5123, "count": 12, "type": "SCALAR"}, {"bufferView": 107, "byteOffset": 0, "componentType": 5126, "count": 12, "type": "VEC3", "min": [0.75830078125, 0.552490234375, 1.513916015625], "max": [2.234130859375, 0.8193359375, 1.576904296875]}, {"bufferView": 108, "byteOffset": 0, "componentType": 5126, "count": 12, "type": "VEC2"}, {"bufferView": 109, "byteOffset": 0, "componentType": 5126, "count": 12, "type": "VEC3"}, {"bufferView": 110, "byteOffset": 0, "componentType": 5123, "count": 24, "type": "SCALAR"}, {"bufferView": 111, "byteOffset": 0, "componentType": 5126, "count": 76, "type": "VEC3", "min": [3.941650390625, 0.350341796875, -0.125244140625], "max": [5.072265625, 0.540283203125, 1.748779296875]}, {"bufferView": 112, "byteOffset": 0, "componentType": 5126, "count": 76, "type": "VEC2"}, {"bufferView": 113, "byteOffset": 0, "componentType": 5126, "count": 76, "type": "VEC3"}, {"bufferView": 114, "byteOffset": 0, "componentType": 5123, "count": 162, "type": "SCALAR"}, {"bufferView": 115, "byteOffset": 0, "componentType": 5126, "count": 131, "type": "VEC3", "min": [4.84814453125, 0.13916015625, 1.48681640625], "max": [5.150390625, 0.363525390625, 1.825927734375]}, {"bufferView": 116, "byteOffset": 0, "componentType": 5126, "count": 131, "type": "VEC2"}, {"bufferView": 117, "byteOffset": 0, "componentType": 5126, "count": 131, "type": "VEC3"}, {"bufferView": 118, "byteOffset": 0, "componentType": 5123, "count": 231, "type": "SCALAR"}, {"bufferView": 119, "byteOffset": 0, "componentType": 5126, "count": 30, "type": "VEC3", "min": [2.97509765625, 0.386962890625, -0.124267578125], "max": [5.3310546875, 0.74658203125, 1.147216796875]}, {"bufferView": 120, "byteOffset": 0, "componentType": 5126, "count": 30, "type": "VEC2"}, {"bufferView": 121, "byteOffset": 0, "componentType": 5126, "count": 30, "type": "VEC3"}, {"bufferView": 122, "byteOffset": 0, "componentType": 5123, "count": 54, "type": "SCALAR"}, {"bufferView": 123, "byteOffset": 0, "componentType": 5126, "count": 240, "type": "VEC3", "min": [2.550048828125, 0.200439453125, 0.725341796875], "max": [2.671142578125, 0.647216796875, 1.28955078125]}, {"bufferView": 124, "byteOffset": 0, "componentType": 5126, "count": 240, "type": "VEC2"}, {"bufferView": 125, "byteOffset": 0, "componentType": 5126, "count": 240, "type": "VEC3"}, {"bufferView": 126, "byteOffset": 0, "componentType": 5123, "count": 468, "type": "SCALAR"}, {"bufferView": 127, "byteOffset": 0, "componentType": 5126, "count": 22, "type": "VEC3", "min": [2.534912109375, 0.196533203125, 0.64990234375], "max": [2.665283203125, 0.6767578125, 1.324951171875]}, {"bufferView": 128, "byteOffset": 0, "componentType": 5126, "count": 22, "type": "VEC2"}, {"bufferView": 129, "byteOffset": 0, "componentType": 5126, "count": 22, "type": "VEC3"}, {"bufferView": 130, "byteOffset": 0, "componentType": 5123, "count": 42, "type": "SCALAR"}, {"bufferView": 131, "byteOffset": 0, "componentType": 5126, "count": 62, "type": "VEC3", "min": [2.390380859375, 0.343017578125, 1.0859375], "max": [2.67578125, 0.744384765625, 1.255126953125]}, {"bufferView": 132, "byteOffset": 0, "componentType": 5126, "count": 62, "type": "VEC2"}, {"bufferView": 133, "byteOffset": 0, "componentType": 5126, "count": 62, "type": "VEC3"}, {"bufferView": 134, "byteOffset": 0, "componentType": 5123, "count": 108, "type": "SCALAR"}, {"bufferView": 135, "byteOffset": 0, "componentType": 5126, "count": 8, "type": "VEC3", "min": [4.856201171875, 0.1533203125, 0.979248046875], "max": [5.167236328125, 0.18017578125, 1.295654296875]}, {"bufferView": 136, "byteOffset": 0, "componentType": 5126, "count": 8, "type": "VEC2"}, {"bufferView": 137, "byteOffset": 0, "componentType": 5126, "count": 8, "type": "VEC3"}, {"bufferView": 138, "byteOffset": 0, "componentType": 5123, "count": 12, "type": "SCALAR"}, {"bufferView": 139, "byteOffset": 0, "componentType": 5126, "count": 42, "type": "VEC3", "min": [2.56640625, 0.175048828125, 1.28955078125], "max": [2.824951171875, 0.22509765625, 1.702392578125]}, {"bufferView": 140, "byteOffset": 0, "componentType": 5126, "count": 42, "type": "VEC2"}, {"bufferView": 141, "byteOffset": 0, "componentType": 5126, "count": 42, "type": "VEC3"}, {"bufferView": 142, "byteOffset": 0, "componentType": 5123, "count": 72, "type": "SCALAR"}, {"bufferView": 143, "byteOffset": 0, "componentType": 5126, "count": 4, "type": "VEC3", "min": [4.8564453125, 0.14990234375, 0.907958984375], "max": [5.072998046875, 0.355224609375, 0.907958984375]}, {"bufferView": 144, "byteOffset": 0, "componentType": 5126, "count": 4, "type": "VEC2"}, {"bufferView": 145, "byteOffset": 0, "componentType": 5126, "count": 4, "type": "VEC3"}, {"bufferView": 146, "byteOffset": 0, "componentType": 5123, "count": 6, "type": "SCALAR"}, {"bufferView": 147, "byteOffset": 0, "componentType": 5126, "count": 12, "type": "VEC3", "min": [5.02880859375, 0.14990234375, 0.52490234375], "max": [5.175048828125, 1.46630859375, 0.625]}, {"bufferView": 148, "byteOffset": 0, "componentType": 5126, "count": 12, "type": "VEC2"}, {"bufferView": 149, "byteOffset": 0, "componentType": 5126, "count": 12, "type": "VEC3"}, {"bufferView": 150, "byteOffset": 0, "componentType": 5123, "count": 24, "type": "SCALAR"}, {"bufferView": 151, "byteOffset": 0, "componentType": 5126, "count": 12, "type": "VEC3", "min": [4.5234375, 0.17626953125, 0.104736328125], "max": [4.829345703125, 0.31396484375, 0.390625]}, {"bufferView": 152, "byteOffset": 0, "componentType": 5126, "count": 12, "type": "VEC2"}, {"bufferView": 153, "byteOffset": 0, "componentType": 5126, "count": 12, "type": "VEC3"}, {"bufferView": 154, "byteOffset": 0, "componentType": 5123, "count": 18, "type": "SCALAR"}, {"bufferView": 155, "byteOffset": 0, "componentType": 5126, "count": 16, "type": "VEC3", "min": [4.021240234375, 0.1904296875, -0.219482421875], "max": [4.40380859375, 0.508544921875, 0.158935546875]}, {"bufferView": 156, "byteOffset": 0, "componentType": 5126, "count": 16, "type": "VEC2"}, {"bufferView": 157, "byteOffset": 0, "componentType": 5126, "count": 16, "type": "VEC3"}, {"bufferView": 158, "byteOffset": 0, "componentType": 5123, "count": 30, "type": "SCALAR"}, {"bufferView": 159, "byteOffset": 0, "componentType": 5126, "count": 4, "type": "VEC3", "min": [4.05615234375, 0.199951171875, 0.008544921875], "max": [4.249755859375, 0.6376953125, 0.062744140625]}, {"bufferView": 160, "byteOffset": 0, "componentType": 5126, "count": 4, "type": "VEC2"}, {"bufferView": 161, "byteOffset": 0, "componentType": 5126, "count": 4, "type": "VEC3"}, {"bufferView": 162, "byteOffset": 0, "componentType": 5123, "count": 6, "type": "SCALAR"}, {"bufferView": 163, "byteOffset": 0, "componentType": 5126, "count": 4, "type": "VEC3", "min": [4.15087890625, 0.187255859375, -0.090087890625], "max": [4.344970703125, 0.701171875, 0.049072265625]}, {"bufferView": 164, "byteOffset": 0, "componentType": 5126, "count": 4, "type": "VEC2"}, {"bufferView": 165, "byteOffset": 0, "componentType": 5126, "count": 4, "type": "VEC3"}, {"bufferView": 166, "byteOffset": 0, "componentType": 5123, "count": 6, "type": "SCALAR"}, {"bufferView": 167, "byteOffset": 0, "componentType": 5126, "count": 4, "type": "VEC3", "min": [4.213134765625, 0.30322265625, -0.075927734375], "max": [4.44482421875, 0.634765625, 0.006591796875]}, {"bufferView": 168, "byteOffset": 0, "componentType": 5126, "count": 4, "type": "VEC2"}, {"bufferView": 169, "byteOffset": 0, "componentType": 5126, "count": 4, "type": "VEC3"}, {"bufferView": 170, "byteOffset": 0, "componentType": 5123, "count": 6, "type": "SCALAR"}, {"bufferView": 171, "byteOffset": 0, "componentType": 5126, "count": 32, "type": "VEC3", "min": [2.499755859375, 0.60595703125, 0.64111328125], "max": [5.199951171875, 1.02490234375, 2.16552734375]}, {"bufferView": 172, "byteOffset": 0, "componentType": 5126, "count": 32, "type": "VEC2"}, {"bufferView": 173, "byteOffset": 0, "componentType": 5126, "count": 32, "type": "VEC3"}, {"bufferView": 174, "byteOffset": 0, "componentType": 5123, "count": 60, "type": "SCALAR"}, {"bufferView": 175, "byteOffset": 0, "componentType": 5126, "count": 12, "type": "VEC3", "min": [3.550048828125, 0.0, 1.181396484375], "max": [4.199951171875, 0.110107421875, 1.58154296875]}, {"bufferView": 176, "byteOffset": 0, "componentType": 5126, "count": 12, "type": "VEC2"}, {"bufferView": 177, "byteOffset": 0, "componentType": 5126, "count": 12, "type": "VEC3"}, {"bufferView": 178, "byteOffset": 0, "componentType": 5123, "count": 18, "type": "SCALAR"}, {"bufferView": 179, "byteOffset": 0, "componentType": 5126, "count": 22, "type": "VEC3", "min": [3.550048828125, 0.0, 1.181396484375], "max": [4.199951171875, 0.110107421875, 1.58154296875]}, {"bufferView": 180, "byteOffset": 0, "componentType": 5126, "count": 22, "type": "VEC2"}, {"bufferView": 181, "byteOffset": 0, "componentType": 5126, "count": 22, "type": "VEC3"}, {"bufferView": 182, "byteOffset": 0, "componentType": 5123, "count": 36, "type": "SCALAR"}, {"bufferView": 183, "byteOffset": 0, "componentType": 5126, "count": 4, "type": "VEC3", "min": [3.353515625, 0.175048828125, -0.000732421875], "max": [3.64111328125, 0.606201171875, -0.000732421875]}, {"bufferView": 184, "byteOffset": 0, "componentType": 5126, "count": 4, "type": "VEC2"}, {"bufferView": 185, "byteOffset": 0, "componentType": 5126, "count": 4, "type": "VEC3"}, {"bufferView": 186, "byteOffset": 0, "componentType": 5123, "count": 6, "type": "SCALAR"}, {"bufferView": 187, "byteOffset": 0, "componentType": 5126, "count": 12, "type": "VEC3", "min": [3.32177734375, 0.224853515625, 0.010009765625], "max": [3.714599609375, 0.58251953125, 0.010009765625]}, {"bufferView": 188, "byteOffset": 0, "componentType": 5126, "count": 12, "type": "VEC2"}, {"bufferView": 189, "byteOffset": 0, "componentType": 5126, "count": 12, "type": "VEC3"}, {"bufferView": 190, "byteOffset": 0, "componentType": 5123, "count": 18, "type": "SCALAR"}, {"bufferView": 191, "byteOffset": 0, "componentType": 5126, "count": 6, "type": "VEC3", "min": [4.02880859375, 1.02490234375, -0.227294921875], "max": [4.371337890625, 1.36767578125, -0.227294921875]}, {"bufferView": 192, "byteOffset": 0, "componentType": 5126, "count": 6, "type": "VEC2"}, {"bufferView": 193, "byteOffset": 0, "componentType": 5126, "count": 6, "type": "VEC3"}, {"bufferView": 194, "byteOffset": 0, "componentType": 5123, "count": 12, "type": "SCALAR"}, {"bufferView": 195, "byteOffset": 0, "componentType": 5126, "count": 40, "type": "VEC3", "min": [2.6337890625, 0.828369140625, 1.97509765625], "max": [3.116455078125, 1.097412109375, 2.19091796875]}, {"bufferView": 196, "byteOffset": 0, "componentType": 5126, "count": 40, "type": "VEC2"}, {"bufferView": 197, "byteOffset": 0, "componentType": 5126, "count": 40, "type": "VEC3"}, {"bufferView": 198, "byteOffset": 0, "componentType": 5123, "count": 60, "type": "SCALAR"}, {"bufferView": 199, "byteOffset": 0, "componentType": 5126, "count": 8, "type": "VEC3", "min": [4.579345703125, 0.61865234375, 0.010009765625], "max": [4.95458984375, 0.735107421875, 0.122802734375]}, {"bufferView": 200, "byteOffset": 0, "componentType": 5126, "count": 8, "type": "VEC2"}, {"bufferView": 201, "byteOffset": 0, "componentType": 5126, "count": 8, "type": "VEC3"}, {"bufferView": 202, "byteOffset": 0, "componentType": 5123, "count": 12, "type": "SCALAR"}, {"bufferView": 203, "byteOffset": 0, "componentType": 5126, "count": 12, "type": "VEC3", "min": [4.639892578125, 0.61865234375, 0.035888671875], "max": [5.127197265625, 0.83984375, 0.2236328125]}, {"bufferView": 204, "byteOffset": 0, "componentType": 5126, "count": 12, "type": "VEC2"}, {"bufferView": 205, "byteOffset": 0, "componentType": 5126, "count": 12, "type": "VEC3"}, {"bufferView": 206, "byteOffset": 0, "componentType": 5123, "count": 18, "type": "SCALAR"}, {"bufferView": 207, "byteOffset": 0, "componentType": 5126, "count": 8, "type": "VEC3", "min": [4.7119140625, 0.723388671875, 0.095458984375], "max": [5.103515625, 0.83984375, 0.185302734375]}, {"bufferView": 208, "byteOffset": 0, "componentType": 5126, "count": 8, "type": "VEC2"}, {"bufferView": 209, "byteOffset": 0, "componentType": 5126, "count": 8, "type": "VEC3"}, {"bufferView": 210, "byteOffset": 0, "componentType": 5123, "count": 12, "type": "SCALAR"}, {"bufferView": 211, "byteOffset": 0, "componentType": 5126, "count": 4, "type": "VEC3", "min": [5.175048828125, 0.702880859375, 0.978759765625], "max": [5.175048828125, 0.952880859375, 2.021240234375]}, {"bufferView": 212, "byteOffset": 0, "componentType": 5126, "count": 4, "type": "VEC2"}, {"bufferView": 213, "byteOffset": 0, "componentType": 5126, "count": 4, "type": "VEC3"}, {"bufferView": 214, "byteOffset": 0, "componentType": 5123, "count": 6, "type": "SCALAR"}, {"bufferView": 215, "byteOffset": 0, "componentType": 5126, "count": 12, "type": "VEC3", "min": [5.07763671875, 1.06494140625, 0.85986328125], "max": [5.1630859375, 1.40380859375, 1.622802734375]}, {"bufferView": 216, "byteOffset": 0, "componentType": 5126, "count": 12, "type": "VEC2"}, {"bufferView": 217, "byteOffset": 0, "componentType": 5126, "count": 12, "type": "VEC3"}, {"bufferView": 218, "byteOffset": 0, "componentType": 5123, "count": 18, "type": "SCALAR"}, {"bufferView": 219, "byteOffset": 0, "componentType": 5126, "count": 14, "type": "VEC3", "min": [2.79150390625, 0.93798828125, -0.063232421875], "max": [3.177490234375, 1.369384765625, 0.2958984375]}, {"bufferView": 220, "byteOffset": 0, "componentType": 5126, "count": 14, "type": "VEC2"}, {"bufferView": 221, "byteOffset": 0, "componentType": 5126, "count": 14, "type": "VEC3"}, {"bufferView": 222, "byteOffset": 0, "componentType": 5123, "count": 24, "type": "SCALAR"}, {"bufferView": 223, "byteOffset": 0, "componentType": 5126, "count": 25, "type": "VEC3", "min": [2.776123046875, 0.40283203125, 0.2802734375], "max": [5.2861328125, 1.342529296875, 1.35986328125]}, {"bufferView": 224, "byteOffset": 0, "componentType": 5126, "count": 25, "type": "VEC2"}, {"bufferView": 225, "byteOffset": 0, "componentType": 5126, "count": 25, "type": "VEC3"}, {"bufferView": 226, "byteOffset": 0, "componentType": 5123, "count": 39, "type": "SCALAR"}, {"bufferView": 227, "byteOffset": 0, "componentType": 5126, "count": 18, "type": "VEC3", "min": [5.17578125, 0.385009765625, 1.52490234375], "max": [5.324951171875, 0.52490234375, 1.7646484375]}, {"bufferView": 228, "byteOffset": 0, "componentType": 5126, "count": 18, "type": "VEC2"}, {"bufferView": 229, "byteOffset": 0, "componentType": 5126, "count": 18, "type": "VEC3"}, {"bufferView": 230, "byteOffset": 0, "componentType": 5123, "count": 30, "type": "SCALAR"}, {"bufferView": 231, "byteOffset": 0, "componentType": 5126, "count": 24, "type": "VEC3", "min": [3.541748046875, 0.4423828125, -0.125], "max": [3.70751953125, 0.540283203125, -0.074951171875]}, {"bufferView": 232, "byteOffset": 0, "componentType": 5126, "count": 24, "type": "VEC2"}, {"bufferView": 233, "byteOffset": 0, "componentType": 5126, "count": 24, "type": "VEC3"}, {"bufferView": 234, "byteOffset": 0, "componentType": 5123, "count": 36, "type": "SCALAR"}, {"bufferView": 235, "byteOffset": 0, "componentType": 5126, "count": 32, "type": "VEC3", "min": [3.73974609375, 0.3984375, -0.125244140625], "max": [3.907470703125, 0.540283203125, -0.074951171875]}, {"bufferView": 236, "byteOffset": 0, "componentType": 5126, "count": 32, "type": "VEC2"}, {"bufferView": 237, "byteOffset": 0, "componentType": 5126, "count": 32, "type": "VEC3"}, {"bufferView": 238, "byteOffset": 0, "componentType": 5123, "count": 48, "type": "SCALAR"}, {"bufferView": 239, "byteOffset": 0, "componentType": 5126, "count": 80, "type": "VEC3", "min": [4.572998046875, 0.29638671875, -0.078125], "max": [5.038330078125, 0.592041015625, 0.3583984375]}, {"bufferView": 240, "byteOffset": 0, "componentType": 5126, "count": 80, "type": "VEC2"}, {"bufferView": 241, "byteOffset": 0, "componentType": 5126, "count": 80, "type": "VEC3"}, {"bufferView": 242, "byteOffset": 0, "componentType": 5123, "count": 144, "type": "SCALAR"}, {"bufferView": 243, "byteOffset": 0, "componentType": 5126, "count": 14, "type": "VEC3", "min": [4.895751953125, 0.2587890625, 1.59716796875], "max": [4.913818359375, 0.309326171875, 1.62841796875]}, {"bufferView": 244, "byteOffset": 0, "componentType": 5126, "count": 14, "type": "VEC2"}, {"bufferView": 245, "byteOffset": 0, "componentType": 5123, "count": 30, "type": "SCALAR"}], "samplers": [{"magFilter": 9729, "minFilter": 9729, "wrapS": 10497, "wrapT": 10497}]}