{"asset": {"version": "2.0", "generator": "tongari-nsbmd-to-gltf"}, "scene": 0, "scenes": [{"nodes": [0, 1]}], "nodes": [{"name": "kg3_dl02", "translation": [0.0, 0.0, 0.0]}, {"mesh": 0, "name": "3920kg3_dl02"}], "meshes": [{"name": "3920kg3_dl02", "primitives": [{"attributes": {"POSITION": 0, "TEXCOORD_0": 1, "NORMAL": 2}, "indices": 3, "mode": 4, "material": 1}, {"attributes": {"POSITION": 4, "TEXCOORD_0": 5, "NORMAL": 6}, "indices": 7, "mode": 4, "material": 0}]}], "materials": [{"name": "dl02_0", "pbrMetallicRoughness": {"baseColorFactor": [1.0, 1.0, 1.0, 1.0], "metallicFactor": 0.0, "roughnessFactor": 1.0}, "alphaMode": "OPAQUE", "doubleSided": true}, {"name": "dl02_1", "pbrMetallicRoughness": {"baseColorFactor": [1.0, 1.0, 1.0, 1.0], "metallicFactor": 0.0, "roughnessFactor": 1.0}, "alphaMode": "OPAQUE", "doubleSided": true}], "buffers": [{"byteLength": 4260, "uri": "data:application/octet-stream;base64,"}], "bufferViews": [{"buffer": 0, "byteOffset": 0, "byteLength": 792}, {"buffer": 0, "byteOffset": 792, "byteLength": 528}, {"buffer": 0, "byteOffset": 1320, "byteLength": 792}, {"buffer": 0, "byteOffset": 2112, "byteLength": 216}, {"buffer": 0, "byteOffset": 2328, "byteLength": 648}, {"buffer": 0, "byteOffset": 2976, "byteLength": 432}, {"buffer": 0, "byteOffset": 3408, "byteLength": 648}, {"buffer": 0, "byteOffset": 4056, "byteLength": 204}], "accessors": [{"bufferView": 0, "byteOffset": 0, "componentType": 5126, "count": 66, "type": "VEC3", "min": [-0.370361328125, 0.05419921875, -0.090576171875], "max": [0.370361328125, 2.32568359375, 0.090576171875]}, {"bufferView": 1, "byteOffset": 0, "componentType": 5126, "count": 66, "type": "VEC2"}, {"bufferView": 2, "byteOffset": 0, "componentType": 5126, "count": 66, "type": "VEC3"}, {"bufferView": 3, "byteOffset": 0, "componentType": 5123, "count": 108, "type": "SCALAR"}, {"bufferView": 4, "byteOffset": 0, "componentType": 5126, "count": 54, "type": "VEC3", "min": [-0.4970703125, 0.0, -0.2431640625], "max": [0.4970703125, 1.637451171875, 0.2431640625]}, {"bufferView": 5, "byteOffset": 0, "componentType": 5126, "count": 54, "type": "VEC2"}, {"bufferView": 6, "byteOffset": 0, "componentType": 5126, "count": 54, "type": "VEC3"}, {"bufferView": 7, "byteOffset": 0, "componentType": 5123, "count": 102, "type": "SCALAR"}], "samplers": [{"magFilter": 9729, "minFilter": 9729, "wrapS": 10497, "wrapT": 10497}]}