{"asset": {"version": "2.0", "generator": "tongari-nsbmd-to-gltf"}, "scene": 0, "scenes": [{"nodes": [0, 1]}], "nodes": [{"name": "code_head111", "translation": [0.0, 0.946533203125, 0.0]}, {"mesh": 0, "name": "code_head111"}], "meshes": [{"name": "code_head111", "primitives": [{"attributes": {"POSITION": 0, "TEXCOORD_0": 1, "NORMAL": 2}, "indices": 3, "mode": 4, "material": 0}]}], "materials": [{"name": "zc08hat_86", "pbrMetallicRoughness": {"baseColorFactor": [1.0, 1.0, 1.0, 1.0], "metallicFactor": 0.0, "roughnessFactor": 1.0}, "alphaMode": "OPAQUE", "doubleSided": true}], "buffers": [{"byteLength": 4772, "uri": "data:application/octet-stream;base64,"}], "bufferViews": [{"buffer": 0, "byteOffset": 0, "byteLength": 1632}, {"buffer": 0, "byteOffset": 1632, "byteLength": 1088}, {"buffer": 0, "byteOffset": 2720, "byteLength": 1632}, {"buffer": 0, "byteOffset": 4352, "byteLength": 420}], "accessors": [{"bufferView": 0, "byteOffset": 0, "componentType": 5126, "count": 136, "type": "VEC3", "min": [-0.383544921875, 1.711669921875, -0.3642578125], "max": [0.381103515625, 2.234375, 0.356689453125]}, {"bufferView": 1, "byteOffset": 0, "componentType": 5126, "count": 136, "type": "VEC2"}, {"bufferView": 2, "byteOffset": 0, "componentType": 5126, "count": 136, "type": "VEC3"}, {"bufferView": 3, "byteOffset": 0, "componentType": 5123, "count": 210, "type": "SCALAR"}], "samplers": [{"magFilter": 9729, "minFilter": 9729, "wrapS": 10497, "wrapT": 10497}]}