{"asset": {"version": "2.0", "generator": "tongari-nsbmd-to-gltf"}, "scene": 0, "scenes": [{"nodes": [0, 1]}], "nodes": [{"name": "sbim03_19", "translation": [0.0, 0.0, 0.0]}, {"mesh": 0, "name": "2726sbim03_19"}], "meshes": [{"name": "2726sbim03_19", "primitives": [{"attributes": {"POSITION": 0, "TEXCOORD_0": 1, "NORMAL": 2}, "indices": 3, "mode": 4, "material": 0}]}], "materials": [{"name": "sbim03_19_0", "pbrMetallicRoughness": {"baseColorFactor": [0.803921568627451, 0.803921568627451, 0.803921568627451, 1.0], "metallicFactor": 0.0, "roughnessFactor": 1.0}, "alphaMode": "OPAQUE", "doubleSided": true}], "buffers": [{"byteLength": 4520, "uri": "data:application/octet-stream;base64,"}], "bufferViews": [{"buffer": 0, "byteOffset": 0, "byteLength": 1560}, {"buffer": 0, "byteOffset": 1560, "byteLength": 1040}, {"buffer": 0, "byteOffset": 2600, "byteLength": 1560}, {"buffer": 0, "byteOffset": 4160, "byteLength": 360}], "accessors": [{"bufferView": 0, "byteOffset": 0, "componentType": 5126, "count": 130, "type": "VEC3", "min": [-0.195556640625, -0.260009765625, -1.066162109375], "max": [0.487060546875, 0.293701171875, 1.465087890625]}, {"bufferView": 1, "byteOffset": 0, "componentType": 5126, "count": 130, "type": "VEC2"}, {"bufferView": 2, "byteOffset": 0, "componentType": 5126, "count": 130, "type": "VEC3"}, {"bufferView": 3, "byteOffset": 0, "componentType": 5123, "count": 180, "type": "SCALAR"}], "samplers": [{"magFilter": 9729, "minFilter": 9729, "wrapS": 10497, "wrapT": 10497}]}