{"asset": {"version": "2.0", "generator": "tongari-nsbmd-to-gltf"}, "scene": 0, "scenes": [{"nodes": [0, 1]}], "nodes": [{"name": "imig04_07", "translation": [0.0, 0.0, 0.0]}, {"mesh": 0, "name": "3273IMIG04_07"}], "meshes": [{"name": "3273IMIG04_07", "primitives": [{"attributes": {"POSITION": 0, "TEXCOORD_0": 1, "NORMAL": 2}, "indices": 3, "mode": 4, "material": 3}, {"attributes": {"POSITION": 4, "TEXCOORD_0": 5, "NORMAL": 6}, "indices": 7, "mode": 4, "material": 2}, {"attributes": {"POSITION": 8, "TEXCOORD_0": 9, "NORMAL": 10}, "indices": 11, "mode": 4, "material": 0}, {"attributes": {"POSITION": 12, "TEXCOORD_0": 13, "NORMAL": 14}, "indices": 15, "mode": 4, "material": 1}]}], "materials": [{"name": "imig04_07_0", "pbrMetallicRoughness": {"baseColorFactor": [1.0, 1.0, 1.0, 1.0], "metallicFactor": 0.0, "roughnessFactor": 1.0}, "alphaMode": "OPAQUE", "doubleSided": true}, {"name": "imig04_07_1", "pbrMetallicRoughness": {"baseColorFactor": [1.0, 1.0, 1.0, 1.0], "metallicFactor": 0.0, "roughnessFactor": 1.0}, "alphaMode": "OPAQUE", "doubleSided": true}, {"name": "imig04_07_2", "pbrMetallicRoughness": {"baseColorFactor": [1.0, 1.0, 1.0, 1.0], "metallicFactor": 0.0, "roughnessFactor": 1.0}, "alphaMode": "OPAQUE", "doubleSided": true}, {"name": "imig04_07_3", "pbrMetallicRoughness": {"baseColorFactor": [1.0, 1.0, 1.0, 1.0], "metallicFactor": 0.0, "roughnessFactor": 1.0}, "alphaMode": "OPAQUE", "doubleSided": true}], "buffers": [{"byteLength": 4132, "uri": "data:application/octet-stream;base64,"}], "bufferViews": [{"buffer": 0, "byteOffset": 0, "byteLength": 288}, {"buffer": 0, "byteOffset": 288, "byteLength": 192}, {"buffer": 0, "byteOffset": 480, "byteLength": 288}, {"buffer": 0, "byteOffset": 768, "byteLength": 108}, {"buffer": 0, "byteOffset": 876, "byteLength": 624}, {"buffer": 0, "byteOffset": 1500, "byteLength": 416}, {"buffer": 0, "byteOffset": 1916, "byteLength": 624}, {"buffer": 0, "byteOffset": 2540, "byteLength": 168}, {"buffer": 0, "byteOffset": 2708, "byteLength": 288}, {"buffer": 0, "byteOffset": 2996, "byteLength": 192}, {"buffer": 0, "byteOffset": 3188, "byteLength": 288}, {"buffer": 0, "byteOffset": 3476, "byteLength": 108}, {"buffer": 0, "byteOffset": 3584, "byteLength": 192}, {"buffer": 0, "byteOffset": 3776, "byteLength": 128}, {"buffer": 0, "byteOffset": 3904, "byteLength": 192}, {"buffer": 0, "byteOffset": 4096, "byteLength": 36}], "accessors": [{"bufferView": 0, "byteOffset": 0, "componentType": 5126, "count": 24, "type": "VEC3", "min": [-0.275390625, 0.0, -0.357666015625], "max": [0.4404296875, 0.14599609375, 0.358154296875]}, {"bufferView": 1, "byteOffset": 0, "componentType": 5126, "count": 24, "type": "VEC2"}, {"bufferView": 2, "byteOffset": 0, "componentType": 5126, "count": 24, "type": "VEC3"}, {"bufferView": 3, "byteOffset": 0, "componentType": 5123, "count": 54, "type": "SCALAR"}, {"bufferView": 4, "byteOffset": 0, "componentType": 5126, "count": 52, "type": "VEC3", "min": [-0.467041015625, 0.0, -0.26220703125], "max": [-0.273193359375, 0.269287109375, 0.26220703125]}, {"bufferView": 5, "byteOffset": 0, "componentType": 5126, "count": 52, "type": "VEC2"}, {"bufferView": 6, "byteOffset": 0, "componentType": 5126, "count": 52, "type": "VEC3"}, {"bufferView": 7, "byteOffset": 0, "componentType": 5123, "count": 84, "type": "SCALAR"}, {"bufferView": 8, "byteOffset": 0, "componentType": 5126, "count": 24, "type": "VEC3", "min": [-0.48486328125, 0.26171875, -0.3037109375], "max": [-0.255126953125, 0.462890625, 0.3037109375]}, {"bufferView": 9, "byteOffset": 0, "componentType": 5126, "count": 24, "type": "VEC2"}, {"bufferView": 10, "byteOffset": 0, "componentType": 5126, "count": 24, "type": "VEC3"}, {"bufferView": 11, "byteOffset": 0, "componentType": 5123, "count": 54, "type": "SCALAR"}, {"bufferView": 12, "byteOffset": 0, "componentType": 5126, "count": 16, "type": "VEC3", "min": [-0.367919921875, 0.010009765625, -0.439453125], "max": [0.512451171875, 0.157958984375, 0.44580078125]}, {"bufferView": 13, "byteOffset": 0, "componentType": 5126, "count": 16, "type": "VEC2"}, {"bufferView": 14, "byteOffset": 0, "componentType": 5126, "count": 16, "type": "VEC3"}, {"bufferView": 15, "byteOffset": 0, "componentType": 5123, "count": 18, "type": "SCALAR"}], "samplers": [{"magFilter": 9729, "minFilter": 9729, "wrapS": 10497, "wrapT": 10497}]}