{"asset": {"version": "2.0", "generator": "tongari-nsbmd-to-gltf"}, "scene": 0, "scenes": [{"nodes": [0, 12]}], "nodes": [{"name": "root", "translation": [0.0, 0.465087890625, 0.000244140625], "children": [1, 9]}, {"name": "chest", "translation": [0.0, 0.05908203125, 0.03369140625], "children": [2, 4, 6]}, {"name": "l_shoulder", "translation": [0.1650390625, 0.2421875, -0.057373046875], "children": [3]}, {"name": "l_elbow", "translation": [0.166015625, -0.0078125, 0.0]}, {"name": "neck", "translation": [0.0, 0.255126953125, -0.05615234375], "children": [5]}, {"name": "mouse", "translation": [0.0, 0.226806640625, 0.064453125]}, {"name": "r_shoulder", "translation": [-0.164794921875, 0.2421875, -0.057373046875], "children": [7]}, {"name": "r_elbow", "translation": [-0.166015625, -0.0078125, 0.0], "children": [8]}, {"name": "r_hand", "translation": [-0.190185546875, -0.009033203125, 0.031005859375]}, {"name": "hip", "translation": [0.0, -0.0556640625, -0.0302734375], "children": [10, 11]}, {"name": "l_knee", "translation": [0.08154296875, -0.0419921875, 0.04736328125]}, {"name": "r_knee", "translation": [-0.08154296875, -0.0419921875, 0.04736328125]}, {"mesh": 0, "name": "npc2006"}], "meshes": [{"name": "npc2006", "primitives": [{"attributes": {"POSITION": 0, "TEXCOORD_0": 1, "NORMAL": 2}, "indices": 3, "mode": 4, "material": 7}, {"attributes": {"POSITION": 4, "TEXCOORD_0": 5, "NORMAL": 6}, "indices": 7, "mode": 4, "material": 0}, {"attributes": {"POSITION": 8, "TEXCOORD_0": 9, "NORMAL": 10}, "indices": 11, "mode": 4, "material": 4}, {"attributes": {"POSITION": 12, "TEXCOORD_0": 13, "NORMAL": 14}, "indices": 15, "mode": 4, "material": 6}, {"attributes": {"POSITION": 16, "TEXCOORD_0": 17, "NORMAL": 18}, "indices": 19, "mode": 4, "material": 2}, {"attributes": {"POSITION": 20, "TEXCOORD_0": 21, "NORMAL": 22}, "indices": 23, "mode": 4, "material": 3}, {"attributes": {"POSITION": 24, "TEXCOORD_0": 25, "NORMAL": 26}, "indices": 27, "mode": 4, "material": 5}, {"attributes": {"POSITION": 28, "TEXCOORD_0": 29, "NORMAL": 30}, "indices": 31, "mode": 4, "material": 1}]}], "materials": [{"name": "c00_face", "pbrMetallicRoughness": {"baseColorFactor": [1.0, 1.0, 1.0, 1.0], "metallicFactor": 0.0, "roughnessFactor": 1.0}, "alphaMode": "OPAQUE", "doubleSided": true}, {"name": "c04_body", "pbrMetallicRoughness": {"baseColorFactor": [1.0, 1.0, 1.0, 1.0], "metallicFactor": 0.0, "roughnessFactor": 1.0}, "alphaMode": "OPAQUE", "doubleSided": true}, {"name": "c05_hair", "pbrMetallicRoughness": {"baseColorFactor": [1.0, 1.0, 1.0, 1.0], "metallicFactor": 0.0, "roughnessFactor": 1.0}, "alphaMode": "OPAQUE", "doubleSided": true}, {"name": "c06_head", "pbrMetallicRoughness": {"baseColorFactor": [1.0, 1.0, 1.0, 1.0], "metallicFactor": 0.0, "roughnessFactor": 1.0}, "alphaMode": "OPAQUE", "doubleSided": true}, {"name": "c07_scarf", "pbrMetallicRoughness": {"baseColorFactor": [1.0, 1.0, 1.0, 1.0], "metallicFactor": 0.0, "roughnessFactor": 1.0}, "alphaMode": "OPAQUE", "doubleSided": true}, {"name": "c08_leg", "pbrMetallicRoughness": {"baseColorFactor": [1.0, 1.0, 1.0, 1.0], "metallicFactor": 0.0, "roughnessFactor": 1.0}, "alphaMode": "OPAQUE", "doubleSided": true}, {"name": "c09_flower", "pbrMetallicRoughness": {"baseColorFactor": [1.0, 1.0, 1.0, 1.0], "metallicFactor": 0.0, "roughnessFactor": 1.0}, "alphaMode": "OPAQUE", "doubleSided": true}, {"name": "c10_body2", "pbrMetallicRoughness": {"baseColorFactor": [1.0, 1.0, 1.0, 1.0], "metallicFactor": 0.0, "roughnessFactor": 1.0}, "alphaMode": "OPAQUE", "doubleSided": true}], "buffers": [{"byteLength": 15344, "uri": "data:application/octet-stream;base64,"}], "bufferViews": [{"buffer": 0, "byteOffset": 0, "byteLength": 168}, {"buffer": 0, "byteOffset": 168, "byteLength": 112}, {"buffer": 0, "byteOffset": 280, "byteLength": 168}, {"buffer": 0, "byteOffset": 448, "byteLength": 48}, {"buffer": 0, "byteOffset": 496, "byteLength": 1200}, {"buffer": 0, "byteOffset": 1696, "byteLength": 800}, {"buffer": 0, "byteOffset": 2496, "byteLength": 1200}, {"buffer": 0, "byteOffset": 3696, "byteLength": 348}, {"buffer": 0, "byteOffset": 4044, "byteLength": 360}, {"buffer": 0, "byteOffset": 4404, "byteLength": 240}, {"buffer": 0, "byteOffset": 4644, "byteLength": 360}, {"buffer": 0, "byteOffset": 5004, "byteLength": 108}, {"buffer": 0, "byteOffset": 5112, "byteLength": 48}, {"buffer": 0, "byteOffset": 5160, "byteLength": 32}, {"buffer": 0, "byteOffset": 5192, "byteLength": 48}, {"buffer": 0, "byteOffset": 5240, "byteLength": 12}, {"buffer": 0, "byteOffset": 5252, "byteLength": 168}, {"buffer": 0, "byteOffset": 5420, "byteLength": 112}, {"buffer": 0, "byteOffset": 5532, "byteLength": 168}, {"buffer": 0, "byteOffset": 5700, "byteLength": 48}, {"buffer": 0, "byteOffset": 5748, "byteLength": 1860}, {"buffer": 0, "byteOffset": 7608, "byteLength": 1240}, {"buffer": 0, "byteOffset": 8848, "byteLength": 1860}, {"buffer": 0, "byteOffset": 10708, "byteLength": 618}, {"buffer": 0, "byteOffset": 11328, "byteLength": 432}, {"buffer": 0, "byteOffset": 11760, "byteLength": 288}, {"buffer": 0, "byteOffset": 12048, "byteLength": 432}, {"buffer": 0, "byteOffset": 12480, "byteLength": 156}, {"buffer": 0, "byteOffset": 12636, "byteLength": 912}, {"buffer": 0, "byteOffset": 13548, "byteLength": 608}, {"buffer": 0, "byteOffset": 14156, "byteLength": 912}, {"buffer": 0, "byteOffset": 15068, "byteLength": 276}], "accessors": [{"bufferView": 0, "byteOffset": 0, "componentType": 5126, "count": 14, "type": "VEC3", "min": [-0.552490234375, 0.57080078125, -0.00830078125], "max": [0.152587890625, 0.752197265625, 0.250244140625]}, {"bufferView": 1, "byteOffset": 0, "componentType": 5126, "count": 14, "type": "VEC2"}, {"bufferView": 2, "byteOffset": 0, "componentType": 5126, "count": 14, "type": "VEC3"}, {"bufferView": 3, "byteOffset": 0, "componentType": 5123, "count": 24, "type": "SCALAR"}, {"bufferView": 4, "byteOffset": 0, "componentType": 5126, "count": 100, "type": "VEC3", "min": [-0.483642578125, 0.382568359375, -0.081298828125], "max": [0.64990234375, 1.514404296875, 0.359619140625]}, {"bufferView": 5, "byteOffset": 0, "componentType": 5126, "count": 100, "type": "VEC2"}, {"bufferView": 6, "byteOffset": 0, "componentType": 5126, "count": 100, "type": "VEC3"}, {"bufferView": 7, "byteOffset": 0, "componentType": 5123, "count": 174, "type": "SCALAR"}, {"bufferView": 8, "byteOffset": 0, "componentType": 5126, "count": 30, "type": "VEC3", "min": [-0.2158203125, 0.379150390625, -0.315673828125], "max": [0.19970703125, 0.580078125, 0.198974609375]}, {"bufferView": 9, "byteOffset": 0, "componentType": 5126, "count": 30, "type": "VEC2"}, {"bufferView": 10, "byteOffset": 0, "componentType": 5126, "count": 30, "type": "VEC3"}, {"bufferView": 11, "byteOffset": 0, "componentType": 5123, "count": 54, "type": "SCALAR"}, {"bufferView": 12, "byteOffset": 0, "componentType": 5126, "count": 4, "type": "VEC3", "min": [0.2080078125, 0.893798828125, -0.3046875], "max": [0.719970703125, 1.442138671875, 0.318115234375]}, {"bufferView": 13, "byteOffset": 0, "componentType": 5126, "count": 4, "type": "VEC2"}, {"bufferView": 14, "byteOffset": 0, "componentType": 5126, "count": 4, "type": "VEC3"}, {"bufferView": 15, "byteOffset": 0, "componentType": 5123, "count": 6, "type": "SCALAR"}, {"bufferView": 16, "byteOffset": 0, "componentType": 5126, "count": 14, "type": "VEC3", "min": [-0.30712890625, 0.928955078125, 0.24560546875], "max": [0.119384765625, 1.2001953125, 0.4345703125]}, {"bufferView": 17, "byteOffset": 0, "componentType": 5126, "count": 14, "type": "VEC2"}, {"bufferView": 18, "byteOffset": 0, "componentType": 5126, "count": 14, "type": "VEC3"}, {"bufferView": 19, "byteOffset": 0, "componentType": 5123, "count": 24, "type": "SCALAR"}, {"bufferView": 20, "byteOffset": 0, "componentType": 5126, "count": 155, "type": "VEC3", "min": [-0.96923828125, 0.502685546875, -0.484375], "max": [0.802734375, 1.438232421875, 0.3212890625]}, {"bufferView": 21, "byteOffset": 0, "componentType": 5126, "count": 155, "type": "VEC2"}, {"bufferView": 22, "byteOffset": 0, "componentType": 5126, "count": 155, "type": "VEC3"}, {"bufferView": 23, "byteOffset": 0, "componentType": 5123, "count": 309, "type": "SCALAR"}, {"bufferView": 24, "byteOffset": 0, "componentType": 5126, "count": 36, "type": "VEC3", "min": [-0.07763671875, 0.099609375, -0.142333984375], "max": [0.40869140625, 0.501708984375, 0.10546875]}, {"bufferView": 25, "byteOffset": 0, "componentType": 5126, "count": 36, "type": "VEC2"}, {"bufferView": 26, "byteOffset": 0, "componentType": 5126, "count": 36, "type": "VEC3"}, {"bufferView": 27, "byteOffset": 0, "componentType": 5123, "count": 78, "type": "SCALAR"}, {"bufferView": 28, "byteOffset": 0, "componentType": 5126, "count": 76, "type": "VEC3", "min": [-0.661376953125, 0.57080078125, -0.319580078125], "max": [0.380126953125, 1.0615234375, 0.27685546875]}, {"bufferView": 29, "byteOffset": 0, "componentType": 5126, "count": 76, "type": "VEC2"}, {"bufferView": 30, "byteOffset": 0, "componentType": 5126, "count": 76, "type": "VEC3"}, {"bufferView": 31, "byteOffset": 0, "componentType": 5123, "count": 138, "type": "SCALAR"}], "samplers": [{"magFilter": 9729, "minFilter": 9729, "wrapS": 10497, "wrapT": 10497}]}