{"asset": {"version": "2.0", "generator": "tongari-nsbmd-to-gltf"}, "scene": 0, "scenes": [{"nodes": [0, 4]}], "nodes": [{"name": "world_root", "translation": [0.0, 0.0, 0.0], "children": [1, 2, 3]}, {"name": "imrl04_07_b", "translation": [0.0, 0.0, 0.0]}, {"name": "imrl04_07_off", "translation": [0.0, 0.0, 0.0]}, {"name": "imrl04_07_on", "translation": [0.0, 0.0, 0.0]}, {"mesh": 0, "name": "3066IMRL04_07"}], "meshes": [{"name": "3066IMRL04_07", "primitives": [{"attributes": {"POSITION": 0, "TEXCOORD_0": 1, "NORMAL": 2}, "indices": 3, "mode": 4, "material": 0}, {"attributes": {"POSITION": 4, "TEXCOORD_0": 5, "NORMAL": 6}, "indices": 7, "mode": 4, "material": 1}, {"attributes": {"POSITION": 8, "TEXCOORD_0": 9, "NORMAL": 10}, "indices": 11, "mode": 4, "material": 2}]}], "materials": [{"name": "imrl04_07_0", "pbrMetallicRoughness": {"baseColorFactor": [1.0, 1.0, 1.0, 1.0], "metallicFactor": 0.0, "roughnessFactor": 1.0}, "alphaMode": "OPAQUE", "doubleSided": true}, {"name": "imrl04_07_1", "pbrMetallicRoughness": {"baseColorFactor": [1.0, 1.0, 1.0, 1.0], "metallicFactor": 0.0, "roughnessFactor": 1.0}, "alphaMode": "OPAQUE", "doubleSided": true}, {"name": "imrl04_07_2", "pbrMetallicRoughness": {"baseColorFactor": [1.0, 1.0, 1.0, 1.0], "metallicFactor": 0.0, "roughnessFactor": 1.0}, "alphaMode": "OPAQUE", "doubleSided": true}], "buffers": [{"byteLength": 6184, "uri": "data:application/octet-stream;base64,"}], "bufferViews": [{"buffer": 0, "byteOffset": 0, "byteLength": 768}, {"buffer": 0, "byteOffset": 768, "byteLength": 512}, {"buffer": 0, "byteOffset": 1280, "byteLength": 768}, {"buffer": 0, "byteOffset": 2048, "byteLength": 264}, {"buffer": 0, "byteOffset": 2312, "byteLength": 672}, {"buffer": 0, "byteOffset": 2984, "byteLength": 448}, {"buffer": 0, "byteOffset": 3432, "byteLength": 672}, {"buffer": 0, "byteOffset": 4104, "byteLength": 144}, {"buffer": 0, "byteOffset": 4248, "byteLength": 672}, {"buffer": 0, "byteOffset": 4920, "byteLength": 448}, {"buffer": 0, "byteOffset": 5368, "byteLength": 672}, {"buffer": 0, "byteOffset": 6040, "byteLength": 144}], "accessors": [{"bufferView": 0, "byteOffset": 0, "componentType": 5126, "count": 64, "type": "VEC3", "min": [-0.229248046875, 0.0, -0.2646484375], "max": [0.229248046875, 1.667236328125, 0.2646484375]}, {"bufferView": 1, "byteOffset": 0, "componentType": 5126, "count": 64, "type": "VEC2"}, {"bufferView": 2, "byteOffset": 0, "componentType": 5126, "count": 64, "type": "VEC3"}, {"bufferView": 3, "byteOffset": 0, "componentType": 5123, "count": 132, "type": "SCALAR"}, {"bufferView": 4, "byteOffset": 0, "componentType": 5126, "count": 56, "type": "VEC3", "min": [-0.353271484375, 1.48681640625, -0.353271484375], "max": [0.353271484375, 1.998291015625, 0.353271484375]}, {"bufferView": 5, "byteOffset": 0, "componentType": 5126, "count": 56, "type": "VEC2"}, {"bufferView": 6, "byteOffset": 0, "componentType": 5126, "count": 56, "type": "VEC3"}, {"bufferView": 7, "byteOffset": 0, "componentType": 5123, "count": 72, "type": "SCALAR"}, {"bufferView": 8, "byteOffset": 0, "componentType": 5126, "count": 56, "type": "VEC3", "min": [-0.353271484375, 1.48681640625, -0.353271484375], "max": [0.353271484375, 1.998291015625, 0.353271484375]}, {"bufferView": 9, "byteOffset": 0, "componentType": 5126, "count": 56, "type": "VEC2"}, {"bufferView": 10, "byteOffset": 0, "componentType": 5126, "count": 56, "type": "VEC3"}, {"bufferView": 11, "byteOffset": 0, "componentType": 5123, "count": 72, "type": "SCALAR"}], "samplers": [{"magFilter": 9729, "minFilter": 9729, "wrapS": 10497, "wrapT": 10497}]}