{"asset": {"version": "2.0", "generator": "tongari-nsbmd-to-gltf"}, "scene": 0, "scenes": [{"nodes": [0, 1]}], "nodes": [{"name": "code_head21", "translation": [0.0, 1.9716796875, 0.067626953125]}, {"mesh": 0, "name": "code_head21"}], "meshes": [{"name": "code_head21", "primitives": [{"attributes": {"POSITION": 0, "TEXCOORD_0": 1, "NORMAL": 2}, "indices": 3, "mode": 4, "material": 0}]}], "materials": [{"name": "c08_hat21", "pbrMetallicRoughness": {"baseColorFactor": [1.0, 1.0, 1.0, 1.0], "metallicFactor": 0.0, "roughnessFactor": 1.0}, "alphaMode": "OPAQUE", "doubleSided": true}], "buffers": [{"byteLength": 4326, "uri": "data:application/octet-stream;base64,"}], "bufferViews": [{"buffer": 0, "byteOffset": 0, "byteLength": 1476}, {"buffer": 0, "byteOffset": 1476, "byteLength": 984}, {"buffer": 0, "byteOffset": 2460, "byteLength": 1476}, {"buffer": 0, "byteOffset": 3936, "byteLength": 390}], "accessors": [{"bufferView": 0, "byteOffset": 0, "componentType": 5126, "count": 123, "type": "VEC3", "min": [-0.281494140625, 1.7138671875, -0.300048828125], "max": [0.281494140625, 2.14013671875, 0.46337890625]}, {"bufferView": 1, "byteOffset": 0, "componentType": 5126, "count": 123, "type": "VEC2"}, {"bufferView": 2, "byteOffset": 0, "componentType": 5126, "count": 123, "type": "VEC3"}, {"bufferView": 3, "byteOffset": 0, "componentType": 5123, "count": 195, "type": "SCALAR"}], "samplers": [{"magFilter": 9729, "minFilter": 9729, "wrapS": 10497, "wrapT": 10497}]}