{"asset": {"version": "2.0", "generator": "tongari-nsbmd-to-gltf"}, "scene": 0, "scenes": [{"nodes": [0, 2]}], "nodes": [{"name": "item2789e", "translation": [0.0, 0.0, 0.0], "rotation": [-0.707020459171798, 0.010013964989490667, -0.010013964989490667, 0.7070204591717979], "children": [1]}, {"name": "kt_o_pies", "translation": [0.006103515625, -0.14990234375, 0.3095703125], "rotation": [0.2890515276264509, 0.8296345322075558, 0.171488702188154, -0.44582648445311596]}, {"mesh": 0, "name": "2789item2789e"}], "meshes": [{"name": "2789item2789e", "primitives": [{"attributes": {"POSITION": 0, "TEXCOORD_0": 1, "NORMAL": 2}, "indices": 3, "mode": 4, "material": 0}, {"attributes": {"POSITION": 4, "TEXCOORD_0": 5, "NORMAL": 6}, "indices": 7, "mode": 4, "material": 1}]}], "materials": [{"name": "t_o_pies0", "pbrMetallicRoughness": {"baseColorFactor": [0.803921568627451, 0.803921568627451, 0.803921568627451, 1.0], "metallicFactor": 0.0, "roughnessFactor": 1.0}, "alphaMode": "OPAQUE", "doubleSided": true}, {"name": "t_o_pies00", "pbrMetallicRoughness": {"baseColorFactor": [0.803921568627451, 0.803921568627451, 0.803921568627451, 1.0], "metallicFactor": 0.0, "roughnessFactor": 1.0}, "alphaMode": "OPAQUE", "doubleSided": true}], "buffers": [{"byteLength": 4884, "uri": "data:application/octet-stream;base64,"}], "bufferViews": [{"buffer": 0, "byteOffset": 0, "byteLength": 1272}, {"buffer": 0, "byteOffset": 1272, "byteLength": 848}, {"buffer": 0, "byteOffset": 2120, "byteLength": 1272}, {"buffer": 0, "byteOffset": 3392, "byteLength": 324}, {"buffer": 0, "byteOffset": 3716, "byteLength": 384}, {"buffer": 0, "byteOffset": 4100, "byteLength": 256}, {"buffer": 0, "byteOffset": 4356, "byteLength": 384}, {"buffer": 0, "byteOffset": 4740, "byteLength": 144}], "accessors": [{"bufferView": 0, "byteOffset": 0, "componentType": 5126, "count": 106, "type": "VEC3", "min": [-0.41238093344145454, -0.2923616468324326, -0.03490036725997925], "max": [0.41238093344145454, 0.2923616468324326, 0.10010182857513428]}, {"bufferView": 1, "byteOffset": 0, "componentType": 5126, "count": 106, "type": "VEC2"}, {"bufferView": 2, "byteOffset": 0, "componentType": 5126, "count": 106, "type": "VEC3"}, {"bufferView": 3, "byteOffset": 0, "componentType": 5123, "count": 162, "type": "SCALAR"}, {"bufferView": 4, "byteOffset": 0, "componentType": 5126, "count": 32, "type": "VEC3", "min": [-0.3207171384128742, -0.26657911148504354, -0.10010182857513428], "max": [0.3207171384128742, 0.26657911148504354, -0.022996366024017334]}, {"bufferView": 5, "byteOffset": 0, "componentType": 5126, "count": 32, "type": "VEC2"}, {"bufferView": 6, "byteOffset": 0, "componentType": 5126, "count": 32, "type": "VEC3"}, {"bufferView": 7, "byteOffset": 0, "componentType": 5123, "count": 72, "type": "SCALAR"}], "samplers": [{"magFilter": 9729, "minFilter": 9729, "wrapS": 10497, "wrapT": 10497}]}