{"asset": {"version": "2.0", "generator": "tongari-nsbmd-to-gltf"}, "scene": 0, "scenes": [{"nodes": [0, 6]}], "nodes": [{"name": "world_root", "translation": [0.0, 0.0, 0.0], "children": [1, 5]}, {"name": "fish00", "translation": [0.0, 0.0, 0.0], "children": [2]}, {"name": "fish01", "translation": [-0.000244140625, 0.0, -0.003173828125], "rotation": [0.0, 0.0, 0.7071067811865476, 0.0], "children": [3]}, {"name": "fish02", "translation": [0.311767578125, 0.0, 0.0], "rotation": [-0.7071067811865475, -0.0022442353895080853, 0.0022442353895080853, 0.7071067811865476], "children": [4]}, {"name": "fish03", "translation": [0.482177734375, 0.0, 0.00048828125], "rotation": [-0.7071067811865475, -0.00017263349150062194, 0.00017263349150062194, 0.7071067811865476]}, {"name": "fish_05", "translation": [0.0, 0.0, 0.0]}, {"mesh": 0, "name": "4795fish05"}], "meshes": [{"name": "4795fish05", "primitives": [{"attributes": {"POSITION": 0, "TEXCOORD_0": 1, "NORMAL": 2}, "indices": 3, "mode": 4, "material": 0}]}], "materials": [{"name": "Material__8", "pbrMetallicRoughness": {"baseColorFactor": [1.0, 1.0, 1.0, 1.0], "metallicFactor": 0.0, "roughnessFactor": 1.0}, "alphaMode": "OPAQUE", "doubleSided": true}], "buffers": [{"byteLength": 2264, "uri": "data:application/octet-stream;base64,"}], "bufferViews": [{"buffer": 0, "byteOffset": 0, "byteLength": 768}, {"buffer": 0, "byteOffset": 768, "byteLength": 512}, {"buffer": 0, "byteOffset": 1280, "byteLength": 768}, {"buffer": 0, "byteOffset": 2048, "byteLength": 216}], "accessors": [{"bufferView": 0, "byteOffset": 0, "componentType": 5126, "count": 64, "type": "VEC3", "min": [-0.165771484375, -0.08637975360034034, -1.0004132986068726], "max": [0.143798828125, 0.08203125, -0.001708984375]}, {"bufferView": 1, "byteOffset": 0, "componentType": 5126, "count": 64, "type": "VEC2"}, {"bufferView": 2, "byteOffset": 0, "componentType": 5126, "count": 64, "type": "VEC3"}, {"bufferView": 3, "byteOffset": 0, "componentType": 5123, "count": 108, "type": "SCALAR"}], "samplers": [{"magFilter": 9729, "minFilter": 9729, "wrapS": 10497, "wrapT": 10497}]}