{"asset": {"version": "2.0", "generator": "tongari-nsbmd-to-gltf"}, "scene": 0, "scenes": [{"nodes": [0, 3]}], "nodes": [{"name": "root", "translation": [0.0, 0.0, 0.0], "children": [1, 2]}, {"name": "bone_l", "translation": [0.594970703125, 0.800048828125, 0.330078125], "rotation": [-0.705378333768482, 0.04932110528067158, 0.705378333768482, -0.04932110528067158]}, {"name": "bone_r", "translation": [-0.594970703125, 0.800048828125, 0.330078125], "rotation": [-0.705378333768482, -0.04932110528067158, 0.705378333768482, 0.04932110528067158]}, {"mesh": 0, "name": "3692kg_ko_cl0"}], "meshes": [{"name": "3692kg_ko_cl0", "primitives": [{"attributes": {"POSITION": 0, "TEXCOORD_0": 1, "NORMAL": 2}, "indices": 3, "mode": 4, "material": 0}, {"attributes": {"POSITION": 4, "TEXCOORD_0": 5, "NORMAL": 6}, "indices": 7, "mode": 4, "material": 2}, {"attributes": {"POSITION": 8, "TEXCOORD_0": 9, "NORMAL": 10}, "indices": 11, "mode": 4, "material": 1}]}], "materials": [{"name": "ko_cl0_0", "pbrMetallicRoughness": {"baseColorFactor": [1.0, 1.0, 1.0, 1.0], "metallicFactor": 0.0, "roughnessFactor": 1.0}, "alphaMode": "OPAQUE", "doubleSided": true}, {"name": "ko_cl0_1", "pbrMetallicRoughness": {"baseColorFactor": [1.0, 1.0, 1.0, 1.0], "metallicFactor": 0.0, "roughnessFactor": 1.0}, "alphaMode": "OPAQUE", "doubleSided": true}, {"name": "ko_cl0_2", "pbrMetallicRoughness": {"baseColorFactor": [1.0, 1.0, 1.0, 1.0], "metallicFactor": 0.0, "roughnessFactor": 1.0}, "alphaMode": "OPAQUE", "doubleSided": true}], "buffers": [{"byteLength": 3408, "uri": "data:application/octet-stream;base64,"}], "bufferViews": [{"buffer": 0, "byteOffset": 0, "byteLength": 288}, {"buffer": 0, "byteOffset": 288, "byteLength": 192}, {"buffer": 0, "byteOffset": 480, "byteLength": 288}, {"buffer": 0, "byteOffset": 768, "byteLength": 72}, {"buffer": 0, "byteOffset": 840, "byteLength": 432}, {"buffer": 0, "byteOffset": 1272, "byteLength": 288}, {"buffer": 0, "byteOffset": 1560, "byteLength": 432}, {"buffer": 0, "byteOffset": 1992, "byteLength": 108}, {"buffer": 0, "byteOffset": 2100, "byteLength": 432}, {"buffer": 0, "byteOffset": 2532, "byteLength": 288}, {"buffer": 0, "byteOffset": 2820, "byteLength": 432}, {"buffer": 0, "byteOffset": 3252, "byteLength": 156}], "accessors": [{"bufferView": 0, "byteOffset": 0, "componentType": 5126, "count": 24, "type": "VEC3", "min": [-0.6943359375, -0.664794921875, -0.3779296875], "max": [0.67822265625, 1.403530478477478, 0.43192267417907715]}, {"bufferView": 1, "byteOffset": 0, "componentType": 5126, "count": 24, "type": "VEC2"}, {"bufferView": 2, "byteOffset": 0, "componentType": 5126, "count": 24, "type": "VEC3"}, {"bufferView": 3, "byteOffset": 0, "componentType": 5123, "count": 36, "type": "SCALAR"}, {"bufferView": 4, "byteOffset": 0, "componentType": 5126, "count": 36, "type": "VEC3", "min": [-0.72705078125, 0.04512214660644531, -0.3779296875], "max": [0.72705078125, 1.99658203125, 1.110146403312683]}, {"bufferView": 5, "byteOffset": 0, "componentType": 5126, "count": 36, "type": "VEC2"}, {"bufferView": 6, "byteOffset": 0, "componentType": 5126, "count": 36, "type": "VEC3"}, {"bufferView": 7, "byteOffset": 0, "componentType": 5123, "count": 54, "type": "SCALAR"}, {"bufferView": 8, "byteOffset": 0, "componentType": 5126, "count": 36, "type": "VEC3", "min": [-0.72705078125, 0.0, -0.4189453125], "max": [0.72705078125, 1.99658203125, 0.3720703125]}, {"bufferView": 9, "byteOffset": 0, "componentType": 5126, "count": 36, "type": "VEC2"}, {"bufferView": 10, "byteOffset": 0, "componentType": 5126, "count": 36, "type": "VEC3"}, {"bufferView": 11, "byteOffset": 0, "componentType": 5123, "count": 78, "type": "SCALAR"}], "samplers": [{"magFilter": 9729, "minFilter": 9729, "wrapS": 10497, "wrapT": 10497}]}