{"asset": {"version": "2.0", "generator": "tongari-nsbmd-to-gltf"}, "scene": 0, "scenes": [{"nodes": [0, 1]}], "nodes": [{"name": "kg_16_ta0", "translation": [0.0, 0.0, 0.0]}, {"mesh": 0, "name": "3605kg_16_ta0"}], "meshes": [{"name": "3605kg_16_ta0", "primitives": [{"attributes": {"POSITION": 0, "TEXCOORD_0": 1, "NORMAL": 2}, "indices": 3, "mode": 4, "material": 1}, {"attributes": {"POSITION": 4, "TEXCOORD_0": 5, "NORMAL": 6}, "indices": 7, "mode": 4, "material": 0}]}], "materials": [{"name": "ta_mat_160", "pbrMetallicRoughness": {"baseColorFactor": [1.0, 1.0, 1.0, 1.0], "metallicFactor": 0.0, "roughnessFactor": 1.0}, "alphaMode": "OPAQUE", "doubleSided": true}, {"name": "ta_mat_161", "pbrMetallicRoughness": {"baseColorFactor": [1.0, 1.0, 1.0, 1.0], "metallicFactor": 0.0, "roughnessFactor": 1.0}, "alphaMode": "OPAQUE", "doubleSided": true}], "buffers": [{"byteLength": 3672, "uri": "data:application/octet-stream;base64,"}], "bufferViews": [{"buffer": 0, "byteOffset": 0, "byteLength": 816}, {"buffer": 0, "byteOffset": 816, "byteLength": 544}, {"buffer": 0, "byteOffset": 1360, "byteLength": 816}, {"buffer": 0, "byteOffset": 2176, "byteLength": 288}, {"buffer": 0, "byteOffset": 2464, "byteLength": 408}, {"buffer": 0, "byteOffset": 2872, "byteLength": 272}, {"buffer": 0, "byteOffset": 3144, "byteLength": 408}, {"buffer": 0, "byteOffset": 3552, "byteLength": 120}], "accessors": [{"bufferView": 0, "byteOffset": 0, "componentType": 5126, "count": 68, "type": "VEC3", "min": [-1.49853515625, 0.027587890625, -1.94970703125], "max": [0.49853515625, 0.75, -0.05029296875]}, {"bufferView": 1, "byteOffset": 0, "componentType": 5126, "count": 68, "type": "VEC2"}, {"bufferView": 2, "byteOffset": 0, "componentType": 5126, "count": 68, "type": "VEC3"}, {"bufferView": 3, "byteOffset": 0, "componentType": 5123, "count": 144, "type": "SCALAR"}, {"bufferView": 4, "byteOffset": 0, "componentType": 5126, "count": 34, "type": "VEC3", "min": [-1.49853515625, 0.0, -1.94970703125], "max": [0.49853515625, 0.75, -0.05029296875]}, {"bufferView": 5, "byteOffset": 0, "componentType": 5126, "count": 34, "type": "VEC2"}, {"bufferView": 6, "byteOffset": 0, "componentType": 5126, "count": 34, "type": "VEC3"}, {"bufferView": 7, "byteOffset": 0, "componentType": 5123, "count": 60, "type": "SCALAR"}], "samplers": [{"magFilter": 9729, "minFilter": 9729, "wrapS": 10497, "wrapT": 10497}]}