{"asset": {"version": "2.0", "generator": "tongari-nsbmd-to-gltf"}, "scene": 0, "scenes": [{"nodes": [0, 2]}], "nodes": [{"name": "root", "translation": [0.0, 0.0, 0.0], "children": [1]}, {"name": "hatch", "translation": [0.0, 0.1884765625, -0.18359375]}, {"mesh": 0, "name": "3671kg_ga_ob0"}], "meshes": [{"name": "3671kg_ga_ob0", "primitives": [{"attributes": {"POSITION": 0, "TEXCOORD_0": 1, "NORMAL": 2}, "indices": 3, "mode": 4, "material": 1}, {"attributes": {"POSITION": 4, "TEXCOORD_0": 5, "NORMAL": 6}, "indices": 7, "mode": 4, "material": 0}, {"attributes": {"POSITION": 8, "TEXCOORD_0": 9, "NORMAL": 10}, "indices": 11, "mode": 4, "material": 2}]}], "materials": [{"name": "kg_ga_ob0_0", "pbrMetallicRoughness": {"baseColorFactor": [1.0, 1.0, 1.0, 1.0], "metallicFactor": 0.0, "roughnessFactor": 1.0}, "alphaMode": "OPAQUE", "doubleSided": true}, {"name": "kg_ga_ob0_1", "pbrMetallicRoughness": {"baseColorFactor": [1.0, 1.0, 1.0, 1.0], "metallicFactor": 0.0, "roughnessFactor": 1.0}, "alphaMode": "OPAQUE", "doubleSided": true}, {"name": "kg_ga_ob0_2", "pbrMetallicRoughness": {"baseColorFactor": [1.0, 1.0, 1.0, 1.0], "metallicFactor": 0.0, "roughnessFactor": 1.0}, "alphaMode": "OPAQUE", "doubleSided": true}], "buffers": [{"byteLength": 4176, "uri": "data:application/octet-stream;base64,"}], "bufferViews": [{"buffer": 0, "byteOffset": 0, "byteLength": 624}, {"buffer": 0, "byteOffset": 624, "byteLength": 416}, {"buffer": 0, "byteOffset": 1040, "byteLength": 624}, {"buffer": 0, "byteOffset": 1664, "byteLength": 156}, {"buffer": 0, "byteOffset": 1820, "byteLength": 444}, {"buffer": 0, "byteOffset": 2264, "byteLength": 296}, {"buffer": 0, "byteOffset": 2560, "byteLength": 444}, {"buffer": 0, "byteOffset": 3004, "byteLength": 114}, {"buffer": 0, "byteOffset": 3120, "byteLength": 360}, {"buffer": 0, "byteOffset": 3480, "byteLength": 240}, {"buffer": 0, "byteOffset": 3720, "byteLength": 360}, {"buffer": 0, "byteOffset": 4080, "byteLength": 96}], "accessors": [{"bufferView": 0, "byteOffset": 0, "componentType": 5126, "count": 52, "type": "VEC3", "min": [-0.402099609375, 0.0, -0.456298828125], "max": [0.402099609375, 0.699951171875, 0.385498046875]}, {"bufferView": 1, "byteOffset": 0, "componentType": 5126, "count": 52, "type": "VEC2"}, {"bufferView": 2, "byteOffset": 0, "componentType": 5126, "count": 52, "type": "VEC3"}, {"bufferView": 3, "byteOffset": 0, "componentType": 5123, "count": 78, "type": "SCALAR"}, {"bufferView": 4, "byteOffset": 0, "componentType": 5126, "count": 37, "type": "VEC3", "min": [-0.423828125, 0.1455078125, -0.3505859375], "max": [0.39404296875, 0.692626953125, 0.07470703125]}, {"bufferView": 5, "byteOffset": 0, "componentType": 5126, "count": 37, "type": "VEC2"}, {"bufferView": 6, "byteOffset": 0, "componentType": 5126, "count": 37, "type": "VEC3"}, {"bufferView": 7, "byteOffset": 0, "componentType": 5123, "count": 57, "type": "SCALAR"}, {"bufferView": 8, "byteOffset": 0, "componentType": 5126, "count": 30, "type": "VEC3", "min": [-0.42333984375, -0.03857421875, -0.27392578125], "max": [0.42333984375, 0.5400390625, 0.454345703125]}, {"bufferView": 9, "byteOffset": 0, "componentType": 5126, "count": 30, "type": "VEC2"}, {"bufferView": 10, "byteOffset": 0, "componentType": 5126, "count": 30, "type": "VEC3"}, {"bufferView": 11, "byteOffset": 0, "componentType": 5123, "count": 48, "type": "SCALAR"}], "samplers": [{"magFilter": 9729, "minFilter": 9729, "wrapS": 10497, "wrapT": 10497}]}