{"asset": {"version": "2.0", "generator": "tongari-nsbmd-to-gltf"}, "scene": 0, "scenes": [{"nodes": [0, 1]}], "nodes": [{"name": "imig09_01", "translation": [0.0, 0.0, 0.0]}, {"mesh": 0, "name": "3312IMIG09_01"}], "meshes": [{"name": "3312IMIG09_01", "primitives": [{"attributes": {"POSITION": 0, "TEXCOORD_0": 1, "NORMAL": 2}, "indices": 3, "mode": 4, "material": 1}, {"attributes": {"POSITION": 4, "TEXCOORD_0": 5, "NORMAL": 6}, "indices": 7, "mode": 4, "material": 0}, {"attributes": {"POSITION": 8, "TEXCOORD_0": 9, "NORMAL": 10}, "indices": 11, "mode": 4, "material": 3}, {"attributes": {"POSITION": 12, "TEXCOORD_0": 13, "NORMAL": 14}, "indices": 15, "mode": 4, "material": 2}]}], "materials": [{"name": "imig09_01_0", "pbrMetallicRoughness": {"baseColorFactor": [1.0, 1.0, 1.0, 1.0], "metallicFactor": 0.0, "roughnessFactor": 1.0}, "alphaMode": "OPAQUE", "doubleSided": true}, {"name": "imig09_01_1", "pbrMetallicRoughness": {"baseColorFactor": [1.0, 1.0, 1.0, 1.0], "metallicFactor": 0.0, "roughnessFactor": 1.0}, "alphaMode": "OPAQUE", "doubleSided": true}, {"name": "imig09_01_2", "pbrMetallicRoughness": {"baseColorFactor": [1.0, 1.0, 1.0, 1.0], "metallicFactor": 0.0, "roughnessFactor": 1.0}, "alphaMode": "OPAQUE", "doubleSided": true}, {"name": "imig09_01_3", "pbrMetallicRoughness": {"baseColorFactor": [1.0, 1.0, 1.0, 1.0], "metallicFactor": 0.0, "roughnessFactor": 1.0}, "alphaMode": "OPAQUE", "doubleSided": true}], "buffers": [{"byteLength": 4200, "uri": "data:application/octet-stream;base64,"}], "bufferViews": [{"buffer": 0, "byteOffset": 0, "byteLength": 288}, {"buffer": 0, "byteOffset": 288, "byteLength": 192}, {"buffer": 0, "byteOffset": 480, "byteLength": 288}, {"buffer": 0, "byteOffset": 768, "byteLength": 72}, {"buffer": 0, "byteOffset": 840, "byteLength": 96}, {"buffer": 0, "byteOffset": 936, "byteLength": 64}, {"buffer": 0, "byteOffset": 1000, "byteLength": 96}, {"buffer": 0, "byteOffset": 1096, "byteLength": 24}, {"buffer": 0, "byteOffset": 1120, "byteLength": 960}, {"buffer": 0, "byteOffset": 2080, "byteLength": 640}, {"buffer": 0, "byteOffset": 2720, "byteLength": 960}, {"buffer": 0, "byteOffset": 3680, "byteLength": 240}, {"buffer": 0, "byteOffset": 3920, "byteLength": 96}, {"buffer": 0, "byteOffset": 4016, "byteLength": 64}, {"buffer": 0, "byteOffset": 4080, "byteLength": 96}, {"buffer": 0, "byteOffset": 4176, "byteLength": 24}], "accessors": [{"bufferView": 0, "byteOffset": 0, "componentType": 5126, "count": 24, "type": "VEC3", "min": [-0.4736328125, 0.0, -0.4736328125], "max": [0.4736328125, 0.75, 0.4736328125]}, {"bufferView": 1, "byteOffset": 0, "componentType": 5126, "count": 24, "type": "VEC2"}, {"bufferView": 2, "byteOffset": 0, "componentType": 5126, "count": 24, "type": "VEC3"}, {"bufferView": 3, "byteOffset": 0, "componentType": 5123, "count": 36, "type": "SCALAR"}, {"bufferView": 4, "byteOffset": 0, "componentType": 5126, "count": 8, "type": "VEC3", "min": [-0.416259765625, 0.250732421875, -0.354736328125], "max": [0.416259765625, 0.6708984375, 0.354736328125]}, {"bufferView": 5, "byteOffset": 0, "componentType": 5126, "count": 8, "type": "VEC2"}, {"bufferView": 6, "byteOffset": 0, "componentType": 5126, "count": 8, "type": "VEC3"}, {"bufferView": 7, "byteOffset": 0, "componentType": 5123, "count": 12, "type": "SCALAR"}, {"bufferView": 8, "byteOffset": 0, "componentType": 5126, "count": 80, "type": "VEC3", "min": [-0.416259765625, 0.11279296875, -0.354736328125], "max": [0.416259765625, 0.75, 0.354736328125]}, {"bufferView": 9, "byteOffset": 0, "componentType": 5126, "count": 80, "type": "VEC2"}, {"bufferView": 10, "byteOffset": 0, "componentType": 5126, "count": 80, "type": "VEC3"}, {"bufferView": 11, "byteOffset": 0, "componentType": 5123, "count": 120, "type": "SCALAR"}, {"bufferView": 12, "byteOffset": 0, "componentType": 5126, "count": 8, "type": "VEC3", "min": [-0.416259765625, 0.250732421875, -0.354736328125], "max": [0.416259765625, 0.6708984375, 0.354736328125]}, {"bufferView": 13, "byteOffset": 0, "componentType": 5126, "count": 8, "type": "VEC2"}, {"bufferView": 14, "byteOffset": 0, "componentType": 5126, "count": 8, "type": "VEC3"}, {"bufferView": 15, "byteOffset": 0, "componentType": 5123, "count": 12, "type": "SCALAR"}], "samplers": [{"magFilter": 9729, "minFilter": 9729, "wrapS": 10497, "wrapT": 10497}]}