{"asset": {"version": "2.0", "generator": "tongari-nsbmd-to-gltf"}, "scene": 0, "scenes": [{"nodes": [0, 1]}], "nodes": [{"name": "kg_case_19", "translation": [0.0, 0.0, 0.0]}, {"mesh": 0, "name": "3652kg_case_19"}], "meshes": [{"name": "3652kg_case_19", "primitives": [{"attributes": {"POSITION": 0, "TEXCOORD_0": 1, "NORMAL": 2}, "indices": 3, "mode": 4, "material": 2}, {"attributes": {"POSITION": 4, "TEXCOORD_0": 5, "NORMAL": 6}, "indices": 7, "mode": 4, "material": 1}, {"attributes": {"POSITION": 8, "TEXCOORD_0": 9, "NORMAL": 10}, "indices": 11, "mode": 4, "material": 0}]}], "materials": [{"name": "case_19_0", "pbrMetallicRoughness": {"baseColorFactor": [1.0, 1.0, 1.0, 1.0], "metallicFactor": 0.0, "roughnessFactor": 1.0}, "alphaMode": "OPAQUE", "doubleSided": true}, {"name": "case_19_1", "pbrMetallicRoughness": {"baseColorFactor": [1.0, 1.0, 1.0, 1.0], "metallicFactor": 0.0, "roughnessFactor": 1.0}, "alphaMode": "OPAQUE", "doubleSided": true}, {"name": "case_19_2", "pbrMetallicRoughness": {"baseColorFactor": [1.0, 1.0, 1.0, 1.0], "metallicFactor": 0.0, "roughnessFactor": 1.0}, "alphaMode": "OPAQUE", "doubleSided": true}], "buffers": [{"byteLength": 2640, "uri": "data:application/octet-stream;base64,"}], "bufferViews": [{"buffer": 0, "byteOffset": 0, "byteLength": 432}, {"buffer": 0, "byteOffset": 432, "byteLength": 288}, {"buffer": 0, "byteOffset": 720, "byteLength": 432}, {"buffer": 0, "byteOffset": 1152, "byteLength": 192}, {"buffer": 0, "byteOffset": 1344, "byteLength": 288}, {"buffer": 0, "byteOffset": 1632, "byteLength": 192}, {"buffer": 0, "byteOffset": 1824, "byteLength": 288}, {"buffer": 0, "byteOffset": 2112, "byteLength": 96}, {"buffer": 0, "byteOffset": 2208, "byteLength": 144}, {"buffer": 0, "byteOffset": 2352, "byteLength": 96}, {"buffer": 0, "byteOffset": 2448, "byteLength": 144}, {"buffer": 0, "byteOffset": 2592, "byteLength": 48}], "accessors": [{"bufferView": 0, "byteOffset": 0, "componentType": 5126, "count": 36, "type": "VEC3", "min": [-1.0, 0.179931640625, -0.5], "max": [1.0, 0.43994140625, 0.5]}, {"bufferView": 1, "byteOffset": 0, "componentType": 5126, "count": 36, "type": "VEC2"}, {"bufferView": 2, "byteOffset": 0, "componentType": 5126, "count": 36, "type": "VEC3"}, {"bufferView": 3, "byteOffset": 0, "componentType": 5123, "count": 96, "type": "SCALAR"}, {"bufferView": 4, "byteOffset": 0, "componentType": 5126, "count": 24, "type": "VEC3", "min": [-1.0, 0.0, -0.5], "max": [1.0, 0.43994140625, 0.5]}, {"bufferView": 5, "byteOffset": 0, "componentType": 5126, "count": 24, "type": "VEC2"}, {"bufferView": 6, "byteOffset": 0, "componentType": 5126, "count": 24, "type": "VEC3"}, {"bufferView": 7, "byteOffset": 0, "componentType": 5123, "count": 48, "type": "SCALAR"}, {"bufferView": 8, "byteOffset": 0, "componentType": 5126, "count": 12, "type": "VEC3", "min": [-1.0, 0.43994140625, -0.5], "max": [1.0, 0.43994140625, 0.5]}, {"bufferView": 9, "byteOffset": 0, "componentType": 5126, "count": 12, "type": "VEC2"}, {"bufferView": 10, "byteOffset": 0, "componentType": 5126, "count": 12, "type": "VEC3"}, {"bufferView": 11, "byteOffset": 0, "componentType": 5123, "count": 24, "type": "SCALAR"}], "samplers": [{"magFilter": 9729, "minFilter": 9729, "wrapS": 10497, "wrapT": 10497}]}