{"asset": {"version": "2.0", "generator": "tongari-nsbmd-to-gltf"}, "scene": 0, "scenes": [{"nodes": [0, 1]}], "nodes": [{"name": "sh_m03_c04", "translation": [0.0, 0.0, 0.0]}, {"mesh": 0, "name": "sh_m03_c04"}], "meshes": [{"name": "sh_m03_c04", "primitives": [{"attributes": {"POSITION": 0, "TEXCOORD_0": 1, "NORMAL": 2}, "indices": 3, "mode": 4, "material": 3}, {"attributes": {"POSITION": 4, "TEXCOORD_0": 5, "NORMAL": 6}, "indices": 7, "mode": 4, "material": 1}, {"attributes": {"POSITION": 8, "TEXCOORD_0": 9, "NORMAL": 10}, "indices": 11, "mode": 4, "material": 0}, {"attributes": {"POSITION": 12, "TEXCOORD_0": 13, "NORMAL": 14}, "indices": 15, "mode": 4, "material": 2}]}], "materials": [{"name": "sh_t05c_0", "pbrMetallicRoughness": {"baseColorFactor": [0.803921568627451, 0.803921568627451, 0.803921568627451, 1.0], "metallicFactor": 0.0, "roughnessFactor": 1.0}, "alphaMode": "OPAQUE", "doubleSided": true}, {"name": "sh_t05c_1", "pbrMetallicRoughness": {"baseColorFactor": [0.803921568627451, 0.803921568627451, 0.803921568627451, 1.0], "metallicFactor": 0.0, "roughnessFactor": 1.0}, "alphaMode": "OPAQUE", "doubleSided": true}, {"name": "sh_t05c_2", "pbrMetallicRoughness": {"baseColorFactor": [0.803921568627451, 0.803921568627451, 0.803921568627451, 1.0], "metallicFactor": 0.0, "roughnessFactor": 1.0}, "alphaMode": "OPAQUE", "doubleSided": true}, {"name": "sh_t05c_3", "pbrMetallicRoughness": {"baseColorFactor": [0.803921568627451, 0.803921568627451, 0.803921568627451, 1.0], "metallicFactor": 0.0, "roughnessFactor": 1.0}, "alphaMode": "OPAQUE", "doubleSided": true}], "buffers": [{"byteLength": 5128, "uri": "data:application/octet-stream;base64,"}], "bufferViews": [{"buffer": 0, "byteOffset": 0, "byteLength": 192}, {"buffer": 0, "byteOffset": 192, "byteLength": 128}, {"buffer": 0, "byteOffset": 320, "byteLength": 192}, {"buffer": 0, "byteOffset": 512, "byteLength": 48}, {"buffer": 0, "byteOffset": 560, "byteLength": 960}, {"buffer": 0, "byteOffset": 1520, "byteLength": 640}, {"buffer": 0, "byteOffset": 2160, "byteLength": 960}, {"buffer": 0, "byteOffset": 3120, "byteLength": 252}, {"buffer": 0, "byteOffset": 3372, "byteLength": 264}, {"buffer": 0, "byteOffset": 3636, "byteLength": 176}, {"buffer": 0, "byteOffset": 3812, "byteLength": 264}, {"buffer": 0, "byteOffset": 4076, "byteLength": 72}, {"buffer": 0, "byteOffset": 4148, "byteLength": 336}, {"buffer": 0, "byteOffset": 4484, "byteLength": 224}, {"buffer": 0, "byteOffset": 4708, "byteLength": 336}, {"buffer": 0, "byteOffset": 5044, "byteLength": 84}], "accessors": [{"bufferView": 0, "byteOffset": 0, "componentType": 5126, "count": 16, "type": "VEC3", "min": [2.2353515625, 0.02392578125, 4.76171875], "max": [5.7646484375, 0.482177734375, 4.76171875]}, {"bufferView": 1, "byteOffset": 0, "componentType": 5126, "count": 16, "type": "VEC2"}, {"bufferView": 2, "byteOffset": 0, "componentType": 5126, "count": 16, "type": "VEC3"}, {"bufferView": 3, "byteOffset": 0, "componentType": 5123, "count": 24, "type": "SCALAR"}, {"bufferView": 4, "byteOffset": 0, "componentType": 5126, "count": 80, "type": "VEC3", "min": [0.800048828125, 0.583251953125, 4.0], "max": [7.0, 0.735107421875, 4.89990234375]}, {"bufferView": 5, "byteOffset": 0, "componentType": 5126, "count": 80, "type": "VEC2"}, {"bufferView": 6, "byteOffset": 0, "componentType": 5126, "count": 80, "type": "VEC3"}, {"bufferView": 7, "byteOffset": 0, "componentType": 5123, "count": 126, "type": "SCALAR"}, {"bufferView": 8, "byteOffset": 0, "componentType": 5126, "count": 22, "type": "VEC3", "min": [1.0, 0.735107421875, 4.199951171875], "max": [6.800048828125, 0.735107421875, 4.699951171875]}, {"bufferView": 9, "byteOffset": 0, "componentType": 5126, "count": 22, "type": "VEC2"}, {"bufferView": 10, "byteOffset": 0, "componentType": 5126, "count": 22, "type": "VEC3"}, {"bufferView": 11, "byteOffset": 0, "componentType": 5123, "count": 36, "type": "SCALAR"}, {"bufferView": 12, "byteOffset": 0, "componentType": 5126, "count": 28, "type": "VEC3", "min": [0.89990234375, 0.0, 4.179931640625], "max": [6.89990234375, 0.7060546875, 4.717041015625]}, {"bufferView": 13, "byteOffset": 0, "componentType": 5126, "count": 28, "type": "VEC2"}, {"bufferView": 14, "byteOffset": 0, "componentType": 5126, "count": 28, "type": "VEC3"}, {"bufferView": 15, "byteOffset": 0, "componentType": 5123, "count": 42, "type": "SCALAR"}], "samplers": [{"magFilter": 9729, "minFilter": 9729, "wrapS": 10497, "wrapT": 10497}]}