{"asset": {"version": "2.0", "generator": "tongari-nsbmd-to-gltf"}, "scene": 0, "scenes": [{"nodes": [0, 1]}], "nodes": [{"name": "sc_ga_mon13", "translation": [0.0, 0.0, 0.0]}, {"mesh": 0, "name": "sc_ga_mon13"}], "meshes": [{"name": "sc_ga_mon13", "primitives": [{"attributes": {"POSITION": 0, "TEXCOORD_0": 1, "NORMAL": 2}, "indices": 3, "mode": 4, "material": 1}, {"attributes": {"POSITION": 4, "TEXCOORD_0": 5, "NORMAL": 6}, "indices": 7, "mode": 4, "material": 0}]}], "materials": [{"name": "sc_ga_kb_01", "pbrMetallicRoughness": {"baseColorFactor": [1.0, 1.0, 1.0, 1.0], "metallicFactor": 0.0, "roughnessFactor": 1.0}, "alphaMode": "OPAQUE", "doubleSided": true}, {"name": "sc_ga_ks_01", "pbrMetallicRoughness": {"baseColorFactor": [1.0, 1.0, 1.0, 1.0], "metallicFactor": 0.0, "roughnessFactor": 1.0}, "alphaMode": "OPAQUE", "doubleSided": true}], "buffers": [{"byteLength": 7000, "uri": "data:application/octet-stream;base64,"}], "bufferViews": [{"buffer": 0, "byteOffset": 0, "byteLength": 144}, {"buffer": 0, "byteOffset": 144, "byteLength": 96}, {"buffer": 0, "byteOffset": 240, "byteLength": 144}, {"buffer": 0, "byteOffset": 384, "byteLength": 36}, {"buffer": 0, "byteOffset": 420, "byteLength": 2256}, {"buffer": 0, "byteOffset": 2676, "byteLength": 1504}, {"buffer": 0, "byteOffset": 4180, "byteLength": 2256}, {"buffer": 0, "byteOffset": 6436, "byteLength": 564}], "accessors": [{"bufferView": 0, "byteOffset": 0, "componentType": 5126, "count": 12, "type": "VEC3", "min": [-1.5, 1.047119140625, -2.408203125], "max": [1.82763671875, 1.487060546875, 0.175048828125]}, {"bufferView": 1, "byteOffset": 0, "componentType": 5126, "count": 12, "type": "VEC2"}, {"bufferView": 2, "byteOffset": 0, "componentType": 5126, "count": 12, "type": "VEC3"}, {"bufferView": 3, "byteOffset": 0, "componentType": 5123, "count": 18, "type": "SCALAR"}, {"bufferView": 4, "byteOffset": 0, "componentType": 5126, "count": 188, "type": "VEC3", "min": [-1.5, 0.0, -2.71435546875], "max": [2.06640625, 1.431884765625, 0.413330078125]}, {"bufferView": 5, "byteOffset": 0, "componentType": 5126, "count": 188, "type": "VEC2"}, {"bufferView": 6, "byteOffset": 0, "componentType": 5126, "count": 188, "type": "VEC3"}, {"bufferView": 7, "byteOffset": 0, "componentType": 5123, "count": 282, "type": "SCALAR"}], "samplers": [{"magFilter": 9729, "minFilter": 9729, "wrapS": 10497, "wrapT": 10497}]}