{"asset": {"version": "2.0", "generator": "tongari-nsbmd-to-gltf"}, "scene": 0, "scenes": [{"nodes": [0, 5]}], "nodes": [{"name": "group2", "translation": [0.0, 0.0, 0.0], "children": [1]}, {"name": "group1", "translation": [0.0, 0.0, 0.0], "children": [2]}, {"name": "bone00", "translation": [0.0, 0.0, 0.0], "children": [3]}, {"name": "bone01", "translation": [0.0, 0.0, -0.6806640625], "children": [4]}, {"name": "bone02", "translation": [0.0, 0.0, -0.579345703125]}, {"mesh": 0, "name": "4872fish82d"}], "meshes": [{"name": "4872fish82d", "primitives": [{"attributes": {"POSITION": 0, "TEXCOORD_0": 1, "NORMAL": 2}, "indices": 3, "mode": 4, "material": 0}]}], "materials": [{"name": "fish82_fish82", "pbrMetallicRoughness": {"baseColorFactor": [1.0, 1.0, 1.0, 1.0], "metallicFactor": 0.0, "roughnessFactor": 1.0}, "alphaMode": "OPAQUE", "doubleSided": true}], "buffers": [{"byteLength": 2112, "uri": "data:application/octet-stream;base64,"}], "bufferViews": [{"buffer": 0, "byteOffset": 0, "byteLength": 720}, {"buffer": 0, "byteOffset": 720, "byteLength": 480}, {"buffer": 0, "byteOffset": 1200, "byteLength": 720}, {"buffer": 0, "byteOffset": 1920, "byteLength": 192}], "accessors": [{"bufferView": 0, "byteOffset": 0, "componentType": 5126, "count": 60, "type": "VEC3", "min": [-0.097412109375, -0.193359375, -0.4423828125], "max": [0.097412109375, 0.253662109375, 0.001220703125]}, {"bufferView": 1, "byteOffset": 0, "componentType": 5126, "count": 60, "type": "VEC2"}, {"bufferView": 2, "byteOffset": 0, "componentType": 5126, "count": 60, "type": "VEC3"}, {"bufferView": 3, "byteOffset": 0, "componentType": 5123, "count": 96, "type": "SCALAR"}], "samplers": [{"magFilter": 9729, "minFilter": 9729, "wrapS": 10497, "wrapT": 10497}]}