{"asset": {"version": "2.0", "generator": "tongari-nsbmd-to-gltf"}, "scene": 0, "scenes": [{"nodes": [0, 3]}], "nodes": [{"name": "ucc_mis_pie0", "translation": [0.0, 0.0, 0.0], "children": [1, 2]}, {"name": "topping6", "translation": [-0.004638671875, 0.073486328125, 0.017822265625]}, {"name": "topping7", "translation": [0.0048828125, 0.073486328125, -0.02587890625]}, {"mesh": 0, "name": "1148ucc_mis_pie0"}], "meshes": [{"name": "1148ucc_mis_pie0", "primitives": [{"attributes": {"POSITION": 0, "TEXCOORD_0": 1, "NORMAL": 2}, "indices": 3, "mode": 4, "material": 0}, {"attributes": {"POSITION": 4, "TEXCOORD_0": 5, "NORMAL": 6}, "indices": 7, "mode": 4, "material": 1}, {"attributes": {"POSITION": 8, "TEXCOORD_0": 9, "NORMAL": 10}, "indices": 11, "mode": 4, "material": 0}, {"attributes": {"POSITION": 12, "TEXCOORD_0": 13, "NORMAL": 14}, "indices": 15, "mode": 4, "material": 0}, {"attributes": {"POSITION": 16, "TEXCOORD_0": 17, "NORMAL": 18}, "indices": 19, "mode": 4, "material": 3}, {"attributes": {"POSITION": 20, "TEXCOORD_0": 21, "NORMAL": 22}, "indices": 23, "mode": 4, "material": 2}]}], "materials": [{"name": "t_o_pies0", "pbrMetallicRoughness": {"baseColorFactor": [0.803921568627451, 0.803921568627451, 0.803921568627451, 1.0], "metallicFactor": 0.0, "roughnessFactor": 1.0}, "alphaMode": "OPAQUE", "doubleSided": true}, {"name": "ucc_mis_mf3", "pbrMetallicRoughness": {"baseColorFactor": [0.803921568627451, 0.803921568627451, 0.803921568627451, 1.0], "metallicFactor": 0.0, "roughnessFactor": 1.0}, "alphaMode": "OPAQUE", "doubleSided": true}, {"name": "ucc_top00", "pbrMetallicRoughness": {"baseColorFactor": [0.803921568627451, 0.803921568627451, 0.803921568627451, 1.0], "metallicFactor": 0.0, "roughnessFactor": 1.0}, "alphaMode": "OPAQUE", "doubleSided": true}, {"name": "ucc_top01", "pbrMetallicRoughness": {"baseColorFactor": [0.803921568627451, 0.803921568627451, 0.803921568627451, 1.0], "metallicFactor": 0.0, "roughnessFactor": 1.0}, "alphaMode": "OPAQUE", "doubleSided": true}], "buffers": [{"byteLength": 5232, "uri": "data:application/octet-stream;base64,"}], "bufferViews": [{"buffer": 0, "byteOffset": 0, "byteLength": 108}, {"buffer": 0, "byteOffset": 108, "byteLength": 72}, {"buffer": 0, "byteOffset": 180, "byteLength": 108}, {"buffer": 0, "byteOffset": 288, "byteLength": 30}, {"buffer": 0, "byteOffset": 320, "byteLength": 384}, {"buffer": 0, "byteOffset": 704, "byteLength": 256}, {"buffer": 0, "byteOffset": 960, "byteLength": 384}, {"buffer": 0, "byteOffset": 1344, "byteLength": 144}, {"buffer": 0, "byteOffset": 1488, "byteLength": 72}, {"buffer": 0, "byteOffset": 1560, "byteLength": 48}, {"buffer": 0, "byteOffset": 1608, "byteLength": 72}, {"buffer": 0, "byteOffset": 1680, "byteLength": 24}, {"buffer": 0, "byteOffset": 1704, "byteLength": 1116}, {"buffer": 0, "byteOffset": 2820, "byteLength": 744}, {"buffer": 0, "byteOffset": 3564, "byteLength": 1116}, {"buffer": 0, "byteOffset": 4680, "byteLength": 270}, {"buffer": 0, "byteOffset": 4952, "byteLength": 48}, {"buffer": 0, "byteOffset": 5000, "byteLength": 32}, {"buffer": 0, "byteOffset": 5032, "byteLength": 48}, {"buffer": 0, "byteOffset": 5080, "byteLength": 12}, {"buffer": 0, "byteOffset": 5092, "byteLength": 48}, {"buffer": 0, "byteOffset": 5140, "byteLength": 32}, {"buffer": 0, "byteOffset": 5172, "byteLength": 48}, {"buffer": 0, "byteOffset": 5220, "byteLength": 12}], "accessors": [{"bufferView": 0, "byteOffset": 0, "componentType": 5126, "count": 9, "type": "VEC3", "min": [0.287109375, 0.071533203125, -0.12548828125], "max": [0.369873046875, 0.12255859375, 0.125732421875]}, {"bufferView": 1, "byteOffset": 0, "componentType": 5126, "count": 9, "type": "VEC2"}, {"bufferView": 2, "byteOffset": 0, "componentType": 5126, "count": 9, "type": "VEC3"}, {"bufferView": 3, "byteOffset": 0, "componentType": 5123, "count": 15, "type": "SCALAR"}, {"bufferView": 4, "byteOffset": 0, "componentType": 5126, "count": 32, "type": "VEC3", "min": [-0.2861328125, 0.11181640625, -0.234619140625], "max": [0.2861328125, 0.181640625, 0.234619140625]}, {"bufferView": 5, "byteOffset": 0, "componentType": 5126, "count": 32, "type": "VEC2"}, {"bufferView": 6, "byteOffset": 0, "componentType": 5126, "count": 32, "type": "VEC3"}, {"bufferView": 7, "byteOffset": 0, "componentType": 5123, "count": 72, "type": "SCALAR"}, {"bufferView": 8, "byteOffset": 0, "componentType": 5126, "count": 6, "type": "VEC3", "min": [-0.2353515625, 0.11181640625, -0.2587890625], "max": [0.2353515625, 0.12255859375, -0.23291015625]}, {"bufferView": 9, "byteOffset": 0, "componentType": 5126, "count": 6, "type": "VEC2"}, {"bufferView": 10, "byteOffset": 0, "componentType": 5126, "count": 6, "type": "VEC3"}, {"bufferView": 11, "byteOffset": 0, "componentType": 5123, "count": 12, "type": "SCALAR"}, {"bufferView": 12, "byteOffset": 0, "componentType": 5126, "count": 93, "type": "VEC3", "min": [-0.369873046875, 0.000732421875, -0.2587890625], "max": [0.306640625, 0.12255859375, 0.259033203125]}, {"bufferView": 13, "byteOffset": 0, "componentType": 5126, "count": 93, "type": "VEC2"}, {"bufferView": 14, "byteOffset": 0, "componentType": 5126, "count": 93, "type": "VEC3"}, {"bufferView": 15, "byteOffset": 0, "componentType": 5123, "count": 135, "type": "SCALAR"}, {"bufferView": 16, "byteOffset": 0, "componentType": 5126, "count": 4, "type": "VEC3", "min": [-0.035888671875, -0.035888671875, 0.0], "max": [0.035888671875, 0.035888671875, 0.0]}, {"bufferView": 17, "byteOffset": 0, "componentType": 5126, "count": 4, "type": "VEC2"}, {"bufferView": 18, "byteOffset": 0, "componentType": 5126, "count": 4, "type": "VEC3"}, {"bufferView": 19, "byteOffset": 0, "componentType": 5123, "count": 6, "type": "SCALAR"}, {"bufferView": 20, "byteOffset": 0, "componentType": 5126, "count": 4, "type": "VEC3", "min": [-0.03662109375, -0.03662109375, 0.0], "max": [0.03662109375, 0.03662109375, 0.0]}, {"bufferView": 21, "byteOffset": 0, "componentType": 5126, "count": 4, "type": "VEC2"}, {"bufferView": 22, "byteOffset": 0, "componentType": 5126, "count": 4, "type": "VEC3"}, {"bufferView": 23, "byteOffset": 0, "componentType": 5123, "count": 6, "type": "SCALAR"}], "samplers": [{"magFilter": 9729, "minFilter": 9729, "wrapS": 10497, "wrapT": 10497}]}