{"asset": {"version": "2.0", "generator": "tongari-nsbmd-to-gltf"}, "scene": 0, "scenes": [{"nodes": [0, 2]}], "nodes": [{"name": "tp_bra00", "translation": [0.0, 0.0, 0.0], "children": [1]}, {"name": "door", "translation": [2.35009765625, -0.0478515625, 0.41064453125], "rotation": [0.5507119858930347, 0.44353982039523543, 0.5507119858930346, 0.44353982039523543]}, {"mesh": 0, "name": "tp_bra00"}], "meshes": [{"name": "tp_bra00", "primitives": [{"attributes": {"POSITION": 0, "TEXCOORD_0": 1, "NORMAL": 2}, "indices": 3, "mode": 4, "material": 17}, {"attributes": {"POSITION": 4, "TEXCOORD_0": 5, "NORMAL": 6}, "indices": 7, "mode": 4, "material": 2}, {"attributes": {"POSITION": 8, "TEXCOORD_0": 9}, "indices": 10, "mode": 4, "material": 7}, {"attributes": {"POSITION": 11, "TEXCOORD_0": 12}, "indices": 13, "mode": 4, "material": 9}, {"attributes": {"POSITION": 14, "TEXCOORD_0": 15}, "indices": 16, "mode": 4, "material": 5}, {"attributes": {"POSITION": 17, "TEXCOORD_0": 18}, "indices": 19, "mode": 4, "material": 4}, {"attributes": {"POSITION": 20, "TEXCOORD_0": 21, "NORMAL": 22}, "indices": 23, "mode": 4, "material": 10}, {"attributes": {"POSITION": 24, "TEXCOORD_0": 25}, "indices": 26, "mode": 4, "material": 6}, {"attributes": {"POSITION": 27, "TEXCOORD_0": 28, "NORMAL": 29}, "indices": 30, "mode": 4, "material": 11}, {"attributes": {"POSITION": 31, "TEXCOORD_0": 32, "NORMAL": 33}, "indices": 34, "mode": 4, "material": 8}, {"attributes": {"POSITION": 35, "TEXCOORD_0": 36}, "indices": 37, "mode": 4, "material": 16}, {"attributes": {"POSITION": 38, "TEXCOORD_0": 39}, "indices": 40, "mode": 4, "material": 15}, {"attributes": {"POSITION": 41, "TEXCOORD_0": 42}, "indices": 43, "mode": 4, "material": 14}, {"attributes": {"POSITION": 44, "TEXCOORD_0": 45}, "indices": 46, "mode": 4, "material": 13}, {"attributes": {"POSITION": 47, "TEXCOORD_0": 48}, "indices": 49, "mode": 4, "material": 3}, {"attributes": {"POSITION": 50, "TEXCOORD_0": 51}, "indices": 52, "mode": 4, "material": 0}, {"attributes": {"POSITION": 53, "TEXCOORD_0": 54, "NORMAL": 55}, "indices": 56, "mode": 4, "material": 1}, {"attributes": {"POSITION": 57, "TEXCOORD_0": 58}, "indices": 59, "mode": 4, "material": 12}]}], "materials": [{"name": "bra_in1", "pbrMetallicRoughness": {"baseColorFactor": [1.0, 1.0, 1.0, 1.0], "metallicFactor": 0.0, "roughnessFactor": 1.0}, "alphaMode": "OPAQUE", "doubleSided": true}, {"name": "bra_leaf", "pbrMetallicRoughness": {"baseColorFactor": [1.0, 1.0, 1.0, 1.0], "metallicFactor": 0.0, "roughnessFactor": 1.0}, "alphaMode": "OPAQUE", "doubleSided": true}, {"name": "bra_leaf1", "pbrMetallicRoughness": {"baseColorFactor": [1.0, 1.0, 1.0, 1.0], "metallicFactor": 0.0, "roughnessFactor": 1.0}, "alphaMode": "OPAQUE", "doubleSided": true}, {"name": "bra_light", "pbrMetallicRoughness": {"baseColorFactor": [1.0, 1.0, 1.0, 1.0], "metallicFactor": 0.0, "roughnessFactor": 1.0}, "alphaMode": "OPAQUE", "doubleSided": true}, {"name": "bra_mado1", "pbrMetallicRoughness": {"baseColorFactor": [1.0, 1.0, 1.0, 1.0], "metallicFactor": 0.0, "roughnessFactor": 1.0}, "alphaMode": "OPAQUE", "doubleSided": true}, {"name": "bra_mado2", "pbrMetallicRoughness": {"baseColorFactor": [1.0, 1.0, 1.0, 1.0], "metallicFactor": 0.0, "roughnessFactor": 1.0}, "alphaMode": "OPAQUE", "doubleSided": true}, {"name": "bra_mado3", "pbrMetallicRoughness": {"baseColorFactor": [1.0, 1.0, 1.0, 1.0], "metallicFactor": 0.0, "roughnessFactor": 1.0}, "alphaMode": "OPAQUE", "doubleSided": true}, {"name": "bra_mado4", "pbrMetallicRoughness": {"baseColorFactor": [1.0, 1.0, 1.0, 1.0], "metallicFactor": 0.0, "roughnessFactor": 1.0}, "alphaMode": "OPAQUE", "doubleSided": true}, {"name": "bra_tank1", "pbrMetallicRoughness": {"baseColorFactor": [1.0, 1.0, 1.0, 1.0], "metallicFactor": 0.0, "roughnessFactor": 1.0}, "alphaMode": "OPAQUE", "doubleSided": true}, {"name": "bra_uwall1", "pbrMetallicRoughness": {"baseColorFactor": [1.0, 1.0, 1.0, 1.0], "metallicFactor": 0.0, "roughnessFactor": 1.0}, "alphaMode": "OPAQUE", "doubleSided": true}, {"name": "bra_wall1", "pbrMetallicRoughness": {"baseColorFactor": [1.0, 1.0, 1.0, 1.0], "metallicFactor": 0.0, "roughnessFactor": 1.0}, "alphaMode": "OPAQUE", "doubleSided": true}, {"name": "bra_wall2", "pbrMetallicRoughness": {"baseColorFactor": [1.0, 1.0, 1.0, 1.0], "metallicFactor": 0.0, "roughnessFactor": 1.0}, "alphaMode": "OPAQUE", "doubleSided": true}, {"name": "house_door", "pbrMetallicRoughness": {"baseColorFactor": [1.0, 1.0, 1.0, 1.0], "metallicFactor": 0.0, "roughnessFactor": 1.0}, "alphaMode": "OPAQUE", "doubleSided": true}, {"name": "kanban00", "pbrMetallicRoughness": {"baseColorFactor": [1.0, 1.0, 1.0, 1.0], "metallicFactor": 0.0, "roughnessFactor": 1.0}, "alphaMode": "OPAQUE", "doubleSided": true}, {"name": "kanban_g00", "pbrMetallicRoughness": {"baseColorFactor": [1.0, 1.0, 1.0, 1.0], "metallicFactor": 0.0, "roughnessFactor": 1.0}, "alphaMode": "OPAQUE", "doubleSided": true}, {"name": "kanban_g01", "pbrMetallicRoughness": {"baseColorFactor": [1.0, 1.0, 1.0, 1.0], "metallicFactor": 0.0, "roughnessFactor": 1.0}, "alphaMode": "OPAQUE", "doubleSided": true}, {"name": "kanban_g02", "pbrMetallicRoughness": {"baseColorFactor": [1.0, 1.0, 1.0, 1.0], "metallicFactor": 0.0, "roughnessFactor": 1.0}, "alphaMode": "OPAQUE", "doubleSided": true}, {"name": "lambert159", "pbrMetallicRoughness": {"baseColorFactor": [1.0, 1.0, 1.0, 1.0], "metallicFactor": 0.0, "roughnessFactor": 1.0}, "alphaMode": "OPAQUE", "doubleSided": true}], "buffers": [{"byteLength": 9240, "uri": "data:application/octet-stream;base64,"}], "bufferViews": [{"buffer": 0, "byteOffset": 0, "byteLength": 168}, {"buffer": 0, "byteOffset": 168, "byteLength": 112}, {"buffer": 0, "byteOffset": 280, "byteLength": 168}, {"buffer": 0, "byteOffset": 448, "byteLength": 48}, {"buffer": 0, "byteOffset": 496, "byteLength": 240}, {"buffer": 0, "byteOffset": 736, "byteLength": 160}, {"buffer": 0, "byteOffset": 896, "byteLength": 240}, {"buffer": 0, "byteOffset": 1136, "byteLength": 60}, {"buffer": 0, "byteOffset": 1196, "byteLength": 288}, {"buffer": 0, "byteOffset": 1484, "byteLength": 192}, {"buffer": 0, "byteOffset": 1676, "byteLength": 72}, {"buffer": 0, "byteOffset": 1748, "byteLength": 1080}, {"buffer": 0, "byteOffset": 2828, "byteLength": 720}, {"buffer": 0, "byteOffset": 3548, "byteLength": 312}, {"buffer": 0, "byteOffset": 3860, "byteLength": 96}, {"buffer": 0, "byteOffset": 3956, "byteLength": 64}, {"buffer": 0, "byteOffset": 4020, "byteLength": 24}, {"buffer": 0, "byteOffset": 4044, "byteLength": 144}, {"buffer": 0, "byteOffset": 4188, "byteLength": 96}, {"buffer": 0, "byteOffset": 4284, "byteLength": 36}, {"buffer": 0, "byteOffset": 4320, "byteLength": 432}, {"buffer": 0, "byteOffset": 4752, "byteLength": 288}, {"buffer": 0, "byteOffset": 5040, "byteLength": 432}, {"buffer": 0, "byteOffset": 5472, "byteLength": 108}, {"buffer": 0, "byteOffset": 5580, "byteLength": 48}, {"buffer": 0, "byteOffset": 5628, "byteLength": 32}, {"buffer": 0, "byteOffset": 5660, "byteLength": 12}, {"buffer": 0, "byteOffset": 5672, "byteLength": 264}, {"buffer": 0, "byteOffset": 5936, "byteLength": 176}, {"buffer": 0, "byteOffset": 6112, "byteLength": 264}, {"buffer": 0, "byteOffset": 6376, "byteLength": 72}, {"buffer": 0, "byteOffset": 6448, "byteLength": 600}, {"buffer": 0, "byteOffset": 7048, "byteLength": 400}, {"buffer": 0, "byteOffset": 7448, "byteLength": 600}, {"buffer": 0, "byteOffset": 8048, "byteLength": 132}, {"buffer": 0, "byteOffset": 8180, "byteLength": 48}, {"buffer": 0, "byteOffset": 8228, "byteLength": 32}, {"buffer": 0, "byteOffset": 8260, "byteLength": 12}, {"buffer": 0, "byteOffset": 8272, "byteLength": 48}, {"buffer": 0, "byteOffset": 8320, "byteLength": 32}, {"buffer": 0, "byteOffset": 8352, "byteLength": 12}, {"buffer": 0, "byteOffset": 8364, "byteLength": 48}, {"buffer": 0, "byteOffset": 8412, "byteLength": 32}, {"buffer": 0, "byteOffset": 8444, "byteLength": 12}, {"buffer": 0, "byteOffset": 8456, "byteLength": 48}, {"buffer": 0, "byteOffset": 8504, "byteLength": 32}, {"buffer": 0, "byteOffset": 8536, "byteLength": 12}, {"buffer": 0, "byteOffset": 8548, "byteLength": 192}, {"buffer": 0, "byteOffset": 8740, "byteLength": 128}, {"buffer": 0, "byteOffset": 8868, "byteLength": 48}, {"buffer": 0, "byteOffset": 8916, "byteLength": 48}, {"buffer": 0, "byteOffset": 8964, "byteLength": 32}, {"buffer": 0, "byteOffset": 8996, "byteLength": 12}, {"buffer": 0, "byteOffset": 9008, "byteLength": 48}, {"buffer": 0, "byteOffset": 9056, "byteLength": 32}, {"buffer": 0, "byteOffset": 9088, "byteLength": 48}, {"buffer": 0, "byteOffset": 9136, "byteLength": 12}, {"buffer": 0, "byteOffset": 9148, "byteLength": 48}, {"buffer": 0, "byteOffset": 9196, "byteLength": 32}, {"buffer": 0, "byteOffset": 9228, "byteLength": 12}], "accessors": [{"bufferView": 0, "byteOffset": 0, "componentType": 5126, "count": 14, "type": "VEC3", "min": [-0.490234375, 0.00830078125, 0.185791015625], "max": [0.052490234375, 0.59375, 0.4921875]}, {"bufferView": 1, "byteOffset": 0, "componentType": 5126, "count": 14, "type": "VEC2"}, {"bufferView": 2, "byteOffset": 0, "componentType": 5126, "count": 14, "type": "VEC3"}, {"bufferView": 3, "byteOffset": 0, "componentType": 5123, "count": 24, "type": "SCALAR"}, {"bufferView": 4, "byteOffset": 0, "componentType": 5126, "count": 20, "type": "VEC3", "min": [-2.1328125, 1.584228515625, -2.38818359375], "max": [3.707275390625, 4.825439453125, 0.066650390625]}, {"bufferView": 5, "byteOffset": 0, "componentType": 5126, "count": 20, "type": "VEC2"}, {"bufferView": 6, "byteOffset": 0, "componentType": 5126, "count": 20, "type": "VEC3"}, {"bufferView": 7, "byteOffset": 0, "componentType": 5123, "count": 30, "type": "SCALAR"}, {"bufferView": 8, "byteOffset": 0, "componentType": 5126, "count": 24, "type": "VEC3", "min": [1.550048828125, 4.207275390625, -1.436767578125], "max": [2.379150390625, 6.12158203125, 0.44384765625]}, {"bufferView": 9, "byteOffset": 0, "componentType": 5126, "count": 24, "type": "VEC2"}, {"bufferView": 10, "byteOffset": 0, "componentType": 5123, "count": 36, "type": "SCALAR"}, {"bufferView": 11, "byteOffset": 0, "componentType": 5126, "count": 90, "type": "VEC3", "min": [-1.06591796875, 0.0, -2.67578125], "max": [2.634765625, 6.736328125, 0.92724609375]}, {"bufferView": 12, "byteOffset": 0, "componentType": 5126, "count": 90, "type": "VEC2"}, {"bufferView": 13, "byteOffset": 0, "componentType": 5123, "count": 156, "type": "SCALAR"}, {"bufferView": 14, "byteOffset": 0, "componentType": 5126, "count": 8, "type": "VEC3", "min": [-0.71875, 3.67919921875, -0.78955078125], "max": [1.41259765625, 4.690673828125, 0.163818359375]}, {"bufferView": 15, "byteOffset": 0, "componentType": 5126, "count": 8, "type": "VEC2"}, {"bufferView": 16, "byteOffset": 0, "componentType": 5123, "count": 12, "type": "SCALAR"}, {"bufferView": 17, "byteOffset": 0, "componentType": 5126, "count": 12, "type": "VEC3", "min": [-0.859619140625, 3.66357421875, -0.5732421875], "max": [1.553466796875, 6.136962890625, 0.64990234375]}, {"bufferView": 18, "byteOffset": 0, "componentType": 5126, "count": 12, "type": "VEC2"}, {"bufferView": 19, "byteOffset": 0, "componentType": 5123, "count": 18, "type": "SCALAR"}, {"bufferView": 20, "byteOffset": 0, "componentType": 5126, "count": 36, "type": "VEC3", "min": [-1.18408203125, 4.295166015625, -2.14453125], "max": [2.734375, 6.936279296875, 1.08349609375]}, {"bufferView": 21, "byteOffset": 0, "componentType": 5126, "count": 36, "type": "VEC2"}, {"bufferView": 22, "byteOffset": 0, "componentType": 5126, "count": 36, "type": "VEC3"}, {"bufferView": 23, "byteOffset": 0, "componentType": 5123, "count": 54, "type": "SCALAR"}, {"bufferView": 24, "byteOffset": 0, "componentType": 5126, "count": 4, "type": "VEC3", "min": [-0.268310546875, 4.6494140625, -0.22314453125], "max": [0.845703125, 6.034423828125, 0.5361328125]}, {"bufferView": 25, "byteOffset": 0, "componentType": 5126, "count": 4, "type": "VEC2"}, {"bufferView": 26, "byteOffset": 0, "componentType": 5123, "count": 6, "type": "SCALAR"}, {"bufferView": 27, "byteOffset": 0, "componentType": 5126, "count": 22, "type": "VEC3", "min": [-1.592529296875, 3.931396484375, -2.22314453125], "max": [-0.155517578125, 5.9111328125, -0.9423828125]}, {"bufferView": 28, "byteOffset": 0, "componentType": 5126, "count": 22, "type": "VEC2"}, {"bufferView": 29, "byteOffset": 0, "componentType": 5126, "count": 22, "type": "VEC3"}, {"bufferView": 30, "byteOffset": 0, "componentType": 5123, "count": 36, "type": "SCALAR"}, {"bufferView": 31, "byteOffset": 0, "componentType": 5126, "count": 50, "type": "VEC3", "min": [-0.104736328125, 1.55322265625, -0.76513671875], "max": [2.11279296875, 7.080322265625, 0.604248046875]}, {"bufferView": 32, "byteOffset": 0, "componentType": 5126, "count": 50, "type": "VEC2"}, {"bufferView": 33, "byteOffset": 0, "componentType": 5126, "count": 50, "type": "VEC3"}, {"bufferView": 34, "byteOffset": 0, "componentType": 5123, "count": 66, "type": "SCALAR"}, {"bufferView": 35, "byteOffset": 0, "componentType": 5126, "count": 4, "type": "VEC3", "min": [0.084716796875, 1.489501953125, 0.022705078125], "max": [1.398681640625, 2.07958984375, 0.03466796875]}, {"bufferView": 36, "byteOffset": 0, "componentType": 5126, "count": 4, "type": "VEC2"}, {"bufferView": 37, "byteOffset": 0, "componentType": 5123, "count": 6, "type": "SCALAR"}, {"bufferView": 38, "byteOffset": 0, "componentType": 5126, "count": 4, "type": "VEC3", "min": [1.099609375, 2.854248046875, 0.251708984375], "max": [2.71337890625, 4.434326171875, 0.6201171875]}, {"bufferView": 39, "byteOffset": 0, "componentType": 5126, "count": 4, "type": "VEC2"}, {"bufferView": 40, "byteOffset": 0, "componentType": 5123, "count": 6, "type": "SCALAR"}, {"bufferView": 41, "byteOffset": 0, "componentType": 5126, "count": 4, "type": "VEC3", "min": [-1.443603515625, 2.920166015625, 0.25537109375], "max": [0.17529296875, 4.500244140625, 0.618896484375]}, {"bufferView": 42, "byteOffset": 0, "componentType": 5126, "count": 4, "type": "VEC2"}, {"bufferView": 43, "byteOffset": 0, "componentType": 5123, "count": 6, "type": "SCALAR"}, {"bufferView": 44, "byteOffset": 0, "componentType": 5126, "count": 4, "type": "VEC3", "min": [-0.62841796875, 4.464111328125, -0.137451171875], "max": [1.115966796875, 5.539306640625, 0.7451171875]}, {"bufferView": 45, "byteOffset": 0, "componentType": 5126, "count": 4, "type": "VEC2"}, {"bufferView": 46, "byteOffset": 0, "componentType": 5123, "count": 6, "type": "SCALAR"}, {"bufferView": 47, "byteOffset": 0, "componentType": 5126, "count": 16, "type": "VEC3", "min": [-0.804931640625, 0.943115234375, -0.40234375], "max": [-0.254150390625, 2.321044921875, -0.3916015625]}, {"bufferView": 48, "byteOffset": 0, "componentType": 5126, "count": 16, "type": "VEC2"}, {"bufferView": 49, "byteOffset": 0, "componentType": 5123, "count": 24, "type": "SCALAR"}, {"bufferView": 50, "byteOffset": 0, "componentType": 5126, "count": 4, "type": "VEC3", "min": [0.348388671875, -0.024658203125, -0.20361328125], "max": [1.151611328125, 1.21630859375, 0.14404296875]}, {"bufferView": 51, "byteOffset": 0, "componentType": 5126, "count": 4, "type": "VEC2"}, {"bufferView": 52, "byteOffset": 0, "componentType": 5123, "count": 6, "type": "SCALAR"}, {"bufferView": 53, "byteOffset": 0, "componentType": 5126, "count": 4, "type": "VEC3", "min": [-1.5185546875, 2.1748046875, -0.06591796875], "max": [2.818603515625, 3.9658203125, 0.25]}, {"bufferView": 54, "byteOffset": 0, "componentType": 5126, "count": 4, "type": "VEC2"}, {"bufferView": 55, "byteOffset": 0, "componentType": 5126, "count": 4, "type": "VEC3"}, {"bufferView": 56, "byteOffset": 0, "componentType": 5123, "count": 6, "type": "SCALAR"}, {"bufferView": 57, "byteOffset": 0, "componentType": 5126, "count": 4, "type": "VEC3", "min": [-0.85009765625, 0.0, 0.0], "max": [0.0, 1.233642578125, 0.0]}, {"bufferView": 58, "byteOffset": 0, "componentType": 5126, "count": 4, "type": "VEC2"}, {"bufferView": 59, "byteOffset": 0, "componentType": 5123, "count": 6, "type": "SCALAR"}], "samplers": [{"magFilter": 9729, "minFilter": 9729, "wrapS": 10497, "wrapT": 10497}]}