{"asset": {"version": "2.0", "generator": "tongari-nsbmd-to-gltf"}, "scene": 0, "scenes": [{"nodes": [0, 7]}], "nodes": [{"name": "u_ramn03_hs_re", "translation": [0.0, 0.0, 0.0], "children": [1]}, {"name": "body", "translation": [0.0, 0.341796875, -0.00048828125], "children": [2, 3, 4, 5, 6]}, {"name": "j_ss12", "translation": [-0.01904296875, -0.19580078125, 0.02490234375]}, {"name": "j_ss4", "translation": [-0.1142578125, -0.0458984375, -0.091064453125]}, {"name": "j_ss5", "translation": [0.156494140625, -0.032470703125, 0.13720703125]}, {"name": "j_ss6", "translation": [0.142822265625, -0.04052734375, -0.01513671875]}, {"name": "j_ss7", "translation": [-0.18505859375, -0.027099609375, 0.0458984375]}, {"mesh": 0, "name": "5533u_ramn03_hs"}], "meshes": [{"name": "5533u_ramn03_hs", "primitives": [{"attributes": {"POSITION": 0, "TEXCOORD_0": 1, "NORMAL": 2}, "indices": 3, "mode": 4, "material": 0}, {"attributes": {"POSITION": 4, "TEXCOORD_0": 5, "NORMAL": 6}, "indices": 7, "mode": 4, "material": 2}, {"attributes": {"POSITION": 8, "TEXCOORD_0": 9, "NORMAL": 10}, "indices": 11, "mode": 4, "material": 1}, {"attributes": {"POSITION": 12, "TEXCOORD_0": 13, "NORMAL": 14}, "indices": 15, "mode": 4, "material": 3}, {"attributes": {"POSITION": 16, "TEXCOORD_0": 17, "NORMAL": 18}, "indices": 19, "mode": 4, "material": 4}, {"attributes": {"POSITION": 20, "TEXCOORD_0": 21, "NORMAL": 22}, "indices": 23, "mode": 4, "material": 4}, {"attributes": {"POSITION": 24, "TEXCOORD_0": 25, "NORMAL": 26}, "indices": 27, "mode": 4, "material": 4}, {"attributes": {"POSITION": 28, "TEXCOORD_0": 29, "NORMAL": 30}, "indices": 31, "mode": 4, "material": 4}]}], "materials": [{"name": "ucc_ramen0", "pbrMetallicRoughness": {"baseColorFactor": [0.803921568627451, 0.803921568627451, 0.803921568627451, 1.0], "metallicFactor": 0.0, "roughnessFactor": 1.0}, "alphaMode": "OPAQUE", "doubleSided": true}, {"name": "ucc_ramen1", "pbrMetallicRoughness": {"baseColorFactor": [0.803921568627451, 0.803921568627451, 0.803921568627451, 1.0], "metallicFactor": 0.0, "roughnessFactor": 1.0}, "alphaMode": "OPAQUE", "doubleSided": true}, {"name": "ucc_ramen8", "pbrMetallicRoughness": {"baseColorFactor": [0.803921568627451, 0.803921568627451, 0.803921568627451, 1.0], "metallicFactor": 0.0, "roughnessFactor": 1.0}, "alphaMode": "OPAQUE", "doubleSided": true}, {"name": "ucc_top0", "pbrMetallicRoughness": {"baseColorFactor": [1.0, 1.0, 1.0, 1.0], "metallicFactor": 0.0, "roughnessFactor": 1.0}, "alphaMode": "OPAQUE", "doubleSided": true}, {"name": "ucc_top1", "pbrMetallicRoughness": {"baseColorFactor": [0.803921568627451, 0.803921568627451, 0.803921568627451, 1.0], "metallicFactor": 0.0, "roughnessFactor": 1.0}, "alphaMode": "OPAQUE", "doubleSided": true}], "buffers": [{"byteLength": 4624, "uri": "data:application/octet-stream;base64,"}], "bufferViews": [{"buffer": 0, "byteOffset": 0, "byteLength": 1080}, {"buffer": 0, "byteOffset": 1080, "byteLength": 720}, {"buffer": 0, "byteOffset": 1800, "byteLength": 1080}, {"buffer": 0, "byteOffset": 2880, "byteLength": 240}, {"buffer": 0, "byteOffset": 3120, "byteLength": 192}, {"buffer": 0, "byteOffset": 3312, "byteLength": 128}, {"buffer": 0, "byteOffset": 3440, "byteLength": 192}, {"buffer": 0, "byteOffset": 3632, "byteLength": 48}, {"buffer": 0, "byteOffset": 3680, "byteLength": 96}, {"buffer": 0, "byteOffset": 3776, "byteLength": 64}, {"buffer": 0, "byteOffset": 3840, "byteLength": 96}, {"buffer": 0, "byteOffset": 3936, "byteLength": 24}, {"buffer": 0, "byteOffset": 3960, "byteLength": 36}, {"buffer": 0, "byteOffset": 3996, "byteLength": 24}, {"buffer": 0, "byteOffset": 4020, "byteLength": 36}, {"buffer": 0, "byteOffset": 4056, "byteLength": 6}, {"buffer": 0, "byteOffset": 4064, "byteLength": 48}, {"buffer": 0, "byteOffset": 4112, "byteLength": 32}, {"buffer": 0, "byteOffset": 4144, "byteLength": 48}, {"buffer": 0, "byteOffset": 4192, "byteLength": 12}, {"buffer": 0, "byteOffset": 4204, "byteLength": 48}, {"buffer": 0, "byteOffset": 4252, "byteLength": 32}, {"buffer": 0, "byteOffset": 4284, "byteLength": 48}, {"buffer": 0, "byteOffset": 4332, "byteLength": 12}, {"buffer": 0, "byteOffset": 4344, "byteLength": 48}, {"buffer": 0, "byteOffset": 4392, "byteLength": 32}, {"buffer": 0, "byteOffset": 4424, "byteLength": 48}, {"buffer": 0, "byteOffset": 4472, "byteLength": 12}, {"buffer": 0, "byteOffset": 4484, "byteLength": 48}, {"buffer": 0, "byteOffset": 4532, "byteLength": 32}, {"buffer": 0, "byteOffset": 4564, "byteLength": 48}, {"buffer": 0, "byteOffset": 4612, "byteLength": 12}], "accessors": [{"bufferView": 0, "byteOffset": 0, "componentType": 5126, "count": 90, "type": "VEC3", "min": [-0.389892578125, -0.02099609375, -0.371337890625], "max": [0.389892578125, 0.348388671875, 0.370361328125]}, {"bufferView": 1, "byteOffset": 0, "componentType": 5126, "count": 90, "type": "VEC2"}, {"bufferView": 2, "byteOffset": 0, "componentType": 5126, "count": 90, "type": "VEC3"}, {"bufferView": 3, "byteOffset": 0, "componentType": 5123, "count": 120, "type": "SCALAR"}, {"bufferView": 4, "byteOffset": 0, "componentType": 5126, "count": 16, "type": "VEC3", "min": [-0.34423828125, -0.024169921875, -0.327392578125], "max": [0.34423828125, -0.005615234375, 0.327392578125]}, {"bufferView": 5, "byteOffset": 0, "componentType": 5126, "count": 16, "type": "VEC2"}, {"bufferView": 6, "byteOffset": 0, "componentType": 5126, "count": 16, "type": "VEC3"}, {"bufferView": 7, "byteOffset": 0, "componentType": 5123, "count": 24, "type": "SCALAR"}, {"bufferView": 8, "byteOffset": 0, "componentType": 5126, "count": 8, "type": "VEC3", "min": [-0.203857421875, -0.114501953125, -0.308349609375], "max": [0.2646484375, 0.22021484375, 0.316650390625]}, {"bufferView": 9, "byteOffset": 0, "componentType": 5126, "count": 8, "type": "VEC2"}, {"bufferView": 10, "byteOffset": 0, "componentType": 5126, "count": 8, "type": "VEC3"}, {"bufferView": 11, "byteOffset": 0, "componentType": 5123, "count": 12, "type": "SCALAR"}, {"bufferView": 12, "byteOffset": 0, "componentType": 5126, "count": 3, "type": "VEC3", "min": [-0.04345703125, -0.00537109375, -0.01123046875], "max": [0.056396484375, 0.0888671875, 0.02587890625]}, {"bufferView": 13, "byteOffset": 0, "componentType": 5126, "count": 3, "type": "VEC2"}, {"bufferView": 14, "byteOffset": 0, "componentType": 5126, "count": 3, "type": "VEC3"}, {"bufferView": 15, "byteOffset": 0, "componentType": 5123, "count": 3, "type": "SCALAR"}, {"bufferView": 16, "byteOffset": 0, "componentType": 5126, "count": 4, "type": "VEC3", "min": [-0.115234375, -0.00244140625, -0.08447265625], "max": [0.09619140625, 0.190673828125, 0.021240234375]}, {"bufferView": 17, "byteOffset": 0, "componentType": 5126, "count": 4, "type": "VEC2"}, {"bufferView": 18, "byteOffset": 0, "componentType": 5126, "count": 4, "type": "VEC3"}, {"bufferView": 19, "byteOffset": 0, "componentType": 5123, "count": 6, "type": "SCALAR"}, {"bufferView": 20, "byteOffset": 0, "componentType": 5126, "count": 4, "type": "VEC3", "min": [-0.0908203125, -0.011474609375, -0.09033203125], "max": [0.118408203125, 0.186279296875, 0.05419921875]}, {"bufferView": 21, "byteOffset": 0, "componentType": 5126, "count": 4, "type": "VEC2"}, {"bufferView": 22, "byteOffset": 0, "componentType": 5126, "count": 4, "type": "VEC3"}, {"bufferView": 23, "byteOffset": 0, "componentType": 5123, "count": 6, "type": "SCALAR"}, {"bufferView": 24, "byteOffset": 0, "componentType": 5126, "count": 4, "type": "VEC3", "min": [-0.095947265625, -0.0126953125, -0.10302734375], "max": [0.113037109375, 0.185302734375, 0.041259765625]}, {"bufferView": 25, "byteOffset": 0, "componentType": 5126, "count": 4, "type": "VEC2"}, {"bufferView": 26, "byteOffset": 0, "componentType": 5126, "count": 4, "type": "VEC3"}, {"bufferView": 27, "byteOffset": 0, "componentType": 5123, "count": 6, "type": "SCALAR"}, {"bufferView": 28, "byteOffset": 0, "componentType": 5126, "count": 4, "type": "VEC3", "min": [-0.116455078125, -0.010009765625, -0.08203125], "max": [0.0947265625, 0.18310546875, 0.02392578125]}, {"bufferView": 29, "byteOffset": 0, "componentType": 5126, "count": 4, "type": "VEC2"}, {"bufferView": 30, "byteOffset": 0, "componentType": 5126, "count": 4, "type": "VEC3"}, {"bufferView": 31, "byteOffset": 0, "componentType": 5123, "count": 6, "type": "SCALAR"}], "samplers": [{"magFilter": 9729, "minFilter": 9729, "wrapS": 10497, "wrapT": 10497}]}