{"asset": {"version": "2.0", "generator": "tongari-nsbmd-to-gltf"}, "scene": 0, "scenes": [{"nodes": [0, 4]}], "nodes": [{"name": "world_root", "translation": [0.0, 0.0, 0.0], "children": [1, 2, 3]}, {"name": "imel01_19_b", "translation": [0.0, 0.0, 0.0]}, {"name": "imel01_19_off", "translation": [0.0, 0.0, 0.0]}, {"name": "imel01_19_on", "translation": [0.0, 0.0, 0.0]}, {"mesh": 0, "name": "3502IMEL01_19"}], "meshes": [{"name": "3502IMEL01_19", "primitives": [{"attributes": {"POSITION": 0, "TEXCOORD_0": 1, "NORMAL": 2}, "indices": 3, "mode": 4, "material": 2}, {"attributes": {"POSITION": 4, "TEXCOORD_0": 5, "NORMAL": 6}, "indices": 7, "mode": 4, "material": 3}, {"attributes": {"POSITION": 8, "TEXCOORD_0": 9, "NORMAL": 10}, "indices": 11, "mode": 4, "material": 1}, {"attributes": {"POSITION": 12, "TEXCOORD_0": 13, "NORMAL": 14}, "indices": 15, "mode": 4, "material": 3}, {"attributes": {"POSITION": 16, "TEXCOORD_0": 17, "NORMAL": 18}, "indices": 19, "mode": 4, "material": 0}]}], "materials": [{"name": "display", "pbrMetallicRoughness": {"baseColorFactor": [1.0, 1.0, 1.0, 1.0], "metallicFactor": 0.0, "roughnessFactor": 1.0}, "alphaMode": "OPAQUE", "doubleSided": true}, {"name": "imel01_19_0", "pbrMetallicRoughness": {"baseColorFactor": [1.0, 1.0, 1.0, 1.0], "metallicFactor": 0.0, "roughnessFactor": 1.0}, "alphaMode": "OPAQUE", "doubleSided": true}, {"name": "imel01_19_1", "pbrMetallicRoughness": {"baseColorFactor": [1.0, 1.0, 1.0, 1.0], "metallicFactor": 0.0, "roughnessFactor": 1.0}, "alphaMode": "OPAQUE", "doubleSided": true}, {"name": "imel01_19_2", "pbrMetallicRoughness": {"baseColorFactor": [1.0, 1.0, 1.0, 1.0], "metallicFactor": 0.0, "roughnessFactor": 1.0}, "alphaMode": "OPAQUE", "doubleSided": true}], "buffers": [{"byteLength": 4172, "uri": "data:application/octet-stream;base64,"}], "bufferViews": [{"buffer": 0, "byteOffset": 0, "byteLength": 144}, {"buffer": 0, "byteOffset": 144, "byteLength": 96}, {"buffer": 0, "byteOffset": 240, "byteLength": 144}, {"buffer": 0, "byteOffset": 384, "byteLength": 36}, {"buffer": 0, "byteOffset": 420, "byteLength": 960}, {"buffer": 0, "byteOffset": 1380, "byteLength": 640}, {"buffer": 0, "byteOffset": 2020, "byteLength": 960}, {"buffer": 0, "byteOffset": 2980, "byteLength": 276}, {"buffer": 0, "byteOffset": 3256, "byteLength": 216}, {"buffer": 0, "byteOffset": 3472, "byteLength": 144}, {"buffer": 0, "byteOffset": 3616, "byteLength": 216}, {"buffer": 0, "byteOffset": 3832, "byteLength": 60}, {"buffer": 0, "byteOffset": 3892, "byteLength": 48}, {"buffer": 0, "byteOffset": 3940, "byteLength": 32}, {"buffer": 0, "byteOffset": 3972, "byteLength": 48}, {"buffer": 0, "byteOffset": 4020, "byteLength": 12}, {"buffer": 0, "byteOffset": 4032, "byteLength": 48}, {"buffer": 0, "byteOffset": 4080, "byteLength": 32}, {"buffer": 0, "byteOffset": 4112, "byteLength": 48}, {"buffer": 0, "byteOffset": 4160, "byteLength": 12}], "accessors": [{"bufferView": 0, "byteOffset": 0, "componentType": 5126, "count": 12, "type": "VEC3", "min": [-0.4248046875, 0.36279296875, -0.30712890625], "max": [0.4248046875, 0.953369140625, -0.2705078125]}, {"bufferView": 1, "byteOffset": 0, "componentType": 5126, "count": 12, "type": "VEC2"}, {"bufferView": 2, "byteOffset": 0, "componentType": 5126, "count": 12, "type": "VEC3"}, {"bufferView": 3, "byteOffset": 0, "componentType": 5123, "count": 18, "type": "SCALAR"}, {"bufferView": 4, "byteOffset": 0, "componentType": 5126, "count": 80, "type": "VEC3", "min": [-0.4248046875, -0.01171875, -0.30712890625], "max": [0.4248046875, 1.97412109375, 0.30712890625]}, {"bufferView": 5, "byteOffset": 0, "componentType": 5126, "count": 80, "type": "VEC2"}, {"bufferView": 6, "byteOffset": 0, "componentType": 5126, "count": 80, "type": "VEC3"}, {"bufferView": 7, "byteOffset": 0, "componentType": 5123, "count": 138, "type": "SCALAR"}, {"bufferView": 8, "byteOffset": 0, "componentType": 5126, "count": 18, "type": "VEC3", "min": [-0.4248046875, 0.2236328125, 0.2373046875], "max": [0.4248046875, 0.953369140625, 0.30712890625]}, {"bufferView": 9, "byteOffset": 0, "componentType": 5126, "count": 18, "type": "VEC2"}, {"bufferView": 10, "byteOffset": 0, "componentType": 5126, "count": 18, "type": "VEC3"}, {"bufferView": 11, "byteOffset": 0, "componentType": 5123, "count": 30, "type": "SCALAR"}, {"bufferView": 12, "byteOffset": 0, "componentType": 5126, "count": 4, "type": "VEC3", "min": [-0.31591796875, 0.423095703125, 0.23095703125], "max": [0.31591796875, 0.861328125, 0.261474609375]}, {"bufferView": 13, "byteOffset": 0, "componentType": 5126, "count": 4, "type": "VEC2"}, {"bufferView": 14, "byteOffset": 0, "componentType": 5126, "count": 4, "type": "VEC3"}, {"bufferView": 15, "byteOffset": 0, "componentType": 5123, "count": 6, "type": "SCALAR"}, {"bufferView": 16, "byteOffset": 0, "componentType": 5126, "count": 4, "type": "VEC3", "min": [-0.31591796875, 0.423095703125, 0.23095703125], "max": [0.31591796875, 0.861328125, 0.261474609375]}, {"bufferView": 17, "byteOffset": 0, "componentType": 5126, "count": 4, "type": "VEC2"}, {"bufferView": 18, "byteOffset": 0, "componentType": 5126, "count": 4, "type": "VEC3"}, {"bufferView": 19, "byteOffset": 0, "componentType": 5123, "count": 6, "type": "SCALAR"}], "samplers": [{"magFilter": 9729, "minFilter": 9729, "wrapS": 10497, "wrapT": 10497}]}