{"asset": {"version": "2.0", "generator": "tongari-nsbmd-to-gltf"}, "scene": 0, "scenes": [{"nodes": [0, 1]}], "nodes": [{"name": "musi50", "translation": [0.0, 0.0, 0.0]}, {"mesh": 0, "name": "5040musi50"}], "meshes": [{"name": "5040musi50", "primitives": [{"attributes": {"POSITION": 0, "TEXCOORD_0": 1, "NORMAL": 2}, "indices": 3, "mode": 4, "material": 0}, {"attributes": {"POSITION": 4, "TEXCOORD_0": 5, "NORMAL": 6}, "indices": 7, "mode": 4, "material": 1}, {"attributes": {"POSITION": 8, "TEXCOORD_0": 9, "NORMAL": 10}, "indices": 11, "mode": 4, "material": 2}]}], "materials": [{"name": "musi52", "pbrMetallicRoughness": {"baseColorFactor": [0.803921568627451, 0.803921568627451, 0.803921568627451, 1.0], "metallicFactor": 0.0, "roughnessFactor": 1.0}, "alphaMode": "OPAQUE", "doubleSided": true}, {"name": "musi53", "pbrMetallicRoughness": {"baseColorFactor": [0.803921568627451, 0.803921568627451, 0.803921568627451, 1.0], "metallicFactor": 0.0, "roughnessFactor": 1.0}, "alphaMode": "OPAQUE", "doubleSided": true}, {"name": "musi54", "pbrMetallicRoughness": {"baseColorFactor": [0.803921568627451, 0.803921568627451, 0.803921568627451, 1.0], "metallicFactor": 0.0, "roughnessFactor": 1.0}, "alphaMode": "OPAQUE", "doubleSided": true}], "buffers": [{"byteLength": 648, "uri": "data:application/octet-stream;base64,"}], "bufferViews": [{"buffer": 0, "byteOffset": 0, "byteLength": 72}, {"buffer": 0, "byteOffset": 72, "byteLength": 48}, {"buffer": 0, "byteOffset": 120, "byteLength": 72}, {"buffer": 0, "byteOffset": 192, "byteLength": 24}, {"buffer": 0, "byteOffset": 216, "byteLength": 72}, {"buffer": 0, "byteOffset": 288, "byteLength": 48}, {"buffer": 0, "byteOffset": 336, "byteLength": 72}, {"buffer": 0, "byteOffset": 408, "byteLength": 24}, {"buffer": 0, "byteOffset": 432, "byteLength": 72}, {"buffer": 0, "byteOffset": 504, "byteLength": 48}, {"buffer": 0, "byteOffset": 552, "byteLength": 72}, {"buffer": 0, "byteOffset": 624, "byteLength": 24}], "accessors": [{"bufferView": 0, "byteOffset": 0, "componentType": 5126, "count": 6, "type": "VEC3", "min": [-0.0244140625, 0.0, -0.1123046875], "max": [0.0244140625, 0.009521484375, 0.133056640625]}, {"bufferView": 1, "byteOffset": 0, "componentType": 5126, "count": 6, "type": "VEC2"}, {"bufferView": 2, "byteOffset": 0, "componentType": 5126, "count": 6, "type": "VEC3"}, {"bufferView": 3, "byteOffset": 0, "componentType": 5123, "count": 12, "type": "SCALAR"}, {"bufferView": 4, "byteOffset": 0, "componentType": 5126, "count": 6, "type": "VEC3", "min": [-0.0244140625, 0.002197265625, -0.08984375], "max": [0.0244140625, 0.01171875, 0.106201171875]}, {"bufferView": 5, "byteOffset": 0, "componentType": 5126, "count": 6, "type": "VEC2"}, {"bufferView": 6, "byteOffset": 0, "componentType": 5126, "count": 6, "type": "VEC3"}, {"bufferView": 7, "byteOffset": 0, "componentType": 5123, "count": 12, "type": "SCALAR"}, {"bufferView": 8, "byteOffset": 0, "componentType": 5126, "count": 6, "type": "VEC3", "min": [-0.0244140625, 0.004638671875, -0.06689453125], "max": [0.0244140625, 0.01416015625, 0.079345703125]}, {"bufferView": 9, "byteOffset": 0, "componentType": 5126, "count": 6, "type": "VEC2"}, {"bufferView": 10, "byteOffset": 0, "componentType": 5126, "count": 6, "type": "VEC3"}, {"bufferView": 11, "byteOffset": 0, "componentType": 5123, "count": 12, "type": "SCALAR"}], "samplers": [{"magFilter": 9729, "minFilter": 9729, "wrapS": 10497, "wrapT": 10497}]}