{"asset": {"version": "2.0", "generator": "tongari-nsbmd-to-gltf"}, "scene": 0, "scenes": [{"nodes": [0, 1]}], "nodes": [{"name": "imrl09_03", "translation": [0.0, 0.0, 0.0]}, {"mesh": 0, "name": "3114IMRL09_03"}], "meshes": [{"name": "3114IMRL09_03", "primitives": [{"attributes": {"POSITION": 0, "TEXCOORD_0": 1, "NORMAL": 2}, "indices": 3, "mode": 4, "material": 2}, {"attributes": {"POSITION": 4, "TEXCOORD_0": 5, "NORMAL": 6}, "indices": 7, "mode": 4, "material": 0}, {"attributes": {"POSITION": 8, "TEXCOORD_0": 9, "NORMAL": 10}, "indices": 11, "mode": 4, "material": 1}, {"attributes": {"POSITION": 12, "TEXCOORD_0": 13, "NORMAL": 14}, "indices": 15, "mode": 4, "material": 3}]}], "materials": [{"name": "imrl09_03_0", "pbrMetallicRoughness": {"baseColorFactor": [1.0, 1.0, 1.0, 1.0], "metallicFactor": 0.0, "roughnessFactor": 1.0}, "alphaMode": "OPAQUE", "doubleSided": true}, {"name": "imrl09_03_1", "pbrMetallicRoughness": {"baseColorFactor": [1.0, 1.0, 1.0, 1.0], "metallicFactor": 0.0, "roughnessFactor": 1.0}, "alphaMode": "OPAQUE", "doubleSided": true}, {"name": "imrl09_03_2", "pbrMetallicRoughness": {"baseColorFactor": [1.0, 1.0, 1.0, 1.0], "metallicFactor": 0.0, "roughnessFactor": 1.0}, "alphaMode": "OPAQUE", "doubleSided": true}, {"name": "imrl09_03_3", "pbrMetallicRoughness": {"baseColorFactor": [1.0, 1.0, 1.0, 1.0], "metallicFactor": 0.0, "roughnessFactor": 1.0}, "alphaMode": "OPAQUE", "doubleSided": true}], "buffers": [{"byteLength": 3928, "uri": "data:application/octet-stream;base64,"}], "bufferViews": [{"buffer": 0, "byteOffset": 0, "byteLength": 192}, {"buffer": 0, "byteOffset": 192, "byteLength": 128}, {"buffer": 0, "byteOffset": 320, "byteLength": 192}, {"buffer": 0, "byteOffset": 512, "byteLength": 60}, {"buffer": 0, "byteOffset": 572, "byteLength": 312}, {"buffer": 0, "byteOffset": 884, "byteLength": 208}, {"buffer": 0, "byteOffset": 1092, "byteLength": 312}, {"buffer": 0, "byteOffset": 1404, "byteLength": 84}, {"buffer": 0, "byteOffset": 1488, "byteLength": 528}, {"buffer": 0, "byteOffset": 2016, "byteLength": 352}, {"buffer": 0, "byteOffset": 2368, "byteLength": 528}, {"buffer": 0, "byteOffset": 2896, "byteLength": 144}, {"buffer": 0, "byteOffset": 3040, "byteLength": 288}, {"buffer": 0, "byteOffset": 3328, "byteLength": 192}, {"buffer": 0, "byteOffset": 3520, "byteLength": 288}, {"buffer": 0, "byteOffset": 3808, "byteLength": 120}], "accessors": [{"bufferView": 0, "byteOffset": 0, "componentType": 5126, "count": 16, "type": "VEC3", "min": [-0.761962890625, 0.08203125, -0.215087890625], "max": [0.761962890625, 0.43994140625, 0.4365234375]}, {"bufferView": 1, "byteOffset": 0, "componentType": 5126, "count": 16, "type": "VEC2"}, {"bufferView": 2, "byteOffset": 0, "componentType": 5126, "count": 16, "type": "VEC3"}, {"bufferView": 3, "byteOffset": 0, "componentType": 5123, "count": 30, "type": "SCALAR"}, {"bufferView": 4, "byteOffset": 0, "componentType": 5126, "count": 26, "type": "VEC3", "min": [-0.958251953125, 0.389404296875, -0.46044921875], "max": [0.958251953125, 0.914306640625, -0.215087890625]}, {"bufferView": 5, "byteOffset": 0, "componentType": 5126, "count": 26, "type": "VEC2"}, {"bufferView": 6, "byteOffset": 0, "componentType": 5126, "count": 26, "type": "VEC3"}, {"bufferView": 7, "byteOffset": 0, "componentType": 5123, "count": 42, "type": "SCALAR"}, {"bufferView": 8, "byteOffset": 0, "componentType": 5126, "count": 44, "type": "VEC3", "min": [-0.958251953125, 0.0, -0.46044921875], "max": [0.958251953125, 0.914306640625, 0.44287109375]}, {"bufferView": 9, "byteOffset": 0, "componentType": 5126, "count": 44, "type": "VEC2"}, {"bufferView": 10, "byteOffset": 0, "componentType": 5126, "count": 44, "type": "VEC3"}, {"bufferView": 11, "byteOffset": 0, "componentType": 5123, "count": 72, "type": "SCALAR"}, {"bufferView": 12, "byteOffset": 0, "componentType": 5126, "count": 24, "type": "VEC3", "min": [-0.958251953125, 0.0, -0.42138671875], "max": [0.958251953125, 0.6201171875, 0.44287109375]}, {"bufferView": 13, "byteOffset": 0, "componentType": 5126, "count": 24, "type": "VEC2"}, {"bufferView": 14, "byteOffset": 0, "componentType": 5126, "count": 24, "type": "VEC3"}, {"bufferView": 15, "byteOffset": 0, "componentType": 5123, "count": 60, "type": "SCALAR"}], "samplers": [{"magFilter": 9729, "minFilter": 9729, "wrapS": 10497, "wrapT": 10497}]}