{"asset": {"version": "2.0", "generator": "tongari-nsbmd-to-gltf"}, "scene": 0, "scenes": [{"nodes": [0, 15]}], "nodes": [{"name": "ef_148", "translation": [0.0, 0.0, 0.0], "children": [1, 2, 3, 4, 5, 6, 7, 8, 9, 10, 11, 12, 13, 14]}, {"name": "L00", "translation": [-0.44091796875, 1.497314453125, 1.0]}, {"name": "L01", "translation": [0.4169921875, 1.497314453125, 1.0]}, {"name": "L02", "translation": [0.59326171875, 0.871826171875, 1.0]}, {"name": "L03", "translation": [-0.609375, 0.871826171875, 1.0]}, {"name": "S00", "translation": [0.355224609375, 1.078857421875, 1.0]}, {"name": "S01", "translation": [0.002197265625, 1.722412109375, 1.0]}, {"name": "S02", "translation": [-0.58642578125, 1.185302734375, 1.0]}, {"name": "S03", "translation": [-0.299560546875, 0.508544921875, 1.0]}, {"name": "S04", "translation": [0.3037109375, 0.523193359375, 1.0]}, {"name": "S05", "translation": [0.009521484375, 1.453857421875, 1.0]}, {"name": "S06", "translation": [-0.3583984375, 1.100830078125, 1.0]}, {"name": "S07", "translation": [-0.189208984375, 0.7109375, 1.0]}, {"name": "S08", "translation": [0.193359375, 0.70361328125, 1.0]}, {"name": "S09", "translation": [0.53173828125, 1.20751953125, 1.0]}, {"mesh": 0, "name": "ef_148"}], "meshes": [{"name": "ef_148", "primitives": [{"attributes": {"POSITION": 0, "TEXCOORD_0": 1}, "indices": 2, "mode": 4, "material": 0}, {"attributes": {"POSITION": 3, "TEXCOORD_0": 4}, "indices": 5, "mode": 4, "material": 0}, {"attributes": {"POSITION": 6, "TEXCOORD_0": 7}, "indices": 8, "mode": 4, "material": 0}, {"attributes": {"POSITION": 9, "TEXCOORD_0": 10}, "indices": 11, "mode": 4, "material": 0}, {"attributes": {"POSITION": 12, "TEXCOORD_0": 13}, "indices": 14, "mode": 4, "material": 0}, {"attributes": {"POSITION": 15, "TEXCOORD_0": 16}, "indices": 17, "mode": 4, "material": 0}, {"attributes": {"POSITION": 18, "TEXCOORD_0": 19}, "indices": 20, "mode": 4, "material": 0}, {"attributes": {"POSITION": 21, "TEXCOORD_0": 22}, "indices": 23, "mode": 4, "material": 0}, {"attributes": {"POSITION": 24, "TEXCOORD_0": 25}, "indices": 26, "mode": 4, "material": 0}, {"attributes": {"POSITION": 27, "TEXCOORD_0": 28}, "indices": 29, "mode": 4, "material": 0}, {"attributes": {"POSITION": 30, "TEXCOORD_0": 31}, "indices": 32, "mode": 4, "material": 0}, {"attributes": {"POSITION": 33, "TEXCOORD_0": 34}, "indices": 35, "mode": 4, "material": 0}, {"attributes": {"POSITION": 36, "TEXCOORD_0": 37}, "indices": 38, "mode": 4, "material": 0}, {"attributes": {"POSITION": 39, "TEXCOORD_0": 40}, "indices": 41, "mode": 4, "material": 0}]}], "materials": [{"name": "pasted__lambert3", "pbrMetallicRoughness": {"baseColorFactor": [1.0, 1.0, 1.0, 1.0], "metallicFactor": 0.0, "roughnessFactor": 1.0}, "alphaMode": "OPAQUE", "doubleSided": true}], "buffers": [{"byteLength": 1288, "uri": "data:application/octet-stream;base64,"}], "bufferViews": [{"buffer": 0, "byteOffset": 0, "byteLength": 48}, {"buffer": 0, "byteOffset": 48, "byteLength": 32}, {"buffer": 0, "byteOffset": 80, "byteLength": 12}, {"buffer": 0, "byteOffset": 92, "byteLength": 48}, {"buffer": 0, "byteOffset": 140, "byteLength": 32}, {"buffer": 0, "byteOffset": 172, "byteLength": 12}, {"buffer": 0, "byteOffset": 184, "byteLength": 48}, {"buffer": 0, "byteOffset": 232, "byteLength": 32}, {"buffer": 0, "byteOffset": 264, "byteLength": 12}, {"buffer": 0, "byteOffset": 276, "byteLength": 48}, {"buffer": 0, "byteOffset": 324, "byteLength": 32}, {"buffer": 0, "byteOffset": 356, "byteLength": 12}, {"buffer": 0, "byteOffset": 368, "byteLength": 48}, {"buffer": 0, "byteOffset": 416, "byteLength": 32}, {"buffer": 0, "byteOffset": 448, "byteLength": 12}, {"buffer": 0, "byteOffset": 460, "byteLength": 48}, {"buffer": 0, "byteOffset": 508, "byteLength": 32}, {"buffer": 0, "byteOffset": 540, "byteLength": 12}, {"buffer": 0, "byteOffset": 552, "byteLength": 48}, {"buffer": 0, "byteOffset": 600, "byteLength": 32}, {"buffer": 0, "byteOffset": 632, "byteLength": 12}, {"buffer": 0, "byteOffset": 644, "byteLength": 48}, {"buffer": 0, "byteOffset": 692, "byteLength": 32}, {"buffer": 0, "byteOffset": 724, "byteLength": 12}, {"buffer": 0, "byteOffset": 736, "byteLength": 48}, {"buffer": 0, "byteOffset": 784, "byteLength": 32}, {"buffer": 0, "byteOffset": 816, "byteLength": 12}, {"buffer": 0, "byteOffset": 828, "byteLength": 48}, {"buffer": 0, "byteOffset": 876, "byteLength": 32}, {"buffer": 0, "byteOffset": 908, "byteLength": 12}, {"buffer": 0, "byteOffset": 920, "byteLength": 48}, {"buffer": 0, "byteOffset": 968, "byteLength": 32}, {"buffer": 0, "byteOffset": 1000, "byteLength": 12}, {"buffer": 0, "byteOffset": 1012, "byteLength": 48}, {"buffer": 0, "byteOffset": 1060, "byteLength": 32}, {"buffer": 0, "byteOffset": 1092, "byteLength": 12}, {"buffer": 0, "byteOffset": 1104, "byteLength": 48}, {"buffer": 0, "byteOffset": 1152, "byteLength": 32}, {"buffer": 0, "byteOffset": 1184, "byteLength": 12}, {"buffer": 0, "byteOffset": 1196, "byteLength": 48}, {"buffer": 0, "byteOffset": 1244, "byteLength": 32}, {"buffer": 0, "byteOffset": 1276, "byteLength": 12}], "accessors": [{"bufferView": 0, "byteOffset": 0, "componentType": 5126, "count": 4, "type": "VEC3", "min": [-0.08349609375, -0.08349609375, 0.0], "max": [0.08349609375, 0.08349609375, 0.0]}, {"bufferView": 1, "byteOffset": 0, "componentType": 5126, "count": 4, "type": "VEC2"}, {"bufferView": 2, "byteOffset": 0, "componentType": 5123, "count": 6, "type": "SCALAR"}, {"bufferView": 3, "byteOffset": 0, "componentType": 5126, "count": 4, "type": "VEC3", "min": [-0.08349609375, -0.08349609375, 0.0], "max": [0.08349609375, 0.08349609375, 0.0]}, {"bufferView": 4, "byteOffset": 0, "componentType": 5126, "count": 4, "type": "VEC2"}, {"bufferView": 5, "byteOffset": 0, "componentType": 5123, "count": 6, "type": "SCALAR"}, {"bufferView": 6, "byteOffset": 0, "componentType": 5126, "count": 4, "type": "VEC3", "min": [-0.08349609375, -0.08349609375, 0.0], "max": [0.08349609375, 0.08349609375, 0.0]}, {"bufferView": 7, "byteOffset": 0, "componentType": 5126, "count": 4, "type": "VEC2"}, {"bufferView": 8, "byteOffset": 0, "componentType": 5123, "count": 6, "type": "SCALAR"}, {"bufferView": 9, "byteOffset": 0, "componentType": 5126, "count": 4, "type": "VEC3", "min": [-0.08349609375, -0.08349609375, 0.0], "max": [0.08349609375, 0.08349609375, 0.0]}, {"bufferView": 10, "byteOffset": 0, "componentType": 5126, "count": 4, "type": "VEC2"}, {"bufferView": 11, "byteOffset": 0, "componentType": 5123, "count": 6, "type": "SCALAR"}, {"bufferView": 12, "byteOffset": 0, "componentType": 5126, "count": 4, "type": "VEC3", "min": [-0.10009765625, -0.10009765625, 0.0], "max": [0.10009765625, 0.10009765625, 0.0]}, {"bufferView": 13, "byteOffset": 0, "componentType": 5126, "count": 4, "type": "VEC2"}, {"bufferView": 14, "byteOffset": 0, "componentType": 5123, "count": 6, "type": "SCALAR"}, {"bufferView": 15, "byteOffset": 0, "componentType": 5126, "count": 4, "type": "VEC3", "min": [-0.10009765625, -0.10009765625, 0.0], "max": [0.10009765625, 0.10009765625, 0.0]}, {"bufferView": 16, "byteOffset": 0, "componentType": 5126, "count": 4, "type": "VEC2"}, {"bufferView": 17, "byteOffset": 0, "componentType": 5123, "count": 6, "type": "SCALAR"}, {"bufferView": 18, "byteOffset": 0, "componentType": 5126, "count": 4, "type": "VEC3", "min": [-0.10009765625, -0.10009765625, 0.0], "max": [0.10009765625, 0.10009765625, 0.0]}, {"bufferView": 19, "byteOffset": 0, "componentType": 5126, "count": 4, "type": "VEC2"}, {"bufferView": 20, "byteOffset": 0, "componentType": 5123, "count": 6, "type": "SCALAR"}, {"bufferView": 21, "byteOffset": 0, "componentType": 5126, "count": 4, "type": "VEC3", "min": [-0.10009765625, -0.10009765625, 0.0], "max": [0.10009765625, 0.10009765625, 0.0]}, {"bufferView": 22, "byteOffset": 0, "componentType": 5126, "count": 4, "type": "VEC2"}, {"bufferView": 23, "byteOffset": 0, "componentType": 5123, "count": 6, "type": "SCALAR"}, {"bufferView": 24, "byteOffset": 0, "componentType": 5126, "count": 4, "type": "VEC3", "min": [-0.11865234375, -0.121826171875, 0.0], "max": [0.11865234375, 0.121826171875, 0.0]}, {"bufferView": 25, "byteOffset": 0, "componentType": 5126, "count": 4, "type": "VEC2"}, {"bufferView": 26, "byteOffset": 0, "componentType": 5123, "count": 6, "type": "SCALAR"}, {"bufferView": 27, "byteOffset": 0, "componentType": 5126, "count": 4, "type": "VEC3", "min": [-0.082275390625, -0.082275390625, 0.0], "max": [0.082275390625, 0.082275390625, 0.0]}, {"bufferView": 28, "byteOffset": 0, "componentType": 5126, "count": 4, "type": "VEC2"}, {"bufferView": 29, "byteOffset": 0, "componentType": 5123, "count": 6, "type": "SCALAR"}, {"bufferView": 30, "byteOffset": 0, "componentType": 5126, "count": 4, "type": "VEC3", "min": [-0.079833984375, -0.08203125, 0.0], "max": [0.079833984375, 0.08203125, 0.0]}, {"bufferView": 31, "byteOffset": 0, "componentType": 5126, "count": 4, "type": "VEC2"}, {"bufferView": 32, "byteOffset": 0, "componentType": 5123, "count": 6, "type": "SCALAR"}, {"bufferView": 33, "byteOffset": 0, "componentType": 5126, "count": 4, "type": "VEC3", "min": [-0.079833984375, -0.08203125, 0.0], "max": [0.079833984375, 0.08203125, 0.0]}, {"bufferView": 34, "byteOffset": 0, "componentType": 5126, "count": 4, "type": "VEC2"}, {"bufferView": 35, "byteOffset": 0, "componentType": 5123, "count": 6, "type": "SCALAR"}, {"bufferView": 36, "byteOffset": 0, "componentType": 5126, "count": 4, "type": "VEC3", "min": [-0.079833984375, -0.08203125, 0.0], "max": [0.079833984375, 0.08203125, 0.0]}, {"bufferView": 37, "byteOffset": 0, "componentType": 5126, "count": 4, "type": "VEC2"}, {"bufferView": 38, "byteOffset": 0, "componentType": 5123, "count": 6, "type": "SCALAR"}, {"bufferView": 39, "byteOffset": 0, "componentType": 5126, "count": 4, "type": "VEC3", "min": [-0.079833984375, -0.08203125, 0.0], "max": [0.079833984375, 0.08203125, 0.0]}, {"bufferView": 40, "byteOffset": 0, "componentType": 5126, "count": 4, "type": "VEC2"}, {"bufferView": 41, "byteOffset": 0, "componentType": 5123, "count": 6, "type": "SCALAR"}], "samplers": [{"magFilter": 9729, "minFilter": 9729, "wrapS": 10497, "wrapT": 10497}]}