{"asset": {"version": "2.0", "generator": "tongari-nsbmd-to-gltf"}, "scene": 0, "scenes": [{"nodes": [0, 6]}], "nodes": [{"name": "item2768r", "translation": [7.037841796875, 0.503173828125, 10.4443359375], "children": [1]}, {"name": "group19", "translation": [0.0, 0.0, 0.0], "children": [2, 3, 4, 5]}, {"name": "item527_1", "translation": [-0.003173828125, 0.16796875, 0.081298828125]}, {"name": "item527_3", "translation": [-0.058837890625, 0.14111328125, -0.052734375]}, {"name": "item527_4", "translation": [0.03564453125, 0.1611328125, -0.00341796875]}, {"name": "item527_5", "translation": [0.015869140625, 0.14404296875, -0.08837890625]}, {"mesh": 0, "name": "1378item2768r"}], "meshes": [{"name": "1378item2768r", "primitives": [{"attributes": {"POSITION": 0, "TEXCOORD_0": 1}, "indices": 2, "mode": 4, "material": 1}, {"attributes": {"POSITION": 3, "TEXCOORD_0": 4, "NORMAL": 5}, "indices": 6, "mode": 4, "material": 0}, {"attributes": {"POSITION": 7, "TEXCOORD_0": 8, "NORMAL": 9}, "indices": 10, "mode": 4, "material": 0}, {"attributes": {"POSITION": 11, "TEXCOORD_0": 12, "NORMAL": 13}, "indices": 14, "mode": 4, "material": 0}, {"attributes": {"POSITION": 15, "TEXCOORD_0": 16, "NORMAL": 17}, "indices": 18, "mode": 4, "material": 0}]}], "materials": [{"name": "ucc_men4", "pbrMetallicRoughness": {"baseColorFactor": [1.0, 1.0, 1.0, 1.0], "metallicFactor": 0.0, "roughnessFactor": 1.0}, "alphaMode": "OPAQUE", "doubleSided": true}, {"name": "ucc_udon0", "pbrMetallicRoughness": {"baseColorFactor": [1.0, 1.0, 1.0, 1.0], "metallicFactor": 0.0, "roughnessFactor": 1.0}, "alphaMode": "OPAQUE", "doubleSided": true}], "buffers": [{"byteLength": 3560, "uri": "data:application/octet-stream;base64,"}], "bufferViews": [{"buffer": 0, "byteOffset": 0, "byteLength": 1584}, {"buffer": 0, "byteOffset": 1584, "byteLength": 1056}, {"buffer": 0, "byteOffset": 2640, "byteLength": 360}, {"buffer": 0, "byteOffset": 3000, "byteLength": 48}, {"buffer": 0, "byteOffset": 3048, "byteLength": 32}, {"buffer": 0, "byteOffset": 3080, "byteLength": 48}, {"buffer": 0, "byteOffset": 3128, "byteLength": 12}, {"buffer": 0, "byteOffset": 3140, "byteLength": 48}, {"buffer": 0, "byteOffset": 3188, "byteLength": 32}, {"buffer": 0, "byteOffset": 3220, "byteLength": 48}, {"buffer": 0, "byteOffset": 3268, "byteLength": 12}, {"buffer": 0, "byteOffset": 3280, "byteLength": 48}, {"buffer": 0, "byteOffset": 3328, "byteLength": 32}, {"buffer": 0, "byteOffset": 3360, "byteLength": 48}, {"buffer": 0, "byteOffset": 3408, "byteLength": 12}, {"buffer": 0, "byteOffset": 3420, "byteLength": 48}, {"buffer": 0, "byteOffset": 3468, "byteLength": 32}, {"buffer": 0, "byteOffset": 3500, "byteLength": 48}, {"buffer": 0, "byteOffset": 3548, "byteLength": 12}], "accessors": [{"bufferView": 0, "byteOffset": 0, "componentType": 5126, "count": 132, "type": "VEC3", "min": [6.7683528661727905, 0.48872846364974976, 10.188581943511963], "max": [7.3073307275772095, 0.7440088391304016, 10.7012739777565]}, {"bufferView": 1, "byteOffset": 0, "componentType": 5126, "count": 132, "type": "VEC2"}, {"bufferView": 2, "byteOffset": 0, "componentType": 5123, "count": 180, "type": "SCALAR"}, {"bufferView": 3, "byteOffset": 0, "componentType": 5126, "count": 4, "type": "VEC3", "min": [6.934829771518707, 0.4001618027687073, 10.4443359375], "max": [7.140853822231293, 0.6061858534812927, 10.4443359375]}, {"bufferView": 4, "byteOffset": 0, "componentType": 5126, "count": 4, "type": "VEC2"}, {"bufferView": 5, "byteOffset": 0, "componentType": 5126, "count": 4, "type": "VEC3"}, {"bufferView": 6, "byteOffset": 0, "componentType": 5123, "count": 6, "type": "SCALAR"}, {"bufferView": 7, "byteOffset": 0, "componentType": 5126, "count": 4, "type": "VEC3", "min": [6.920147597789764, 0.3854796290397644, 10.4443359375], "max": [7.155535995960236, 0.6208680272102356, 10.4443359375]}, {"bufferView": 8, "byteOffset": 0, "componentType": 5126, "count": 4, "type": "VEC2"}, {"bufferView": 9, "byteOffset": 0, "componentType": 5126, "count": 4, "type": "VEC3"}, {"bufferView": 10, "byteOffset": 0, "componentType": 5123, "count": 6, "type": "SCALAR"}, {"bufferView": 11, "byteOffset": 0, "componentType": 5126, "count": 4, "type": "VEC3", "min": [6.922278881072998, 0.38761091232299805, 10.4443359375], "max": [7.153404712677002, 0.618736743927002, 10.4443359375]}, {"bufferView": 12, "byteOffset": 0, "componentType": 5126, "count": 4, "type": "VEC2"}, {"bufferView": 13, "byteOffset": 0, "componentType": 5126, "count": 4, "type": "VEC3"}, {"bufferView": 14, "byteOffset": 0, "componentType": 5123, "count": 6, "type": "SCALAR"}, {"bufferView": 15, "byteOffset": 0, "componentType": 5126, "count": 4, "type": "VEC3", "min": [6.9350665807724, 0.4003986120223999, 10.4443359375], "max": [7.1406170129776, 0.6059490442276001, 10.4443359375]}, {"bufferView": 16, "byteOffset": 0, "componentType": 5126, "count": 4, "type": "VEC2"}, {"bufferView": 17, "byteOffset": 0, "componentType": 5126, "count": 4, "type": "VEC3"}, {"bufferView": 18, "byteOffset": 0, "componentType": 5123, "count": 6, "type": "SCALAR"}], "samplers": [{"magFilter": 9729, "minFilter": 9729, "wrapS": 10497, "wrapT": 10497}]}