{"asset": {"version": "2.0", "generator": "tongari-nsbmd-to-gltf"}, "scene": 0, "scenes": [{"nodes": [0, 1]}], "nodes": [{"name": "imrl09_09", "translation": [0.0, 0.0, 0.0]}, {"mesh": 0, "name": "3118IMRL09_09"}], "meshes": [{"name": "3118IMRL09_09", "primitives": [{"attributes": {"POSITION": 0, "TEXCOORD_0": 1, "NORMAL": 2}, "indices": 3, "mode": 4, "material": 2}, {"attributes": {"POSITION": 4, "TEXCOORD_0": 5, "NORMAL": 6}, "indices": 7, "mode": 4, "material": 0}, {"attributes": {"POSITION": 8, "TEXCOORD_0": 9, "NORMAL": 10}, "indices": 11, "mode": 4, "material": 1}]}], "materials": [{"name": "imrl09_09_0", "pbrMetallicRoughness": {"baseColorFactor": [1.0, 1.0, 1.0, 1.0], "metallicFactor": 0.0, "roughnessFactor": 1.0}, "alphaMode": "OPAQUE", "doubleSided": true}, {"name": "imrl09_09_1", "pbrMetallicRoughness": {"baseColorFactor": [1.0, 1.0, 1.0, 1.0], "metallicFactor": 0.0, "roughnessFactor": 1.0}, "alphaMode": "OPAQUE", "doubleSided": true}, {"name": "imrl09_09_2", "pbrMetallicRoughness": {"baseColorFactor": [1.0, 1.0, 1.0, 1.0], "metallicFactor": 0.0, "roughnessFactor": 1.0}, "alphaMode": "OPAQUE", "doubleSided": true}], "buffers": [{"byteLength": 2760, "uri": "data:application/octet-stream;base64,"}], "bufferViews": [{"buffer": 0, "byteOffset": 0, "byteLength": 240}, {"buffer": 0, "byteOffset": 240, "byteLength": 160}, {"buffer": 0, "byteOffset": 400, "byteLength": 240}, {"buffer": 0, "byteOffset": 640, "byteLength": 72}, {"buffer": 0, "byteOffset": 712, "byteLength": 624}, {"buffer": 0, "byteOffset": 1336, "byteLength": 416}, {"buffer": 0, "byteOffset": 1752, "byteLength": 624}, {"buffer": 0, "byteOffset": 2376, "byteLength": 168}, {"buffer": 0, "byteOffset": 2544, "byteLength": 72}, {"buffer": 0, "byteOffset": 2616, "byteLength": 48}, {"buffer": 0, "byteOffset": 2664, "byteLength": 72}, {"buffer": 0, "byteOffset": 2736, "byteLength": 24}], "accessors": [{"bufferView": 0, "byteOffset": 0, "componentType": 5126, "count": 20, "type": "VEC3", "min": [-0.974853515625, 0.0, -0.47509765625], "max": [0.974853515625, 0.43994140625, 0.47509765625]}, {"bufferView": 1, "byteOffset": 0, "componentType": 5126, "count": 20, "type": "VEC2"}, {"bufferView": 2, "byteOffset": 0, "componentType": 5126, "count": 20, "type": "VEC3"}, {"bufferView": 3, "byteOffset": 0, "componentType": 5123, "count": 36, "type": "SCALAR"}, {"bufferView": 4, "byteOffset": 0, "componentType": 5126, "count": 52, "type": "VEC3", "min": [-0.974853515625, 0.0, -0.47509765625], "max": [0.974853515625, 0.43994140625, 0.47509765625]}, {"bufferView": 5, "byteOffset": 0, "componentType": 5126, "count": 52, "type": "VEC2"}, {"bufferView": 6, "byteOffset": 0, "componentType": 5126, "count": 52, "type": "VEC3"}, {"bufferView": 7, "byteOffset": 0, "componentType": 5123, "count": 84, "type": "SCALAR"}, {"bufferView": 8, "byteOffset": 0, "componentType": 5126, "count": 6, "type": "VEC3", "min": [-0.810546875, 0.43994140625, -0.361572265625], "max": [0.810546875, 0.43994140625, 0.361572265625]}, {"bufferView": 9, "byteOffset": 0, "componentType": 5126, "count": 6, "type": "VEC2"}, {"bufferView": 10, "byteOffset": 0, "componentType": 5126, "count": 6, "type": "VEC3"}, {"bufferView": 11, "byteOffset": 0, "componentType": 5123, "count": 12, "type": "SCALAR"}], "samplers": [{"magFilter": 9729, "minFilter": 9729, "wrapS": 10497, "wrapT": 10497}]}