{"asset": {"version": "2.0", "generator": "tongari-nsbmd-to-gltf"}, "scene": 0, "scenes": [{"nodes": [0, 1]}], "nodes": [{"name": "polySurface164", "translation": [0.0, 0.0, 0.0]}, {"mesh": 0, "name": "kb_cute_cook"}], "meshes": [{"name": "kb_cute_cook", "primitives": [{"attributes": {"POSITION": 0, "TEXCOORD_0": 1, "NORMAL": 2}, "indices": 3, "mode": 4, "material": 36}, {"attributes": {"POSITION": 4, "TEXCOORD_0": 5, "NORMAL": 6}, "indices": 7, "mode": 4, "material": 17}, {"attributes": {"POSITION": 8, "TEXCOORD_0": 9, "NORMAL": 10}, "indices": 11, "mode": 4, "material": 12}, {"attributes": {"POSITION": 12, "TEXCOORD_0": 13, "NORMAL": 14}, "indices": 15, "mode": 4, "material": 44}, {"attributes": {"POSITION": 16, "TEXCOORD_0": 17, "NORMAL": 18}, "indices": 19, "mode": 4, "material": 41}, {"attributes": {"POSITION": 20, "TEXCOORD_0": 21, "NORMAL": 22}, "indices": 23, "mode": 4, "material": 38}, {"attributes": {"POSITION": 24, "TEXCOORD_0": 25, "NORMAL": 26}, "indices": 27, "mode": 4, "material": 15}, {"attributes": {"POSITION": 28, "TEXCOORD_0": 29, "NORMAL": 30}, "indices": 31, "mode": 4, "material": 40}, {"attributes": {"POSITION": 32, "TEXCOORD_0": 33, "NORMAL": 34}, "indices": 35, "mode": 4, "material": 47}, {"attributes": {"POSITION": 36, "TEXCOORD_0": 37, "NORMAL": 38}, "indices": 39, "mode": 4, "material": 46}, {"attributes": {"POSITION": 40, "TEXCOORD_0": 41, "NORMAL": 42}, "indices": 43, "mode": 4, "material": 18}, {"attributes": {"POSITION": 44, "TEXCOORD_0": 45, "NORMAL": 46}, "indices": 47, "mode": 4, "material": 34}, {"attributes": {"POSITION": 48, "TEXCOORD_0": 49, "NORMAL": 50}, "indices": 51, "mode": 4, "material": 39}, {"attributes": {"POSITION": 52, "TEXCOORD_0": 53, "NORMAL": 54}, "indices": 55, "mode": 4, "material": 43}, {"attributes": {"POSITION": 56, "TEXCOORD_0": 57, "NORMAL": 58}, "indices": 59, "mode": 4, "material": 8}, {"attributes": {"POSITION": 60, "TEXCOORD_0": 61, "NORMAL": 62}, "indices": 63, "mode": 4, "material": 37}, {"attributes": {"POSITION": 64, "TEXCOORD_0": 65, "NORMAL": 66}, "indices": 67, "mode": 4, "material": 14}, {"attributes": {"POSITION": 68, "TEXCOORD_0": 69, "NORMAL": 70}, "indices": 71, "mode": 4, "material": 4}, {"attributes": {"POSITION": 72, "TEXCOORD_0": 73, "NORMAL": 74}, "indices": 75, "mode": 4, "material": 19}, {"attributes": {"POSITION": 76, "TEXCOORD_0": 77, "NORMAL": 78}, "indices": 79, "mode": 4, "material": 2}, {"attributes": {"POSITION": 80, "TEXCOORD_0": 81, "NORMAL": 82}, "indices": 83, "mode": 4, "material": 16}, {"attributes": {"POSITION": 84, "TEXCOORD_0": 85, "NORMAL": 86}, "indices": 87, "mode": 4, "material": 13}, {"attributes": {"POSITION": 88, "TEXCOORD_0": 89, "NORMAL": 90}, "indices": 91, "mode": 4, "material": 7}, {"attributes": {"POSITION": 92, "TEXCOORD_0": 93, "NORMAL": 94}, "indices": 95, "mode": 4, "material": 25}, {"attributes": {"POSITION": 96, "TEXCOORD_0": 97, "NORMAL": 98}, "indices": 99, "mode": 4, "material": 6}, {"attributes": {"POSITION": 100, "TEXCOORD_0": 101, "NORMAL": 102}, "indices": 103, "mode": 4, "material": 21}, {"attributes": {"POSITION": 104, "TEXCOORD_0": 105, "NORMAL": 106}, "indices": 107, "mode": 4, "material": 9}, {"attributes": {"POSITION": 108, "TEXCOORD_0": 109, "NORMAL": 110}, "indices": 111, "mode": 4, "material": 10}, {"attributes": {"POSITION": 112, "TEXCOORD_0": 113, "NORMAL": 114}, "indices": 115, "mode": 4, "material": 24}, {"attributes": {"POSITION": 116, "TEXCOORD_0": 117, "NORMAL": 118}, "indices": 119, "mode": 4, "material": 23}, {"attributes": {"POSITION": 120, "TEXCOORD_0": 121, "NORMAL": 122}, "indices": 123, "mode": 4, "material": 22}, {"attributes": {"POSITION": 124, "TEXCOORD_0": 125, "NORMAL": 126}, "indices": 127, "mode": 4, "material": 20}, {"attributes": {"POSITION": 128, "TEXCOORD_0": 129, "NORMAL": 130}, "indices": 131, "mode": 4, "material": 31}, {"attributes": {"POSITION": 132, "TEXCOORD_0": 133, "NORMAL": 134}, "indices": 135, "mode": 4, "material": 27}, {"attributes": {"POSITION": 136, "TEXCOORD_0": 137, "NORMAL": 138}, "indices": 139, "mode": 4, "material": 32}, {"attributes": {"POSITION": 140, "TEXCOORD_0": 141, "NORMAL": 142}, "indices": 143, "mode": 4, "material": 45}, {"attributes": {"POSITION": 144, "TEXCOORD_0": 145, "NORMAL": 146}, "indices": 147, "mode": 4, "material": 1}, {"attributes": {"POSITION": 148, "TEXCOORD_0": 149, "NORMAL": 150}, "indices": 151, "mode": 4, "material": 0}, {"attributes": {"POSITION": 152, "TEXCOORD_0": 153, "NORMAL": 154}, "indices": 155, "mode": 4, "material": 3}, {"attributes": {"POSITION": 156, "TEXCOORD_0": 157, "NORMAL": 158}, "indices": 159, "mode": 4, "material": 5}, {"attributes": {"POSITION": 160, "TEXCOORD_0": 161, "NORMAL": 162}, "indices": 163, "mode": 4, "material": 11}, {"attributes": {"POSITION": 164, "TEXCOORD_0": 165, "NORMAL": 166}, "indices": 167, "mode": 4, "material": 26}, {"attributes": {"POSITION": 168, "TEXCOORD_0": 169, "NORMAL": 170}, "indices": 171, "mode": 4, "material": 33}, {"attributes": {"POSITION": 172, "TEXCOORD_0": 173, "NORMAL": 174}, "indices": 175, "mode": 4, "material": 30}, {"attributes": {"POSITION": 176, "TEXCOORD_0": 177, "NORMAL": 178}, "indices": 179, "mode": 4, "material": 2}, {"attributes": {"POSITION": 180, "TEXCOORD_0": 181, "NORMAL": 182}, "indices": 183, "mode": 4, "material": 28}, {"attributes": {"POSITION": 184, "TEXCOORD_0": 185, "NORMAL": 186}, "indices": 187, "mode": 4, "material": 29}, {"attributes": {"POSITION": 188, "TEXCOORD_0": 189, "NORMAL": 190}, "indices": 191, "mode": 4, "material": 35}, {"attributes": {"POSITION": 192, "TEXCOORD_0": 193, "NORMAL": 194}, "indices": 195, "mode": 4, "material": 42}]}], "materials": [{"name": "bin00", "pbrMetallicRoughness": {"baseColorFactor": [0.803921568627451, 0.803921568627451, 0.803921568627451, 1.0], "metallicFactor": 0.0, "roughnessFactor": 1.0}, "alphaMode": "OPAQUE", "doubleSided": true}, {"name": "bin01", "pbrMetallicRoughness": {"baseColorFactor": [0.803921568627451, 0.803921568627451, 0.803921568627451, 1.0], "metallicFactor": 0.0, "roughnessFactor": 1.0}, "alphaMode": "OPAQUE", "doubleSided": true}, {"name": "cute_desk01", "pbrMetallicRoughness": {"baseColorFactor": [1.0, 1.0, 1.0, 1.0], "metallicFactor": 0.0, "roughnessFactor": 1.0}, "alphaMode": "OPAQUE", "doubleSided": true}, {"name": "cute_front00", "pbrMetallicRoughness": {"baseColorFactor": [0.803921568627451, 0.803921568627451, 0.803921568627451, 1.0], "metallicFactor": 0.0, "roughnessFactor": 1.0}, "alphaMode": "OPAQUE", "doubleSided": true}, {"name": "cute_fruits00", "pbrMetallicRoughness": {"baseColorFactor": [0.803921568627451, 0.803921568627451, 0.803921568627451, 1.0], "metallicFactor": 0.0, "roughnessFactor": 1.0}, "alphaMode": "OPAQUE", "doubleSided": true}, {"name": "cute_k_light0", "pbrMetallicRoughness": {"baseColorFactor": [0.803921568627451, 0.803921568627451, 0.803921568627451, 1.0], "metallicFactor": 0.0, "roughnessFactor": 1.0}, "alphaMode": "OPAQUE", "doubleSided": true}, {"name": "cute_kabe00", "pbrMetallicRoughness": {"baseColorFactor": [1.0, 1.0, 1.0, 1.0], "metallicFactor": 0.0, "roughnessFactor": 1.0}, "alphaMode": "OPAQUE", "doubleSided": true}, {"name": "cute_kabe01", "pbrMetallicRoughness": {"baseColorFactor": [0.803921568627451, 0.803921568627451, 0.803921568627451, 1.0], "metallicFactor": 0.0, "roughnessFactor": 1.0}, "alphaMode": "OPAQUE", "doubleSided": true}, {"name": "cute_kago", "pbrMetallicRoughness": {"baseColorFactor": [0.803921568627451, 0.803921568627451, 0.803921568627451, 1.0], "metallicFactor": 0.0, "roughnessFactor": 1.0}, "alphaMode": "OPAQUE", "doubleSided": true}, {"name": "cute_komono00", "pbrMetallicRoughness": {"baseColorFactor": [0.803921568627451, 0.803921568627451, 0.803921568627451, 1.0], "metallicFactor": 0.0, "roughnessFactor": 1.0}, "alphaMode": "OPAQUE", "doubleSided": true}, {"name": "cute_manaita", "pbrMetallicRoughness": {"baseColorFactor": [0.803921568627451, 0.803921568627451, 0.803921568627451, 1.0], "metallicFactor": 0.0, "roughnessFactor": 1.0}, "alphaMode": "OPAQUE", "doubleSided": true}, {"name": "cute_otama00", "pbrMetallicRoughness": {"baseColorFactor": [0.803921568627451, 0.803921568627451, 0.803921568627451, 1.0], "metallicFactor": 0.0, "roughnessFactor": 1.0}, "alphaMode": "OPAQUE", "doubleSided": true}, {"name": "cute_pi00", "pbrMetallicRoughness": {"baseColorFactor": [0.803921568627451, 0.803921568627451, 0.803921568627451, 1.0], "metallicFactor": 0.0, "roughnessFactor": 1.0}, "alphaMode": "OPAQUE", "doubleSided": true}, {"name": "cute_pi01", "pbrMetallicRoughness": {"baseColorFactor": [0.803921568627451, 0.803921568627451, 0.803921568627451, 1.0], "metallicFactor": 0.0, "roughnessFactor": 1.0}, "alphaMode": "OPAQUE", "doubleSided": true}, {"name": "cute_sara02", "pbrMetallicRoughness": {"baseColorFactor": [0.803921568627451, 0.803921568627451, 0.803921568627451, 1.0], "metallicFactor": 0.0, "roughnessFactor": 1.0}, "alphaMode": "OPAQUE", "doubleSided": true}, {"name": "cute_step01", "pbrMetallicRoughness": {"baseColorFactor": [0.803921568627451, 0.803921568627451, 0.803921568627451, 1.0], "metallicFactor": 0.0, "roughnessFactor": 1.0}, "alphaMode": "OPAQUE", "doubleSided": true}, {"name": "cute_tile00", "pbrMetallicRoughness": {"baseColorFactor": [0.803921568627451, 0.803921568627451, 0.803921568627451, 1.0], "metallicFactor": 0.0, "roughnessFactor": 1.0}, "alphaMode": "OPAQUE", "doubleSided": true}, {"name": "cute_tile01", "pbrMetallicRoughness": {"baseColorFactor": [0.803921568627451, 0.803921568627451, 0.803921568627451, 1.0], "metallicFactor": 0.0, "roughnessFactor": 1.0}, "alphaMode": "OPAQUE", "doubleSided": true}, {"name": "dai", "pbrMetallicRoughness": {"baseColorFactor": [0.803921568627451, 0.803921568627451, 0.803921568627451, 1.0], "metallicFactor": 0.0, "roughnessFactor": 1.0}, "alphaMode": "OPAQUE", "doubleSided": true}, {"name": "desk00", "pbrMetallicRoughness": {"baseColorFactor": [0.803921568627451, 0.803921568627451, 0.803921568627451, 1.0], "metallicFactor": 0.0, "roughnessFactor": 1.0}, "alphaMode": "OPAQUE", "doubleSided": true}, {"name": "floor", "pbrMetallicRoughness": {"baseColorFactor": [1.0, 1.0, 1.0, 1.0], "metallicFactor": 0.0, "roughnessFactor": 1.0}, "alphaMode": "OPAQUE", "doubleSided": true}, {"name": "fukuro", "pbrMetallicRoughness": {"baseColorFactor": [0.803921568627451, 0.803921568627451, 0.803921568627451, 1.0], "metallicFactor": 0.0, "roughnessFactor": 1.0}, "alphaMode": "OPAQUE", "doubleSided": true}, {"name": "hakari00", "pbrMetallicRoughness": {"baseColorFactor": [0.803921568627451, 0.803921568627451, 0.803921568627451, 1.0], "metallicFactor": 0.0, "roughnessFactor": 1.0}, "alphaMode": "OPAQUE", "doubleSided": true}, {"name": "hakari01", "pbrMetallicRoughness": {"baseColorFactor": [0.803921568627451, 0.803921568627451, 0.803921568627451, 1.0], "metallicFactor": 0.0, "roughnessFactor": 1.0}, "alphaMode": "OPAQUE", "doubleSided": true}, {"name": "hakari02", "pbrMetallicRoughness": {"baseColorFactor": [0.803921568627451, 0.803921568627451, 0.803921568627451, 1.0], "metallicFactor": 0.0, "roughnessFactor": 1.0}, "alphaMode": "OPAQUE", "doubleSided": true}, {"name": "hikidasi", "pbrMetallicRoughness": {"baseColorFactor": [1.0, 1.0, 1.0, 1.0], "metallicFactor": 0.0, "roughnessFactor": 1.0}, "alphaMode": "OPAQUE", "doubleSided": true}, {"name": "hook", "pbrMetallicRoughness": {"baseColorFactor": [0.803921568627451, 0.803921568627451, 0.803921568627451, 1.0], "metallicFactor": 0.0, "roughnessFactor": 1.0}, "alphaMode": "OPAQUE", "doubleSided": true}, {"name": "k_ndai0", "pbrMetallicRoughness": {"baseColorFactor": [0.803921568627451, 0.803921568627451, 0.803921568627451, 1.0], "metallicFactor": 0.0, "roughnessFactor": 1.0}, "alphaMode": "OPAQUE", "doubleSided": true}, {"name": "kb_pan05", "pbrMetallicRoughness": {"baseColorFactor": [0.803921568627451, 0.803921568627451, 0.803921568627451, 1.0], "metallicFactor": 0.0, "roughnessFactor": 1.0}, "alphaMode": "OPAQUE", "doubleSided": true}, {"name": "kb_pan06", "pbrMetallicRoughness": {"baseColorFactor": [0.803921568627451, 0.803921568627451, 0.803921568627451, 1.0], "metallicFactor": 0.0, "roughnessFactor": 1.0}, "alphaMode": "OPAQUE", "doubleSided": true}, {"name": "knife1", "pbrMetallicRoughness": {"baseColorFactor": [0.803921568627451, 0.803921568627451, 0.803921568627451, 1.0], "metallicFactor": 0.0, "roughnessFactor": 1.0}, "alphaMode": "OPAQUE", "doubleSided": true}, {"name": "lambert136", "pbrMetallicRoughness": {"baseColorFactor": [0.803921568627451, 0.803921568627451, 0.803921568627451, 1.0], "metallicFactor": 0.0, "roughnessFactor": 1.0}, "alphaMode": "OPAQUE", "doubleSided": true}, {"name": "lambert139", "pbrMetallicRoughness": {"baseColorFactor": [0.803921568627451, 0.803921568627451, 0.803921568627451, 1.0], "metallicFactor": 0.0, "roughnessFactor": 1.0}, "alphaMode": "OPAQUE", "doubleSided": true}, {"name": "nabesaku", "pbrMetallicRoughness": {"baseColorFactor": [0.803921568627451, 0.803921568627451, 0.803921568627451, 1.0], "metallicFactor": 0.0, "roughnessFactor": 1.0}, "alphaMode": "OPAQUE", "doubleSided": true}, {"name": "object_shade", "pbrMetallicRoughness": {"baseColorFactor": [0.803921568627451, 0.803921568627451, 0.803921568627451, 0.41935483870967744], "metallicFactor": 0.0, "roughnessFactor": 1.0}, "alphaMode": "BLEND", "doubleSided": true}, {"name": "ogama01", "pbrMetallicRoughness": {"baseColorFactor": [0.803921568627451, 0.803921568627451, 0.803921568627451, 1.0], "metallicFactor": 0.0, "roughnessFactor": 1.0}, "alphaMode": "OPAQUE", "doubleSided": true}, {"name": "ogama04", "pbrMetallicRoughness": {"baseColorFactor": [0.803921568627451, 0.803921568627451, 0.803921568627451, 1.0], "metallicFactor": 0.0, "roughnessFactor": 1.0}, "alphaMode": "OPAQUE", "doubleSided": true}, {"name": "ori", "pbrMetallicRoughness": {"baseColorFactor": [0.803921568627451, 0.803921568627451, 0.803921568627451, 1.0], "metallicFactor": 0.0, "roughnessFactor": 1.0}, "alphaMode": "OPAQUE", "doubleSided": true}, {"name": "ovenobj", "pbrMetallicRoughness": {"baseColorFactor": [0.803921568627451, 0.803921568627451, 0.803921568627451, 1.0], "metallicFactor": 0.0, "roughnessFactor": 1.0}, "alphaMode": "OPAQUE", "doubleSided": true}, {"name": "plane1", "pbrMetallicRoughness": {"baseColorFactor": [0.803921568627451, 0.803921568627451, 0.803921568627451, 1.0], "metallicFactor": 0.0, "roughnessFactor": 1.0}, "alphaMode": "OPAQUE", "doubleSided": true}, {"name": "renga", "pbrMetallicRoughness": {"baseColorFactor": [0.803921568627451, 0.803921568627451, 0.803921568627451, 1.0], "metallicFactor": 0.0, "roughnessFactor": 1.0}, "alphaMode": "OPAQUE", "doubleSided": true}, {"name": "room_mat00", "pbrMetallicRoughness": {"baseColorFactor": [1.0, 1.0, 1.0, 1.0], "metallicFactor": 0.0, "roughnessFactor": 1.0}, "alphaMode": "OPAQUE", "doubleSided": true}, {"name": "room_mat01", "pbrMetallicRoughness": {"baseColorFactor": [1.0, 1.0, 1.0, 1.0], "metallicFactor": 0.0, "roughnessFactor": 1.0}, "alphaMode": "OPAQUE", "doubleSided": true}, {"name": "shade1", "pbrMetallicRoughness": {"baseColorFactor": [0.803921568627451, 0.803921568627451, 0.803921568627451, 1.0], "metallicFactor": 0.0, "roughnessFactor": 1.0}, "alphaMode": "OPAQUE", "doubleSided": true}, {"name": "step1", "pbrMetallicRoughness": {"baseColorFactor": [1.0, 1.0, 1.0, 1.0], "metallicFactor": 0.0, "roughnessFactor": 1.0}, "alphaMode": "OPAQUE", "doubleSided": true}, {"name": "t_men0", "pbrMetallicRoughness": {"baseColorFactor": [0.803921568627451, 0.803921568627451, 0.803921568627451, 1.0], "metallicFactor": 0.0, "roughnessFactor": 1.0}, "alphaMode": "OPAQUE", "doubleSided": true}, {"name": "tana", "pbrMetallicRoughness": {"baseColorFactor": [0.803921568627451, 0.803921568627451, 0.803921568627451, 1.0], "metallicFactor": 0.0, "roughnessFactor": 1.0}, "alphaMode": "OPAQUE", "doubleSided": true}, {"name": "tree1", "pbrMetallicRoughness": {"baseColorFactor": [1.0, 1.0, 1.0, 1.0], "metallicFactor": 0.0, "roughnessFactor": 1.0}, "alphaMode": "OPAQUE", "doubleSided": true}], "buffers": [{"byteLength": 83956, "uri": "data:application/octet-stream;base64,"}], "bufferViews": [{"buffer": 0, "byteOffset": 0, "byteLength": 1032}, {"buffer": 0, "byteOffset": 1032, "byteLength": 688}, {"buffer": 0, "byteOffset": 1720, "byteLength": 1032}, {"buffer": 0, "byteOffset": 2752, "byteLength": 336}, {"buffer": 0, "byteOffset": 3088, "byteLength": 60}, {"buffer": 0, "byteOffset": 3148, "byteLength": 40}, {"buffer": 0, "byteOffset": 3188, "byteLength": 60}, {"buffer": 0, "byteOffset": 3248, "byteLength": 18}, {"buffer": 0, "byteOffset": 3268, "byteLength": 288}, {"buffer": 0, "byteOffset": 3556, "byteLength": 192}, {"buffer": 0, "byteOffset": 3748, "byteLength": 288}, {"buffer": 0, "byteOffset": 4036, "byteLength": 84}, {"buffer": 0, "byteOffset": 4120, "byteLength": 1140}, {"buffer": 0, "byteOffset": 5260, "byteLength": 760}, {"buffer": 0, "byteOffset": 6020, "byteLength": 1140}, {"buffer": 0, "byteOffset": 7160, "byteLength": 330}, {"buffer": 0, "byteOffset": 7492, "byteLength": 48}, {"buffer": 0, "byteOffset": 7540, "byteLength": 32}, {"buffer": 0, "byteOffset": 7572, "byteLength": 48}, {"buffer": 0, "byteOffset": 7620, "byteLength": 12}, {"buffer": 0, "byteOffset": 7632, "byteLength": 480}, {"buffer": 0, "byteOffset": 8112, "byteLength": 320}, {"buffer": 0, "byteOffset": 8432, "byteLength": 480}, {"buffer": 0, "byteOffset": 8912, "byteLength": 132}, {"buffer": 0, "byteOffset": 9044, "byteLength": 192}, {"buffer": 0, "byteOffset": 9236, "byteLength": 128}, {"buffer": 0, "byteOffset": 9364, "byteLength": 192}, {"buffer": 0, "byteOffset": 9556, "byteLength": 48}, {"buffer": 0, "byteOffset": 9604, "byteLength": 600}, {"buffer": 0, "byteOffset": 10204, "byteLength": 400}, {"buffer": 0, "byteOffset": 10604, "byteLength": 600}, {"buffer": 0, "byteOffset": 11204, "byteLength": 192}, {"buffer": 0, "byteOffset": 11396, "byteLength": 1380}, {"buffer": 0, "byteOffset": 12776, "byteLength": 920}, {"buffer": 0, "byteOffset": 13696, "byteLength": 1380}, {"buffer": 0, "byteOffset": 15076, "byteLength": 450}, {"buffer": 0, "byteOffset": 15528, "byteLength": 1992}, {"buffer": 0, "byteOffset": 17520, "byteLength": 1328}, {"buffer": 0, "byteOffset": 18848, "byteLength": 1992}, {"buffer": 0, "byteOffset": 20840, "byteLength": 576}, {"buffer": 0, "byteOffset": 21416, "byteLength": 1032}, {"buffer": 0, "byteOffset": 22448, "byteLength": 688}, {"buffer": 0, "byteOffset": 23136, "byteLength": 1032}, {"buffer": 0, "byteOffset": 24168, "byteLength": 264}, {"buffer": 0, "byteOffset": 24432, "byteLength": 624}, {"buffer": 0, "byteOffset": 25056, "byteLength": 416}, {"buffer": 0, "byteOffset": 25472, "byteLength": 624}, {"buffer": 0, "byteOffset": 26096, "byteLength": 156}, {"buffer": 0, "byteOffset": 26252, "byteLength": 144}, {"buffer": 0, "byteOffset": 26396, "byteLength": 96}, {"buffer": 0, "byteOffset": 26492, "byteLength": 144}, {"buffer": 0, "byteOffset": 26636, "byteLength": 36}, {"buffer": 0, "byteOffset": 26672, "byteLength": 168}, {"buffer": 0, "byteOffset": 26840, "byteLength": 112}, {"buffer": 0, "byteOffset": 26952, "byteLength": 168}, {"buffer": 0, "byteOffset": 27120, "byteLength": 60}, {"buffer": 0, "byteOffset": 27180, "byteLength": 192}, {"buffer": 0, "byteOffset": 27372, "byteLength": 128}, {"buffer": 0, "byteOffset": 27500, "byteLength": 192}, {"buffer": 0, "byteOffset": 27692, "byteLength": 60}, {"buffer": 0, "byteOffset": 27752, "byteLength": 216}, {"buffer": 0, "byteOffset": 27968, "byteLength": 144}, {"buffer": 0, "byteOffset": 28112, "byteLength": 216}, {"buffer": 0, "byteOffset": 28328, "byteLength": 72}, {"buffer": 0, "byteOffset": 28400, "byteLength": 552}, {"buffer": 0, "byteOffset": 28952, "byteLength": 368}, {"buffer": 0, "byteOffset": 29320, "byteLength": 552}, {"buffer": 0, "byteOffset": 29872, "byteLength": 120}, {"buffer": 0, "byteOffset": 29992, "byteLength": 744}, {"buffer": 0, "byteOffset": 30736, "byteLength": 496}, {"buffer": 0, "byteOffset": 31232, "byteLength": 744}, {"buffer": 0, "byteOffset": 31976, "byteLength": 204}, {"buffer": 0, "byteOffset": 32180, "byteLength": 264}, {"buffer": 0, "byteOffset": 32444, "byteLength": 176}, {"buffer": 0, "byteOffset": 32620, "byteLength": 264}, {"buffer": 0, "byteOffset": 32884, "byteLength": 84}, {"buffer": 0, "byteOffset": 32968, "byteLength": 240}, {"buffer": 0, "byteOffset": 33208, "byteLength": 160}, {"buffer": 0, "byteOffset": 33368, "byteLength": 240}, {"buffer": 0, "byteOffset": 33608, "byteLength": 60}, {"buffer": 0, "byteOffset": 33668, "byteLength": 192}, {"buffer": 0, "byteOffset": 33860, "byteLength": 128}, {"buffer": 0, "byteOffset": 33988, "byteLength": 192}, {"buffer": 0, "byteOffset": 34180, "byteLength": 48}, {"buffer": 0, "byteOffset": 34228, "byteLength": 168}, {"buffer": 0, "byteOffset": 34396, "byteLength": 112}, {"buffer": 0, "byteOffset": 34508, "byteLength": 168}, {"buffer": 0, "byteOffset": 34676, "byteLength": 48}, {"buffer": 0, "byteOffset": 34724, "byteLength": 156}, {"buffer": 0, "byteOffset": 34880, "byteLength": 104}, {"buffer": 0, "byteOffset": 34984, "byteLength": 156}, {"buffer": 0, "byteOffset": 35140, "byteLength": 42}, {"buffer": 0, "byteOffset": 35184, "byteLength": 96}, {"buffer": 0, "byteOffset": 35280, "byteLength": 64}, {"buffer": 0, "byteOffset": 35344, "byteLength": 96}, {"buffer": 0, "byteOffset": 35440, "byteLength": 24}, {"buffer": 0, "byteOffset": 35464, "byteLength": 96}, {"buffer": 0, "byteOffset": 35560, "byteLength": 64}, {"buffer": 0, "byteOffset": 35624, "byteLength": 96}, {"buffer": 0, "byteOffset": 35720, "byteLength": 24}, {"buffer": 0, "byteOffset": 35744, "byteLength": 72}, {"buffer": 0, "byteOffset": 35816, "byteLength": 48}, {"buffer": 0, "byteOffset": 35864, "byteLength": 72}, {"buffer": 0, "byteOffset": 35936, "byteLength": 24}, {"buffer": 0, "byteOffset": 35960, "byteLength": 168}, {"buffer": 0, "byteOffset": 36128, "byteLength": 112}, {"buffer": 0, "byteOffset": 36240, "byteLength": 168}, {"buffer": 0, "byteOffset": 36408, "byteLength": 48}, {"buffer": 0, "byteOffset": 36456, "byteLength": 96}, {"buffer": 0, "byteOffset": 36552, "byteLength": 64}, {"buffer": 0, "byteOffset": 36616, "byteLength": 96}, {"buffer": 0, "byteOffset": 36712, "byteLength": 24}, {"buffer": 0, "byteOffset": 36736, "byteLength": 36}, {"buffer": 0, "byteOffset": 36772, "byteLength": 24}, {"buffer": 0, "byteOffset": 36796, "byteLength": 36}, {"buffer": 0, "byteOffset": 36832, "byteLength": 6}, {"buffer": 0, "byteOffset": 36840, "byteLength": 756}, {"buffer": 0, "byteOffset": 37596, "byteLength": 504}, {"buffer": 0, "byteOffset": 38100, "byteLength": 756}, {"buffer": 0, "byteOffset": 38856, "byteLength": 222}, {"buffer": 0, "byteOffset": 39080, "byteLength": 48}, {"buffer": 0, "byteOffset": 39128, "byteLength": 32}, {"buffer": 0, "byteOffset": 39160, "byteLength": 48}, {"buffer": 0, "byteOffset": 39208, "byteLength": 12}, {"buffer": 0, "byteOffset": 39220, "byteLength": 228}, {"buffer": 0, "byteOffset": 39448, "byteLength": 152}, {"buffer": 0, "byteOffset": 39600, "byteLength": 228}, {"buffer": 0, "byteOffset": 39828, "byteLength": 66}, {"buffer": 0, "byteOffset": 39896, "byteLength": 288}, {"buffer": 0, "byteOffset": 40184, "byteLength": 192}, {"buffer": 0, "byteOffset": 40376, "byteLength": 288}, {"buffer": 0, "byteOffset": 40664, "byteLength": 72}, {"buffer": 0, "byteOffset": 40736, "byteLength": 456}, {"buffer": 0, "byteOffset": 41192, "byteLength": 304}, {"buffer": 0, "byteOffset": 41496, "byteLength": 456}, {"buffer": 0, "byteOffset": 41952, "byteLength": 120}, {"buffer": 0, "byteOffset": 42072, "byteLength": 1368}, {"buffer": 0, "byteOffset": 43440, "byteLength": 912}, {"buffer": 0, "byteOffset": 44352, "byteLength": 1368}, {"buffer": 0, "byteOffset": 45720, "byteLength": 372}, {"buffer": 0, "byteOffset": 46092, "byteLength": 1392}, {"buffer": 0, "byteOffset": 47484, "byteLength": 928}, {"buffer": 0, "byteOffset": 48412, "byteLength": 1392}, {"buffer": 0, "byteOffset": 49804, "byteLength": 504}, {"buffer": 0, "byteOffset": 50308, "byteLength": 480}, {"buffer": 0, "byteOffset": 50788, "byteLength": 320}, {"buffer": 0, "byteOffset": 51108, "byteLength": 480}, {"buffer": 0, "byteOffset": 51588, "byteLength": 192}, {"buffer": 0, "byteOffset": 51780, "byteLength": 2400}, {"buffer": 0, "byteOffset": 54180, "byteLength": 1600}, {"buffer": 0, "byteOffset": 55780, "byteLength": 2400}, {"buffer": 0, "byteOffset": 58180, "byteLength": 528}, {"buffer": 0, "byteOffset": 58708, "byteLength": 384}, {"buffer": 0, "byteOffset": 59092, "byteLength": 256}, {"buffer": 0, "byteOffset": 59348, "byteLength": 384}, {"buffer": 0, "byteOffset": 59732, "byteLength": 96}, {"buffer": 0, "byteOffset": 59828, "byteLength": 792}, {"buffer": 0, "byteOffset": 60620, "byteLength": 528}, {"buffer": 0, "byteOffset": 61148, "byteLength": 792}, {"buffer": 0, "byteOffset": 61940, "byteLength": 216}, {"buffer": 0, "byteOffset": 62156, "byteLength": 96}, {"buffer": 0, "byteOffset": 62252, "byteLength": 64}, {"buffer": 0, "byteOffset": 62316, "byteLength": 96}, {"buffer": 0, "byteOffset": 62412, "byteLength": 24}, {"buffer": 0, "byteOffset": 62436, "byteLength": 48}, {"buffer": 0, "byteOffset": 62484, "byteLength": 32}, {"buffer": 0, "byteOffset": 62516, "byteLength": 48}, {"buffer": 0, "byteOffset": 62564, "byteLength": 12}, {"buffer": 0, "byteOffset": 62576, "byteLength": 1128}, {"buffer": 0, "byteOffset": 63704, "byteLength": 752}, {"buffer": 0, "byteOffset": 64456, "byteLength": 1128}, {"buffer": 0, "byteOffset": 65584, "byteLength": 396}, {"buffer": 0, "byteOffset": 65980, "byteLength": 528}, {"buffer": 0, "byteOffset": 66508, "byteLength": 352}, {"buffer": 0, "byteOffset": 66860, "byteLength": 528}, {"buffer": 0, "byteOffset": 67388, "byteLength": 120}, {"buffer": 0, "byteOffset": 67508, "byteLength": 120}, {"buffer": 0, "byteOffset": 67628, "byteLength": 80}, {"buffer": 0, "byteOffset": 67708, "byteLength": 120}, {"buffer": 0, "byteOffset": 67828, "byteLength": 36}, {"buffer": 0, "byteOffset": 67864, "byteLength": 4128}, {"buffer": 0, "byteOffset": 71992, "byteLength": 2752}, {"buffer": 0, "byteOffset": 74744, "byteLength": 4128}, {"buffer": 0, "byteOffset": 78872, "byteLength": 984}, {"buffer": 0, "byteOffset": 79856, "byteLength": 216}, {"buffer": 0, "byteOffset": 80072, "byteLength": 144}, {"buffer": 0, "byteOffset": 80216, "byteLength": 216}, {"buffer": 0, "byteOffset": 80432, "byteLength": 60}, {"buffer": 0, "byteOffset": 80492, "byteLength": 1032}, {"buffer": 0, "byteOffset": 81524, "byteLength": 688}, {"buffer": 0, "byteOffset": 82212, "byteLength": 1032}, {"buffer": 0, "byteOffset": 83244, "byteLength": 432}, {"buffer": 0, "byteOffset": 83676, "byteLength": 96}, {"buffer": 0, "byteOffset": 83772, "byteLength": 64}, {"buffer": 0, "byteOffset": 83836, "byteLength": 96}, {"buffer": 0, "byteOffset": 83932, "byteLength": 24}], "accessors": [{"bufferView": 0, "byteOffset": 0, "componentType": 5126, "count": 86, "type": "VEC3", "min": [1.639892578125, 0.847412109375, 1.042236328125], "max": [1.964111328125, 0.948486328125, 1.2138671875]}, {"bufferView": 1, "byteOffset": 0, "componentType": 5126, "count": 86, "type": "VEC2"}, {"bufferView": 2, "byteOffset": 0, "componentType": 5126, "count": 86, "type": "VEC3"}, {"bufferView": 3, "byteOffset": 0, "componentType": 5123, "count": 168, "type": "SCALAR"}, {"bufferView": 4, "byteOffset": 0, "componentType": 5126, "count": 5, "type": "VEC3", "min": [2.6962890625, 0.0, 1.25], "max": [3.5, 1.8154296875, 1.866455078125]}, {"bufferView": 5, "byteOffset": 0, "componentType": 5126, "count": 5, "type": "VEC2"}, {"bufferView": 6, "byteOffset": 0, "componentType": 5126, "count": 5, "type": "VEC3"}, {"bufferView": 7, "byteOffset": 0, "componentType": 5123, "count": 9, "type": "SCALAR"}, {"bufferView": 8, "byteOffset": 0, "componentType": 5126, "count": 24, "type": "VEC3", "min": [0.50244140625, 0.0, 1.324951171875], "max": [3.498046875, 1.835693359375, 1.918701171875]}, {"bufferView": 9, "byteOffset": 0, "componentType": 5126, "count": 24, "type": "VEC2"}, {"bufferView": 10, "byteOffset": 0, "componentType": 5126, "count": 24, "type": "VEC3"}, {"bufferView": 11, "byteOffset": 0, "componentType": 5123, "count": 42, "type": "SCALAR"}, {"bufferView": 12, "byteOffset": 0, "componentType": 5126, "count": 95, "type": "VEC3", "min": [1.300048828125, -0.002685546875, -0.20751953125], "max": [2.82958984375, 0.886962890625, 1.616943359375]}, {"bufferView": 13, "byteOffset": 0, "componentType": 5126, "count": 95, "type": "VEC2"}, {"bufferView": 14, "byteOffset": 0, "componentType": 5126, "count": 95, "type": "VEC3"}, {"bufferView": 15, "byteOffset": 0, "componentType": 5123, "count": 165, "type": "SCALAR"}, {"bufferView": 16, "byteOffset": 0, "componentType": 5126, "count": 4, "type": "VEC3", "min": [1.75, 0.0, 4.0], "max": [2.25, 0.0, 4.25]}, {"bufferView": 17, "byteOffset": 0, "componentType": 5126, "count": 4, "type": "VEC2"}, {"bufferView": 18, "byteOffset": 0, "componentType": 5126, "count": 4, "type": "VEC3"}, {"bufferView": 19, "byteOffset": 0, "componentType": 5123, "count": 6, "type": "SCALAR"}, {"bufferView": 20, "byteOffset": 0, "componentType": 5126, "count": 40, "type": "VEC3", "min": [3.458251953125, 0.0, 3.219970703125], "max": [3.54248046875, 0.67041015625, 3.781494140625]}, {"bufferView": 21, "byteOffset": 0, "componentType": 5126, "count": 40, "type": "VEC2"}, {"bufferView": 22, "byteOffset": 0, "componentType": 5126, "count": 40, "type": "VEC3"}, {"bufferView": 23, "byteOffset": 0, "componentType": 5123, "count": 66, "type": "SCALAR"}, {"bufferView": 24, "byteOffset": 0, "componentType": 5126, "count": 16, "type": "VEC3", "min": [2.410888671875, 0.0, 1.083984375], "max": [2.7275390625, 0.45654296875, 1.616943359375]}, {"bufferView": 25, "byteOffset": 0, "componentType": 5126, "count": 16, "type": "VEC2"}, {"bufferView": 26, "byteOffset": 0, "componentType": 5126, "count": 16, "type": "VEC3"}, {"bufferView": 27, "byteOffset": 0, "componentType": 5123, "count": 24, "type": "SCALAR"}, {"bufferView": 28, "byteOffset": 0, "componentType": 5126, "count": 50, "type": "VEC3", "min": [0.458740234375, -0.03271484375, 0.130615234375], "max": [3.53564453125, 0.247314453125, 2.21533203125]}, {"bufferView": 29, "byteOffset": 0, "componentType": 5126, "count": 50, "type": "VEC2"}, {"bufferView": 30, "byteOffset": 0, "componentType": 5126, "count": 50, "type": "VEC3"}, {"bufferView": 31, "byteOffset": 0, "componentType": 5123, "count": 96, "type": "SCALAR"}, {"bufferView": 32, "byteOffset": 0, "componentType": 5126, "count": 115, "type": "VEC3", "min": [0.385009765625, -0.00634765625, 4.03662109375], "max": [3.62158203125, 1.90576171875, 4.111328125]}, {"bufferView": 33, "byteOffset": 0, "componentType": 5126, "count": 115, "type": "VEC2"}, {"bufferView": 34, "byteOffset": 0, "componentType": 5126, "count": 115, "type": "VEC3"}, {"bufferView": 35, "byteOffset": 0, "componentType": 5123, "count": 225, "type": "SCALAR"}, {"bufferView": 36, "byteOffset": 0, "componentType": 5126, "count": 166, "type": "VEC3", "min": [0.47509765625, 0.14990234375, 2.35009765625], "max": [3.5, 1.27490234375, 4.019287109375]}, {"bufferView": 37, "byteOffset": 0, "componentType": 5126, "count": 166, "type": "VEC2"}, {"bufferView": 38, "byteOffset": 0, "componentType": 5126, "count": 166, "type": "VEC3"}, {"bufferView": 39, "byteOffset": 0, "componentType": 5123, "count": 288, "type": "SCALAR"}, {"bufferView": 40, "byteOffset": 0, "componentType": 5126, "count": 86, "type": "VEC3", "min": [0.854736328125, 0.014404296875, 1.9736328125], "max": [1.204833984375, 0.257080078125, 2.321044921875]}, {"bufferView": 41, "byteOffset": 0, "componentType": 5126, "count": 86, "type": "VEC2"}, {"bufferView": 42, "byteOffset": 0, "componentType": 5126, "count": 86, "type": "VEC3"}, {"bufferView": 43, "byteOffset": 0, "componentType": 5123, "count": 132, "type": "SCALAR"}, {"bufferView": 44, "byteOffset": 0, "componentType": 5126, "count": 52, "type": "VEC3", "min": [0.53759765625, 0.012451171875, -0.375244140625], "max": [3.50732421875, 0.85888671875, 4.359130859375]}, {"bufferView": 45, "byteOffset": 0, "componentType": 5126, "count": 52, "type": "VEC2"}, {"bufferView": 46, "byteOffset": 0, "componentType": 5126, "count": 52, "type": "VEC3"}, {"bufferView": 47, "byteOffset": 0, "componentType": 5123, "count": 78, "type": "SCALAR"}, {"bufferView": 48, "byteOffset": 0, "componentType": 5126, "count": 12, "type": "VEC3", "min": [0.5, -1.83349609375, 3.25244140625], "max": [4.362060546875, 1.805908203125, 4.02783203125]}, {"bufferView": 49, "byteOffset": 0, "componentType": 5126, "count": 12, "type": "VEC2"}, {"bufferView": 50, "byteOffset": 0, "componentType": 5126, "count": 12, "type": "VEC3"}, {"bufferView": 51, "byteOffset": 0, "componentType": 5123, "count": 18, "type": "SCALAR"}, {"bufferView": 52, "byteOffset": 0, "componentType": 5126, "count": 14, "type": "VEC3", "min": [0.53076171875, 1.483154296875, -0.154541015625], "max": [3.482666015625, 1.856689453125, 4.048095703125]}, {"bufferView": 53, "byteOffset": 0, "componentType": 5126, "count": 14, "type": "VEC2"}, {"bufferView": 54, "byteOffset": 0, "componentType": 5126, "count": 14, "type": "VEC3"}, {"bufferView": 55, "byteOffset": 0, "componentType": 5123, "count": 30, "type": "SCALAR"}, {"bufferView": 56, "byteOffset": 0, "componentType": 5126, "count": 16, "type": "VEC3", "min": [2.544677734375, 0.0234375, 3.9033203125], "max": [2.894287109375, 0.156982421875, 4.1435546875]}, {"bufferView": 57, "byteOffset": 0, "componentType": 5126, "count": 16, "type": "VEC2"}, {"bufferView": 58, "byteOffset": 0, "componentType": 5126, "count": 16, "type": "VEC3"}, {"bufferView": 59, "byteOffset": 0, "componentType": 5123, "count": 30, "type": "SCALAR"}, {"bufferView": 60, "byteOffset": 0, "componentType": 5126, "count": 18, "type": "VEC3", "min": [0.5263671875, 1.134765625, 3.299072265625], "max": [0.6962890625, 1.35302734375, 3.72119140625]}, {"bufferView": 61, "byteOffset": 0, "componentType": 5126, "count": 18, "type": "VEC2"}, {"bufferView": 62, "byteOffset": 0, "componentType": 5126, "count": 18, "type": "VEC3"}, {"bufferView": 63, "byteOffset": 0, "componentType": 5123, "count": 36, "type": "SCALAR"}, {"bufferView": 64, "byteOffset": 0, "componentType": 5126, "count": 46, "type": "VEC3", "min": [3.202880859375, 0.9052734375, 3.2080078125], "max": [3.487060546875, 1.07080078125, 3.486328125]}, {"bufferView": 65, "byteOffset": 0, "componentType": 5126, "count": 46, "type": "VEC2"}, {"bufferView": 66, "byteOffset": 0, "componentType": 5126, "count": 46, "type": "VEC3"}, {"bufferView": 67, "byteOffset": 0, "componentType": 5123, "count": 60, "type": "SCALAR"}, {"bufferView": 68, "byteOffset": 0, "componentType": 5126, "count": 62, "type": "VEC3", "min": [2.577880859375, 0.076171875, 3.9501953125], "max": [3.13720703125, 0.32666015625, 4.194580078125]}, {"bufferView": 69, "byteOffset": 0, "componentType": 5126, "count": 62, "type": "VEC2"}, {"bufferView": 70, "byteOffset": 0, "componentType": 5126, "count": 62, "type": "VEC3"}, {"bufferView": 71, "byteOffset": 0, "componentType": 5123, "count": 102, "type": "SCALAR"}, {"bufferView": 72, "byteOffset": 0, "componentType": 5126, "count": 22, "type": "VEC3", "min": [0.5, 0.0, 2.319580078125], "max": [3.5, 0.113037109375, 4.021728515625]}, {"bufferView": 73, "byteOffset": 0, "componentType": 5126, "count": 22, "type": "VEC2"}, {"bufferView": 74, "byteOffset": 0, "componentType": 5126, "count": 22, "type": "VEC3"}, {"bufferView": 75, "byteOffset": 0, "componentType": 5123, "count": 42, "type": "SCALAR"}, {"bufferView": 76, "byteOffset": 0, "componentType": 5126, "count": 20, "type": "VEC3", "min": [0.5, 0.10009765625, 2.319580078125], "max": [1.5, 0.14990234375, 4.049560546875]}, {"bufferView": 77, "byteOffset": 0, "componentType": 5126, "count": 20, "type": "VEC2"}, {"bufferView": 78, "byteOffset": 0, "componentType": 5126, "count": 20, "type": "VEC3"}, {"bufferView": 79, "byteOffset": 0, "componentType": 5123, "count": 30, "type": "SCALAR"}, {"bufferView": 80, "byteOffset": 0, "componentType": 5126, "count": 16, "type": "VEC3", "min": [1.303955078125, 0.0, -0.177490234375], "max": [2.6962890625, 1.8154296875, 1.25]}, {"bufferView": 81, "byteOffset": 0, "componentType": 5126, "count": 16, "type": "VEC2"}, {"bufferView": 82, "byteOffset": 0, "componentType": 5126, "count": 16, "type": "VEC3"}, {"bufferView": 83, "byteOffset": 0, "componentType": 5123, "count": 24, "type": "SCALAR"}, {"bufferView": 84, "byteOffset": 0, "componentType": 5126, "count": 14, "type": "VEC3", "min": [0.5, 0.625, -0.177490234375], "max": [3.5, 1.210205078125, 4.0]}, {"bufferView": 85, "byteOffset": 0, "componentType": 5126, "count": 14, "type": "VEC2"}, {"bufferView": 86, "byteOffset": 0, "componentType": 5126, "count": 14, "type": "VEC3"}, {"bufferView": 87, "byteOffset": 0, "componentType": 5123, "count": 24, "type": "SCALAR"}, {"bufferView": 88, "byteOffset": 0, "componentType": 5126, "count": 13, "type": "VEC3", "min": [0.5, 0.0, 1.866455078125], "max": [3.5, 0.625, 4.0]}, {"bufferView": 89, "byteOffset": 0, "componentType": 5126, "count": 13, "type": "VEC2"}, {"bufferView": 90, "byteOffset": 0, "componentType": 5126, "count": 13, "type": "VEC3"}, {"bufferView": 91, "byteOffset": 0, "componentType": 5123, "count": 21, "type": "SCALAR"}, {"bufferView": 92, "byteOffset": 0, "componentType": 5126, "count": 8, "type": "VEC3", "min": [0.5, 1.2607421875, 1.866455078125], "max": [3.5, 1.8154296875, 4.0]}, {"bufferView": 93, "byteOffset": 0, "componentType": 5126, "count": 8, "type": "VEC2"}, {"bufferView": 94, "byteOffset": 0, "componentType": 5126, "count": 8, "type": "VEC3"}, {"bufferView": 95, "byteOffset": 0, "componentType": 5123, "count": 12, "type": "SCALAR"}, {"bufferView": 96, "byteOffset": 0, "componentType": 5126, "count": 8, "type": "VEC3", "min": [0.5, 0.75, 1.866455078125], "max": [3.5, 1.2607421875, 4.0]}, {"bufferView": 97, "byteOffset": 0, "componentType": 5126, "count": 8, "type": "VEC2"}, {"bufferView": 98, "byteOffset": 0, "componentType": 5126, "count": 8, "type": "VEC3"}, {"bufferView": 99, "byteOffset": 0, "componentType": 5123, "count": 12, "type": "SCALAR"}, {"bufferView": 100, "byteOffset": 0, "componentType": 5126, "count": 6, "type": "VEC3", "min": [0.500244140625, 1.134765625, 2.978759765625], "max": [0.66357421875, 1.406982421875, 3.16455078125]}, {"bufferView": 101, "byteOffset": 0, "componentType": 5126, "count": 6, "type": "VEC2"}, {"bufferView": 102, "byteOffset": 0, "componentType": 5126, "count": 6, "type": "VEC3"}, {"bufferView": 103, "byteOffset": 0, "componentType": 5123, "count": 12, "type": "SCALAR"}, {"bufferView": 104, "byteOffset": 0, "componentType": 5126, "count": 14, "type": "VEC3", "min": [0.58544921875, 0.17431640625, 2.7861328125], "max": [0.833740234375, 1.064697265625, 3.4677734375]}, {"bufferView": 105, "byteOffset": 0, "componentType": 5126, "count": 14, "type": "VEC2"}, {"bufferView": 106, "byteOffset": 0, "componentType": 5126, "count": 14, "type": "VEC3"}, {"bufferView": 107, "byteOffset": 0, "componentType": 5123, "count": 24, "type": "SCALAR"}, {"bufferView": 108, "byteOffset": 0, "componentType": 5126, "count": 8, "type": "VEC3", "min": [0.65673828125, 0.53466796875, 2.574951171875], "max": [0.925048828125, 0.831298828125, 2.61328125]}, {"bufferView": 109, "byteOffset": 0, "componentType": 5126, "count": 8, "type": "VEC2"}, {"bufferView": 110, "byteOffset": 0, "componentType": 5126, "count": 8, "type": "VEC3"}, {"bufferView": 111, "byteOffset": 0, "componentType": 5123, "count": 12, "type": "SCALAR"}, {"bufferView": 112, "byteOffset": 0, "componentType": 5126, "count": 3, "type": "VEC3", "min": [3.3125, 1.148193359375, 2.886474609375], "max": [3.3466796875, 1.2197265625, 2.918701171875]}, {"bufferView": 113, "byteOffset": 0, "componentType": 5126, "count": 3, "type": "VEC2"}, {"bufferView": 114, "byteOffset": 0, "componentType": 5126, "count": 3, "type": "VEC3"}, {"bufferView": 115, "byteOffset": 0, "componentType": 5123, "count": 3, "type": "SCALAR"}, {"bufferView": 116, "byteOffset": 0, "componentType": 5126, "count": 63, "type": "VEC3", "min": [3.272216796875, 1.0986328125, 2.76806640625], "max": [3.497802734375, 1.31103515625, 2.97119140625]}, {"bufferView": 117, "byteOffset": 0, "componentType": 5126, "count": 63, "type": "VEC2"}, {"bufferView": 118, "byteOffset": 0, "componentType": 5126, "count": 63, "type": "VEC3"}, {"bufferView": 119, "byteOffset": 0, "componentType": 5123, "count": 111, "type": "SCALAR"}, {"bufferView": 120, "byteOffset": 0, "componentType": 5126, "count": 4, "type": "VEC3", "min": [3.28515625, 1.118408203125, 2.83251953125], "max": [3.387451171875, 1.23974609375, 2.954833984375]}, {"bufferView": 121, "byteOffset": 0, "componentType": 5126, "count": 4, "type": "VEC2"}, {"bufferView": 122, "byteOffset": 0, "componentType": 5126, "count": 4, "type": "VEC3"}, {"bufferView": 123, "byteOffset": 0, "componentType": 5123, "count": 6, "type": "SCALAR"}, {"bufferView": 124, "byteOffset": 0, "componentType": 5126, "count": 19, "type": "VEC3", "min": [0.5, 0.0, 1.25], "max": [3.5, 0.0009765625, 4.0]}, {"bufferView": 125, "byteOffset": 0, "componentType": 5126, "count": 19, "type": "VEC2"}, {"bufferView": 126, "byteOffset": 0, "componentType": 5126, "count": 19, "type": "VEC3"}, {"bufferView": 127, "byteOffset": 0, "componentType": 5123, "count": 33, "type": "SCALAR"}, {"bufferView": 128, "byteOffset": 0, "componentType": 5126, "count": 24, "type": "VEC3", "min": [1.374755859375, 1.4541015625, -0.115234375], "max": [2.660400390625, 1.824951171875, -0.092529296875]}, {"bufferView": 129, "byteOffset": 0, "componentType": 5126, "count": 24, "type": "VEC2"}, {"bufferView": 130, "byteOffset": 0, "componentType": 5126, "count": 24, "type": "VEC3"}, {"bufferView": 131, "byteOffset": 0, "componentType": 5123, "count": 36, "type": "SCALAR"}, {"bufferView": 132, "byteOffset": 0, "componentType": 5126, "count": 38, "type": "VEC3", "min": [1.0205078125, 0.15234375, 3.708740234375], "max": [1.408447265625, 0.1806640625, 3.983154296875]}, {"bufferView": 133, "byteOffset": 0, "componentType": 5126, "count": 38, "type": "VEC2"}, {"bufferView": 134, "byteOffset": 0, "componentType": 5126, "count": 38, "type": "VEC3"}, {"bufferView": 135, "byteOffset": 0, "componentType": 5123, "count": 60, "type": "SCALAR"}, {"bufferView": 136, "byteOffset": 0, "componentType": 5126, "count": 114, "type": "VEC3", "min": [0.7392578125, 0.154296875, 3.703369140625], "max": [0.987060546875, 0.27197265625, 4.031005859375]}, {"bufferView": 137, "byteOffset": 0, "componentType": 5126, "count": 114, "type": "VEC2"}, {"bufferView": 138, "byteOffset": 0, "componentType": 5126, "count": 114, "type": "VEC3"}, {"bufferView": 139, "byteOffset": 0, "componentType": 5123, "count": 186, "type": "SCALAR"}, {"bufferView": 140, "byteOffset": 0, "componentType": 5126, "count": 116, "type": "VEC3", "min": [0.780029296875, 0.22900390625, 3.711669921875], "max": [0.9423828125, 0.284423828125, 4.020751953125]}, {"bufferView": 141, "byteOffset": 0, "componentType": 5126, "count": 116, "type": "VEC2"}, {"bufferView": 142, "byteOffset": 0, "componentType": 5126, "count": 116, "type": "VEC3"}, {"bufferView": 143, "byteOffset": 0, "componentType": 5123, "count": 252, "type": "SCALAR"}, {"bufferView": 144, "byteOffset": 0, "componentType": 5126, "count": 40, "type": "VEC3", "min": [0.59375, 0.907470703125, 3.039794921875], "max": [3.385009765625, 1.048828125, 3.87841796875]}, {"bufferView": 145, "byteOffset": 0, "componentType": 5126, "count": 40, "type": "VEC2"}, {"bufferView": 146, "byteOffset": 0, "componentType": 5126, "count": 40, "type": "VEC3"}, {"bufferView": 147, "byteOffset": 0, "componentType": 5123, "count": 96, "type": "SCALAR"}, {"bufferView": 148, "byteOffset": 0, "componentType": 5126, "count": 200, "type": "VEC3", "min": [0.5712890625, 1.0107421875, 3.01708984375], "max": [3.41064453125, 1.09716796875, 3.898681640625]}, {"bufferView": 149, "byteOffset": 0, "componentType": 5126, "count": 200, "type": "VEC2"}, {"bufferView": 150, "byteOffset": 0, "componentType": 5126, "count": 200, "type": "VEC3"}, {"bufferView": 151, "byteOffset": 0, "componentType": 5123, "count": 264, "type": "SCALAR"}, {"bufferView": 152, "byteOffset": 0, "componentType": 5126, "count": 32, "type": "VEC3", "min": [2.921630859375, 0.0, 3.986328125], "max": [3.36767578125, 0.308837890625, 4.36376953125]}, {"bufferView": 153, "byteOffset": 0, "componentType": 5126, "count": 32, "type": "VEC2"}, {"bufferView": 154, "byteOffset": 0, "componentType": 5126, "count": 32, "type": "VEC3"}, {"bufferView": 155, "byteOffset": 0, "componentType": 5123, "count": 48, "type": "SCALAR"}, {"bufferView": 156, "byteOffset": 0, "componentType": 5126, "count": 66, "type": "VEC3", "min": [1.296142578125, 0.973388671875, 2.025634765625], "max": [2.863037109375, 2.089111328125, 3.125]}, {"bufferView": 157, "byteOffset": 0, "componentType": 5126, "count": 66, "type": "VEC2"}, {"bufferView": 158, "byteOffset": 0, "componentType": 5126, "count": 66, "type": "VEC3"}, {"bufferView": 159, "byteOffset": 0, "componentType": 5123, "count": 108, "type": "SCALAR"}, {"bufferView": 160, "byteOffset": 0, "componentType": 5126, "count": 8, "type": "VEC3", "min": [0.552001953125, 0.49609375, 3.000244140625], "max": [0.64794921875, 0.77490234375, 3.168701171875]}, {"bufferView": 161, "byteOffset": 0, "componentType": 5126, "count": 8, "type": "VEC2"}, {"bufferView": 162, "byteOffset": 0, "componentType": 5126, "count": 8, "type": "VEC3"}, {"bufferView": 163, "byteOffset": 0, "componentType": 5123, "count": 12, "type": "SCALAR"}, {"bufferView": 164, "byteOffset": 0, "componentType": 5126, "count": 4, "type": "VEC3", "min": [0.550048828125, 0.77294921875, 2.801513671875], "max": [0.550048828125, 0.845458984375, 3.26220703125]}, {"bufferView": 165, "byteOffset": 0, "componentType": 5126, "count": 4, "type": "VEC2"}, {"bufferView": 166, "byteOffset": 0, "componentType": 5126, "count": 4, "type": "VEC3"}, {"bufferView": 167, "byteOffset": 0, "componentType": 5123, "count": 6, "type": "SCALAR"}, {"bufferView": 168, "byteOffset": 0, "componentType": 5126, "count": 94, "type": "VEC3", "min": [1.2734375, 0.2431640625, 0.41162109375], "max": [2.2265625, 0.67578125, 1.151611328125]}, {"bufferView": 169, "byteOffset": 0, "componentType": 5126, "count": 94, "type": "VEC2"}, {"bufferView": 170, "byteOffset": 0, "componentType": 5126, "count": 94, "type": "VEC3"}, {"bufferView": 171, "byteOffset": 0, "componentType": 5123, "count": 198, "type": "SCALAR"}, {"bufferView": 172, "byteOffset": 0, "componentType": 5126, "count": 44, "type": "VEC3", "min": [0.6357421875, 0.598876953125, 2.697509765625], "max": [0.86328125, 0.937744140625, 2.70654296875]}, {"bufferView": 173, "byteOffset": 0, "componentType": 5126, "count": 44, "type": "VEC2"}, {"bufferView": 174, "byteOffset": 0, "componentType": 5126, "count": 44, "type": "VEC3"}, {"bufferView": 175, "byteOffset": 0, "componentType": 5123, "count": 60, "type": "SCALAR"}, {"bufferView": 176, "byteOffset": 0, "componentType": 5126, "count": 10, "type": "VEC3", "min": [3.0, 0.10009765625, 2.3388671875], "max": [3.5, 0.14990234375, 3.125]}, {"bufferView": 177, "byteOffset": 0, "componentType": 5126, "count": 10, "type": "VEC2"}, {"bufferView": 178, "byteOffset": 0, "componentType": 5126, "count": 10, "type": "VEC3"}, {"bufferView": 179, "byteOffset": 0, "componentType": 5123, "count": 18, "type": "SCALAR"}, {"bufferView": 180, "byteOffset": 0, "componentType": 5126, "count": 344, "type": "VEC3", "min": [3.044677734375, 0.138427734375, 2.379150390625], "max": [3.4208984375, 0.187255859375, 3.074462890625]}, {"bufferView": 181, "byteOffset": 0, "componentType": 5126, "count": 344, "type": "VEC2"}, {"bufferView": 182, "byteOffset": 0, "componentType": 5126, "count": 344, "type": "VEC3"}, {"bufferView": 183, "byteOffset": 0, "componentType": 5123, "count": 492, "type": "SCALAR"}, {"bufferView": 184, "byteOffset": 0, "componentType": 5126, "count": 18, "type": "VEC3", "min": [3.044677734375, 0.16455078125, 2.379150390625], "max": [3.4208984375, 0.1650390625, 3.074462890625]}, {"bufferView": 185, "byteOffset": 0, "componentType": 5126, "count": 18, "type": "VEC2"}, {"bufferView": 186, "byteOffset": 0, "componentType": 5126, "count": 18, "type": "VEC3"}, {"bufferView": 187, "byteOffset": 0, "componentType": 5123, "count": 30, "type": "SCALAR"}, {"bufferView": 188, "byteOffset": 0, "componentType": 5126, "count": 86, "type": "VEC3", "min": [1.320556640625, 0.449951171875, 0.222412109375], "max": [2.181640625, 1.037109375, 1.083251953125]}, {"bufferView": 189, "byteOffset": 0, "componentType": 5126, "count": 86, "type": "VEC2"}, {"bufferView": 190, "byteOffset": 0, "componentType": 5126, "count": 86, "type": "VEC3"}, {"bufferView": 191, "byteOffset": 0, "componentType": 5123, "count": 216, "type": "SCALAR"}, {"bufferView": 192, "byteOffset": 0, "componentType": 5126, "count": 8, "type": "VEC3", "min": [3.25, 0.00048828125, 3.300048828125], "max": [3.75439453125, 0.00048828125, 3.699951171875]}, {"bufferView": 193, "byteOffset": 0, "componentType": 5126, "count": 8, "type": "VEC2"}, {"bufferView": 194, "byteOffset": 0, "componentType": 5126, "count": 8, "type": "VEC3"}, {"bufferView": 195, "byteOffset": 0, "componentType": 5123, "count": 12, "type": "SCALAR"}], "samplers": [{"magFilter": 9729, "minFilter": 9729, "wrapS": 10497, "wrapT": 10497}]}