{"asset": {"version": "2.0", "generator": "tongari-nsbmd-to-gltf"}, "scene": 0, "scenes": [{"nodes": [0, 3]}], "nodes": [{"name": "uma_fire", "translation": [4.05615234375, 0.697509765625, 6.864990234375], "children": [1, 2]}, {"name": "fire5", "translation": [2.982421875, 0.6142578125, -4.21484375], "rotation": [-0.6532670300114647, -0.27057513142351286, 0.27057513142351286, 0.6532670300114648]}, {"name": "fire6", "translation": [2.982421875, 0.6142578125, -4.21484375], "rotation": [-0.6532670300114647, 0.27057513142351286, -0.27057513142351286, 0.6532670300114648]}, {"mesh": 0, "name": "uma_fire"}], "meshes": [{"name": "uma_fire", "primitives": [{"attributes": {"POSITION": 0, "TEXCOORD_0": 1}, "indices": 2, "mode": 4, "material": 1}, {"attributes": {"POSITION": 3, "TEXCOORD_0": 4}, "indices": 5, "mode": 4, "material": 0}]}], "materials": [{"name": "ov_fire_k2", "pbrMetallicRoughness": {"baseColorFactor": [1.0, 1.0, 1.0, 1.0], "metallicFactor": 0.0, "roughnessFactor": 1.0}, "alphaMode": "OPAQUE", "doubleSided": true}, {"name": "ov_fire_k3", "pbrMetallicRoughness": {"baseColorFactor": [1.0, 1.0, 1.0, 1.0], "metallicFactor": 0.0, "roughnessFactor": 1.0}, "alphaMode": "OPAQUE", "doubleSided": true}], "buffers": [{"byteLength": 2020, "uri": "data:application/octet-stream;base64,"}], "bufferViews": [{"buffer": 0, "byteOffset": 0, "byteLength": 384}, {"buffer": 0, "byteOffset": 384, "byteLength": 256}, {"buffer": 0, "byteOffset": 640, "byteLength": 168}, {"buffer": 0, "byteOffset": 808, "byteLength": 576}, {"buffer": 0, "byteOffset": 1384, "byteLength": 384}, {"buffer": 0, "byteOffset": 1768, "byteLength": 252}], "accessors": [{"bufferView": 0, "byteOffset": 0, "componentType": 5126, "count": 32, "type": "VEC3", "min": [3.27734375, 0.71484375, 6.70263671875], "max": [4.874267578125, 1.181640625, 7.70751953125]}, {"bufferView": 1, "byteOffset": 0, "componentType": 5126, "count": 32, "type": "VEC2"}, {"bufferView": 2, "byteOffset": 0, "componentType": 5123, "count": 84, "type": "SCALAR"}, {"bufferView": 3, "byteOffset": 0, "componentType": 5126, "count": 48, "type": "VEC3", "min": [3.25341796875, 0.697509765625, 6.753662109375], "max": [4.874267578125, 1.181640625, 7.75830078125]}, {"bufferView": 4, "byteOffset": 0, "componentType": 5126, "count": 48, "type": "VEC2"}, {"bufferView": 5, "byteOffset": 0, "componentType": 5123, "count": 126, "type": "SCALAR"}], "samplers": [{"magFilter": 9729, "minFilter": 9729, "wrapS": 10497, "wrapT": 10497}]}