{"asset": {"version": "2.0", "generator": "tongari-nsbmd-to-gltf"}, "scene": 0, "scenes": [{"nodes": [0, 6]}], "nodes": [{"name": "u_htck00_ss_re", "translation": [0.0, 0.0, 0.0], "children": [1]}, {"name": "body", "translation": [-0.004638671875, 0.25439453125, 0.005615234375], "children": [2, 3, 4, 5]}, {"name": "topping05", "translation": [-0.12744140625, 0.13037109375, -0.149658203125]}, {"name": "topping14", "translation": [0.17236328125, 0.13037109375, -0.101318359375]}, {"name": "topping15", "translation": [0.147705078125, 0.13037109375, 0.160400390625]}, {"name": "topping17", "translation": [-0.160400390625, 0.13037109375, 0.1142578125]}, {"mesh": 0, "name": "5502u_htck00_ss"}], "meshes": [{"name": "5502u_htck00_ss", "primitives": [{"attributes": {"POSITION": 0, "TEXCOORD_0": 1, "NORMAL": 2}, "indices": 3, "mode": 4, "material": 2}, {"attributes": {"POSITION": 4, "TEXCOORD_0": 5, "NORMAL": 6}, "indices": 7, "mode": 4, "material": 1}, {"attributes": {"POSITION": 8, "TEXCOORD_0": 9, "NORMAL": 10}, "indices": 11, "mode": 4, "material": 0}, {"attributes": {"POSITION": 12, "TEXCOORD_0": 13, "NORMAL": 14}, "indices": 15, "mode": 4, "material": 3}, {"attributes": {"POSITION": 16, "TEXCOORD_0": 17, "NORMAL": 18}, "indices": 19, "mode": 4, "material": 4}, {"attributes": {"POSITION": 20, "TEXCOORD_0": 21, "NORMAL": 22}, "indices": 23, "mode": 4, "material": 3}, {"attributes": {"POSITION": 24, "TEXCOORD_0": 25, "NORMAL": 26}, "indices": 27, "mode": 4, "material": 4}]}], "materials": [{"name": "ucc_hotcake0", "pbrMetallicRoughness": {"baseColorFactor": [0.803921568627451, 0.803921568627451, 0.803921568627451, 1.0], "metallicFactor": 0.0, "roughnessFactor": 1.0}, "alphaMode": "OPAQUE", "doubleSided": true}, {"name": "ucc_hotcake1", "pbrMetallicRoughness": {"baseColorFactor": [0.803921568627451, 0.803921568627451, 0.803921568627451, 0.8064516129032258], "metallicFactor": 0.0, "roughnessFactor": 1.0}, "alphaMode": "BLEND", "doubleSided": true}, {"name": "ucc_hotcake2", "pbrMetallicRoughness": {"baseColorFactor": [0.803921568627451, 0.803921568627451, 0.803921568627451, 1.0], "metallicFactor": 0.0, "roughnessFactor": 1.0}, "alphaMode": "OPAQUE", "doubleSided": true}, {"name": "ucc_top0", "pbrMetallicRoughness": {"baseColorFactor": [1.0, 1.0, 1.0, 1.0], "metallicFactor": 0.0, "roughnessFactor": 1.0}, "alphaMode": "OPAQUE", "doubleSided": true}, {"name": "ucc_top1", "pbrMetallicRoughness": {"baseColorFactor": [0.803921568627451, 0.803921568627451, 0.803921568627451, 1.0], "metallicFactor": 0.0, "roughnessFactor": 1.0}, "alphaMode": "OPAQUE", "doubleSided": true}], "buffers": [{"byteLength": 5228, "uri": "data:application/octet-stream;base64,"}], "bufferViews": [{"buffer": 0, "byteOffset": 0, "byteLength": 168}, {"buffer": 0, "byteOffset": 168, "byteLength": 112}, {"buffer": 0, "byteOffset": 280, "byteLength": 168}, {"buffer": 0, "byteOffset": 448, "byteLength": 48}, {"buffer": 0, "byteOffset": 496, "byteLength": 720}, {"buffer": 0, "byteOffset": 1216, "byteLength": 480}, {"buffer": 0, "byteOffset": 1696, "byteLength": 720}, {"buffer": 0, "byteOffset": 2416, "byteLength": 192}, {"buffer": 0, "byteOffset": 2608, "byteLength": 696}, {"buffer": 0, "byteOffset": 3304, "byteLength": 464}, {"buffer": 0, "byteOffset": 3768, "byteLength": 696}, {"buffer": 0, "byteOffset": 4464, "byteLength": 204}, {"buffer": 0, "byteOffset": 4668, "byteLength": 48}, {"buffer": 0, "byteOffset": 4716, "byteLength": 32}, {"buffer": 0, "byteOffset": 4748, "byteLength": 48}, {"buffer": 0, "byteOffset": 4796, "byteLength": 12}, {"buffer": 0, "byteOffset": 4808, "byteLength": 48}, {"buffer": 0, "byteOffset": 4856, "byteLength": 32}, {"buffer": 0, "byteOffset": 4888, "byteLength": 48}, {"buffer": 0, "byteOffset": 4936, "byteLength": 12}, {"buffer": 0, "byteOffset": 4948, "byteLength": 48}, {"buffer": 0, "byteOffset": 4996, "byteLength": 32}, {"buffer": 0, "byteOffset": 5028, "byteLength": 48}, {"buffer": 0, "byteOffset": 5076, "byteLength": 12}, {"buffer": 0, "byteOffset": 5088, "byteLength": 48}, {"buffer": 0, "byteOffset": 5136, "byteLength": 32}, {"buffer": 0, "byteOffset": 5168, "byteLength": 48}, {"buffer": 0, "byteOffset": 5216, "byteLength": 12}], "accessors": [{"bufferView": 0, "byteOffset": 0, "componentType": 5126, "count": 14, "type": "VEC3", "min": [-0.44970703125, 0.02490234375, -0.448486328125], "max": [0.44970703125, 0.145751953125, 0.450927734375]}, {"bufferView": 1, "byteOffset": 0, "componentType": 5126, "count": 14, "type": "VEC2"}, {"bufferView": 2, "byteOffset": 0, "componentType": 5126, "count": 14, "type": "VEC3"}, {"bufferView": 3, "byteOffset": 0, "componentType": 5123, "count": 24, "type": "SCALAR"}, {"bufferView": 4, "byteOffset": 0, "componentType": 5126, "count": 60, "type": "VEC3", "min": [-0.320556640625, -0.139404296875, -0.33154296875], "max": [0.31591796875, 0.09130859375, 0.33154296875]}, {"bufferView": 5, "byteOffset": 0, "componentType": 5126, "count": 60, "type": "VEC2"}, {"bufferView": 6, "byteOffset": 0, "componentType": 5126, "count": 60, "type": "VEC3"}, {"bufferView": 7, "byteOffset": 0, "componentType": 5123, "count": 96, "type": "SCALAR"}, {"bufferView": 8, "byteOffset": 0, "componentType": 5126, "count": 58, "type": "VEC3", "min": [-0.311279296875, -0.14111328125, -0.321533203125], "max": [0.320556640625, 0.14111328125, 0.310302734375]}, {"bufferView": 9, "byteOffset": 0, "componentType": 5126, "count": 58, "type": "VEC2"}, {"bufferView": 10, "byteOffset": 0, "componentType": 5126, "count": 58, "type": "VEC3"}, {"bufferView": 11, "byteOffset": 0, "componentType": 5123, "count": 102, "type": "SCALAR"}, {"bufferView": 12, "byteOffset": 0, "componentType": 5126, "count": 4, "type": "VEC3", "min": [-0.08203125, -0.08203125, 0.0], "max": [0.08203125, 0.08203125, 0.0]}, {"bufferView": 13, "byteOffset": 0, "componentType": 5126, "count": 4, "type": "VEC2"}, {"bufferView": 14, "byteOffset": 0, "componentType": 5126, "count": 4, "type": "VEC3"}, {"bufferView": 15, "byteOffset": 0, "componentType": 5123, "count": 6, "type": "SCALAR"}, {"bufferView": 16, "byteOffset": 0, "componentType": 5126, "count": 4, "type": "VEC3", "min": [-0.08203125, -0.08203125, 0.0], "max": [0.08203125, 0.08203125, 0.0]}, {"bufferView": 17, "byteOffset": 0, "componentType": 5126, "count": 4, "type": "VEC2"}, {"bufferView": 18, "byteOffset": 0, "componentType": 5126, "count": 4, "type": "VEC3"}, {"bufferView": 19, "byteOffset": 0, "componentType": 5123, "count": 6, "type": "SCALAR"}, {"bufferView": 20, "byteOffset": 0, "componentType": 5126, "count": 4, "type": "VEC3", "min": [-0.08203125, -0.08203125, -0.0009765625], "max": [0.08203125, 0.08203125, 0.0009765625]}, {"bufferView": 21, "byteOffset": 0, "componentType": 5126, "count": 4, "type": "VEC2"}, {"bufferView": 22, "byteOffset": 0, "componentType": 5126, "count": 4, "type": "VEC3"}, {"bufferView": 23, "byteOffset": 0, "componentType": 5123, "count": 6, "type": "SCALAR"}, {"bufferView": 24, "byteOffset": 0, "componentType": 5126, "count": 4, "type": "VEC3", "min": [-0.082275390625, -0.082275390625, 0.0], "max": [0.082275390625, 0.082275390625, 0.0]}, {"bufferView": 25, "byteOffset": 0, "componentType": 5126, "count": 4, "type": "VEC2"}, {"bufferView": 26, "byteOffset": 0, "componentType": 5126, "count": 4, "type": "VEC3"}, {"bufferView": 27, "byteOffset": 0, "componentType": 5123, "count": 6, "type": "SCALAR"}], "samplers": [{"magFilter": 9729, "minFilter": 9729, "wrapS": 10497, "wrapT": 10497}]}