{"asset": {"version": "2.0", "generator": "tongari-nsbmd-to-gltf"}, "scene": 0, "scenes": [{"nodes": [0, 7]}], "nodes": [{"name": "eve_water", "translation": [0.0, 0.0, 0.0], "children": [1, 2, 4, 5, 6]}, {"name": "c1", "translation": [-0.662841796875, 0.1904296875, -0.57763671875]}, {"name": "egg", "translation": [0.08203125, 0.700927734375, -0.337646484375], "children": [3]}, {"name": "milk", "translation": [0.121826171875, -0.195556640625, -0.51416015625]}, {"name": "polySurface1", "translation": [-1.069091796875, 0.0966796875, -0.48388671875]}, {"name": "polySurface2", "translation": [0.0947265625, 0.76416015625, -0.350830078125]}, {"name": "table00", "translation": [-0.45263671875, -0.372314453125, -0.57763671875]}, {"mesh": 0, "name": "5252eve_katunabe"}], "meshes": [{"name": "5252eve_katunabe", "primitives": [{"attributes": {"POSITION": 0, "TEXCOORD_0": 1, "NORMAL": 2}, "indices": 3, "mode": 4, "material": 0}, {"attributes": {"POSITION": 4, "TEXCOORD_0": 5, "NORMAL": 6}, "indices": 7, "mode": 4, "material": 1}, {"attributes": {"POSITION": 8, "TEXCOORD_0": 9, "NORMAL": 10}, "indices": 11, "mode": 4, "material": 1}, {"attributes": {"POSITION": 12, "TEXCOORD_0": 13, "NORMAL": 14}, "indices": 15, "mode": 4, "material": 3}, {"attributes": {"POSITION": 16, "TEXCOORD_0": 17}, "indices": 18, "mode": 4, "material": 2}, {"attributes": {"POSITION": 19, "TEXCOORD_0": 20, "NORMAL": 21}, "indices": 22, "mode": 4, "material": 3}]}], "materials": [{"name": "ball_00re", "pbrMetallicRoughness": {"baseColorFactor": [1.0, 1.0, 1.0, 1.0], "metallicFactor": 0.0, "roughnessFactor": 1.0}, "alphaMode": "OPAQUE", "doubleSided": true}, {"name": "eve_water0_m", "pbrMetallicRoughness": {"baseColorFactor": [1.0, 1.0, 1.0, 1.0], "metallicFactor": 0.0, "roughnessFactor": 1.0}, "alphaMode": "OPAQUE", "doubleSided": true}, {"name": "eve_water1_m", "pbrMetallicRoughness": {"baseColorFactor": [1.0, 1.0, 1.0, 1.0], "metallicFactor": 0.0, "roughnessFactor": 1.0}, "alphaMode": "OPAQUE", "doubleSided": true}, {"name": "eve_water_m", "pbrMetallicRoughness": {"baseColorFactor": [1.0, 1.0, 1.0, 1.0], "metallicFactor": 0.0, "roughnessFactor": 1.0}, "alphaMode": "OPAQUE", "doubleSided": true}], "buffers": [{"byteLength": 11008, "uri": "data:application/octet-stream;base64,"}], "bufferViews": [{"buffer": 0, "byteOffset": 0, "byteLength": 1032}, {"buffer": 0, "byteOffset": 1032, "byteLength": 688}, {"buffer": 0, "byteOffset": 1720, "byteLength": 1032}, {"buffer": 0, "byteOffset": 2752, "byteLength": 432}, {"buffer": 0, "byteOffset": 3184, "byteLength": 480}, {"buffer": 0, "byteOffset": 3664, "byteLength": 320}, {"buffer": 0, "byteOffset": 3984, "byteLength": 480}, {"buffer": 0, "byteOffset": 4464, "byteLength": 180}, {"buffer": 0, "byteOffset": 4644, "byteLength": 1272}, {"buffer": 0, "byteOffset": 5916, "byteLength": 848}, {"buffer": 0, "byteOffset": 6764, "byteLength": 1272}, {"buffer": 0, "byteOffset": 8036, "byteLength": 432}, {"buffer": 0, "byteOffset": 8468, "byteLength": 96}, {"buffer": 0, "byteOffset": 8564, "byteLength": 64}, {"buffer": 0, "byteOffset": 8628, "byteLength": 96}, {"buffer": 0, "byteOffset": 8724, "byteLength": 24}, {"buffer": 0, "byteOffset": 8748, "byteLength": 144}, {"buffer": 0, "byteOffset": 8892, "byteLength": 96}, {"buffer": 0, "byteOffset": 8988, "byteLength": 36}, {"buffer": 0, "byteOffset": 9024, "byteLength": 672}, {"buffer": 0, "byteOffset": 9696, "byteLength": 448}, {"buffer": 0, "byteOffset": 10144, "byteLength": 672}, {"buffer": 0, "byteOffset": 10816, "byteLength": 192}], "accessors": [{"bufferView": 0, "byteOffset": 0, "componentType": 5126, "count": 86, "type": "VEC3", "min": [-0.58740234375, 0.322265625, -0.58740234375], "max": [0.58740234375, 0.898681640625, 0.58740234375]}, {"bufferView": 1, "byteOffset": 0, "componentType": 5126, "count": 86, "type": "VEC2"}, {"bufferView": 2, "byteOffset": 0, "componentType": 5126, "count": 86, "type": "VEC3"}, {"bufferView": 3, "byteOffset": 0, "componentType": 5123, "count": 216, "type": "SCALAR"}, {"bufferView": 4, "byteOffset": 0, "componentType": 5126, "count": 40, "type": "VEC3", "min": [-0.294189453125, -0.204833984375, -0.254638671875], "max": [0.294189453125, 0.048583984375, 0.254638671875]}, {"bufferView": 5, "byteOffset": 0, "componentType": 5126, "count": 40, "type": "VEC2"}, {"bufferView": 6, "byteOffset": 0, "componentType": 5126, "count": 40, "type": "VEC3"}, {"bufferView": 7, "byteOffset": 0, "componentType": 5123, "count": 90, "type": "SCALAR"}, {"bufferView": 8, "byteOffset": 0, "componentType": 5126, "count": 106, "type": "VEC3", "min": [-0.22802734375, 0.0, -0.255126953125], "max": [0.344970703125, 0.708984375, 0.255126953125]}, {"bufferView": 9, "byteOffset": 0, "componentType": 5126, "count": 106, "type": "VEC2"}, {"bufferView": 10, "byteOffset": 0, "componentType": 5126, "count": 106, "type": "VEC3"}, {"bufferView": 11, "byteOffset": 0, "componentType": 5123, "count": 216, "type": "SCALAR"}, {"bufferView": 12, "byteOffset": 0, "componentType": 5126, "count": 8, "type": "VEC3", "min": [-0.083251953125, -0.09228515625, -0.447998046875], "max": [0.083251953125, 0.09228515625, 0.447998046875]}, {"bufferView": 13, "byteOffset": 0, "componentType": 5126, "count": 8, "type": "VEC2"}, {"bufferView": 14, "byteOffset": 0, "componentType": 5126, "count": 8, "type": "VEC3"}, {"bufferView": 15, "byteOffset": 0, "componentType": 5123, "count": 12, "type": "SCALAR"}, {"bufferView": 16, "byteOffset": 0, "componentType": 5126, "count": 12, "type": "VEC3", "min": [-0.215087890625, -0.1396484375, -0.109619140625], "max": [0.215087890625, 0.1396484375, 0.109619140625]}, {"bufferView": 17, "byteOffset": 0, "componentType": 5126, "count": 12, "type": "VEC2"}, {"bufferView": 18, "byteOffset": 0, "componentType": 5123, "count": 18, "type": "SCALAR"}, {"bufferView": 19, "byteOffset": 0, "componentType": 5126, "count": 56, "type": "VEC3", "min": [-0.84716796875, 0.4326171875, -0.43798828125], "max": [0.8759765625, 0.9521484375, 0.479248046875]}, {"bufferView": 20, "byteOffset": 0, "componentType": 5126, "count": 56, "type": "VEC2"}, {"bufferView": 21, "byteOffset": 0, "componentType": 5126, "count": 56, "type": "VEC3"}, {"bufferView": 22, "byteOffset": 0, "componentType": 5123, "count": 96, "type": "SCALAR"}], "samplers": [{"magFilter": 9729, "minFilter": 9729, "wrapS": 10497, "wrapT": 10497}]}