{"asset": {"version": "2.0", "generator": "tongari-nsbmd-to-gltf"}, "scene": 0, "scenes": [{"nodes": [0, 3]}], "nodes": [{"name": "ryo_ijigen", "translation": [0.0, 0.0, 0.10009765625], "children": [1, 2]}, {"name": "polySurface1", "translation": [0.625, 0.5, 0.612548828125]}, {"name": "polySurface2", "translation": [0.625, 0.5, 0.612548828125]}, {"mesh": 0, "name": "ryo_ijigen"}], "meshes": [{"name": "ryo_ijigen", "primitives": [{"attributes": {"POSITION": 0, "TEXCOORD_0": 1}, "indices": 2, "mode": 4, "material": 0}, {"attributes": {"POSITION": 3, "TEXCOORD_0": 4}, "indices": 5, "mode": 4, "material": 0}]}], "materials": [{"name": "floor", "pbrMetallicRoughness": {"baseColorFactor": [1.0, 1.0, 1.0, 1.0], "metallicFactor": 0.0, "roughnessFactor": 1.0}, "alphaMode": "OPAQUE", "doubleSided": true}], "buffers": [{"byteLength": 288, "uri": "data:application/octet-stream;base64,"}], "bufferViews": [{"buffer": 0, "byteOffset": 0, "byteLength": 96}, {"buffer": 0, "byteOffset": 96, "byteLength": 64}, {"buffer": 0, "byteOffset": 160, "byteLength": 36}, {"buffer": 0, "byteOffset": 196, "byteLength": 48}, {"buffer": 0, "byteOffset": 244, "byteLength": 32}, {"buffer": 0, "byteOffset": 276, "byteLength": 12}], "accessors": [{"bufferView": 0, "byteOffset": 0, "componentType": 5126, "count": 8, "type": "VEC3", "min": [-4.0, -2.0, -3.89990234375], "max": [4.0, 2.0, 4.10009765625]}, {"bufferView": 1, "byteOffset": 0, "componentType": 5126, "count": 8, "type": "VEC2"}, {"bufferView": 2, "byteOffset": 0, "componentType": 5123, "count": 18, "type": "SCALAR"}, {"bufferView": 3, "byteOffset": 0, "componentType": 5126, "count": 4, "type": "VEC3", "min": [-4.0, -2.0, -3.89990234375], "max": [4.0, -2.0, 4.10009765625]}, {"bufferView": 4, "byteOffset": 0, "componentType": 5126, "count": 4, "type": "VEC2"}, {"bufferView": 5, "byteOffset": 0, "componentType": 5123, "count": 6, "type": "SCALAR"}], "samplers": [{"magFilter": 9729, "minFilter": 9729, "wrapS": 10497, "wrapT": 10497}]}