{"asset": {"version": "2.0", "generator": "tongari-nsbmd-to-gltf"}, "scene": 0, "scenes": [{"nodes": [0, 1]}], "nodes": [{"name": "polySurface59", "translation": [0.0, 0.0, 0.0]}, {"mesh": 0, "name": "sc_wc_women"}], "meshes": [{"name": "sc_wc_women", "primitives": [{"attributes": {"POSITION": 0, "TEXCOORD_0": 1, "NORMAL": 2}, "indices": 3, "mode": 4, "material": 1}, {"attributes": {"POSITION": 4, "TEXCOORD_0": 5, "NORMAL": 6}, "indices": 7, "mode": 4, "material": 3}, {"attributes": {"POSITION": 8, "TEXCOORD_0": 9, "NORMAL": 10}, "indices": 11, "mode": 4, "material": 15}, {"attributes": {"POSITION": 12, "TEXCOORD_0": 13, "NORMAL": 14}, "indices": 15, "mode": 4, "material": 16}, {"attributes": {"POSITION": 16, "TEXCOORD_0": 17, "NORMAL": 18}, "indices": 19, "mode": 4, "material": 10}, {"attributes": {"POSITION": 20, "TEXCOORD_0": 21, "NORMAL": 22}, "indices": 23, "mode": 4, "material": 11}, {"attributes": {"POSITION": 24, "TEXCOORD_0": 25, "NORMAL": 26}, "indices": 27, "mode": 4, "material": 9}, {"attributes": {"POSITION": 28, "TEXCOORD_0": 29, "NORMAL": 30}, "indices": 31, "mode": 4, "material": 19}, {"attributes": {"POSITION": 32, "TEXCOORD_0": 33, "NORMAL": 34}, "indices": 35, "mode": 4, "material": 8}, {"attributes": {"POSITION": 36, "TEXCOORD_0": 37, "NORMAL": 38}, "indices": 39, "mode": 4, "material": 18}, {"attributes": {"POSITION": 40, "TEXCOORD_0": 41, "NORMAL": 42}, "indices": 43, "mode": 4, "material": 7}, {"attributes": {"POSITION": 44, "TEXCOORD_0": 45, "NORMAL": 46}, "indices": 47, "mode": 4, "material": 20}, {"attributes": {"POSITION": 48, "TEXCOORD_0": 49, "NORMAL": 50}, "indices": 51, "mode": 4, "material": 12}, {"attributes": {"POSITION": 52, "TEXCOORD_0": 53, "NORMAL": 54}, "indices": 55, "mode": 4, "material": 5}, {"attributes": {"POSITION": 56, "TEXCOORD_0": 57, "NORMAL": 58}, "indices": 59, "mode": 4, "material": 6}, {"attributes": {"POSITION": 60, "TEXCOORD_0": 61, "NORMAL": 62}, "indices": 63, "mode": 4, "material": 13}, {"attributes": {"POSITION": 64, "TEXCOORD_0": 65, "NORMAL": 66}, "indices": 67, "mode": 4, "material": 0}, {"attributes": {"POSITION": 68, "TEXCOORD_0": 69, "NORMAL": 70}, "indices": 71, "mode": 4, "material": 14}, {"attributes": {"POSITION": 72, "TEXCOORD_0": 73, "NORMAL": 74}, "indices": 75, "mode": 4, "material": 17}, {"attributes": {"POSITION": 76, "TEXCOORD_0": 77, "NORMAL": 78}, "indices": 79, "mode": 4, "material": 4}, {"attributes": {"POSITION": 80, "TEXCOORD_0": 81, "NORMAL": 82}, "indices": 83, "mode": 4, "material": 2}]}], "materials": [{"name": "floor", "pbrMetallicRoughness": {"baseColorFactor": [1.0, 1.0, 1.0, 1.0], "metallicFactor": 0.0, "roughnessFactor": 1.0}, "alphaMode": "OPAQUE", "doubleSided": true}, {"name": "lambert31", "pbrMetallicRoughness": {"baseColorFactor": [1.0, 1.0, 1.0, 1.0], "metallicFactor": 0.0, "roughnessFactor": 1.0}, "alphaMode": "OPAQUE", "doubleSided": true}, {"name": "object_shade", "pbrMetallicRoughness": {"baseColorFactor": [0.803921568627451, 0.803921568627451, 0.803921568627451, 0.41935483870967744], "metallicFactor": 0.0, "roughnessFactor": 1.0}, "alphaMode": "BLEND", "doubleSided": true}, {"name": "sc_exit", "pbrMetallicRoughness": {"baseColorFactor": [1.0, 1.0, 1.0, 1.0], "metallicFactor": 0.0, "roughnessFactor": 1.0}, "alphaMode": "OPAQUE", "doubleSided": true}, {"name": "shade", "pbrMetallicRoughness": {"baseColorFactor": [0.803921568627451, 0.803921568627451, 0.803921568627451, 1.0], "metallicFactor": 0.0, "roughnessFactor": 1.0}, "alphaMode": "OPAQUE", "doubleSided": true}, {"name": "wc_reef0", "pbrMetallicRoughness": {"baseColorFactor": [1.0, 1.0, 1.0, 1.0], "metallicFactor": 0.0, "roughnessFactor": 1.0}, "alphaMode": "OPAQUE", "doubleSided": true}, {"name": "wc_reef1", "pbrMetallicRoughness": {"baseColorFactor": [1.0, 1.0, 1.0, 1.0], "metallicFactor": 0.0, "roughnessFactor": 1.0}, "alphaMode": "OPAQUE", "doubleSided": true}, {"name": "wc_w_door", "pbrMetallicRoughness": {"baseColorFactor": [1.0, 1.0, 1.0, 1.0], "metallicFactor": 0.0, "roughnessFactor": 1.0}, "alphaMode": "OPAQUE", "doubleSided": true}, {"name": "wc_w_gomi", "pbrMetallicRoughness": {"baseColorFactor": [1.0, 1.0, 1.0, 1.0], "metallicFactor": 0.0, "roughnessFactor": 1.0}, "alphaMode": "OPAQUE", "doubleSided": true}, {"name": "wc_w_mirror", "pbrMetallicRoughness": {"baseColorFactor": [1.0, 1.0, 1.0, 1.0], "metallicFactor": 0.0, "roughnessFactor": 1.0}, "alphaMode": "OPAQUE", "doubleSided": true}, {"name": "wc_w_paper00", "pbrMetallicRoughness": {"baseColorFactor": [1.0, 1.0, 1.0, 1.0], "metallicFactor": 0.0, "roughnessFactor": 1.0}, "alphaMode": "OPAQUE", "doubleSided": true}, {"name": "wc_w_paper01", "pbrMetallicRoughness": {"baseColorFactor": [1.0, 1.0, 1.0, 1.0], "metallicFactor": 0.0, "roughnessFactor": 1.0}, "alphaMode": "OPAQUE", "doubleSided": true}, {"name": "wc_w_plant", "pbrMetallicRoughness": {"baseColorFactor": [1.0, 1.0, 1.0, 1.0], "metallicFactor": 0.0, "roughnessFactor": 1.0}, "alphaMode": "OPAQUE", "doubleSided": true}, {"name": "wc_w_toiret", "pbrMetallicRoughness": {"baseColorFactor": [1.0, 1.0, 1.0, 1.0], "metallicFactor": 0.0, "roughnessFactor": 1.0}, "alphaMode": "OPAQUE", "doubleSided": true}, {"name": "wc_w_w00", "pbrMetallicRoughness": {"baseColorFactor": [1.0, 1.0, 1.0, 1.0], "metallicFactor": 0.0, "roughnessFactor": 1.0}, "alphaMode": "OPAQUE", "doubleSided": true}, {"name": "wc_w_w01", "pbrMetallicRoughness": {"baseColorFactor": [1.0, 1.0, 1.0, 1.0], "metallicFactor": 0.0, "roughnessFactor": 1.0}, "alphaMode": "OPAQUE", "doubleSided": true}, {"name": "wc_w_w02", "pbrMetallicRoughness": {"baseColorFactor": [1.0, 1.0, 1.0, 1.0], "metallicFactor": 0.0, "roughnessFactor": 1.0}, "alphaMode": "OPAQUE", "doubleSided": true}, {"name": "wc_w_w03", "pbrMetallicRoughness": {"baseColorFactor": [1.0, 1.0, 1.0, 1.0], "metallicFactor": 0.0, "roughnessFactor": 1.0}, "alphaMode": "OPAQUE", "doubleSided": true}, {"name": "wc_w_wash00", "pbrMetallicRoughness": {"baseColorFactor": [1.0, 1.0, 1.0, 1.0], "metallicFactor": 0.0, "roughnessFactor": 1.0}, "alphaMode": "OPAQUE", "doubleSided": true}, {"name": "wc_w_wash01", "pbrMetallicRoughness": {"baseColorFactor": [1.0, 1.0, 1.0, 1.0], "metallicFactor": 0.0, "roughnessFactor": 1.0}, "alphaMode": "OPAQUE", "doubleSided": true}, {"name": "wc_w_wash02", "pbrMetallicRoughness": {"baseColorFactor": [1.0, 1.0, 1.0, 1.0], "metallicFactor": 0.0, "roughnessFactor": 1.0}, "alphaMode": "OPAQUE", "doubleSided": true}], "buffers": [{"byteLength": 28832, "uri": "data:application/octet-stream;base64,"}], "bufferViews": [{"buffer": 0, "byteOffset": 0, "byteLength": 120}, {"buffer": 0, "byteOffset": 120, "byteLength": 80}, {"buffer": 0, "byteOffset": 200, "byteLength": 120}, {"buffer": 0, "byteOffset": 320, "byteLength": 36}, {"buffer": 0, "byteOffset": 356, "byteLength": 48}, {"buffer": 0, "byteOffset": 404, "byteLength": 32}, {"buffer": 0, "byteOffset": 436, "byteLength": 48}, {"buffer": 0, "byteOffset": 484, "byteLength": 12}, {"buffer": 0, "byteOffset": 496, "byteLength": 264}, {"buffer": 0, "byteOffset": 760, "byteLength": 176}, {"buffer": 0, "byteOffset": 936, "byteLength": 264}, {"buffer": 0, "byteOffset": 1200, "byteLength": 108}, {"buffer": 0, "byteOffset": 1308, "byteLength": 336}, {"buffer": 0, "byteOffset": 1644, "byteLength": 224}, {"buffer": 0, "byteOffset": 1868, "byteLength": 336}, {"buffer": 0, "byteOffset": 2204, "byteLength": 96}, {"buffer": 0, "byteOffset": 2300, "byteLength": 168}, {"buffer": 0, "byteOffset": 2468, "byteLength": 112}, {"buffer": 0, "byteOffset": 2580, "byteLength": 168}, {"buffer": 0, "byteOffset": 2748, "byteLength": 48}, {"buffer": 0, "byteOffset": 2796, "byteLength": 912}, {"buffer": 0, "byteOffset": 3708, "byteLength": 608}, {"buffer": 0, "byteOffset": 4316, "byteLength": 912}, {"buffer": 0, "byteOffset": 5228, "byteLength": 240}, {"buffer": 0, "byteOffset": 5468, "byteLength": 96}, {"buffer": 0, "byteOffset": 5564, "byteLength": 64}, {"buffer": 0, "byteOffset": 5628, "byteLength": 96}, {"buffer": 0, "byteOffset": 5724, "byteLength": 24}, {"buffer": 0, "byteOffset": 5748, "byteLength": 672}, {"buffer": 0, "byteOffset": 6420, "byteLength": 448}, {"buffer": 0, "byteOffset": 6868, "byteLength": 672}, {"buffer": 0, "byteOffset": 7540, "byteLength": 240}, {"buffer": 0, "byteOffset": 7780, "byteLength": 336}, {"buffer": 0, "byteOffset": 8116, "byteLength": 224}, {"buffer": 0, "byteOffset": 8340, "byteLength": 336}, {"buffer": 0, "byteOffset": 8676, "byteLength": 96}, {"buffer": 0, "byteOffset": 8772, "byteLength": 432}, {"buffer": 0, "byteOffset": 9204, "byteLength": 288}, {"buffer": 0, "byteOffset": 9492, "byteLength": 432}, {"buffer": 0, "byteOffset": 9924, "byteLength": 132}, {"buffer": 0, "byteOffset": 10056, "byteLength": 192}, {"buffer": 0, "byteOffset": 10248, "byteLength": 128}, {"buffer": 0, "byteOffset": 10376, "byteLength": 192}, {"buffer": 0, "byteOffset": 10568, "byteLength": 48}, {"buffer": 0, "byteOffset": 10616, "byteLength": 192}, {"buffer": 0, "byteOffset": 10808, "byteLength": 128}, {"buffer": 0, "byteOffset": 10936, "byteLength": 192}, {"buffer": 0, "byteOffset": 11128, "byteLength": 48}, {"buffer": 0, "byteOffset": 11176, "byteLength": 120}, {"buffer": 0, "byteOffset": 11296, "byteLength": 80}, {"buffer": 0, "byteOffset": 11376, "byteLength": 120}, {"buffer": 0, "byteOffset": 11496, "byteLength": 36}, {"buffer": 0, "byteOffset": 11532, "byteLength": 48}, {"buffer": 0, "byteOffset": 11580, "byteLength": 32}, {"buffer": 0, "byteOffset": 11612, "byteLength": 48}, {"buffer": 0, "byteOffset": 11660, "byteLength": 12}, {"buffer": 0, "byteOffset": 11672, "byteLength": 96}, {"buffer": 0, "byteOffset": 11768, "byteLength": 64}, {"buffer": 0, "byteOffset": 11832, "byteLength": 96}, {"buffer": 0, "byteOffset": 11928, "byteLength": 24}, {"buffer": 0, "byteOffset": 11952, "byteLength": 3768}, {"buffer": 0, "byteOffset": 15720, "byteLength": 2512}, {"buffer": 0, "byteOffset": 18232, "byteLength": 3768}, {"buffer": 0, "byteOffset": 22000, "byteLength": 1344}, {"buffer": 0, "byteOffset": 23344, "byteLength": 240}, {"buffer": 0, "byteOffset": 23584, "byteLength": 160}, {"buffer": 0, "byteOffset": 23744, "byteLength": 240}, {"buffer": 0, "byteOffset": 23984, "byteLength": 96}, {"buffer": 0, "byteOffset": 24080, "byteLength": 264}, {"buffer": 0, "byteOffset": 24344, "byteLength": 176}, {"buffer": 0, "byteOffset": 24520, "byteLength": 264}, {"buffer": 0, "byteOffset": 24784, "byteLength": 96}, {"buffer": 0, "byteOffset": 24880, "byteLength": 528}, {"buffer": 0, "byteOffset": 25408, "byteLength": 352}, {"buffer": 0, "byteOffset": 25760, "byteLength": 528}, {"buffer": 0, "byteOffset": 26288, "byteLength": 192}, {"buffer": 0, "byteOffset": 26480, "byteLength": 384}, {"buffer": 0, "byteOffset": 26864, "byteLength": 256}, {"buffer": 0, "byteOffset": 27120, "byteLength": 384}, {"buffer": 0, "byteOffset": 27504, "byteLength": 108}, {"buffer": 0, "byteOffset": 27612, "byteLength": 408}, {"buffer": 0, "byteOffset": 28020, "byteLength": 272}, {"buffer": 0, "byteOffset": 28292, "byteLength": 408}, {"buffer": 0, "byteOffset": 28700, "byteLength": 132}], "accessors": [{"bufferView": 0, "byteOffset": 0, "componentType": 5126, "count": 10, "type": "VEC3", "min": [0.300048828125, -0.199951171875, 2.5], "max": [4.699951171875, 2.050048828125, 2.5]}, {"bufferView": 1, "byteOffset": 0, "componentType": 5126, "count": 10, "type": "VEC2"}, {"bufferView": 2, "byteOffset": 0, "componentType": 5126, "count": 10, "type": "VEC3"}, {"bufferView": 3, "byteOffset": 0, "componentType": 5123, "count": 18, "type": "SCALAR"}, {"bufferView": 4, "byteOffset": 0, "componentType": 5126, "count": 4, "type": "VEC3", "min": [3.0, 0.0, 2.5], "max": [4.0, 0.0, 3.0]}, {"bufferView": 5, "byteOffset": 0, "componentType": 5126, "count": 4, "type": "VEC2"}, {"bufferView": 6, "byteOffset": 0, "componentType": 5126, "count": 4, "type": "VEC3"}, {"bufferView": 7, "byteOffset": 0, "componentType": 5123, "count": 6, "type": "SCALAR"}, {"bufferView": 8, "byteOffset": 0, "componentType": 5126, "count": 22, "type": "VEC3", "min": [0.5, 0.10009765625, 1.5], "max": [1.449951171875, 1.5, 1.550048828125]}, {"bufferView": 9, "byteOffset": 0, "componentType": 5126, "count": 22, "type": "VEC2"}, {"bufferView": 10, "byteOffset": 0, "componentType": 5126, "count": 22, "type": "VEC3"}, {"bufferView": 11, "byteOffset": 0, "componentType": 5123, "count": 54, "type": "SCALAR"}, {"bufferView": 12, "byteOffset": 0, "componentType": 5126, "count": 28, "type": "VEC3", "min": [1.449951171875, 0.0, 0.5], "max": [1.5, 1.5, 1.800048828125]}, {"bufferView": 13, "byteOffset": 0, "componentType": 5126, "count": 28, "type": "VEC2"}, {"bufferView": 14, "byteOffset": 0, "componentType": 5126, "count": 28, "type": "VEC3"}, {"bufferView": 15, "byteOffset": 0, "componentType": 5123, "count": 48, "type": "SCALAR"}, {"bufferView": 16, "byteOffset": 0, "componentType": 5126, "count": 14, "type": "VEC3", "min": [2.050048828125, 0.60009765625, 0.5], "max": [2.64990234375, 1.050048828125, 0.75]}, {"bufferView": 17, "byteOffset": 0, "componentType": 5126, "count": 14, "type": "VEC2"}, {"bufferView": 18, "byteOffset": 0, "componentType": 5126, "count": 14, "type": "VEC3"}, {"bufferView": 19, "byteOffset": 0, "componentType": 5123, "count": 24, "type": "SCALAR"}, {"bufferView": 20, "byteOffset": 0, "componentType": 5126, "count": 76, "type": "VEC3", "min": [0.89990234375, 0.449951171875, 0.5], "max": [1.10009765625, 0.60009765625, 1.64990234375]}, {"bufferView": 21, "byteOffset": 0, "componentType": 5126, "count": 76, "type": "VEC2"}, {"bufferView": 22, "byteOffset": 0, "componentType": 5126, "count": 76, "type": "VEC3"}, {"bufferView": 23, "byteOffset": 0, "componentType": 5123, "count": 120, "type": "SCALAR"}, {"bufferView": 24, "byteOffset": 0, "componentType": 5126, "count": 8, "type": "VEC3", "min": [2.975830078125, 0.550048828125, 0.522705078125], "max": [4.32421875, 1.25, 0.522705078125]}, {"bufferView": 25, "byteOffset": 0, "componentType": 5126, "count": 8, "type": "VEC2"}, {"bufferView": 26, "byteOffset": 0, "componentType": 5126, "count": 8, "type": "VEC3"}, {"bufferView": 27, "byteOffset": 0, "componentType": 5123, "count": 12, "type": "SCALAR"}, {"bufferView": 28, "byteOffset": 0, "componentType": 5126, "count": 56, "type": "VEC3", "min": [3.024169921875, 0.333740234375, 0.5], "max": [4.37548828125, 0.449951171875, 0.91015625]}, {"bufferView": 29, "byteOffset": 0, "componentType": 5126, "count": 56, "type": "VEC2"}, {"bufferView": 30, "byteOffset": 0, "componentType": 5126, "count": 56, "type": "VEC3"}, {"bufferView": 31, "byteOffset": 0, "componentType": 5123, "count": 120, "type": "SCALAR"}, {"bufferView": 32, "byteOffset": 0, "componentType": 5126, "count": 28, "type": "VEC3", "min": [2.476806640625, 0.0, 0.57666015625], "max": [2.8232421875, 0.35009765625, 0.92333984375]}, {"bufferView": 33, "byteOffset": 0, "componentType": 5126, "count": 28, "type": "VEC2"}, {"bufferView": 34, "byteOffset": 0, "componentType": 5126, "count": 28, "type": "VEC3"}, {"bufferView": 35, "byteOffset": 0, "componentType": 5123, "count": 48, "type": "SCALAR"}, {"bufferView": 36, "byteOffset": 0, "componentType": 5126, "count": 36, "type": "VEC3", "min": [2.89990234375, 0.0, 0.5], "max": [4.5, 0.449951171875, 0.85009765625]}, {"bufferView": 37, "byteOffset": 0, "componentType": 5126, "count": 36, "type": "VEC2"}, {"bufferView": 38, "byteOffset": 0, "componentType": 5126, "count": 36, "type": "VEC3"}, {"bufferView": 39, "byteOffset": 0, "componentType": 5123, "count": 66, "type": "SCALAR"}, {"bufferView": 40, "byteOffset": 0, "componentType": 5126, "count": 16, "type": "VEC3", "min": [1.449951171875, 0.322998046875, 0.804443359375], "max": [1.5224609375, 1.300048828125, 1.803466796875]}, {"bufferView": 41, "byteOffset": 0, "componentType": 5126, "count": 16, "type": "VEC2"}, {"bufferView": 42, "byteOffset": 0, "componentType": 5126, "count": 16, "type": "VEC3"}, {"bufferView": 43, "byteOffset": 0, "componentType": 5123, "count": 24, "type": "SCALAR"}, {"bufferView": 44, "byteOffset": 0, "componentType": 5126, "count": 16, "type": "VEC3", "min": [3.0712890625, 0.440673828125, 0.591796875], "max": [4.333740234375, 0.656982421875, 0.591796875]}, {"bufferView": 45, "byteOffset": 0, "componentType": 5126, "count": 16, "type": "VEC2"}, {"bufferView": 46, "byteOffset": 0, "componentType": 5126, "count": 16, "type": "VEC3"}, {"bufferView": 47, "byteOffset": 0, "componentType": 5123, "count": 24, "type": "SCALAR"}, {"bufferView": 48, "byteOffset": 0, "componentType": 5126, "count": 10, "type": "VEC3", "min": [2.18603515625, 1.050048828125, 0.61572265625], "max": [2.44482421875, 1.22802734375, 0.71142578125]}, {"bufferView": 49, "byteOffset": 0, "componentType": 5126, "count": 10, "type": "VEC2"}, {"bufferView": 50, "byteOffset": 0, "componentType": 5126, "count": 10, "type": "VEC3"}, {"bufferView": 51, "byteOffset": 0, "componentType": 5123, "count": 18, "type": "SCALAR"}, {"bufferView": 52, "byteOffset": 0, "componentType": 5126, "count": 4, "type": "VEC3", "min": [2.16357421875, 1.15869140625, 0.663330078125], "max": [2.474853515625, 1.380126953125, 0.792724609375]}, {"bufferView": 53, "byteOffset": 0, "componentType": 5126, "count": 4, "type": "VEC2"}, {"bufferView": 54, "byteOffset": 0, "componentType": 5126, "count": 4, "type": "VEC3"}, {"bufferView": 55, "byteOffset": 0, "componentType": 5123, "count": 6, "type": "SCALAR"}, {"bufferView": 56, "byteOffset": 0, "componentType": 5126, "count": 8, "type": "VEC3", "min": [2.09765625, 1.016845703125, 0.6982421875], "max": [2.54638671875, 1.303466796875, 0.82763671875]}, {"bufferView": 57, "byteOffset": 0, "componentType": 5126, "count": 8, "type": "VEC2"}, {"bufferView": 58, "byteOffset": 0, "componentType": 5126, "count": 8, "type": "VEC3"}, {"bufferView": 59, "byteOffset": 0, "componentType": 5123, "count": 12, "type": "SCALAR"}, {"bufferView": 60, "byteOffset": 0, "componentType": 5126, "count": 314, "type": "VEC3", "min": [0.5, 0.0, 0.7998046875], "max": [1.074951171875, 0.350830078125, 2.250244140625]}, {"bufferView": 61, "byteOffset": 0, "componentType": 5126, "count": 314, "type": "VEC2"}, {"bufferView": 62, "byteOffset": 0, "componentType": 5126, "count": 314, "type": "VEC3"}, {"bufferView": 63, "byteOffset": 0, "componentType": 5123, "count": 672, "type": "SCALAR"}, {"bufferView": 64, "byteOffset": 0, "componentType": 5126, "count": 20, "type": "VEC3", "min": [0.5, 0.0, 0.5], "max": [4.5, 0.0, 2.5]}, {"bufferView": 65, "byteOffset": 0, "componentType": 5126, "count": 20, "type": "VEC2"}, {"bufferView": 66, "byteOffset": 0, "componentType": 5126, "count": 20, "type": "VEC3"}, {"bufferView": 67, "byteOffset": 0, "componentType": 5123, "count": 48, "type": "SCALAR"}, {"bufferView": 68, "byteOffset": 0, "componentType": 5126, "count": 22, "type": "VEC3", "min": [0.5, 0.0, 0.5], "max": [4.5, 0.550048828125, 2.5]}, {"bufferView": 69, "byteOffset": 0, "componentType": 5126, "count": 22, "type": "VEC2"}, {"bufferView": 70, "byteOffset": 0, "componentType": 5126, "count": 22, "type": "VEC3"}, {"bufferView": 71, "byteOffset": 0, "componentType": 5123, "count": 48, "type": "SCALAR"}, {"bufferView": 72, "byteOffset": 0, "componentType": 5126, "count": 44, "type": "VEC3", "min": [0.5, 0.550048828125, 0.5], "max": [4.5, 2.0, 2.5]}, {"bufferView": 73, "byteOffset": 0, "componentType": 5126, "count": 44, "type": "VEC2"}, {"bufferView": 74, "byteOffset": 0, "componentType": 5126, "count": 44, "type": "VEC3"}, {"bufferView": 75, "byteOffset": 0, "componentType": 5123, "count": 96, "type": "SCALAR"}, {"bufferView": 76, "byteOffset": 0, "componentType": 5126, "count": 32, "type": "VEC3", "min": [0.300048828125, 1.75, 0.402099609375], "max": [4.699951171875, 2.176513671875, 3.0]}, {"bufferView": 77, "byteOffset": 0, "componentType": 5126, "count": 32, "type": "VEC2"}, {"bufferView": 78, "byteOffset": 0, "componentType": 5126, "count": 32, "type": "VEC3"}, {"bufferView": 79, "byteOffset": 0, "componentType": 5123, "count": 54, "type": "SCALAR"}, {"bufferView": 80, "byteOffset": 0, "componentType": 5126, "count": 34, "type": "VEC3", "min": [0.5, 0.014892578125, 0.5], "max": [4.5, 0.014892578125, 2.2744140625]}, {"bufferView": 81, "byteOffset": 0, "componentType": 5126, "count": 34, "type": "VEC2"}, {"bufferView": 82, "byteOffset": 0, "componentType": 5126, "count": 34, "type": "VEC3"}, {"bufferView": 83, "byteOffset": 0, "componentType": 5123, "count": 66, "type": "SCALAR"}], "samplers": [{"magFilter": 9729, "minFilter": 9729, "wrapS": 10497, "wrapT": 10497}]}