{"asset": {"version": "2.0", "generator": "tongari-nsbmd-to-gltf"}, "scene": 0, "scenes": [{"nodes": [0, 2]}], "nodes": [{"name": "root", "translation": [0.0, 0.0, 0.0], "children": [1]}, {"name": "joint1", "translation": [0.0, 0.199951171875, 0.0]}, {"mesh": 0, "name": "3176IMFY05_08"}], "meshes": [{"name": "3176IMFY05_08", "primitives": [{"attributes": {"POSITION": 0, "TEXCOORD_0": 1, "NORMAL": 2}, "indices": 3, "mode": 4, "material": 1}, {"attributes": {"POSITION": 4, "TEXCOORD_0": 5, "NORMAL": 6}, "indices": 7, "mode": 4, "material": 0}, {"attributes": {"POSITION": 8, "TEXCOORD_0": 9, "NORMAL": 10}, "indices": 11, "mode": 4, "material": 2}]}], "materials": [{"name": "imfy05_08_0", "pbrMetallicRoughness": {"baseColorFactor": [1.0, 1.0, 1.0, 1.0], "metallicFactor": 0.0, "roughnessFactor": 1.0}, "alphaMode": "OPAQUE", "doubleSided": true}, {"name": "imfy05_08_1", "pbrMetallicRoughness": {"baseColorFactor": [1.0, 1.0, 1.0, 1.0], "metallicFactor": 0.0, "roughnessFactor": 1.0}, "alphaMode": "OPAQUE", "doubleSided": true}, {"name": "imfy05_08_2", "pbrMetallicRoughness": {"baseColorFactor": [1.0, 1.0, 1.0, 1.0], "metallicFactor": 0.0, "roughnessFactor": 1.0}, "alphaMode": "OPAQUE", "doubleSided": true}], "buffers": [{"byteLength": 4568, "uri": "data:application/octet-stream;base64,"}], "bufferViews": [{"buffer": 0, "byteOffset": 0, "byteLength": 1104}, {"buffer": 0, "byteOffset": 1104, "byteLength": 736}, {"buffer": 0, "byteOffset": 1840, "byteLength": 1104}, {"buffer": 0, "byteOffset": 2944, "byteLength": 288}, {"buffer": 0, "byteOffset": 3232, "byteLength": 360}, {"buffer": 0, "byteOffset": 3592, "byteLength": 240}, {"buffer": 0, "byteOffset": 3832, "byteLength": 360}, {"buffer": 0, "byteOffset": 4192, "byteLength": 96}, {"buffer": 0, "byteOffset": 4288, "byteLength": 96}, {"buffer": 0, "byteOffset": 4384, "byteLength": 64}, {"buffer": 0, "byteOffset": 4448, "byteLength": 96}, {"buffer": 0, "byteOffset": 4544, "byteLength": 24}], "accessors": [{"bufferView": 0, "byteOffset": 0, "componentType": 5126, "count": 92, "type": "VEC3", "min": [-0.4501953125, 0.0, -0.4501953125], "max": [0.4501953125, 1.838623046875, 0.4501953125]}, {"bufferView": 1, "byteOffset": 0, "componentType": 5126, "count": 92, "type": "VEC2"}, {"bufferView": 2, "byteOffset": 0, "componentType": 5126, "count": 92, "type": "VEC3"}, {"bufferView": 3, "byteOffset": 0, "componentType": 5123, "count": 144, "type": "SCALAR"}, {"bufferView": 4, "byteOffset": 0, "componentType": 5126, "count": 30, "type": "VEC3", "min": [-0.3212890625, 0.27880859375, -0.248779296875], "max": [0.3212890625, 1.671142578125, 0.289306640625]}, {"bufferView": 5, "byteOffset": 0, "componentType": 5126, "count": 30, "type": "VEC2"}, {"bufferView": 6, "byteOffset": 0, "componentType": 5126, "count": 30, "type": "VEC3"}, {"bufferView": 7, "byteOffset": 0, "componentType": 5123, "count": 48, "type": "SCALAR"}, {"bufferView": 8, "byteOffset": 0, "componentType": 5126, "count": 8, "type": "VEC3", "min": [-0.37255859375, 0.299072265625, 0.216552734375], "max": [0.37255859375, 1.220947265625, 0.321044921875]}, {"bufferView": 9, "byteOffset": 0, "componentType": 5126, "count": 8, "type": "VEC2"}, {"bufferView": 10, "byteOffset": 0, "componentType": 5126, "count": 8, "type": "VEC3"}, {"bufferView": 11, "byteOffset": 0, "componentType": 5123, "count": 12, "type": "SCALAR"}], "samplers": [{"magFilter": 9729, "minFilter": 9729, "wrapS": 10497, "wrapT": 10497}]}