{"asset": {"version": "2.0", "generator": "tongari-nsbmd-to-gltf"}, "scene": 0, "scenes": [{"nodes": [0, 14]}], "nodes": [{"name": "ev_fsg_school", "translation": [0.0, 0.0, 0.0], "children": [1, 2]}, {"name": "door", "translation": [2.0, 4.021728515625, -0.703125]}, {"name": "school", "translation": [0.0, 0.0, 0.0], "children": [3, 4, 5]}, {"name": "polySurface188", "translation": [0.0, 0.0, 0.0]}, {"name": "polySurface7", "translation": [0.0, 0.0, 0.0]}, {"name": "sh_b_01", "translation": [0.0, 0.0, 0.0], "children": [6, 7, 8, 9, 10, 13]}, {"name": "c00", "translation": [-0.85302734375, 8.829833984375, -4.07275390625]}, {"name": "c01", "translation": [-1.28271484375, 8.91748046875, -4.07275390625]}, {"name": "c02", "translation": [-2.09130859375, 9.15185546875, -4.2685546875]}, {"name": "hour_joint_00", "translation": [2.0, 11.10009765625, -0.932373046875]}, {"name": "joint_frag", "translation": [1.89990234375, 14.751708984375, -1.316650390625], "children": [11]}, {"name": "joint4", "translation": [0.9326171875, 0.0, 0.0], "children": [12]}, {"name": "joint5", "translation": [0.944580078125, 0.0, 0.0]}, {"name": "long_joint_00", "translation": [2.0, 11.10009765625, -0.932373046875]}, {"mesh": 0, "name": "ev_fsg_school"}], "meshes": [{"name": "ev_fsg_school", "primitives": [{"attributes": {"POSITION": 0, "TEXCOORD_0": 1, "NORMAL": 2}, "indices": 3, "mode": 4, "material": 9}, {"attributes": {"POSITION": 4, "TEXCOORD_0": 5, "NORMAL": 6}, "indices": 7, "mode": 4, "material": 13}, {"attributes": {"POSITION": 8, "TEXCOORD_0": 9, "NORMAL": 10}, "indices": 11, "mode": 4, "material": 60}, {"attributes": {"POSITION": 12, "TEXCOORD_0": 13, "NORMAL": 14}, "indices": 15, "mode": 4, "material": 14}, {"attributes": {"POSITION": 16, "TEXCOORD_0": 17}, "indices": 18, "mode": 4, "material": 56}, {"attributes": {"POSITION": 19, "TEXCOORD_0": 20, "NORMAL": 21}, "indices": 22, "mode": 4, "material": 52}, {"attributes": {"POSITION": 23, "TEXCOORD_0": 24, "NORMAL": 25}, "indices": 26, "mode": 4, "material": 54}, {"attributes": {"POSITION": 27, "TEXCOORD_0": 28, "NORMAL": 29}, "indices": 30, "mode": 4, "material": 53}, {"attributes": {"POSITION": 31, "TEXCOORD_0": 32, "NORMAL": 33}, "indices": 34, "mode": 4, "material": 55}, {"attributes": {"POSITION": 35, "TEXCOORD_0": 36, "NORMAL": 37}, "indices": 38, "mode": 4, "material": 10}, {"attributes": {"POSITION": 39, "TEXCOORD_0": 40, "NORMAL": 41}, "indices": 42, "mode": 4, "material": 21}, {"attributes": {"POSITION": 43, "TEXCOORD_0": 44, "NORMAL": 45}, "indices": 46, "mode": 4, "material": 3}, {"attributes": {"POSITION": 47, "TEXCOORD_0": 48, "NORMAL": 49}, "indices": 50, "mode": 4, "material": 0}, {"attributes": {"POSITION": 51, "TEXCOORD_0": 52, "NORMAL": 53}, "indices": 54, "mode": 4, "material": 26}, {"attributes": {"POSITION": 55, "TEXCOORD_0": 56, "NORMAL": 57}, "indices": 58, "mode": 4, "material": 28}, {"attributes": {"POSITION": 59, "TEXCOORD_0": 60, "NORMAL": 61}, "indices": 62, "mode": 4, "material": 27}, {"attributes": {"POSITION": 63, "TEXCOORD_0": 64, "NORMAL": 65}, "indices": 66, "mode": 4, "material": 16}, {"attributes": {"POSITION": 67, "TEXCOORD_0": 68, "NORMAL": 69}, "indices": 70, "mode": 4, "material": 17}, {"attributes": {"POSITION": 71, "TEXCOORD_0": 72, "NORMAL": 73}, "indices": 74, "mode": 4, "material": 18}, {"attributes": {"POSITION": 75, "TEXCOORD_0": 76, "NORMAL": 77}, "indices": 78, "mode": 4, "material": 19}, {"attributes": {"POSITION": 79, "TEXCOORD_0": 80, "NORMAL": 81}, "indices": 82, "mode": 4, "material": 24}, {"attributes": {"POSITION": 83, "TEXCOORD_0": 84, "NORMAL": 85}, "indices": 86, "mode": 4, "material": 25}, {"attributes": {"POSITION": 87, "TEXCOORD_0": 88, "NORMAL": 89}, "indices": 90, "mode": 4, "material": 23}, {"attributes": {"POSITION": 91, "TEXCOORD_0": 92, "NORMAL": 93}, "indices": 94, "mode": 4, "material": 22}, {"attributes": {"POSITION": 95, "TEXCOORD_0": 96, "NORMAL": 97}, "indices": 98, "mode": 4, "material": 20}, {"attributes": {"POSITION": 99, "TEXCOORD_0": 100, "NORMAL": 101}, "indices": 102, "mode": 4, "material": 1}, {"attributes": {"POSITION": 103, "TEXCOORD_0": 104, "NORMAL": 105}, "indices": 106, "mode": 4, "material": 2}, {"attributes": {"POSITION": 107, "TEXCOORD_0": 108, "NORMAL": 109}, "indices": 110, "mode": 4, "material": 4}, {"attributes": {"POSITION": 111, "TEXCOORD_0": 112, "NORMAL": 113}, "indices": 114, "mode": 4, "material": 5}, {"attributes": {"POSITION": 115, "TEXCOORD_0": 116, "NORMAL": 117}, "indices": 118, "mode": 4, "material": 30}, {"attributes": {"POSITION": 119, "TEXCOORD_0": 120, "NORMAL": 121}, "indices": 122, "mode": 4, "material": 29}, {"attributes": {"POSITION": 123, "TEXCOORD_0": 124, "NORMAL": 125}, "indices": 126, "mode": 4, "material": 7}, {"attributes": {"POSITION": 127, "TEXCOORD_0": 128, "NORMAL": 129}, "indices": 130, "mode": 4, "material": 6}, {"attributes": {"POSITION": 131, "TEXCOORD_0": 132, "NORMAL": 133}, "indices": 134, "mode": 4, "material": 12}, {"attributes": {"POSITION": 135, "TEXCOORD_0": 136, "NORMAL": 137}, "indices": 138, "mode": 4, "material": 11}, {"attributes": {"POSITION": 139, "TEXCOORD_0": 140, "NORMAL": 141}, "indices": 142, "mode": 4, "material": 8}, {"attributes": {"POSITION": 143, "TEXCOORD_0": 144}, "indices": 145, "mode": 4, "material": 49}, {"attributes": {"POSITION": 146, "TEXCOORD_0": 147, "NORMAL": 148}, "indices": 149, "mode": 4, "material": 15}, {"attributes": {"POSITION": 150, "TEXCOORD_0": 151, "NORMAL": 152}, "indices": 153, "mode": 4, "material": 8}, {"attributes": {"POSITION": 154, "TEXCOORD_0": 155, "NORMAL": 156}, "indices": 157, "mode": 4, "material": 59}, {"attributes": {"POSITION": 158, "TEXCOORD_0": 159, "NORMAL": 160}, "indices": 161, "mode": 4, "material": 34}, {"attributes": {"POSITION": 162, "TEXCOORD_0": 163}, "indices": 164, "mode": 4, "material": 43}, {"attributes": {"POSITION": 165, "TEXCOORD_0": 166}, "indices": 167, "mode": 4, "material": 44}, {"attributes": {"POSITION": 168, "TEXCOORD_0": 169, "NORMAL": 170}, "indices": 171, "mode": 4, "material": 46}, {"attributes": {"POSITION": 172, "TEXCOORD_0": 173}, "indices": 174, "mode": 4, "material": 42}, {"attributes": {"POSITION": 175, "TEXCOORD_0": 176, "NORMAL": 177}, "indices": 178, "mode": 4, "material": 38}, {"attributes": {"POSITION": 179, "TEXCOORD_0": 180, "NORMAL": 181}, "indices": 182, "mode": 4, "material": 48}, {"attributes": {"POSITION": 183, "TEXCOORD_0": 184, "NORMAL": 185}, "indices": 186, "mode": 4, "material": 37}, {"attributes": {"POSITION": 187, "TEXCOORD_0": 188, "NORMAL": 189}, "indices": 190, "mode": 4, "material": 47}, {"attributes": {"POSITION": 191, "TEXCOORD_0": 192, "NORMAL": 193}, "indices": 194, "mode": 4, "material": 50}, {"attributes": {"POSITION": 195, "TEXCOORD_0": 196, "NORMAL": 197}, "indices": 198, "mode": 4, "material": 51}, {"attributes": {"POSITION": 199, "TEXCOORD_0": 200, "NORMAL": 201}, "indices": 202, "mode": 4, "material": 36}, {"attributes": {"POSITION": 203, "TEXCOORD_0": 204, "NORMAL": 205}, "indices": 206, "mode": 4, "material": 40}, {"attributes": {"POSITION": 207, "TEXCOORD_0": 208, "NORMAL": 209}, "indices": 210, "mode": 4, "material": 41}, {"attributes": {"POSITION": 211, "TEXCOORD_0": 212, "NORMAL": 213}, "indices": 214, "mode": 4, "material": 39}, {"attributes": {"POSITION": 215, "TEXCOORD_0": 216}, "indices": 217, "mode": 4, "material": 45}, {"attributes": {"POSITION": 218, "TEXCOORD_0": 219, "NORMAL": 220}, "indices": 221, "mode": 4, "material": 54}, {"attributes": {"POSITION": 222, "TEXCOORD_0": 223, "NORMAL": 224}, "indices": 225, "mode": 4, "material": 58}, {"attributes": {"POSITION": 226, "TEXCOORD_0": 227, "NORMAL": 228}, "indices": 229, "mode": 4, "material": 55}, {"attributes": {"POSITION": 230, "TEXCOORD_0": 231, "NORMAL": 232}, "indices": 233, "mode": 4, "material": 57}, {"attributes": {"POSITION": 234, "TEXCOORD_0": 235, "NORMAL": 236}, "indices": 237, "mode": 4, "material": 48}, {"attributes": {"POSITION": 238, "TEXCOORD_0": 239}, "indices": 240, "mode": 4, "material": 32}, {"attributes": {"POSITION": 241, "TEXCOORD_0": 242}, "indices": 243, "mode": 4, "material": 33}, {"attributes": {"POSITION": 244, "TEXCOORD_0": 245}, "indices": 246, "mode": 4, "material": 32}, {"attributes": {"POSITION": 247, "TEXCOORD_0": 248}, "indices": 249, "mode": 4, "material": 33}, {"attributes": {"POSITION": 250, "TEXCOORD_0": 251, "NORMAL": 252}, "indices": 253, "mode": 4, "material": 48}, {"attributes": {"POSITION": 254, "TEXCOORD_0": 255}, "indices": 256, "mode": 4, "material": 32}, {"attributes": {"POSITION": 257, "TEXCOORD_0": 258, "NORMAL": 259}, "indices": 260, "mode": 4, "material": 48}, {"attributes": {"POSITION": 261, "TEXCOORD_0": 262}, "indices": 263, "mode": 4, "material": 33}, {"attributes": {"POSITION": 264, "TEXCOORD_0": 265, "NORMAL": 266}, "indices": 267, "mode": 4, "material": 35}, {"attributes": {"POSITION": 268, "TEXCOORD_0": 269, "NORMAL": 270}, "indices": 271, "mode": 4, "material": 31}, {"attributes": {"POSITION": 272, "TEXCOORD_0": 273, "NORMAL": 274}, "indices": 275, "mode": 4, "material": 31}]}], "materials": [{"name": "berry_bla", "pbrMetallicRoughness": {"baseColorFactor": [1.0, 1.0, 1.0, 1.0], "metallicFactor": 0.0, "roughnessFactor": 1.0}, "alphaMode": "OPAQUE", "doubleSided": true}, {"name": "berry_blu", "pbrMetallicRoughness": {"baseColorFactor": [1.0, 1.0, 1.0, 1.0], "metallicFactor": 0.0, "roughnessFactor": 1.0}, "alphaMode": "OPAQUE", "doubleSided": true}, {"name": "berry_cra", "pbrMetallicRoughness": {"baseColorFactor": [1.0, 1.0, 1.0, 1.0], "metallicFactor": 0.0, "roughnessFactor": 1.0}, "alphaMode": "OPAQUE", "doubleSided": true}, {"name": "berry_ha", "pbrMetallicRoughness": {"baseColorFactor": [1.0, 1.0, 1.0, 1.0], "metallicFactor": 0.0, "roughnessFactor": 1.0}, "alphaMode": "OPAQUE", "doubleSided": true}, {"name": "berry_ras", "pbrMetallicRoughness": {"baseColorFactor": [1.0, 1.0, 1.0, 1.0], "metallicFactor": 0.0, "roughnessFactor": 1.0}, "alphaMode": "OPAQUE", "doubleSided": true}, {"name": "berry_str", "pbrMetallicRoughness": {"baseColorFactor": [1.0, 1.0, 1.0, 1.0], "metallicFactor": 0.0, "roughnessFactor": 1.0}, "alphaMode": "OPAQUE", "doubleSided": true}, {"name": "bg_ground", "pbrMetallicRoughness": {"baseColorFactor": [1.0, 1.0, 1.0, 1.0], "metallicFactor": 0.0, "roughnessFactor": 1.0}, "alphaMode": "OPAQUE", "doubleSided": true}, {"name": "bg_ground_01", "pbrMetallicRoughness": {"baseColorFactor": [1.0, 1.0, 1.0, 1.0], "metallicFactor": 0.0, "roughnessFactor": 1.0}, "alphaMode": "OPAQUE", "doubleSided": true}, {"name": "bg_ground_02", "pbrMetallicRoughness": {"baseColorFactor": [1.0, 1.0, 1.0, 1.0], "metallicFactor": 0.0, "roughnessFactor": 1.0}, "alphaMode": "OPAQUE", "doubleSided": true}, {"name": "door_sc_b_door", "pbrMetallicRoughness": {"baseColorFactor": [1.0, 1.0, 1.0, 1.0], "metallicFactor": 0.0, "roughnessFactor": 1.0}, "alphaMode": "OPAQUE", "doubleSided": true}, {"name": "g_g_00", "pbrMetallicRoughness": {"baseColorFactor": [1.0, 1.0, 1.0, 1.0], "metallicFactor": 0.0, "roughnessFactor": 1.0}, "alphaMode": "OPAQUE", "doubleSided": true}, {"name": "g_gake00_l", "pbrMetallicRoughness": {"baseColorFactor": [1.0, 1.0, 1.0, 1.0], "metallicFactor": 0.0, "roughnessFactor": 1.0}, "alphaMode": "OPAQUE", "doubleSided": true}, {"name": "g_gake01", "pbrMetallicRoughness": {"baseColorFactor": [1.0, 1.0, 1.0, 1.0], "metallicFactor": 0.0, "roughnessFactor": 1.0}, "alphaMode": "OPAQUE", "doubleSided": true}, {"name": "g_gake02_l", "pbrMetallicRoughness": {"baseColorFactor": [1.0, 1.0, 1.0, 1.0], "metallicFactor": 0.0, "roughnessFactor": 1.0}, "alphaMode": "OPAQUE", "doubleSided": true}, {"name": "gake_step00", "pbrMetallicRoughness": {"baseColorFactor": [1.0, 1.0, 1.0, 1.0], "metallicFactor": 0.0, "roughnessFactor": 1.0}, "alphaMode": "OPAQUE", "doubleSided": true}, {"name": "hana", "pbrMetallicRoughness": {"baseColorFactor": [0.803921568627451, 0.803921568627451, 0.803921568627451, 1.0], "metallicFactor": 0.0, "roughnessFactor": 1.0}, "alphaMode": "OPAQUE", "doubleSided": true}, {"name": "hana_marg_a", "pbrMetallicRoughness": {"baseColorFactor": [1.0, 1.0, 1.0, 1.0], "metallicFactor": 0.0, "roughnessFactor": 1.0}, "alphaMode": "OPAQUE", "doubleSided": true}, {"name": "hana_marg_b", "pbrMetallicRoughness": {"baseColorFactor": [1.0, 1.0, 1.0, 1.0], "metallicFactor": 0.0, "roughnessFactor": 1.0}, "alphaMode": "OPAQUE", "doubleSided": true}, {"name": "hana_rose_a", "pbrMetallicRoughness": {"baseColorFactor": [1.0, 1.0, 1.0, 1.0], "metallicFactor": 0.0, "roughnessFactor": 1.0}, "alphaMode": "OPAQUE", "doubleSided": true}, {"name": "hana_rose_b", "pbrMetallicRoughness": {"baseColorFactor": [1.0, 1.0, 1.0, 1.0], "metallicFactor": 0.0, "roughnessFactor": 1.0}, "alphaMode": "OPAQUE", "doubleSided": true}, {"name": "hana_suzu_a", "pbrMetallicRoughness": {"baseColorFactor": [1.0, 1.0, 1.0, 1.0], "metallicFactor": 0.0, "roughnessFactor": 1.0}, "alphaMode": "OPAQUE", "doubleSided": true}, {"name": "hana_suzu_b", "pbrMetallicRoughness": {"baseColorFactor": [1.0, 1.0, 1.0, 1.0], "metallicFactor": 0.0, "roughnessFactor": 1.0}, "alphaMode": "OPAQUE", "doubleSided": true}, {"name": "hana_suzu_c", "pbrMetallicRoughness": {"baseColorFactor": [1.0, 1.0, 1.0, 1.0], "metallicFactor": 0.0, "roughnessFactor": 1.0}, "alphaMode": "OPAQUE", "doubleSided": true}, {"name": "hana_suzu_d", "pbrMetallicRoughness": {"baseColorFactor": [1.0, 1.0, 1.0, 1.0], "metallicFactor": 0.0, "roughnessFactor": 1.0}, "alphaMode": "OPAQUE", "doubleSided": true}, {"name": "hana_tulip_a", "pbrMetallicRoughness": {"baseColorFactor": [1.0, 1.0, 1.0, 1.0], "metallicFactor": 0.0, "roughnessFactor": 1.0}, "alphaMode": "OPAQUE", "doubleSided": true}, {"name": "hana_tulip_b", "pbrMetallicRoughness": {"baseColorFactor": [1.0, 1.0, 1.0, 1.0], "metallicFactor": 0.0, "roughnessFactor": 1.0}, "alphaMode": "OPAQUE", "doubleSided": true}, {"name": "mat_kusa00", "pbrMetallicRoughness": {"baseColorFactor": [1.0, 1.0, 1.0, 1.0], "metallicFactor": 0.0, "roughnessFactor": 1.0}, "alphaMode": "OPAQUE", "doubleSided": true}, {"name": "mat_kusa01", "pbrMetallicRoughness": {"baseColorFactor": [1.0, 1.0, 1.0, 1.0], "metallicFactor": 0.0, "roughnessFactor": 1.0}, "alphaMode": "OPAQUE", "doubleSided": true}, {"name": "mat_kusa02", "pbrMetallicRoughness": {"baseColorFactor": [1.0, 1.0, 1.0, 1.0], "metallicFactor": 0.0, "roughnessFactor": 1.0}, "alphaMode": "OPAQUE", "doubleSided": true}, {"name": "mori_bush0", "pbrMetallicRoughness": {"baseColorFactor": [1.0, 1.0, 1.0, 1.0], "metallicFactor": 0.0, "roughnessFactor": 1.0}, "alphaMode": "OPAQUE", "doubleSided": true}, {"name": "obj_chair00", "pbrMetallicRoughness": {"baseColorFactor": [1.0, 1.0, 1.0, 1.0], "metallicFactor": 0.0, "roughnessFactor": 1.0}, "alphaMode": "OPAQUE", "doubleSided": true}, {"name": "sc_b_clock00", "pbrMetallicRoughness": {"baseColorFactor": [1.0, 1.0, 1.0, 1.0], "metallicFactor": 0.0, "roughnessFactor": 1.0}, "alphaMode": "OPAQUE", "doubleSided": true}, {"name": "sc_b_cy_00", "pbrMetallicRoughness": {"baseColorFactor": [1.0, 1.0, 1.0, 1.0], "metallicFactor": 0.0, "roughnessFactor": 1.0}, "alphaMode": "OPAQUE", "doubleSided": true}, {"name": "sc_b_cy_01", "pbrMetallicRoughness": {"baseColorFactor": [1.0, 1.0, 1.0, 1.0], "metallicFactor": 0.0, "roughnessFactor": 1.0}, "alphaMode": "OPAQUE", "doubleSided": true}, {"name": "sc_b_doorin", "pbrMetallicRoughness": {"baseColorFactor": [1.0, 1.0, 1.0, 1.0], "metallicFactor": 0.0, "roughnessFactor": 1.0}, "alphaMode": "OPAQUE", "doubleSided": true}, {"name": "sc_b_ht_01", "pbrMetallicRoughness": {"baseColorFactor": [1.0, 1.0, 1.0, 1.0], "metallicFactor": 0.0, "roughnessFactor": 1.0}, "alphaMode": "OPAQUE", "doubleSided": true}, {"name": "sc_b_kb_00", "pbrMetallicRoughness": {"baseColorFactor": [1.0, 1.0, 1.0, 1.0], "metallicFactor": 0.0, "roughnessFactor": 1.0}, "alphaMode": "OPAQUE", "doubleSided": true}, {"name": "sc_b_kb_01", "pbrMetallicRoughness": {"baseColorFactor": [1.0, 1.0, 1.0, 1.0], "metallicFactor": 0.0, "roughnessFactor": 1.0}, "alphaMode": "OPAQUE", "doubleSided": true}, {"name": "sc_b_kb_02", "pbrMetallicRoughness": {"baseColorFactor": [1.0, 1.0, 1.0, 1.0], "metallicFactor": 0.0, "roughnessFactor": 1.0}, "alphaMode": "OPAQUE", "doubleSided": true}, {"name": "sc_b_kb_03", "pbrMetallicRoughness": {"baseColorFactor": [1.0, 1.0, 1.0, 1.0], "metallicFactor": 0.0, "roughnessFactor": 1.0}, "alphaMode": "OPAQUE", "doubleSided": true}, {"name": "sc_b_kb_04", "pbrMetallicRoughness": {"baseColorFactor": [1.0, 1.0, 1.0, 1.0], "metallicFactor": 0.0, "roughnessFactor": 1.0}, "alphaMode": "OPAQUE", "doubleSided": true}, {"name": "sc_b_lt", "pbrMetallicRoughness": {"baseColorFactor": [1.0, 1.0, 1.0, 1.0], "metallicFactor": 0.0, "roughnessFactor": 1.0}, "alphaMode": "OPAQUE", "doubleSided": true}, {"name": "sc_b_md_00", "pbrMetallicRoughness": {"baseColorFactor": [1.0, 1.0, 1.0, 1.0], "metallicFactor": 0.0, "roughnessFactor": 1.0}, "alphaMode": "OPAQUE", "doubleSided": true}, {"name": "sc_b_md_01", "pbrMetallicRoughness": {"baseColorFactor": [1.0, 1.0, 1.0, 1.0], "metallicFactor": 0.0, "roughnessFactor": 1.0}, "alphaMode": "OPAQUE", "doubleSided": true}, {"name": "sc_b_md_02", "pbrMetallicRoughness": {"baseColorFactor": [1.0, 1.0, 1.0, 1.0], "metallicFactor": 0.0, "roughnessFactor": 1.0}, "alphaMode": "OPAQUE", "doubleSided": true}, {"name": "sc_b_md_03", "pbrMetallicRoughness": {"baseColorFactor": [1.0, 1.0, 1.0, 1.0], "metallicFactor": 0.0, "roughnessFactor": 1.0}, "alphaMode": "OPAQUE", "doubleSided": true}, {"name": "sc_b_ob_01", "pbrMetallicRoughness": {"baseColorFactor": [1.0, 1.0, 1.0, 1.0], "metallicFactor": 0.0, "roughnessFactor": 1.0}, "alphaMode": "OPAQUE", "doubleSided": true}, {"name": "sc_b_ob_02", "pbrMetallicRoughness": {"baseColorFactor": [1.0, 1.0, 1.0, 1.0], "metallicFactor": 0.0, "roughnessFactor": 1.0}, "alphaMode": "OPAQUE", "doubleSided": true}, {"name": "sc_b_star", "pbrMetallicRoughness": {"baseColorFactor": [1.0, 1.0, 1.0, 1.0], "metallicFactor": 0.0, "roughnessFactor": 1.0}, "alphaMode": "OPAQUE", "doubleSided": true}, {"name": "sc_b_watch", "pbrMetallicRoughness": {"baseColorFactor": [1.0, 1.0, 1.0, 1.0], "metallicFactor": 0.0, "roughnessFactor": 1.0}, "alphaMode": "OPAQUE", "doubleSided": true}, {"name": "sc_b_yn_00", "pbrMetallicRoughness": {"baseColorFactor": [1.0, 1.0, 1.0, 1.0], "metallicFactor": 0.0, "roughnessFactor": 1.0}, "alphaMode": "OPAQUE", "doubleSided": true}, {"name": "sc_b_yn_01", "pbrMetallicRoughness": {"baseColorFactor": [1.0, 1.0, 1.0, 1.0], "metallicFactor": 0.0, "roughnessFactor": 1.0}, "alphaMode": "OPAQUE", "doubleSided": true}, {"name": "sc_ga_kb_0", "pbrMetallicRoughness": {"baseColorFactor": [1.0, 1.0, 1.0, 1.0], "metallicFactor": 0.0, "roughnessFactor": 1.0}, "alphaMode": "OPAQUE", "doubleSided": true}, {"name": "sc_ga_kb_00", "pbrMetallicRoughness": {"baseColorFactor": [1.0, 1.0, 1.0, 1.0], "metallicFactor": 0.0, "roughnessFactor": 1.0}, "alphaMode": "OPAQUE", "doubleSided": true}, {"name": "sc_ga_kb_01", "pbrMetallicRoughness": {"baseColorFactor": [1.0, 1.0, 1.0, 1.0], "metallicFactor": 0.0, "roughnessFactor": 1.0}, "alphaMode": "OPAQUE", "doubleSided": true}, {"name": "sc_ga_ks_01", "pbrMetallicRoughness": {"baseColorFactor": [1.0, 1.0, 1.0, 1.0], "metallicFactor": 0.0, "roughnessFactor": 1.0}, "alphaMode": "OPAQUE", "doubleSided": true}, {"name": "sc_ga_lt_01", "pbrMetallicRoughness": {"baseColorFactor": [1.0, 1.0, 1.0, 1.0], "metallicFactor": 0.0, "roughnessFactor": 1.0}, "alphaMode": "OPAQUE", "doubleSided": true}, {"name": "sc_hana01", "pbrMetallicRoughness": {"baseColorFactor": [1.0, 1.0, 1.0, 1.0], "metallicFactor": 0.0, "roughnessFactor": 1.0}, "alphaMode": "OPAQUE", "doubleSided": true}, {"name": "sc_kadan00", "pbrMetallicRoughness": {"baseColorFactor": [1.0, 1.0, 1.0, 1.0], "metallicFactor": 0.0, "roughnessFactor": 1.0}, "alphaMode": "OPAQUE", "doubleSided": true}, {"name": "sc_tail", "pbrMetallicRoughness": {"baseColorFactor": [0.803921568627451, 0.803921568627451, 0.803921568627451, 1.0], "metallicFactor": 0.0, "roughnessFactor": 1.0}, "alphaMode": "OPAQUE", "doubleSided": true}, {"name": "zm01", "pbrMetallicRoughness": {"baseColorFactor": [0.803921568627451, 0.803921568627451, 0.803921568627451, 1.0], "metallicFactor": 0.0, "roughnessFactor": 1.0}, "alphaMode": "OPAQUE", "doubleSided": true}], "buffers": [{"byteLength": 114060, "uri": "data:application/octet-stream;base64,"}], "bufferViews": [{"buffer": 0, "byteOffset": 0, "byteLength": 192}, {"buffer": 0, "byteOffset": 192, "byteLength": 128}, {"buffer": 0, "byteOffset": 320, "byteLength": 192}, {"buffer": 0, "byteOffset": 512, "byteLength": 48}, {"buffer": 0, "byteOffset": 560, "byteLength": 420}, {"buffer": 0, "byteOffset": 980, "byteLength": 280}, {"buffer": 0, "byteOffset": 1260, "byteLength": 420}, {"buffer": 0, "byteOffset": 1680, "byteLength": 126}, {"buffer": 0, "byteOffset": 1808, "byteLength": 96}, {"buffer": 0, "byteOffset": 1904, "byteLength": 64}, {"buffer": 0, "byteOffset": 1968, "byteLength": 96}, {"buffer": 0, "byteOffset": 2064, "byteLength": 24}, {"buffer": 0, "byteOffset": 2088, "byteLength": 3072}, {"buffer": 0, "byteOffset": 5160, "byteLength": 2048}, {"buffer": 0, "byteOffset": 7208, "byteLength": 3072}, {"buffer": 0, "byteOffset": 10280, "byteLength": 936}, {"buffer": 0, "byteOffset": 11216, "byteLength": 96}, {"buffer": 0, "byteOffset": 11312, "byteLength": 64}, {"buffer": 0, "byteOffset": 11376, "byteLength": 24}, {"buffer": 0, "byteOffset": 11400, "byteLength": 144}, {"buffer": 0, "byteOffset": 11544, "byteLength": 96}, {"buffer": 0, "byteOffset": 11640, "byteLength": 144}, {"buffer": 0, "byteOffset": 11784, "byteLength": 48}, {"buffer": 0, "byteOffset": 11832, "byteLength": 6528}, {"buffer": 0, "byteOffset": 18360, "byteLength": 4352}, {"buffer": 0, "byteOffset": 22712, "byteLength": 6528}, {"buffer": 0, "byteOffset": 29240, "byteLength": 1560}, {"buffer": 0, "byteOffset": 30800, "byteLength": 888}, {"buffer": 0, "byteOffset": 31688, "byteLength": 592}, {"buffer": 0, "byteOffset": 32280, "byteLength": 888}, {"buffer": 0, "byteOffset": 33168, "byteLength": 348}, {"buffer": 0, "byteOffset": 33516, "byteLength": 696}, {"buffer": 0, "byteOffset": 34212, "byteLength": 464}, {"buffer": 0, "byteOffset": 34676, "byteLength": 696}, {"buffer": 0, "byteOffset": 35372, "byteLength": 156}, {"buffer": 0, "byteOffset": 35528, "byteLength": 144}, {"buffer": 0, "byteOffset": 35672, "byteLength": 96}, {"buffer": 0, "byteOffset": 35768, "byteLength": 144}, {"buffer": 0, "byteOffset": 35912, "byteLength": 48}, {"buffer": 0, "byteOffset": 35960, "byteLength": 48}, {"buffer": 0, "byteOffset": 36008, "byteLength": 32}, {"buffer": 0, "byteOffset": 36040, "byteLength": 48}, {"buffer": 0, "byteOffset": 36088, "byteLength": 12}, {"buffer": 0, "byteOffset": 36100, "byteLength": 1728}, {"buffer": 0, "byteOffset": 37828, "byteLength": 1152}, {"buffer": 0, "byteOffset": 38980, "byteLength": 1728}, {"buffer": 0, "byteOffset": 40708, "byteLength": 432}, {"buffer": 0, "byteOffset": 41140, "byteLength": 288}, {"buffer": 0, "byteOffset": 41428, "byteLength": 192}, {"buffer": 0, "byteOffset": 41620, "byteLength": 288}, {"buffer": 0, "byteOffset": 41908, "byteLength": 72}, {"buffer": 0, "byteOffset": 41980, "byteLength": 480}, {"buffer": 0, "byteOffset": 42460, "byteLength": 320}, {"buffer": 0, "byteOffset": 42780, "byteLength": 480}, {"buffer": 0, "byteOffset": 43260, "byteLength": 120}, {"buffer": 0, "byteOffset": 43380, "byteLength": 432}, {"buffer": 0, "byteOffset": 43812, "byteLength": 288}, {"buffer": 0, "byteOffset": 44100, "byteLength": 432}, {"buffer": 0, "byteOffset": 44532, "byteLength": 108}, {"buffer": 0, "byteOffset": 44640, "byteLength": 96}, {"buffer": 0, "byteOffset": 44736, "byteLength": 64}, {"buffer": 0, "byteOffset": 44800, "byteLength": 96}, {"buffer": 0, "byteOffset": 44896, "byteLength": 24}, {"buffer": 0, "byteOffset": 44920, "byteLength": 48}, {"buffer": 0, "byteOffset": 44968, "byteLength": 32}, {"buffer": 0, "byteOffset": 45000, "byteLength": 48}, {"buffer": 0, "byteOffset": 45048, "byteLength": 12}, {"buffer": 0, "byteOffset": 45060, "byteLength": 48}, {"buffer": 0, "byteOffset": 45108, "byteLength": 32}, {"buffer": 0, "byteOffset": 45140, "byteLength": 48}, {"buffer": 0, "byteOffset": 45188, "byteLength": 12}, {"buffer": 0, "byteOffset": 45200, "byteLength": 48}, {"buffer": 0, "byteOffset": 45248, "byteLength": 32}, {"buffer": 0, "byteOffset": 45280, "byteLength": 48}, {"buffer": 0, "byteOffset": 45328, "byteLength": 12}, {"buffer": 0, "byteOffset": 45340, "byteLength": 48}, {"buffer": 0, "byteOffset": 45388, "byteLength": 32}, {"buffer": 0, "byteOffset": 45420, "byteLength": 48}, {"buffer": 0, "byteOffset": 45468, "byteLength": 12}, {"buffer": 0, "byteOffset": 45480, "byteLength": 48}, {"buffer": 0, "byteOffset": 45528, "byteLength": 32}, {"buffer": 0, "byteOffset": 45560, "byteLength": 48}, {"buffer": 0, "byteOffset": 45608, "byteLength": 12}, {"buffer": 0, "byteOffset": 45620, "byteLength": 48}, {"buffer": 0, "byteOffset": 45668, "byteLength": 32}, {"buffer": 0, "byteOffset": 45700, "byteLength": 48}, {"buffer": 0, "byteOffset": 45748, "byteLength": 12}, {"buffer": 0, "byteOffset": 45760, "byteLength": 96}, {"buffer": 0, "byteOffset": 45856, "byteLength": 64}, {"buffer": 0, "byteOffset": 45920, "byteLength": 96}, {"buffer": 0, "byteOffset": 46016, "byteLength": 24}, {"buffer": 0, "byteOffset": 46040, "byteLength": 96}, {"buffer": 0, "byteOffset": 46136, "byteLength": 64}, {"buffer": 0, "byteOffset": 46200, "byteLength": 96}, {"buffer": 0, "byteOffset": 46296, "byteLength": 24}, {"buffer": 0, "byteOffset": 46320, "byteLength": 48}, {"buffer": 0, "byteOffset": 46368, "byteLength": 32}, {"buffer": 0, "byteOffset": 46400, "byteLength": 48}, {"buffer": 0, "byteOffset": 46448, "byteLength": 12}, {"buffer": 0, "byteOffset": 46460, "byteLength": 144}, {"buffer": 0, "byteOffset": 46604, "byteLength": 96}, {"buffer": 0, "byteOffset": 46700, "byteLength": 144}, {"buffer": 0, "byteOffset": 46844, "byteLength": 36}, {"buffer": 0, "byteOffset": 46880, "byteLength": 144}, {"buffer": 0, "byteOffset": 47024, "byteLength": 96}, {"buffer": 0, "byteOffset": 47120, "byteLength": 144}, {"buffer": 0, "byteOffset": 47264, "byteLength": 36}, {"buffer": 0, "byteOffset": 47300, "byteLength": 144}, {"buffer": 0, "byteOffset": 47444, "byteLength": 96}, {"buffer": 0, "byteOffset": 47540, "byteLength": 144}, {"buffer": 0, "byteOffset": 47684, "byteLength": 36}, {"buffer": 0, "byteOffset": 47720, "byteLength": 144}, {"buffer": 0, "byteOffset": 47864, "byteLength": 96}, {"buffer": 0, "byteOffset": 47960, "byteLength": 144}, {"buffer": 0, "byteOffset": 48104, "byteLength": 36}, {"buffer": 0, "byteOffset": 48140, "byteLength": 768}, {"buffer": 0, "byteOffset": 48908, "byteLength": 512}, {"buffer": 0, "byteOffset": 49420, "byteLength": 768}, {"buffer": 0, "byteOffset": 50188, "byteLength": 216}, {"buffer": 0, "byteOffset": 50404, "byteLength": 864}, {"buffer": 0, "byteOffset": 51268, "byteLength": 576}, {"buffer": 0, "byteOffset": 51844, "byteLength": 864}, {"buffer": 0, "byteOffset": 52708, "byteLength": 288}, {"buffer": 0, "byteOffset": 52996, "byteLength": 1320}, {"buffer": 0, "byteOffset": 54316, "byteLength": 880}, {"buffer": 0, "byteOffset": 55196, "byteLength": 1320}, {"buffer": 0, "byteOffset": 56516, "byteLength": 336}, {"buffer": 0, "byteOffset": 56852, "byteLength": 192}, {"buffer": 0, "byteOffset": 57044, "byteLength": 128}, {"buffer": 0, "byteOffset": 57172, "byteLength": 192}, {"buffer": 0, "byteOffset": 57364, "byteLength": 48}, {"buffer": 0, "byteOffset": 57412, "byteLength": 216}, {"buffer": 0, "byteOffset": 57628, "byteLength": 144}, {"buffer": 0, "byteOffset": 57772, "byteLength": 216}, {"buffer": 0, "byteOffset": 57988, "byteLength": 60}, {"buffer": 0, "byteOffset": 58048, "byteLength": 324}, {"buffer": 0, "byteOffset": 58372, "byteLength": 216}, {"buffer": 0, "byteOffset": 58588, "byteLength": 324}, {"buffer": 0, "byteOffset": 58912, "byteLength": 90}, {"buffer": 0, "byteOffset": 59004, "byteLength": 720}, {"buffer": 0, "byteOffset": 59724, "byteLength": 480}, {"buffer": 0, "byteOffset": 60204, "byteLength": 720}, {"buffer": 0, "byteOffset": 60924, "byteLength": 216}, {"buffer": 0, "byteOffset": 61140, "byteLength": 48}, {"buffer": 0, "byteOffset": 61188, "byteLength": 32}, {"buffer": 0, "byteOffset": 61220, "byteLength": 12}, {"buffer": 0, "byteOffset": 61232, "byteLength": 576}, {"buffer": 0, "byteOffset": 61808, "byteLength": 384}, {"buffer": 0, "byteOffset": 62192, "byteLength": 576}, {"buffer": 0, "byteOffset": 62768, "byteLength": 144}, {"buffer": 0, "byteOffset": 62912, "byteLength": 72}, {"buffer": 0, "byteOffset": 62984, "byteLength": 48}, {"buffer": 0, "byteOffset": 63032, "byteLength": 72}, {"buffer": 0, "byteOffset": 63104, "byteLength": 24}, {"buffer": 0, "byteOffset": 63128, "byteLength": 384}, {"buffer": 0, "byteOffset": 63512, "byteLength": 256}, {"buffer": 0, "byteOffset": 63768, "byteLength": 384}, {"buffer": 0, "byteOffset": 64152, "byteLength": 84}, {"buffer": 0, "byteOffset": 64236, "byteLength": 72}, {"buffer": 0, "byteOffset": 64308, "byteLength": 48}, {"buffer": 0, "byteOffset": 64356, "byteLength": 72}, {"buffer": 0, "byteOffset": 64428, "byteLength": 24}, {"buffer": 0, "byteOffset": 64452, "byteLength": 288}, {"buffer": 0, "byteOffset": 64740, "byteLength": 192}, {"buffer": 0, "byteOffset": 64932, "byteLength": 72}, {"buffer": 0, "byteOffset": 65004, "byteLength": 624}, {"buffer": 0, "byteOffset": 65628, "byteLength": 416}, {"buffer": 0, "byteOffset": 66044, "byteLength": 192}, {"buffer": 0, "byteOffset": 66236, "byteLength": 96}, {"buffer": 0, "byteOffset": 66332, "byteLength": 64}, {"buffer": 0, "byteOffset": 66396, "byteLength": 96}, {"buffer": 0, "byteOffset": 66492, "byteLength": 24}, {"buffer": 0, "byteOffset": 66516, "byteLength": 48}, {"buffer": 0, "byteOffset": 66564, "byteLength": 32}, {"buffer": 0, "byteOffset": 66596, "byteLength": 12}, {"buffer": 0, "byteOffset": 66608, "byteLength": 528}, {"buffer": 0, "byteOffset": 67136, "byteLength": 352}, {"buffer": 0, "byteOffset": 67488, "byteLength": 528}, {"buffer": 0, "byteOffset": 68016, "byteLength": 144}, {"buffer": 0, "byteOffset": 68160, "byteLength": 48}, {"buffer": 0, "byteOffset": 68208, "byteLength": 32}, {"buffer": 0, "byteOffset": 68240, "byteLength": 48}, {"buffer": 0, "byteOffset": 68288, "byteLength": 12}, {"buffer": 0, "byteOffset": 68300, "byteLength": 1392}, {"buffer": 0, "byteOffset": 69692, "byteLength": 928}, {"buffer": 0, "byteOffset": 70620, "byteLength": 1392}, {"buffer": 0, "byteOffset": 72012, "byteLength": 372}, {"buffer": 0, "byteOffset": 72384, "byteLength": 96}, {"buffer": 0, "byteOffset": 72480, "byteLength": 64}, {"buffer": 0, "byteOffset": 72544, "byteLength": 96}, {"buffer": 0, "byteOffset": 72640, "byteLength": 24}, {"buffer": 0, "byteOffset": 72664, "byteLength": 2760}, {"buffer": 0, "byteOffset": 75424, "byteLength": 1840}, {"buffer": 0, "byteOffset": 77264, "byteLength": 2760}, {"buffer": 0, "byteOffset": 80024, "byteLength": 948}, {"buffer": 0, "byteOffset": 80972, "byteLength": 1896}, {"buffer": 0, "byteOffset": 82868, "byteLength": 1264}, {"buffer": 0, "byteOffset": 84132, "byteLength": 1896}, {"buffer": 0, "byteOffset": 86028, "byteLength": 660}, {"buffer": 0, "byteOffset": 86688, "byteLength": 1392}, {"buffer": 0, "byteOffset": 88080, "byteLength": 928}, {"buffer": 0, "byteOffset": 89008, "byteLength": 1392}, {"buffer": 0, "byteOffset": 90400, "byteLength": 408}, {"buffer": 0, "byteOffset": 90808, "byteLength": 192}, {"buffer": 0, "byteOffset": 91000, "byteLength": 128}, {"buffer": 0, "byteOffset": 91128, "byteLength": 192}, {"buffer": 0, "byteOffset": 91320, "byteLength": 48}, {"buffer": 0, "byteOffset": 91368, "byteLength": 96}, {"buffer": 0, "byteOffset": 91464, "byteLength": 64}, {"buffer": 0, "byteOffset": 91528, "byteLength": 96}, {"buffer": 0, "byteOffset": 91624, "byteLength": 24}, {"buffer": 0, "byteOffset": 91648, "byteLength": 336}, {"buffer": 0, "byteOffset": 91984, "byteLength": 224}, {"buffer": 0, "byteOffset": 92208, "byteLength": 336}, {"buffer": 0, "byteOffset": 92544, "byteLength": 96}, {"buffer": 0, "byteOffset": 92640, "byteLength": 48}, {"buffer": 0, "byteOffset": 92688, "byteLength": 32}, {"buffer": 0, "byteOffset": 92720, "byteLength": 12}, {"buffer": 0, "byteOffset": 92732, "byteLength": 3696}, {"buffer": 0, "byteOffset": 96428, "byteLength": 2464}, {"buffer": 0, "byteOffset": 98892, "byteLength": 3696}, {"buffer": 0, "byteOffset": 102588, "byteLength": 924}, {"buffer": 0, "byteOffset": 103512, "byteLength": 1176}, {"buffer": 0, "byteOffset": 104688, "byteLength": 784}, {"buffer": 0, "byteOffset": 105472, "byteLength": 1176}, {"buffer": 0, "byteOffset": 106648, "byteLength": 276}, {"buffer": 0, "byteOffset": 106924, "byteLength": 384}, {"buffer": 0, "byteOffset": 107308, "byteLength": 256}, {"buffer": 0, "byteOffset": 107564, "byteLength": 384}, {"buffer": 0, "byteOffset": 107948, "byteLength": 96}, {"buffer": 0, "byteOffset": 108044, "byteLength": 1008}, {"buffer": 0, "byteOffset": 109052, "byteLength": 672}, {"buffer": 0, "byteOffset": 109724, "byteLength": 1008}, {"buffer": 0, "byteOffset": 110732, "byteLength": 252}, {"buffer": 0, "byteOffset": 110984, "byteLength": 48}, {"buffer": 0, "byteOffset": 111032, "byteLength": 32}, {"buffer": 0, "byteOffset": 111064, "byteLength": 48}, {"buffer": 0, "byteOffset": 111112, "byteLength": 12}, {"buffer": 0, "byteOffset": 111124, "byteLength": 192}, {"buffer": 0, "byteOffset": 111316, "byteLength": 128}, {"buffer": 0, "byteOffset": 111444, "byteLength": 60}, {"buffer": 0, "byteOffset": 111504, "byteLength": 144}, {"buffer": 0, "byteOffset": 111648, "byteLength": 96}, {"buffer": 0, "byteOffset": 111744, "byteLength": 48}, {"buffer": 0, "byteOffset": 111792, "byteLength": 192}, {"buffer": 0, "byteOffset": 111984, "byteLength": 128}, {"buffer": 0, "byteOffset": 112112, "byteLength": 60}, {"buffer": 0, "byteOffset": 112172, "byteLength": 192}, {"buffer": 0, "byteOffset": 112364, "byteLength": 128}, {"buffer": 0, "byteOffset": 112492, "byteLength": 72}, {"buffer": 0, "byteOffset": 112564, "byteLength": 48}, {"buffer": 0, "byteOffset": 112612, "byteLength": 32}, {"buffer": 0, "byteOffset": 112644, "byteLength": 48}, {"buffer": 0, "byteOffset": 112692, "byteLength": 12}, {"buffer": 0, "byteOffset": 112704, "byteLength": 192}, {"buffer": 0, "byteOffset": 112896, "byteLength": 128}, {"buffer": 0, "byteOffset": 113024, "byteLength": 60}, {"buffer": 0, "byteOffset": 113084, "byteLength": 48}, {"buffer": 0, "byteOffset": 113132, "byteLength": 32}, {"buffer": 0, "byteOffset": 113164, "byteLength": 48}, {"buffer": 0, "byteOffset": 113212, "byteLength": 12}, {"buffer": 0, "byteOffset": 113224, "byteLength": 132}, {"buffer": 0, "byteOffset": 113356, "byteLength": 88}, {"buffer": 0, "byteOffset": 113444, "byteLength": 42}, {"buffer": 0, "byteOffset": 113488, "byteLength": 96}, {"buffer": 0, "byteOffset": 113584, "byteLength": 64}, {"buffer": 0, "byteOffset": 113648, "byteLength": 96}, {"buffer": 0, "byteOffset": 113744, "byteLength": 36}, {"buffer": 0, "byteOffset": 113780, "byteLength": 48}, {"buffer": 0, "byteOffset": 113828, "byteLength": 32}, {"buffer": 0, "byteOffset": 113860, "byteLength": 48}, {"buffer": 0, "byteOffset": 113908, "byteLength": 12}, {"buffer": 0, "byteOffset": 113920, "byteLength": 48}, {"buffer": 0, "byteOffset": 113968, "byteLength": 32}, {"buffer": 0, "byteOffset": 114000, "byteLength": 48}, {"buffer": 0, "byteOffset": 114048, "byteLength": 12}], "accessors": [{"bufferView": 0, "byteOffset": 0, "componentType": 5126, "count": 16, "type": "VEC3", "min": [-0.2119140625, -0.2607421875, 0.0], "max": [0.2119140625, 0.25537109375, 0.0]}, {"bufferView": 1, "byteOffset": 0, "componentType": 5126, "count": 16, "type": "VEC2"}, {"bufferView": 2, "byteOffset": 0, "componentType": 5126, "count": 16, "type": "VEC3"}, {"bufferView": 3, "byteOffset": 0, "componentType": 5123, "count": 24, "type": "SCALAR"}, {"bufferView": 4, "byteOffset": 0, "componentType": 5126, "count": 35, "type": "VEC3", "min": [-1.5, 0.0, 3.075927734375], "max": [2.3125, 0.75, 4.875]}, {"bufferView": 5, "byteOffset": 0, "componentType": 5126, "count": 35, "type": "VEC2"}, {"bufferView": 6, "byteOffset": 0, "componentType": 5126, "count": 35, "type": "VEC3"}, {"bufferView": 7, "byteOffset": 0, "componentType": 5123, "count": 63, "type": "SCALAR"}, {"bufferView": 8, "byteOffset": 0, "componentType": 5126, "count": 8, "type": "VEC3", "min": [-0.070068359375, 0.768310546875, 2.923095703125], "max": [1.065185546875, 0.7685546875, 4.076904296875]}, {"bufferView": 9, "byteOffset": 0, "componentType": 5126, "count": 8, "type": "VEC2"}, {"bufferView": 10, "byteOffset": 0, "componentType": 5126, "count": 8, "type": "VEC3"}, {"bufferView": 11, "byteOffset": 0, "componentType": 5123, "count": 12, "type": "SCALAR"}, {"bufferView": 12, "byteOffset": 0, "componentType": 5126, "count": 256, "type": "VEC3", "min": [-0.08740234375, -0.067626953125, 4.03369140625], "max": [1.08740234375, 0.838623046875, 5.090087890625]}, {"bufferView": 13, "byteOffset": 0, "componentType": 5126, "count": 256, "type": "VEC2"}, {"bufferView": 14, "byteOffset": 0, "componentType": 5126, "count": 256, "type": "VEC3"}, {"bufferView": 15, "byteOffset": 0, "componentType": 5123, "count": 468, "type": "SCALAR"}, {"bufferView": 16, "byteOffset": 0, "componentType": 5126, "count": 8, "type": "VEC3", "min": [0.094970703125, 1.311767578125, 2.89599609375], "max": [0.904541015625, 1.567626953125, 2.992431640625]}, {"bufferView": 17, "byteOffset": 0, "componentType": 5126, "count": 8, "type": "VEC2"}, {"bufferView": 18, "byteOffset": 0, "componentType": 5123, "count": 12, "type": "SCALAR"}, {"bufferView": 19, "byteOffset": 0, "componentType": 5126, "count": 12, "type": "VEC3", "min": [0.06982421875, 1.4033203125, 2.849609375], "max": [0.9296875, 1.593994140625, 2.963623046875]}, {"bufferView": 20, "byteOffset": 0, "componentType": 5126, "count": 12, "type": "VEC2"}, {"bufferView": 21, "byteOffset": 0, "componentType": 5126, "count": 12, "type": "VEC3"}, {"bufferView": 22, "byteOffset": 0, "componentType": 5123, "count": 24, "type": "SCALAR"}, {"bufferView": 23, "byteOffset": 0, "componentType": 5126, "count": 544, "type": "VEC3", "min": [-1.3916015625, 0.75, 2.196533203125], "max": [2.3916015625, 1.10791015625, 2.978271484375]}, {"bufferView": 24, "byteOffset": 0, "componentType": 5126, "count": 544, "type": "VEC2"}, {"bufferView": 25, "byteOffset": 0, "componentType": 5126, "count": 544, "type": "VEC3"}, {"bufferView": 26, "byteOffset": 0, "componentType": 5123, "count": 780, "type": "SCALAR"}, {"bufferView": 27, "byteOffset": 0, "componentType": 5126, "count": 74, "type": "VEC3", "min": [-0.021728515625, 0.75, 2.908447265625], "max": [1.021484375, 1.57373046875, 3.010009765625]}, {"bufferView": 28, "byteOffset": 0, "componentType": 5126, "count": 74, "type": "VEC2"}, {"bufferView": 29, "byteOffset": 0, "componentType": 5126, "count": 74, "type": "VEC3"}, {"bufferView": 30, "byteOffset": 0, "componentType": 5123, "count": 174, "type": "SCALAR"}, {"bufferView": 31, "byteOffset": 0, "componentType": 5126, "count": 58, "type": "VEC3", "min": [-1.33203125, 1.0, 2.27294921875], "max": [2.33203125, 1.12548828125, 2.918701171875]}, {"bufferView": 32, "byteOffset": 0, "componentType": 5126, "count": 58, "type": "VEC2"}, {"bufferView": 33, "byteOffset": 0, "componentType": 5126, "count": 58, "type": "VEC3"}, {"bufferView": 34, "byteOffset": 0, "componentType": 5123, "count": 78, "type": "SCALAR"}, {"bufferView": 35, "byteOffset": 0, "componentType": 5126, "count": 12, "type": "VEC3", "min": [-0.5, 0.743408203125, 0.0], "max": [1.5, 0.75, 4.0]}, {"bufferView": 36, "byteOffset": 0, "componentType": 5126, "count": 12, "type": "VEC2"}, {"bufferView": 37, "byteOffset": 0, "componentType": 5126, "count": 12, "type": "VEC3"}, {"bufferView": 38, "byteOffset": 0, "componentType": 5123, "count": 24, "type": "SCALAR"}, {"bufferView": 39, "byteOffset": 0, "componentType": 5126, "count": 4, "type": "VEC3", "min": [-0.32666015625, 0.75, 0.014404296875], "max": [-0.077880859375, 0.94482421875, 0.169189453125]}, {"bufferView": 40, "byteOffset": 0, "componentType": 5126, "count": 4, "type": "VEC2"}, {"bufferView": 41, "byteOffset": 0, "componentType": 5126, "count": 4, "type": "VEC3"}, {"bufferView": 42, "byteOffset": 0, "componentType": 5123, "count": 6, "type": "SCALAR"}, {"bufferView": 43, "byteOffset": 0, "componentType": 5126, "count": 144, "type": "VEC3", "min": [-1.04736328125, 0.703857421875, 3.1650390625], "max": [2.072021484375, 1.07373046875, 4.022216796875]}, {"bufferView": 44, "byteOffset": 0, "componentType": 5126, "count": 144, "type": "VEC2"}, {"bufferView": 45, "byteOffset": 0, "componentType": 5126, "count": 144, "type": "VEC3"}, {"bufferView": 46, "byteOffset": 0, "componentType": 5123, "count": 216, "type": "SCALAR"}, {"bufferView": 47, "byteOffset": 0, "componentType": 5126, "count": 24, "type": "VEC3", "min": [-0.9423828125, 0.835693359375, 3.33935546875], "max": [1.539306640625, 1.067138671875, 4.028076171875]}, {"bufferView": 48, "byteOffset": 0, "componentType": 5126, "count": 24, "type": "VEC2"}, {"bufferView": 49, "byteOffset": 0, "componentType": 5126, "count": 24, "type": "VEC3"}, {"bufferView": 50, "byteOffset": 0, "componentType": 5123, "count": 36, "type": "SCALAR"}, {"bufferView": 51, "byteOffset": 0, "componentType": 5126, "count": 40, "type": "VEC3", "min": [-2.14990234375, 0.73681640625, 0.0908203125], "max": [2.5673828125, 0.8544921875, 1.335693359375]}, {"bufferView": 52, "byteOffset": 0, "componentType": 5126, "count": 40, "type": "VEC2"}, {"bufferView": 53, "byteOffset": 0, "componentType": 5126, "count": 40, "type": "VEC3"}, {"bufferView": 54, "byteOffset": 0, "componentType": 5123, "count": 60, "type": "SCALAR"}, {"bufferView": 55, "byteOffset": 0, "componentType": 5126, "count": 36, "type": "VEC3", "min": [-0.86669921875, 0.781005859375, -0.47802734375], "max": [3.1455078125, 0.799072265625, 2.71875]}, {"bufferView": 56, "byteOffset": 0, "componentType": 5126, "count": 36, "type": "VEC2"}, {"bufferView": 57, "byteOffset": 0, "componentType": 5126, "count": 36, "type": "VEC3"}, {"bufferView": 58, "byteOffset": 0, "componentType": 5123, "count": 54, "type": "SCALAR"}, {"bufferView": 59, "byteOffset": 0, "componentType": 5126, "count": 8, "type": "VEC3", "min": [1.04345703125, 0.75, 0.03564453125], "max": [3.180419921875, 0.9638671875, 1.841064453125]}, {"bufferView": 60, "byteOffset": 0, "componentType": 5126, "count": 8, "type": "VEC2"}, {"bufferView": 61, "byteOffset": 0, "componentType": 5126, "count": 8, "type": "VEC3"}, {"bufferView": 62, "byteOffset": 0, "componentType": 5123, "count": 12, "type": "SCALAR"}, {"bufferView": 63, "byteOffset": 0, "componentType": 5126, "count": 4, "type": "VEC3", "min": [1.87158203125, 0.75, 0.8466796875], "max": [2.12060546875, 0.94482421875, 1.00146484375]}, {"bufferView": 64, "byteOffset": 0, "componentType": 5126, "count": 4, "type": "VEC2"}, {"bufferView": 65, "byteOffset": 0, "componentType": 5126, "count": 4, "type": "VEC3"}, {"bufferView": 66, "byteOffset": 0, "componentType": 5123, "count": 6, "type": "SCALAR"}, {"bufferView": 67, "byteOffset": 0, "componentType": 5126, "count": 4, "type": "VEC3", "min": [-1.1806640625, 0.75, 1.802978515625], "max": [-0.931884765625, 0.94482421875, 1.957763671875]}, {"bufferView": 68, "byteOffset": 0, "componentType": 5126, "count": 4, "type": "VEC2"}, {"bufferView": 69, "byteOffset": 0, "componentType": 5126, "count": 4, "type": "VEC3"}, {"bufferView": 70, "byteOffset": 0, "componentType": 5123, "count": 6, "type": "SCALAR"}, {"bufferView": 71, "byteOffset": 0, "componentType": 5126, "count": 4, "type": "VEC3", "min": [-1.3251953125, 0.75, 1.4716796875], "max": [-1.076171875, 0.94482421875, 1.626220703125]}, {"bufferView": 72, "byteOffset": 0, "componentType": 5126, "count": 4, "type": "VEC2"}, {"bufferView": 73, "byteOffset": 0, "componentType": 5126, "count": 4, "type": "VEC3"}, {"bufferView": 74, "byteOffset": 0, "componentType": 5123, "count": 6, "type": "SCALAR"}, {"bufferView": 75, "byteOffset": 0, "componentType": 5126, "count": 4, "type": "VEC3", "min": [-0.82373046875, 0.75, 0.7451171875], "max": [-0.574951171875, 0.94482421875, 0.899658203125]}, {"bufferView": 76, "byteOffset": 0, "componentType": 5126, "count": 4, "type": "VEC2"}, {"bufferView": 77, "byteOffset": 0, "componentType": 5126, "count": 4, "type": "VEC3"}, {"bufferView": 78, "byteOffset": 0, "componentType": 5123, "count": 6, "type": "SCALAR"}, {"bufferView": 79, "byteOffset": 0, "componentType": 5126, "count": 4, "type": "VEC3", "min": [1.732177734375, 0.75, 1.82958984375], "max": [1.98095703125, 0.94482421875, 1.984130859375]}, {"bufferView": 80, "byteOffset": 0, "componentType": 5126, "count": 4, "type": "VEC2"}, {"bufferView": 81, "byteOffset": 0, "componentType": 5126, "count": 4, "type": "VEC3"}, {"bufferView": 82, "byteOffset": 0, "componentType": 5123, "count": 6, "type": "SCALAR"}, {"bufferView": 83, "byteOffset": 0, "componentType": 5126, "count": 4, "type": "VEC3", "min": [1.482177734375, 0.75, 2.0283203125], "max": [1.73095703125, 0.94482421875, 2.182861328125]}, {"bufferView": 84, "byteOffset": 0, "componentType": 5126, "count": 4, "type": "VEC2"}, {"bufferView": 85, "byteOffset": 0, "componentType": 5126, "count": 4, "type": "VEC3"}, {"bufferView": 86, "byteOffset": 0, "componentType": 5123, "count": 6, "type": "SCALAR"}, {"bufferView": 87, "byteOffset": 0, "componentType": 5126, "count": 8, "type": "VEC3", "min": [1.123046875, 0.75, -0.306884765625], "max": [3.260009765625, 0.9638671875, 1.49853515625]}, {"bufferView": 88, "byteOffset": 0, "componentType": 5126, "count": 8, "type": "VEC2"}, {"bufferView": 89, "byteOffset": 0, "componentType": 5126, "count": 8, "type": "VEC3"}, {"bufferView": 90, "byteOffset": 0, "componentType": 5123, "count": 12, "type": "SCALAR"}, {"bufferView": 91, "byteOffset": 0, "componentType": 5126, "count": 8, "type": "VEC3", "min": [0.873046875, 0.75, -0.557373046875], "max": [3.010009765625, 0.9638671875, 1.248291015625]}, {"bufferView": 92, "byteOffset": 0, "componentType": 5126, "count": 8, "type": "VEC2"}, {"bufferView": 93, "byteOffset": 0, "componentType": 5126, "count": 8, "type": "VEC3"}, {"bufferView": 94, "byteOffset": 0, "componentType": 5123, "count": 12, "type": "SCALAR"}, {"bufferView": 95, "byteOffset": 0, "componentType": 5126, "count": 4, "type": "VEC3", "min": [-1.088623046875, 0.75, 0.865234375], "max": [-0.83984375, 0.94482421875, 1.02001953125]}, {"bufferView": 96, "byteOffset": 0, "componentType": 5126, "count": 4, "type": "VEC2"}, {"bufferView": 97, "byteOffset": 0, "componentType": 5126, "count": 4, "type": "VEC3"}, {"bufferView": 98, "byteOffset": 0, "componentType": 5123, "count": 6, "type": "SCALAR"}, {"bufferView": 99, "byteOffset": 0, "componentType": 5126, "count": 12, "type": "VEC3", "min": [-0.4423828125, 0.835693359375, 3.33935546875], "max": [-0.068359375, 1.067138671875, 3.46533203125]}, {"bufferView": 100, "byteOffset": 0, "componentType": 5126, "count": 12, "type": "VEC2"}, {"bufferView": 101, "byteOffset": 0, "componentType": 5126, "count": 12, "type": "VEC3"}, {"bufferView": 102, "byteOffset": 0, "componentType": 5123, "count": 18, "type": "SCALAR"}, {"bufferView": 103, "byteOffset": 0, "componentType": 5126, "count": 12, "type": "VEC3", "min": [-0.5361328125, 0.835693359375, 3.860107421875], "max": [-0.162109375, 1.067138671875, 3.986328125]}, {"bufferView": 104, "byteOffset": 0, "componentType": 5126, "count": 12, "type": "VEC2"}, {"bufferView": 105, "byteOffset": 0, "componentType": 5126, "count": 12, "type": "VEC3"}, {"bufferView": 106, "byteOffset": 0, "componentType": 5123, "count": 18, "type": "SCALAR"}, {"bufferView": 107, "byteOffset": 0, "componentType": 5126, "count": 12, "type": "VEC3", "min": [1.09765625, 0.835693359375, 3.33935546875], "max": [1.4716796875, 1.067138671875, 3.46533203125]}, {"bufferView": 108, "byteOffset": 0, "componentType": 5126, "count": 12, "type": "VEC2"}, {"bufferView": 109, "byteOffset": 0, "componentType": 5126, "count": 12, "type": "VEC3"}, {"bufferView": 110, "byteOffset": 0, "componentType": 5123, "count": 18, "type": "SCALAR"}, {"bufferView": 111, "byteOffset": 0, "componentType": 5126, "count": 12, "type": "VEC3", "min": [1.59765625, 0.835693359375, 3.33935546875], "max": [1.9716796875, 1.067138671875, 3.46533203125]}, {"bufferView": 112, "byteOffset": 0, "componentType": 5126, "count": 12, "type": "VEC2"}, {"bufferView": 113, "byteOffset": 0, "componentType": 5126, "count": 12, "type": "VEC3"}, {"bufferView": 114, "byteOffset": 0, "componentType": 5123, "count": 18, "type": "SCALAR"}, {"bufferView": 115, "byteOffset": 0, "componentType": 5126, "count": 64, "type": "VEC3", "min": [-0.8994140625, 0.751953125, -0.049560546875], "max": [1.844970703125, 1.006103515625, 0.46728515625]}, {"bufferView": 116, "byteOffset": 0, "componentType": 5126, "count": 64, "type": "VEC2"}, {"bufferView": 117, "byteOffset": 0, "componentType": 5126, "count": 64, "type": "VEC3"}, {"bufferView": 118, "byteOffset": 0, "componentType": 5123, "count": 108, "type": "SCALAR"}, {"bufferView": 119, "byteOffset": 0, "componentType": 5126, "count": 72, "type": "VEC3", "min": [-4.712890625, 0.7109375, -3.137939453125], "max": [5.53662109375, 2.178466796875, -0.353271484375]}, {"bufferView": 120, "byteOffset": 0, "componentType": 5126, "count": 72, "type": "VEC2"}, {"bufferView": 121, "byteOffset": 0, "componentType": 5126, "count": 72, "type": "VEC3"}, {"bufferView": 122, "byteOffset": 0, "componentType": 5123, "count": 144, "type": "SCALAR"}, {"bufferView": 123, "byteOffset": 0, "componentType": 5126, "count": 110, "type": "VEC3", "min": [-1.5, 0.0, -1.074951171875], "max": [5.5, 0.75, 5.074951171875]}, {"bufferView": 124, "byteOffset": 0, "componentType": 5126, "count": 110, "type": "VEC2"}, {"bufferView": 125, "byteOffset": 0, "componentType": 5126, "count": 110, "type": "VEC3"}, {"bufferView": 126, "byteOffset": 0, "componentType": 5123, "count": 168, "type": "SCALAR"}, {"bufferView": 127, "byteOffset": 0, "componentType": 5126, "count": 16, "type": "VEC3", "min": [-0.5, 0.72607421875, 3.979736328125], "max": [1.476318359375, 0.75, 4.0625]}, {"bufferView": 128, "byteOffset": 0, "componentType": 5126, "count": 16, "type": "VEC2"}, {"bufferView": 129, "byteOffset": 0, "componentType": 5126, "count": 16, "type": "VEC3"}, {"bufferView": 130, "byteOffset": 0, "componentType": 5123, "count": 24, "type": "SCALAR"}, {"bufferView": 131, "byteOffset": 0, "componentType": 5126, "count": 18, "type": "VEC3", "min": [-2.5, 0.0, 3.094970703125], "max": [-1.92724609375, 0.75, 3.875]}, {"bufferView": 132, "byteOffset": 0, "componentType": 5126, "count": 18, "type": "VEC2"}, {"bufferView": 133, "byteOffset": 0, "componentType": 5126, "count": 18, "type": "VEC3"}, {"bufferView": 134, "byteOffset": 0, "componentType": 5123, "count": 30, "type": "SCALAR"}, {"bufferView": 135, "byteOffset": 0, "componentType": 5126, "count": 27, "type": "VEC3", "min": [-2.1318359375, 0.0, 2.426025390625], "max": [4.5, 0.75, 4.0]}, {"bufferView": 136, "byteOffset": 0, "componentType": 5126, "count": 27, "type": "VEC2"}, {"bufferView": 137, "byteOffset": 0, "componentType": 5126, "count": 27, "type": "VEC3"}, {"bufferView": 138, "byteOffset": 0, "componentType": 5123, "count": 45, "type": "SCALAR"}, {"bufferView": 139, "byteOffset": 0, "componentType": 5126, "count": 60, "type": "VEC3", "min": [-4.75, 0.0, -1.074951171875], "max": [2.5, 0.75, 4.0]}, {"bufferView": 140, "byteOffset": 0, "componentType": 5126, "count": 60, "type": "VEC2"}, {"bufferView": 141, "byteOffset": 0, "componentType": 5126, "count": 60, "type": "VEC3"}, {"bufferView": 142, "byteOffset": 0, "componentType": 5123, "count": 108, "type": "SCALAR"}, {"bufferView": 143, "byteOffset": 0, "componentType": 5126, "count": 4, "type": "VEC3", "min": [0.294677734375, 2.58251953125, -0.312744140625], "max": [0.697021484375, 2.98486328125, -0.312744140625]}, {"bufferView": 144, "byteOffset": 0, "componentType": 5126, "count": 4, "type": "VEC2"}, {"bufferView": 145, "byteOffset": 0, "componentType": 5123, "count": 6, "type": "SCALAR"}, {"bufferView": 146, "byteOffset": 0, "componentType": 5126, "count": 48, "type": "VEC3", "min": [-1.22314453125, 0.933837890625, -0.3466796875], "max": [2.22265625, 1.21728515625, 0.259521484375]}, {"bufferView": 147, "byteOffset": 0, "componentType": 5126, "count": 48, "type": "VEC2"}, {"bufferView": 148, "byteOffset": 0, "componentType": 5126, "count": 48, "type": "VEC3"}, {"bufferView": 149, "byteOffset": 0, "componentType": 5123, "count": 72, "type": "SCALAR"}, {"bufferView": 150, "byteOffset": 0, "componentType": 5126, "count": 6, "type": "VEC3", "min": [-0.5, 0.75, -1.0], "max": [1.5, 0.75, 0.0]}, {"bufferView": 151, "byteOffset": 0, "componentType": 5126, "count": 6, "type": "VEC2"}, {"bufferView": 152, "byteOffset": 0, "componentType": 5126, "count": 6, "type": "VEC3"}, {"bufferView": 153, "byteOffset": 0, "componentType": 5123, "count": 12, "type": "SCALAR"}, {"bufferView": 154, "byteOffset": 0, "componentType": 5126, "count": 32, "type": "VEC3", "min": [-0.453369140625, 0.7666015625, -0.507568359375], "max": [1.459228515625, 0.768310546875, 0.513671875]}, {"bufferView": 155, "byteOffset": 0, "componentType": 5126, "count": 32, "type": "VEC2"}, {"bufferView": 156, "byteOffset": 0, "componentType": 5126, "count": 32, "type": "VEC3"}, {"bufferView": 157, "byteOffset": 0, "componentType": 5123, "count": 42, "type": "SCALAR"}, {"bufferView": 158, "byteOffset": 0, "componentType": 5126, "count": 6, "type": "VEC3", "min": [0.276611328125, 0.74267578125, -0.188720703125], "max": [0.72314453125, 1.219970703125, -0.188720703125]}, {"bufferView": 159, "byteOffset": 0, "componentType": 5126, "count": 6, "type": "VEC2"}, {"bufferView": 160, "byteOffset": 0, "componentType": 5126, "count": 6, "type": "VEC3"}, {"bufferView": 161, "byteOffset": 0, "componentType": 5123, "count": 12, "type": "SCALAR"}, {"bufferView": 162, "byteOffset": 0, "componentType": 5126, "count": 24, "type": "VEC3", "min": [-1.1181640625, 0.824951171875, -0.586181640625], "max": [2.12548828125, 2.24072265625, -0.339599609375]}, {"bufferView": 163, "byteOffset": 0, "componentType": 5126, "count": 24, "type": "VEC2"}, {"bufferView": 164, "byteOffset": 0, "componentType": 5123, "count": 36, "type": "SCALAR"}, {"bufferView": 165, "byteOffset": 0, "componentType": 5126, "count": 52, "type": "VEC3", "min": [-0.7060546875, 1.146240234375, -0.539794921875], "max": [1.7001953125, 2.800048828125, -0.329833984375]}, {"bufferView": 166, "byteOffset": 0, "componentType": 5126, "count": 52, "type": "VEC2"}, {"bufferView": 167, "byteOffset": 0, "componentType": 5123, "count": 96, "type": "SCALAR"}, {"bufferView": 168, "byteOffset": 0, "componentType": 5126, "count": 8, "type": "VEC3", "min": [0.359375, 1.357421875, -0.18310546875], "max": [0.63623046875, 1.88671875, -0.16357421875]}, {"bufferView": 169, "byteOffset": 0, "componentType": 5126, "count": 8, "type": "VEC2"}, {"bufferView": 170, "byteOffset": 0, "componentType": 5126, "count": 8, "type": "VEC3"}, {"bufferView": 171, "byteOffset": 0, "componentType": 5123, "count": 12, "type": "SCALAR"}, {"bufferView": 172, "byteOffset": 0, "componentType": 5126, "count": 4, "type": "VEC3", "min": [0.51220703125, 2.25439453125, -0.339599609375], "max": [0.843994140625, 2.619384765625, -0.339599609375]}, {"bufferView": 173, "byteOffset": 0, "componentType": 5126, "count": 4, "type": "VEC2"}, {"bufferView": 174, "byteOffset": 0, "componentType": 5123, "count": 6, "type": "SCALAR"}, {"bufferView": 175, "byteOffset": 0, "componentType": 5126, "count": 44, "type": "VEC3", "min": [-1.29443359375, 0.73193359375, -0.583251953125], "max": [2.2890625, 1.69140625, -0.444580078125]}, {"bufferView": 176, "byteOffset": 0, "componentType": 5126, "count": 44, "type": "VEC2"}, {"bufferView": 177, "byteOffset": 0, "componentType": 5126, "count": 44, "type": "VEC3"}, {"bufferView": 178, "byteOffset": 0, "componentType": 5123, "count": 72, "type": "SCALAR"}, {"bufferView": 179, "byteOffset": 0, "componentType": 5126, "count": 4, "type": "VEC3", "min": [0.424560546875, 2.018310546875, -0.20458984375], "max": [0.575439453125, 2.171142578125, -0.20458984375]}, {"bufferView": 180, "byteOffset": 0, "componentType": 5126, "count": 4, "type": "VEC2"}, {"bufferView": 181, "byteOffset": 0, "componentType": 5126, "count": 4, "type": "VEC3"}, {"bufferView": 182, "byteOffset": 0, "componentType": 5123, "count": 6, "type": "SCALAR"}, {"bufferView": 183, "byteOffset": 0, "componentType": 5126, "count": 116, "type": "VEC3", "min": [-1.306884765625, 0.731689453125, -1.21630859375], "max": [2.311279296875, 2.644775390625, -0.24462890625]}, {"bufferView": 184, "byteOffset": 0, "componentType": 5126, "count": 116, "type": "VEC2"}, {"bufferView": 185, "byteOffset": 0, "componentType": 5126, "count": 116, "type": "VEC3"}, {"bufferView": 186, "byteOffset": 0, "componentType": 5123, "count": 186, "type": "SCALAR"}, {"bufferView": 187, "byteOffset": 0, "componentType": 5126, "count": 8, "type": "VEC3", "min": [0.231201171875, 1.16259765625, -0.375], "max": [0.74169921875, 3.966796875, -0.169921875]}, {"bufferView": 188, "byteOffset": 0, "componentType": 5126, "count": 8, "type": "VEC2"}, {"bufferView": 189, "byteOffset": 0, "componentType": 5126, "count": 8, "type": "VEC3"}, {"bufferView": 190, "byteOffset": 0, "componentType": 5123, "count": 12, "type": "SCALAR"}, {"bufferView": 191, "byteOffset": 0, "componentType": 5126, "count": 230, "type": "VEC3", "min": [-1.48779296875, 1.239013671875, -1.417724609375], "max": [2.4853515625, 3.29736328125, -0.18359375]}, {"bufferView": 192, "byteOffset": 0, "componentType": 5126, "count": 230, "type": "VEC2"}, {"bufferView": 193, "byteOffset": 0, "componentType": 5126, "count": 230, "type": "VEC3"}, {"bufferView": 194, "byteOffset": 0, "componentType": 5123, "count": 474, "type": "SCALAR"}, {"bufferView": 195, "byteOffset": 0, "componentType": 5126, "count": 158, "type": "VEC3", "min": [-0.6181640625, 1.512451171875, -0.5458984375], "max": [1.634033203125, 3.29736328125, -0.183349609375]}, {"bufferView": 196, "byteOffset": 0, "componentType": 5126, "count": 158, "type": "VEC2"}, {"bufferView": 197, "byteOffset": 0, "componentType": 5126, "count": 158, "type": "VEC3"}, {"bufferView": 198, "byteOffset": 0, "componentType": 5123, "count": 330, "type": "SCALAR"}, {"bufferView": 199, "byteOffset": 0, "componentType": 5126, "count": 116, "type": "VEC3", "min": [-1.306884765625, 0.73193359375, -1.14404296875], "max": [2.311279296875, 3.28759765625, -0.197265625]}, {"bufferView": 200, "byteOffset": 0, "componentType": 5126, "count": 116, "type": "VEC2"}, {"bufferView": 201, "byteOffset": 0, "componentType": 5126, "count": 116, "type": "VEC3"}, {"bufferView": 202, "byteOffset": 0, "componentType": 5123, "count": 204, "type": "SCALAR"}, {"bufferView": 203, "byteOffset": 0, "componentType": 5126, "count": 16, "type": "VEC3", "min": [0.1201171875, 0.852783203125, -0.355224609375], "max": [0.880126953125, 1.4970703125, -0.18505859375]}, {"bufferView": 204, "byteOffset": 0, "componentType": 5126, "count": 16, "type": "VEC2"}, {"bufferView": 205, "byteOffset": 0, "componentType": 5126, "count": 16, "type": "VEC3"}, {"bufferView": 206, "byteOffset": 0, "componentType": 5123, "count": 24, "type": "SCALAR"}, {"bufferView": 207, "byteOffset": 0, "componentType": 5126, "count": 8, "type": "VEC3", "min": [-0.074462890625, 1.12646484375, -0.2724609375], "max": [1.078369140625, 1.532958984375, -0.155517578125]}, {"bufferView": 208, "byteOffset": 0, "componentType": 5126, "count": 8, "type": "VEC2"}, {"bufferView": 209, "byteOffset": 0, "componentType": 5126, "count": 8, "type": "VEC3"}, {"bufferView": 210, "byteOffset": 0, "componentType": 5123, "count": 12, "type": "SCALAR"}, {"bufferView": 211, "byteOffset": 0, "componentType": 5126, "count": 28, "type": "VEC3", "min": [-0.03857421875, 1.87255859375, -0.45751953125], "max": [1.05517578125, 2.780029296875, -0.324951171875]}, {"bufferView": 212, "byteOffset": 0, "componentType": 5126, "count": 28, "type": "VEC2"}, {"bufferView": 213, "byteOffset": 0, "componentType": 5126, "count": 28, "type": "VEC3"}, {"bufferView": 214, "byteOffset": 0, "componentType": 5123, "count": 48, "type": "SCALAR"}, {"bufferView": 215, "byteOffset": 0, "componentType": 5126, "count": 4, "type": "VEC3", "min": [0.1640625, 2.25439453125, -0.339599609375], "max": [0.5, 2.619384765625, -0.339599609375]}, {"bufferView": 216, "byteOffset": 0, "componentType": 5126, "count": 4, "type": "VEC2"}, {"bufferView": 217, "byteOffset": 0, "componentType": 5123, "count": 6, "type": "SCALAR"}, {"bufferView": 218, "byteOffset": 0, "componentType": 5126, "count": 308, "type": "VEC3", "min": [-1.39111328125, 0.75, -1.101806640625], "max": [2.38916015625, 1.10791015625, 0.734375]}, {"bufferView": 219, "byteOffset": 0, "componentType": 5126, "count": 308, "type": "VEC2"}, {"bufferView": 220, "byteOffset": 0, "componentType": 5126, "count": 308, "type": "VEC3"}, {"bufferView": 221, "byteOffset": 0, "componentType": 5123, "count": 462, "type": "SCALAR"}, {"bufferView": 222, "byteOffset": 0, "componentType": 5126, "count": 98, "type": "VEC3", "min": [-1.30078125, 0.63623046875, -0.471923828125], "max": [2.300537109375, 0.854248046875, 0.36865234375]}, {"bufferView": 223, "byteOffset": 0, "componentType": 5126, "count": 98, "type": "VEC2"}, {"bufferView": 224, "byteOffset": 0, "componentType": 5126, "count": 98, "type": "VEC3"}, {"bufferView": 225, "byteOffset": 0, "componentType": 5123, "count": 138, "type": "SCALAR"}, {"bufferView": 226, "byteOffset": 0, "componentType": 5126, "count": 32, "type": "VEC3", "min": [-1.331298828125, 0.99560546875, -1.114501953125], "max": [2.332763671875, 1.14453125, 0.66748046875]}, {"bufferView": 227, "byteOffset": 0, "componentType": 5126, "count": 32, "type": "VEC2"}, {"bufferView": 228, "byteOffset": 0, "componentType": 5126, "count": 32, "type": "VEC3"}, {"bufferView": 229, "byteOffset": 0, "componentType": 5123, "count": 48, "type": "SCALAR"}, {"bufferView": 230, "byteOffset": 0, "componentType": 5126, "count": 84, "type": "VEC3", "min": [-1.384765625, 0.84912109375, -1.169921875], "max": [2.384521484375, 1.092041015625, 0.322998046875]}, {"bufferView": 231, "byteOffset": 0, "componentType": 5126, "count": 84, "type": "VEC2"}, {"bufferView": 232, "byteOffset": 0, "componentType": 5126, "count": 84, "type": "VEC3"}, {"bufferView": 233, "byteOffset": 0, "componentType": 5123, "count": 126, "type": "SCALAR"}, {"bufferView": 234, "byteOffset": 0, "componentType": 5126, "count": 4, "type": "VEC3", "min": [-0.0205078125, 0.865478515625, 0.044189453125], "max": [0.101806640625, 0.98974609375, 0.044189453125]}, {"bufferView": 235, "byteOffset": 0, "componentType": 5126, "count": 4, "type": "VEC2"}, {"bufferView": 236, "byteOffset": 0, "componentType": 5126, "count": 4, "type": "VEC3"}, {"bufferView": 237, "byteOffset": 0, "componentType": 5123, "count": 6, "type": "SCALAR"}, {"bufferView": 238, "byteOffset": 0, "componentType": 5126, "count": 16, "type": "VEC3", "min": [-0.153564453125, 0.695556640625, -0.060302734375], "max": [0.089111328125, 1.23388671875, 0.062255859375]}, {"bufferView": 239, "byteOffset": 0, "componentType": 5126, "count": 16, "type": "VEC2"}, {"bufferView": 240, "byteOffset": 0, "componentType": 5123, "count": 30, "type": "SCALAR"}, {"bufferView": 241, "byteOffset": 0, "componentType": 5126, "count": 12, "type": "VEC3", "min": [-0.11962890625, -0.546875, -0.049072265625], "max": [0.164794921875, 0.695556640625, 0.0]}, {"bufferView": 242, "byteOffset": 0, "componentType": 5126, "count": 12, "type": "VEC2"}, {"bufferView": 243, "byteOffset": 0, "componentType": 5123, "count": 24, "type": "SCALAR"}, {"bufferView": 244, "byteOffset": 0, "componentType": 5126, "count": 16, "type": "VEC3", "min": [-0.356201171875, 0.653076171875, -0.060302734375], "max": [-0.0986328125, 1.23681640625, 0.062255859375]}, {"bufferView": 245, "byteOffset": 0, "componentType": 5126, "count": 16, "type": "VEC2"}, {"bufferView": 246, "byteOffset": 0, "componentType": 5123, "count": 30, "type": "SCALAR"}, {"bufferView": 247, "byteOffset": 0, "componentType": 5126, "count": 16, "type": "VEC3", "min": [-0.23974609375, -0.48583984375, -0.049072265625], "max": [0.1494140625, 0.690185546875, 0.0]}, {"bufferView": 248, "byteOffset": 0, "componentType": 5126, "count": 16, "type": "VEC2"}, {"bufferView": 249, "byteOffset": 0, "componentType": 5123, "count": 36, "type": "SCALAR"}, {"bufferView": 250, "byteOffset": 0, "componentType": 5126, "count": 4, "type": "VEC3", "min": [-0.387451171875, 0.836669921875, 0.063232421875], "max": [-0.1103515625, 1.1162109375, 0.063232421875]}, {"bufferView": 251, "byteOffset": 0, "componentType": 5126, "count": 4, "type": "VEC2"}, {"bufferView": 252, "byteOffset": 0, "componentType": 5126, "count": 4, "type": "VEC3"}, {"bufferView": 253, "byteOffset": 0, "componentType": 5123, "count": 6, "type": "SCALAR"}, {"bufferView": 254, "byteOffset": 0, "componentType": 5126, "count": 16, "type": "VEC3", "min": [-0.5263671875, 0.517333984375, -0.18310546875], "max": [-0.182373046875, 1.0390625, -0.023193359375]}, {"bufferView": 255, "byteOffset": 0, "componentType": 5126, "count": 16, "type": "VEC2"}, {"bufferView": 256, "byteOffset": 0, "componentType": 5123, "count": 30, "type": "SCALAR"}, {"bufferView": 257, "byteOffset": 0, "componentType": 5126, "count": 4, "type": "VEC3", "min": [-0.35791015625, 0.3154296875, 0.01123046875], "max": [-0.06298828125, 0.62158203125, 0.048583984375]}, {"bufferView": 258, "byteOffset": 0, "componentType": 5126, "count": 4, "type": "VEC2"}, {"bufferView": 259, "byteOffset": 0, "componentType": 5126, "count": 4, "type": "VEC3"}, {"bufferView": 260, "byteOffset": 0, "componentType": 5123, "count": 6, "type": "SCALAR"}, {"bufferView": 261, "byteOffset": 0, "componentType": 5126, "count": 11, "type": "VEC3", "min": [-0.3115234375, -0.44140625, -0.08203125], "max": [0.224365234375, 0.582763671875, 0.017822265625]}, {"bufferView": 262, "byteOffset": 0, "componentType": 5126, "count": 11, "type": "VEC2"}, {"bufferView": 263, "byteOffset": 0, "componentType": 5123, "count": 21, "type": "SCALAR"}, {"bufferView": 264, "byteOffset": 0, "componentType": 5126, "count": 8, "type": "VEC3", "min": [0.000244140625, -0.196044921875, -0.704833984375], "max": [2.0009765625, 4.209716796875, -0.001708984375]}, {"bufferView": 265, "byteOffset": 0, "componentType": 5126, "count": 8, "type": "VEC2"}, {"bufferView": 266, "byteOffset": 0, "componentType": 5126, "count": 8, "type": "VEC3"}, {"bufferView": 267, "byteOffset": 0, "componentType": 5123, "count": 18, "type": "SCALAR"}, {"bufferView": 268, "byteOffset": 0, "componentType": 5126, "count": 4, "type": "VEC3", "min": [-0.018310546875, -0.01806640625, -0.030029296875], "max": [0.017822265625, 0.111572265625, -0.030029296875]}, {"bufferView": 269, "byteOffset": 0, "componentType": 5126, "count": 4, "type": "VEC2"}, {"bufferView": 270, "byteOffset": 0, "componentType": 5126, "count": 4, "type": "VEC3"}, {"bufferView": 271, "byteOffset": 0, "componentType": 5123, "count": 6, "type": "SCALAR"}, {"bufferView": 272, "byteOffset": 0, "componentType": 5126, "count": 4, "type": "VEC3", "min": [-0.01806640625, -0.01806640625, -0.000244140625], "max": [0.017578125, 0.14794921875, -0.000244140625]}, {"bufferView": 273, "byteOffset": 0, "componentType": 5126, "count": 4, "type": "VEC2"}, {"bufferView": 274, "byteOffset": 0, "componentType": 5126, "count": 4, "type": "VEC3"}, {"bufferView": 275, "byteOffset": 0, "componentType": 5123, "count": 6, "type": "SCALAR"}], "samplers": [{"magFilter": 9729, "minFilter": 9729, "wrapS": 10497, "wrapT": 10497}]}