{"asset": {"version": "2.0", "generator": "tongari-nsbmd-to-gltf"}, "scene": 0, "scenes": [{"nodes": [0, 2]}], "nodes": [{"name": "riv_up_t_b03", "translation": [0.0, 0.0, 0.0], "children": [1]}, {"name": "river_t_a0111", "translation": [0.0, 0.0, 0.0]}, {"mesh": 0, "name": "riv_up_t_b03"}], "meshes": [{"name": "riv_up_t_b03", "primitives": [{"attributes": {"POSITION": 0, "TEXCOORD_0": 1, "NORMAL": 2}, "indices": 3, "mode": 4, "material": 3}, {"attributes": {"POSITION": 4, "TEXCOORD_0": 5, "NORMAL": 6}, "indices": 7, "mode": 4, "material": 0}, {"attributes": {"POSITION": 8, "TEXCOORD_0": 9, "NORMAL": 10}, "indices": 11, "mode": 4, "material": 2}, {"attributes": {"POSITION": 12, "TEXCOORD_0": 13, "NORMAL": 14}, "indices": 15, "mode": 4, "material": 1}, {"attributes": {"POSITION": 16, "TEXCOORD_0": 17, "NORMAL": 18}, "indices": 19, "mode": 4, "material": 4}]}], "materials": [{"name": "r_water", "pbrMetallicRoughness": {"baseColorFactor": [1.0, 1.0, 1.0, 1.0], "metallicFactor": 0.0, "roughnessFactor": 1.0}, "alphaMode": "OPAQUE", "doubleSided": true}, {"name": "r_z_gake", "pbrMetallicRoughness": {"baseColorFactor": [1.0, 1.0, 1.0, 1.0], "metallicFactor": 0.0, "roughnessFactor": 1.0}, "alphaMode": "OPAQUE", "doubleSided": true}, {"name": "r_z_ground", "pbrMetallicRoughness": {"baseColorFactor": [1.0, 1.0, 1.0, 1.0], "metallicFactor": 0.0, "roughnessFactor": 1.0}, "alphaMode": "OPAQUE", "doubleSided": true}, {"name": "ri_saku", "pbrMetallicRoughness": {"baseColorFactor": [1.0, 1.0, 1.0, 1.0], "metallicFactor": 0.0, "roughnessFactor": 1.0}, "alphaMode": "OPAQUE", "doubleSided": true}, {"name": "river_futi1", "pbrMetallicRoughness": {"baseColorFactor": [1.0, 1.0, 1.0, 1.0], "metallicFactor": 0.0, "roughnessFactor": 1.0}, "alphaMode": "OPAQUE", "doubleSided": true}], "buffers": [{"byteLength": 3014, "uri": "data:application/octet-stream;base64,"}], "bufferViews": [{"buffer": 0, "byteOffset": 0, "byteLength": 432}, {"buffer": 0, "byteOffset": 432, "byteLength": 288}, {"buffer": 0, "byteOffset": 720, "byteLength": 432}, {"buffer": 0, "byteOffset": 1152, "byteLength": 108}, {"buffer": 0, "byteOffset": 1260, "byteLength": 48}, {"buffer": 0, "byteOffset": 1308, "byteLength": 32}, {"buffer": 0, "byteOffset": 1340, "byteLength": 48}, {"buffer": 0, "byteOffset": 1388, "byteLength": 12}, {"buffer": 0, "byteOffset": 1400, "byteLength": 132}, {"buffer": 0, "byteOffset": 1532, "byteLength": 88}, {"buffer": 0, "byteOffset": 1620, "byteLength": 132}, {"buffer": 0, "byteOffset": 1752, "byteLength": 42}, {"buffer": 0, "byteOffset": 1796, "byteLength": 336}, {"buffer": 0, "byteOffset": 2132, "byteLength": 224}, {"buffer": 0, "byteOffset": 2356, "byteLength": 336}, {"buffer": 0, "byteOffset": 2692, "byteLength": 144}, {"buffer": 0, "byteOffset": 2836, "byteLength": 60}, {"buffer": 0, "byteOffset": 2896, "byteLength": 40}, {"buffer": 0, "byteOffset": 2936, "byteLength": 60}, {"buffer": 0, "byteOffset": 2996, "byteLength": 18}], "accessors": [{"bufferView": 0, "byteOffset": 0, "componentType": 5126, "count": 36, "type": "VEC3", "min": [0.394775390625, 2.773681640625, -4.249267578125], "max": [1.170166015625, 3.82763671875, 0.265380859375]}, {"bufferView": 1, "byteOffset": 0, "componentType": 5126, "count": 36, "type": "VEC2"}, {"bufferView": 2, "byteOffset": 0, "componentType": 5126, "count": 36, "type": "VEC3"}, {"bufferView": 3, "byteOffset": 0, "componentType": 5123, "count": 54, "type": "SCALAR"}, {"bufferView": 4, "byteOffset": 0, "componentType": 5126, "count": 4, "type": "VEC3", "min": [-2.0, 2.300048828125, -4.22998046875], "max": [2.0009765625, 2.300048828125, 0.22998046875]}, {"bufferView": 5, "byteOffset": 0, "componentType": 5126, "count": 4, "type": "VEC2"}, {"bufferView": 6, "byteOffset": 0, "componentType": 5126, "count": 4, "type": "VEC3"}, {"bufferView": 7, "byteOffset": 0, "componentType": 5123, "count": 6, "type": "SCALAR"}, {"bufferView": 8, "byteOffset": 0, "componentType": 5126, "count": 11, "type": "VEC3", "min": [0.75, 3.0, -4.300048828125], "max": [2.0009765625, 3.0, 0.300048828125]}, {"bufferView": 9, "byteOffset": 0, "componentType": 5126, "count": 11, "type": "VEC2"}, {"bufferView": 10, "byteOffset": 0, "componentType": 5126, "count": 11, "type": "VEC3"}, {"bufferView": 11, "byteOffset": 0, "componentType": 5123, "count": 21, "type": "SCALAR"}, {"bufferView": 12, "byteOffset": 0, "componentType": 5126, "count": 28, "type": "VEC3", "min": [-0.300048828125, 1.5, -4.300048828125], "max": [1.2294921875, 3.0, 0.300048828125]}, {"bufferView": 13, "byteOffset": 0, "componentType": 5126, "count": 28, "type": "VEC2"}, {"bufferView": 14, "byteOffset": 0, "componentType": 5126, "count": 28, "type": "VEC3"}, {"bufferView": 15, "byteOffset": 0, "componentType": 5123, "count": 72, "type": "SCALAR"}, {"bufferView": 16, "byteOffset": 0, "componentType": 5126, "count": 5, "type": "VEC3", "min": [-0.220458984375, 2.3701171875, -4.237060546875], "max": [2.0009765625, 2.3701171875, 0.237060546875]}, {"bufferView": 17, "byteOffset": 0, "componentType": 5126, "count": 5, "type": "VEC2"}, {"bufferView": 18, "byteOffset": 0, "componentType": 5126, "count": 5, "type": "VEC3"}, {"bufferView": 19, "byteOffset": 0, "componentType": 5123, "count": 9, "type": "SCALAR"}], "samplers": [{"magFilter": 9729, "minFilter": 9729, "wrapS": 10497, "wrapT": 10497}]}