{"asset": {"version": "2.0", "generator": "tongari-nsbmd-to-gltf"}, "scene": 0, "scenes": [{"nodes": [0, 2]}], "nodes": [{"name": "river_c_b07", "translation": [0.0, 0.0, 0.0], "children": [1]}, {"name": "polySurface183", "translation": [-8.0, 0.0, -8.0]}, {"mesh": 0, "name": "river_c_b07"}], "meshes": [{"name": "river_c_b07", "primitives": [{"attributes": {"POSITION": 0, "TEXCOORD_0": 1, "NORMAL": 2}, "indices": 3, "mode": 4, "material": 2}, {"attributes": {"POSITION": 4, "TEXCOORD_0": 5, "NORMAL": 6}, "indices": 7, "mode": 4, "material": 1}, {"attributes": {"POSITION": 8, "TEXCOORD_0": 9, "NORMAL": 10}, "indices": 11, "mode": 4, "material": 0}]}], "materials": [{"name": "r_water", "pbrMetallicRoughness": {"baseColorFactor": [1.0, 1.0, 1.0, 1.0], "metallicFactor": 0.0, "roughnessFactor": 1.0}, "alphaMode": "OPAQUE", "doubleSided": true}, {"name": "r_z_gake", "pbrMetallicRoughness": {"baseColorFactor": [1.0, 1.0, 1.0, 1.0], "metallicFactor": 0.0, "roughnessFactor": 1.0}, "alphaMode": "OPAQUE", "doubleSided": true}, {"name": "r_z_ground", "pbrMetallicRoughness": {"baseColorFactor": [1.0, 1.0, 1.0, 1.0], "metallicFactor": 0.0, "roughnessFactor": 1.0}, "alphaMode": "OPAQUE", "doubleSided": true}], "buffers": [{"byteLength": 1234, "uri": "data:application/octet-stream;base64,"}], "bufferViews": [{"buffer": 0, "byteOffset": 0, "byteLength": 96}, {"buffer": 0, "byteOffset": 96, "byteLength": 64}, {"buffer": 0, "byteOffset": 160, "byteLength": 96}, {"buffer": 0, "byteOffset": 256, "byteLength": 24}, {"buffer": 0, "byteOffset": 280, "byteLength": 240}, {"buffer": 0, "byteOffset": 520, "byteLength": 160}, {"buffer": 0, "byteOffset": 680, "byteLength": 240}, {"buffer": 0, "byteOffset": 920, "byteLength": 72}, {"buffer": 0, "byteOffset": 992, "byteLength": 84}, {"buffer": 0, "byteOffset": 1076, "byteLength": 56}, {"buffer": 0, "byteOffset": 1132, "byteLength": 84}, {"buffer": 0, "byteOffset": 1216, "byteLength": 18}], "accessors": [{"bufferView": 0, "byteOffset": 0, "componentType": 5126, "count": 8, "type": "VEC3", "min": [-1.0, 0.0, -1.305419921875], "max": [1.0, 0.0, 0.0]}, {"bufferView": 1, "byteOffset": 0, "componentType": 5126, "count": 8, "type": "VEC2"}, {"bufferView": 2, "byteOffset": 0, "componentType": 5126, "count": 8, "type": "VEC3"}, {"bufferView": 3, "byteOffset": 0, "componentType": 5123, "count": 12, "type": "SCALAR"}, {"bufferView": 4, "byteOffset": 0, "componentType": 5126, "count": 20, "type": "VEC3", "min": [-1.0, -0.75, -1.8818359375], "max": [1.0, 0.0, -0.625]}, {"bufferView": 5, "byteOffset": 0, "componentType": 5126, "count": 20, "type": "VEC2"}, {"bufferView": 6, "byteOffset": 0, "componentType": 5126, "count": 20, "type": "VEC3"}, {"bufferView": 7, "byteOffset": 0, "componentType": 5123, "count": 36, "type": "SCALAR"}, {"bufferView": 8, "byteOffset": 0, "componentType": 5126, "count": 7, "type": "VEC3", "min": [3.0, -0.35009765625, 2.034912109375], "max": [5.0, -0.35009765625, 3.965087890625]}, {"bufferView": 9, "byteOffset": 0, "componentType": 5126, "count": 7, "type": "VEC2"}, {"bufferView": 10, "byteOffset": 0, "componentType": 5126, "count": 7, "type": "VEC3"}, {"bufferView": 11, "byteOffset": 0, "componentType": 5123, "count": 9, "type": "SCALAR"}], "samplers": [{"magFilter": 9729, "minFilter": 9729, "wrapS": 10497, "wrapT": 10497}]}