{"asset": {"version": "2.0", "generator": "tongari-nsbmd-to-gltf"}, "scene": 0, "scenes": [{"nodes": [0, 2]}], "nodes": [{"name": "gakki05_c", "translation": [0.0, -0.044677734375, 0.07470703125], "children": [1]}, {"name": "polySurface587", "translation": [0.0, 0.044677734375, -0.07470703125]}, {"mesh": 0, "name": "1346gakki05_c"}], "meshes": [{"name": "1346gakki05_c", "primitives": [{"attributes": {"POSITION": 0, "TEXCOORD_0": 1, "NORMAL": 2}, "indices": 3, "mode": 4, "material": 1}, {"attributes": {"POSITION": 4, "TEXCOORD_0": 5, "NORMAL": 6}, "indices": 7, "mode": 4, "material": 0}]}], "materials": [{"name": "gakki_dai00", "pbrMetallicRoughness": {"baseColorFactor": [1.0, 1.0, 1.0, 1.0], "metallicFactor": 0.0, "roughnessFactor": 1.0}, "alphaMode": "OPAQUE", "doubleSided": true}, {"name": "immc01_05_0", "pbrMetallicRoughness": {"baseColorFactor": [1.0, 1.0, 1.0, 1.0], "metallicFactor": 0.0, "roughnessFactor": 1.0}, "alphaMode": "OPAQUE", "doubleSided": true}], "buffers": [{"byteLength": 5780, "uri": "data:application/octet-stream;base64,"}], "bufferViews": [{"buffer": 0, "byteOffset": 0, "byteLength": 1512}, {"buffer": 0, "byteOffset": 1512, "byteLength": 1008}, {"buffer": 0, "byteOffset": 2520, "byteLength": 1512}, {"buffer": 0, "byteOffset": 4032, "byteLength": 372}, {"buffer": 0, "byteOffset": 4404, "byteLength": 480}, {"buffer": 0, "byteOffset": 4884, "byteLength": 320}, {"buffer": 0, "byteOffset": 5204, "byteLength": 480}, {"buffer": 0, "byteOffset": 5684, "byteLength": 96}], "accessors": [{"bufferView": 0, "byteOffset": 0, "componentType": 5126, "count": 126, "type": "VEC3", "min": [-0.282470703125, 0.11181640625, -0.029541015625], "max": [0.34033203125, 1.9189453125, 0.11572265625]}, {"bufferView": 1, "byteOffset": 0, "componentType": 5126, "count": 126, "type": "VEC2"}, {"bufferView": 2, "byteOffset": 0, "componentType": 5126, "count": 126, "type": "VEC3"}, {"bufferView": 3, "byteOffset": 0, "componentType": 5123, "count": 186, "type": "SCALAR"}, {"bufferView": 4, "byteOffset": 0, "componentType": 5126, "count": 40, "type": "VEC3", "min": [-0.3388671875, -0.044677734375, -0.272705078125], "max": [0.3388671875, 1.1552734375, 0.27490234375]}, {"bufferView": 5, "byteOffset": 0, "componentType": 5126, "count": 40, "type": "VEC2"}, {"bufferView": 6, "byteOffset": 0, "componentType": 5126, "count": 40, "type": "VEC3"}, {"bufferView": 7, "byteOffset": 0, "componentType": 5123, "count": 48, "type": "SCALAR"}], "samplers": [{"magFilter": 9729, "minFilter": 9729, "wrapS": 10497, "wrapT": 10497}]}