{"asset": {"version": "2.0", "generator": "tongari-nsbmd-to-gltf"}, "scene": 0, "scenes": [{"nodes": [0, 1]}], "nodes": [{"name": "imig03_05", "translation": [0.0, 0.0, 0.0]}, {"mesh": 0, "name": "3266IMIG03_05"}], "meshes": [{"name": "3266IMIG03_05", "primitives": [{"attributes": {"POSITION": 0, "TEXCOORD_0": 1, "NORMAL": 2}, "indices": 3, "mode": 4, "material": 3}, {"attributes": {"POSITION": 4, "TEXCOORD_0": 5, "NORMAL": 6}, "indices": 7, "mode": 4, "material": 0}, {"attributes": {"POSITION": 8, "TEXCOORD_0": 9, "NORMAL": 10}, "indices": 11, "mode": 4, "material": 1}, {"attributes": {"POSITION": 12, "TEXCOORD_0": 13, "NORMAL": 14}, "indices": 15, "mode": 4, "material": 2}]}], "materials": [{"name": "imig03_05_0", "pbrMetallicRoughness": {"baseColorFactor": [0.803921568627451, 0.803921568627451, 0.803921568627451, 1.0], "metallicFactor": 0.0, "roughnessFactor": 1.0}, "alphaMode": "OPAQUE", "doubleSided": true}, {"name": "imig03_05_1", "pbrMetallicRoughness": {"baseColorFactor": [0.803921568627451, 0.803921568627451, 0.803921568627451, 1.0], "metallicFactor": 0.0, "roughnessFactor": 1.0}, "alphaMode": "OPAQUE", "doubleSided": true}, {"name": "imig03_05_2", "pbrMetallicRoughness": {"baseColorFactor": [0.803921568627451, 0.803921568627451, 0.803921568627451, 1.0], "metallicFactor": 0.0, "roughnessFactor": 1.0}, "alphaMode": "OPAQUE", "doubleSided": true}, {"name": "imig03_05_3", "pbrMetallicRoughness": {"baseColorFactor": [0.803921568627451, 0.803921568627451, 0.803921568627451, 1.0], "metallicFactor": 0.0, "roughnessFactor": 1.0}, "alphaMode": "OPAQUE", "doubleSided": true}], "buffers": [{"byteLength": 4838, "uri": "data:application/octet-stream;base64,"}], "bufferViews": [{"buffer": 0, "byteOffset": 0, "byteLength": 48}, {"buffer": 0, "byteOffset": 48, "byteLength": 32}, {"buffer": 0, "byteOffset": 80, "byteLength": 48}, {"buffer": 0, "byteOffset": 128, "byteLength": 12}, {"buffer": 0, "byteOffset": 140, "byteLength": 900}, {"buffer": 0, "byteOffset": 1040, "byteLength": 600}, {"buffer": 0, "byteOffset": 1640, "byteLength": 900}, {"buffer": 0, "byteOffset": 2540, "byteLength": 210}, {"buffer": 0, "byteOffset": 2752, "byteLength": 336}, {"buffer": 0, "byteOffset": 3088, "byteLength": 224}, {"buffer": 0, "byteOffset": 3312, "byteLength": 336}, {"buffer": 0, "byteOffset": 3648, "byteLength": 96}, {"buffer": 0, "byteOffset": 3744, "byteLength": 372}, {"buffer": 0, "byteOffset": 4116, "byteLength": 248}, {"buffer": 0, "byteOffset": 4364, "byteLength": 372}, {"buffer": 0, "byteOffset": 4736, "byteLength": 102}], "accessors": [{"bufferView": 0, "byteOffset": 0, "componentType": 5126, "count": 4, "type": "VEC3", "min": [0.015625, 0.22900390625, -0.204833984375], "max": [0.250732421875, 0.22900390625, 0.20556640625]}, {"bufferView": 1, "byteOffset": 0, "componentType": 5126, "count": 4, "type": "VEC2"}, {"bufferView": 2, "byteOffset": 0, "componentType": 5126, "count": 4, "type": "VEC3"}, {"bufferView": 3, "byteOffset": 0, "componentType": 5123, "count": 6, "type": "SCALAR"}, {"bufferView": 4, "byteOffset": 0, "componentType": 5126, "count": 75, "type": "VEC3", "min": [-0.450927734375, 0.0, -0.24462890625], "max": [0.4560546875, 0.390380859375, 0.2255859375]}, {"bufferView": 5, "byteOffset": 0, "componentType": 5126, "count": 75, "type": "VEC2"}, {"bufferView": 6, "byteOffset": 0, "componentType": 5126, "count": 75, "type": "VEC3"}, {"bufferView": 7, "byteOffset": 0, "componentType": 5123, "count": 105, "type": "SCALAR"}, {"bufferView": 8, "byteOffset": 0, "componentType": 5126, "count": 28, "type": "VEC3", "min": [-0.437255859375, 0.0, -0.208984375], "max": [-0.0263671875, 0.136962890625, 0.211669921875]}, {"bufferView": 9, "byteOffset": 0, "componentType": 5126, "count": 28, "type": "VEC2"}, {"bufferView": 10, "byteOffset": 0, "componentType": 5126, "count": 28, "type": "VEC3"}, {"bufferView": 11, "byteOffset": 0, "componentType": 5123, "count": 48, "type": "SCALAR"}, {"bufferView": 12, "byteOffset": 0, "componentType": 5126, "count": 31, "type": "VEC3", "min": [0.164794921875, 0.170654296875, -0.280517578125], "max": [0.449462890625, 0.40869140625, 0.19775390625]}, {"bufferView": 13, "byteOffset": 0, "componentType": 5126, "count": 31, "type": "VEC2"}, {"bufferView": 14, "byteOffset": 0, "componentType": 5126, "count": 31, "type": "VEC3"}, {"bufferView": 15, "byteOffset": 0, "componentType": 5123, "count": 51, "type": "SCALAR"}], "samplers": [{"magFilter": 9729, "minFilter": 9729, "wrapS": 10497, "wrapT": 10497}]}