{"asset": {"version": "2.0", "generator": "tongari-nsbmd-to-gltf"}, "scene": 0, "scenes": [{"nodes": [0, 1]}], "nodes": [{"name": "ryo_passage", "translation": [0.0, 0.0, 0.0]}, {"mesh": 0, "name": "ryo_passage"}], "meshes": [{"name": "ryo_passage", "primitives": [{"attributes": {"POSITION": 0, "TEXCOORD_0": 1, "NORMAL": 2}, "indices": 3, "mode": 4, "material": 6}, {"attributes": {"POSITION": 4, "TEXCOORD_0": 5, "NORMAL": 6}, "indices": 7, "mode": 4, "material": 15}, {"attributes": {"POSITION": 8, "TEXCOORD_0": 9, "NORMAL": 10}, "indices": 11, "mode": 4, "material": 24}, {"attributes": {"POSITION": 12, "TEXCOORD_0": 13, "NORMAL": 14}, "indices": 15, "mode": 4, "material": 20}, {"attributes": {"POSITION": 16, "TEXCOORD_0": 17, "NORMAL": 18}, "indices": 19, "mode": 4, "material": 17}, {"attributes": {"POSITION": 20, "TEXCOORD_0": 21, "NORMAL": 22}, "indices": 23, "mode": 4, "material": 12}, {"attributes": {"POSITION": 24, "TEXCOORD_0": 25, "NORMAL": 26}, "indices": 27, "mode": 4, "material": 18}, {"attributes": {"POSITION": 28, "TEXCOORD_0": 29, "NORMAL": 30}, "indices": 31, "mode": 4, "material": 7}, {"attributes": {"POSITION": 32, "TEXCOORD_0": 33, "NORMAL": 34}, "indices": 35, "mode": 4, "material": 8}, {"attributes": {"POSITION": 36, "TEXCOORD_0": 37, "NORMAL": 38}, "indices": 39, "mode": 4, "material": 10}, {"attributes": {"POSITION": 40, "TEXCOORD_0": 41, "NORMAL": 42}, "indices": 43, "mode": 4, "material": 9}, {"attributes": {"POSITION": 44, "TEXCOORD_0": 45, "NORMAL": 46}, "indices": 47, "mode": 4, "material": 2}, {"attributes": {"POSITION": 48, "TEXCOORD_0": 49, "NORMAL": 50}, "indices": 51, "mode": 4, "material": 11}, {"attributes": {"POSITION": 52, "TEXCOORD_0": 53, "NORMAL": 54}, "indices": 55, "mode": 4, "material": 0}, {"attributes": {"POSITION": 56, "TEXCOORD_0": 57, "NORMAL": 58}, "indices": 59, "mode": 4, "material": 3}, {"attributes": {"POSITION": 60, "TEXCOORD_0": 61, "NORMAL": 62}, "indices": 63, "mode": 4, "material": 19}, {"attributes": {"POSITION": 64, "TEXCOORD_0": 65, "NORMAL": 66}, "indices": 67, "mode": 4, "material": 16}, {"attributes": {"POSITION": 68, "TEXCOORD_0": 69, "NORMAL": 70}, "indices": 71, "mode": 4, "material": 14}, {"attributes": {"POSITION": 72, "TEXCOORD_0": 73, "NORMAL": 74}, "indices": 75, "mode": 4, "material": 13}, {"attributes": {"POSITION": 76, "TEXCOORD_0": 77, "NORMAL": 78}, "indices": 79, "mode": 4, "material": 22}, {"attributes": {"POSITION": 80, "TEXCOORD_0": 81, "NORMAL": 82}, "indices": 83, "mode": 4, "material": 23}, {"attributes": {"POSITION": 84, "TEXCOORD_0": 85}, "indices": 86, "mode": 4, "material": 1}, {"attributes": {"POSITION": 87, "TEXCOORD_0": 88, "NORMAL": 89}, "indices": 90, "mode": 4, "material": 5}, {"attributes": {"POSITION": 91, "TEXCOORD_0": 92, "NORMAL": 93}, "indices": 94, "mode": 4, "material": 4}, {"attributes": {"POSITION": 95, "TEXCOORD_0": 96, "NORMAL": 97}, "indices": 98, "mode": 4, "material": 21}]}], "materials": [{"name": "bg_r_ry00_l00", "pbrMetallicRoughness": {"baseColorFactor": [1.0, 1.0, 1.0, 1.0], "metallicFactor": 0.0, "roughnessFactor": 1.0}, "alphaMode": "OPAQUE", "doubleSided": true}, {"name": "fsg_kigolt", "pbrMetallicRoughness": {"baseColorFactor": [1.0, 1.0, 1.0, 0.5161290322580645], "metallicFactor": 0.0, "roughnessFactor": 1.0}, "alphaMode": "BLEND", "doubleSided": true}, {"name": "object_shade", "pbrMetallicRoughness": {"baseColorFactor": [0.803921568627451, 0.803921568627451, 0.803921568627451, 0.5161290322580645], "metallicFactor": 0.0, "roughnessFactor": 1.0}, "alphaMode": "BLEND", "doubleSided": true}, {"name": "room_hasira", "pbrMetallicRoughness": {"baseColorFactor": [1.0, 1.0, 1.0, 1.0], "metallicFactor": 0.0, "roughnessFactor": 1.0}, "alphaMode": "OPAQUE", "doubleSided": true}, {"name": "ryo_c_parts0", "pbrMetallicRoughness": {"baseColorFactor": [1.0, 1.0, 1.0, 1.0], "metallicFactor": 0.0, "roughnessFactor": 1.0}, "alphaMode": "OPAQUE", "doubleSided": true}, {"name": "ryo_conter00", "pbrMetallicRoughness": {"baseColorFactor": [1.0, 1.0, 1.0, 1.0], "metallicFactor": 0.0, "roughnessFactor": 1.0}, "alphaMode": "OPAQUE", "doubleSided": true}, {"name": "ryo_path_co01", "pbrMetallicRoughness": {"baseColorFactor": [1.0, 1.0, 1.0, 1.0], "metallicFactor": 0.0, "roughnessFactor": 1.0}, "alphaMode": "OPAQUE", "doubleSided": true}, {"name": "ryo_path_dw0", "pbrMetallicRoughness": {"baseColorFactor": [1.0, 1.0, 1.0, 1.0], "metallicFactor": 0.0, "roughnessFactor": 1.0}, "alphaMode": "OPAQUE", "doubleSided": true}, {"name": "ryo_path_dw1", "pbrMetallicRoughness": {"baseColorFactor": [1.0, 1.0, 1.0, 1.0], "metallicFactor": 0.0, "roughnessFactor": 1.0}, "alphaMode": "OPAQUE", "doubleSided": true}, {"name": "ryo_path_dw2", "pbrMetallicRoughness": {"baseColorFactor": [1.0, 1.0, 1.0, 1.0], "metallicFactor": 0.0, "roughnessFactor": 1.0}, "alphaMode": "OPAQUE", "doubleSided": true}, {"name": "ryo_path_dw4", "pbrMetallicRoughness": {"baseColorFactor": [1.0, 1.0, 1.0, 1.0], "metallicFactor": 0.0, "roughnessFactor": 1.0}, "alphaMode": "OPAQUE", "doubleSided": true}, {"name": "ryo_path_dw5", "pbrMetallicRoughness": {"baseColorFactor": [1.0, 1.0, 1.0, 1.0], "metallicFactor": 0.0, "roughnessFactor": 1.0}, "alphaMode": "OPAQUE", "doubleSided": true}, {"name": "ryo_path_exit", "pbrMetallicRoughness": {"baseColorFactor": [1.0, 1.0, 1.0, 1.0], "metallicFactor": 0.0, "roughnessFactor": 1.0}, "alphaMode": "OPAQUE", "doubleSided": true}, {"name": "ryo_path_f00", "pbrMetallicRoughness": {"baseColorFactor": [1.0, 1.0, 1.0, 1.0], "metallicFactor": 0.0, "roughnessFactor": 1.0}, "alphaMode": "OPAQUE", "doubleSided": true}, {"name": "ryo_path_f01", "pbrMetallicRoughness": {"baseColorFactor": [1.0, 1.0, 1.0, 1.0], "metallicFactor": 0.0, "roughnessFactor": 1.0}, "alphaMode": "OPAQUE", "doubleSided": true}, {"name": "ryo_path_f02", "pbrMetallicRoughness": {"baseColorFactor": [1.0, 1.0, 1.0, 1.0], "metallicFactor": 0.0, "roughnessFactor": 1.0}, "alphaMode": "OPAQUE", "doubleSided": true}, {"name": "ryo_path_ryug", "pbrMetallicRoughness": {"baseColorFactor": [1.0, 1.0, 1.0, 1.0], "metallicFactor": 0.0, "roughnessFactor": 1.0}, "alphaMode": "OPAQUE", "doubleSided": true}, {"name": "ryo_path_step", "pbrMetallicRoughness": {"baseColorFactor": [1.0, 1.0, 1.0, 1.0], "metallicFactor": 0.0, "roughnessFactor": 1.0}, "alphaMode": "OPAQUE", "doubleSided": true}, {"name": "ryo_path_w00", "pbrMetallicRoughness": {"baseColorFactor": [1.0, 1.0, 1.0, 1.0], "metallicFactor": 0.0, "roughnessFactor": 1.0}, "alphaMode": "OPAQUE", "doubleSided": true}, {"name": "ryo_path_w02", "pbrMetallicRoughness": {"baseColorFactor": [1.0, 1.0, 1.0, 1.0], "metallicFactor": 0.0, "roughnessFactor": 1.0}, "alphaMode": "OPAQUE", "doubleSided": true}, {"name": "ryo_path_w04", "pbrMetallicRoughness": {"baseColorFactor": [1.0, 1.0, 1.0, 1.0], "metallicFactor": 0.0, "roughnessFactor": 1.0}, "alphaMode": "OPAQUE", "doubleSided": true}, {"name": "ryo_r_kb00", "pbrMetallicRoughness": {"baseColorFactor": [1.0, 1.0, 1.0, 1.0], "metallicFactor": 0.0, "roughnessFactor": 1.0}, "alphaMode": "OPAQUE", "doubleSided": true}, {"name": "ryo_r_reef0", "pbrMetallicRoughness": {"baseColorFactor": [1.0, 1.0, 1.0, 1.0], "metallicFactor": 0.0, "roughnessFactor": 1.0}, "alphaMode": "OPAQUE", "doubleSided": true}, {"name": "ryo_wood00", "pbrMetallicRoughness": {"baseColorFactor": [1.0, 1.0, 1.0, 1.0], "metallicFactor": 0.0, "roughnessFactor": 1.0}, "alphaMode": "OPAQUE", "doubleSided": true}, {"name": "shade_shade", "pbrMetallicRoughness": {"baseColorFactor": [0.803921568627451, 0.803921568627451, 0.803921568627451, 1.0], "metallicFactor": 0.0, "roughnessFactor": 1.0}, "alphaMode": "OPAQUE", "doubleSided": true}], "buffers": [{"byteLength": 87018, "uri": "data:application/octet-stream;base64,"}], "bufferViews": [{"buffer": 0, "byteOffset": 0, "byteLength": 288}, {"buffer": 0, "byteOffset": 288, "byteLength": 192}, {"buffer": 0, "byteOffset": 480, "byteLength": 288}, {"buffer": 0, "byteOffset": 768, "byteLength": 108}, {"buffer": 0, "byteOffset": 876, "byteLength": 576}, {"buffer": 0, "byteOffset": 1452, "byteLength": 384}, {"buffer": 0, "byteOffset": 1836, "byteLength": 576}, {"buffer": 0, "byteOffset": 2412, "byteLength": 180}, {"buffer": 0, "byteOffset": 2592, "byteLength": 732}, {"buffer": 0, "byteOffset": 3324, "byteLength": 488}, {"buffer": 0, "byteOffset": 3812, "byteLength": 732}, {"buffer": 0, "byteOffset": 4544, "byteLength": 222}, {"buffer": 0, "byteOffset": 4768, "byteLength": 492}, {"buffer": 0, "byteOffset": 5260, "byteLength": 328}, {"buffer": 0, "byteOffset": 5588, "byteLength": 492}, {"buffer": 0, "byteOffset": 6080, "byteLength": 138}, {"buffer": 0, "byteOffset": 6220, "byteLength": 2880}, {"buffer": 0, "byteOffset": 9100, "byteLength": 1920}, {"buffer": 0, "byteOffset": 11020, "byteLength": 2880}, {"buffer": 0, "byteOffset": 13900, "byteLength": 840}, {"buffer": 0, "byteOffset": 14740, "byteLength": 48}, {"buffer": 0, "byteOffset": 14788, "byteLength": 32}, {"buffer": 0, "byteOffset": 14820, "byteLength": 48}, {"buffer": 0, "byteOffset": 14868, "byteLength": 12}, {"buffer": 0, "byteOffset": 14880, "byteLength": 984}, {"buffer": 0, "byteOffset": 15864, "byteLength": 656}, {"buffer": 0, "byteOffset": 16520, "byteLength": 984}, {"buffer": 0, "byteOffset": 17504, "byteLength": 276}, {"buffer": 0, "byteOffset": 17780, "byteLength": 2064}, {"buffer": 0, "byteOffset": 19844, "byteLength": 1376}, {"buffer": 0, "byteOffset": 21220, "byteLength": 2064}, {"buffer": 0, "byteOffset": 23284, "byteLength": 720}, {"buffer": 0, "byteOffset": 24004, "byteLength": 3612}, {"buffer": 0, "byteOffset": 27616, "byteLength": 2408}, {"buffer": 0, "byteOffset": 30024, "byteLength": 3612}, {"buffer": 0, "byteOffset": 33636, "byteLength": 1434}, {"buffer": 0, "byteOffset": 35072, "byteLength": 1944}, {"buffer": 0, "byteOffset": 37016, "byteLength": 1296}, {"buffer": 0, "byteOffset": 38312, "byteLength": 1944}, {"buffer": 0, "byteOffset": 40256, "byteLength": 732}, {"buffer": 0, "byteOffset": 40988, "byteLength": 2064}, {"buffer": 0, "byteOffset": 43052, "byteLength": 1376}, {"buffer": 0, "byteOffset": 44428, "byteLength": 2064}, {"buffer": 0, "byteOffset": 46492, "byteLength": 720}, {"buffer": 0, "byteOffset": 47212, "byteLength": 48}, {"buffer": 0, "byteOffset": 47260, "byteLength": 32}, {"buffer": 0, "byteOffset": 47292, "byteLength": 48}, {"buffer": 0, "byteOffset": 47340, "byteLength": 12}, {"buffer": 0, "byteOffset": 47352, "byteLength": 2616}, {"buffer": 0, "byteOffset": 49968, "byteLength": 1744}, {"buffer": 0, "byteOffset": 51712, "byteLength": 2616}, {"buffer": 0, "byteOffset": 54328, "byteLength": 972}, {"buffer": 0, "byteOffset": 55300, "byteLength": 192}, {"buffer": 0, "byteOffset": 55492, "byteLength": 128}, {"buffer": 0, "byteOffset": 55620, "byteLength": 192}, {"buffer": 0, "byteOffset": 55812, "byteLength": 48}, {"buffer": 0, "byteOffset": 55860, "byteLength": 3036}, {"buffer": 0, "byteOffset": 58896, "byteLength": 2024}, {"buffer": 0, "byteOffset": 60920, "byteLength": 3036}, {"buffer": 0, "byteOffset": 63956, "byteLength": 990}, {"buffer": 0, "byteOffset": 64948, "byteLength": 1068}, {"buffer": 0, "byteOffset": 66016, "byteLength": 712}, {"buffer": 0, "byteOffset": 66728, "byteLength": 1068}, {"buffer": 0, "byteOffset": 67796, "byteLength": 330}, {"buffer": 0, "byteOffset": 68128, "byteLength": 48}, {"buffer": 0, "byteOffset": 68176, "byteLength": 32}, {"buffer": 0, "byteOffset": 68208, "byteLength": 48}, {"buffer": 0, "byteOffset": 68256, "byteLength": 12}, {"buffer": 0, "byteOffset": 68268, "byteLength": 576}, {"buffer": 0, "byteOffset": 68844, "byteLength": 384}, {"buffer": 0, "byteOffset": 69228, "byteLength": 576}, {"buffer": 0, "byteOffset": 69804, "byteLength": 156}, {"buffer": 0, "byteOffset": 69960, "byteLength": 48}, {"buffer": 0, "byteOffset": 70008, "byteLength": 32}, {"buffer": 0, "byteOffset": 70040, "byteLength": 48}, {"buffer": 0, "byteOffset": 70088, "byteLength": 12}, {"buffer": 0, "byteOffset": 70100, "byteLength": 288}, {"buffer": 0, "byteOffset": 70388, "byteLength": 192}, {"buffer": 0, "byteOffset": 70580, "byteLength": 288}, {"buffer": 0, "byteOffset": 70868, "byteLength": 72}, {"buffer": 0, "byteOffset": 70940, "byteLength": 3948}, {"buffer": 0, "byteOffset": 74888, "byteLength": 2632}, {"buffer": 0, "byteOffset": 77520, "byteLength": 3948}, {"buffer": 0, "byteOffset": 81468, "byteLength": 1194}, {"buffer": 0, "byteOffset": 82664, "byteLength": 144}, {"buffer": 0, "byteOffset": 82808, "byteLength": 96}, {"buffer": 0, "byteOffset": 82904, "byteLength": 36}, {"buffer": 0, "byteOffset": 82940, "byteLength": 48}, {"buffer": 0, "byteOffset": 82988, "byteLength": 32}, {"buffer": 0, "byteOffset": 83020, "byteLength": 48}, {"buffer": 0, "byteOffset": 83068, "byteLength": 12}, {"buffer": 0, "byteOffset": 83080, "byteLength": 1200}, {"buffer": 0, "byteOffset": 84280, "byteLength": 800}, {"buffer": 0, "byteOffset": 85080, "byteLength": 1200}, {"buffer": 0, "byteOffset": 86280, "byteLength": 408}, {"buffer": 0, "byteOffset": 86688, "byteLength": 108}, {"buffer": 0, "byteOffset": 86796, "byteLength": 72}, {"buffer": 0, "byteOffset": 86868, "byteLength": 108}, {"buffer": 0, "byteOffset": 86976, "byteLength": 42}], "accessors": [{"bufferView": 0, "byteOffset": 0, "componentType": 5126, "count": 24, "type": "VEC3", "min": [3.39990234375, 0.0, 1.5], "max": [4.10009765625, 0.175048828125, 1.699951171875]}, {"bufferView": 1, "byteOffset": 0, "componentType": 5126, "count": 24, "type": "VEC2"}, {"bufferView": 2, "byteOffset": 0, "componentType": 5126, "count": 24, "type": "VEC3"}, {"bufferView": 3, "byteOffset": 0, "componentType": 5123, "count": 54, "type": "SCALAR"}, {"bufferView": 4, "byteOffset": 0, "componentType": 5126, "count": 48, "type": "VEC3", "min": [0.199951171875, -0.228759765625, 1.25], "max": [7.300048828125, 1.5, 3.0]}, {"bufferView": 5, "byteOffset": 0, "componentType": 5126, "count": 48, "type": "VEC2"}, {"bufferView": 6, "byteOffset": 0, "componentType": 5126, "count": 48, "type": "VEC3"}, {"bufferView": 7, "byteOffset": 0, "componentType": 5123, "count": 90, "type": "SCALAR"}, {"bufferView": 8, "byteOffset": 0, "componentType": 5126, "count": 61, "type": "VEC3", "min": [0.0, 0.77294921875, 0.25], "max": [7.5, 4.5, 2.27490234375]}, {"bufferView": 9, "byteOffset": 0, "componentType": 5126, "count": 61, "type": "VEC2"}, {"bufferView": 10, "byteOffset": 0, "componentType": 5126, "count": 61, "type": "VEC3"}, {"bufferView": 11, "byteOffset": 0, "componentType": 5123, "count": 111, "type": "SCALAR"}, {"bufferView": 12, "byteOffset": 0, "componentType": 5126, "count": 41, "type": "VEC3", "min": [2.449951171875, -0.0029296875, 0.17529296875], "max": [5.0, 2.25, 1.5]}, {"bufferView": 13, "byteOffset": 0, "componentType": 5126, "count": 41, "type": "VEC2"}, {"bufferView": 14, "byteOffset": 0, "componentType": 5126, "count": 41, "type": "VEC3"}, {"bufferView": 15, "byteOffset": 0, "componentType": 5123, "count": 69, "type": "SCALAR"}, {"bufferView": 16, "byteOffset": 0, "componentType": 5126, "count": 240, "type": "VEC3", "min": [2.5, -0.0029296875, 0.17529296875], "max": [5.0, 1.824951171875, 1.5]}, {"bufferView": 17, "byteOffset": 0, "componentType": 5126, "count": 240, "type": "VEC2"}, {"bufferView": 18, "byteOffset": 0, "componentType": 5126, "count": 240, "type": "VEC3"}, {"bufferView": 19, "byteOffset": 0, "componentType": 5123, "count": 420, "type": "SCALAR"}, {"bufferView": 20, "byteOffset": 0, "componentType": 5126, "count": 4, "type": "VEC3", "min": [3.5, -0.0029296875, 2.75], "max": [4.0, -0.0029296875, 3.0]}, {"bufferView": 21, "byteOffset": 0, "componentType": 5126, "count": 4, "type": "VEC2"}, {"bufferView": 22, "byteOffset": 0, "componentType": 5126, "count": 4, "type": "VEC3"}, {"bufferView": 23, "byteOffset": 0, "componentType": 5123, "count": 6, "type": "SCALAR"}, {"bufferView": 24, "byteOffset": 0, "componentType": 5126, "count": 82, "type": "VEC3", "min": [0.25, 1.5, 0.39990234375], "max": [7.25, 2.75, 1.25]}, {"bufferView": 25, "byteOffset": 0, "componentType": 5126, "count": 82, "type": "VEC2"}, {"bufferView": 26, "byteOffset": 0, "componentType": 5126, "count": 82, "type": "VEC3"}, {"bufferView": 27, "byteOffset": 0, "componentType": 5123, "count": 138, "type": "SCALAR"}, {"bufferView": 28, "byteOffset": 0, "componentType": 5126, "count": 172, "type": "VEC3", "min": [0.7353515625, -0.0029296875, 0.5], "max": [5.7646484375, 2.1259765625, 1.5224609375]}, {"bufferView": 29, "byteOffset": 0, "componentType": 5126, "count": 172, "type": "VEC2"}, {"bufferView": 30, "byteOffset": 0, "componentType": 5126, "count": 172, "type": "VEC3"}, {"bufferView": 31, "byteOffset": 0, "componentType": 5123, "count": 360, "type": "SCALAR"}, {"bufferView": 32, "byteOffset": 0, "componentType": 5126, "count": 301, "type": "VEC3", "min": [1.512939453125, -0.00537109375, 0.5], "max": [6.987060546875, 2.110107421875, 1.5224609375]}, {"bufferView": 33, "byteOffset": 0, "componentType": 5126, "count": 301, "type": "VEC2"}, {"bufferView": 34, "byteOffset": 0, "componentType": 5126, "count": 301, "type": "VEC3"}, {"bufferView": 35, "byteOffset": 0, "componentType": 5123, "count": 717, "type": "SCALAR"}, {"bufferView": 36, "byteOffset": 0, "componentType": 5126, "count": 162, "type": "VEC3", "min": [2.52734375, -0.00732421875, 1.5], "max": [2.97265625, 0.807373046875, 1.5224609375]}, {"bufferView": 37, "byteOffset": 0, "componentType": 5126, "count": 162, "type": "VEC2"}, {"bufferView": 38, "byteOffset": 0, "componentType": 5126, "count": 162, "type": "VEC3"}, {"bufferView": 39, "byteOffset": 0, "componentType": 5123, "count": 366, "type": "SCALAR"}, {"bufferView": 40, "byteOffset": 0, "componentType": 5126, "count": 172, "type": "VEC3", "min": [0.4853515625, -0.0029296875, 0.5], "max": [5.7646484375, 2.1259765625, 1.5224609375]}, {"bufferView": 41, "byteOffset": 0, "componentType": 5126, "count": 172, "type": "VEC2"}, {"bufferView": 42, "byteOffset": 0, "componentType": 5126, "count": 172, "type": "VEC3"}, {"bufferView": 43, "byteOffset": 0, "componentType": 5123, "count": 360, "type": "SCALAR"}, {"bufferView": 44, "byteOffset": 0, "componentType": 5126, "count": 4, "type": "VEC3", "min": [3.35009765625, 0.007568359375, 1.5], "max": [4.14990234375, 0.007568359375, 1.75]}, {"bufferView": 45, "byteOffset": 0, "componentType": 5126, "count": 4, "type": "VEC2"}, {"bufferView": 46, "byteOffset": 0, "componentType": 5126, "count": 4, "type": "VEC3"}, {"bufferView": 47, "byteOffset": 0, "componentType": 5123, "count": 6, "type": "SCALAR"}, {"bufferView": 48, "byteOffset": 0, "componentType": 5126, "count": 218, "type": "VEC3", "min": [2.5, -0.0029296875, 0.5], "max": [5.0, 2.102783203125, 1.5224609375]}, {"bufferView": 49, "byteOffset": 0, "componentType": 5126, "count": 218, "type": "VEC2"}, {"bufferView": 50, "byteOffset": 0, "componentType": 5126, "count": 218, "type": "VEC3"}, {"bufferView": 51, "byteOffset": 0, "componentType": 5123, "count": 486, "type": "SCALAR"}, {"bufferView": 52, "byteOffset": 0, "componentType": 5126, "count": 16, "type": "VEC3", "min": [2.68212890625, 0.637939453125, 0.550048828125], "max": [4.80615234375, 2.26220703125, 1.574951171875]}, {"bufferView": 53, "byteOffset": 0, "componentType": 5126, "count": 16, "type": "VEC2"}, {"bufferView": 54, "byteOffset": 0, "componentType": 5126, "count": 16, "type": "VEC3"}, {"bufferView": 55, "byteOffset": 0, "componentType": 5123, "count": 24, "type": "SCALAR"}, {"bufferView": 56, "byteOffset": 0, "componentType": 5126, "count": 253, "type": "VEC3", "min": [0.0625, -0.113037109375, 0.52490234375], "max": [7.442626953125, 2.800048828125, 2.355224609375]}, {"bufferView": 57, "byteOffset": 0, "componentType": 5126, "count": 253, "type": "VEC2"}, {"bufferView": 58, "byteOffset": 0, "componentType": 5126, "count": 253, "type": "VEC3"}, {"bufferView": 59, "byteOffset": 0, "componentType": 5123, "count": 495, "type": "SCALAR"}, {"bufferView": 60, "byteOffset": 0, "componentType": 5126, "count": 89, "type": "VEC3", "min": [0.199951171875, -0.0029296875, 1.5], "max": [7.300048828125, 1.125, 2.25]}, {"bufferView": 61, "byteOffset": 0, "componentType": 5126, "count": 89, "type": "VEC2"}, {"bufferView": 62, "byteOffset": 0, "componentType": 5126, "count": 89, "type": "VEC3"}, {"bufferView": 63, "byteOffset": 0, "componentType": 5123, "count": 165, "type": "SCALAR"}, {"bufferView": 64, "byteOffset": 0, "componentType": 5126, "count": 4, "type": "VEC3", "min": [2.69384765625, 0.575439453125, 1.526611328125], "max": [2.80615234375, 0.6875, 1.526611328125]}, {"bufferView": 65, "byteOffset": 0, "componentType": 5126, "count": 4, "type": "VEC2"}, {"bufferView": 66, "byteOffset": 0, "componentType": 5126, "count": 4, "type": "VEC3"}, {"bufferView": 67, "byteOffset": 0, "componentType": 5123, "count": 6, "type": "SCALAR"}, {"bufferView": 68, "byteOffset": 0, "componentType": 5126, "count": 48, "type": "VEC3", "min": [0.25, -0.0029296875, 0.5], "max": [7.25, 1.5, 2.75]}, {"bufferView": 69, "byteOffset": 0, "componentType": 5126, "count": 48, "type": "VEC2"}, {"bufferView": 70, "byteOffset": 0, "componentType": 5126, "count": 48, "type": "VEC3"}, {"bufferView": 71, "byteOffset": 0, "componentType": 5123, "count": 78, "type": "SCALAR"}, {"bufferView": 72, "byteOffset": 0, "componentType": 5126, "count": 4, "type": "VEC3", "min": [3.0, -0.0029296875, 1.5], "max": [4.5, -0.0029296875, 2.25]}, {"bufferView": 73, "byteOffset": 0, "componentType": 5126, "count": 4, "type": "VEC2"}, {"bufferView": 74, "byteOffset": 0, "componentType": 5126, "count": 4, "type": "VEC3"}, {"bufferView": 75, "byteOffset": 0, "componentType": 5123, "count": 6, "type": "SCALAR"}, {"bufferView": 76, "byteOffset": 0, "componentType": 5126, "count": 24, "type": "VEC3", "min": [0.08740234375, 0.574951171875, 0.72509765625], "max": [7.4375, 2.629638671875, 2.375]}, {"bufferView": 77, "byteOffset": 0, "componentType": 5126, "count": 24, "type": "VEC2"}, {"bufferView": 78, "byteOffset": 0, "componentType": 5126, "count": 24, "type": "VEC3"}, {"bufferView": 79, "byteOffset": 0, "componentType": 5123, "count": 36, "type": "SCALAR"}, {"bufferView": 80, "byteOffset": 0, "componentType": 5126, "count": 329, "type": "VEC3", "min": [0.447265625, -0.00537109375, 0.39990234375], "max": [7.0234375, 2.80126953125, 1.699951171875]}, {"bufferView": 81, "byteOffset": 0, "componentType": 5126, "count": 329, "type": "VEC2"}, {"bufferView": 82, "byteOffset": 0, "componentType": 5126, "count": 329, "type": "VEC3"}, {"bufferView": 83, "byteOffset": 0, "componentType": 5123, "count": 597, "type": "SCALAR"}, {"bufferView": 84, "byteOffset": 0, "componentType": 5126, "count": 12, "type": "VEC3", "min": [2.51611328125, 0.52490234375, 0.574951171875], "max": [4.97802734375, 2.43115234375, 1.574951171875]}, {"bufferView": 85, "byteOffset": 0, "componentType": 5126, "count": 12, "type": "VEC2"}, {"bufferView": 86, "byteOffset": 0, "componentType": 5123, "count": 18, "type": "SCALAR"}, {"bufferView": 87, "byteOffset": 0, "componentType": 5126, "count": 4, "type": "VEC3", "min": [3.08984375, 0.699951171875, 1.5498046875], "max": [4.41015625, 1.028076171875, 1.5498046875]}, {"bufferView": 88, "byteOffset": 0, "componentType": 5126, "count": 4, "type": "VEC2"}, {"bufferView": 89, "byteOffset": 0, "componentType": 5126, "count": 4, "type": "VEC3"}, {"bufferView": 90, "byteOffset": 0, "componentType": 5123, "count": 6, "type": "SCALAR"}, {"bufferView": 91, "byteOffset": 0, "componentType": 5126, "count": 100, "type": "VEC3", "min": [3.39990234375, 0.175048828125, 1.5], "max": [4.107421875, 0.6318359375, 1.718017578125]}, {"bufferView": 92, "byteOffset": 0, "componentType": 5126, "count": 100, "type": "VEC2"}, {"bufferView": 93, "byteOffset": 0, "componentType": 5126, "count": 100, "type": "VEC3"}, {"bufferView": 94, "byteOffset": 0, "componentType": 5123, "count": 204, "type": "SCALAR"}, {"bufferView": 95, "byteOffset": 0, "componentType": 5126, "count": 9, "type": "VEC3", "min": [3.254150390625, 0.175048828125, 1.5], "max": [4.22216796875, 1.125, 1.5]}, {"bufferView": 96, "byteOffset": 0, "componentType": 5126, "count": 9, "type": "VEC2"}, {"bufferView": 97, "byteOffset": 0, "componentType": 5126, "count": 9, "type": "VEC3"}, {"bufferView": 98, "byteOffset": 0, "componentType": 5123, "count": 21, "type": "SCALAR"}], "samplers": [{"magFilter": 9729, "minFilter": 9729, "wrapS": 10497, "wrapT": 10497}]}