{"asset": {"version": "2.0", "generator": "tongari-nsbmd-to-gltf"}, "scene": 0, "scenes": [{"nodes": [0, 1]}], "nodes": [{"name": "pcsh_aki", "translation": [0.0, 0.0, 0.0]}, {"mesh": 0, "name": "pcsh_aki"}], "meshes": [{"name": "pcsh_aki", "primitives": [{"attributes": {"POSITION": 0, "TEXCOORD_0": 1, "NORMAL": 2}, "indices": 3, "mode": 4, "material": 4}, {"attributes": {"POSITION": 4, "TEXCOORD_0": 5, "NORMAL": 6}, "indices": 7, "mode": 4, "material": 0}, {"attributes": {"POSITION": 8, "TEXCOORD_0": 9, "NORMAL": 10}, "indices": 11, "mode": 4, "material": 2}, {"attributes": {"POSITION": 12, "TEXCOORD_0": 13, "NORMAL": 14}, "indices": 15, "mode": 4, "material": 1}, {"attributes": {"POSITION": 16, "TEXCOORD_0": 17, "NORMAL": 18}, "indices": 19, "mode": 4, "material": 2}, {"attributes": {"POSITION": 20, "TEXCOORD_0": 21, "NORMAL": 22}, "indices": 23, "mode": 4, "material": 1}, {"attributes": {"POSITION": 24, "TEXCOORD_0": 25, "NORMAL": 26}, "indices": 27, "mode": 4, "material": 5}, {"attributes": {"POSITION": 28, "TEXCOORD_0": 29, "NORMAL": 30}, "indices": 31, "mode": 4, "material": 5}, {"attributes": {"POSITION": 32, "TEXCOORD_0": 33, "NORMAL": 34}, "indices": 35, "mode": 4, "material": 3}, {"attributes": {"POSITION": 36, "TEXCOORD_0": 37, "NORMAL": 38}, "indices": 39, "mode": 4, "material": 6}]}], "materials": [{"name": "house00_eda", "pbrMetallicRoughness": {"baseColorFactor": [1.0, 1.0, 1.0, 1.0], "metallicFactor": 0.0, "roughnessFactor": 1.0}, "alphaMode": "OPAQUE", "doubleSided": true}, {"name": "house00_ha20", "pbrMetallicRoughness": {"baseColorFactor": [1.0, 1.0, 1.0, 1.0], "metallicFactor": 0.0, "roughnessFactor": 1.0}, "alphaMode": "OPAQUE", "doubleSided": true}, {"name": "house00_miki", "pbrMetallicRoughness": {"baseColorFactor": [1.0, 1.0, 1.0, 1.0], "metallicFactor": 0.0, "roughnessFactor": 1.0}, "alphaMode": "OPAQUE", "doubleSided": true}, {"name": "house_door", "pbrMetallicRoughness": {"baseColorFactor": [1.0, 1.0, 1.0, 1.0], "metallicFactor": 0.0, "roughnessFactor": 1.0}, "alphaMode": "OPAQUE", "doubleSided": true}, {"name": "kanban00", "pbrMetallicRoughness": {"baseColorFactor": [1.0, 1.0, 1.0, 1.0], "metallicFactor": 0.0, "roughnessFactor": 1.0}, "alphaMode": "OPAQUE", "doubleSided": true}, {"name": "kanban_g00", "pbrMetallicRoughness": {"baseColorFactor": [1.0, 1.0, 1.0, 1.0], "metallicFactor": 0.0, "roughnessFactor": 1.0}, "alphaMode": "OPAQUE", "doubleSided": true}, {"name": "kanban_g02", "pbrMetallicRoughness": {"baseColorFactor": [1.0, 1.0, 1.0, 1.0], "metallicFactor": 0.0, "roughnessFactor": 1.0}, "alphaMode": "OPAQUE", "doubleSided": true}], "buffers": [{"byteLength": 3820, "uri": "data:application/octet-stream;base64,"}], "bufferViews": [{"buffer": 0, "byteOffset": 0, "byteLength": 48}, {"buffer": 0, "byteOffset": 48, "byteLength": 32}, {"buffer": 0, "byteOffset": 80, "byteLength": 48}, {"buffer": 0, "byteOffset": 128, "byteLength": 12}, {"buffer": 0, "byteOffset": 140, "byteLength": 84}, {"buffer": 0, "byteOffset": 224, "byteLength": 56}, {"buffer": 0, "byteOffset": 280, "byteLength": 84}, {"buffer": 0, "byteOffset": 364, "byteLength": 18}, {"buffer": 0, "byteOffset": 384, "byteLength": 144}, {"buffer": 0, "byteOffset": 528, "byteLength": 96}, {"buffer": 0, "byteOffset": 624, "byteLength": 144}, {"buffer": 0, "byteOffset": 768, "byteLength": 36}, {"buffer": 0, "byteOffset": 804, "byteLength": 192}, {"buffer": 0, "byteOffset": 996, "byteLength": 128}, {"buffer": 0, "byteOffset": 1124, "byteLength": 192}, {"buffer": 0, "byteOffset": 1316, "byteLength": 48}, {"buffer": 0, "byteOffset": 1364, "byteLength": 552}, {"buffer": 0, "byteOffset": 1916, "byteLength": 368}, {"buffer": 0, "byteOffset": 2284, "byteLength": 552}, {"buffer": 0, "byteOffset": 2836, "byteLength": 144}, {"buffer": 0, "byteOffset": 2980, "byteLength": 96}, {"buffer": 0, "byteOffset": 3076, "byteLength": 64}, {"buffer": 0, "byteOffset": 3140, "byteLength": 96}, {"buffer": 0, "byteOffset": 3236, "byteLength": 24}, {"buffer": 0, "byteOffset": 3260, "byteLength": 48}, {"buffer": 0, "byteOffset": 3308, "byteLength": 32}, {"buffer": 0, "byteOffset": 3340, "byteLength": 48}, {"buffer": 0, "byteOffset": 3388, "byteLength": 12}, {"buffer": 0, "byteOffset": 3400, "byteLength": 48}, {"buffer": 0, "byteOffset": 3448, "byteLength": 32}, {"buffer": 0, "byteOffset": 3480, "byteLength": 48}, {"buffer": 0, "byteOffset": 3528, "byteLength": 12}, {"buffer": 0, "byteOffset": 3540, "byteLength": 48}, {"buffer": 0, "byteOffset": 3588, "byteLength": 32}, {"buffer": 0, "byteOffset": 3620, "byteLength": 48}, {"buffer": 0, "byteOffset": 3668, "byteLength": 12}, {"buffer": 0, "byteOffset": 3680, "byteLength": 48}, {"buffer": 0, "byteOffset": 3728, "byteLength": 32}, {"buffer": 0, "byteOffset": 3760, "byteLength": 48}, {"buffer": 0, "byteOffset": 3808, "byteLength": 12}], "accessors": [{"bufferView": 0, "byteOffset": 0, "componentType": 5126, "count": 4, "type": "VEC3", "min": [0.168701171875, 4.35888671875, -0.095458984375], "max": [1.639404296875, 5.09423828125, -0.095458984375]}, {"bufferView": 1, "byteOffset": 0, "componentType": 5126, "count": 4, "type": "VEC2"}, {"bufferView": 2, "byteOffset": 0, "componentType": 5126, "count": 4, "type": "VEC3"}, {"bufferView": 3, "byteOffset": 0, "componentType": 5123, "count": 6, "type": "SCALAR"}, {"bufferView": 4, "byteOffset": 0, "componentType": 5126, "count": 7, "type": "VEC3", "min": [-0.67822265625, 3.428955078125, -1.940673828125], "max": [0.65185546875, 5.037841796875, -1.70849609375]}, {"bufferView": 5, "byteOffset": 0, "componentType": 5126, "count": 7, "type": "VEC2"}, {"bufferView": 6, "byteOffset": 0, "componentType": 5126, "count": 7, "type": "VEC3"}, {"bufferView": 7, "byteOffset": 0, "componentType": 5123, "count": 9, "type": "SCALAR"}, {"bufferView": 8, "byteOffset": 0, "componentType": 5126, "count": 12, "type": "VEC3", "min": [0.177490234375, -0.032958984375, -0.181640625], "max": [1.318359375, 1.200927734375, 0.13134765625]}, {"bufferView": 9, "byteOffset": 0, "componentType": 5126, "count": 12, "type": "VEC2"}, {"bufferView": 10, "byteOffset": 0, "componentType": 5126, "count": 12, "type": "VEC3"}, {"bufferView": 11, "byteOffset": 0, "componentType": 5123, "count": 18, "type": "SCALAR"}, {"bufferView": 12, "byteOffset": 0, "componentType": 5126, "count": 16, "type": "VEC3", "min": [-1.76806640625, 1.712890625, -1.532470703125], "max": [3.447998046875, 4.521728515625, -0.07275390625]}, {"bufferView": 13, "byteOffset": 0, "componentType": 5126, "count": 16, "type": "VEC2"}, {"bufferView": 14, "byteOffset": 0, "componentType": 5126, "count": 16, "type": "VEC3"}, {"bufferView": 15, "byteOffset": 0, "componentType": 5123, "count": 24, "type": "SCALAR"}, {"bufferView": 16, "byteOffset": 0, "componentType": 5126, "count": 46, "type": "VEC3", "min": [-0.9716796875, -0.08642578125, -1.09619140625], "max": [1.94873046875, 2.81201171875, 0.17822265625]}, {"bufferView": 17, "byteOffset": 0, "componentType": 5126, "count": 46, "type": "VEC2"}, {"bufferView": 18, "byteOffset": 0, "componentType": 5126, "count": 46, "type": "VEC3"}, {"bufferView": 19, "byteOffset": 0, "componentType": 5123, "count": 72, "type": "SCALAR"}, {"bufferView": 20, "byteOffset": 0, "componentType": 5126, "count": 8, "type": "VEC3", "min": [-1.788330078125, 2.2353515625, -2.437744140625], "max": [3.240478515625, 4.78662109375, -2.025146484375]}, {"bufferView": 21, "byteOffset": 0, "componentType": 5126, "count": 8, "type": "VEC2"}, {"bufferView": 22, "byteOffset": 0, "componentType": 5126, "count": 8, "type": "VEC3"}, {"bufferView": 23, "byteOffset": 0, "componentType": 5123, "count": 12, "type": "SCALAR"}, {"bufferView": 24, "byteOffset": 0, "componentType": 5126, "count": 4, "type": "VEC3", "min": [1.208984375, 2.96923828125, -0.08984375], "max": [2.89453125, 4.614501953125, 0.288818359375]}, {"bufferView": 25, "byteOffset": 0, "componentType": 5126, "count": 4, "type": "VEC2"}, {"bufferView": 26, "byteOffset": 0, "componentType": 5126, "count": 4, "type": "VEC3"}, {"bufferView": 27, "byteOffset": 0, "componentType": 5123, "count": 6, "type": "SCALAR"}, {"bufferView": 28, "byteOffset": 0, "componentType": 5126, "count": 4, "type": "VEC3", "min": [-1.497802734375, 3.035400390625, -0.08984375], "max": [0.187744140625, 4.680419921875, 0.288818359375]}, {"bufferView": 29, "byteOffset": 0, "componentType": 5126, "count": 4, "type": "VEC2"}, {"bufferView": 30, "byteOffset": 0, "componentType": 5126, "count": 4, "type": "VEC3"}, {"bufferView": 31, "byteOffset": 0, "componentType": 5123, "count": 6, "type": "SCALAR"}, {"bufferView": 32, "byteOffset": 0, "componentType": 5126, "count": 4, "type": "VEC3", "min": [0.503662109375, 0.125, -0.306884765625], "max": [0.8720703125, 0.6474609375, -0.19287109375]}, {"bufferView": 33, "byteOffset": 0, "componentType": 5126, "count": 4, "type": "VEC2"}, {"bufferView": 34, "byteOffset": 0, "componentType": 5126, "count": 4, "type": "VEC3"}, {"bufferView": 35, "byteOffset": 0, "componentType": 5123, "count": 6, "type": "SCALAR"}, {"bufferView": 36, "byteOffset": 0, "componentType": 5126, "count": 4, "type": "VEC3", "min": [0.201171875, 1.319580078125, -0.01171875], "max": [1.275146484375, 1.87353515625, -0.01171875]}, {"bufferView": 37, "byteOffset": 0, "componentType": 5126, "count": 4, "type": "VEC2"}, {"bufferView": 38, "byteOffset": 0, "componentType": 5126, "count": 4, "type": "VEC3"}, {"bufferView": 39, "byteOffset": 0, "componentType": 5123, "count": 6, "type": "SCALAR"}], "samplers": [{"magFilter": 9729, "minFilter": 9729, "wrapS": 10497, "wrapT": 10497}]}