{"asset": {"version": "2.0", "generator": "tongari-nsbmd-to-gltf"}, "scene": 0, "scenes": [{"nodes": [0, 5]}], "nodes": [{"name": "head045_c", "translation": [0.0, 0.0, 0.0], "children": [1, 2, 3, 4]}, {"name": "pPlane1", "translation": [0.0, 0.0, 0.0]}, {"name": "pPlane37", "translation": [0.0, 0.0, 0.0]}, {"name": "pPlane79", "translation": [0.0, 0.0, 0.0]}, {"name": "pmd45_00", "translation": [0.0, 0.0, 0.0]}, {"mesh": 0, "name": "2912head045_c"}], "meshes": [{"name": "2912head045_c", "primitives": [{"attributes": {"POSITION": 0, "TEXCOORD_0": 1, "NORMAL": 2}, "indices": 3, "mode": 4, "material": 1}, {"attributes": {"POSITION": 4, "TEXCOORD_0": 5, "NORMAL": 6}, "indices": 7, "mode": 4, "material": 1}, {"attributes": {"POSITION": 8, "TEXCOORD_0": 9, "NORMAL": 10}, "indices": 11, "mode": 4, "material": 1}, {"attributes": {"POSITION": 12, "TEXCOORD_0": 13, "NORMAL": 14}, "indices": 15, "mode": 4, "material": 0}]}], "materials": [{"name": "c08_hat45", "pbrMetallicRoughness": {"baseColorFactor": [1.0, 1.0, 1.0, 1.0], "metallicFactor": 0.0, "roughnessFactor": 1.0}, "alphaMode": "OPAQUE", "doubleSided": true}, {"name": "mane00_tex", "pbrMetallicRoughness": {"baseColorFactor": [1.0, 1.0, 1.0, 1.0], "metallicFactor": 0.0, "roughnessFactor": 1.0}, "alphaMode": "OPAQUE", "doubleSided": true}], "buffers": [{"byteLength": 5696, "uri": "data:application/octet-stream;base64,"}], "bufferViews": [{"buffer": 0, "byteOffset": 0, "byteLength": 96}, {"buffer": 0, "byteOffset": 96, "byteLength": 64}, {"buffer": 0, "byteOffset": 160, "byteLength": 96}, {"buffer": 0, "byteOffset": 256, "byteLength": 36}, {"buffer": 0, "byteOffset": 292, "byteLength": 48}, {"buffer": 0, "byteOffset": 340, "byteLength": 32}, {"buffer": 0, "byteOffset": 372, "byteLength": 48}, {"buffer": 0, "byteOffset": 420, "byteLength": 12}, {"buffer": 0, "byteOffset": 432, "byteLength": 48}, {"buffer": 0, "byteOffset": 480, "byteLength": 32}, {"buffer": 0, "byteOffset": 512, "byteLength": 48}, {"buffer": 0, "byteOffset": 560, "byteLength": 12}, {"buffer": 0, "byteOffset": 572, "byteLength": 1728}, {"buffer": 0, "byteOffset": 2300, "byteLength": 1152}, {"buffer": 0, "byteOffset": 3452, "byteLength": 1728}, {"buffer": 0, "byteOffset": 5180, "byteLength": 516}], "accessors": [{"bufferView": 0, "byteOffset": 0, "componentType": 5126, "count": 8, "type": "VEC3", "min": [-0.03759765625, 0.0, -0.0087890625], "max": [0.03759765625, 0.500244140625, 0.024169921875]}, {"bufferView": 1, "byteOffset": 0, "componentType": 5126, "count": 8, "type": "VEC2"}, {"bufferView": 2, "byteOffset": 0, "componentType": 5126, "count": 8, "type": "VEC3"}, {"bufferView": 3, "byteOffset": 0, "componentType": 5123, "count": 18, "type": "SCALAR"}, {"bufferView": 4, "byteOffset": 0, "componentType": 5126, "count": 4, "type": "VEC3", "min": [-0.231201171875, 0.00830078125, -0.239990234375], "max": [0.231201171875, 0.00830078125, 0.239990234375]}, {"bufferView": 5, "byteOffset": 0, "componentType": 5126, "count": 4, "type": "VEC2"}, {"bufferView": 6, "byteOffset": 0, "componentType": 5126, "count": 4, "type": "VEC3"}, {"bufferView": 7, "byteOffset": 0, "componentType": 5123, "count": 6, "type": "SCALAR"}, {"bufferView": 8, "byteOffset": 0, "componentType": 5126, "count": 4, "type": "VEC3", "min": [-0.2666015625, 0.730712890625, -0.146240234375], "max": [0.2666015625, 0.730712890625, 0.146240234375]}, {"bufferView": 9, "byteOffset": 0, "componentType": 5126, "count": 4, "type": "VEC2"}, {"bufferView": 10, "byteOffset": 0, "componentType": 5126, "count": 4, "type": "VEC3"}, {"bufferView": 11, "byteOffset": 0, "componentType": 5123, "count": 6, "type": "SCALAR"}, {"bufferView": 12, "byteOffset": 0, "componentType": 5126, "count": 144, "type": "VEC3", "min": [-0.350830078125, 0.16455078125, -0.35595703125], "max": [0.350830078125, 0.887939453125, 0.375244140625]}, {"bufferView": 13, "byteOffset": 0, "componentType": 5126, "count": 144, "type": "VEC2"}, {"bufferView": 14, "byteOffset": 0, "componentType": 5126, "count": 144, "type": "VEC3"}, {"bufferView": 15, "byteOffset": 0, "componentType": 5123, "count": 258, "type": "SCALAR"}], "samplers": [{"magFilter": 9729, "minFilter": 9729, "wrapS": 10497, "wrapT": 10497}]}