{"asset": {"version": "2.0", "generator": "tongari-nsbmd-to-gltf"}, "scene": 0, "scenes": [{"nodes": [0, 2]}], "nodes": [{"name": "joint1", "translation": [0.0, 0.0, 0.0], "children": [1]}, {"name": "joint2", "translation": [0.058349609375, -8.947998046875, 0.0]}, {"mesh": 0, "name": "Fas00_spot00_0"}], "meshes": [{"name": "Fas00_spot00_0", "primitives": [{"attributes": {"POSITION": 0, "TEXCOORD_0": 1}, "indices": 2, "mode": 4, "material": 0}]}], "materials": [{"name": "Fas00_light01", "pbrMetallicRoughness": {"baseColorFactor": [1.0, 1.0, 1.0, 0.45161290322580644], "metallicFactor": 0.0, "roughnessFactor": 1.0}, "alphaMode": "BLEND", "doubleSided": true}], "buffers": [{"byteLength": 368, "uri": "data:application/octet-stream;base64,"}], "bufferViews": [{"buffer": 0, "byteOffset": 0, "byteLength": 192}, {"buffer": 0, "byteOffset": 192, "byteLength": 128}, {"buffer": 0, "byteOffset": 320, "byteLength": 48}], "accessors": [{"bufferView": 0, "byteOffset": 0, "componentType": 5126, "count": 16, "type": "VEC3", "min": [-3.8212549090385437, -11.674286959256278, -9.030717194080353], "max": [8.093428254127502, 0.0, 3.635225204998278]}, {"bufferView": 1, "byteOffset": 0, "componentType": 5126, "count": 16, "type": "VEC2"}, {"bufferView": 2, "byteOffset": 0, "componentType": 5123, "count": 24, "type": "SCALAR"}], "samplers": [{"magFilter": 9729, "minFilter": 9729, "wrapS": 10497, "wrapT": 10497}]}