{"asset": {"version": "2.0", "generator": "tongari-nsbmd-to-gltf"}, "scene": 0, "scenes": [{"nodes": [0, 1]}], "nodes": [{"name": "imig04_05", "translation": [0.0, 0.0, 0.0]}, {"mesh": 0, "name": "3271IMIG04_05"}], "meshes": [{"name": "3271IMIG04_05", "primitives": [{"attributes": {"POSITION": 0, "TEXCOORD_0": 1, "NORMAL": 2}, "indices": 3, "mode": 4, "material": 0}, {"attributes": {"POSITION": 4, "TEXCOORD_0": 5, "NORMAL": 6}, "indices": 7, "mode": 4, "material": 3}, {"attributes": {"POSITION": 8, "TEXCOORD_0": 9, "NORMAL": 10}, "indices": 11, "mode": 4, "material": 2}, {"attributes": {"POSITION": 12, "TEXCOORD_0": 13, "NORMAL": 14}, "indices": 15, "mode": 4, "material": 1}]}], "materials": [{"name": "imig04_05_0", "pbrMetallicRoughness": {"baseColorFactor": [1.0, 1.0, 1.0, 1.0], "metallicFactor": 0.0, "roughnessFactor": 1.0}, "alphaMode": "OPAQUE", "doubleSided": true}, {"name": "imig04_05_1", "pbrMetallicRoughness": {"baseColorFactor": [1.0, 1.0, 1.0, 1.0], "metallicFactor": 0.0, "roughnessFactor": 1.0}, "alphaMode": "OPAQUE", "doubleSided": true}, {"name": "imig04_05_2", "pbrMetallicRoughness": {"baseColorFactor": [1.0, 1.0, 1.0, 1.0], "metallicFactor": 0.0, "roughnessFactor": 1.0}, "alphaMode": "OPAQUE", "doubleSided": true}, {"name": "imig04_05_3", "pbrMetallicRoughness": {"baseColorFactor": [1.0, 1.0, 1.0, 1.0], "metallicFactor": 0.0, "roughnessFactor": 1.0}, "alphaMode": "OPAQUE", "doubleSided": true}], "buffers": [{"byteLength": 4480, "uri": "data:application/octet-stream;base64,"}], "bufferViews": [{"buffer": 0, "byteOffset": 0, "byteLength": 48}, {"buffer": 0, "byteOffset": 48, "byteLength": 32}, {"buffer": 0, "byteOffset": 80, "byteLength": 48}, {"buffer": 0, "byteOffset": 128, "byteLength": 12}, {"buffer": 0, "byteOffset": 140, "byteLength": 624}, {"buffer": 0, "byteOffset": 764, "byteLength": 416}, {"buffer": 0, "byteOffset": 1180, "byteLength": 624}, {"buffer": 0, "byteOffset": 1804, "byteLength": 156}, {"buffer": 0, "byteOffset": 1960, "byteLength": 588}, {"buffer": 0, "byteOffset": 2548, "byteLength": 392}, {"buffer": 0, "byteOffset": 2940, "byteLength": 588}, {"buffer": 0, "byteOffset": 3528, "byteLength": 174}, {"buffer": 0, "byteOffset": 3704, "byteLength": 264}, {"buffer": 0, "byteOffset": 3968, "byteLength": 176}, {"buffer": 0, "byteOffset": 4144, "byteLength": 264}, {"buffer": 0, "byteOffset": 4408, "byteLength": 72}], "accessors": [{"bufferView": 0, "byteOffset": 0, "componentType": 5126, "count": 4, "type": "VEC3", "min": [-0.4287109375, 0.038330078125, -0.029296875], "max": [0.033447265625, 0.038330078125, 0.432861328125]}, {"bufferView": 1, "byteOffset": 0, "componentType": 5126, "count": 4, "type": "VEC2"}, {"bufferView": 2, "byteOffset": 0, "componentType": 5126, "count": 4, "type": "VEC3"}, {"bufferView": 3, "byteOffset": 0, "componentType": 5123, "count": 6, "type": "SCALAR"}, {"bufferView": 4, "byteOffset": 0, "componentType": 5126, "count": 52, "type": "VEC3", "min": [-0.200927734375, -0.14208984375, -0.43359375], "max": [0.4365234375, 0.5244140625, 0.167724609375]}, {"bufferView": 5, "byteOffset": 0, "componentType": 5126, "count": 52, "type": "VEC2"}, {"bufferView": 6, "byteOffset": 0, "componentType": 5126, "count": 52, "type": "VEC3"}, {"bufferView": 7, "byteOffset": 0, "componentType": 5123, "count": 78, "type": "SCALAR"}, {"bufferView": 8, "byteOffset": 0, "componentType": 5126, "count": 49, "type": "VEC3", "min": [-0.87646484375, 0.031494140625, -1.167724609375], "max": [0.227783203125, 0.663818359375, 0.3984375]}, {"bufferView": 9, "byteOffset": 0, "componentType": 5126, "count": 49, "type": "VEC2"}, {"bufferView": 10, "byteOffset": 0, "componentType": 5126, "count": 49, "type": "VEC3"}, {"bufferView": 11, "byteOffset": 0, "componentType": 5123, "count": 87, "type": "SCALAR"}, {"bufferView": 12, "byteOffset": 0, "componentType": 5126, "count": 22, "type": "VEC3", "min": [-0.441650390625, -0.059326171875, 0.050048828125], "max": [-0.057373046875, 0.165771484375, 0.387451171875]}, {"bufferView": 13, "byteOffset": 0, "componentType": 5126, "count": 22, "type": "VEC2"}, {"bufferView": 14, "byteOffset": 0, "componentType": 5126, "count": 22, "type": "VEC3"}, {"bufferView": 15, "byteOffset": 0, "componentType": 5123, "count": 36, "type": "SCALAR"}], "samplers": [{"magFilter": 9729, "minFilter": 9729, "wrapS": 10497, "wrapT": 10497}]}