{"asset": {"version": "2.0", "generator": "tongari-nsbmd-to-gltf"}, "scene": 0, "scenes": [{"nodes": [0, 12]}], "nodes": [{"name": "root", "translation": [0.0, 0.465087890625, 0.000244140625], "children": [1, 9]}, {"name": "chest", "translation": [0.0, 0.05908203125, 0.03369140625], "children": [2, 4, 6]}, {"name": "l_shoulder", "translation": [0.13671875, 0.241943359375, -0.057373046875], "children": [3]}, {"name": "l_elbow", "translation": [0.166015625, -0.0078125, 0.0]}, {"name": "neck", "translation": [0.0, 0.24658203125, -0.05615234375], "children": [5]}, {"name": "mouse", "translation": [0.0, 0.2265625, 0.064208984375]}, {"name": "r_shoulder", "translation": [-0.13671875, 0.241943359375, -0.057373046875], "children": [7]}, {"name": "r_elbow", "translation": [-0.166015625, -0.0078125, 0.0], "children": [8]}, {"name": "r_hand", "translation": [-0.190185546875, -0.009033203125, 0.031005859375]}, {"name": "hip", "translation": [0.0, -0.0556640625, -0.0302734375], "children": [10, 11]}, {"name": "l_knee", "translation": [0.10595703125, -0.0419921875, 0.04736328125]}, {"name": "r_knee", "translation": [-0.10595703125, -0.0419921875, 0.04736328125]}, {"mesh": 0, "name": "pmd75_00_02"}], "meshes": [{"name": "pmd75_00_02", "primitives": [{"attributes": {"POSITION": 0, "TEXCOORD_0": 1, "NORMAL": 2}, "indices": 3, "mode": 4, "material": 2}, {"attributes": {"POSITION": 4, "TEXCOORD_0": 5, "NORMAL": 6}, "indices": 7, "mode": 4, "material": 0}, {"attributes": {"POSITION": 8, "TEXCOORD_0": 9, "NORMAL": 10}, "indices": 11, "mode": 4, "material": 3}, {"attributes": {"POSITION": 12, "TEXCOORD_0": 13, "NORMAL": 14}, "indices": 15, "mode": 4, "material": 1}, {"attributes": {"POSITION": 16, "TEXCOORD_0": 17, "NORMAL": 18}, "indices": 19, "mode": 4, "material": 6}, {"attributes": {"POSITION": 20, "TEXCOORD_0": 21, "NORMAL": 22}, "indices": 23, "mode": 4, "material": 7}, {"attributes": {"POSITION": 24, "TEXCOORD_0": 25, "NORMAL": 26}, "indices": 27, "mode": 4, "material": 4}, {"attributes": {"POSITION": 28, "TEXCOORD_0": 29, "NORMAL": 30}, "indices": 31, "mode": 4, "material": 5}, {"attributes": {"POSITION": 32, "TEXCOORD_0": 33, "NORMAL": 34}, "indices": 35, "mode": 4, "material": 0}, {"attributes": {"POSITION": 36, "TEXCOORD_0": 37, "NORMAL": 38}, "indices": 39, "mode": 4, "material": 8}]}], "materials": [{"name": "c00_face", "pbrMetallicRoughness": {"baseColorFactor": [1.0, 1.0, 1.0, 1.0], "metallicFactor": 0.0, "roughnessFactor": 1.0}, "alphaMode": "OPAQUE", "doubleSided": true}, {"name": "c01_cloth_u", "pbrMetallicRoughness": {"baseColorFactor": [1.0, 1.0, 1.0, 1.0], "metallicFactor": 0.0, "roughnessFactor": 1.0}, "alphaMode": "OPAQUE", "doubleSided": true}, {"name": "c02_cloth_d", "pbrMetallicRoughness": {"baseColorFactor": [1.0, 1.0, 1.0, 1.0], "metallicFactor": 0.0, "roughnessFactor": 1.0}, "alphaMode": "OPAQUE", "doubleSided": true}, {"name": "c03_shoes", "pbrMetallicRoughness": {"baseColorFactor": [1.0, 1.0, 1.0, 1.0], "metallicFactor": 0.0, "roughnessFactor": 1.0}, "alphaMode": "OPAQUE", "doubleSided": true}, {"name": "c05_hair", "pbrMetallicRoughness": {"baseColorFactor": [1.0, 1.0, 1.0, 1.0], "metallicFactor": 0.0, "roughnessFactor": 1.0}, "alphaMode": "OPAQUE", "doubleSided": true}, {"name": "c09_glasses", "pbrMetallicRoughness": {"baseColorFactor": [1.0, 1.0, 1.0, 1.0], "metallicFactor": 0.0, "roughnessFactor": 1.0}, "alphaMode": "OPAQUE", "doubleSided": true}, {"name": "ucc_n_b", "pbrMetallicRoughness": {"baseColorFactor": [1.0, 1.0, 1.0, 1.0], "metallicFactor": 0.0, "roughnessFactor": 1.0}, "alphaMode": "OPAQUE", "doubleSided": true}, {"name": "ucc_n_j", "pbrMetallicRoughness": {"baseColorFactor": [1.0, 1.0, 1.0, 1.0], "metallicFactor": 0.0, "roughnessFactor": 1.0}, "alphaMode": "OPAQUE", "doubleSided": true}, {"name": "zc08_hat", "pbrMetallicRoughness": {"baseColorFactor": [1.0, 1.0, 1.0, 1.0], "metallicFactor": 0.0, "roughnessFactor": 1.0}, "alphaMode": "OPAQUE", "doubleSided": true}], "buffers": [{"byteLength": 20072, "uri": "data:application/octet-stream;base64,"}], "bufferViews": [{"buffer": 0, "byteOffset": 0, "byteLength": 408}, {"buffer": 0, "byteOffset": 408, "byteLength": 272}, {"buffer": 0, "byteOffset": 680, "byteLength": 408}, {"buffer": 0, "byteOffset": 1088, "byteLength": 108}, {"buffer": 0, "byteOffset": 1196, "byteLength": 504}, {"buffer": 0, "byteOffset": 1700, "byteLength": 336}, {"buffer": 0, "byteOffset": 2036, "byteLength": 504}, {"buffer": 0, "byteOffset": 2540, "byteLength": 144}, {"buffer": 0, "byteOffset": 2684, "byteLength": 552}, {"buffer": 0, "byteOffset": 3236, "byteLength": 368}, {"buffer": 0, "byteOffset": 3604, "byteLength": 552}, {"buffer": 0, "byteOffset": 4156, "byteLength": 168}, {"buffer": 0, "byteOffset": 4324, "byteLength": 1392}, {"buffer": 0, "byteOffset": 5716, "byteLength": 928}, {"buffer": 0, "byteOffset": 6644, "byteLength": 1392}, {"buffer": 0, "byteOffset": 8036, "byteLength": 420}, {"buffer": 0, "byteOffset": 8456, "byteLength": 240}, {"buffer": 0, "byteOffset": 8696, "byteLength": 160}, {"buffer": 0, "byteOffset": 8856, "byteLength": 240}, {"buffer": 0, "byteOffset": 9096, "byteLength": 60}, {"buffer": 0, "byteOffset": 9156, "byteLength": 48}, {"buffer": 0, "byteOffset": 9204, "byteLength": 32}, {"buffer": 0, "byteOffset": 9236, "byteLength": 48}, {"buffer": 0, "byteOffset": 9284, "byteLength": 12}, {"buffer": 0, "byteOffset": 9296, "byteLength": 1872}, {"buffer": 0, "byteOffset": 11168, "byteLength": 1248}, {"buffer": 0, "byteOffset": 12416, "byteLength": 1872}, {"buffer": 0, "byteOffset": 14288, "byteLength": 492}, {"buffer": 0, "byteOffset": 14780, "byteLength": 96}, {"buffer": 0, "byteOffset": 14876, "byteLength": 64}, {"buffer": 0, "byteOffset": 14940, "byteLength": 96}, {"buffer": 0, "byteOffset": 15036, "byteLength": 36}, {"buffer": 0, "byteOffset": 15072, "byteLength": 1092}, {"buffer": 0, "byteOffset": 16164, "byteLength": 728}, {"buffer": 0, "byteOffset": 16892, "byteLength": 1092}, {"buffer": 0, "byteOffset": 17984, "byteLength": 294}, {"buffer": 0, "byteOffset": 18280, "byteLength": 600}, {"buffer": 0, "byteOffset": 18880, "byteLength": 400}, {"buffer": 0, "byteOffset": 19280, "byteLength": 600}, {"buffer": 0, "byteOffset": 19880, "byteLength": 192}], "accessors": [{"bufferView": 0, "byteOffset": 0, "componentType": 5126, "count": 34, "type": "VEC3", "min": [-0.112548828125, 0.193359375, -0.11572265625], "max": [0.372314453125, 0.792724609375, 0.052734375]}, {"bufferView": 1, "byteOffset": 0, "componentType": 5126, "count": 34, "type": "VEC2"}, {"bufferView": 2, "byteOffset": 0, "componentType": 5126, "count": 34, "type": "VEC3"}, {"bufferView": 3, "byteOffset": 0, "componentType": 5123, "count": 54, "type": "SCALAR"}, {"bufferView": 4, "byteOffset": 0, "componentType": 5126, "count": 42, "type": "VEC3", "min": [-0.42431640625, 0.6416015625, -0.10693359375], "max": [0.59033203125, 0.835205078125, 0.08984375]}, {"bufferView": 5, "byteOffset": 0, "componentType": 5126, "count": 42, "type": "VEC2"}, {"bufferView": 6, "byteOffset": 0, "componentType": 5126, "count": 42, "type": "VEC3"}, {"bufferView": 7, "byteOffset": 0, "componentType": 5123, "count": 72, "type": "SCALAR"}, {"bufferView": 8, "byteOffset": 0, "componentType": 5126, "count": 46, "type": "VEC3", "min": [-0.088623046875, 0.09765625, -0.147705078125], "max": [0.225830078125, 0.525390625, 0.230224609375]}, {"bufferView": 9, "byteOffset": 0, "componentType": 5126, "count": 46, "type": "VEC2"}, {"bufferView": 10, "byteOffset": 0, "componentType": 5126, "count": 46, "type": "VEC3"}, {"bufferView": 11, "byteOffset": 0, "componentType": 5123, "count": 84, "type": "SCALAR"}, {"bufferView": 12, "byteOffset": 0, "componentType": 5126, "count": 116, "type": "VEC3", "min": [-0.5595703125, 0.607421875, -0.24169921875], "max": [0.43115234375, 1.0478515625, 0.238525390625]}, {"bufferView": 13, "byteOffset": 0, "componentType": 5126, "count": 116, "type": "VEC2"}, {"bufferView": 14, "byteOffset": 0, "componentType": 5126, "count": 116, "type": "VEC3"}, {"bufferView": 15, "byteOffset": 0, "componentType": 5123, "count": 210, "type": "SCALAR"}, {"bufferView": 16, "byteOffset": 0, "componentType": 5126, "count": 20, "type": "VEC3", "min": [-0.1650390625, 0.40380859375, 0.009765625], "max": [0.1650390625, 0.7626953125, 0.188232421875]}, {"bufferView": 17, "byteOffset": 0, "componentType": 5126, "count": 20, "type": "VEC2"}, {"bufferView": 18, "byteOffset": 0, "componentType": 5126, "count": 20, "type": "VEC3"}, {"bufferView": 19, "byteOffset": 0, "componentType": 5123, "count": 30, "type": "SCALAR"}, {"bufferView": 20, "byteOffset": 0, "componentType": 5126, "count": 4, "type": "VEC3", "min": [-0.07666015625, 0.456787109375, 0.15087890625], "max": [0.077392578125, 0.605224609375, 0.192138671875]}, {"bufferView": 21, "byteOffset": 0, "componentType": 5126, "count": 4, "type": "VEC2"}, {"bufferView": 22, "byteOffset": 0, "componentType": 5126, "count": 4, "type": "VEC3"}, {"bufferView": 23, "byteOffset": 0, "componentType": 5123, "count": 6, "type": "SCALAR"}, {"bufferView": 24, "byteOffset": 0, "componentType": 5126, "count": 156, "type": "VEC3", "min": [-0.42138671875, 0.501953125, -0.39208984375], "max": [0.427978515625, 1.4658203125, 0.472412109375]}, {"bufferView": 25, "byteOffset": 0, "componentType": 5126, "count": 156, "type": "VEC2"}, {"bufferView": 26, "byteOffset": 0, "componentType": 5126, "count": 156, "type": "VEC3"}, {"bufferView": 27, "byteOffset": 0, "componentType": 5123, "count": 246, "type": "SCALAR"}, {"bufferView": 28, "byteOffset": 0, "componentType": 5126, "count": 8, "type": "VEC3", "min": [-0.326171875, 0.591796875, 0.3095703125], "max": [0.326171875, 0.93017578125, 0.503662109375]}, {"bufferView": 29, "byteOffset": 0, "componentType": 5126, "count": 8, "type": "VEC2"}, {"bufferView": 30, "byteOffset": 0, "componentType": 5126, "count": 8, "type": "VEC3"}, {"bufferView": 31, "byteOffset": 0, "componentType": 5123, "count": 18, "type": "SCALAR"}, {"bufferView": 32, "byteOffset": 0, "componentType": 5126, "count": 91, "type": "VEC3", "min": [-0.441162109375, 0.455322265625, -0.0322265625], "max": [0.441162109375, 1.135986328125, 0.45166015625]}, {"bufferView": 33, "byteOffset": 0, "componentType": 5126, "count": 91, "type": "VEC2"}, {"bufferView": 34, "byteOffset": 0, "componentType": 5126, "count": 91, "type": "VEC3"}, {"bufferView": 35, "byteOffset": 0, "componentType": 5123, "count": 147, "type": "SCALAR"}, {"bufferView": 36, "byteOffset": 0, "componentType": 5126, "count": 50, "type": "VEC3", "min": [-0.431640625, 0.84423828125, -0.39208984375], "max": [0.431884765625, 1.3095703125, 0.720458984375]}, {"bufferView": 37, "byteOffset": 0, "componentType": 5126, "count": 50, "type": "VEC2"}, {"bufferView": 38, "byteOffset": 0, "componentType": 5126, "count": 50, "type": "VEC3"}, {"bufferView": 39, "byteOffset": 0, "componentType": 5123, "count": 96, "type": "SCALAR"}], "samplers": [{"magFilter": 9729, "minFilter": 9729, "wrapS": 10497, "wrapT": 10497}]}