{"asset": {"version": "2.0", "generator": "tongari-nsbmd-to-gltf"}, "scene": 0, "scenes": [{"nodes": [0, 1]}], "nodes": [{"name": "imsy01_01", "translation": [0.0, 0.0, 0.0]}, {"mesh": 0, "name": "3439IMSY01_01"}], "meshes": [{"name": "3439IMSY01_01", "primitives": [{"attributes": {"POSITION": 0, "TEXCOORD_0": 1, "NORMAL": 2}, "indices": 3, "mode": 4, "material": 0}, {"attributes": {"POSITION": 4, "TEXCOORD_0": 5, "NORMAL": 6}, "indices": 7, "mode": 4, "material": 1}, {"attributes": {"POSITION": 8, "TEXCOORD_0": 9, "NORMAL": 10}, "indices": 11, "mode": 4, "material": 3}, {"attributes": {"POSITION": 12, "TEXCOORD_0": 13, "NORMAL": 14}, "indices": 15, "mode": 4, "material": 2}]}], "materials": [{"name": "imsy01_01_0", "pbrMetallicRoughness": {"baseColorFactor": [1.0, 1.0, 1.0, 1.0], "metallicFactor": 0.0, "roughnessFactor": 1.0}, "alphaMode": "OPAQUE", "doubleSided": true}, {"name": "imsy01_01_1", "pbrMetallicRoughness": {"baseColorFactor": [1.0, 1.0, 1.0, 1.0], "metallicFactor": 0.0, "roughnessFactor": 1.0}, "alphaMode": "OPAQUE", "doubleSided": true}, {"name": "imsy01_01_2", "pbrMetallicRoughness": {"baseColorFactor": [1.0, 1.0, 1.0, 1.0], "metallicFactor": 0.0, "roughnessFactor": 1.0}, "alphaMode": "OPAQUE", "doubleSided": true}, {"name": "imsy01_01_3", "pbrMetallicRoughness": {"baseColorFactor": [1.0, 1.0, 1.0, 1.0], "metallicFactor": 0.0, "roughnessFactor": 1.0}, "alphaMode": "OPAQUE", "doubleSided": true}], "buffers": [{"byteLength": 3916, "uri": "data:application/octet-stream;base64,"}], "bufferViews": [{"buffer": 0, "byteOffset": 0, "byteLength": 792}, {"buffer": 0, "byteOffset": 792, "byteLength": 528}, {"buffer": 0, "byteOffset": 1320, "byteLength": 792}, {"buffer": 0, "byteOffset": 2112, "byteLength": 252}, {"buffer": 0, "byteOffset": 2364, "byteLength": 144}, {"buffer": 0, "byteOffset": 2508, "byteLength": 96}, {"buffer": 0, "byteOffset": 2604, "byteLength": 144}, {"buffer": 0, "byteOffset": 2748, "byteLength": 48}, {"buffer": 0, "byteOffset": 2796, "byteLength": 192}, {"buffer": 0, "byteOffset": 2988, "byteLength": 128}, {"buffer": 0, "byteOffset": 3116, "byteLength": 192}, {"buffer": 0, "byteOffset": 3308, "byteLength": 48}, {"buffer": 0, "byteOffset": 3356, "byteLength": 192}, {"buffer": 0, "byteOffset": 3548, "byteLength": 128}, {"buffer": 0, "byteOffset": 3676, "byteLength": 192}, {"buffer": 0, "byteOffset": 3868, "byteLength": 48}], "accessors": [{"bufferView": 0, "byteOffset": 0, "componentType": 5126, "count": 66, "type": "VEC3", "min": [-0.544921875, 0.09912109375, -0.46240234375], "max": [0.544921875, 1.226806640625, 0.46240234375]}, {"bufferView": 1, "byteOffset": 0, "componentType": 5126, "count": 66, "type": "VEC2"}, {"bufferView": 2, "byteOffset": 0, "componentType": 5126, "count": 66, "type": "VEC3"}, {"bufferView": 3, "byteOffset": 0, "componentType": 5123, "count": 126, "type": "SCALAR"}, {"bufferView": 4, "byteOffset": 0, "componentType": 5126, "count": 12, "type": "VEC3", "min": [-0.73681640625, 0.091552734375, -0.36474609375], "max": [0.73681640625, 0.3369140625, 0.36474609375]}, {"bufferView": 5, "byteOffset": 0, "componentType": 5126, "count": 12, "type": "VEC2"}, {"bufferView": 6, "byteOffset": 0, "componentType": 5126, "count": 12, "type": "VEC3"}, {"bufferView": 7, "byteOffset": 0, "componentType": 5123, "count": 24, "type": "SCALAR"}, {"bufferView": 8, "byteOffset": 0, "componentType": 5126, "count": 16, "type": "VEC3", "min": [-0.94873046875, 0.0009765625, -0.39892578125], "max": [0.94873046875, 0.57568359375, 0.39892578125]}, {"bufferView": 9, "byteOffset": 0, "componentType": 5126, "count": 16, "type": "VEC2"}, {"bufferView": 10, "byteOffset": 0, "componentType": 5126, "count": 16, "type": "VEC3"}, {"bufferView": 11, "byteOffset": 0, "componentType": 5123, "count": 24, "type": "SCALAR"}, {"bufferView": 12, "byteOffset": 0, "componentType": 5126, "count": 16, "type": "VEC3", "min": [-0.379638671875, 0.09912109375, 0.0], "max": [0.379638671875, 0.935791015625, 0.46240234375]}, {"bufferView": 13, "byteOffset": 0, "componentType": 5126, "count": 16, "type": "VEC2"}, {"bufferView": 14, "byteOffset": 0, "componentType": 5126, "count": 16, "type": "VEC3"}, {"bufferView": 15, "byteOffset": 0, "componentType": 5123, "count": 24, "type": "SCALAR"}], "samplers": [{"magFilter": 9729, "minFilter": 9729, "wrapS": 10497, "wrapT": 10497}]}