{"asset": {"version": "2.0", "generator": "tongari-nsbmd-to-gltf"}, "scene": 0, "scenes": [{"nodes": [0, 1]}], "nodes": [{"name": "base_1", "translation": [0.0, 0.0, 0.0]}, {"mesh": 0, "name": "base_1"}], "meshes": [{"name": "base_1", "primitives": [{"attributes": {"POSITION": 0, "TEXCOORD_0": 1}, "indices": 2, "mode": 4, "material": 1}, {"attributes": {"POSITION": 3, "TEXCOORD_0": 4}, "indices": 5, "mode": 4, "material": 0}]}], "materials": [{"name": "k_nabe00", "pbrMetallicRoughness": {"baseColorFactor": [1.0, 1.0, 1.0, 1.0], "metallicFactor": 0.0, "roughnessFactor": 1.0}, "alphaMode": "OPAQUE", "doubleSided": true}, {"name": "k_nabe01", "pbrMetallicRoughness": {"baseColorFactor": [1.0, 1.0, 1.0, 1.0], "metallicFactor": 0.0, "roughnessFactor": 1.0}, "alphaMode": "OPAQUE", "doubleSided": true}], "buffers": [{"byteLength": 3688, "uri": "data:application/octet-stream;base64,"}], "bufferViews": [{"buffer": 0, "byteOffset": 0, "byteLength": 1344}, {"buffer": 0, "byteOffset": 1344, "byteLength": 896}, {"buffer": 0, "byteOffset": 2240, "byteLength": 528}, {"buffer": 0, "byteOffset": 2768, "byteLength": 480}, {"buffer": 0, "byteOffset": 3248, "byteLength": 320}, {"buffer": 0, "byteOffset": 3568, "byteLength": 120}], "accessors": [{"bufferView": 0, "byteOffset": 0, "componentType": 5126, "count": 112, "type": "VEC3", "min": [-0.880126953125, -0.00048828125, -0.682861328125], "max": [0.880126953125, 0.525634765625, 0.682861328125]}, {"bufferView": 1, "byteOffset": 0, "componentType": 5126, "count": 112, "type": "VEC2"}, {"bufferView": 2, "byteOffset": 0, "componentType": 5123, "count": 264, "type": "SCALAR"}, {"bufferView": 3, "byteOffset": 0, "componentType": 5126, "count": 40, "type": "VEC3", "min": [-0.6494140625, 0.156982421875, -0.682861328125], "max": [0.6494140625, 0.5029296875, 0.682861328125]}, {"bufferView": 4, "byteOffset": 0, "componentType": 5126, "count": 40, "type": "VEC2"}, {"bufferView": 5, "byteOffset": 0, "componentType": 5123, "count": 60, "type": "SCALAR"}], "samplers": [{"magFilter": 9729, "minFilter": 9729, "wrapS": 10497, "wrapT": 10497}]}