{"asset": {"version": "2.0", "generator": "tongari-nsbmd-to-gltf"}, "scene": 0, "scenes": [{"nodes": [0, 14]}], "nodes": [{"name": "root", "translation": [0.0, 0.8369140625, 0.000244140625], "children": [1, 9]}, {"name": "chest", "translation": [0.0, 0.1064453125, 0.060791015625], "children": [2, 4, 6]}, {"name": "l_shoulder", "translation": [0.950439453125, 0.43603515625, -0.10302734375], "children": [3]}, {"name": "l_elbow", "translation": [0.298583984375, -0.013916015625, 0.0]}, {"name": "neck", "translation": [0.0, 0.44384765625, -0.10107421875], "children": [5]}, {"name": "mouse", "translation": [0.0, 0.408203125, 0.115966796875]}, {"name": "r_shoulder", "translation": [-0.9541015625, 0.436279296875, -0.103515625], "children": [7]}, {"name": "r_elbow", "translation": [-0.298583984375, -0.013916015625, 0.0], "children": [8]}, {"name": "r_hand", "translation": [-0.34228515625, -0.01611328125, 0.055908203125]}, {"name": "hip", "translation": [0.0, -0.10009765625, -0.054443359375], "children": [10, 11, 12]}, {"name": "l_knee", "translation": [0.18896484375, -0.3134765625, 0.08544921875]}, {"name": "r_knee", "translation": [-0.192626953125, -0.3134765625, 0.08544921875]}, {"name": "tail1", "translation": [0.0, -0.006591796875, -0.543212890625], "children": [13]}, {"name": "tail2", "translation": [0.0, 0.0, -0.283447265625]}, {"mesh": 0, "name": "uma028"}], "meshes": [{"name": "uma028", "primitives": [{"attributes": {"POSITION": 0, "TEXCOORD_0": 1, "NORMAL": 2}, "indices": 3, "mode": 4, "material": 3}, {"attributes": {"POSITION": 4, "TEXCOORD_0": 5, "NORMAL": 6}, "indices": 7, "mode": 4, "material": 4}, {"attributes": {"POSITION": 8, "TEXCOORD_0": 9, "NORMAL": 10}, "indices": 11, "mode": 4, "material": 0}, {"attributes": {"POSITION": 12, "TEXCOORD_0": 13, "NORMAL": 14}, "indices": 15, "mode": 4, "material": 1}, {"attributes": {"POSITION": 16, "TEXCOORD_0": 17, "NORMAL": 18}, "indices": 19, "mode": 4, "material": 2}]}], "materials": [{"name": "c00_face", "pbrMetallicRoughness": {"baseColorFactor": [0.803921568627451, 0.803921568627451, 0.803921568627451, 1.0], "metallicFactor": 0.0, "roughnessFactor": 1.0}, "alphaMode": "OPAQUE", "doubleSided": true}, {"name": "c04_stone1", "pbrMetallicRoughness": {"baseColorFactor": [0.803921568627451, 0.803921568627451, 0.803921568627451, 1.0], "metallicFactor": 0.0, "roughnessFactor": 1.0}, "alphaMode": "OPAQUE", "doubleSided": true}, {"name": "c04_stone2", "pbrMetallicRoughness": {"baseColorFactor": [0.803921568627451, 0.803921568627451, 0.803921568627451, 1.0], "metallicFactor": 0.0, "roughnessFactor": 1.0}, "alphaMode": "OPAQUE", "doubleSided": true}, {"name": "c06_stone3", "pbrMetallicRoughness": {"baseColorFactor": [0.803921568627451, 0.803921568627451, 0.803921568627451, 1.0], "metallicFactor": 0.0, "roughnessFactor": 1.0}, "alphaMode": "OPAQUE", "doubleSided": true}, {"name": "c06_stone4", "pbrMetallicRoughness": {"baseColorFactor": [0.803921568627451, 0.803921568627451, 0.803921568627451, 1.0], "metallicFactor": 0.0, "roughnessFactor": 1.0}, "alphaMode": "OPAQUE", "doubleSided": true}], "buffers": [{"byteLength": 14492, "uri": "data:application/octet-stream;base64,"}], "bufferViews": [{"buffer": 0, "byteOffset": 0, "byteLength": 408}, {"buffer": 0, "byteOffset": 408, "byteLength": 272}, {"buffer": 0, "byteOffset": 680, "byteLength": 408}, {"buffer": 0, "byteOffset": 1088, "byteLength": 108}, {"buffer": 0, "byteOffset": 1196, "byteLength": 3396}, {"buffer": 0, "byteOffset": 4592, "byteLength": 2264}, {"buffer": 0, "byteOffset": 6856, "byteLength": 3396}, {"buffer": 0, "byteOffset": 10252, "byteLength": 1158}, {"buffer": 0, "byteOffset": 11412, "byteLength": 228}, {"buffer": 0, "byteOffset": 11640, "byteLength": 152}, {"buffer": 0, "byteOffset": 11792, "byteLength": 228}, {"buffer": 0, "byteOffset": 12020, "byteLength": 66}, {"buffer": 0, "byteOffset": 12088, "byteLength": 528}, {"buffer": 0, "byteOffset": 12616, "byteLength": 352}, {"buffer": 0, "byteOffset": 12968, "byteLength": 528}, {"buffer": 0, "byteOffset": 13496, "byteLength": 132}, {"buffer": 0, "byteOffset": 13628, "byteLength": 288}, {"buffer": 0, "byteOffset": 13916, "byteLength": 192}, {"buffer": 0, "byteOffset": 14108, "byteLength": 288}, {"buffer": 0, "byteOffset": 14396, "byteLength": 96}], "accessors": [{"bufferView": 0, "byteOffset": 0, "componentType": 5126, "count": 34, "type": "VEC3", "min": [-1.03173828125, 0.435302734375, -0.892822265625], "max": [1.03173828125, 1.289306640625, 0.762451171875]}, {"bufferView": 1, "byteOffset": 0, "componentType": 5126, "count": 34, "type": "VEC2"}, {"bufferView": 2, "byteOffset": 0, "componentType": 5126, "count": 34, "type": "VEC3"}, {"bufferView": 3, "byteOffset": 0, "componentType": 5123, "count": 54, "type": "SCALAR"}, {"bufferView": 4, "byteOffset": 0, "componentType": 5126, "count": 283, "type": "VEC3", "min": [-1.427001953125, 0.40771484375, -0.899169921875], "max": [1.783935546875, 3.061767578125, 0.84716796875]}, {"bufferView": 5, "byteOffset": 0, "componentType": 5126, "count": 283, "type": "VEC2"}, {"bufferView": 6, "byteOffset": 0, "componentType": 5126, "count": 283, "type": "VEC3"}, {"bufferView": 7, "byteOffset": 0, "componentType": 5123, "count": 579, "type": "SCALAR"}, {"bufferView": 8, "byteOffset": 0, "componentType": 5126, "count": 19, "type": "VEC3", "min": [-0.651123046875, 1.24853515625, 0.42919921875], "max": [0.651123046875, 2.277099609375, 0.881591796875]}, {"bufferView": 9, "byteOffset": 0, "componentType": 5126, "count": 19, "type": "VEC2"}, {"bufferView": 10, "byteOffset": 0, "componentType": 5126, "count": 19, "type": "VEC3"}, {"bufferView": 11, "byteOffset": 0, "componentType": 5123, "count": 33, "type": "SCALAR"}, {"bufferView": 12, "byteOffset": 0, "componentType": 5126, "count": 44, "type": "VEC3", "min": [-0.9169921875, 0.435302734375, -0.9599609375], "max": [0.9169921875, 1.289306640625, 0.881591796875]}, {"bufferView": 13, "byteOffset": 0, "componentType": 5126, "count": 44, "type": "VEC2"}, {"bufferView": 14, "byteOffset": 0, "componentType": 5126, "count": 44, "type": "VEC3"}, {"bufferView": 15, "byteOffset": 0, "componentType": 5123, "count": 66, "type": "SCALAR"}, {"bufferView": 16, "byteOffset": 0, "componentType": 5126, "count": 24, "type": "VEC3", "min": [-0.703369140625, 0.238037109375, -0.744140625], "max": [0.703369140625, 0.435302734375, 0.62255859375]}, {"bufferView": 17, "byteOffset": 0, "componentType": 5126, "count": 24, "type": "VEC2"}, {"bufferView": 18, "byteOffset": 0, "componentType": 5126, "count": 24, "type": "VEC3"}, {"bufferView": 19, "byteOffset": 0, "componentType": 5123, "count": 48, "type": "SCALAR"}], "samplers": [{"magFilter": 9729, "minFilter": 9729, "wrapS": 10497, "wrapT": 10497}]}