{"asset": {"version": "2.0", "generator": "tongari-nsbmd-to-gltf"}, "scene": 0, "scenes": [{"nodes": [0, 1]}], "nodes": [{"name": "polySurface71", "translation": [0.0, 0.0, 0.0]}, {"mesh": 0, "name": "king_room"}], "meshes": [{"name": "king_room", "primitives": [{"attributes": {"POSITION": 0, "TEXCOORD_0": 1, "NORMAL": 2}, "indices": 3, "mode": 4, "material": 35}, {"attributes": {"POSITION": 4, "TEXCOORD_0": 5, "NORMAL": 6}, "indices": 7, "mode": 4, "material": 18}, {"attributes": {"POSITION": 8, "TEXCOORD_0": 9, "NORMAL": 10}, "indices": 11, "mode": 4, "material": 31}, {"attributes": {"POSITION": 12, "TEXCOORD_0": 13, "NORMAL": 14}, "indices": 15, "mode": 4, "material": 33}, {"attributes": {"POSITION": 16, "TEXCOORD_0": 17, "NORMAL": 18}, "indices": 19, "mode": 4, "material": 14}, {"attributes": {"POSITION": 20, "TEXCOORD_0": 21, "NORMAL": 22}, "indices": 23, "mode": 4, "material": 19}, {"attributes": {"POSITION": 24, "TEXCOORD_0": 25, "NORMAL": 26}, "indices": 27, "mode": 4, "material": 5}, {"attributes": {"POSITION": 28, "TEXCOORD_0": 29, "NORMAL": 30}, "indices": 31, "mode": 4, "material": 6}, {"attributes": {"POSITION": 32, "TEXCOORD_0": 33, "NORMAL": 34}, "indices": 35, "mode": 4, "material": 30}, {"attributes": {"POSITION": 36, "TEXCOORD_0": 37, "NORMAL": 38}, "indices": 39, "mode": 4, "material": 32}, {"attributes": {"POSITION": 40, "TEXCOORD_0": 41, "NORMAL": 42}, "indices": 43, "mode": 4, "material": 12}, {"attributes": {"POSITION": 44, "TEXCOORD_0": 45, "NORMAL": 46}, "indices": 47, "mode": 4, "material": 15}, {"attributes": {"POSITION": 48, "TEXCOORD_0": 49, "NORMAL": 50}, "indices": 51, "mode": 4, "material": 16}, {"attributes": {"POSITION": 52, "TEXCOORD_0": 53, "NORMAL": 54}, "indices": 55, "mode": 4, "material": 17}, {"attributes": {"POSITION": 56, "TEXCOORD_0": 57, "NORMAL": 58}, "indices": 59, "mode": 4, "material": 9}, {"attributes": {"POSITION": 60, "TEXCOORD_0": 61, "NORMAL": 62}, "indices": 63, "mode": 4, "material": 2}, {"attributes": {"POSITION": 64, "TEXCOORD_0": 65, "NORMAL": 66}, "indices": 67, "mode": 4, "material": 21}, {"attributes": {"POSITION": 68, "TEXCOORD_0": 69, "NORMAL": 70}, "indices": 71, "mode": 4, "material": 25}, {"attributes": {"POSITION": 72, "TEXCOORD_0": 73, "NORMAL": 74}, "indices": 75, "mode": 4, "material": 27}, {"attributes": {"POSITION": 76, "TEXCOORD_0": 77, "NORMAL": 78}, "indices": 79, "mode": 4, "material": 24}, {"attributes": {"POSITION": 80, "TEXCOORD_0": 81, "NORMAL": 82}, "indices": 83, "mode": 4, "material": 0}, {"attributes": {"POSITION": 84, "TEXCOORD_0": 85, "NORMAL": 86}, "indices": 87, "mode": 4, "material": 23}, {"attributes": {"POSITION": 88, "TEXCOORD_0": 89, "NORMAL": 90}, "indices": 91, "mode": 4, "material": 11}, {"attributes": {"POSITION": 92, "TEXCOORD_0": 93, "NORMAL": 94}, "indices": 95, "mode": 4, "material": 22}, {"attributes": {"POSITION": 96, "TEXCOORD_0": 97, "NORMAL": 98}, "indices": 99, "mode": 4, "material": 26}, {"attributes": {"POSITION": 100, "TEXCOORD_0": 101, "NORMAL": 102}, "indices": 103, "mode": 4, "material": 10}, {"attributes": {"POSITION": 104, "TEXCOORD_0": 105, "NORMAL": 106}, "indices": 107, "mode": 4, "material": 28}, {"attributes": {"POSITION": 108, "TEXCOORD_0": 109, "NORMAL": 110}, "indices": 111, "mode": 4, "material": 29}, {"attributes": {"POSITION": 112, "TEXCOORD_0": 113, "NORMAL": 114}, "indices": 115, "mode": 4, "material": 20}, {"attributes": {"POSITION": 116, "TEXCOORD_0": 117, "NORMAL": 118}, "indices": 119, "mode": 4, "material": 4}, {"attributes": {"POSITION": 120, "TEXCOORD_0": 121, "NORMAL": 122}, "indices": 123, "mode": 4, "material": 34}, {"attributes": {"POSITION": 124, "TEXCOORD_0": 125, "NORMAL": 126}, "indices": 127, "mode": 4, "material": 1}, {"attributes": {"POSITION": 128, "TEXCOORD_0": 129, "NORMAL": 130}, "indices": 131, "mode": 4, "material": 13}, {"attributes": {"POSITION": 132, "TEXCOORD_0": 133, "NORMAL": 134}, "indices": 135, "mode": 4, "material": 7}, {"attributes": {"POSITION": 136, "TEXCOORD_0": 137, "NORMAL": 138}, "indices": 139, "mode": 4, "material": 3}, {"attributes": {"POSITION": 140, "TEXCOORD_0": 141, "NORMAL": 142}, "indices": 143, "mode": 4, "material": 8}]}], "materials": [{"name": "king_r_Kpi00", "pbrMetallicRoughness": {"baseColorFactor": [1.0, 1.0, 1.0, 1.0], "metallicFactor": 0.0, "roughnessFactor": 1.0}, "alphaMode": "OPAQUE", "doubleSided": true}, {"name": "king_r_can00", "pbrMetallicRoughness": {"baseColorFactor": [1.0, 1.0, 1.0, 1.0], "metallicFactor": 0.0, "roughnessFactor": 1.0}, "alphaMode": "OPAQUE", "doubleSided": true}, {"name": "king_r_car00", "pbrMetallicRoughness": {"baseColorFactor": [1.0, 1.0, 1.0, 1.0], "metallicFactor": 0.0, "roughnessFactor": 1.0}, "alphaMode": "OPAQUE", "doubleSided": true}, {"name": "king_r_car01", "pbrMetallicRoughness": {"baseColorFactor": [1.0, 1.0, 1.0, 1.0], "metallicFactor": 0.0, "roughnessFactor": 1.0}, "alphaMode": "OPAQUE", "doubleSided": true}, {"name": "king_r_chair0", "pbrMetallicRoughness": {"baseColorFactor": [1.0, 1.0, 1.0, 1.0], "metallicFactor": 0.0, "roughnessFactor": 1.0}, "alphaMode": "OPAQUE", "doubleSided": true}, {"name": "king_r_ct00", "pbrMetallicRoughness": {"baseColorFactor": [1.0, 1.0, 1.0, 1.0], "metallicFactor": 0.0, "roughnessFactor": 1.0}, "alphaMode": "OPAQUE", "doubleSided": true}, {"name": "king_r_ct01", "pbrMetallicRoughness": {"baseColorFactor": [1.0, 1.0, 1.0, 1.0], "metallicFactor": 0.0, "roughnessFactor": 1.0}, "alphaMode": "OPAQUE", "doubleSided": true}, {"name": "king_r_dai", "pbrMetallicRoughness": {"baseColorFactor": [1.0, 1.0, 1.0, 1.0], "metallicFactor": 0.0, "roughnessFactor": 1.0}, "alphaMode": "OPAQUE", "doubleSided": true}, {"name": "king_r_f00", "pbrMetallicRoughness": {"baseColorFactor": [1.0, 1.0, 1.0, 1.0], "metallicFactor": 0.0, "roughnessFactor": 1.0}, "alphaMode": "OPAQUE", "doubleSided": true}, {"name": "king_r_f01", "pbrMetallicRoughness": {"baseColorFactor": [1.0, 1.0, 1.0, 1.0], "metallicFactor": 0.0, "roughnessFactor": 1.0}, "alphaMode": "OPAQUE", "doubleSided": true}, {"name": "king_r_gyo00", "pbrMetallicRoughness": {"baseColorFactor": [1.0, 1.0, 1.0, 1.0], "metallicFactor": 0.0, "roughnessFactor": 1.0}, "alphaMode": "OPAQUE", "doubleSided": true}, {"name": "king_r_gyo01", "pbrMetallicRoughness": {"baseColorFactor": [1.0, 1.0, 1.0, 1.0], "metallicFactor": 0.0, "roughnessFactor": 1.0}, "alphaMode": "OPAQUE", "doubleSided": true}, {"name": "king_r_huti00", "pbrMetallicRoughness": {"baseColorFactor": [1.0, 1.0, 1.0, 1.0], "metallicFactor": 0.0, "roughnessFactor": 1.0}, "alphaMode": "OPAQUE", "doubleSided": true}, {"name": "king_r_huti01", "pbrMetallicRoughness": {"baseColorFactor": [1.0, 1.0, 1.0, 1.0], "metallicFactor": 0.0, "roughnessFactor": 1.0}, "alphaMode": "OPAQUE", "doubleSided": true}, {"name": "king_r_kb00", "pbrMetallicRoughness": {"baseColorFactor": [1.0, 1.0, 1.0, 1.0], "metallicFactor": 0.0, "roughnessFactor": 1.0}, "alphaMode": "OPAQUE", "doubleSided": true}, {"name": "king_r_kb01", "pbrMetallicRoughness": {"baseColorFactor": [1.0, 1.0, 1.0, 1.0], "metallicFactor": 0.0, "roughnessFactor": 1.0}, "alphaMode": "OPAQUE", "doubleSided": true}, {"name": "king_r_kb02", "pbrMetallicRoughness": {"baseColorFactor": [1.0, 1.0, 1.0, 1.0], "metallicFactor": 0.0, "roughnessFactor": 1.0}, "alphaMode": "OPAQUE", "doubleSided": true}, {"name": "king_r_kb03", "pbrMetallicRoughness": {"baseColorFactor": [1.0, 1.0, 1.0, 1.0], "metallicFactor": 0.0, "roughnessFactor": 1.0}, "alphaMode": "OPAQUE", "doubleSided": true}, {"name": "king_r_kb04", "pbrMetallicRoughness": {"baseColorFactor": [1.0, 1.0, 1.0, 1.0], "metallicFactor": 0.0, "roughnessFactor": 1.0}, "alphaMode": "OPAQUE", "doubleSided": true}, {"name": "king_r_md00", "pbrMetallicRoughness": {"baseColorFactor": [1.0, 1.0, 1.0, 1.0], "metallicFactor": 0.0, "roughnessFactor": 1.0}, "alphaMode": "OPAQUE", "doubleSided": true}, {"name": "king_r_moon", "pbrMetallicRoughness": {"baseColorFactor": [1.0, 1.0, 1.0, 1.0], "metallicFactor": 0.0, "roughnessFactor": 1.0}, "alphaMode": "OPAQUE", "doubleSided": true}, {"name": "king_r_pi00", "pbrMetallicRoughness": {"baseColorFactor": [1.0, 1.0, 1.0, 1.0], "metallicFactor": 0.0, "roughnessFactor": 1.0}, "alphaMode": "OPAQUE", "doubleSided": true}, {"name": "king_r_pi01", "pbrMetallicRoughness": {"baseColorFactor": [1.0, 1.0, 1.0, 1.0], "metallicFactor": 0.0, "roughnessFactor": 1.0}, "alphaMode": "OPAQUE", "doubleSided": true}, {"name": "king_r_pi02", "pbrMetallicRoughness": {"baseColorFactor": [1.0, 1.0, 1.0, 1.0], "metallicFactor": 0.0, "roughnessFactor": 1.0}, "alphaMode": "OPAQUE", "doubleSided": true}, {"name": "king_r_pi03", "pbrMetallicRoughness": {"baseColorFactor": [1.0, 1.0, 1.0, 1.0], "metallicFactor": 0.0, "roughnessFactor": 1.0}, "alphaMode": "OPAQUE", "doubleSided": true}, {"name": "king_r_pi04", "pbrMetallicRoughness": {"baseColorFactor": [1.0, 1.0, 1.0, 1.0], "metallicFactor": 0.0, "roughnessFactor": 1.0}, "alphaMode": "OPAQUE", "doubleSided": true}, {"name": "king_r_pi05", "pbrMetallicRoughness": {"baseColorFactor": [1.0, 1.0, 1.0, 1.0], "metallicFactor": 0.0, "roughnessFactor": 1.0}, "alphaMode": "OPAQUE", "doubleSided": true}, {"name": "king_r_ra00", "pbrMetallicRoughness": {"baseColorFactor": [1.0, 1.0, 1.0, 1.0], "metallicFactor": 0.0, "roughnessFactor": 1.0}, "alphaMode": "OPAQUE", "doubleSided": true}, {"name": "king_r_ra01", "pbrMetallicRoughness": {"baseColorFactor": [1.0, 1.0, 1.0, 1.0], "metallicFactor": 0.0, "roughnessFactor": 1.0}, "alphaMode": "OPAQUE", "doubleSided": true}, {"name": "king_r_taiyo", "pbrMetallicRoughness": {"baseColorFactor": [1.0, 1.0, 1.0, 1.0], "metallicFactor": 0.0, "roughnessFactor": 1.0}, "alphaMode": "OPAQUE", "doubleSided": true}, {"name": "king_r_ten00", "pbrMetallicRoughness": {"baseColorFactor": [1.0, 1.0, 1.0, 1.0], "metallicFactor": 0.0, "roughnessFactor": 1.0}, "alphaMode": "OPAQUE", "doubleSided": true}, {"name": "king_r_ten01", "pbrMetallicRoughness": {"baseColorFactor": [1.0, 1.0, 1.0, 1.0], "metallicFactor": 0.0, "roughnessFactor": 1.0}, "alphaMode": "OPAQUE", "doubleSided": true}, {"name": "king_r_ten02", "pbrMetallicRoughness": {"baseColorFactor": [1.0, 1.0, 1.0, 1.0], "metallicFactor": 0.0, "roughnessFactor": 1.0}, "alphaMode": "OPAQUE", "doubleSided": true}, {"name": "king_r_ten03", "pbrMetallicRoughness": {"baseColorFactor": [1.0, 1.0, 1.0, 1.0], "metallicFactor": 0.0, "roughnessFactor": 1.0}, "alphaMode": "OPAQUE", "doubleSided": true}, {"name": "kingr_r_wing", "pbrMetallicRoughness": {"baseColorFactor": [1.0, 1.0, 1.0, 1.0], "metallicFactor": 0.0, "roughnessFactor": 1.0}, "alphaMode": "OPAQUE", "doubleSided": true}, {"name": "lambert39", "pbrMetallicRoughness": {"baseColorFactor": [0.803921568627451, 0.803921568627451, 0.803921568627451, 1.0], "metallicFactor": 0.0, "roughnessFactor": 1.0}, "alphaMode": "OPAQUE", "doubleSided": true}], "buffers": [{"byteLength": 77468, "uri": "data:application/octet-stream;base64,"}], "bufferViews": [{"buffer": 0, "byteOffset": 0, "byteLength": 528}, {"buffer": 0, "byteOffset": 528, "byteLength": 352}, {"buffer": 0, "byteOffset": 880, "byteLength": 528}, {"buffer": 0, "byteOffset": 1408, "byteLength": 192}, {"buffer": 0, "byteOffset": 1600, "byteLength": 744}, {"buffer": 0, "byteOffset": 2344, "byteLength": 496}, {"buffer": 0, "byteOffset": 2840, "byteLength": 744}, {"buffer": 0, "byteOffset": 3584, "byteLength": 192}, {"buffer": 0, "byteOffset": 3776, "byteLength": 48}, {"buffer": 0, "byteOffset": 3824, "byteLength": 32}, {"buffer": 0, "byteOffset": 3856, "byteLength": 48}, {"buffer": 0, "byteOffset": 3904, "byteLength": 12}, {"buffer": 0, "byteOffset": 3916, "byteLength": 48}, {"buffer": 0, "byteOffset": 3964, "byteLength": 32}, {"buffer": 0, "byteOffset": 3996, "byteLength": 48}, {"buffer": 0, "byteOffset": 4044, "byteLength": 12}, {"buffer": 0, "byteOffset": 4056, "byteLength": 2784}, {"buffer": 0, "byteOffset": 6840, "byteLength": 1856}, {"buffer": 0, "byteOffset": 8696, "byteLength": 2784}, {"buffer": 0, "byteOffset": 11480, "byteLength": 888}, {"buffer": 0, "byteOffset": 12368, "byteLength": 480}, {"buffer": 0, "byteOffset": 12848, "byteLength": 320}, {"buffer": 0, "byteOffset": 13168, "byteLength": 480}, {"buffer": 0, "byteOffset": 13648, "byteLength": 120}, {"buffer": 0, "byteOffset": 13768, "byteLength": 480}, {"buffer": 0, "byteOffset": 14248, "byteLength": 320}, {"buffer": 0, "byteOffset": 14568, "byteLength": 480}, {"buffer": 0, "byteOffset": 15048, "byteLength": 120}, {"buffer": 0, "byteOffset": 15168, "byteLength": 960}, {"buffer": 0, "byteOffset": 16128, "byteLength": 640}, {"buffer": 0, "byteOffset": 16768, "byteLength": 960}, {"buffer": 0, "byteOffset": 17728, "byteLength": 240}, {"buffer": 0, "byteOffset": 17968, "byteLength": 96}, {"buffer": 0, "byteOffset": 18064, "byteLength": 64}, {"buffer": 0, "byteOffset": 18128, "byteLength": 96}, {"buffer": 0, "byteOffset": 18224, "byteLength": 24}, {"buffer": 0, "byteOffset": 18248, "byteLength": 96}, {"buffer": 0, "byteOffset": 18344, "byteLength": 64}, {"buffer": 0, "byteOffset": 18408, "byteLength": 96}, {"buffer": 0, "byteOffset": 18504, "byteLength": 24}, {"buffer": 0, "byteOffset": 18528, "byteLength": 984}, {"buffer": 0, "byteOffset": 19512, "byteLength": 656}, {"buffer": 0, "byteOffset": 20168, "byteLength": 984}, {"buffer": 0, "byteOffset": 21152, "byteLength": 324}, {"buffer": 0, "byteOffset": 21476, "byteLength": 96}, {"buffer": 0, "byteOffset": 21572, "byteLength": 64}, {"buffer": 0, "byteOffset": 21636, "byteLength": 96}, {"buffer": 0, "byteOffset": 21732, "byteLength": 36}, {"buffer": 0, "byteOffset": 21768, "byteLength": 144}, {"buffer": 0, "byteOffset": 21912, "byteLength": 96}, {"buffer": 0, "byteOffset": 22008, "byteLength": 144}, {"buffer": 0, "byteOffset": 22152, "byteLength": 36}, {"buffer": 0, "byteOffset": 22188, "byteLength": 48}, {"buffer": 0, "byteOffset": 22236, "byteLength": 32}, {"buffer": 0, "byteOffset": 22268, "byteLength": 48}, {"buffer": 0, "byteOffset": 22316, "byteLength": 12}, {"buffer": 0, "byteOffset": 22328, "byteLength": 168}, {"buffer": 0, "byteOffset": 22496, "byteLength": 112}, {"buffer": 0, "byteOffset": 22608, "byteLength": 168}, {"buffer": 0, "byteOffset": 22776, "byteLength": 48}, {"buffer": 0, "byteOffset": 22824, "byteLength": 432}, {"buffer": 0, "byteOffset": 23256, "byteLength": 288}, {"buffer": 0, "byteOffset": 23544, "byteLength": 432}, {"buffer": 0, "byteOffset": 23976, "byteLength": 144}, {"buffer": 0, "byteOffset": 24120, "byteLength": 1008}, {"buffer": 0, "byteOffset": 25128, "byteLength": 672}, {"buffer": 0, "byteOffset": 25800, "byteLength": 1008}, {"buffer": 0, "byteOffset": 26808, "byteLength": 336}, {"buffer": 0, "byteOffset": 27144, "byteLength": 1056}, {"buffer": 0, "byteOffset": 28200, "byteLength": 704}, {"buffer": 0, "byteOffset": 28904, "byteLength": 1056}, {"buffer": 0, "byteOffset": 29960, "byteLength": 324}, {"buffer": 0, "byteOffset": 30284, "byteLength": 360}, {"buffer": 0, "byteOffset": 30644, "byteLength": 240}, {"buffer": 0, "byteOffset": 30884, "byteLength": 360}, {"buffer": 0, "byteOffset": 31244, "byteLength": 120}, {"buffer": 0, "byteOffset": 31364, "byteLength": 576}, {"buffer": 0, "byteOffset": 31940, "byteLength": 384}, {"buffer": 0, "byteOffset": 32324, "byteLength": 576}, {"buffer": 0, "byteOffset": 32900, "byteLength": 192}, {"buffer": 0, "byteOffset": 33092, "byteLength": 384}, {"buffer": 0, "byteOffset": 33476, "byteLength": 256}, {"buffer": 0, "byteOffset": 33732, "byteLength": 384}, {"buffer": 0, "byteOffset": 34116, "byteLength": 144}, {"buffer": 0, "byteOffset": 34260, "byteLength": 288}, {"buffer": 0, "byteOffset": 34548, "byteLength": 192}, {"buffer": 0, "byteOffset": 34740, "byteLength": 288}, {"buffer": 0, "byteOffset": 35028, "byteLength": 96}, {"buffer": 0, "byteOffset": 35124, "byteLength": 552}, {"buffer": 0, "byteOffset": 35676, "byteLength": 368}, {"buffer": 0, "byteOffset": 36044, "byteLength": 552}, {"buffer": 0, "byteOffset": 36596, "byteLength": 168}, {"buffer": 0, "byteOffset": 36764, "byteLength": 5568}, {"buffer": 0, "byteOffset": 42332, "byteLength": 3712}, {"buffer": 0, "byteOffset": 46044, "byteLength": 5568}, {"buffer": 0, "byteOffset": 51612, "byteLength": 1836}, {"buffer": 0, "byteOffset": 53448, "byteLength": 2784}, {"buffer": 0, "byteOffset": 56232, "byteLength": 1856}, {"buffer": 0, "byteOffset": 58088, "byteLength": 2784}, {"buffer": 0, "byteOffset": 60872, "byteLength": 1056}, {"buffer": 0, "byteOffset": 61928, "byteLength": 552}, {"buffer": 0, "byteOffset": 62480, "byteLength": 368}, {"buffer": 0, "byteOffset": 62848, "byteLength": 552}, {"buffer": 0, "byteOffset": 63400, "byteLength": 216}, {"buffer": 0, "byteOffset": 63616, "byteLength": 72}, {"buffer": 0, "byteOffset": 63688, "byteLength": 48}, {"buffer": 0, "byteOffset": 63736, "byteLength": 72}, {"buffer": 0, "byteOffset": 63808, "byteLength": 24}, {"buffer": 0, "byteOffset": 63832, "byteLength": 48}, {"buffer": 0, "byteOffset": 63880, "byteLength": 32}, {"buffer": 0, "byteOffset": 63912, "byteLength": 48}, {"buffer": 0, "byteOffset": 63960, "byteLength": 12}, {"buffer": 0, "byteOffset": 63972, "byteLength": 48}, {"buffer": 0, "byteOffset": 64020, "byteLength": 32}, {"buffer": 0, "byteOffset": 64052, "byteLength": 48}, {"buffer": 0, "byteOffset": 64100, "byteLength": 12}, {"buffer": 0, "byteOffset": 64112, "byteLength": 1176}, {"buffer": 0, "byteOffset": 65288, "byteLength": 784}, {"buffer": 0, "byteOffset": 66072, "byteLength": 1176}, {"buffer": 0, "byteOffset": 67248, "byteLength": 348}, {"buffer": 0, "byteOffset": 67596, "byteLength": 432}, {"buffer": 0, "byteOffset": 68028, "byteLength": 288}, {"buffer": 0, "byteOffset": 68316, "byteLength": 432}, {"buffer": 0, "byteOffset": 68748, "byteLength": 144}, {"buffer": 0, "byteOffset": 68892, "byteLength": 1680}, {"buffer": 0, "byteOffset": 70572, "byteLength": 1120}, {"buffer": 0, "byteOffset": 71692, "byteLength": 1680}, {"buffer": 0, "byteOffset": 73372, "byteLength": 432}, {"buffer": 0, "byteOffset": 73804, "byteLength": 288}, {"buffer": 0, "byteOffset": 74092, "byteLength": 192}, {"buffer": 0, "byteOffset": 74284, "byteLength": 288}, {"buffer": 0, "byteOffset": 74572, "byteLength": 72}, {"buffer": 0, "byteOffset": 74644, "byteLength": 240}, {"buffer": 0, "byteOffset": 74884, "byteLength": 160}, {"buffer": 0, "byteOffset": 75044, "byteLength": 240}, {"buffer": 0, "byteOffset": 75284, "byteLength": 72}, {"buffer": 0, "byteOffset": 75356, "byteLength": 240}, {"buffer": 0, "byteOffset": 75596, "byteLength": 160}, {"buffer": 0, "byteOffset": 75756, "byteLength": 240}, {"buffer": 0, "byteOffset": 75996, "byteLength": 72}, {"buffer": 0, "byteOffset": 76068, "byteLength": 480}, {"buffer": 0, "byteOffset": 76548, "byteLength": 320}, {"buffer": 0, "byteOffset": 76868, "byteLength": 480}, {"buffer": 0, "byteOffset": 77348, "byteLength": 120}], "accessors": [{"bufferView": 0, "byteOffset": 0, "componentType": 5126, "count": 44, "type": "VEC3", "min": [-0.001953125, -0.25, 4.800048828125], "max": [3.001953125, 2.4970703125, 5.675048828125]}, {"bufferView": 1, "byteOffset": 0, "componentType": 5126, "count": 44, "type": "VEC2"}, {"bufferView": 2, "byteOffset": 0, "componentType": 5126, "count": 44, "type": "VEC3"}, {"bufferView": 3, "byteOffset": 0, "componentType": 5123, "count": 96, "type": "SCALAR"}, {"bufferView": 4, "byteOffset": 0, "componentType": 5126, "count": 62, "type": "VEC3", "min": [0.25, 0.0, 0.25], "max": [2.75, 0.56005859375, 4.625]}, {"bufferView": 5, "byteOffset": 0, "componentType": 5126, "count": 62, "type": "VEC2"}, {"bufferView": 6, "byteOffset": 0, "componentType": 5126, "count": 62, "type": "VEC3"}, {"bufferView": 7, "byteOffset": 0, "componentType": 5123, "count": 96, "type": "SCALAR"}, {"bufferView": 8, "byteOffset": 0, "componentType": 5126, "count": 4, "type": "VEC3", "min": [1.5, 2.109375, -0.113037109375], "max": [2.5, 2.109375, 4.0]}, {"bufferView": 9, "byteOffset": 0, "componentType": 5126, "count": 4, "type": "VEC2"}, {"bufferView": 10, "byteOffset": 0, "componentType": 5126, "count": 4, "type": "VEC3"}, {"bufferView": 11, "byteOffset": 0, "componentType": 5123, "count": 6, "type": "SCALAR"}, {"bufferView": 12, "byteOffset": 0, "componentType": 5126, "count": 4, "type": "VEC3", "min": [0.5, 2.109375, -0.113037109375], "max": [1.5, 2.109375, 4.0]}, {"bufferView": 13, "byteOffset": 0, "componentType": 5126, "count": 4, "type": "VEC2"}, {"bufferView": 14, "byteOffset": 0, "componentType": 5126, "count": 4, "type": "VEC3"}, {"bufferView": 15, "byteOffset": 0, "componentType": 5123, "count": 6, "type": "SCALAR"}, {"bufferView": 16, "byteOffset": 0, "componentType": 5126, "count": 232, "type": "VEC3", "min": [0.14990234375, 0.425048828125, 0.25], "max": [2.85009765625, 1.64990234375, 4.625]}, {"bufferView": 17, "byteOffset": 0, "componentType": 5126, "count": 232, "type": "VEC2"}, {"bufferView": 18, "byteOffset": 0, "componentType": 5126, "count": 232, "type": "VEC3"}, {"bufferView": 19, "byteOffset": 0, "componentType": 5123, "count": 444, "type": "SCALAR"}, {"bufferView": 20, "byteOffset": 0, "componentType": 5126, "count": 40, "type": "VEC3", "min": [0.14990234375, 0.56005859375, 0.365966796875], "max": [2.85009765625, 1.60009765625, 4.5]}, {"bufferView": 21, "byteOffset": 0, "componentType": 5126, "count": 40, "type": "VEC2"}, {"bufferView": 22, "byteOffset": 0, "componentType": 5126, "count": 40, "type": "VEC3"}, {"bufferView": 23, "byteOffset": 0, "componentType": 5123, "count": 60, "type": "SCALAR"}, {"bufferView": 24, "byteOffset": 0, "componentType": 5126, "count": 40, "type": "VEC3", "min": [0.224365234375, 1.0, 0.365966796875], "max": [2.775634765625, 1.60009765625, 4.5]}, {"bufferView": 25, "byteOffset": 0, "componentType": 5126, "count": 40, "type": "VEC2"}, {"bufferView": 26, "byteOffset": 0, "componentType": 5126, "count": 40, "type": "VEC3"}, {"bufferView": 27, "byteOffset": 0, "componentType": 5123, "count": 60, "type": "SCALAR"}, {"bufferView": 28, "byteOffset": 0, "componentType": 5126, "count": 80, "type": "VEC3", "min": [0.175048828125, 0.56005859375, 0.365966796875], "max": [2.824951171875, 1.256103515625, 4.5]}, {"bufferView": 29, "byteOffset": 0, "componentType": 5126, "count": 80, "type": "VEC2"}, {"bufferView": 30, "byteOffset": 0, "componentType": 5126, "count": 80, "type": "VEC3"}, {"bufferView": 31, "byteOffset": 0, "componentType": 5123, "count": 120, "type": "SCALAR"}, {"bufferView": 32, "byteOffset": 0, "componentType": 5126, "count": 8, "type": "VEC3", "min": [1.5, 2.0, 0.5], "max": [2.5, 2.0, 4.0]}, {"bufferView": 33, "byteOffset": 0, "componentType": 5126, "count": 8, "type": "VEC2"}, {"bufferView": 34, "byteOffset": 0, "componentType": 5126, "count": 8, "type": "VEC3"}, {"bufferView": 35, "byteOffset": 0, "componentType": 5123, "count": 12, "type": "SCALAR"}, {"bufferView": 36, "byteOffset": 0, "componentType": 5126, "count": 8, "type": "VEC3", "min": [0.5, 2.0, 0.5], "max": [1.5, 2.0, 4.0]}, {"bufferView": 37, "byteOffset": 0, "componentType": 5126, "count": 8, "type": "VEC2"}, {"bufferView": 38, "byteOffset": 0, "componentType": 5126, "count": 8, "type": "VEC3"}, {"bufferView": 39, "byteOffset": 0, "componentType": 5123, "count": 12, "type": "SCALAR"}, {"bufferView": 40, "byteOffset": 0, "componentType": 5126, "count": 82, "type": "VEC3", "min": [0.25, -0.125, 0.25], "max": [2.75, 2.25, 5.14990234375]}, {"bufferView": 41, "byteOffset": 0, "componentType": 5126, "count": 82, "type": "VEC2"}, {"bufferView": 42, "byteOffset": 0, "componentType": 5126, "count": 82, "type": "VEC3"}, {"bufferView": 43, "byteOffset": 0, "componentType": 5123, "count": 162, "type": "SCALAR"}, {"bufferView": 44, "byteOffset": 0, "componentType": 5126, "count": 8, "type": "VEC3", "min": [0.25, 0.39990234375, 0.25], "max": [2.75, 1.125, 0.25]}, {"bufferView": 45, "byteOffset": 0, "componentType": 5126, "count": 8, "type": "VEC2"}, {"bufferView": 46, "byteOffset": 0, "componentType": 5126, "count": 8, "type": "VEC3"}, {"bufferView": 47, "byteOffset": 0, "componentType": 5123, "count": 18, "type": "SCALAR"}, {"bufferView": 48, "byteOffset": 0, "componentType": 5126, "count": 12, "type": "VEC3", "min": [0.25, 1.125, 0.25], "max": [2.75, 1.64990234375, 0.25]}, {"bufferView": 49, "byteOffset": 0, "componentType": 5126, "count": 12, "type": "VEC2"}, {"bufferView": 50, "byteOffset": 0, "componentType": 5126, "count": 12, "type": "VEC3"}, {"bufferView": 51, "byteOffset": 0, "componentType": 5123, "count": 18, "type": "SCALAR"}, {"bufferView": 52, "byteOffset": 0, "componentType": 5126, "count": 4, "type": "VEC3", "min": [1.0, 1.21240234375, 0.25], "max": [2.0, 1.64990234375, 0.25]}, {"bufferView": 53, "byteOffset": 0, "componentType": 5126, "count": 4, "type": "VEC2"}, {"bufferView": 54, "byteOffset": 0, "componentType": 5126, "count": 4, "type": "VEC3"}, {"bufferView": 55, "byteOffset": 0, "componentType": 5123, "count": 6, "type": "SCALAR"}, {"bufferView": 56, "byteOffset": 0, "componentType": 5126, "count": 14, "type": "VEC3", "min": [0.25, 0.0, 0.25], "max": [2.75, 0.0, 1.444091796875]}, {"bufferView": 57, "byteOffset": 0, "componentType": 5126, "count": 14, "type": "VEC2"}, {"bufferView": 58, "byteOffset": 0, "componentType": 5126, "count": 14, "type": "VEC3"}, {"bufferView": 59, "byteOffset": 0, "componentType": 5123, "count": 24, "type": "SCALAR"}, {"bufferView": 60, "byteOffset": 0, "componentType": 5126, "count": 36, "type": "VEC3", "min": [1.25, 0.0, 0.27490234375], "max": [1.75, 0.875, 3.166748046875]}, {"bufferView": 61, "byteOffset": 0, "componentType": 5126, "count": 36, "type": "VEC2"}, {"bufferView": 62, "byteOffset": 0, "componentType": 5126, "count": 36, "type": "VEC3"}, {"bufferView": 63, "byteOffset": 0, "componentType": 5123, "count": 72, "type": "SCALAR"}, {"bufferView": 64, "byteOffset": 0, "componentType": 5126, "count": 84, "type": "VEC3", "min": [0.22509765625, 0.425048828125, 0.31005859375], "max": [2.77490234375, 1.574951171875, 4.77490234375]}, {"bufferView": 65, "byteOffset": 0, "componentType": 5126, "count": 84, "type": "VEC2"}, {"bufferView": 66, "byteOffset": 0, "componentType": 5126, "count": 84, "type": "VEC3"}, {"bufferView": 67, "byteOffset": 0, "componentType": 5123, "count": 168, "type": "SCALAR"}, {"bufferView": 68, "byteOffset": 0, "componentType": 5126, "count": 88, "type": "VEC3", "min": [0.125, 0.425048828125, 1.0], "max": [2.875, 2.25, 4.875]}, {"bufferView": 69, "byteOffset": 0, "componentType": 5126, "count": 88, "type": "VEC2"}, {"bufferView": 70, "byteOffset": 0, "componentType": 5126, "count": 88, "type": "VEC3"}, {"bufferView": 71, "byteOffset": 0, "componentType": 5123, "count": 162, "type": "SCALAR"}, {"bufferView": 72, "byteOffset": 0, "componentType": 5126, "count": 30, "type": "VEC3", "min": [1.0, 0.0, 0.25], "max": [2.0, 0.89990234375, 0.75]}, {"bufferView": 73, "byteOffset": 0, "componentType": 5126, "count": 30, "type": "VEC2"}, {"bufferView": 74, "byteOffset": 0, "componentType": 5126, "count": 30, "type": "VEC3"}, {"bufferView": 75, "byteOffset": 0, "componentType": 5123, "count": 60, "type": "SCALAR"}, {"bufferView": 76, "byteOffset": 0, "componentType": 5126, "count": 48, "type": "VEC3", "min": [0.28759765625, 0.425048828125, 0.274169921875], "max": [2.71240234375, 1.27490234375, 0.35009765625]}, {"bufferView": 77, "byteOffset": 0, "componentType": 5126, "count": 48, "type": "VEC2"}, {"bufferView": 78, "byteOffset": 0, "componentType": 5126, "count": 48, "type": "VEC3"}, {"bufferView": 79, "byteOffset": 0, "componentType": 5123, "count": 96, "type": "SCALAR"}, {"bufferView": 80, "byteOffset": 0, "componentType": 5126, "count": 32, "type": "VEC3", "min": [0.27001953125, 1.239990234375, 0.263427734375], "max": [2.72998046875, 1.449951171875, 0.354248046875]}, {"bufferView": 81, "byteOffset": 0, "componentType": 5126, "count": 32, "type": "VEC2"}, {"bufferView": 82, "byteOffset": 0, "componentType": 5126, "count": 32, "type": "VEC3"}, {"bufferView": 83, "byteOffset": 0, "componentType": 5123, "count": 72, "type": "SCALAR"}, {"bufferView": 84, "byteOffset": 0, "componentType": 5126, "count": 24, "type": "VEC3", "min": [0.27490234375, 0.488037109375, 0.35009765625], "max": [2.72509765625, 0.627685546875, 0.35009765625]}, {"bufferView": 85, "byteOffset": 0, "componentType": 5126, "count": 24, "type": "VEC2"}, {"bufferView": 86, "byteOffset": 0, "componentType": 5126, "count": 24, "type": "VEC3"}, {"bufferView": 87, "byteOffset": 0, "componentType": 5123, "count": 48, "type": "SCALAR"}, {"bufferView": 88, "byteOffset": 0, "componentType": 5126, "count": 46, "type": "VEC3", "min": [0.97509765625, 0.77490234375, 0.25], "max": [2.02490234375, 1.39990234375, 0.72509765625]}, {"bufferView": 89, "byteOffset": 0, "componentType": 5126, "count": 46, "type": "VEC2"}, {"bufferView": 90, "byteOffset": 0, "componentType": 5126, "count": 46, "type": "VEC3"}, {"bufferView": 91, "byteOffset": 0, "componentType": 5123, "count": 84, "type": "SCALAR"}, {"bufferView": 92, "byteOffset": 0, "componentType": 5126, "count": 464, "type": "VEC3", "min": [0.125, -0.125, 0.25], "max": [2.875, 0.5, 4.77490234375]}, {"bufferView": 93, "byteOffset": 0, "componentType": 5126, "count": 464, "type": "VEC2"}, {"bufferView": 94, "byteOffset": 0, "componentType": 5126, "count": 464, "type": "VEC3"}, {"bufferView": 95, "byteOffset": 0, "componentType": 5123, "count": 918, "type": "SCALAR"}, {"bufferView": 96, "byteOffset": 0, "componentType": 5126, "count": 232, "type": "VEC3", "min": [0.125, 1.375, 0.22998046875], "max": [2.875, 1.64990234375, 4.875]}, {"bufferView": 97, "byteOffset": 0, "componentType": 5126, "count": 232, "type": "VEC2"}, {"bufferView": 98, "byteOffset": 0, "componentType": 5126, "count": 232, "type": "VEC3"}, {"bufferView": 99, "byteOffset": 0, "componentType": 5123, "count": 528, "type": "SCALAR"}, {"bufferView": 100, "byteOffset": 0, "componentType": 5126, "count": 46, "type": "VEC3", "min": [0.953857421875, 0.75, 0.25], "max": [2.046142578125, 1.300048828125, 0.77490234375]}, {"bufferView": 101, "byteOffset": 0, "componentType": 5126, "count": 46, "type": "VEC2"}, {"bufferView": 102, "byteOffset": 0, "componentType": 5126, "count": 46, "type": "VEC3"}, {"bufferView": 103, "byteOffset": 0, "componentType": 5123, "count": 108, "type": "SCALAR"}, {"bufferView": 104, "byteOffset": 0, "componentType": 5126, "count": 6, "type": "VEC3", "min": [1.10009765625, 0.125, 0.27490234375], "max": [1.89990234375, 0.875, 0.27490234375]}, {"bufferView": 105, "byteOffset": 0, "componentType": 5126, "count": 6, "type": "VEC2"}, {"bufferView": 106, "byteOffset": 0, "componentType": 5126, "count": 6, "type": "VEC3"}, {"bufferView": 107, "byteOffset": 0, "componentType": 5123, "count": 12, "type": "SCALAR"}, {"bufferView": 108, "byteOffset": 0, "componentType": 5126, "count": 4, "type": "VEC3", "min": [0.614501953125, 1.9970703125, 1.8408203125], "max": [1.3818359375, 2.092529296875, 2.602294921875]}, {"bufferView": 109, "byteOffset": 0, "componentType": 5126, "count": 4, "type": "VEC2"}, {"bufferView": 110, "byteOffset": 0, "componentType": 5126, "count": 4, "type": "VEC3"}, {"bufferView": 111, "byteOffset": 0, "componentType": 5123, "count": 6, "type": "SCALAR"}, {"bufferView": 112, "byteOffset": 0, "componentType": 5126, "count": 4, "type": "VEC3", "min": [1.62451171875, 2.00439453125, 1.889892578125], "max": [2.307373046875, 2.087646484375, 2.552978515625]}, {"bufferView": 113, "byteOffset": 0, "componentType": 5126, "count": 4, "type": "VEC2"}, {"bufferView": 114, "byteOffset": 0, "componentType": 5126, "count": 4, "type": "VEC3"}, {"bufferView": 115, "byteOffset": 0, "componentType": 5123, "count": 6, "type": "SCALAR"}, {"bufferView": 116, "byteOffset": 0, "componentType": 5126, "count": 98, "type": "VEC3", "min": [1.361572265625, 0.125, 0.550048828125], "max": [1.638427734375, 0.5537109375, 0.72509765625]}, {"bufferView": 117, "byteOffset": 0, "componentType": 5126, "count": 98, "type": "VEC2"}, {"bufferView": 118, "byteOffset": 0, "componentType": 5126, "count": 98, "type": "VEC3"}, {"bufferView": 119, "byteOffset": 0, "componentType": 5123, "count": 174, "type": "SCALAR"}, {"bufferView": 120, "byteOffset": 0, "componentType": 5126, "count": 36, "type": "VEC3", "min": [0.837646484375, 1.04736328125, 0.6357421875], "max": [2.16455078125, 1.26318359375, 0.80859375]}, {"bufferView": 121, "byteOffset": 0, "componentType": 5126, "count": 36, "type": "VEC2"}, {"bufferView": 122, "byteOffset": 0, "componentType": 5126, "count": 36, "type": "VEC3"}, {"bufferView": 123, "byteOffset": 0, "componentType": 5123, "count": 72, "type": "SCALAR"}, {"bufferView": 124, "byteOffset": 0, "componentType": 5126, "count": 140, "type": "VEC3", "min": [0.84912109375, 0.125, 0.8125], "max": [2.14990234375, 0.770751953125, 0.9375]}, {"bufferView": 125, "byteOffset": 0, "componentType": 5126, "count": 140, "type": "VEC2"}, {"bufferView": 126, "byteOffset": 0, "componentType": 5126, "count": 140, "type": "VEC3"}, {"bufferView": 127, "byteOffset": 0, "componentType": 5123, "count": 216, "type": "SCALAR"}, {"bufferView": 128, "byteOffset": 0, "componentType": 5126, "count": 24, "type": "VEC3", "min": [0.2529296875, 1.65234375, 0.328857421875], "max": [2.7470703125, 1.95703125, 0.772216796875]}, {"bufferView": 129, "byteOffset": 0, "componentType": 5126, "count": 24, "type": "VEC2"}, {"bufferView": 130, "byteOffset": 0, "componentType": 5126, "count": 24, "type": "VEC3"}, {"bufferView": 131, "byteOffset": 0, "componentType": 5123, "count": 36, "type": "SCALAR"}, {"bufferView": 132, "byteOffset": 0, "componentType": 5126, "count": 20, "type": "VEC3", "min": [1.10009765625, 0.0, 0.27490234375], "max": [1.89990234375, 0.125, 0.875]}, {"bufferView": 133, "byteOffset": 0, "componentType": 5126, "count": 20, "type": "VEC2"}, {"bufferView": 134, "byteOffset": 0, "componentType": 5126, "count": 20, "type": "VEC3"}, {"bufferView": 135, "byteOffset": 0, "componentType": 5123, "count": 36, "type": "SCALAR"}, {"bufferView": 136, "byteOffset": 0, "componentType": 5126, "count": 20, "type": "VEC3", "min": [0.75, 0.0, 3.166748046875], "max": [2.25, 0.0, 5.14990234375]}, {"bufferView": 137, "byteOffset": 0, "componentType": 5126, "count": 20, "type": "VEC2"}, {"bufferView": 138, "byteOffset": 0, "componentType": 5126, "count": 20, "type": "VEC3"}, {"bufferView": 139, "byteOffset": 0, "componentType": 5123, "count": 36, "type": "SCALAR"}, {"bufferView": 140, "byteOffset": 0, "componentType": 5126, "count": 40, "type": "VEC3", "min": [0.25, 0.0, 0.25], "max": [2.75, 0.0, 4.5]}, {"bufferView": 141, "byteOffset": 0, "componentType": 5126, "count": 40, "type": "VEC2"}, {"bufferView": 142, "byteOffset": 0, "componentType": 5126, "count": 40, "type": "VEC3"}, {"bufferView": 143, "byteOffset": 0, "componentType": 5123, "count": 60, "type": "SCALAR"}], "samplers": [{"magFilter": 9729, "minFilter": 9729, "wrapS": 10497, "wrapT": 10497}]}