{"asset": {"version": "2.0", "generator": "tongari-nsbmd-to-gltf"}, "scene": 0, "scenes": [{"nodes": [0, 14]}], "nodes": [{"name": "ef_056", "translation": [0.0, 0.0, 0.0], "children": [1, 2, 3, 4, 5, 6, 7, 8, 9, 10, 11, 12, 13]}, {"name": "pPlane1", "translation": [-0.8076171875, 2.322021484375, -0.04443359375], "rotation": [-0.6423068878874773, 0.02591554792842087, 0.03085943707168885, 0.7654256755843444]}, {"name": "pPlane11", "translation": [-1.012451171875, 2.14599609375, -0.04443359375], "rotation": [-0.641409033308397, -0.043042762568877735, -0.05134785961370758, 0.7643084982314079]}, {"name": "pPlane12", "translation": [0.853759765625, 1.249267578125, 0.12548828125], "rotation": [-0.6181822033119624, -0.27862425220817383, 0.3931206380362241, 0.621032327937725]}, {"name": "pPlane2", "translation": [-1.0, 0.800048828125, -0.04443359375], "rotation": [-0.5658884935413365, -0.3049389530935321, -0.3634104768983471, 0.6743233008450027]}, {"name": "pPlane3", "translation": [1.10009765625, 1.89990234375, -0.04443359375], "rotation": [-0.6318141214591662, 0.11851581287827828, 0.14121377977699096, 0.7529239876972974]}, {"name": "pPlane4", "translation": [-1.095947265625, 1.01123046875, -0.04443359375], "rotation": [-0.6426436090777079, -0.015940558330093214, -0.018969264412810924, 0.7657844221776778]}, {"name": "pPlane5", "translation": [1.148193359375, 1.191162109375, -0.04443359375], "rotation": [-0.6426564277116383, 0.013946537059714374, 0.016576455476689084, 0.7658641208220294]}, {"name": "pPlane6", "translation": [1.012939453125, 2.08544921875, -0.04443359375], "rotation": [-0.615460818051909, -0.18548704210893796, -0.22102000172334643, 0.7334602015020992]}, {"name": "pPlane7", "translation": [-0.500244140625, 2.422119140625, 0.05126953125], "rotation": [0.07698186523573224, -0.6491013478696595, 0.6517236011866917, 0.38472202237030173]}, {"name": "pPlane8", "translation": [-0.487060546875, 2.254150390625, 0.13232421875], "rotation": [-0.3924529086371729, -0.5795209193854371, 0.6731002635891253, 0.2391169870786102]}, {"name": "pPlane9", "translation": [-0.735107421875, 0.981689453125, 0.1357421875], "rotation": [-0.5878890625086878, 0.3402819293734099, -0.26005864126708067, 0.6862559767499297]}, {"name": "polySurface2", "translation": [0.0, 0.0, 0.0]}, {"name": "polySurface3", "translation": [-0.35009765625, 1.0, -0.116455078125]}, {"mesh": 0, "name": "ef_056"}], "meshes": [{"name": "ef_056", "primitives": [{"attributes": {"POSITION": 0, "TEXCOORD_0": 1}, "indices": 2, "mode": 4, "material": 0}, {"attributes": {"POSITION": 3, "TEXCOORD_0": 4}, "indices": 5, "mode": 4, "material": 0}, {"attributes": {"POSITION": 6, "TEXCOORD_0": 7}, "indices": 8, "mode": 4, "material": 0}, {"attributes": {"POSITION": 9, "TEXCOORD_0": 10}, "indices": 11, "mode": 4, "material": 0}, {"attributes": {"POSITION": 12, "TEXCOORD_0": 13}, "indices": 14, "mode": 4, "material": 0}, {"attributes": {"POSITION": 15, "TEXCOORD_0": 16}, "indices": 17, "mode": 4, "material": 0}, {"attributes": {"POSITION": 18, "TEXCOORD_0": 19}, "indices": 20, "mode": 4, "material": 0}, {"attributes": {"POSITION": 21, "TEXCOORD_0": 22}, "indices": 23, "mode": 4, "material": 0}, {"attributes": {"POSITION": 24, "TEXCOORD_0": 25}, "indices": 26, "mode": 4, "material": 0}, {"attributes": {"POSITION": 27, "TEXCOORD_0": 28}, "indices": 29, "mode": 4, "material": 0}, {"attributes": {"POSITION": 30, "TEXCOORD_0": 31}, "indices": 32, "mode": 4, "material": 0}, {"attributes": {"POSITION": 33, "TEXCOORD_0": 34}, "indices": 35, "mode": 4, "material": 0}, {"attributes": {"POSITION": 36, "TEXCOORD_0": 37}, "indices": 38, "mode": 4, "material": 0}]}], "materials": [{"name": "lambert3", "pbrMetallicRoughness": {"baseColorFactor": [1.0, 1.0, 1.0, 1.0], "metallicFactor": 0.0, "roughnessFactor": 1.0}, "alphaMode": "OPAQUE", "doubleSided": true}], "buffers": [{"byteLength": 2838, "uri": "data:application/octet-stream;base64,"}], "bufferViews": [{"buffer": 0, "byteOffset": 0, "byteLength": 48}, {"buffer": 0, "byteOffset": 48, "byteLength": 32}, {"buffer": 0, "byteOffset": 80, "byteLength": 12}, {"buffer": 0, "byteOffset": 92, "byteLength": 48}, {"buffer": 0, "byteOffset": 140, "byteLength": 32}, {"buffer": 0, "byteOffset": 172, "byteLength": 12}, {"buffer": 0, "byteOffset": 184, "byteLength": 48}, {"buffer": 0, "byteOffset": 232, "byteLength": 32}, {"buffer": 0, "byteOffset": 264, "byteLength": 12}, {"buffer": 0, "byteOffset": 276, "byteLength": 48}, {"buffer": 0, "byteOffset": 324, "byteLength": 32}, {"buffer": 0, "byteOffset": 356, "byteLength": 12}, {"buffer": 0, "byteOffset": 368, "byteLength": 48}, {"buffer": 0, "byteOffset": 416, "byteLength": 32}, {"buffer": 0, "byteOffset": 448, "byteLength": 12}, {"buffer": 0, "byteOffset": 460, "byteLength": 48}, {"buffer": 0, "byteOffset": 508, "byteLength": 32}, {"buffer": 0, "byteOffset": 540, "byteLength": 12}, {"buffer": 0, "byteOffset": 552, "byteLength": 48}, {"buffer": 0, "byteOffset": 600, "byteLength": 32}, {"buffer": 0, "byteOffset": 632, "byteLength": 12}, {"buffer": 0, "byteOffset": 644, "byteLength": 48}, {"buffer": 0, "byteOffset": 692, "byteLength": 32}, {"buffer": 0, "byteOffset": 724, "byteLength": 12}, {"buffer": 0, "byteOffset": 736, "byteLength": 48}, {"buffer": 0, "byteOffset": 784, "byteLength": 32}, {"buffer": 0, "byteOffset": 816, "byteLength": 12}, {"buffer": 0, "byteOffset": 828, "byteLength": 48}, {"buffer": 0, "byteOffset": 876, "byteLength": 32}, {"buffer": 0, "byteOffset": 908, "byteLength": 12}, {"buffer": 0, "byteOffset": 920, "byteLength": 48}, {"buffer": 0, "byteOffset": 968, "byteLength": 32}, {"buffer": 0, "byteOffset": 1000, "byteLength": 12}, {"buffer": 0, "byteOffset": 1012, "byteLength": 864}, {"buffer": 0, "byteOffset": 1876, "byteLength": 576}, {"buffer": 0, "byteOffset": 2452, "byteLength": 228}, {"buffer": 0, "byteOffset": 2680, "byteLength": 84}, {"buffer": 0, "byteOffset": 2764, "byteLength": 56}, {"buffer": 0, "byteOffset": 2820, "byteLength": 18}], "accessors": [{"bufferView": 0, "byteOffset": 0, "componentType": 5126, "count": 4, "type": "VEC3", "min": [-0.1500244140625, 0.0, -0.1500244140625], "max": [0.1500244140625, 0.0, 0.1500244140625]}, {"bufferView": 1, "byteOffset": 0, "componentType": 5126, "count": 4, "type": "VEC2"}, {"bufferView": 2, "byteOffset": 0, "componentType": 5123, "count": 6, "type": "SCALAR"}, {"bufferView": 3, "byteOffset": 0, "componentType": 5126, "count": 4, "type": "VEC3", "min": [-0.1500244140625, 0.0, -0.1500244140625], "max": [0.1500244140625, 0.0, 0.1500244140625]}, {"bufferView": 4, "byteOffset": 0, "componentType": 5126, "count": 4, "type": "VEC2"}, {"bufferView": 5, "byteOffset": 0, "componentType": 5123, "count": 6, "type": "SCALAR"}, {"bufferView": 6, "byteOffset": 0, "componentType": 5126, "count": 4, "type": "VEC3", "min": [-0.1500244140625, 0.0, -0.1500244140625], "max": [0.1500244140625, 0.0, 0.1500244140625]}, {"bufferView": 7, "byteOffset": 0, "componentType": 5126, "count": 4, "type": "VEC2"}, {"bufferView": 8, "byteOffset": 0, "componentType": 5123, "count": 6, "type": "SCALAR"}, {"bufferView": 9, "byteOffset": 0, "componentType": 5126, "count": 4, "type": "VEC3", "min": [-0.1500244140625, 0.0, -0.1500244140625], "max": [0.1500244140625, 0.0, 0.1500244140625]}, {"bufferView": 10, "byteOffset": 0, "componentType": 5126, "count": 4, "type": "VEC2"}, {"bufferView": 11, "byteOffset": 0, "componentType": 5123, "count": 6, "type": "SCALAR"}, {"bufferView": 12, "byteOffset": 0, "componentType": 5126, "count": 4, "type": "VEC3", "min": [-0.1500244140625, 0.0, -0.1500244140625], "max": [0.1500244140625, 0.0, 0.1500244140625]}, {"bufferView": 13, "byteOffset": 0, "componentType": 5126, "count": 4, "type": "VEC2"}, {"bufferView": 14, "byteOffset": 0, "componentType": 5123, "count": 6, "type": "SCALAR"}, {"bufferView": 15, "byteOffset": 0, "componentType": 5126, "count": 4, "type": "VEC3", "min": [-0.1500244140625, 0.0, -0.1500244140625], "max": [0.1500244140625, 0.0, 0.1500244140625]}, {"bufferView": 16, "byteOffset": 0, "componentType": 5126, "count": 4, "type": "VEC2"}, {"bufferView": 17, "byteOffset": 0, "componentType": 5123, "count": 6, "type": "SCALAR"}, {"bufferView": 18, "byteOffset": 0, "componentType": 5126, "count": 4, "type": "VEC3", "min": [-0.1500244140625, 0.0, -0.1500244140625], "max": [0.1500244140625, 0.0, 0.1500244140625]}, {"bufferView": 19, "byteOffset": 0, "componentType": 5126, "count": 4, "type": "VEC2"}, {"bufferView": 20, "byteOffset": 0, "componentType": 5123, "count": 6, "type": "SCALAR"}, {"bufferView": 21, "byteOffset": 0, "componentType": 5126, "count": 4, "type": "VEC3", "min": [-0.1500244140625, 0.0, -0.1500244140625], "max": [0.1500244140625, 0.0, 0.1500244140625]}, {"bufferView": 22, "byteOffset": 0, "componentType": 5126, "count": 4, "type": "VEC2"}, {"bufferView": 23, "byteOffset": 0, "componentType": 5123, "count": 6, "type": "SCALAR"}, {"bufferView": 24, "byteOffset": 0, "componentType": 5126, "count": 4, "type": "VEC3", "min": [-0.1500244140625, 0.0, -0.1500244140625], "max": [0.1500244140625, 0.0, 0.1500244140625]}, {"bufferView": 25, "byteOffset": 0, "componentType": 5126, "count": 4, "type": "VEC2"}, {"bufferView": 26, "byteOffset": 0, "componentType": 5123, "count": 6, "type": "SCALAR"}, {"bufferView": 27, "byteOffset": 0, "componentType": 5126, "count": 4, "type": "VEC3", "min": [-0.1500244140625, 0.0, -0.1500244140625], "max": [0.1500244140625, 0.0, 0.1500244140625]}, {"bufferView": 28, "byteOffset": 0, "componentType": 5126, "count": 4, "type": "VEC2"}, {"bufferView": 29, "byteOffset": 0, "componentType": 5123, "count": 6, "type": "SCALAR"}, {"bufferView": 30, "byteOffset": 0, "componentType": 5126, "count": 4, "type": "VEC3", "min": [-0.1500244140625, 0.0, -0.1500244140625], "max": [0.1500244140625, 0.0, 0.1500244140625]}, {"bufferView": 31, "byteOffset": 0, "componentType": 5126, "count": 4, "type": "VEC2"}, {"bufferView": 32, "byteOffset": 0, "componentType": 5123, "count": 6, "type": "SCALAR"}, {"bufferView": 33, "byteOffset": 0, "componentType": 5126, "count": 72, "type": "VEC3", "min": [-0.29213738441467285, 0.0, -0.05999511480331421], "max": [0.29213738441467285, 0.7144473195075989, 0.05999511480331421]}, {"bufferView": 34, "byteOffset": 0, "componentType": 5126, "count": 72, "type": "VEC2"}, {"bufferView": 35, "byteOffset": 0, "componentType": 5123, "count": 114, "type": "SCALAR"}, {"bufferView": 36, "byteOffset": 0, "componentType": 5126, "count": 7, "type": "VEC3", "min": [-0.1650415062904358, -0.300048828125, 0.0], "max": [0.37506103515625, 0.3600439429283142, 0.0]}, {"bufferView": 37, "byteOffset": 0, "componentType": 5126, "count": 7, "type": "VEC2"}, {"bufferView": 38, "byteOffset": 0, "componentType": 5123, "count": 9, "type": "SCALAR"}], "samplers": [{"magFilter": 9729, "minFilter": 9729, "wrapS": 10497, "wrapT": 10497}]}