{"asset": {"version": "2.0", "generator": "tongari-nsbmd-to-gltf"}, "scene": 0, "scenes": [{"nodes": [0, 1]}], "nodes": [{"name": "imig13_04", "translation": [0.0, 0.0, 0.0]}, {"mesh": 0, "name": "3353IMIG13_04"}], "meshes": [{"name": "3353IMIG13_04", "primitives": [{"attributes": {"POSITION": 0, "TEXCOORD_0": 1, "NORMAL": 2}, "indices": 3, "mode": 4, "material": 1}, {"attributes": {"POSITION": 4, "TEXCOORD_0": 5, "NORMAL": 6}, "indices": 7, "mode": 4, "material": 0}]}], "materials": [{"name": "imig13_04_0", "pbrMetallicRoughness": {"baseColorFactor": [1.0, 1.0, 1.0, 1.0], "metallicFactor": 0.0, "roughnessFactor": 1.0}, "alphaMode": "OPAQUE", "doubleSided": true}, {"name": "imig13_04_1", "pbrMetallicRoughness": {"baseColorFactor": [1.0, 1.0, 1.0, 1.0], "metallicFactor": 0.0, "roughnessFactor": 1.0}, "alphaMode": "OPAQUE", "doubleSided": true}], "buffers": [{"byteLength": 4710, "uri": "data:application/octet-stream;base64,"}], "bufferViews": [{"buffer": 0, "byteOffset": 0, "byteLength": 1260}, {"buffer": 0, "byteOffset": 1260, "byteLength": 840}, {"buffer": 0, "byteOffset": 2100, "byteLength": 1260}, {"buffer": 0, "byteOffset": 3360, "byteLength": 318}, {"buffer": 0, "byteOffset": 3680, "byteLength": 348}, {"buffer": 0, "byteOffset": 4028, "byteLength": 232}, {"buffer": 0, "byteOffset": 4260, "byteLength": 348}, {"buffer": 0, "byteOffset": 4608, "byteLength": 102}], "accessors": [{"bufferView": 0, "byteOffset": 0, "componentType": 5126, "count": 105, "type": "VEC3", "min": [-0.455078125, 0.0, -0.298095703125], "max": [0.452392578125, 0.556396484375, 0.333251953125]}, {"bufferView": 1, "byteOffset": 0, "componentType": 5126, "count": 105, "type": "VEC2"}, {"bufferView": 2, "byteOffset": 0, "componentType": 5126, "count": 105, "type": "VEC3"}, {"bufferView": 3, "byteOffset": 0, "componentType": 5123, "count": 159, "type": "SCALAR"}, {"bufferView": 4, "byteOffset": 0, "componentType": 5126, "count": 29, "type": "VEC3", "min": [-0.455078125, 0.006103515625, -0.298095703125], "max": [0.452392578125, 0.556396484375, 0.333251953125]}, {"bufferView": 5, "byteOffset": 0, "componentType": 5126, "count": 29, "type": "VEC2"}, {"bufferView": 6, "byteOffset": 0, "componentType": 5126, "count": 29, "type": "VEC3"}, {"bufferView": 7, "byteOffset": 0, "componentType": 5123, "count": 51, "type": "SCALAR"}], "samplers": [{"magFilter": 9729, "minFilter": 9729, "wrapS": 10497, "wrapT": 10497}]}