{"asset": {"version": "2.0", "generator": "tongari-nsbmd-to-gltf"}, "scene": 0, "scenes": [{"nodes": [0, 1]}], "nodes": [{"name": "kb_cute_atelier", "translation": [0.0, 0.0, 0.0]}, {"mesh": 0, "name": "kb_cute_atelier"}], "meshes": [{"name": "kb_cute_atelier", "primitives": [{"attributes": {"POSITION": 0, "TEXCOORD_0": 1}, "indices": 2, "mode": 4, "material": 48}, {"attributes": {"POSITION": 3, "TEXCOORD_0": 4, "NORMAL": 5}, "indices": 6, "mode": 4, "material": 23}, {"attributes": {"POSITION": 7, "TEXCOORD_0": 8, "NORMAL": 9}, "indices": 10, "mode": 4, "material": 8}, {"attributes": {"POSITION": 11, "TEXCOORD_0": 12, "NORMAL": 13}, "indices": 14, "mode": 4, "material": 22}, {"attributes": {"POSITION": 15, "TEXCOORD_0": 16}, "indices": 17, "mode": 4, "material": 24}, {"attributes": {"POSITION": 18, "TEXCOORD_0": 19, "NORMAL": 20}, "indices": 21, "mode": 4, "material": 36}, {"attributes": {"POSITION": 22, "TEXCOORD_0": 23}, "indices": 24, "mode": 4, "material": 54}, {"attributes": {"POSITION": 25, "TEXCOORD_0": 26, "NORMAL": 27}, "indices": 28, "mode": 4, "material": 44}, {"attributes": {"POSITION": 29, "TEXCOORD_0": 30, "NORMAL": 31}, "indices": 32, "mode": 4, "material": 11}, {"attributes": {"POSITION": 33, "TEXCOORD_0": 34, "NORMAL": 35}, "indices": 36, "mode": 4, "material": 31}, {"attributes": {"POSITION": 37, "TEXCOORD_0": 38, "NORMAL": 39}, "indices": 40, "mode": 4, "material": 28}, {"attributes": {"POSITION": 41, "TEXCOORD_0": 42, "NORMAL": 43}, "indices": 44, "mode": 4, "material": 30}, {"attributes": {"POSITION": 45, "TEXCOORD_0": 46, "NORMAL": 47}, "indices": 48, "mode": 4, "material": 40}, {"attributes": {"POSITION": 49, "TEXCOORD_0": 50, "NORMAL": 51}, "indices": 52, "mode": 4, "material": 38}, {"attributes": {"POSITION": 53, "TEXCOORD_0": 54, "NORMAL": 55}, "indices": 56, "mode": 4, "material": 33}, {"attributes": {"POSITION": 57, "TEXCOORD_0": 58, "NORMAL": 59}, "indices": 60, "mode": 4, "material": 25}, {"attributes": {"POSITION": 61, "TEXCOORD_0": 62, "NORMAL": 63}, "indices": 64, "mode": 4, "material": 3}, {"attributes": {"POSITION": 65, "TEXCOORD_0": 66, "NORMAL": 67}, "indices": 68, "mode": 4, "material": 26}, {"attributes": {"POSITION": 69, "TEXCOORD_0": 70, "NORMAL": 71}, "indices": 72, "mode": 4, "material": 5}, {"attributes": {"POSITION": 73, "TEXCOORD_0": 74, "NORMAL": 75}, "indices": 76, "mode": 4, "material": 6}, {"attributes": {"POSITION": 77, "TEXCOORD_0": 78, "NORMAL": 79}, "indices": 80, "mode": 4, "material": 7}, {"attributes": {"POSITION": 81, "TEXCOORD_0": 82, "NORMAL": 83}, "indices": 84, "mode": 4, "material": 50}, {"attributes": {"POSITION": 85, "TEXCOORD_0": 86, "NORMAL": 87}, "indices": 88, "mode": 4, "material": 37}, {"attributes": {"POSITION": 89, "TEXCOORD_0": 90, "NORMAL": 91}, "indices": 92, "mode": 4, "material": 42}, {"attributes": {"POSITION": 93, "TEXCOORD_0": 94, "NORMAL": 95}, "indices": 96, "mode": 4, "material": 39}, {"attributes": {"POSITION": 97, "TEXCOORD_0": 98, "NORMAL": 99}, "indices": 100, "mode": 4, "material": 43}, {"attributes": {"POSITION": 101, "TEXCOORD_0": 102, "NORMAL": 103}, "indices": 104, "mode": 4, "material": 41}, {"attributes": {"POSITION": 105, "TEXCOORD_0": 106, "NORMAL": 107}, "indices": 108, "mode": 4, "material": 15}, {"attributes": {"POSITION": 109, "TEXCOORD_0": 110, "NORMAL": 111}, "indices": 112, "mode": 4, "material": 9}, {"attributes": {"POSITION": 113, "TEXCOORD_0": 114, "NORMAL": 115}, "indices": 116, "mode": 4, "material": 13}, {"attributes": {"POSITION": 117, "TEXCOORD_0": 118, "NORMAL": 119}, "indices": 120, "mode": 4, "material": 16}, {"attributes": {"POSITION": 121, "TEXCOORD_0": 122, "NORMAL": 123}, "indices": 124, "mode": 4, "material": 35}, {"attributes": {"POSITION": 125, "TEXCOORD_0": 126, "NORMAL": 127}, "indices": 128, "mode": 4, "material": 53}, {"attributes": {"POSITION": 129, "TEXCOORD_0": 130, "NORMAL": 131}, "indices": 132, "mode": 4, "material": 45}, {"attributes": {"POSITION": 133, "TEXCOORD_0": 134, "NORMAL": 135}, "indices": 136, "mode": 4, "material": 34}, {"attributes": {"POSITION": 137, "TEXCOORD_0": 138}, "indices": 139, "mode": 4, "material": 20}, {"attributes": {"POSITION": 140, "TEXCOORD_0": 141, "NORMAL": 142}, "indices": 143, "mode": 4, "material": 51}, {"attributes": {"POSITION": 144, "TEXCOORD_0": 145}, "indices": 146, "mode": 4, "material": 52}, {"attributes": {"POSITION": 147, "TEXCOORD_0": 148, "NORMAL": 149}, "indices": 150, "mode": 4, "material": 19}, {"attributes": {"POSITION": 151, "TEXCOORD_0": 152, "NORMAL": 153}, "indices": 154, "mode": 4, "material": 46}, {"attributes": {"POSITION": 155, "TEXCOORD_0": 156, "NORMAL": 157}, "indices": 158, "mode": 4, "material": 55}, {"attributes": {"POSITION": 159, "TEXCOORD_0": 160}, "indices": 161, "mode": 4, "material": 29}, {"attributes": {"POSITION": 162, "TEXCOORD_0": 163, "NORMAL": 164}, "indices": 165, "mode": 4, "material": 27}, {"attributes": {"POSITION": 166, "TEXCOORD_0": 167, "NORMAL": 168}, "indices": 169, "mode": 4, "material": 32}, {"attributes": {"POSITION": 170, "TEXCOORD_0": 171, "NORMAL": 172}, "indices": 173, "mode": 4, "material": 4}, {"attributes": {"POSITION": 174, "TEXCOORD_0": 175, "NORMAL": 176}, "indices": 177, "mode": 4, "material": 21}, {"attributes": {"POSITION": 178, "TEXCOORD_0": 179, "NORMAL": 180}, "indices": 181, "mode": 4, "material": 14}, {"attributes": {"POSITION": 182, "TEXCOORD_0": 183, "NORMAL": 184}, "indices": 185, "mode": 4, "material": 12}, {"attributes": {"POSITION": 186, "TEXCOORD_0": 187, "NORMAL": 188}, "indices": 189, "mode": 4, "material": 10}, {"attributes": {"POSITION": 190, "TEXCOORD_0": 191, "NORMAL": 192}, "indices": 193, "mode": 4, "material": 17}, {"attributes": {"POSITION": 194, "TEXCOORD_0": 195, "NORMAL": 196}, "indices": 197, "mode": 4, "material": 18}, {"attributes": {"POSITION": 198, "TEXCOORD_0": 199, "NORMAL": 200}, "indices": 201, "mode": 4, "material": 49}, {"attributes": {"POSITION": 202, "TEXCOORD_0": 203, "NORMAL": 204}, "indices": 205, "mode": 4, "material": 2}, {"attributes": {"POSITION": 206, "TEXCOORD_0": 207, "NORMAL": 208}, "indices": 209, "mode": 4, "material": 0}, {"attributes": {"POSITION": 210, "TEXCOORD_0": 211, "NORMAL": 212}, "indices": 213, "mode": 4, "material": 1}, {"attributes": {"POSITION": 214, "TEXCOORD_0": 215}, "indices": 216, "mode": 4, "material": 47}]}], "materials": [{"name": "a_nuno00", "pbrMetallicRoughness": {"baseColorFactor": [0.803921568627451, 0.803921568627451, 0.803921568627451, 1.0], "metallicFactor": 0.0, "roughnessFactor": 1.0}, "alphaMode": "OPAQUE", "doubleSided": true}, {"name": "a_nuno01", "pbrMetallicRoughness": {"baseColorFactor": [0.803921568627451, 0.803921568627451, 0.803921568627451, 1.0], "metallicFactor": 0.0, "roughnessFactor": 1.0}, "alphaMode": "OPAQUE", "doubleSided": true}, {"name": "a_nuno02", "pbrMetallicRoughness": {"baseColorFactor": [0.803921568627451, 0.803921568627451, 0.803921568627451, 1.0], "metallicFactor": 0.0, "roughnessFactor": 1.0}, "alphaMode": "OPAQUE", "doubleSided": true}, {"name": "board00", "pbrMetallicRoughness": {"baseColorFactor": [0.803921568627451, 0.803921568627451, 0.803921568627451, 1.0], "metallicFactor": 0.0, "roughnessFactor": 1.0}, "alphaMode": "OPAQUE", "doubleSided": true}, {"name": "book10", "pbrMetallicRoughness": {"baseColorFactor": [0.803921568627451, 0.803921568627451, 0.803921568627451, 1.0], "metallicFactor": 0.0, "roughnessFactor": 1.0}, "alphaMode": "OPAQUE", "doubleSided": true}, {"name": "c_han00", "pbrMetallicRoughness": {"baseColorFactor": [1.0, 1.0, 1.0, 1.0], "metallicFactor": 0.0, "roughnessFactor": 1.0}, "alphaMode": "OPAQUE", "doubleSided": true}, {"name": "c_manekin00", "pbrMetallicRoughness": {"baseColorFactor": [1.0, 1.0, 1.0, 1.0], "metallicFactor": 0.0, "roughnessFactor": 1.0}, "alphaMode": "OPAQUE", "doubleSided": true}, {"name": "c_manekin01", "pbrMetallicRoughness": {"baseColorFactor": [1.0, 1.0, 1.0, 1.0], "metallicFactor": 0.0, "roughnessFactor": 1.0}, "alphaMode": "OPAQUE", "doubleSided": true}, {"name": "cute_a_desk01", "pbrMetallicRoughness": {"baseColorFactor": [0.803921568627451, 0.803921568627451, 0.803921568627451, 1.0], "metallicFactor": 0.0, "roughnessFactor": 1.0}, "alphaMode": "OPAQUE", "doubleSided": true}, {"name": "cute_a_desk02", "pbrMetallicRoughness": {"baseColorFactor": [0.803921568627451, 0.803921568627451, 0.803921568627451, 1.0], "metallicFactor": 0.0, "roughnessFactor": 1.0}, "alphaMode": "OPAQUE", "doubleSided": true}, {"name": "cute_a_komo00", "pbrMetallicRoughness": {"baseColorFactor": [0.803921568627451, 0.803921568627451, 0.803921568627451, 1.0], "metallicFactor": 0.0, "roughnessFactor": 1.0}, "alphaMode": "OPAQUE", "doubleSided": true}, {"name": "cute_a_pi00", "pbrMetallicRoughness": {"baseColorFactor": [0.803921568627451, 0.803921568627451, 0.803921568627451, 1.0], "metallicFactor": 0.0, "roughnessFactor": 1.0}, "alphaMode": "OPAQUE", "doubleSided": true}, {"name": "cute_board00", "pbrMetallicRoughness": {"baseColorFactor": [0.803921568627451, 0.803921568627451, 0.803921568627451, 1.0], "metallicFactor": 0.0, "roughnessFactor": 1.0}, "alphaMode": "OPAQUE", "doubleSided": true}, {"name": "cute_flower01", "pbrMetallicRoughness": {"baseColorFactor": [0.803921568627451, 0.803921568627451, 0.803921568627451, 1.0], "metallicFactor": 0.0, "roughnessFactor": 1.0}, "alphaMode": "OPAQUE", "doubleSided": true}, {"name": "cute_kadan00", "pbrMetallicRoughness": {"baseColorFactor": [0.803921568627451, 0.803921568627451, 0.803921568627451, 1.0], "metallicFactor": 0.0, "roughnessFactor": 1.0}, "alphaMode": "OPAQUE", "doubleSided": true}, {"name": "dai", "pbrMetallicRoughness": {"baseColorFactor": [0.803921568627451, 0.803921568627451, 0.803921568627451, 1.0], "metallicFactor": 0.0, "roughnessFactor": 1.0}, "alphaMode": "OPAQUE", "doubleSided": true}, {"name": "desk2", "pbrMetallicRoughness": {"baseColorFactor": [0.803921568627451, 0.803921568627451, 0.803921568627451, 1.0], "metallicFactor": 0.0, "roughnessFactor": 1.0}, "alphaMode": "OPAQUE", "doubleSided": true}, {"name": "desk_s00", "pbrMetallicRoughness": {"baseColorFactor": [0.803921568627451, 0.803921568627451, 0.803921568627451, 1.0], "metallicFactor": 0.0, "roughnessFactor": 1.0}, "alphaMode": "OPAQUE", "doubleSided": true}, {"name": "desk_s01", "pbrMetallicRoughness": {"baseColorFactor": [0.803921568627451, 0.803921568627451, 0.803921568627451, 1.0], "metallicFactor": 0.0, "roughnessFactor": 1.0}, "alphaMode": "OPAQUE", "doubleSided": true}, {"name": "door1", "pbrMetallicRoughness": {"baseColorFactor": [0.803921568627451, 0.803921568627451, 0.803921568627451, 1.0], "metallicFactor": 0.0, "roughnessFactor": 1.0}, "alphaMode": "OPAQUE", "doubleSided": true}, {"name": "door2", "pbrMetallicRoughness": {"baseColorFactor": [0.803921568627451, 0.803921568627451, 0.803921568627451, 1.0], "metallicFactor": 0.0, "roughnessFactor": 1.0}, "alphaMode": "OPAQUE", "doubleSided": true}, {"name": "dougu2", "pbrMetallicRoughness": {"baseColorFactor": [1.0, 1.0, 1.0, 1.0], "metallicFactor": 0.0, "roughnessFactor": 1.0}, "alphaMode": "OPAQUE", "doubleSided": true}, {"name": "hasira1", "pbrMetallicRoughness": {"baseColorFactor": [0.803921568627451, 0.803921568627451, 0.803921568627451, 1.0], "metallicFactor": 0.0, "roughnessFactor": 1.0}, "alphaMode": "OPAQUE", "doubleSided": true}, {"name": "ito00", "pbrMetallicRoughness": {"baseColorFactor": [0.803921568627451, 0.803921568627451, 0.803921568627451, 1.0], "metallicFactor": 0.0, "roughnessFactor": 1.0}, "alphaMode": "OPAQUE", "doubleSided": true}, {"name": "kabe", "pbrMetallicRoughness": {"baseColorFactor": [0.803921568627451, 0.803921568627451, 0.803921568627451, 1.0], "metallicFactor": 0.0, "roughnessFactor": 1.0}, "alphaMode": "OPAQUE", "doubleSided": true}, {"name": "kago", "pbrMetallicRoughness": {"baseColorFactor": [0.803921568627451, 0.803921568627451, 0.803921568627451, 1.0], "metallicFactor": 0.0, "roughnessFactor": 1.0}, "alphaMode": "OPAQUE", "doubleSided": true}, {"name": "lambert141", "pbrMetallicRoughness": {"baseColorFactor": [0.803921568627451, 0.803921568627451, 0.803921568627451, 1.0], "metallicFactor": 0.0, "roughnessFactor": 1.0}, "alphaMode": "OPAQUE", "doubleSided": true}, {"name": "lambert150", "pbrMetallicRoughness": {"baseColorFactor": [0.803921568627451, 0.803921568627451, 0.803921568627451, 1.0], "metallicFactor": 0.0, "roughnessFactor": 1.0}, "alphaMode": "OPAQUE", "doubleSided": true}, {"name": "lamp", "pbrMetallicRoughness": {"baseColorFactor": [0.803921568627451, 0.803921568627451, 0.803921568627451, 1.0], "metallicFactor": 0.0, "roughnessFactor": 1.0}, "alphaMode": "OPAQUE", "doubleSided": true}, {"name": "light", "pbrMetallicRoughness": {"baseColorFactor": [0.803921568627451, 0.803921568627451, 0.803921568627451, 0.6451612903225806], "metallicFactor": 0.0, "roughnessFactor": 1.0}, "alphaMode": "BLEND", "doubleSided": true}, {"name": "mat3", "pbrMetallicRoughness": {"baseColorFactor": [0.803921568627451, 0.803921568627451, 0.803921568627451, 1.0], "metallicFactor": 0.0, "roughnessFactor": 1.0}, "alphaMode": "OPAQUE", "doubleSided": true}, {"name": "metal", "pbrMetallicRoughness": {"baseColorFactor": [0.803921568627451, 0.803921568627451, 0.803921568627451, 1.0], "metallicFactor": 0.0, "roughnessFactor": 1.0}, "alphaMode": "OPAQUE", "doubleSided": true}, {"name": "misin", "pbrMetallicRoughness": {"baseColorFactor": [0.803921568627451, 0.803921568627451, 0.803921568627451, 1.0], "metallicFactor": 0.0, "roughnessFactor": 1.0}, "alphaMode": "OPAQUE", "doubleSided": true}, {"name": "nuno", "pbrMetallicRoughness": {"baseColorFactor": [0.803921568627451, 0.803921568627451, 0.803921568627451, 1.0], "metallicFactor": 0.0, "roughnessFactor": 1.0}, "alphaMode": "OPAQUE", "doubleSided": true}, {"name": "object_shade", "pbrMetallicRoughness": {"baseColorFactor": [0.803921568627451, 0.803921568627451, 0.803921568627451, 0.41935483870967744], "metallicFactor": 0.0, "roughnessFactor": 1.0}, "alphaMode": "BLEND", "doubleSided": true}, {"name": "paper", "pbrMetallicRoughness": {"baseColorFactor": [0.803921568627451, 0.803921568627451, 0.803921568627451, 1.0], "metallicFactor": 0.0, "roughnessFactor": 1.0}, "alphaMode": "OPAQUE", "doubleSided": true}, {"name": "plane", "pbrMetallicRoughness": {"baseColorFactor": [0.803921568627451, 0.803921568627451, 0.803921568627451, 1.0], "metallicFactor": 0.0, "roughnessFactor": 1.0}, "alphaMode": "OPAQUE", "doubleSided": true}, {"name": "r_flower_h00", "pbrMetallicRoughness": {"baseColorFactor": [1.0, 1.0, 1.0, 1.0], "metallicFactor": 0.0, "roughnessFactor": 1.0}, "alphaMode": "OPAQUE", "doubleSided": true}, {"name": "ribbon1", "pbrMetallicRoughness": {"baseColorFactor": [0.803921568627451, 0.803921568627451, 0.803921568627451, 1.0], "metallicFactor": 0.0, "roughnessFactor": 1.0}, "alphaMode": "OPAQUE", "doubleSided": true}, {"name": "ribbon2", "pbrMetallicRoughness": {"baseColorFactor": [0.803921568627451, 0.803921568627451, 0.803921568627451, 1.0], "metallicFactor": 0.0, "roughnessFactor": 1.0}, "alphaMode": "OPAQUE", "doubleSided": true}, {"name": "ribbon3", "pbrMetallicRoughness": {"baseColorFactor": [0.803921568627451, 0.803921568627451, 0.803921568627451, 1.0], "metallicFactor": 0.0, "roughnessFactor": 1.0}, "alphaMode": "OPAQUE", "doubleSided": true}, {"name": "ribbon4", "pbrMetallicRoughness": {"baseColorFactor": [0.803921568627451, 0.803921568627451, 0.803921568627451, 1.0], "metallicFactor": 0.0, "roughnessFactor": 1.0}, "alphaMode": "OPAQUE", "doubleSided": true}, {"name": "ribbon5", "pbrMetallicRoughness": {"baseColorFactor": [0.803921568627451, 0.803921568627451, 0.803921568627451, 1.0], "metallicFactor": 0.0, "roughnessFactor": 1.0}, "alphaMode": "OPAQUE", "doubleSided": true}, {"name": "ribbon6", "pbrMetallicRoughness": {"baseColorFactor": [0.803921568627451, 0.803921568627451, 0.803921568627451, 1.0], "metallicFactor": 0.0, "roughnessFactor": 1.0}, "alphaMode": "OPAQUE", "doubleSided": true}, {"name": "room_mat00", "pbrMetallicRoughness": {"baseColorFactor": [1.0, 1.0, 1.0, 1.0], "metallicFactor": 0.0, "roughnessFactor": 1.0}, "alphaMode": "OPAQUE", "doubleSided": true}, {"name": "scissors1", "pbrMetallicRoughness": {"baseColorFactor": [0.803921568627451, 0.803921568627451, 0.803921568627451, 1.0], "metallicFactor": 0.0, "roughnessFactor": 1.0}, "alphaMode": "OPAQUE", "doubleSided": true}, {"name": "shade00", "pbrMetallicRoughness": {"baseColorFactor": [0.803921568627451, 0.803921568627451, 0.803921568627451, 1.0], "metallicFactor": 0.0, "roughnessFactor": 1.0}, "alphaMode": "OPAQUE", "doubleSided": true}, {"name": "switch1", "pbrMetallicRoughness": {"baseColorFactor": [0.803921568627451, 0.803921568627451, 0.803921568627451, 1.0], "metallicFactor": 0.0, "roughnessFactor": 1.0}, "alphaMode": "OPAQUE", "doubleSided": true}, {"name": "switch2", "pbrMetallicRoughness": {"baseColorFactor": [0.803921568627451, 0.803921568627451, 0.803921568627451, 1.0], "metallicFactor": 0.0, "roughnessFactor": 1.0}, "alphaMode": "OPAQUE", "doubleSided": true}, {"name": "tana1", "pbrMetallicRoughness": {"baseColorFactor": [0.803921568627451, 0.803921568627451, 0.803921568627451, 1.0], "metallicFactor": 0.0, "roughnessFactor": 1.0}, "alphaMode": "OPAQUE", "doubleSided": true}, {"name": "tansu", "pbrMetallicRoughness": {"baseColorFactor": [0.803921568627451, 0.803921568627451, 0.803921568627451, 1.0], "metallicFactor": 0.0, "roughnessFactor": 1.0}, "alphaMode": "OPAQUE", "doubleSided": true}, {"name": "taru00", "pbrMetallicRoughness": {"baseColorFactor": [1.0, 1.0, 1.0, 1.0], "metallicFactor": 0.0, "roughnessFactor": 1.0}, "alphaMode": "OPAQUE", "doubleSided": true}, {"name": "taru_box", "pbrMetallicRoughness": {"baseColorFactor": [1.0, 1.0, 1.0, 1.0], "metallicFactor": 0.0, "roughnessFactor": 1.0}, "alphaMode": "OPAQUE", "doubleSided": true}, {"name": "tree1", "pbrMetallicRoughness": {"baseColorFactor": [1.0, 1.0, 1.0, 1.0], "metallicFactor": 0.0, "roughnessFactor": 1.0}, "alphaMode": "OPAQUE", "doubleSided": true}, {"name": "yuka", "pbrMetallicRoughness": {"baseColorFactor": [0.803921568627451, 0.803921568627451, 0.803921568627451, 1.0], "metallicFactor": 0.0, "roughnessFactor": 1.0}, "alphaMode": "OPAQUE", "doubleSided": true}, {"name": "yuka_r", "pbrMetallicRoughness": {"baseColorFactor": [0.803921568627451, 0.803921568627451, 0.803921568627451, 1.0], "metallicFactor": 0.0, "roughnessFactor": 1.0}, "alphaMode": "OPAQUE", "doubleSided": true}], "buffers": [{"byteLength": 83476, "uri": "data:application/octet-stream;base64,"}], "bufferViews": [{"buffer": 0, "byteOffset": 0, "byteLength": 240}, {"buffer": 0, "byteOffset": 240, "byteLength": 160}, {"buffer": 0, "byteOffset": 400, "byteLength": 60}, {"buffer": 0, "byteOffset": 460, "byteLength": 96}, {"buffer": 0, "byteOffset": 556, "byteLength": 64}, {"buffer": 0, "byteOffset": 620, "byteLength": 96}, {"buffer": 0, "byteOffset": 716, "byteLength": 24}, {"buffer": 0, "byteOffset": 740, "byteLength": 1464}, {"buffer": 0, "byteOffset": 2204, "byteLength": 976}, {"buffer": 0, "byteOffset": 3180, "byteLength": 1464}, {"buffer": 0, "byteOffset": 4644, "byteLength": 492}, {"buffer": 0, "byteOffset": 5136, "byteLength": 144}, {"buffer": 0, "byteOffset": 5280, "byteLength": 96}, {"buffer": 0, "byteOffset": 5376, "byteLength": 144}, {"buffer": 0, "byteOffset": 5520, "byteLength": 60}, {"buffer": 0, "byteOffset": 5580, "byteLength": 804}, {"buffer": 0, "byteOffset": 6384, "byteLength": 536}, {"buffer": 0, "byteOffset": 6920, "byteLength": 222}, {"buffer": 0, "byteOffset": 7144, "byteLength": 336}, {"buffer": 0, "byteOffset": 7480, "byteLength": 224}, {"buffer": 0, "byteOffset": 7704, "byteLength": 336}, {"buffer": 0, "byteOffset": 8040, "byteLength": 84}, {"buffer": 0, "byteOffset": 8124, "byteLength": 252}, {"buffer": 0, "byteOffset": 8376, "byteLength": 168}, {"buffer": 0, "byteOffset": 8544, "byteLength": 66}, {"buffer": 0, "byteOffset": 8612, "byteLength": 96}, {"buffer": 0, "byteOffset": 8708, "byteLength": 64}, {"buffer": 0, "byteOffset": 8772, "byteLength": 96}, {"buffer": 0, "byteOffset": 8868, "byteLength": 24}, {"buffer": 0, "byteOffset": 8892, "byteLength": 252}, {"buffer": 0, "byteOffset": 9144, "byteLength": 168}, {"buffer": 0, "byteOffset": 9312, "byteLength": 252}, {"buffer": 0, "byteOffset": 9564, "byteLength": 78}, {"buffer": 0, "byteOffset": 9644, "byteLength": 900}, {"buffer": 0, "byteOffset": 10544, "byteLength": 600}, {"buffer": 0, "byteOffset": 11144, "byteLength": 900}, {"buffer": 0, "byteOffset": 12044, "byteLength": 198}, {"buffer": 0, "byteOffset": 12244, "byteLength": 3552}, {"buffer": 0, "byteOffset": 15796, "byteLength": 2368}, {"buffer": 0, "byteOffset": 18164, "byteLength": 3552}, {"buffer": 0, "byteOffset": 21716, "byteLength": 1152}, {"buffer": 0, "byteOffset": 22868, "byteLength": 48}, {"buffer": 0, "byteOffset": 22916, "byteLength": 32}, {"buffer": 0, "byteOffset": 22948, "byteLength": 48}, {"buffer": 0, "byteOffset": 22996, "byteLength": 12}, {"buffer": 0, "byteOffset": 23008, "byteLength": 384}, {"buffer": 0, "byteOffset": 23392, "byteLength": 256}, {"buffer": 0, "byteOffset": 23648, "byteLength": 384}, {"buffer": 0, "byteOffset": 24032, "byteLength": 120}, {"buffer": 0, "byteOffset": 24152, "byteLength": 336}, {"buffer": 0, "byteOffset": 24488, "byteLength": 224}, {"buffer": 0, "byteOffset": 24712, "byteLength": 336}, {"buffer": 0, "byteOffset": 25048, "byteLength": 108}, {"buffer": 0, "byteOffset": 25156, "byteLength": 1512}, {"buffer": 0, "byteOffset": 26668, "byteLength": 1008}, {"buffer": 0, "byteOffset": 27676, "byteLength": 1512}, {"buffer": 0, "byteOffset": 29188, "byteLength": 456}, {"buffer": 0, "byteOffset": 29644, "byteLength": 768}, {"buffer": 0, "byteOffset": 30412, "byteLength": 512}, {"buffer": 0, "byteOffset": 30924, "byteLength": 768}, {"buffer": 0, "byteOffset": 31692, "byteLength": 180}, {"buffer": 0, "byteOffset": 31872, "byteLength": 120}, {"buffer": 0, "byteOffset": 31992, "byteLength": 80}, {"buffer": 0, "byteOffset": 32072, "byteLength": 120}, {"buffer": 0, "byteOffset": 32192, "byteLength": 36}, {"buffer": 0, "byteOffset": 32228, "byteLength": 432}, {"buffer": 0, "byteOffset": 32660, "byteLength": 288}, {"buffer": 0, "byteOffset": 32948, "byteLength": 432}, {"buffer": 0, "byteOffset": 33380, "byteLength": 108}, {"buffer": 0, "byteOffset": 33488, "byteLength": 1176}, {"buffer": 0, "byteOffset": 34664, "byteLength": 784}, {"buffer": 0, "byteOffset": 35448, "byteLength": 1176}, {"buffer": 0, "byteOffset": 36624, "byteLength": 312}, {"buffer": 0, "byteOffset": 36936, "byteLength": 924}, {"buffer": 0, "byteOffset": 37860, "byteLength": 616}, {"buffer": 0, "byteOffset": 38476, "byteLength": 924}, {"buffer": 0, "byteOffset": 39400, "byteLength": 294}, {"buffer": 0, "byteOffset": 39696, "byteLength": 48}, {"buffer": 0, "byteOffset": 39744, "byteLength": 32}, {"buffer": 0, "byteOffset": 39776, "byteLength": 48}, {"buffer": 0, "byteOffset": 39824, "byteLength": 12}, {"buffer": 0, "byteOffset": 39836, "byteLength": 2112}, {"buffer": 0, "byteOffset": 41948, "byteLength": 1408}, {"buffer": 0, "byteOffset": 43356, "byteLength": 2112}, {"buffer": 0, "byteOffset": 45468, "byteLength": 552}, {"buffer": 0, "byteOffset": 46020, "byteLength": 96}, {"buffer": 0, "byteOffset": 46116, "byteLength": 64}, {"buffer": 0, "byteOffset": 46180, "byteLength": 96}, {"buffer": 0, "byteOffset": 46276, "byteLength": 24}, {"buffer": 0, "byteOffset": 46300, "byteLength": 168}, {"buffer": 0, "byteOffset": 46468, "byteLength": 112}, {"buffer": 0, "byteOffset": 46580, "byteLength": 168}, {"buffer": 0, "byteOffset": 46748, "byteLength": 48}, {"buffer": 0, "byteOffset": 46796, "byteLength": 216}, {"buffer": 0, "byteOffset": 47012, "byteLength": 144}, {"buffer": 0, "byteOffset": 47156, "byteLength": 216}, {"buffer": 0, "byteOffset": 47372, "byteLength": 60}, {"buffer": 0, "byteOffset": 47432, "byteLength": 168}, {"buffer": 0, "byteOffset": 47600, "byteLength": 112}, {"buffer": 0, "byteOffset": 47712, "byteLength": 168}, {"buffer": 0, "byteOffset": 47880, "byteLength": 48}, {"buffer": 0, "byteOffset": 47928, "byteLength": 840}, {"buffer": 0, "byteOffset": 48768, "byteLength": 560}, {"buffer": 0, "byteOffset": 49328, "byteLength": 840}, {"buffer": 0, "byteOffset": 50168, "byteLength": 312}, {"buffer": 0, "byteOffset": 50480, "byteLength": 408}, {"buffer": 0, "byteOffset": 50888, "byteLength": 272}, {"buffer": 0, "byteOffset": 51160, "byteLength": 408}, {"buffer": 0, "byteOffset": 51568, "byteLength": 120}, {"buffer": 0, "byteOffset": 51688, "byteLength": 204}, {"buffer": 0, "byteOffset": 51892, "byteLength": 136}, {"buffer": 0, "byteOffset": 52028, "byteLength": 204}, {"buffer": 0, "byteOffset": 52232, "byteLength": 54}, {"buffer": 0, "byteOffset": 52288, "byteLength": 96}, {"buffer": 0, "byteOffset": 52384, "byteLength": 64}, {"buffer": 0, "byteOffset": 52448, "byteLength": 96}, {"buffer": 0, "byteOffset": 52544, "byteLength": 24}, {"buffer": 0, "byteOffset": 52568, "byteLength": 384}, {"buffer": 0, "byteOffset": 52952, "byteLength": 256}, {"buffer": 0, "byteOffset": 53208, "byteLength": 384}, {"buffer": 0, "byteOffset": 53592, "byteLength": 96}, {"buffer": 0, "byteOffset": 53688, "byteLength": 96}, {"buffer": 0, "byteOffset": 53784, "byteLength": 64}, {"buffer": 0, "byteOffset": 53848, "byteLength": 96}, {"buffer": 0, "byteOffset": 53944, "byteLength": 24}, {"buffer": 0, "byteOffset": 53968, "byteLength": 1368}, {"buffer": 0, "byteOffset": 55336, "byteLength": 912}, {"buffer": 0, "byteOffset": 56248, "byteLength": 1368}, {"buffer": 0, "byteOffset": 57616, "byteLength": 456}, {"buffer": 0, "byteOffset": 58072, "byteLength": 792}, {"buffer": 0, "byteOffset": 58864, "byteLength": 528}, {"buffer": 0, "byteOffset": 59392, "byteLength": 792}, {"buffer": 0, "byteOffset": 60184, "byteLength": 192}, {"buffer": 0, "byteOffset": 60376, "byteLength": 456}, {"buffer": 0, "byteOffset": 60832, "byteLength": 304}, {"buffer": 0, "byteOffset": 61136, "byteLength": 456}, {"buffer": 0, "byteOffset": 61592, "byteLength": 108}, {"buffer": 0, "byteOffset": 61700, "byteLength": 624}, {"buffer": 0, "byteOffset": 62324, "byteLength": 416}, {"buffer": 0, "byteOffset": 62740, "byteLength": 192}, {"buffer": 0, "byteOffset": 62932, "byteLength": 264}, {"buffer": 0, "byteOffset": 63196, "byteLength": 176}, {"buffer": 0, "byteOffset": 63372, "byteLength": 264}, {"buffer": 0, "byteOffset": 63636, "byteLength": 96}, {"buffer": 0, "byteOffset": 63732, "byteLength": 504}, {"buffer": 0, "byteOffset": 64236, "byteLength": 336}, {"buffer": 0, "byteOffset": 64572, "byteLength": 144}, {"buffer": 0, "byteOffset": 64716, "byteLength": 156}, {"buffer": 0, "byteOffset": 64872, "byteLength": 104}, {"buffer": 0, "byteOffset": 64976, "byteLength": 156}, {"buffer": 0, "byteOffset": 65132, "byteLength": 42}, {"buffer": 0, "byteOffset": 65176, "byteLength": 312}, {"buffer": 0, "byteOffset": 65488, "byteLength": 208}, {"buffer": 0, "byteOffset": 65696, "byteLength": 312}, {"buffer": 0, "byteOffset": 66008, "byteLength": 108}, {"buffer": 0, "byteOffset": 66116, "byteLength": 120}, {"buffer": 0, "byteOffset": 66236, "byteLength": 80}, {"buffer": 0, "byteOffset": 66316, "byteLength": 120}, {"buffer": 0, "byteOffset": 66436, "byteLength": 36}, {"buffer": 0, "byteOffset": 66472, "byteLength": 96}, {"buffer": 0, "byteOffset": 66568, "byteLength": 64}, {"buffer": 0, "byteOffset": 66632, "byteLength": 24}, {"buffer": 0, "byteOffset": 66656, "byteLength": 144}, {"buffer": 0, "byteOffset": 66800, "byteLength": 96}, {"buffer": 0, "byteOffset": 66896, "byteLength": 144}, {"buffer": 0, "byteOffset": 67040, "byteLength": 48}, {"buffer": 0, "byteOffset": 67088, "byteLength": 1644}, {"buffer": 0, "byteOffset": 68732, "byteLength": 1096}, {"buffer": 0, "byteOffset": 69828, "byteLength": 1644}, {"buffer": 0, "byteOffset": 71472, "byteLength": 486}, {"buffer": 0, "byteOffset": 71960, "byteLength": 360}, {"buffer": 0, "byteOffset": 72320, "byteLength": 240}, {"buffer": 0, "byteOffset": 72560, "byteLength": 360}, {"buffer": 0, "byteOffset": 72920, "byteLength": 108}, {"buffer": 0, "byteOffset": 73028, "byteLength": 744}, {"buffer": 0, "byteOffset": 73772, "byteLength": 496}, {"buffer": 0, "byteOffset": 74268, "byteLength": 744}, {"buffer": 0, "byteOffset": 75012, "byteLength": 216}, {"buffer": 0, "byteOffset": 75228, "byteLength": 192}, {"buffer": 0, "byteOffset": 75420, "byteLength": 128}, {"buffer": 0, "byteOffset": 75548, "byteLength": 192}, {"buffer": 0, "byteOffset": 75740, "byteLength": 60}, {"buffer": 0, "byteOffset": 75800, "byteLength": 504}, {"buffer": 0, "byteOffset": 76304, "byteLength": 336}, {"buffer": 0, "byteOffset": 76640, "byteLength": 504}, {"buffer": 0, "byteOffset": 77144, "byteLength": 180}, {"buffer": 0, "byteOffset": 77324, "byteLength": 96}, {"buffer": 0, "byteOffset": 77420, "byteLength": 64}, {"buffer": 0, "byteOffset": 77484, "byteLength": 96}, {"buffer": 0, "byteOffset": 77580, "byteLength": 24}, {"buffer": 0, "byteOffset": 77604, "byteLength": 336}, {"buffer": 0, "byteOffset": 77940, "byteLength": 224}, {"buffer": 0, "byteOffset": 78164, "byteLength": 336}, {"buffer": 0, "byteOffset": 78500, "byteLength": 96}, {"buffer": 0, "byteOffset": 78596, "byteLength": 96}, {"buffer": 0, "byteOffset": 78692, "byteLength": 64}, {"buffer": 0, "byteOffset": 78756, "byteLength": 96}, {"buffer": 0, "byteOffset": 78852, "byteLength": 36}, {"buffer": 0, "byteOffset": 78888, "byteLength": 960}, {"buffer": 0, "byteOffset": 79848, "byteLength": 640}, {"buffer": 0, "byteOffset": 80488, "byteLength": 960}, {"buffer": 0, "byteOffset": 81448, "byteLength": 288}, {"buffer": 0, "byteOffset": 81736, "byteLength": 240}, {"buffer": 0, "byteOffset": 81976, "byteLength": 160}, {"buffer": 0, "byteOffset": 82136, "byteLength": 240}, {"buffer": 0, "byteOffset": 82376, "byteLength": 60}, {"buffer": 0, "byteOffset": 82436, "byteLength": 144}, {"buffer": 0, "byteOffset": 82580, "byteLength": 96}, {"buffer": 0, "byteOffset": 82676, "byteLength": 144}, {"buffer": 0, "byteOffset": 82820, "byteLength": 36}, {"buffer": 0, "byteOffset": 82856, "byteLength": 96}, {"buffer": 0, "byteOffset": 82952, "byteLength": 64}, {"buffer": 0, "byteOffset": 83016, "byteLength": 96}, {"buffer": 0, "byteOffset": 83112, "byteLength": 24}, {"buffer": 0, "byteOffset": 83136, "byteLength": 168}, {"buffer": 0, "byteOffset": 83304, "byteLength": 112}, {"buffer": 0, "byteOffset": 83416, "byteLength": 60}], "accessors": [{"bufferView": 0, "byteOffset": 0, "componentType": 5126, "count": 20, "type": "VEC3", "min": [4.87353515625, 0.259521484375, 1.60498046875], "max": [4.913330078125, 0.28564453125, 1.6376953125]}, {"bufferView": 1, "byteOffset": 0, "componentType": 5126, "count": 20, "type": "VEC2"}, {"bufferView": 2, "byteOffset": 0, "componentType": 5123, "count": 30, "type": "SCALAR"}, {"bufferView": 3, "byteOffset": 0, "componentType": 5126, "count": 8, "type": "VEC3", "min": [4.46826171875, 0.61865234375, 0.18212890625], "max": [4.85009765625, 0.717529296875, 0.34033203125]}, {"bufferView": 4, "byteOffset": 0, "componentType": 5126, "count": 8, "type": "VEC2"}, {"bufferView": 5, "byteOffset": 0, "componentType": 5126, "count": 8, "type": "VEC3"}, {"bufferView": 6, "byteOffset": 0, "componentType": 5123, "count": 12, "type": "SCALAR"}, {"bufferView": 7, "byteOffset": 0, "componentType": 5126, "count": 122, "type": "VEC3", "min": [0.46337890625, -0.0009765625, -0.27490234375], "max": [5.186279296875, 1.425048828125, 2.50244140625]}, {"bufferView": 8, "byteOffset": 0, "componentType": 5126, "count": 122, "type": "VEC2"}, {"bufferView": 9, "byteOffset": 0, "componentType": 5126, "count": 122, "type": "VEC3"}, {"bufferView": 10, "byteOffset": 0, "componentType": 5123, "count": 246, "type": "SCALAR"}, {"bufferView": 11, "byteOffset": 0, "componentType": 5126, "count": 12, "type": "VEC3", "min": [2.5458984375, 1.3154296875, -0.236083984375], "max": [5.1611328125, 1.42822265625, 2.5146484375]}, {"bufferView": 12, "byteOffset": 0, "componentType": 5126, "count": 12, "type": "VEC2"}, {"bufferView": 13, "byteOffset": 0, "componentType": 5126, "count": 12, "type": "VEC3"}, {"bufferView": 14, "byteOffset": 0, "componentType": 5123, "count": 30, "type": "SCALAR"}, {"bufferView": 15, "byteOffset": 0, "componentType": 5126, "count": 67, "type": "VEC3", "min": [0.5, -0.00732421875, -0.2529296875], "max": [5.19140625, 1.373779296875, 2.510009765625]}, {"bufferView": 16, "byteOffset": 0, "componentType": 5126, "count": 67, "type": "VEC2"}, {"bufferView": 17, "byteOffset": 0, "componentType": 5123, "count": 111, "type": "SCALAR"}, {"bufferView": 18, "byteOffset": 0, "componentType": 5126, "count": 28, "type": "VEC3", "min": [-0.189208984375, -0.125, 1.422607421875], "max": [5.867431640625, 1.938232421875, 2.58837890625]}, {"bufferView": 19, "byteOffset": 0, "componentType": 5126, "count": 28, "type": "VEC2"}, {"bufferView": 20, "byteOffset": 0, "componentType": 5126, "count": 28, "type": "VEC3"}, {"bufferView": 21, "byteOffset": 0, "componentType": 5123, "count": 42, "type": "SCALAR"}, {"bufferView": 22, "byteOffset": 0, "componentType": 5126, "count": 21, "type": "VEC3", "min": [0.529296875, -0.0009765625, -0.2529296875], "max": [5.19140625, 0.0, 2.4970703125]}, {"bufferView": 23, "byteOffset": 0, "componentType": 5126, "count": 21, "type": "VEC2"}, {"bufferView": 24, "byteOffset": 0, "componentType": 5123, "count": 33, "type": "SCALAR"}, {"bufferView": 25, "byteOffset": 0, "componentType": 5126, "count": 8, "type": "VEC3", "min": [0.25, -0.0009765625, 1.7470703125], "max": [2.749755859375, 0.003173828125, 2.25]}, {"bufferView": 26, "byteOffset": 0, "componentType": 5126, "count": 8, "type": "VEC2"}, {"bufferView": 27, "byteOffset": 0, "componentType": 5126, "count": 8, "type": "VEC3"}, {"bufferView": 28, "byteOffset": 0, "componentType": 5123, "count": 12, "type": "SCALAR"}, {"bufferView": 29, "byteOffset": 0, "componentType": 5126, "count": 21, "type": "VEC3", "min": [2.499755859375, 0.0, -0.2529296875], "max": [5.19140625, 0.5, 2.4970703125]}, {"bufferView": 30, "byteOffset": 0, "componentType": 5126, "count": 21, "type": "VEC2"}, {"bufferView": 31, "byteOffset": 0, "componentType": 5126, "count": 21, "type": "VEC3"}, {"bufferView": 32, "byteOffset": 0, "componentType": 5123, "count": 39, "type": "SCALAR"}, {"bufferView": 33, "byteOffset": 0, "componentType": 5126, "count": 75, "type": "VEC3", "min": [2.59765625, 0.08349609375, 0.13134765625], "max": [4.969970703125, 1.367431640625, 1.14501953125]}, {"bufferView": 34, "byteOffset": 0, "componentType": 5126, "count": 75, "type": "VEC2"}, {"bufferView": 35, "byteOffset": 0, "componentType": 5126, "count": 75, "type": "VEC3"}, {"bufferView": 36, "byteOffset": 0, "componentType": 5123, "count": 99, "type": "SCALAR"}, {"bufferView": 37, "byteOffset": 0, "componentType": 5126, "count": 296, "type": "VEC3", "min": [2.550048828125, 0.16259765625, 0.700439453125], "max": [2.80419921875, 0.647216796875, 1.287109375]}, {"bufferView": 38, "byteOffset": 0, "componentType": 5126, "count": 296, "type": "VEC2"}, {"bufferView": 39, "byteOffset": 0, "componentType": 5126, "count": 296, "type": "VEC3"}, {"bufferView": 40, "byteOffset": 0, "componentType": 5123, "count": 576, "type": "SCALAR"}, {"bufferView": 41, "byteOffset": 0, "componentType": 5126, "count": 4, "type": "VEC3", "min": [2.552490234375, 0.165771484375, 0.915771484375], "max": [2.85791015625, 0.16650390625, 1.584228515625]}, {"bufferView": 42, "byteOffset": 0, "componentType": 5126, "count": 4, "type": "VEC2"}, {"bufferView": 43, "byteOffset": 0, "componentType": 5126, "count": 4, "type": "VEC3"}, {"bufferView": 44, "byteOffset": 0, "componentType": 5123, "count": 6, "type": "SCALAR"}, {"bufferView": 45, "byteOffset": 0, "componentType": 5126, "count": 32, "type": "VEC3", "min": [4.0302734375, 0.408935546875, -0.1708984375], "max": [5.18896484375, 0.88134765625, 1.961181640625]}, {"bufferView": 46, "byteOffset": 0, "componentType": 5126, "count": 32, "type": "VEC2"}, {"bufferView": 47, "byteOffset": 0, "componentType": 5126, "count": 32, "type": "VEC3"}, {"bufferView": 48, "byteOffset": 0, "componentType": 5123, "count": 60, "type": "SCALAR"}, {"bufferView": 49, "byteOffset": 0, "componentType": 5126, "count": 28, "type": "VEC3", "min": [4.136962890625, 0.421142578125, -0.1708984375], "max": [5.185791015625, 0.87939453125, 1.75537109375]}, {"bufferView": 50, "byteOffset": 0, "componentType": 5126, "count": 28, "type": "VEC2"}, {"bufferView": 51, "byteOffset": 0, "componentType": 5126, "count": 28, "type": "VEC3"}, {"bufferView": 52, "byteOffset": 0, "componentType": 5123, "count": 54, "type": "SCALAR"}, {"bufferView": 53, "byteOffset": 0, "componentType": 5126, "count": 126, "type": "VEC3", "min": [3.31298828125, 0.181396484375, -0.218017578125], "max": [5.232177734375, 0.932861328125, 1.514404296875]}, {"bufferView": 54, "byteOffset": 0, "componentType": 5126, "count": 126, "type": "VEC2"}, {"bufferView": 55, "byteOffset": 0, "componentType": 5126, "count": 126, "type": "VEC3"}, {"bufferView": 56, "byteOffset": 0, "componentType": 5123, "count": 228, "type": "SCALAR"}, {"bufferView": 57, "byteOffset": 0, "componentType": 5126, "count": 64, "type": "VEC3", "min": [4.401123046875, 0.02490234375, -0.08349609375], "max": [5.179443359375, 0.85400390625, 2.342041015625]}, {"bufferView": 58, "byteOffset": 0, "componentType": 5126, "count": 64, "type": "VEC2"}, {"bufferView": 59, "byteOffset": 0, "componentType": 5126, "count": 64, "type": "VEC3"}, {"bufferView": 60, "byteOffset": 0, "componentType": 5123, "count": 90, "type": "SCALAR"}, {"bufferView": 61, "byteOffset": 0, "componentType": 5126, "count": 10, "type": "VEC3", "min": [2.51513671875, 0.217041015625, 1.307861328125], "max": [2.534912109375, 0.503173828125, 1.623046875]}, {"bufferView": 62, "byteOffset": 0, "componentType": 5126, "count": 10, "type": "VEC2"}, {"bufferView": 63, "byteOffset": 0, "componentType": 5126, "count": 10, "type": "VEC3"}, {"bufferView": 64, "byteOffset": 0, "componentType": 5123, "count": 18, "type": "SCALAR"}, {"bufferView": 65, "byteOffset": 0, "componentType": 5126, "count": 36, "type": "VEC3", "min": [4.823974609375, 0.155517578125, 1.11328125], "max": [5.129150390625, 0.3623046875, 1.416748046875]}, {"bufferView": 66, "byteOffset": 0, "componentType": 5126, "count": 36, "type": "VEC2"}, {"bufferView": 67, "byteOffset": 0, "componentType": 5126, "count": 36, "type": "VEC3"}, {"bufferView": 68, "byteOffset": 0, "componentType": 5123, "count": 54, "type": "SCALAR"}, {"bufferView": 69, "byteOffset": 0, "componentType": 5126, "count": 98, "type": "VEC3", "min": [4.6181640625, 0.0, 0.6298828125], "max": [4.781494140625, 0.22509765625, 0.769287109375]}, {"bufferView": 70, "byteOffset": 0, "componentType": 5126, "count": 98, "type": "VEC2"}, {"bufferView": 71, "byteOffset": 0, "componentType": 5126, "count": 98, "type": "VEC3"}, {"bufferView": 72, "byteOffset": 0, "componentType": 5123, "count": 156, "type": "SCALAR"}, {"bufferView": 73, "byteOffset": 0, "componentType": 5126, "count": 77, "type": "VEC3", "min": [4.62646484375, 0.211669921875, 0.636474609375], "max": [4.76220703125, 0.39990234375, 0.756591796875]}, {"bufferView": 74, "byteOffset": 0, "componentType": 5126, "count": 77, "type": "VEC2"}, {"bufferView": 75, "byteOffset": 0, "componentType": 5126, "count": 77, "type": "VEC3"}, {"bufferView": 76, "byteOffset": 0, "componentType": 5123, "count": 147, "type": "SCALAR"}, {"bufferView": 77, "byteOffset": 0, "componentType": 5126, "count": 4, "type": "VEC3", "min": [4.65234375, 0.398681640625, 0.66845703125], "max": [4.7392578125, 0.49853515625, 0.7177734375]}, {"bufferView": 78, "byteOffset": 0, "componentType": 5126, "count": 4, "type": "VEC2"}, {"bufferView": 79, "byteOffset": 0, "componentType": 5126, "count": 4, "type": "VEC3"}, {"bufferView": 80, "byteOffset": 0, "componentType": 5123, "count": 6, "type": "SCALAR"}, {"bufferView": 81, "byteOffset": 0, "componentType": 5126, "count": 176, "type": "VEC3", "min": [2.574951171875, 0.0, -0.002197265625], "max": [5.10009765625, 1.190673828125, 0.550048828125]}, {"bufferView": 82, "byteOffset": 0, "componentType": 5126, "count": 176, "type": "VEC2"}, {"bufferView": 83, "byteOffset": 0, "componentType": 5126, "count": 176, "type": "VEC3"}, {"bufferView": 84, "byteOffset": 0, "componentType": 5123, "count": 276, "type": "SCALAR"}, {"bufferView": 85, "byteOffset": 0, "componentType": 5126, "count": 8, "type": "VEC3", "min": [3.36962890625, 0.88427734375, -0.165283203125], "max": [4.0673828125, 1.08203125, -0.165283203125]}, {"bufferView": 86, "byteOffset": 0, "componentType": 5126, "count": 8, "type": "VEC2"}, {"bufferView": 87, "byteOffset": 0, "componentType": 5126, "count": 8, "type": "VEC3"}, {"bufferView": 88, "byteOffset": 0, "componentType": 5123, "count": 12, "type": "SCALAR"}, {"bufferView": 89, "byteOffset": 0, "componentType": 5126, "count": 14, "type": "VEC3", "min": [4.141357421875, 0.560546875, -0.1787109375], "max": [4.1962890625, 0.68798828125, -0.123046875]}, {"bufferView": 90, "byteOffset": 0, "componentType": 5126, "count": 14, "type": "VEC2"}, {"bufferView": 91, "byteOffset": 0, "componentType": 5126, "count": 14, "type": "VEC3"}, {"bufferView": 92, "byteOffset": 0, "componentType": 5123, "count": 24, "type": "SCALAR"}, {"bufferView": 93, "byteOffset": 0, "componentType": 5126, "count": 18, "type": "VEC3", "min": [3.930419921875, 0.37109375, -0.171875], "max": [3.9853515625, 0.529052734375, -0.112060546875]}, {"bufferView": 94, "byteOffset": 0, "componentType": 5126, "count": 18, "type": "VEC2"}, {"bufferView": 95, "byteOffset": 0, "componentType": 5126, "count": 18, "type": "VEC3"}, {"bufferView": 96, "byteOffset": 0, "componentType": 5123, "count": 30, "type": "SCALAR"}, {"bufferView": 97, "byteOffset": 0, "componentType": 5126, "count": 14, "type": "VEC3", "min": [4.03076171875, 0.5654296875, -0.177978515625], "max": [4.08544921875, 0.69287109375, -0.122314453125]}, {"bufferView": 98, "byteOffset": 0, "componentType": 5126, "count": 14, "type": "VEC2"}, {"bufferView": 99, "byteOffset": 0, "componentType": 5126, "count": 14, "type": "VEC3"}, {"bufferView": 100, "byteOffset": 0, "componentType": 5123, "count": 24, "type": "SCALAR"}, {"bufferView": 101, "byteOffset": 0, "componentType": 5126, "count": 70, "type": "VEC3", "min": [3.92333984375, 0.350341796875, -0.1787109375], "max": [5.072265625, 0.7001953125, 1.748779296875]}, {"bufferView": 102, "byteOffset": 0, "componentType": 5126, "count": 70, "type": "VEC2"}, {"bufferView": 103, "byteOffset": 0, "componentType": 5126, "count": 70, "type": "VEC3"}, {"bufferView": 104, "byteOffset": 0, "componentType": 5123, "count": 156, "type": "SCALAR"}, {"bufferView": 105, "byteOffset": 0, "componentType": 5126, "count": 34, "type": "VEC3", "min": [2.534912109375, 0.196533203125, -0.15576171875], "max": [4.49609375, 0.6767578125, 1.300048828125]}, {"bufferView": 106, "byteOffset": 0, "componentType": 5126, "count": 34, "type": "VEC2"}, {"bufferView": 107, "byteOffset": 0, "componentType": 5126, "count": 34, "type": "VEC3"}, {"bufferView": 108, "byteOffset": 0, "componentType": 5123, "count": 60, "type": "SCALAR"}, {"bufferView": 109, "byteOffset": 0, "componentType": 5126, "count": 17, "type": "VEC3", "min": [3.25, 0.010009765625, -0.199951171875], "max": [4.425048828125, 0.175048828125, 0.1201171875]}, {"bufferView": 110, "byteOffset": 0, "componentType": 5126, "count": 17, "type": "VEC2"}, {"bufferView": 111, "byteOffset": 0, "componentType": 5126, "count": 17, "type": "VEC3"}, {"bufferView": 112, "byteOffset": 0, "componentType": 5123, "count": 27, "type": "SCALAR"}, {"bufferView": 113, "byteOffset": 0, "componentType": 5126, "count": 8, "type": "VEC3", "min": [3.594482421875, 0.88427734375, -0.165283203125], "max": [4.29248046875, 1.08203125, -0.165283203125]}, {"bufferView": 114, "byteOffset": 0, "componentType": 5126, "count": 8, "type": "VEC2"}, {"bufferView": 115, "byteOffset": 0, "componentType": 5126, "count": 8, "type": "VEC3"}, {"bufferView": 116, "byteOffset": 0, "componentType": 5123, "count": 12, "type": "SCALAR"}, {"bufferView": 117, "byteOffset": 0, "componentType": 5126, "count": 32, "type": "VEC3", "min": [2.494384765625, -0.001953125, 0.52490234375], "max": [5.1806640625, 0.125, 2.47509765625]}, {"bufferView": 118, "byteOffset": 0, "componentType": 5126, "count": 32, "type": "VEC2"}, {"bufferView": 119, "byteOffset": 0, "componentType": 5126, "count": 32, "type": "VEC3"}, {"bufferView": 120, "byteOffset": 0, "componentType": 5123, "count": 48, "type": "SCALAR"}, {"bufferView": 121, "byteOffset": 0, "componentType": 5126, "count": 8, "type": "VEC3", "min": [2.53759765625, 0.279296875, 1.373779296875], "max": [2.55419921875, 0.433837890625, 1.567138671875]}, {"bufferView": 122, "byteOffset": 0, "componentType": 5126, "count": 8, "type": "VEC2"}, {"bufferView": 123, "byteOffset": 0, "componentType": 5126, "count": 8, "type": "VEC3"}, {"bufferView": 124, "byteOffset": 0, "componentType": 5123, "count": 12, "type": "SCALAR"}, {"bufferView": 125, "byteOffset": 0, "componentType": 5126, "count": 114, "type": "VEC3", "min": [0.222412109375, -0.093994140625, 2.536376953125], "max": [5.2646484375, 1.710693359375, 2.604248046875]}, {"bufferView": 126, "byteOffset": 0, "componentType": 5126, "count": 114, "type": "VEC2"}, {"bufferView": 127, "byteOffset": 0, "componentType": 5126, "count": 114, "type": "VEC3"}, {"bufferView": 128, "byteOffset": 0, "componentType": 5123, "count": 228, "type": "SCALAR"}, {"bufferView": 129, "byteOffset": 0, "componentType": 5126, "count": 66, "type": "VEC3", "min": [4.77880859375, 0.343994140625, 0.825927734375], "max": [4.92431640625, 0.533203125, 0.933837890625]}, {"bufferView": 130, "byteOffset": 0, "componentType": 5126, "count": 66, "type": "VEC2"}, {"bufferView": 131, "byteOffset": 0, "componentType": 5126, "count": 66, "type": "VEC3"}, {"bufferView": 132, "byteOffset": 0, "componentType": 5123, "count": 96, "type": "SCALAR"}, {"bufferView": 133, "byteOffset": 0, "componentType": 5126, "count": 38, "type": "VEC3", "min": [0.425537109375, 0.010009765625, 0.5], "max": [5.181640625, 0.166259765625, 1.87353515625]}, {"bufferView": 134, "byteOffset": 0, "componentType": 5126, "count": 38, "type": "VEC2"}, {"bufferView": 135, "byteOffset": 0, "componentType": 5126, "count": 38, "type": "VEC3"}, {"bufferView": 136, "byteOffset": 0, "componentType": 5123, "count": 54, "type": "SCALAR"}, {"bufferView": 137, "byteOffset": 0, "componentType": 5126, "count": 52, "type": "VEC3", "min": [0.46337890625, 0.000244140625, 1.4775390625], "max": [2.491455078125, 1.273681640625, 1.622314453125]}, {"bufferView": 138, "byteOffset": 0, "componentType": 5126, "count": 52, "type": "VEC2"}, {"bufferView": 139, "byteOffset": 0, "componentType": 5123, "count": 96, "type": "SCALAR"}, {"bufferView": 140, "byteOffset": 0, "componentType": 5126, "count": 22, "type": "VEC3", "min": [2.22509765625, 0.02099609375, 1.5498046875], "max": [2.47265625, 0.2236328125, 1.746337890625]}, {"bufferView": 141, "byteOffset": 0, "componentType": 5126, "count": 22, "type": "VEC2"}, {"bufferView": 142, "byteOffset": 0, "componentType": 5126, "count": 22, "type": "VEC3"}, {"bufferView": 143, "byteOffset": 0, "componentType": 5123, "count": 48, "type": "SCALAR"}, {"bufferView": 144, "byteOffset": 0, "componentType": 5126, "count": 42, "type": "VEC3", "min": [0.54833984375, 0.004150390625, 0.026611328125], "max": [1.72998046875, 0.447509765625, 1.778076171875]}, {"bufferView": 145, "byteOffset": 0, "componentType": 5126, "count": 42, "type": "VEC2"}, {"bufferView": 146, "byteOffset": 0, "componentType": 5123, "count": 72, "type": "SCALAR"}, {"bufferView": 147, "byteOffset": 0, "componentType": 5126, "count": 13, "type": "VEC3", "min": [1.1826171875, 0.6865234375, 1.5390625], "max": [1.81689453125, 1.003662109375, 1.5390625]}, {"bufferView": 148, "byteOffset": 0, "componentType": 5126, "count": 13, "type": "VEC2"}, {"bufferView": 149, "byteOffset": 0, "componentType": 5126, "count": 13, "type": "VEC3"}, {"bufferView": 150, "byteOffset": 0, "componentType": 5123, "count": 21, "type": "SCALAR"}, {"bufferView": 151, "byteOffset": 0, "componentType": 5126, "count": 26, "type": "VEC3", "min": [0.530029296875, 0.263916015625, -0.160888671875], "max": [5.1533203125, 1.46630859375, 2.58837890625]}, {"bufferView": 152, "byteOffset": 0, "componentType": 5126, "count": 26, "type": "VEC2"}, {"bufferView": 153, "byteOffset": 0, "componentType": 5126, "count": 26, "type": "VEC3"}, {"bufferView": 154, "byteOffset": 0, "componentType": 5123, "count": 54, "type": "SCALAR"}, {"bufferView": 155, "byteOffset": 0, "componentType": 5126, "count": 10, "type": "VEC3", "min": [0.49169921875, 0.0, 1.496826171875], "max": [2.5, 0.0, 2.502685546875]}, {"bufferView": 156, "byteOffset": 0, "componentType": 5126, "count": 10, "type": "VEC2"}, {"bufferView": 157, "byteOffset": 0, "componentType": 5126, "count": 10, "type": "VEC3"}, {"bufferView": 158, "byteOffset": 0, "componentType": 5123, "count": 18, "type": "SCALAR"}, {"bufferView": 159, "byteOffset": 0, "componentType": 5126, "count": 8, "type": "VEC3", "min": [0.708251953125, 0.489501953125, 1.633544921875], "max": [2.29638671875, 0.847900390625, 1.633544921875]}, {"bufferView": 160, "byteOffset": 0, "componentType": 5126, "count": 8, "type": "VEC2"}, {"bufferView": 161, "byteOffset": 0, "componentType": 5123, "count": 12, "type": "SCALAR"}, {"bufferView": 162, "byteOffset": 0, "componentType": 5126, "count": 12, "type": "VEC3", "min": [0.75830078125, 0.552490234375, 1.513916015625], "max": [2.234130859375, 0.8193359375, 1.576904296875]}, {"bufferView": 163, "byteOffset": 0, "componentType": 5126, "count": 12, "type": "VEC2"}, {"bufferView": 164, "byteOffset": 0, "componentType": 5126, "count": 12, "type": "VEC3"}, {"bufferView": 165, "byteOffset": 0, "componentType": 5123, "count": 24, "type": "SCALAR"}, {"bufferView": 166, "byteOffset": 0, "componentType": 5126, "count": 137, "type": "VEC3", "min": [4.84814453125, 0.13916015625, 1.48681640625], "max": [5.150390625, 0.363525390625, 1.825927734375]}, {"bufferView": 167, "byteOffset": 0, "componentType": 5126, "count": 137, "type": "VEC2"}, {"bufferView": 168, "byteOffset": 0, "componentType": 5126, "count": 137, "type": "VEC3"}, {"bufferView": 169, "byteOffset": 0, "componentType": 5123, "count": 243, "type": "SCALAR"}, {"bufferView": 170, "byteOffset": 0, "componentType": 5126, "count": 30, "type": "VEC3", "min": [2.982421875, 0.47216796875, 0.013427734375], "max": [5.182373046875, 0.74658203125, 2.0888671875]}, {"bufferView": 171, "byteOffset": 0, "componentType": 5126, "count": 30, "type": "VEC2"}, {"bufferView": 172, "byteOffset": 0, "componentType": 5126, "count": 30, "type": "VEC3"}, {"bufferView": 173, "byteOffset": 0, "componentType": 5123, "count": 54, "type": "SCALAR"}, {"bufferView": 174, "byteOffset": 0, "componentType": 5126, "count": 62, "type": "VEC3", "min": [2.390380859375, 0.343017578125, 1.06103515625], "max": [2.67578125, 0.744384765625, 1.230224609375]}, {"bufferView": 175, "byteOffset": 0, "componentType": 5126, "count": 62, "type": "VEC2"}, {"bufferView": 176, "byteOffset": 0, "componentType": 5126, "count": 62, "type": "VEC3"}, {"bufferView": 177, "byteOffset": 0, "componentType": 5123, "count": 108, "type": "SCALAR"}, {"bufferView": 178, "byteOffset": 0, "componentType": 5126, "count": 16, "type": "VEC3", "min": [3.3603515625, 0.7119140625, -0.22509765625], "max": [4.292724609375, 0.949951171875, -0.14990234375]}, {"bufferView": 179, "byteOffset": 0, "componentType": 5126, "count": 16, "type": "VEC2"}, {"bufferView": 180, "byteOffset": 0, "componentType": 5126, "count": 16, "type": "VEC3"}, {"bufferView": 181, "byteOffset": 0, "componentType": 5123, "count": 30, "type": "SCALAR"}, {"bufferView": 182, "byteOffset": 0, "componentType": 5126, "count": 42, "type": "VEC3", "min": [2.5, 0.14990234375, 0.5625], "max": [2.52490234375, 1.050048828125, 1.6875]}, {"bufferView": 183, "byteOffset": 0, "componentType": 5126, "count": 42, "type": "VEC2"}, {"bufferView": 184, "byteOffset": 0, "componentType": 5126, "count": 42, "type": "VEC3"}, {"bufferView": 185, "byteOffset": 0, "componentType": 5123, "count": 90, "type": "SCALAR"}, {"bufferView": 186, "byteOffset": 0, "componentType": 5126, "count": 8, "type": "VEC3", "min": [3.813720703125, 0.163818359375, -0.07958984375], "max": [4.22119140625, 0.32568359375, -0.013671875]}, {"bufferView": 187, "byteOffset": 0, "componentType": 5126, "count": 8, "type": "VEC2"}, {"bufferView": 188, "byteOffset": 0, "componentType": 5126, "count": 8, "type": "VEC3"}, {"bufferView": 189, "byteOffset": 0, "componentType": 5123, "count": 12, "type": "SCALAR"}, {"bufferView": 190, "byteOffset": 0, "componentType": 5126, "count": 28, "type": "VEC3", "min": [3.548583984375, 0.0, 1.181396484375], "max": [4.198486328125, 0.110107421875, 1.58154296875]}, {"bufferView": 191, "byteOffset": 0, "componentType": 5126, "count": 28, "type": "VEC2"}, {"bufferView": 192, "byteOffset": 0, "componentType": 5126, "count": 28, "type": "VEC3"}, {"bufferView": 193, "byteOffset": 0, "componentType": 5123, "count": 48, "type": "SCALAR"}, {"bufferView": 194, "byteOffset": 0, "componentType": 5126, "count": 8, "type": "VEC3", "min": [3.6484375, 0.0087890625, 1.181396484375], "max": [4.098388671875, 0.110107421875, 1.58154296875]}, {"bufferView": 195, "byteOffset": 0, "componentType": 5126, "count": 8, "type": "VEC2"}, {"bufferView": 196, "byteOffset": 0, "componentType": 5126, "count": 8, "type": "VEC3"}, {"bufferView": 197, "byteOffset": 0, "componentType": 5123, "count": 18, "type": "SCALAR"}, {"bufferView": 198, "byteOffset": 0, "componentType": 5126, "count": 80, "type": "VEC3", "min": [4.981689453125, 0.14990234375, 0.699951171875], "max": [5.22509765625, 1.0, 2.425048828125]}, {"bufferView": 199, "byteOffset": 0, "componentType": 5126, "count": 80, "type": "VEC2"}, {"bufferView": 200, "byteOffset": 0, "componentType": 5126, "count": 80, "type": "VEC3"}, {"bufferView": 201, "byteOffset": 0, "componentType": 5123, "count": 144, "type": "SCALAR"}, {"bufferView": 202, "byteOffset": 0, "componentType": 5126, "count": 20, "type": "VEC3", "min": [4.421875, 0.262939453125, 0.12548828125], "max": [5.007568359375, 0.6552734375, 0.864501953125]}, {"bufferView": 203, "byteOffset": 0, "componentType": 5126, "count": 20, "type": "VEC2"}, {"bufferView": 204, "byteOffset": 0, "componentType": 5126, "count": 20, "type": "VEC3"}, {"bufferView": 205, "byteOffset": 0, "componentType": 5123, "count": 30, "type": "SCALAR"}, {"bufferView": 206, "byteOffset": 0, "componentType": 5126, "count": 12, "type": "VEC3", "min": [4.583740234375, 0.31494140625, 0.25537109375], "max": [5.00341796875, 0.603759765625, 0.8076171875]}, {"bufferView": 207, "byteOffset": 0, "componentType": 5126, "count": 12, "type": "VEC2"}, {"bufferView": 208, "byteOffset": 0, "componentType": 5126, "count": 12, "type": "VEC3"}, {"bufferView": 209, "byteOffset": 0, "componentType": 5123, "count": 18, "type": "SCALAR"}, {"bufferView": 210, "byteOffset": 0, "componentType": 5126, "count": 8, "type": "VEC3", "min": [4.56591796875, 0.436279296875, 0.189208984375], "max": [4.95654296875, 0.552734375, 0.3115234375]}, {"bufferView": 211, "byteOffset": 0, "componentType": 5126, "count": 8, "type": "VEC2"}, {"bufferView": 212, "byteOffset": 0, "componentType": 5126, "count": 8, "type": "VEC3"}, {"bufferView": 213, "byteOffset": 0, "componentType": 5123, "count": 12, "type": "SCALAR"}, {"bufferView": 214, "byteOffset": 0, "componentType": 5126, "count": 14, "type": "VEC3", "min": [4.896240234375, 0.259521484375, 1.5986328125], "max": [4.9130859375, 0.310302734375, 1.630615234375]}, {"bufferView": 215, "byteOffset": 0, "componentType": 5126, "count": 14, "type": "VEC2"}, {"bufferView": 216, "byteOffset": 0, "componentType": 5123, "count": 30, "type": "SCALAR"}], "samplers": [{"magFilter": 9729, "minFilter": 9729, "wrapS": 10497, "wrapT": 10497}]}