{"asset": {"version": "2.0", "generator": "tongari-nsbmd-to-gltf"}, "scene": 0, "scenes": [{"nodes": [0, 2]}], "nodes": [{"name": "root", "translation": [0.0, 0.0, 0.0], "children": [1]}, {"name": "joint1", "translation": [0.0, 0.88134765625, 0.02392578125], "rotation": [0.27057513142351286, 0.6532670300114647, 0.27057513142351286, 0.6532670300114648]}, {"mesh": 0, "name": "3277IMIG05_03"}], "meshes": [{"name": "3277IMIG05_03", "primitives": [{"attributes": {"POSITION": 0, "TEXCOORD_0": 1, "NORMAL": 2}, "indices": 3, "mode": 4, "material": 0}]}], "materials": [{"name": "imig05_03_0", "pbrMetallicRoughness": {"baseColorFactor": [1.0, 1.0, 1.0, 1.0], "metallicFactor": 0.0, "roughnessFactor": 1.0}, "alphaMode": "OPAQUE", "doubleSided": true}], "buffers": [{"byteLength": 2540, "uri": "data:application/octet-stream;base64,"}], "bufferViews": [{"buffer": 0, "byteOffset": 0, "byteLength": 840}, {"buffer": 0, "byteOffset": 840, "byteLength": 560}, {"buffer": 0, "byteOffset": 1400, "byteLength": 840}, {"buffer": 0, "byteOffset": 2240, "byteLength": 300}], "accessors": [{"bufferView": 0, "byteOffset": 0, "componentType": 5126, "count": 70, "type": "VEC3", "min": [-0.906494140625, 0.2582073211669922, -0.5992145538330078], "max": [0.85791015625, 1.505523681640625, 0.648101806640625]}, {"bufferView": 1, "byteOffset": 0, "componentType": 5126, "count": 70, "type": "VEC2"}, {"bufferView": 2, "byteOffset": 0, "componentType": 5126, "count": 70, "type": "VEC3"}, {"bufferView": 3, "byteOffset": 0, "componentType": 5123, "count": 150, "type": "SCALAR"}], "samplers": [{"magFilter": 9729, "minFilter": 9729, "wrapS": 10497, "wrapT": 10497}]}