{"asset": {"version": "2.0", "generator": "tongari-nsbmd-to-gltf"}, "scene": 0, "scenes": [{"nodes": [0, 1]}], "nodes": [{"name": "falk_pPlane2", "translation": [0.0, 0.0, 0.0]}, {"mesh": 0, "name": "2754falk"}], "meshes": [{"name": "2754falk", "primitives": [{"attributes": {"POSITION": 0, "TEXCOORD_0": 1, "NORMAL": 2}, "indices": 3, "mode": 4, "material": 0}]}], "materials": [{"name": "spoon", "pbrMetallicRoughness": {"baseColorFactor": [1.0, 1.0, 1.0, 1.0], "metallicFactor": 0.0, "roughnessFactor": 1.0}, "alphaMode": "OPAQUE", "doubleSided": true}], "buffers": [{"byteLength": 2098, "uri": "data:application/octet-stream;base64,"}], "bufferViews": [{"buffer": 0, "byteOffset": 0, "byteLength": 708}, {"buffer": 0, "byteOffset": 708, "byteLength": 472}, {"buffer": 0, "byteOffset": 1180, "byteLength": 708}, {"buffer": 0, "byteOffset": 1888, "byteLength": 210}], "accessors": [{"bufferView": 0, "byteOffset": 0, "componentType": 5126, "count": 59, "type": "VEC3", "min": [-0.075439453125, -0.079833984375, -0.150146484375], "max": [0.006591796875, 0.079833984375, 0.52294921875]}, {"bufferView": 1, "byteOffset": 0, "componentType": 5126, "count": 59, "type": "VEC2"}, {"bufferView": 2, "byteOffset": 0, "componentType": 5126, "count": 59, "type": "VEC3"}, {"bufferView": 3, "byteOffset": 0, "componentType": 5123, "count": 105, "type": "SCALAR"}], "samplers": [{"magFilter": 9729, "minFilter": 9729, "wrapS": 10497, "wrapT": 10497}]}