{"asset": {"version": "2.0", "generator": "tongari-nsbmd-to-gltf"}, "scene": 0, "scenes": [{"nodes": [0, 2]}], "nodes": [{"name": "root", "translation": [0.0, 0.89013671875, 0.164306640625], "rotation": [0.35883302309629156, 0.6092748315107888, 0.35883302309629156, 0.6092748315107888], "children": [1]}, {"name": "bone1", "translation": [0.0, 0.0, 0.346435546875]}, {"mesh": 0, "name": "3400IMIG19_08"}], "meshes": [{"name": "3400IMIG19_08", "primitives": [{"attributes": {"POSITION": 0, "TEXCOORD_0": 1, "NORMAL": 2}, "indices": 3, "mode": 4, "material": 0}, {"attributes": {"POSITION": 4, "TEXCOORD_0": 5, "NORMAL": 6}, "indices": 7, "mode": 4, "material": 3}, {"attributes": {"POSITION": 8, "TEXCOORD_0": 9, "NORMAL": 10}, "indices": 11, "mode": 4, "material": 1}, {"attributes": {"POSITION": 12, "TEXCOORD_0": 13, "NORMAL": 14}, "indices": 15, "mode": 4, "material": 2}, {"attributes": {"POSITION": 16, "TEXCOORD_0": 17, "NORMAL": 18}, "indices": 19, "mode": 4, "material": 4}]}], "materials": [{"name": "imig19_08_0", "pbrMetallicRoughness": {"baseColorFactor": [1.0, 1.0, 1.0, 1.0], "metallicFactor": 0.0, "roughnessFactor": 1.0}, "alphaMode": "OPAQUE", "doubleSided": true}, {"name": "imig19_08_1", "pbrMetallicRoughness": {"baseColorFactor": [1.0, 1.0, 1.0, 1.0], "metallicFactor": 0.0, "roughnessFactor": 1.0}, "alphaMode": "OPAQUE", "doubleSided": true}, {"name": "imig19_08_2", "pbrMetallicRoughness": {"baseColorFactor": [1.0, 1.0, 1.0, 1.0], "metallicFactor": 0.0, "roughnessFactor": 1.0}, "alphaMode": "OPAQUE", "doubleSided": true}, {"name": "imig19_08_3", "pbrMetallicRoughness": {"baseColorFactor": [1.0, 1.0, 1.0, 1.0], "metallicFactor": 0.0, "roughnessFactor": 1.0}, "alphaMode": "OPAQUE", "doubleSided": true}, {"name": "imig19_08_4", "pbrMetallicRoughness": {"baseColorFactor": [1.0, 1.0, 1.0, 1.0], "metallicFactor": 0.0, "roughnessFactor": 1.0}, "alphaMode": "OPAQUE", "doubleSided": true}], "buffers": [{"byteLength": 4132, "uri": "data:application/octet-stream;base64,"}], "bufferViews": [{"buffer": 0, "byteOffset": 0, "byteLength": 144}, {"buffer": 0, "byteOffset": 144, "byteLength": 96}, {"buffer": 0, "byteOffset": 240, "byteLength": 144}, {"buffer": 0, "byteOffset": 384, "byteLength": 60}, {"buffer": 0, "byteOffset": 444, "byteLength": 600}, {"buffer": 0, "byteOffset": 1044, "byteLength": 400}, {"buffer": 0, "byteOffset": 1444, "byteLength": 600}, {"buffer": 0, "byteOffset": 2044, "byteLength": 168}, {"buffer": 0, "byteOffset": 2212, "byteLength": 240}, {"buffer": 0, "byteOffset": 2452, "byteLength": 160}, {"buffer": 0, "byteOffset": 2612, "byteLength": 240}, {"buffer": 0, "byteOffset": 2852, "byteLength": 72}, {"buffer": 0, "byteOffset": 2924, "byteLength": 360}, {"buffer": 0, "byteOffset": 3284, "byteLength": 240}, {"buffer": 0, "byteOffset": 3524, "byteLength": 360}, {"buffer": 0, "byteOffset": 3884, "byteLength": 108}, {"buffer": 0, "byteOffset": 3992, "byteLength": 48}, {"buffer": 0, "byteOffset": 4040, "byteLength": 32}, {"buffer": 0, "byteOffset": 4072, "byteLength": 48}, {"buffer": 0, "byteOffset": 4120, "byteLength": 12}], "accessors": [{"bufferView": 0, "byteOffset": 0, "componentType": 5126, "count": 12, "type": "VEC3", "min": [-0.731689453125, 0.23525750637054443, -0.5717176198959351], "max": [0.725341796875, 1.6650480031967163, 1.1168237924575806]}, {"bufferView": 1, "byteOffset": 0, "componentType": 5126, "count": 12, "type": "VEC2"}, {"bufferView": 2, "byteOffset": 0, "componentType": 5126, "count": 12, "type": "VEC3"}, {"bufferView": 3, "byteOffset": 0, "componentType": 5123, "count": 30, "type": "SCALAR"}, {"bufferView": 4, "byteOffset": 0, "componentType": 5126, "count": 50, "type": "VEC3", "min": [-0.96142578125, 0.00016510486602783203, -0.9957362413406372], "max": [0.725341796875, 1.6650480031967163, 1.1168237924575806]}, {"bufferView": 5, "byteOffset": 0, "componentType": 5126, "count": 50, "type": "VEC2"}, {"bufferView": 6, "byteOffset": 0, "componentType": 5126, "count": 50, "type": "VEC3"}, {"bufferView": 7, "byteOffset": 0, "componentType": 5123, "count": 84, "type": "SCALAR"}, {"bufferView": 8, "byteOffset": 0, "componentType": 5126, "count": 20, "type": "VEC3", "min": [-0.403076171875, 0.6184078454971313, 0.005150437355041504], "max": [0.163818359375, 1.4654569625854492, 0.7140840291976929]}, {"bufferView": 9, "byteOffset": 0, "componentType": 5126, "count": 20, "type": "VEC2"}, {"bufferView": 10, "byteOffset": 0, "componentType": 5126, "count": 20, "type": "VEC3"}, {"bufferView": 11, "byteOffset": 0, "componentType": 5123, "count": 36, "type": "SCALAR"}, {"bufferView": 12, "byteOffset": 0, "componentType": 5126, "count": 30, "type": "VEC3", "min": [-0.96142578125, -0.05684041976928711, -1.0273423194885254], "max": [0.578125, 1.7221719026565552, 1.1486433744430542]}, {"bufferView": 13, "byteOffset": 0, "componentType": 5126, "count": 30, "type": "VEC2"}, {"bufferView": 14, "byteOffset": 0, "componentType": 5126, "count": 30, "type": "VEC3"}, {"bufferView": 15, "byteOffset": 0, "componentType": 5123, "count": 54, "type": "SCALAR"}, {"bufferView": 16, "byteOffset": 0, "componentType": 5126, "count": 4, "type": "VEC3", "min": [-0.37255859375, 0.6495733261108398, 0.23259496688842773], "max": [-0.1728515625, 1.1130297183990479, 0.6300318241119385]}, {"bufferView": 17, "byteOffset": 0, "componentType": 5126, "count": 4, "type": "VEC2"}, {"bufferView": 18, "byteOffset": 0, "componentType": 5126, "count": 4, "type": "VEC3"}, {"bufferView": 19, "byteOffset": 0, "componentType": 5123, "count": 6, "type": "SCALAR"}], "samplers": [{"magFilter": 9729, "minFilter": 9729, "wrapS": 10497, "wrapT": 10497}]}