{"asset": {"version": "2.0", "generator": "tongari-nsbmd-to-gltf"}, "scene": 0, "scenes": [{"nodes": [0, 2]}], "nodes": [{"name": "tp_princess00", "translation": [0.0, 0.0, 0.0], "children": [1]}, {"name": "door00", "translation": [2.35009765625, -0.0478515625, 0.41064453125], "rotation": [0.5507119858930347, 0.44353982039523543, 0.5507119858930346, 0.44353982039523543]}, {"mesh": 0, "name": "tp_princess00"}], "meshes": [{"name": "tp_princess00", "primitives": [{"attributes": {"POSITION": 0, "TEXCOORD_0": 1, "NORMAL": 2}, "indices": 3, "mode": 4, "material": 6}, {"attributes": {"POSITION": 4, "TEXCOORD_0": 5}, "indices": 6, "mode": 4, "material": 7}, {"attributes": {"POSITION": 7, "TEXCOORD_0": 8, "NORMAL": 9}, "indices": 10, "mode": 4, "material": 8}, {"attributes": {"POSITION": 11, "TEXCOORD_0": 12, "NORMAL": 13}, "indices": 14, "mode": 4, "material": 9}, {"attributes": {"POSITION": 15, "TEXCOORD_0": 16, "NORMAL": 17}, "indices": 18, "mode": 4, "material": 10}, {"attributes": {"POSITION": 19, "TEXCOORD_0": 20, "NORMAL": 21}, "indices": 22, "mode": 4, "material": 17}, {"attributes": {"POSITION": 23, "TEXCOORD_0": 24, "NORMAL": 25}, "indices": 26, "mode": 4, "material": 11}, {"attributes": {"POSITION": 27, "TEXCOORD_0": 28, "NORMAL": 29}, "indices": 30, "mode": 4, "material": 16}, {"attributes": {"POSITION": 31, "TEXCOORD_0": 32, "NORMAL": 33}, "indices": 34, "mode": 4, "material": 13}, {"attributes": {"POSITION": 35, "TEXCOORD_0": 36}, "indices": 37, "mode": 4, "material": 5}, {"attributes": {"POSITION": 38, "TEXCOORD_0": 39}, "indices": 40, "mode": 4, "material": 1}, {"attributes": {"POSITION": 41, "TEXCOORD_0": 42}, "indices": 43, "mode": 4, "material": 4}, {"attributes": {"POSITION": 44, "TEXCOORD_0": 45}, "indices": 46, "mode": 4, "material": 3}, {"attributes": {"POSITION": 47, "TEXCOORD_0": 48}, "indices": 49, "mode": 4, "material": 2}, {"attributes": {"POSITION": 50, "TEXCOORD_0": 51}, "indices": 52, "mode": 4, "material": 20}, {"attributes": {"POSITION": 53, "TEXCOORD_0": 54, "NORMAL": 55}, "indices": 56, "mode": 4, "material": 14}, {"attributes": {"POSITION": 57, "TEXCOORD_0": 58, "NORMAL": 59}, "indices": 60, "mode": 4, "material": 13}, {"attributes": {"POSITION": 61, "TEXCOORD_0": 62, "NORMAL": 63}, "indices": 64, "mode": 4, "material": 12}, {"attributes": {"POSITION": 65, "TEXCOORD_0": 66, "NORMAL": 67}, "indices": 68, "mode": 4, "material": 15}, {"attributes": {"POSITION": 69, "TEXCOORD_0": 70, "NORMAL": 71}, "indices": 72, "mode": 4, "material": 19}, {"attributes": {"POSITION": 73, "TEXCOORD_0": 74, "NORMAL": 75}, "indices": 76, "mode": 4, "material": 18}, {"attributes": {"POSITION": 77, "TEXCOORD_0": 78, "NORMAL": 79}, "indices": 80, "mode": 4, "material": 10}, {"attributes": {"POSITION": 81, "TEXCOORD_0": 82}, "indices": 83, "mode": 4, "material": 0}]}], "materials": [{"name": "house_door", "pbrMetallicRoughness": {"baseColorFactor": [1.0, 1.0, 1.0, 1.0], "metallicFactor": 0.0, "roughnessFactor": 1.0}, "alphaMode": "OPAQUE", "doubleSided": true}, {"name": "kanban01", "pbrMetallicRoughness": {"baseColorFactor": [1.0, 1.0, 1.0, 1.0], "metallicFactor": 0.0, "roughnessFactor": 1.0}, "alphaMode": "OPAQUE", "doubleSided": true}, {"name": "kanban_g03", "pbrMetallicRoughness": {"baseColorFactor": [1.0, 1.0, 1.0, 1.0], "metallicFactor": 0.0, "roughnessFactor": 1.0}, "alphaMode": "OPAQUE", "doubleSided": true}, {"name": "kanban_g04", "pbrMetallicRoughness": {"baseColorFactor": [1.0, 1.0, 1.0, 1.0], "metallicFactor": 0.0, "roughnessFactor": 1.0}, "alphaMode": "OPAQUE", "doubleSided": true}, {"name": "kanban_g05", "pbrMetallicRoughness": {"baseColorFactor": [1.0, 1.0, 1.0, 1.0], "metallicFactor": 0.0, "roughnessFactor": 1.0}, "alphaMode": "OPAQUE", "doubleSided": true}, {"name": "lambert54", "pbrMetallicRoughness": {"baseColorFactor": [1.0, 1.0, 1.0, 1.0], "metallicFactor": 0.0, "roughnessFactor": 1.0}, "alphaMode": "OPAQUE", "doubleSided": true}, {"name": "lambert55", "pbrMetallicRoughness": {"baseColorFactor": [1.0, 1.0, 1.0, 1.0], "metallicFactor": 0.0, "roughnessFactor": 1.0}, "alphaMode": "OPAQUE", "doubleSided": true}, {"name": "lambert61", "pbrMetallicRoughness": {"baseColorFactor": [1.0, 1.0, 1.0, 1.0], "metallicFactor": 0.0, "roughnessFactor": 1.0}, "alphaMode": "OPAQUE", "doubleSided": true}, {"name": "menu", "pbrMetallicRoughness": {"baseColorFactor": [1.0, 1.0, 1.0, 1.0], "metallicFactor": 0.0, "roughnessFactor": 1.0}, "alphaMode": "OPAQUE", "doubleSided": true}, {"name": "pri_arch", "pbrMetallicRoughness": {"baseColorFactor": [0.803921568627451, 0.803921568627451, 0.803921568627451, 1.0], "metallicFactor": 0.0, "roughnessFactor": 1.0}, "alphaMode": "OPAQUE", "doubleSided": true}, {"name": "pri_bara", "pbrMetallicRoughness": {"baseColorFactor": [0.803921568627451, 0.803921568627451, 0.803921568627451, 1.0], "metallicFactor": 0.0, "roughnessFactor": 1.0}, "alphaMode": "OPAQUE", "doubleSided": true}, {"name": "pri_bara_r", "pbrMetallicRoughness": {"baseColorFactor": [0.803921568627451, 0.803921568627451, 0.803921568627451, 1.0], "metallicFactor": 0.0, "roughnessFactor": 1.0}, "alphaMode": "OPAQUE", "doubleSided": true}, {"name": "pri_hasira00", "pbrMetallicRoughness": {"baseColorFactor": [0.803921568627451, 0.803921568627451, 0.803921568627451, 1.0], "metallicFactor": 0.0, "roughnessFactor": 1.0}, "alphaMode": "OPAQUE", "doubleSided": true}, {"name": "pri_kabe00", "pbrMetallicRoughness": {"baseColorFactor": [0.803921568627451, 0.803921568627451, 0.803921568627451, 1.0], "metallicFactor": 0.0, "roughnessFactor": 1.0}, "alphaMode": "OPAQUE", "doubleSided": true}, {"name": "pri_kanban", "pbrMetallicRoughness": {"baseColorFactor": [1.0, 1.0, 1.0, 1.0], "metallicFactor": 0.0, "roughnessFactor": 1.0}, "alphaMode": "OPAQUE", "doubleSided": true}, {"name": "pri_mado00", "pbrMetallicRoughness": {"baseColorFactor": [0.803921568627451, 0.803921568627451, 0.803921568627451, 1.0], "metallicFactor": 0.0, "roughnessFactor": 1.0}, "alphaMode": "OPAQUE", "doubleSided": true}, {"name": "pri_ribon_p00", "pbrMetallicRoughness": {"baseColorFactor": [0.803921568627451, 0.803921568627451, 0.803921568627451, 1.0], "metallicFactor": 0.0, "roughnessFactor": 1.0}, "alphaMode": "OPAQUE", "doubleSided": true}, {"name": "pri_ribon_p01", "pbrMetallicRoughness": {"baseColorFactor": [0.803921568627451, 0.803921568627451, 0.803921568627451, 1.0], "metallicFactor": 0.0, "roughnessFactor": 1.0}, "alphaMode": "OPAQUE", "doubleSided": true}, {"name": "pri_saku00", "pbrMetallicRoughness": {"baseColorFactor": [0.803921568627451, 0.803921568627451, 0.803921568627451, 1.0], "metallicFactor": 0.0, "roughnessFactor": 1.0}, "alphaMode": "OPAQUE", "doubleSided": true}, {"name": "pri_yane", "pbrMetallicRoughness": {"baseColorFactor": [0.803921568627451, 0.803921568627451, 0.803921568627451, 1.0], "metallicFactor": 0.0, "roughnessFactor": 1.0}, "alphaMode": "OPAQUE", "doubleSided": true}, {"name": "ts_depart00:kuro", "pbrMetallicRoughness": {"baseColorFactor": [1.0, 1.0, 1.0, 1.0], "metallicFactor": 0.0, "roughnessFactor": 1.0}, "alphaMode": "OPAQUE", "doubleSided": true}], "buffers": [{"byteLength": 10448, "uri": "data:application/octet-stream;base64,"}], "bufferViews": [{"buffer": 0, "byteOffset": 0, "byteLength": 144}, {"buffer": 0, "byteOffset": 144, "byteLength": 96}, {"buffer": 0, "byteOffset": 240, "byteLength": 144}, {"buffer": 0, "byteOffset": 384, "byteLength": 36}, {"buffer": 0, "byteOffset": 420, "byteLength": 384}, {"buffer": 0, "byteOffset": 804, "byteLength": 256}, {"buffer": 0, "byteOffset": 1060, "byteLength": 96}, {"buffer": 0, "byteOffset": 1156, "byteLength": 96}, {"buffer": 0, "byteOffset": 1252, "byteLength": 64}, {"buffer": 0, "byteOffset": 1316, "byteLength": 96}, {"buffer": 0, "byteOffset": 1412, "byteLength": 24}, {"buffer": 0, "byteOffset": 1436, "byteLength": 144}, {"buffer": 0, "byteOffset": 1580, "byteLength": 96}, {"buffer": 0, "byteOffset": 1676, "byteLength": 144}, {"buffer": 0, "byteOffset": 1820, "byteLength": 60}, {"buffer": 0, "byteOffset": 1880, "byteLength": 144}, {"buffer": 0, "byteOffset": 2024, "byteLength": 96}, {"buffer": 0, "byteOffset": 2120, "byteLength": 144}, {"buffer": 0, "byteOffset": 2264, "byteLength": 36}, {"buffer": 0, "byteOffset": 2300, "byteLength": 48}, {"buffer": 0, "byteOffset": 2348, "byteLength": 32}, {"buffer": 0, "byteOffset": 2380, "byteLength": 48}, {"buffer": 0, "byteOffset": 2428, "byteLength": 12}, {"buffer": 0, "byteOffset": 2440, "byteLength": 48}, {"buffer": 0, "byteOffset": 2488, "byteLength": 32}, {"buffer": 0, "byteOffset": 2520, "byteLength": 48}, {"buffer": 0, "byteOffset": 2568, "byteLength": 12}, {"buffer": 0, "byteOffset": 2580, "byteLength": 48}, {"buffer": 0, "byteOffset": 2628, "byteLength": 32}, {"buffer": 0, "byteOffset": 2660, "byteLength": 48}, {"buffer": 0, "byteOffset": 2708, "byteLength": 12}, {"buffer": 0, "byteOffset": 2720, "byteLength": 324}, {"buffer": 0, "byteOffset": 3044, "byteLength": 216}, {"buffer": 0, "byteOffset": 3260, "byteLength": 324}, {"buffer": 0, "byteOffset": 3584, "byteLength": 102}, {"buffer": 0, "byteOffset": 3688, "byteLength": 96}, {"buffer": 0, "byteOffset": 3784, "byteLength": 64}, {"buffer": 0, "byteOffset": 3848, "byteLength": 24}, {"buffer": 0, "byteOffset": 3872, "byteLength": 48}, {"buffer": 0, "byteOffset": 3920, "byteLength": 32}, {"buffer": 0, "byteOffset": 3952, "byteLength": 12}, {"buffer": 0, "byteOffset": 3964, "byteLength": 48}, {"buffer": 0, "byteOffset": 4012, "byteLength": 32}, {"buffer": 0, "byteOffset": 4044, "byteLength": 12}, {"buffer": 0, "byteOffset": 4056, "byteLength": 48}, {"buffer": 0, "byteOffset": 4104, "byteLength": 32}, {"buffer": 0, "byteOffset": 4136, "byteLength": 12}, {"buffer": 0, "byteOffset": 4148, "byteLength": 48}, {"buffer": 0, "byteOffset": 4196, "byteLength": 32}, {"buffer": 0, "byteOffset": 4228, "byteLength": 12}, {"buffer": 0, "byteOffset": 4240, "byteLength": 48}, {"buffer": 0, "byteOffset": 4288, "byteLength": 32}, {"buffer": 0, "byteOffset": 4320, "byteLength": 12}, {"buffer": 0, "byteOffset": 4332, "byteLength": 48}, {"buffer": 0, "byteOffset": 4380, "byteLength": 32}, {"buffer": 0, "byteOffset": 4412, "byteLength": 48}, {"buffer": 0, "byteOffset": 4460, "byteLength": 12}, {"buffer": 0, "byteOffset": 4472, "byteLength": 312}, {"buffer": 0, "byteOffset": 4784, "byteLength": 208}, {"buffer": 0, "byteOffset": 4992, "byteLength": 312}, {"buffer": 0, "byteOffset": 5304, "byteLength": 84}, {"buffer": 0, "byteOffset": 5388, "byteLength": 840}, {"buffer": 0, "byteOffset": 6228, "byteLength": 560}, {"buffer": 0, "byteOffset": 6788, "byteLength": 840}, {"buffer": 0, "byteOffset": 7628, "byteLength": 204}, {"buffer": 0, "byteOffset": 7832, "byteLength": 192}, {"buffer": 0, "byteOffset": 8024, "byteLength": 128}, {"buffer": 0, "byteOffset": 8152, "byteLength": 192}, {"buffer": 0, "byteOffset": 8344, "byteLength": 48}, {"buffer": 0, "byteOffset": 8392, "byteLength": 228}, {"buffer": 0, "byteOffset": 8620, "byteLength": 152}, {"buffer": 0, "byteOffset": 8772, "byteLength": 228}, {"buffer": 0, "byteOffset": 9000, "byteLength": 54}, {"buffer": 0, "byteOffset": 9056, "byteLength": 300}, {"buffer": 0, "byteOffset": 9356, "byteLength": 200}, {"buffer": 0, "byteOffset": 9556, "byteLength": 300}, {"buffer": 0, "byteOffset": 9856, "byteLength": 78}, {"buffer": 0, "byteOffset": 9936, "byteLength": 144}, {"buffer": 0, "byteOffset": 10080, "byteLength": 96}, {"buffer": 0, "byteOffset": 10176, "byteLength": 144}, {"buffer": 0, "byteOffset": 10320, "byteLength": 36}, {"buffer": 0, "byteOffset": 10356, "byteLength": 48}, {"buffer": 0, "byteOffset": 10404, "byteLength": 32}, {"buffer": 0, "byteOffset": 10436, "byteLength": 12}], "accessors": [{"bufferView": 0, "byteOffset": 0, "componentType": 5126, "count": 12, "type": "VEC3", "min": [0.3994140625, 2.30517578125, -0.752197265625], "max": [1.19775390625, 2.755859375, -0.010009765625]}, {"bufferView": 1, "byteOffset": 0, "componentType": 5126, "count": 12, "type": "VEC2"}, {"bufferView": 2, "byteOffset": 0, "componentType": 5126, "count": 12, "type": "VEC3"}, {"bufferView": 3, "byteOffset": 0, "componentType": 5123, "count": 18, "type": "SCALAR"}, {"bufferView": 4, "byteOffset": 0, "componentType": 5126, "count": 32, "type": "VEC3", "min": [-0.7529296875, 2.244140625, -1.083251953125], "max": [1.420166015625, 3.364013671875, 0.060546875]}, {"bufferView": 5, "byteOffset": 0, "componentType": 5126, "count": 32, "type": "VEC2"}, {"bufferView": 6, "byteOffset": 0, "componentType": 5123, "count": 48, "type": "SCALAR"}, {"bufferView": 7, "byteOffset": 0, "componentType": 5126, "count": 8, "type": "VEC3", "min": [-0.2412109375, 0.0, 0.20556640625], "max": [0.008056640625, 0.343017578125, 0.2099609375]}, {"bufferView": 8, "byteOffset": 0, "componentType": 5126, "count": 8, "type": "VEC2"}, {"bufferView": 9, "byteOffset": 0, "componentType": 5126, "count": 8, "type": "VEC3"}, {"bufferView": 10, "byteOffset": 0, "componentType": 5123, "count": 12, "type": "SCALAR"}, {"bufferView": 11, "byteOffset": 0, "componentType": 5126, "count": 12, "type": "VEC3", "min": [-0.013427734375, -0.02978515625, -0.20751953125], "max": [0.760986328125, 0.771728515625, 0.10205078125]}, {"bufferView": 12, "byteOffset": 0, "componentType": 5126, "count": 12, "type": "VEC2"}, {"bufferView": 13, "byteOffset": 0, "componentType": 5126, "count": 12, "type": "VEC3"}, {"bufferView": 14, "byteOffset": 0, "componentType": 5123, "count": 30, "type": "SCALAR"}, {"bufferView": 15, "byteOffset": 0, "componentType": 5126, "count": 12, "type": "VEC3", "min": [-1.575439453125, 0.946044921875, -0.484130859375], "max": [1.398681640625, 2.464599609375, 0.1015625]}, {"bufferView": 16, "byteOffset": 0, "componentType": 5126, "count": 12, "type": "VEC2"}, {"bufferView": 17, "byteOffset": 0, "componentType": 5126, "count": 12, "type": "VEC3"}, {"bufferView": 18, "byteOffset": 0, "componentType": 5123, "count": 18, "type": "SCALAR"}, {"bufferView": 19, "byteOffset": 0, "componentType": 5126, "count": 4, "type": "VEC3", "min": [-0.43798828125, 0.881591796875, -0.386474609375], "max": [0.46826171875, 1.607177734375, -0.10107421875]}, {"bufferView": 20, "byteOffset": 0, "componentType": 5126, "count": 4, "type": "VEC2"}, {"bufferView": 21, "byteOffset": 0, "componentType": 5126, "count": 4, "type": "VEC3"}, {"bufferView": 22, "byteOffset": 0, "componentType": 5123, "count": 6, "type": "SCALAR"}, {"bufferView": 23, "byteOffset": 0, "componentType": 5126, "count": 4, "type": "VEC3", "min": [0.776611328125, 1.025634765625, -0.34619140625], "max": [1.552490234375, 1.652099609375, -0.088623046875]}, {"bufferView": 24, "byteOffset": 0, "componentType": 5126, "count": 4, "type": "VEC2"}, {"bufferView": 25, "byteOffset": 0, "componentType": 5126, "count": 4, "type": "VEC3"}, {"bufferView": 26, "byteOffset": 0, "componentType": 5123, "count": 6, "type": "SCALAR"}, {"bufferView": 27, "byteOffset": 0, "componentType": 5126, "count": 4, "type": "VEC3", "min": [-1.273193359375, 1.478759765625, -0.135498046875], "max": [-0.40185546875, 2.18310546875, 0.05078125]}, {"bufferView": 28, "byteOffset": 0, "componentType": 5126, "count": 4, "type": "VEC2"}, {"bufferView": 29, "byteOffset": 0, "componentType": 5126, "count": 4, "type": "VEC3"}, {"bufferView": 30, "byteOffset": 0, "componentType": 5123, "count": 6, "type": "SCALAR"}, {"bufferView": 31, "byteOffset": 0, "componentType": 5126, "count": 27, "type": "VEC3", "min": [-0.189453125, -0.015625, -0.379150390625], "max": [0.935791015625, 1.212890625, 0.083251953125]}, {"bufferView": 32, "byteOffset": 0, "componentType": 5126, "count": 27, "type": "VEC2"}, {"bufferView": 33, "byteOffset": 0, "componentType": 5126, "count": 27, "type": "VEC3"}, {"bufferView": 34, "byteOffset": 0, "componentType": 5123, "count": 51, "type": "SCALAR"}, {"bufferView": 35, "byteOffset": 0, "componentType": 5126, "count": 8, "type": "VEC3", "min": [-0.473388671875, 0.5224609375, -0.118896484375], "max": [-0.08251953125, 1.611572265625, -0.099853515625]}, {"bufferView": 36, "byteOffset": 0, "componentType": 5126, "count": 8, "type": "VEC2"}, {"bufferView": 37, "byteOffset": 0, "componentType": 5123, "count": 12, "type": "SCALAR"}, {"bufferView": 38, "byteOffset": 0, "componentType": 5126, "count": 4, "type": "VEC3", "min": [0.65869140625, 2.510009765625, -0.282470703125], "max": [1.291748046875, 2.97802734375, 0.188232421875]}, {"bufferView": 39, "byteOffset": 0, "componentType": 5126, "count": 4, "type": "VEC2"}, {"bufferView": 40, "byteOffset": 0, "componentType": 5123, "count": 6, "type": "SCALAR"}, {"bufferView": 41, "byteOffset": 0, "componentType": 5126, "count": 4, "type": "VEC3", "min": [0.675048828125, 1.57470703125, -0.1787109375], "max": [1.52392578125, 2.326171875, 0.233642578125]}, {"bufferView": 42, "byteOffset": 0, "componentType": 5126, "count": 4, "type": "VEC2"}, {"bufferView": 43, "byteOffset": 0, "componentType": 5123, "count": 6, "type": "SCALAR"}, {"bufferView": 44, "byteOffset": 0, "componentType": 5126, "count": 4, "type": "VEC3", "min": [-0.67138671875, 1.5732421875, -0.009033203125], "max": [0.168701171875, 2.379638671875, 0.2333984375]}, {"bufferView": 45, "byteOffset": 0, "componentType": 5126, "count": 4, "type": "VEC2"}, {"bufferView": 46, "byteOffset": 0, "componentType": 5123, "count": 6, "type": "SCALAR"}, {"bufferView": 47, "byteOffset": 0, "componentType": 5126, "count": 4, "type": "VEC3", "min": [0.10986328125, 0.655029296875, -0.06298828125], "max": [0.64697265625, 0.93212890625, -0.06298828125]}, {"bufferView": 48, "byteOffset": 0, "componentType": 5126, "count": 4, "type": "VEC2"}, {"bufferView": 49, "byteOffset": 0, "componentType": 5123, "count": 6, "type": "SCALAR"}, {"bufferView": 50, "byteOffset": 0, "componentType": 5126, "count": 4, "type": "VEC3", "min": [0.173095703125, -0.01220703125, -0.143310546875], "max": [0.57470703125, 0.608154296875, 0.030517578125]}, {"bufferView": 51, "byteOffset": 0, "componentType": 5126, "count": 4, "type": "VEC2"}, {"bufferView": 52, "byteOffset": 0, "componentType": 5123, "count": 6, "type": "SCALAR"}, {"bufferView": 53, "byteOffset": 0, "componentType": 5126, "count": 4, "type": "VEC3", "min": [0.0185546875, 3.051513671875, -0.7255859375], "max": [1.498291015625, 3.9912109375, 0.352294921875]}, {"bufferView": 54, "byteOffset": 0, "componentType": 5126, "count": 4, "type": "VEC2"}, {"bufferView": 55, "byteOffset": 0, "componentType": 5126, "count": 4, "type": "VEC3"}, {"bufferView": 56, "byteOffset": 0, "componentType": 5123, "count": 6, "type": "SCALAR"}, {"bufferView": 57, "byteOffset": 0, "componentType": 5126, "count": 26, "type": "VEC3", "min": [0.2890625, 2.09716796875, -0.914306640625], "max": [1.139892578125, 3.444580078125, -0.034423828125]}, {"bufferView": 58, "byteOffset": 0, "componentType": 5126, "count": 26, "type": "VEC2"}, {"bufferView": 59, "byteOffset": 0, "componentType": 5126, "count": 26, "type": "VEC3"}, {"bufferView": 60, "byteOffset": 0, "componentType": 5123, "count": 42, "type": "SCALAR"}, {"bufferView": 61, "byteOffset": 0, "componentType": 5126, "count": 70, "type": "VEC3", "min": [-1.065673828125, 1.78515625, -2.025634765625], "max": [1.796630859375, 3.96337890625, 0.517333984375]}, {"bufferView": 62, "byteOffset": 0, "componentType": 5126, "count": 70, "type": "VEC2"}, {"bufferView": 63, "byteOffset": 0, "componentType": 5126, "count": 70, "type": "VEC3"}, {"bufferView": 64, "byteOffset": 0, "componentType": 5123, "count": 102, "type": "SCALAR"}, {"bufferView": 65, "byteOffset": 0, "componentType": 5126, "count": 16, "type": "VEC3", "min": [-0.823486328125, 2.046630859375, -1.216064453125], "max": [1.4990234375, 3.51953125, 0.185302734375]}, {"bufferView": 66, "byteOffset": 0, "componentType": 5126, "count": 16, "type": "VEC2"}, {"bufferView": 67, "byteOffset": 0, "componentType": 5126, "count": 16, "type": "VEC3"}, {"bufferView": 68, "byteOffset": 0, "componentType": 5123, "count": 24, "type": "SCALAR"}, {"bufferView": 69, "byteOffset": 0, "componentType": 5126, "count": 19, "type": "VEC3", "min": [-0.815673828125, 3.27685546875, -1.402099609375], "max": [1.564697265625, 4.478515625, 0.189453125]}, {"bufferView": 70, "byteOffset": 0, "componentType": 5126, "count": 19, "type": "VEC2"}, {"bufferView": 71, "byteOffset": 0, "componentType": 5126, "count": 19, "type": "VEC3"}, {"bufferView": 72, "byteOffset": 0, "componentType": 5123, "count": 27, "type": "SCALAR"}, {"bufferView": 73, "byteOffset": 0, "componentType": 5126, "count": 25, "type": "VEC3", "min": [-0.82373046875, 2.502685546875, -0.823486328125], "max": [1.507568359375, 3.912353515625, 0.31884765625]}, {"bufferView": 74, "byteOffset": 0, "componentType": 5126, "count": 25, "type": "VEC2"}, {"bufferView": 75, "byteOffset": 0, "componentType": 5126, "count": 25, "type": "VEC3"}, {"bufferView": 76, "byteOffset": 0, "componentType": 5123, "count": 39, "type": "SCALAR"}, {"bufferView": 77, "byteOffset": 0, "componentType": 5126, "count": 12, "type": "VEC3", "min": [-1.69580078125, 0.826904296875, -1.32470703125], "max": [2.1591796875, 2.51171875, -0.03564453125]}, {"bufferView": 78, "byteOffset": 0, "componentType": 5126, "count": 12, "type": "VEC2"}, {"bufferView": 79, "byteOffset": 0, "componentType": 5126, "count": 12, "type": "VEC3"}, {"bufferView": 80, "byteOffset": 0, "componentType": 5123, "count": 18, "type": "SCALAR"}, {"bufferView": 81, "byteOffset": 0, "componentType": 5126, "count": 4, "type": "VEC3", "min": [-0.425048828125, 0.0, 0.0], "max": [0.0, 0.616943359375, 0.0]}, {"bufferView": 82, "byteOffset": 0, "componentType": 5126, "count": 4, "type": "VEC2"}, {"bufferView": 83, "byteOffset": 0, "componentType": 5123, "count": 6, "type": "SCALAR"}], "samplers": [{"magFilter": 9729, "minFilter": 9729, "wrapS": 10497, "wrapT": 10497}]}