{"asset": {"version": "2.0", "generator": "tongari-nsbmd-to-gltf"}, "scene": 0, "scenes": [{"nodes": [0, 1]}], "nodes": [{"name": "musi55", "translation": [0.0, 0.0, 0.0]}, {"mesh": 0, "name": "5045musi55"}], "meshes": [{"name": "5045musi55", "primitives": [{"attributes": {"POSITION": 0, "TEXCOORD_0": 1, "NORMAL": 2}, "indices": 3, "mode": 4, "material": 0}, {"attributes": {"POSITION": 4, "TEXCOORD_0": 5, "NORMAL": 6}, "indices": 7, "mode": 4, "material": 1}, {"attributes": {"POSITION": 8, "TEXCOORD_0": 9, "NORMAL": 10}, "indices": 11, "mode": 4, "material": 2}]}], "materials": [{"name": "body", "pbrMetallicRoughness": {"baseColorFactor": [1.0, 1.0, 1.0, 1.0], "metallicFactor": 0.0, "roughnessFactor": 1.0}, "alphaMode": "OPAQUE", "doubleSided": true}, {"name": "hane", "pbrMetallicRoughness": {"baseColorFactor": [1.0, 1.0, 1.0, 1.0], "metallicFactor": 0.0, "roughnessFactor": 1.0}, "alphaMode": "OPAQUE", "doubleSided": true}, {"name": "jet", "pbrMetallicRoughness": {"baseColorFactor": [1.0, 1.0, 1.0, 1.0], "metallicFactor": 0.0, "roughnessFactor": 1.0}, "alphaMode": "OPAQUE", "doubleSided": true}], "buffers": [{"byteLength": 712, "uri": "data:application/octet-stream;base64,"}], "bufferViews": [{"buffer": 0, "byteOffset": 0, "byteLength": 72}, {"buffer": 0, "byteOffset": 72, "byteLength": 48}, {"buffer": 0, "byteOffset": 120, "byteLength": 72}, {"buffer": 0, "byteOffset": 192, "byteLength": 24}, {"buffer": 0, "byteOffset": 216, "byteLength": 96}, {"buffer": 0, "byteOffset": 312, "byteLength": 64}, {"buffer": 0, "byteOffset": 376, "byteLength": 96}, {"buffer": 0, "byteOffset": 472, "byteLength": 24}, {"buffer": 0, "byteOffset": 496, "byteLength": 72}, {"buffer": 0, "byteOffset": 568, "byteLength": 48}, {"buffer": 0, "byteOffset": 616, "byteLength": 72}, {"buffer": 0, "byteOffset": 688, "byteLength": 24}], "accessors": [{"bufferView": 0, "byteOffset": 0, "componentType": 5126, "count": 6, "type": "VEC3", "min": [-0.055419921875, 0.0, -0.15185546875], "max": [0.055419921875, 0.025390625, 0.1171875]}, {"bufferView": 1, "byteOffset": 0, "componentType": 5126, "count": 6, "type": "VEC2"}, {"bufferView": 2, "byteOffset": 0, "componentType": 5126, "count": 6, "type": "VEC3"}, {"bufferView": 3, "byteOffset": 0, "componentType": 5123, "count": 12, "type": "SCALAR"}, {"bufferView": 4, "byteOffset": 0, "componentType": 5126, "count": 8, "type": "VEC3", "min": [-0.132568359375, 0.0, -0.13427734375], "max": [0.132568359375, 0.013916015625, 0.06591796875]}, {"bufferView": 5, "byteOffset": 0, "componentType": 5126, "count": 8, "type": "VEC2"}, {"bufferView": 6, "byteOffset": 0, "componentType": 5126, "count": 8, "type": "VEC3"}, {"bufferView": 7, "byteOffset": 0, "componentType": 5123, "count": 12, "type": "SCALAR"}, {"bufferView": 8, "byteOffset": 0, "componentType": 5126, "count": 6, "type": "VEC3", "min": [-0.03759765625, 0.005126953125, -0.298828125], "max": [0.03759765625, 0.025390625, -0.15185546875]}, {"bufferView": 9, "byteOffset": 0, "componentType": 5126, "count": 6, "type": "VEC2"}, {"bufferView": 10, "byteOffset": 0, "componentType": 5126, "count": 6, "type": "VEC3"}, {"bufferView": 11, "byteOffset": 0, "componentType": 5123, "count": 12, "type": "SCALAR"}], "samplers": [{"magFilter": 9729, "minFilter": 9729, "wrapS": 10497, "wrapT": 10497}]}