{"asset": {"version": "2.0", "generator": "tongari-nsbmd-to-gltf"}, "scene": 0, "scenes": [{"nodes": [0, 2]}], "nodes": [{"name": "cake", "translation": [4.0087890625, 2.0, 6.72705078125], "rotation": [0.5, 0.5, 0.5, 0.5], "children": [1]}, {"name": "joint2", "translation": [0.26513671875, 0.0, 0.0], "rotation": [0.5, -0.5, 0.5, -0.5]}, {"mesh": 0, "name": "1398item2788r"}], "meshes": [{"name": "1398item2788r", "primitives": [{"attributes": {"POSITION": 0, "TEXCOORD_0": 1, "NORMAL": 2}, "indices": 3, "mode": 4, "material": 0}, {"attributes": {"POSITION": 4, "TEXCOORD_0": 5, "NORMAL": 6}, "indices": 7, "mode": 4, "material": 1}, {"attributes": {"POSITION": 8, "TEXCOORD_0": 9, "NORMAL": 10}, "indices": 11, "mode": 4, "material": 2}, {"attributes": {"POSITION": 12, "TEXCOORD_0": 13, "NORMAL": 14}, "indices": 15, "mode": 4, "material": 3}]}], "materials": [{"name": "t_o_cake0", "pbrMetallicRoughness": {"baseColorFactor": [0.803921568627451, 0.803921568627451, 0.803921568627451, 1.0], "metallicFactor": 0.0, "roughnessFactor": 1.0}, "alphaMode": "OPAQUE", "doubleSided": true}, {"name": "t_o_cake00", "pbrMetallicRoughness": {"baseColorFactor": [0.803921568627451, 0.803921568627451, 0.803921568627451, 1.0], "metallicFactor": 0.0, "roughnessFactor": 1.0}, "alphaMode": "OPAQUE", "doubleSided": true}, {"name": "t_o_cake02", "pbrMetallicRoughness": {"baseColorFactor": [0.803921568627451, 0.803921568627451, 0.803921568627451, 0.001], "metallicFactor": 0.0, "roughnessFactor": 1.0}, "alphaMode": "BLEND", "doubleSided": true}, {"name": "t_o_cake03", "pbrMetallicRoughness": {"baseColorFactor": [0.803921568627451, 0.803921568627451, 0.803921568627451, 0.001], "metallicFactor": 0.0, "roughnessFactor": 1.0}, "alphaMode": "BLEND", "doubleSided": true}], "buffers": [{"byteLength": 8596, "uri": "data:application/octet-stream;base64,"}], "bufferViews": [{"buffer": 0, "byteOffset": 0, "byteLength": 384}, {"buffer": 0, "byteOffset": 384, "byteLength": 256}, {"buffer": 0, "byteOffset": 640, "byteLength": 384}, {"buffer": 0, "byteOffset": 1024, "byteLength": 168}, {"buffer": 0, "byteOffset": 1192, "byteLength": 840}, {"buffer": 0, "byteOffset": 2032, "byteLength": 560}, {"buffer": 0, "byteOffset": 2592, "byteLength": 840}, {"buffer": 0, "byteOffset": 3432, "byteLength": 228}, {"buffer": 0, "byteOffset": 3660, "byteLength": 840}, {"buffer": 0, "byteOffset": 4500, "byteLength": 560}, {"buffer": 0, "byteOffset": 5060, "byteLength": 840}, {"buffer": 0, "byteOffset": 5900, "byteLength": 228}, {"buffer": 0, "byteOffset": 6128, "byteLength": 840}, {"buffer": 0, "byteOffset": 6968, "byteLength": 560}, {"buffer": 0, "byteOffset": 7528, "byteLength": 840}, {"buffer": 0, "byteOffset": 8368, "byteLength": 228}], "accessors": [{"bufferView": 0, "byteOffset": 0, "componentType": 5126, "count": 32, "type": "VEC3", "min": [3.533203125, 1.502685546875, 6.704345703125], "max": [4.5078125, 2.49365234375, 7.010498046875]}, {"bufferView": 1, "byteOffset": 0, "componentType": 5126, "count": 32, "type": "VEC2"}, {"bufferView": 2, "byteOffset": 0, "componentType": 5126, "count": 32, "type": "VEC3"}, {"bufferView": 3, "byteOffset": 0, "componentType": 5123, "count": 84, "type": "SCALAR"}, {"bufferView": 4, "byteOffset": 0, "componentType": 5126, "count": 70, "type": "VEC3", "min": [3.56884765625, 1.5546875, 6.695068359375], "max": [4.45458984375, 2.440673828125, 7.157470703125]}, {"bufferView": 5, "byteOffset": 0, "componentType": 5126, "count": 70, "type": "VEC2"}, {"bufferView": 6, "byteOffset": 0, "componentType": 5126, "count": 70, "type": "VEC3"}, {"bufferView": 7, "byteOffset": 0, "componentType": 5123, "count": 114, "type": "SCALAR"}, {"bufferView": 8, "byteOffset": 0, "componentType": 5126, "count": 70, "type": "VEC3", "min": [3.56884765625, 1.5546875, 6.996826171875], "max": [4.45458984375, 2.440673828125, 7.1748046875]}, {"bufferView": 9, "byteOffset": 0, "componentType": 5126, "count": 70, "type": "VEC2"}, {"bufferView": 10, "byteOffset": 0, "componentType": 5126, "count": 70, "type": "VEC3"}, {"bufferView": 11, "byteOffset": 0, "componentType": 5123, "count": 114, "type": "SCALAR"}, {"bufferView": 12, "byteOffset": 0, "componentType": 5126, "count": 70, "type": "VEC3", "min": [3.56884765625, 1.5546875, 7.010498046875], "max": [4.45458984375, 2.440673828125, 7.1884765625]}, {"bufferView": 13, "byteOffset": 0, "componentType": 5126, "count": 70, "type": "VEC2"}, {"bufferView": 14, "byteOffset": 0, "componentType": 5126, "count": 70, "type": "VEC3"}, {"bufferView": 15, "byteOffset": 0, "componentType": 5123, "count": 114, "type": "SCALAR"}], "samplers": [{"magFilter": 9729, "minFilter": 9729, "wrapS": 10497, "wrapT": 10497}]}