{"asset": {"version": "2.0", "generator": "tongari-nsbmd-to-gltf"}, "scene": 0, "scenes": [{"nodes": [0, 1]}], "nodes": [{"name": "imsy01_06", "translation": [0.0, 0.0, 0.0]}, {"mesh": 0, "name": "3444IMSY01_06"}], "meshes": [{"name": "3444IMSY01_06", "primitives": [{"attributes": {"POSITION": 0, "TEXCOORD_0": 1, "NORMAL": 2}, "indices": 3, "mode": 4, "material": 1}, {"attributes": {"POSITION": 4, "TEXCOORD_0": 5, "NORMAL": 6}, "indices": 7, "mode": 4, "material": 2}, {"attributes": {"POSITION": 8, "TEXCOORD_0": 9, "NORMAL": 10}, "indices": 11, "mode": 4, "material": 0}]}], "materials": [{"name": "imsy01_06_0", "pbrMetallicRoughness": {"baseColorFactor": [1.0, 1.0, 1.0, 1.0], "metallicFactor": 0.0, "roughnessFactor": 1.0}, "alphaMode": "OPAQUE", "doubleSided": true}, {"name": "imsy01_06_1", "pbrMetallicRoughness": {"baseColorFactor": [1.0, 1.0, 1.0, 1.0], "metallicFactor": 0.0, "roughnessFactor": 1.0}, "alphaMode": "OPAQUE", "doubleSided": true}, {"name": "imsy01_06_2", "pbrMetallicRoughness": {"baseColorFactor": [1.0, 1.0, 1.0, 1.0], "metallicFactor": 0.0, "roughnessFactor": 1.0}, "alphaMode": "OPAQUE", "doubleSided": true}], "buffers": [{"byteLength": 3560, "uri": "data:application/octet-stream;base64,"}], "bufferViews": [{"buffer": 0, "byteOffset": 0, "byteLength": 192}, {"buffer": 0, "byteOffset": 192, "byteLength": 128}, {"buffer": 0, "byteOffset": 320, "byteLength": 192}, {"buffer": 0, "byteOffset": 512, "byteLength": 72}, {"buffer": 0, "byteOffset": 584, "byteLength": 180}, {"buffer": 0, "byteOffset": 764, "byteLength": 120}, {"buffer": 0, "byteOffset": 884, "byteLength": 180}, {"buffer": 0, "byteOffset": 1064, "byteLength": 54}, {"buffer": 0, "byteOffset": 1120, "byteLength": 816}, {"buffer": 0, "byteOffset": 1936, "byteLength": 544}, {"buffer": 0, "byteOffset": 2480, "byteLength": 816}, {"buffer": 0, "byteOffset": 3296, "byteLength": 264}], "accessors": [{"bufferView": 0, "byteOffset": 0, "componentType": 5126, "count": 16, "type": "VEC3", "min": [-0.438720703125, 0.006103515625, -0.19189453125], "max": [0.438720703125, 0.1357421875, 0.19189453125]}, {"bufferView": 1, "byteOffset": 0, "componentType": 5126, "count": 16, "type": "VEC2"}, {"bufferView": 2, "byteOffset": 0, "componentType": 5126, "count": 16, "type": "VEC3"}, {"bufferView": 3, "byteOffset": 0, "componentType": 5123, "count": 36, "type": "SCALAR"}, {"bufferView": 4, "byteOffset": 0, "componentType": 5126, "count": 15, "type": "VEC3", "min": [-0.4228515625, 0.005859375, -0.30126953125], "max": [-0.2001953125, 0.686767578125, -0.227294921875]}, {"bufferView": 5, "byteOffset": 0, "componentType": 5126, "count": 15, "type": "VEC2"}, {"bufferView": 6, "byteOffset": 0, "componentType": 5126, "count": 15, "type": "VEC3"}, {"bufferView": 7, "byteOffset": 0, "componentType": 5123, "count": 27, "type": "SCALAR"}, {"bufferView": 8, "byteOffset": 0, "componentType": 5126, "count": 68, "type": "VEC3", "min": [-0.271484375, 0.0009765625, -0.313232421875], "max": [0.271484375, 0.58203125, 0.313232421875]}, {"bufferView": 9, "byteOffset": 0, "componentType": 5126, "count": 68, "type": "VEC2"}, {"bufferView": 10, "byteOffset": 0, "componentType": 5126, "count": 68, "type": "VEC3"}, {"bufferView": 11, "byteOffset": 0, "componentType": 5123, "count": 132, "type": "SCALAR"}], "samplers": [{"magFilter": 9729, "minFilter": 9729, "wrapS": 10497, "wrapT": 10497}]}