{"asset": {"version": "2.0", "generator": "tongari-nsbmd-to-gltf"}, "scene": 0, "scenes": [{"nodes": [0, 1]}], "nodes": [{"name": "ef_475a", "translation": [0.14306640625, 0.036865234375, 0.11328125], "rotation": [0.08400093575210585, -0.01904922464019957, -0.07718008434867955, 0.9932634422070511]}, {"mesh": 0, "name": "ef_475"}], "meshes": [{"name": "ef_475", "primitives": [{"attributes": {"POSITION": 0, "TEXCOORD_0": 1, "NORMAL": 2}, "indices": 3, "mode": 4, "material": 0}]}], "materials": [{"name": "ef_hoho", "pbrMetallicRoughness": {"baseColorFactor": [0.803921568627451, 0.803921568627451, 0.803921568627451, 0.9032258064516129], "metallicFactor": 0.0, "roughnessFactor": 1.0}, "alphaMode": "BLEND", "doubleSided": true}], "buffers": [{"byteLength": 636, "uri": "data:application/octet-stream;base64,"}], "bufferViews": [{"buffer": 0, "byteOffset": 0, "byteLength": 216}, {"buffer": 0, "byteOffset": 216, "byteLength": 144}, {"buffer": 0, "byteOffset": 360, "byteLength": 216}, {"buffer": 0, "byteOffset": 576, "byteLength": 60}], "accessors": [{"bufferView": 0, "byteOffset": 0, "componentType": 5126, "count": 18, "type": "VEC3", "min": [-0.127538800239563, 0.7534840106964111, 0.22508323192596436], "max": [0.7344244718551636, 1.1448025107383728, 0.5812353491783142]}, {"bufferView": 1, "byteOffset": 0, "componentType": 5126, "count": 18, "type": "VEC2"}, {"bufferView": 2, "byteOffset": 0, "componentType": 5126, "count": 18, "type": "VEC3"}, {"bufferView": 3, "byteOffset": 0, "componentType": 5123, "count": 30, "type": "SCALAR"}], "samplers": [{"magFilter": 9729, "minFilter": 9729, "wrapS": 10497, "wrapT": 10497}]}