{"asset": {"version": "2.0", "generator": "tongari-nsbmd-to-gltf"}, "scene": 0, "scenes": [{"nodes": [0, 1]}], "nodes": [{"name": "kb_ryouri_add", "translation": [0.0, 0.0, 0.0]}, {"mesh": 0, "name": "kb_ryouri_add"}], "meshes": [{"name": "kb_ryouri_add", "primitives": [{"attributes": {"POSITION": 0, "TEXCOORD_0": 1, "NORMAL": 2}, "indices": 3, "mode": 4, "material": 26}, {"attributes": {"POSITION": 4, "TEXCOORD_0": 5, "NORMAL": 6}, "indices": 7, "mode": 4, "material": 46}, {"attributes": {"POSITION": 8, "TEXCOORD_0": 9, "NORMAL": 10}, "indices": 11, "mode": 4, "material": 50}, {"attributes": {"POSITION": 12, "TEXCOORD_0": 13, "NORMAL": 14}, "indices": 15, "mode": 4, "material": 38}, {"attributes": {"POSITION": 16, "TEXCOORD_0": 17, "NORMAL": 18}, "indices": 19, "mode": 4, "material": 30}, {"attributes": {"POSITION": 20, "TEXCOORD_0": 21, "NORMAL": 22}, "indices": 23, "mode": 4, "material": 47}, {"attributes": {"POSITION": 24, "TEXCOORD_0": 25, "NORMAL": 26}, "indices": 27, "mode": 4, "material": 44}, {"attributes": {"POSITION": 28, "TEXCOORD_0": 29, "NORMAL": 30}, "indices": 31, "mode": 4, "material": 31}, {"attributes": {"POSITION": 32, "TEXCOORD_0": 33, "NORMAL": 34}, "indices": 35, "mode": 4, "material": 33}, {"attributes": {"POSITION": 36, "TEXCOORD_0": 37, "NORMAL": 38}, "indices": 39, "mode": 4, "material": 32}, {"attributes": {"POSITION": 40, "TEXCOORD_0": 41, "NORMAL": 42}, "indices": 43, "mode": 4, "material": 10}, {"attributes": {"POSITION": 44, "TEXCOORD_0": 45, "NORMAL": 46}, "indices": 47, "mode": 4, "material": 9}, {"attributes": {"POSITION": 48, "TEXCOORD_0": 49, "NORMAL": 50}, "indices": 51, "mode": 4, "material": 24}, {"attributes": {"POSITION": 52, "TEXCOORD_0": 53, "NORMAL": 54}, "indices": 55, "mode": 4, "material": 25}, {"attributes": {"POSITION": 56, "TEXCOORD_0": 57, "NORMAL": 58}, "indices": 59, "mode": 4, "material": 39}, {"attributes": {"POSITION": 60, "TEXCOORD_0": 61, "NORMAL": 62}, "indices": 63, "mode": 4, "material": 22}, {"attributes": {"POSITION": 64, "TEXCOORD_0": 65, "NORMAL": 66}, "indices": 67, "mode": 4, "material": 12}, {"attributes": {"POSITION": 68, "TEXCOORD_0": 69, "NORMAL": 70}, "indices": 71, "mode": 4, "material": 19}, {"attributes": {"POSITION": 72, "TEXCOORD_0": 73, "NORMAL": 74}, "indices": 75, "mode": 4, "material": 18}, {"attributes": {"POSITION": 76, "TEXCOORD_0": 77, "NORMAL": 78}, "indices": 79, "mode": 4, "material": 49}, {"attributes": {"POSITION": 80, "TEXCOORD_0": 81, "NORMAL": 82}, "indices": 83, "mode": 4, "material": 48}, {"attributes": {"POSITION": 84, "TEXCOORD_0": 85, "NORMAL": 86}, "indices": 87, "mode": 4, "material": 45}, {"attributes": {"POSITION": 88, "TEXCOORD_0": 89, "NORMAL": 90}, "indices": 91, "mode": 4, "material": 11}, {"attributes": {"POSITION": 92, "TEXCOORD_0": 93, "NORMAL": 94}, "indices": 95, "mode": 4, "material": 37}, {"attributes": {"POSITION": 96, "TEXCOORD_0": 97, "NORMAL": 98}, "indices": 99, "mode": 4, "material": 21}, {"attributes": {"POSITION": 100, "TEXCOORD_0": 101, "NORMAL": 102}, "indices": 103, "mode": 4, "material": 20}, {"attributes": {"POSITION": 104, "TEXCOORD_0": 105, "NORMAL": 106}, "indices": 107, "mode": 4, "material": 17}, {"attributes": {"POSITION": 108, "TEXCOORD_0": 109, "NORMAL": 110}, "indices": 111, "mode": 4, "material": 8}, {"attributes": {"POSITION": 112, "TEXCOORD_0": 113, "NORMAL": 114}, "indices": 115, "mode": 4, "material": 36}, {"attributes": {"POSITION": 116, "TEXCOORD_0": 117, "NORMAL": 118}, "indices": 119, "mode": 4, "material": 4}, {"attributes": {"POSITION": 120, "TEXCOORD_0": 121, "NORMAL": 122}, "indices": 123, "mode": 4, "material": 2}, {"attributes": {"POSITION": 124, "TEXCOORD_0": 125, "NORMAL": 126}, "indices": 127, "mode": 4, "material": 1}, {"attributes": {"POSITION": 128, "TEXCOORD_0": 129, "NORMAL": 130}, "indices": 131, "mode": 4, "material": 23}, {"attributes": {"POSITION": 132, "TEXCOORD_0": 133, "NORMAL": 134}, "indices": 135, "mode": 4, "material": 35}, {"attributes": {"POSITION": 136, "TEXCOORD_0": 137, "NORMAL": 138}, "indices": 139, "mode": 4, "material": 34}, {"attributes": {"POSITION": 140, "TEXCOORD_0": 141, "NORMAL": 142}, "indices": 143, "mode": 4, "material": 40}, {"attributes": {"POSITION": 144, "TEXCOORD_0": 145, "NORMAL": 146}, "indices": 147, "mode": 4, "material": 5}, {"attributes": {"POSITION": 148, "TEXCOORD_0": 149, "NORMAL": 150}, "indices": 151, "mode": 4, "material": 13}, {"attributes": {"POSITION": 152, "TEXCOORD_0": 153, "NORMAL": 154}, "indices": 155, "mode": 4, "material": 42}, {"attributes": {"POSITION": 156, "TEXCOORD_0": 157, "NORMAL": 158}, "indices": 159, "mode": 4, "material": 43}, {"attributes": {"POSITION": 160, "TEXCOORD_0": 161, "NORMAL": 162}, "indices": 163, "mode": 4, "material": 41}, {"attributes": {"POSITION": 164, "TEXCOORD_0": 165, "NORMAL": 166}, "indices": 167, "mode": 4, "material": 0}, {"attributes": {"POSITION": 168, "TEXCOORD_0": 169, "NORMAL": 170}, "indices": 171, "mode": 4, "material": 3}, {"attributes": {"POSITION": 172, "TEXCOORD_0": 173, "NORMAL": 174}, "indices": 175, "mode": 4, "material": 29}, {"attributes": {"POSITION": 176, "TEXCOORD_0": 177, "NORMAL": 178}, "indices": 179, "mode": 4, "material": 27}, {"attributes": {"POSITION": 180, "TEXCOORD_0": 181, "NORMAL": 182}, "indices": 183, "mode": 4, "material": 28}, {"attributes": {"POSITION": 184, "TEXCOORD_0": 185, "NORMAL": 186}, "indices": 187, "mode": 4, "material": 15}, {"attributes": {"POSITION": 188, "TEXCOORD_0": 189, "NORMAL": 190}, "indices": 191, "mode": 4, "material": 14}, {"attributes": {"POSITION": 192, "TEXCOORD_0": 193, "NORMAL": 194}, "indices": 195, "mode": 4, "material": 16}, {"attributes": {"POSITION": 196, "TEXCOORD_0": 197, "NORMAL": 198}, "indices": 199, "mode": 4, "material": 6}, {"attributes": {"POSITION": 200, "TEXCOORD_0": 201, "NORMAL": 202}, "indices": 203, "mode": 4, "material": 7}]}], "materials": [{"name": "apple", "pbrMetallicRoughness": {"baseColorFactor": [0.803921568627451, 0.803921568627451, 0.803921568627451, 1.0], "metallicFactor": 0.0, "roughnessFactor": 1.0}, "alphaMode": "OPAQUE", "doubleSided": true}, {"name": "bin00", "pbrMetallicRoughness": {"baseColorFactor": [0.803921568627451, 0.803921568627451, 0.803921568627451, 1.0], "metallicFactor": 0.0, "roughnessFactor": 1.0}, "alphaMode": "OPAQUE", "doubleSided": true}, {"name": "bin01", "pbrMetallicRoughness": {"baseColorFactor": [0.803921568627451, 0.803921568627451, 0.803921568627451, 1.0], "metallicFactor": 0.0, "roughnessFactor": 1.0}, "alphaMode": "OPAQUE", "doubleSided": true}, {"name": "blue", "pbrMetallicRoughness": {"baseColorFactor": [0.803921568627451, 0.803921568627451, 0.803921568627451, 1.0], "metallicFactor": 0.0, "roughnessFactor": 1.0}, "alphaMode": "OPAQUE", "doubleSided": true}, {"name": "book_00", "pbrMetallicRoughness": {"baseColorFactor": [0.803921568627451, 0.803921568627451, 0.803921568627451, 1.0], "metallicFactor": 0.0, "roughnessFactor": 1.0}, "alphaMode": "OPAQUE", "doubleSided": true}, {"name": "cube", "pbrMetallicRoughness": {"baseColorFactor": [0.803921568627451, 0.803921568627451, 0.803921568627451, 1.0], "metallicFactor": 0.0, "roughnessFactor": 1.0}, "alphaMode": "OPAQUE", "doubleSided": true}, {"name": "cyoumi00", "pbrMetallicRoughness": {"baseColorFactor": [0.803921568627451, 0.803921568627451, 0.803921568627451, 1.0], "metallicFactor": 0.0, "roughnessFactor": 1.0}, "alphaMode": "OPAQUE", "doubleSided": true}, {"name": "cyoumi1", "pbrMetallicRoughness": {"baseColorFactor": [0.803921568627451, 0.803921568627451, 0.803921568627451, 1.0], "metallicFactor": 0.0, "roughnessFactor": 1.0}, "alphaMode": "OPAQUE", "doubleSided": true}, {"name": "dai", "pbrMetallicRoughness": {"baseColorFactor": [0.803921568627451, 0.803921568627451, 0.803921568627451, 1.0], "metallicFactor": 0.0, "roughnessFactor": 1.0}, "alphaMode": "OPAQUE", "doubleSided": true}, {"name": "desk00", "pbrMetallicRoughness": {"baseColorFactor": [0.803921568627451, 0.803921568627451, 0.803921568627451, 1.0], "metallicFactor": 0.0, "roughnessFactor": 1.0}, "alphaMode": "OPAQUE", "doubleSided": true}, {"name": "desk01", "pbrMetallicRoughness": {"baseColorFactor": [1.0, 1.0, 1.0, 1.0], "metallicFactor": 0.0, "roughnessFactor": 1.0}, "alphaMode": "OPAQUE", "doubleSided": true}, {"name": "desk_s00", "pbrMetallicRoughness": {"baseColorFactor": [0.803921568627451, 0.803921568627451, 0.803921568627451, 1.0], "metallicFactor": 0.0, "roughnessFactor": 1.0}, "alphaMode": "OPAQUE", "doubleSided": true}, {"name": "floor", "pbrMetallicRoughness": {"baseColorFactor": [1.0, 1.0, 1.0, 1.0], "metallicFactor": 0.0, "roughnessFactor": 1.0}, "alphaMode": "OPAQUE", "doubleSided": true}, {"name": "fukuro", "pbrMetallicRoughness": {"baseColorFactor": [0.803921568627451, 0.803921568627451, 0.803921568627451, 1.0], "metallicFactor": 0.0, "roughnessFactor": 1.0}, "alphaMode": "OPAQUE", "doubleSided": true}, {"name": "hakari00", "pbrMetallicRoughness": {"baseColorFactor": [0.803921568627451, 0.803921568627451, 0.803921568627451, 1.0], "metallicFactor": 0.0, "roughnessFactor": 1.0}, "alphaMode": "OPAQUE", "doubleSided": true}, {"name": "hakari01", "pbrMetallicRoughness": {"baseColorFactor": [0.803921568627451, 0.803921568627451, 0.803921568627451, 1.0], "metallicFactor": 0.0, "roughnessFactor": 1.0}, "alphaMode": "OPAQUE", "doubleSided": true}, {"name": "hakari02", "pbrMetallicRoughness": {"baseColorFactor": [0.803921568627451, 0.803921568627451, 0.803921568627451, 1.0], "metallicFactor": 0.0, "roughnessFactor": 1.0}, "alphaMode": "OPAQUE", "doubleSided": true}, {"name": "hasira1", "pbrMetallicRoughness": {"baseColorFactor": [0.803921568627451, 0.803921568627451, 0.803921568627451, 1.0], "metallicFactor": 0.0, "roughnessFactor": 1.0}, "alphaMode": "OPAQUE", "doubleSided": true}, {"name": "hikidasi", "pbrMetallicRoughness": {"baseColorFactor": [1.0, 1.0, 1.0, 1.0], "metallicFactor": 0.0, "roughnessFactor": 1.0}, "alphaMode": "OPAQUE", "doubleSided": true}, {"name": "kabe", "pbrMetallicRoughness": {"baseColorFactor": [0.803921568627451, 0.803921568627451, 0.803921568627451, 1.0], "metallicFactor": 0.0, "roughnessFactor": 1.0}, "alphaMode": "OPAQUE", "doubleSided": true}, {"name": "kabe00", "pbrMetallicRoughness": {"baseColorFactor": [1.0, 1.0, 1.0, 1.0], "metallicFactor": 0.0, "roughnessFactor": 1.0}, "alphaMode": "OPAQUE", "doubleSided": true}, {"name": "kabe01", "pbrMetallicRoughness": {"baseColorFactor": [0.803921568627451, 0.803921568627451, 0.803921568627451, 1.0], "metallicFactor": 0.0, "roughnessFactor": 1.0}, "alphaMode": "OPAQUE", "doubleSided": true}, {"name": "kabe02", "pbrMetallicRoughness": {"baseColorFactor": [0.803921568627451, 0.803921568627451, 0.803921568627451, 1.0], "metallicFactor": 0.0, "roughnessFactor": 1.0}, "alphaMode": "OPAQUE", "doubleSided": true}, {"name": "kago2", "pbrMetallicRoughness": {"baseColorFactor": [0.803921568627451, 0.803921568627451, 0.803921568627451, 1.0], "metallicFactor": 0.0, "roughnessFactor": 1.0}, "alphaMode": "OPAQUE", "doubleSided": true}, {"name": "kb_pan05", "pbrMetallicRoughness": {"baseColorFactor": [0.803921568627451, 0.803921568627451, 0.803921568627451, 1.0], "metallicFactor": 0.0, "roughnessFactor": 1.0}, "alphaMode": "OPAQUE", "doubleSided": true}, {"name": "kb_pan06", "pbrMetallicRoughness": {"baseColorFactor": [0.803921568627451, 0.803921568627451, 0.803921568627451, 1.0], "metallicFactor": 0.0, "roughnessFactor": 1.0}, "alphaMode": "OPAQUE", "doubleSided": true}, {"name": "lambert136", "pbrMetallicRoughness": {"baseColorFactor": [0.803921568627451, 0.803921568627451, 0.803921568627451, 1.0], "metallicFactor": 0.0, "roughnessFactor": 1.0}, "alphaMode": "OPAQUE", "doubleSided": true}, {"name": "leaf", "pbrMetallicRoughness": {"baseColorFactor": [0.803921568627451, 0.803921568627451, 0.803921568627451, 1.0], "metallicFactor": 0.0, "roughnessFactor": 1.0}, "alphaMode": "OPAQUE", "doubleSided": true}, {"name": "musi00", "pbrMetallicRoughness": {"baseColorFactor": [0.803921568627451, 0.803921568627451, 0.803921568627451, 1.0], "metallicFactor": 0.0, "roughnessFactor": 1.0}, "alphaMode": "OPAQUE", "doubleSided": true}, {"name": "nuno1", "pbrMetallicRoughness": {"baseColorFactor": [0.803921568627451, 0.803921568627451, 0.803921568627451, 1.0], "metallicFactor": 0.0, "roughnessFactor": 1.0}, "alphaMode": "OPAQUE", "doubleSided": true}, {"name": "object_shade", "pbrMetallicRoughness": {"baseColorFactor": [0.803921568627451, 0.803921568627451, 0.803921568627451, 0.41935483870967744], "metallicFactor": 0.0, "roughnessFactor": 1.0}, "alphaMode": "BLEND", "doubleSided": true}, {"name": "ogama01", "pbrMetallicRoughness": {"baseColorFactor": [0.803921568627451, 0.803921568627451, 0.803921568627451, 1.0], "metallicFactor": 0.0, "roughnessFactor": 1.0}, "alphaMode": "OPAQUE", "doubleSided": true}, {"name": "ogama02", "pbrMetallicRoughness": {"baseColorFactor": [0.803921568627451, 0.803921568627451, 0.803921568627451, 1.0], "metallicFactor": 0.0, "roughnessFactor": 1.0}, "alphaMode": "OPAQUE", "doubleSided": true}, {"name": "ogama04", "pbrMetallicRoughness": {"baseColorFactor": [0.803921568627451, 0.803921568627451, 0.803921568627451, 1.0], "metallicFactor": 0.0, "roughnessFactor": 1.0}, "alphaMode": "OPAQUE", "doubleSided": true}, {"name": "ori", "pbrMetallicRoughness": {"baseColorFactor": [0.803921568627451, 0.803921568627451, 0.803921568627451, 1.0], "metallicFactor": 0.0, "roughnessFactor": 1.0}, "alphaMode": "OPAQUE", "doubleSided": true}, {"name": "paper", "pbrMetallicRoughness": {"baseColorFactor": [0.803921568627451, 0.803921568627451, 0.803921568627451, 1.0], "metallicFactor": 0.0, "roughnessFactor": 1.0}, "alphaMode": "OPAQUE", "doubleSided": true}, {"name": "plane1", "pbrMetallicRoughness": {"baseColorFactor": [0.803921568627451, 0.803921568627451, 0.803921568627451, 1.0], "metallicFactor": 0.0, "roughnessFactor": 1.0}, "alphaMode": "OPAQUE", "doubleSided": true}, {"name": "renga", "pbrMetallicRoughness": {"baseColorFactor": [0.803921568627451, 0.803921568627451, 0.803921568627451, 1.0], "metallicFactor": 0.0, "roughnessFactor": 1.0}, "alphaMode": "OPAQUE", "doubleSided": true}, {"name": "room_mat00", "pbrMetallicRoughness": {"baseColorFactor": [1.0, 1.0, 1.0, 1.0], "metallicFactor": 0.0, "roughnessFactor": 1.0}, "alphaMode": "OPAQUE", "doubleSided": true}, {"name": "room_mat01", "pbrMetallicRoughness": {"baseColorFactor": [1.0, 1.0, 1.0, 1.0], "metallicFactor": 0.0, "roughnessFactor": 1.0}, "alphaMode": "OPAQUE", "doubleSided": true}, {"name": "saku1", "pbrMetallicRoughness": {"baseColorFactor": [0.803921568627451, 0.803921568627451, 0.803921568627451, 1.0], "metallicFactor": 0.0, "roughnessFactor": 1.0}, "alphaMode": "OPAQUE", "doubleSided": true}, {"name": "sara00", "pbrMetallicRoughness": {"baseColorFactor": [1.0, 1.0, 1.0, 1.0], "metallicFactor": 0.0, "roughnessFactor": 1.0}, "alphaMode": "OPAQUE", "doubleSided": true}, {"name": "sara01", "pbrMetallicRoughness": {"baseColorFactor": [0.803921568627451, 0.803921568627451, 0.803921568627451, 1.0], "metallicFactor": 0.0, "roughnessFactor": 1.0}, "alphaMode": "OPAQUE", "doubleSided": true}, {"name": "sara02", "pbrMetallicRoughness": {"baseColorFactor": [0.803921568627451, 0.803921568627451, 0.803921568627451, 1.0], "metallicFactor": 0.0, "roughnessFactor": 1.0}, "alphaMode": "OPAQUE", "doubleSided": true}, {"name": "shade1", "pbrMetallicRoughness": {"baseColorFactor": [0.803921568627451, 0.803921568627451, 0.803921568627451, 1.0], "metallicFactor": 0.0, "roughnessFactor": 1.0}, "alphaMode": "OPAQUE", "doubleSided": true}, {"name": "step1", "pbrMetallicRoughness": {"baseColorFactor": [1.0, 1.0, 1.0, 1.0], "metallicFactor": 0.0, "roughnessFactor": 1.0}, "alphaMode": "OPAQUE", "doubleSided": true}, {"name": "step_base2", "pbrMetallicRoughness": {"baseColorFactor": [1.0, 1.0, 1.0, 1.0], "metallicFactor": 0.0, "roughnessFactor": 1.0}, "alphaMode": "OPAQUE", "doubleSided": true}, {"name": "step_side1", "pbrMetallicRoughness": {"baseColorFactor": [1.0, 1.0, 1.0, 1.0], "metallicFactor": 0.0, "roughnessFactor": 1.0}, "alphaMode": "OPAQUE", "doubleSided": true}, {"name": "tana", "pbrMetallicRoughness": {"baseColorFactor": [1.0, 1.0, 1.0, 1.0], "metallicFactor": 0.0, "roughnessFactor": 1.0}, "alphaMode": "OPAQUE", "doubleSided": true}, {"name": "tana01", "pbrMetallicRoughness": {"baseColorFactor": [0.803921568627451, 0.803921568627451, 0.803921568627451, 1.0], "metallicFactor": 0.0, "roughnessFactor": 1.0}, "alphaMode": "OPAQUE", "doubleSided": true}, {"name": "tree1", "pbrMetallicRoughness": {"baseColorFactor": [1.0, 1.0, 1.0, 1.0], "metallicFactor": 0.0, "roughnessFactor": 1.0}, "alphaMode": "OPAQUE", "doubleSided": true}], "buffers": [{"byteLength": 88608, "uri": "data:application/octet-stream;base64,"}], "bufferViews": [{"buffer": 0, "byteOffset": 0, "byteLength": 48}, {"buffer": 0, "byteOffset": 48, "byteLength": 32}, {"buffer": 0, "byteOffset": 80, "byteLength": 48}, {"buffer": 0, "byteOffset": 128, "byteLength": 12}, {"buffer": 0, "byteOffset": 140, "byteLength": 528}, {"buffer": 0, "byteOffset": 668, "byteLength": 352}, {"buffer": 0, "byteOffset": 1020, "byteLength": 528}, {"buffer": 0, "byteOffset": 1548, "byteLength": 132}, {"buffer": 0, "byteOffset": 1680, "byteLength": 1416}, {"buffer": 0, "byteOffset": 3096, "byteLength": 944}, {"buffer": 0, "byteOffset": 4040, "byteLength": 1416}, {"buffer": 0, "byteOffset": 5456, "byteLength": 456}, {"buffer": 0, "byteOffset": 5912, "byteLength": 192}, {"buffer": 0, "byteOffset": 6104, "byteLength": 128}, {"buffer": 0, "byteOffset": 6232, "byteLength": 192}, {"buffer": 0, "byteOffset": 6424, "byteLength": 60}, {"buffer": 0, "byteOffset": 6484, "byteLength": 1044}, {"buffer": 0, "byteOffset": 7528, "byteLength": 696}, {"buffer": 0, "byteOffset": 8224, "byteLength": 1044}, {"buffer": 0, "byteOffset": 9268, "byteLength": 258}, {"buffer": 0, "byteOffset": 9528, "byteLength": 372}, {"buffer": 0, "byteOffset": 9900, "byteLength": 248}, {"buffer": 0, "byteOffset": 10148, "byteLength": 372}, {"buffer": 0, "byteOffset": 10520, "byteLength": 102}, {"buffer": 0, "byteOffset": 10624, "byteLength": 720}, {"buffer": 0, "byteOffset": 11344, "byteLength": 480}, {"buffer": 0, "byteOffset": 11824, "byteLength": 720}, {"buffer": 0, "byteOffset": 12544, "byteLength": 180}, {"buffer": 0, "byteOffset": 12724, "byteLength": 1248}, {"buffer": 0, "byteOffset": 13972, "byteLength": 832}, {"buffer": 0, "byteOffset": 14804, "byteLength": 1248}, {"buffer": 0, "byteOffset": 16052, "byteLength": 528}, {"buffer": 0, "byteOffset": 16580, "byteLength": 432}, {"buffer": 0, "byteOffset": 17012, "byteLength": 288}, {"buffer": 0, "byteOffset": 17300, "byteLength": 432}, {"buffer": 0, "byteOffset": 17732, "byteLength": 108}, {"buffer": 0, "byteOffset": 17840, "byteLength": 84}, {"buffer": 0, "byteOffset": 17924, "byteLength": 56}, {"buffer": 0, "byteOffset": 17980, "byteLength": 84}, {"buffer": 0, "byteOffset": 18064, "byteLength": 18}, {"buffer": 0, "byteOffset": 18084, "byteLength": 288}, {"buffer": 0, "byteOffset": 18372, "byteLength": 192}, {"buffer": 0, "byteOffset": 18564, "byteLength": 288}, {"buffer": 0, "byteOffset": 18852, "byteLength": 72}, {"buffer": 0, "byteOffset": 18924, "byteLength": 264}, {"buffer": 0, "byteOffset": 19188, "byteLength": 176}, {"buffer": 0, "byteOffset": 19364, "byteLength": 264}, {"buffer": 0, "byteOffset": 19628, "byteLength": 84}, {"buffer": 0, "byteOffset": 19712, "byteLength": 4128}, {"buffer": 0, "byteOffset": 23840, "byteLength": 2752}, {"buffer": 0, "byteOffset": 26592, "byteLength": 4128}, {"buffer": 0, "byteOffset": 30720, "byteLength": 984}, {"buffer": 0, "byteOffset": 31704, "byteLength": 216}, {"buffer": 0, "byteOffset": 31920, "byteLength": 144}, {"buffer": 0, "byteOffset": 32064, "byteLength": 216}, {"buffer": 0, "byteOffset": 32280, "byteLength": 60}, {"buffer": 0, "byteOffset": 32340, "byteLength": 96}, {"buffer": 0, "byteOffset": 32436, "byteLength": 64}, {"buffer": 0, "byteOffset": 32500, "byteLength": 96}, {"buffer": 0, "byteOffset": 32596, "byteLength": 24}, {"buffer": 0, "byteOffset": 32620, "byteLength": 420}, {"buffer": 0, "byteOffset": 33040, "byteLength": 280}, {"buffer": 0, "byteOffset": 33320, "byteLength": 420}, {"buffer": 0, "byteOffset": 33740, "byteLength": 102}, {"buffer": 0, "byteOffset": 33844, "byteLength": 228}, {"buffer": 0, "byteOffset": 34072, "byteLength": 152}, {"buffer": 0, "byteOffset": 34224, "byteLength": 228}, {"buffer": 0, "byteOffset": 34452, "byteLength": 66}, {"buffer": 0, "byteOffset": 34520, "byteLength": 96}, {"buffer": 0, "byteOffset": 34616, "byteLength": 64}, {"buffer": 0, "byteOffset": 34680, "byteLength": 96}, {"buffer": 0, "byteOffset": 34776, "byteLength": 24}, {"buffer": 0, "byteOffset": 34800, "byteLength": 144}, {"buffer": 0, "byteOffset": 34944, "byteLength": 96}, {"buffer": 0, "byteOffset": 35040, "byteLength": 144}, {"buffer": 0, "byteOffset": 35184, "byteLength": 36}, {"buffer": 0, "byteOffset": 35220, "byteLength": 3204}, {"buffer": 0, "byteOffset": 38424, "byteLength": 2136}, {"buffer": 0, "byteOffset": 40560, "byteLength": 3204}, {"buffer": 0, "byteOffset": 43764, "byteLength": 870}, {"buffer": 0, "byteOffset": 44636, "byteLength": 96}, {"buffer": 0, "byteOffset": 44732, "byteLength": 64}, {"buffer": 0, "byteOffset": 44796, "byteLength": 96}, {"buffer": 0, "byteOffset": 44892, "byteLength": 24}, {"buffer": 0, "byteOffset": 44916, "byteLength": 1356}, {"buffer": 0, "byteOffset": 46272, "byteLength": 904}, {"buffer": 0, "byteOffset": 47176, "byteLength": 1356}, {"buffer": 0, "byteOffset": 48532, "byteLength": 342}, {"buffer": 0, "byteOffset": 48876, "byteLength": 480}, {"buffer": 0, "byteOffset": 49356, "byteLength": 320}, {"buffer": 0, "byteOffset": 49676, "byteLength": 480}, {"buffer": 0, "byteOffset": 50156, "byteLength": 132}, {"buffer": 0, "byteOffset": 50288, "byteLength": 576}, {"buffer": 0, "byteOffset": 50864, "byteLength": 384}, {"buffer": 0, "byteOffset": 51248, "byteLength": 576}, {"buffer": 0, "byteOffset": 51824, "byteLength": 216}, {"buffer": 0, "byteOffset": 52040, "byteLength": 48}, {"buffer": 0, "byteOffset": 52088, "byteLength": 32}, {"buffer": 0, "byteOffset": 52120, "byteLength": 48}, {"buffer": 0, "byteOffset": 52168, "byteLength": 12}, {"buffer": 0, "byteOffset": 52180, "byteLength": 336}, {"buffer": 0, "byteOffset": 52516, "byteLength": 224}, {"buffer": 0, "byteOffset": 52740, "byteLength": 336}, {"buffer": 0, "byteOffset": 53076, "byteLength": 84}, {"buffer": 0, "byteOffset": 53160, "byteLength": 1296}, {"buffer": 0, "byteOffset": 54456, "byteLength": 864}, {"buffer": 0, "byteOffset": 55320, "byteLength": 1296}, {"buffer": 0, "byteOffset": 56616, "byteLength": 324}, {"buffer": 0, "byteOffset": 56940, "byteLength": 1080}, {"buffer": 0, "byteOffset": 58020, "byteLength": 720}, {"buffer": 0, "byteOffset": 58740, "byteLength": 1080}, {"buffer": 0, "byteOffset": 59820, "byteLength": 264}, {"buffer": 0, "byteOffset": 60084, "byteLength": 192}, {"buffer": 0, "byteOffset": 60276, "byteLength": 128}, {"buffer": 0, "byteOffset": 60404, "byteLength": 192}, {"buffer": 0, "byteOffset": 60596, "byteLength": 48}, {"buffer": 0, "byteOffset": 60644, "byteLength": 576}, {"buffer": 0, "byteOffset": 61220, "byteLength": 384}, {"buffer": 0, "byteOffset": 61604, "byteLength": 576}, {"buffer": 0, "byteOffset": 62180, "byteLength": 144}, {"buffer": 0, "byteOffset": 62324, "byteLength": 360}, {"buffer": 0, "byteOffset": 62684, "byteLength": 240}, {"buffer": 0, "byteOffset": 62924, "byteLength": 360}, {"buffer": 0, "byteOffset": 63284, "byteLength": 144}, {"buffer": 0, "byteOffset": 63428, "byteLength": 1800}, {"buffer": 0, "byteOffset": 65228, "byteLength": 1200}, {"buffer": 0, "byteOffset": 66428, "byteLength": 1800}, {"buffer": 0, "byteOffset": 68228, "byteLength": 396}, {"buffer": 0, "byteOffset": 68624, "byteLength": 288}, {"buffer": 0, "byteOffset": 68912, "byteLength": 192}, {"buffer": 0, "byteOffset": 69104, "byteLength": 288}, {"buffer": 0, "byteOffset": 69392, "byteLength": 96}, {"buffer": 0, "byteOffset": 69488, "byteLength": 144}, {"buffer": 0, "byteOffset": 69632, "byteLength": 96}, {"buffer": 0, "byteOffset": 69728, "byteLength": 144}, {"buffer": 0, "byteOffset": 69872, "byteLength": 36}, {"buffer": 0, "byteOffset": 69908, "byteLength": 216}, {"buffer": 0, "byteOffset": 70124, "byteLength": 144}, {"buffer": 0, "byteOffset": 70268, "byteLength": 216}, {"buffer": 0, "byteOffset": 70484, "byteLength": 72}, {"buffer": 0, "byteOffset": 70556, "byteLength": 48}, {"buffer": 0, "byteOffset": 70604, "byteLength": 32}, {"buffer": 0, "byteOffset": 70636, "byteLength": 48}, {"buffer": 0, "byteOffset": 70684, "byteLength": 12}, {"buffer": 0, "byteOffset": 70696, "byteLength": 720}, {"buffer": 0, "byteOffset": 71416, "byteLength": 480}, {"buffer": 0, "byteOffset": 71896, "byteLength": 720}, {"buffer": 0, "byteOffset": 72616, "byteLength": 180}, {"buffer": 0, "byteOffset": 72796, "byteLength": 360}, {"buffer": 0, "byteOffset": 73156, "byteLength": 240}, {"buffer": 0, "byteOffset": 73396, "byteLength": 360}, {"buffer": 0, "byteOffset": 73756, "byteLength": 108}, {"buffer": 0, "byteOffset": 73864, "byteLength": 768}, {"buffer": 0, "byteOffset": 74632, "byteLength": 512}, {"buffer": 0, "byteOffset": 75144, "byteLength": 768}, {"buffer": 0, "byteOffset": 75912, "byteLength": 264}, {"buffer": 0, "byteOffset": 76176, "byteLength": 792}, {"buffer": 0, "byteOffset": 76968, "byteLength": 528}, {"buffer": 0, "byteOffset": 77496, "byteLength": 792}, {"buffer": 0, "byteOffset": 78288, "byteLength": 240}, {"buffer": 0, "byteOffset": 78528, "byteLength": 1488}, {"buffer": 0, "byteOffset": 80016, "byteLength": 992}, {"buffer": 0, "byteOffset": 81008, "byteLength": 1488}, {"buffer": 0, "byteOffset": 82496, "byteLength": 408}, {"buffer": 0, "byteOffset": 82904, "byteLength": 336}, {"buffer": 0, "byteOffset": 83240, "byteLength": 224}, {"buffer": 0, "byteOffset": 83464, "byteLength": 336}, {"buffer": 0, "byteOffset": 83800, "byteLength": 84}, {"buffer": 0, "byteOffset": 83884, "byteLength": 144}, {"buffer": 0, "byteOffset": 84028, "byteLength": 96}, {"buffer": 0, "byteOffset": 84124, "byteLength": 144}, {"buffer": 0, "byteOffset": 84268, "byteLength": 36}, {"buffer": 0, "byteOffset": 84304, "byteLength": 228}, {"buffer": 0, "byteOffset": 84532, "byteLength": 152}, {"buffer": 0, "byteOffset": 84684, "byteLength": 228}, {"buffer": 0, "byteOffset": 84912, "byteLength": 66}, {"buffer": 0, "byteOffset": 84980, "byteLength": 144}, {"buffer": 0, "byteOffset": 85124, "byteLength": 96}, {"buffer": 0, "byteOffset": 85220, "byteLength": 144}, {"buffer": 0, "byteOffset": 85364, "byteLength": 36}, {"buffer": 0, "byteOffset": 85400, "byteLength": 144}, {"buffer": 0, "byteOffset": 85544, "byteLength": 96}, {"buffer": 0, "byteOffset": 85640, "byteLength": 144}, {"buffer": 0, "byteOffset": 85784, "byteLength": 60}, {"buffer": 0, "byteOffset": 85844, "byteLength": 756}, {"buffer": 0, "byteOffset": 86600, "byteLength": 504}, {"buffer": 0, "byteOffset": 87104, "byteLength": 756}, {"buffer": 0, "byteOffset": 87860, "byteLength": 222}, {"buffer": 0, "byteOffset": 88084, "byteLength": 48}, {"buffer": 0, "byteOffset": 88132, "byteLength": 32}, {"buffer": 0, "byteOffset": 88164, "byteLength": 48}, {"buffer": 0, "byteOffset": 88212, "byteLength": 12}, {"buffer": 0, "byteOffset": 88224, "byteLength": 36}, {"buffer": 0, "byteOffset": 88260, "byteLength": 24}, {"buffer": 0, "byteOffset": 88284, "byteLength": 36}, {"buffer": 0, "byteOffset": 88320, "byteLength": 6}, {"buffer": 0, "byteOffset": 88328, "byteLength": 48}, {"buffer": 0, "byteOffset": 88376, "byteLength": 32}, {"buffer": 0, "byteOffset": 88408, "byteLength": 48}, {"buffer": 0, "byteOffset": 88456, "byteLength": 12}, {"buffer": 0, "byteOffset": 88468, "byteLength": 48}, {"buffer": 0, "byteOffset": 88516, "byteLength": 32}, {"buffer": 0, "byteOffset": 88548, "byteLength": 48}, {"buffer": 0, "byteOffset": 88596, "byteLength": 12}], "accessors": [{"bufferView": 0, "byteOffset": 0, "componentType": 5126, "count": 4, "type": "VEC3", "min": [2.138427734375, 1.416015625, -0.110107421875], "max": [2.510009765625, 1.517578125, -0.09765625]}, {"bufferView": 1, "byteOffset": 0, "componentType": 5126, "count": 4, "type": "VEC2"}, {"bufferView": 2, "byteOffset": 0, "componentType": 5126, "count": 4, "type": "VEC3"}, {"bufferView": 3, "byteOffset": 0, "componentType": 5123, "count": 6, "type": "SCALAR"}, {"bufferView": 4, "byteOffset": 0, "componentType": 5126, "count": 44, "type": "VEC3", "min": [-0.281494140625, 0.0, 4.00048828125], "max": [0.75, 0.247802734375, 4.855224609375]}, {"bufferView": 5, "byteOffset": 0, "componentType": 5126, "count": 44, "type": "VEC2"}, {"bufferView": 6, "byteOffset": 0, "componentType": 5126, "count": 44, "type": "VEC3"}, {"bufferView": 7, "byteOffset": 0, "componentType": 5123, "count": 66, "type": "SCALAR"}, {"bufferView": 8, "byteOffset": 0, "componentType": 5126, "count": 118, "type": "VEC3", "min": [0.385009765625, -0.00634765625, 4.03662109375], "max": [3.62158203125, 1.90576171875, 4.111328125]}, {"bufferView": 9, "byteOffset": 0, "componentType": 5126, "count": 118, "type": "VEC2"}, {"bufferView": 10, "byteOffset": 0, "componentType": 5126, "count": 118, "type": "VEC3"}, {"bufferView": 11, "byteOffset": 0, "componentType": 5123, "count": 228, "type": "SCALAR"}, {"bufferView": 12, "byteOffset": 0, "componentType": 5126, "count": 16, "type": "VEC3", "min": [0.75, 0.0, 4.0], "max": [2.5, 0.0, 4.74951171875]}, {"bufferView": 13, "byteOffset": 0, "componentType": 5126, "count": 16, "type": "VEC2"}, {"bufferView": 14, "byteOffset": 0, "componentType": 5126, "count": 16, "type": "VEC3"}, {"bufferView": 15, "byteOffset": 0, "componentType": 5123, "count": 30, "type": "SCALAR"}, {"bufferView": 16, "byteOffset": 0, "componentType": 5126, "count": 87, "type": "VEC3", "min": [-0.260498046875, 0.006591796875, -0.375244140625], "max": [3.50732421875, 1.41552734375, 4.727294921875]}, {"bufferView": 17, "byteOffset": 0, "componentType": 5126, "count": 87, "type": "VEC2"}, {"bufferView": 18, "byteOffset": 0, "componentType": 5126, "count": 87, "type": "VEC3"}, {"bufferView": 19, "byteOffset": 0, "componentType": 5123, "count": 129, "type": "SCALAR"}, {"bufferView": 20, "byteOffset": 0, "componentType": 5126, "count": 31, "type": "VEC3", "min": [0.07373046875, -0.049560546875, 4.394287109375], "max": [0.75, 0.247802734375, 4.855224609375]}, {"bufferView": 21, "byteOffset": 0, "componentType": 5126, "count": 31, "type": "VEC2"}, {"bufferView": 22, "byteOffset": 0, "componentType": 5126, "count": 31, "type": "VEC3"}, {"bufferView": 23, "byteOffset": 0, "componentType": 5123, "count": 51, "type": "SCALAR"}, {"bufferView": 24, "byteOffset": 0, "componentType": 5126, "count": 60, "type": "VEC3", "min": [-1.166259765625, -0.04248046875, -0.154541015625], "max": [3.482666015625, 1.856689453125, 4.048095703125]}, {"bufferView": 25, "byteOffset": 0, "componentType": 5126, "count": 60, "type": "VEC2"}, {"bufferView": 26, "byteOffset": 0, "componentType": 5126, "count": 60, "type": "VEC3"}, {"bufferView": 27, "byteOffset": 0, "componentType": 5123, "count": 90, "type": "SCALAR"}, {"bufferView": 28, "byteOffset": 0, "componentType": 5126, "count": 104, "type": "VEC3", "min": [1.288818359375, 0.27294921875, 0.190673828125], "max": [2.21337890625, 1.037109375, 1.114990234375]}, {"bufferView": 29, "byteOffset": 0, "componentType": 5126, "count": 104, "type": "VEC2"}, {"bufferView": 30, "byteOffset": 0, "componentType": 5126, "count": 104, "type": "VEC3"}, {"bufferView": 31, "byteOffset": 0, "componentType": 5123, "count": 264, "type": "SCALAR"}, {"bufferView": 32, "byteOffset": 0, "componentType": 5126, "count": 36, "type": "VEC3", "min": [1.386962890625, 0.69384765625, 0.96337890625], "max": [1.687744140625, 0.88525390625, 1.135009765625]}, {"bufferView": 33, "byteOffset": 0, "componentType": 5126, "count": 36, "type": "VEC2"}, {"bufferView": 34, "byteOffset": 0, "componentType": 5126, "count": 36, "type": "VEC3"}, {"bufferView": 35, "byteOffset": 0, "componentType": 5123, "count": 54, "type": "SCALAR"}, {"bufferView": 36, "byteOffset": 0, "componentType": 5126, "count": 7, "type": "VEC3", "min": [1.34912109375, 0.250732421875, 0.069091796875], "max": [2.543212890625, 0.418701171875, 1.265869140625]}, {"bufferView": 37, "byteOffset": 0, "componentType": 5126, "count": 7, "type": "VEC2"}, {"bufferView": 38, "byteOffset": 0, "componentType": 5126, "count": 7, "type": "VEC3"}, {"bufferView": 39, "byteOffset": 0, "componentType": 5123, "count": 9, "type": "SCALAR"}, {"bufferView": 40, "byteOffset": 0, "componentType": 5126, "count": 24, "type": "VEC3", "min": [0.5, 0.10009765625, 2.319580078125], "max": [3.5, 0.14990234375, 3.698486328125]}, {"bufferView": 41, "byteOffset": 0, "componentType": 5126, "count": 24, "type": "VEC2"}, {"bufferView": 42, "byteOffset": 0, "componentType": 5126, "count": 24, "type": "VEC3"}, {"bufferView": 43, "byteOffset": 0, "componentType": 5123, "count": 36, "type": "SCALAR"}, {"bufferView": 44, "byteOffset": 0, "componentType": 5126, "count": 22, "type": "VEC3", "min": [0.5029296875, 0.0, 2.319580078125], "max": [3.5, 0.113037109375, 3.625]}, {"bufferView": 45, "byteOffset": 0, "componentType": 5126, "count": 22, "type": "VEC2"}, {"bufferView": 46, "byteOffset": 0, "componentType": 5126, "count": 22, "type": "VEC3"}, {"bufferView": 47, "byteOffset": 0, "componentType": 5123, "count": 42, "type": "SCALAR"}, {"bufferView": 48, "byteOffset": 0, "componentType": 5126, "count": 344, "type": "VEC3", "min": [3.044677734375, 0.138427734375, 2.379150390625], "max": [3.4208984375, 0.187255859375, 3.074462890625]}, {"bufferView": 49, "byteOffset": 0, "componentType": 5126, "count": 344, "type": "VEC2"}, {"bufferView": 50, "byteOffset": 0, "componentType": 5126, "count": 344, "type": "VEC3"}, {"bufferView": 51, "byteOffset": 0, "componentType": 5123, "count": 492, "type": "SCALAR"}, {"bufferView": 52, "byteOffset": 0, "componentType": 5126, "count": 18, "type": "VEC3", "min": [3.044677734375, 0.16455078125, 2.379150390625], "max": [3.4208984375, 0.1650390625, 3.074462890625]}, {"bufferView": 53, "byteOffset": 0, "componentType": 5126, "count": 18, "type": "VEC2"}, {"bufferView": 54, "byteOffset": 0, "componentType": 5126, "count": 18, "type": "VEC3"}, {"bufferView": 55, "byteOffset": 0, "componentType": 5123, "count": 30, "type": "SCALAR"}, {"bufferView": 56, "byteOffset": 0, "componentType": 5126, "count": 8, "type": "VEC3", "min": [3.25, -0.00244140625, 3.2470703125], "max": [3.75439453125, 0.00048828125, 3.75]}, {"bufferView": 57, "byteOffset": 0, "componentType": 5126, "count": 8, "type": "VEC2"}, {"bufferView": 58, "byteOffset": 0, "componentType": 5126, "count": 8, "type": "VEC3"}, {"bufferView": 59, "byteOffset": 0, "componentType": 5123, "count": 12, "type": "SCALAR"}, {"bufferView": 60, "byteOffset": 0, "componentType": 5126, "count": 35, "type": "VEC3", "min": [-1.06640625, 0.0, 1.25], "max": [3.5, 1.8154296875, 4.0]}, {"bufferView": 61, "byteOffset": 0, "componentType": 5126, "count": 35, "type": "VEC2"}, {"bufferView": 62, "byteOffset": 0, "componentType": 5126, "count": 35, "type": "VEC3"}, {"bufferView": 63, "byteOffset": 0, "componentType": 5123, "count": 51, "type": "SCALAR"}, {"bufferView": 64, "byteOffset": 0, "componentType": 5126, "count": 19, "type": "VEC3", "min": [0.5, 0.0, 1.25], "max": [3.5, 0.0009765625, 4.0]}, {"bufferView": 65, "byteOffset": 0, "componentType": 5126, "count": 19, "type": "VEC2"}, {"bufferView": 66, "byteOffset": 0, "componentType": 5126, "count": 19, "type": "VEC3"}, {"bufferView": 67, "byteOffset": 0, "componentType": 5123, "count": 33, "type": "SCALAR"}, {"bufferView": 68, "byteOffset": 0, "componentType": 5126, "count": 8, "type": "VEC3", "min": [1.303955078125, 0.0, -0.177490234375], "max": [2.6962890625, 1.8154296875, 1.25]}, {"bufferView": 69, "byteOffset": 0, "componentType": 5126, "count": 8, "type": "VEC2"}, {"bufferView": 70, "byteOffset": 0, "componentType": 5126, "count": 8, "type": "VEC3"}, {"bufferView": 71, "byteOffset": 0, "componentType": 5123, "count": 12, "type": "SCALAR"}, {"bufferView": 72, "byteOffset": 0, "componentType": 5126, "count": 12, "type": "VEC3", "min": [-1.06640625, 1.2607421875, 1.866455078125], "max": [3.5, 1.8154296875, 4.0]}, {"bufferView": 73, "byteOffset": 0, "componentType": 5126, "count": 12, "type": "VEC2"}, {"bufferView": 74, "byteOffset": 0, "componentType": 5126, "count": 12, "type": "VEC3"}, {"bufferView": 75, "byteOffset": 0, "componentType": 5123, "count": 18, "type": "SCALAR"}, {"bufferView": 76, "byteOffset": 0, "componentType": 5126, "count": 267, "type": "VEC3", "min": [0.444091796875, 0.000244140625, -0.178955078125], "max": [3.5, 1.815673828125, 4.019287109375]}, {"bufferView": 77, "byteOffset": 0, "componentType": 5126, "count": 267, "type": "VEC2"}, {"bufferView": 78, "byteOffset": 0, "componentType": 5126, "count": 267, "type": "VEC3"}, {"bufferView": 79, "byteOffset": 0, "componentType": 5123, "count": 435, "type": "SCALAR"}, {"bufferView": 80, "byteOffset": 0, "componentType": 5126, "count": 8, "type": "VEC3", "min": [-1.06640625, 1.176025390625, 1.866455078125], "max": [0.5, 1.2607421875, 4.0]}, {"bufferView": 81, "byteOffset": 0, "componentType": 5126, "count": 8, "type": "VEC2"}, {"bufferView": 82, "byteOffset": 0, "componentType": 5126, "count": 8, "type": "VEC3"}, {"bufferView": 83, "byteOffset": 0, "componentType": 5123, "count": 12, "type": "SCALAR"}, {"bufferView": 84, "byteOffset": 0, "componentType": 5126, "count": 113, "type": "VEC3", "min": [1.262451171875, -0.002685546875, -0.294189453125], "max": [2.82958984375, 0.875, 1.616943359375]}, {"bufferView": 85, "byteOffset": 0, "componentType": 5126, "count": 113, "type": "VEC2"}, {"bufferView": 86, "byteOffset": 0, "componentType": 5126, "count": 113, "type": "VEC3"}, {"bufferView": 87, "byteOffset": 0, "componentType": 5123, "count": 171, "type": "SCALAR"}, {"bufferView": 88, "byteOffset": 0, "componentType": 5126, "count": 40, "type": "VEC3", "min": [3.46337890625, 0.0, 3.219970703125], "max": [3.541748046875, 0.67041015625, 3.781494140625]}, {"bufferView": 89, "byteOffset": 0, "componentType": 5126, "count": 40, "type": "VEC2"}, {"bufferView": 90, "byteOffset": 0, "componentType": 5126, "count": 40, "type": "VEC3"}, {"bufferView": 91, "byteOffset": 0, "componentType": 5123, "count": 66, "type": "SCALAR"}, {"bufferView": 92, "byteOffset": 0, "componentType": 5126, "count": 48, "type": "VEC3", "min": [0.458740234375, -0.03271484375, 0.130615234375], "max": [3.53564453125, 0.247314453125, 2.21533203125]}, {"bufferView": 93, "byteOffset": 0, "componentType": 5126, "count": 48, "type": "VEC2"}, {"bufferView": 94, "byteOffset": 0, "componentType": 5126, "count": 48, "type": "VEC3"}, {"bufferView": 95, "byteOffset": 0, "componentType": 5123, "count": 108, "type": "SCALAR"}, {"bufferView": 96, "byteOffset": 0, "componentType": 5126, "count": 4, "type": "VEC3", "min": [2.6962890625, 0.15087890625, 1.2666015625], "max": [3.5, 1.41943359375, 1.883056640625]}, {"bufferView": 97, "byteOffset": 0, "componentType": 5126, "count": 4, "type": "VEC2"}, {"bufferView": 98, "byteOffset": 0, "componentType": 5126, "count": 4, "type": "VEC3"}, {"bufferView": 99, "byteOffset": 0, "componentType": 5123, "count": 6, "type": "SCALAR"}, {"bufferView": 100, "byteOffset": 0, "componentType": 5126, "count": 28, "type": "VEC3", "min": [-1.067138671875, 0.1044921875, 1.866455078125], "max": [3.479248046875, 1.280517578125, 4.0205078125]}, {"bufferView": 101, "byteOffset": 0, "componentType": 5126, "count": 28, "type": "VEC2"}, {"bufferView": 102, "byteOffset": 0, "componentType": 5126, "count": 28, "type": "VEC3"}, {"bufferView": 103, "byteOffset": 0, "componentType": 5123, "count": 42, "type": "SCALAR"}, {"bufferView": 104, "byteOffset": 0, "componentType": 5126, "count": 108, "type": "VEC3", "min": [2.45263671875, -0.000244140625, 1.284912109375], "max": [2.85986328125, 1.841796875, 1.4609375]}, {"bufferView": 105, "byteOffset": 0, "componentType": 5126, "count": 108, "type": "VEC2"}, {"bufferView": 106, "byteOffset": 0, "componentType": 5126, "count": 108, "type": "VEC3"}, {"bufferView": 107, "byteOffset": 0, "componentType": 5123, "count": 162, "type": "SCALAR"}, {"bufferView": 108, "byteOffset": 0, "componentType": 5126, "count": 90, "type": "VEC3", "min": [0.854736328125, 0.014404296875, 1.9736328125], "max": [1.204833984375, 0.257080078125, 2.321044921875]}, {"bufferView": 109, "byteOffset": 0, "componentType": 5126, "count": 90, "type": "VEC2"}, {"bufferView": 110, "byteOffset": 0, "componentType": 5126, "count": 90, "type": "VEC3"}, {"bufferView": 111, "byteOffset": 0, "componentType": 5123, "count": 132, "type": "SCALAR"}, {"bufferView": 112, "byteOffset": 0, "componentType": 5126, "count": 16, "type": "VEC3", "min": [-1.06640625, -1.83349609375, 3.25244140625], "max": [4.362060546875, 1.805908203125, 4.02783203125]}, {"bufferView": 113, "byteOffset": 0, "componentType": 5126, "count": 16, "type": "VEC2"}, {"bufferView": 114, "byteOffset": 0, "componentType": 5126, "count": 16, "type": "VEC3"}, {"bufferView": 115, "byteOffset": 0, "componentType": 5123, "count": 24, "type": "SCALAR"}, {"bufferView": 116, "byteOffset": 0, "componentType": 5126, "count": 48, "type": "VEC3", "min": [0.5234375, 0.90966796875, 1.987060546875], "max": [0.721435546875, 1.146728515625, 2.263671875]}, {"bufferView": 117, "byteOffset": 0, "componentType": 5126, "count": 48, "type": "VEC2"}, {"bufferView": 118, "byteOffset": 0, "componentType": 5126, "count": 48, "type": "VEC3"}, {"bufferView": 119, "byteOffset": 0, "componentType": 5123, "count": 72, "type": "SCALAR"}, {"bufferView": 120, "byteOffset": 0, "componentType": 5126, "count": 30, "type": "VEC3", "min": [0.579833984375, 0.907470703125, 2.328369140625], "max": [0.706298828125, 1.07568359375, 2.931640625]}, {"bufferView": 121, "byteOffset": 0, "componentType": 5126, "count": 30, "type": "VEC2"}, {"bufferView": 122, "byteOffset": 0, "componentType": 5126, "count": 30, "type": "VEC3"}, {"bufferView": 123, "byteOffset": 0, "componentType": 5123, "count": 72, "type": "SCALAR"}, {"bufferView": 124, "byteOffset": 0, "componentType": 5126, "count": 150, "type": "VEC3", "min": [0.549072265625, 1.048583984375, 2.301025390625], "max": [0.73828125, 1.134521484375, 2.958984375]}, {"bufferView": 125, "byteOffset": 0, "componentType": 5126, "count": 150, "type": "VEC2"}, {"bufferView": 126, "byteOffset": 0, "componentType": 5126, "count": 150, "type": "VEC3"}, {"bufferView": 127, "byteOffset": 0, "componentType": 5123, "count": 198, "type": "SCALAR"}, {"bufferView": 128, "byteOffset": 0, "componentType": 5126, "count": 24, "type": "VEC3", "min": [2.518310546875, 0.0087890625, 3.88037109375], "max": [3.404052734375, 0.127685546875, 4.392578125]}, {"bufferView": 129, "byteOffset": 0, "componentType": 5126, "count": 24, "type": "VEC2"}, {"bufferView": 130, "byteOffset": 0, "componentType": 5126, "count": 24, "type": "VEC3"}, {"bufferView": 131, "byteOffset": 0, "componentType": 5123, "count": 48, "type": "SCALAR"}, {"bufferView": 132, "byteOffset": 0, "componentType": 5126, "count": 12, "type": "VEC3", "min": [0.534423828125, 0.26123046875, 2.020263671875], "max": [3.48046875, 0.847412109375, 3.938720703125]}, {"bufferView": 133, "byteOffset": 0, "componentType": 5126, "count": 12, "type": "VEC2"}, {"bufferView": 134, "byteOffset": 0, "componentType": 5126, "count": 12, "type": "VEC3"}, {"bufferView": 135, "byteOffset": 0, "componentType": 5123, "count": 18, "type": "SCALAR"}, {"bufferView": 136, "byteOffset": 0, "componentType": 5126, "count": 18, "type": "VEC3", "min": [0.548828125, 0.905517578125, -0.12744140625], "max": [1.897705078125, 1.70703125, 3.485107421875]}, {"bufferView": 137, "byteOffset": 0, "componentType": 5126, "count": 18, "type": "VEC2"}, {"bufferView": 138, "byteOffset": 0, "componentType": 5126, "count": 18, "type": "VEC3"}, {"bufferView": 139, "byteOffset": 0, "componentType": 5123, "count": 36, "type": "SCALAR"}, {"bufferView": 140, "byteOffset": 0, "componentType": 5126, "count": 4, "type": "VEC3", "min": [1.14013671875, 0.247802734375, 1.166015625], "max": [2.155029296875, 0.3994140625, 1.310302734375]}, {"bufferView": 141, "byteOffset": 0, "componentType": 5126, "count": 4, "type": "VEC2"}, {"bufferView": 142, "byteOffset": 0, "componentType": 5126, "count": 4, "type": "VEC3"}, {"bufferView": 143, "byteOffset": 0, "componentType": 5123, "count": 6, "type": "SCALAR"}, {"bufferView": 144, "byteOffset": 0, "componentType": 5126, "count": 60, "type": "VEC3", "min": [0.3994140625, 0.130859375, 2.318115234375], "max": [0.8828125, 0.736328125, 2.947509765625]}, {"bufferView": 145, "byteOffset": 0, "componentType": 5126, "count": 60, "type": "VEC2"}, {"bufferView": 146, "byteOffset": 0, "componentType": 5126, "count": 60, "type": "VEC3"}, {"bufferView": 147, "byteOffset": 0, "componentType": 5123, "count": 90, "type": "SCALAR"}, {"bufferView": 148, "byteOffset": 0, "componentType": 5126, "count": 30, "type": "VEC3", "min": [0.534423828125, 0.331298828125, 2.630126953125], "max": [0.720703125, 0.716064453125, 2.927001953125]}, {"bufferView": 149, "byteOffset": 0, "componentType": 5126, "count": 30, "type": "VEC2"}, {"bufferView": 150, "byteOffset": 0, "componentType": 5126, "count": 30, "type": "VEC3"}, {"bufferView": 151, "byteOffset": 0, "componentType": 5123, "count": 54, "type": "SCALAR"}, {"bufferView": 152, "byteOffset": 0, "componentType": 5126, "count": 64, "type": "VEC3", "min": [3.225830078125, 0.910400390625, 2.408447265625], "max": [3.444580078125, 1.21533203125, 2.600830078125]}, {"bufferView": 153, "byteOffset": 0, "componentType": 5126, "count": 64, "type": "VEC2"}, {"bufferView": 154, "byteOffset": 0, "componentType": 5126, "count": 64, "type": "VEC3"}, {"bufferView": 155, "byteOffset": 0, "componentType": 5123, "count": 132, "type": "SCALAR"}, {"bufferView": 156, "byteOffset": 0, "componentType": 5126, "count": 66, "type": "VEC3", "min": [3.170166015625, 0.911865234375, 3.08740234375], "max": [3.458740234375, 1.124267578125, 3.337158203125]}, {"bufferView": 157, "byteOffset": 0, "componentType": 5126, "count": 66, "type": "VEC2"}, {"bufferView": 158, "byteOffset": 0, "componentType": 5126, "count": 66, "type": "VEC3"}, {"bufferView": 159, "byteOffset": 0, "componentType": 5123, "count": 120, "type": "SCALAR"}, {"bufferView": 160, "byteOffset": 0, "componentType": 5126, "count": 124, "type": "VEC3", "min": [3.203857421875, 0.910400390625, 2.731689453125], "max": [3.502197265625, 1.217529296875, 2.98876953125]}, {"bufferView": 161, "byteOffset": 0, "componentType": 5126, "count": 124, "type": "VEC2"}, {"bufferView": 162, "byteOffset": 0, "componentType": 5126, "count": 124, "type": "VEC3"}, {"bufferView": 163, "byteOffset": 0, "componentType": 5123, "count": 204, "type": "SCALAR"}, {"bufferView": 164, "byteOffset": 0, "componentType": 5126, "count": 28, "type": "VEC3", "min": [2.55810546875, 0.035400390625, 3.928466796875], "max": [2.905029296875, 0.228759765625, 4.176025390625]}, {"bufferView": 165, "byteOffset": 0, "componentType": 5126, "count": 28, "type": "VEC2"}, {"bufferView": 166, "byteOffset": 0, "componentType": 5126, "count": 28, "type": "VEC3"}, {"bufferView": 167, "byteOffset": 0, "componentType": 5123, "count": 42, "type": "SCALAR"}, {"bufferView": 168, "byteOffset": 0, "componentType": 5126, "count": 12, "type": "VEC3", "min": [2.956298828125, 0.040771484375, 4.146484375], "max": [3.29052734375, 0.18408203125, 4.30126953125]}, {"bufferView": 169, "byteOffset": 0, "componentType": 5126, "count": 12, "type": "VEC2"}, {"bufferView": 170, "byteOffset": 0, "componentType": 5126, "count": 12, "type": "VEC3"}, {"bufferView": 171, "byteOffset": 0, "componentType": 5123, "count": 18, "type": "SCALAR"}, {"bufferView": 172, "byteOffset": 0, "componentType": 5126, "count": 19, "type": "VEC3", "min": [3.157958984375, 0.73974609375, 2.33984375], "max": [3.492431640625, 0.91650390625, 3.9736328125]}, {"bufferView": 173, "byteOffset": 0, "componentType": 5126, "count": 19, "type": "VEC2"}, {"bufferView": 174, "byteOffset": 0, "componentType": 5126, "count": 19, "type": "VEC3"}, {"bufferView": 175, "byteOffset": 0, "componentType": 5123, "count": 33, "type": "SCALAR"}, {"bufferView": 176, "byteOffset": 0, "componentType": 5126, "count": 12, "type": "VEC3", "min": [0.63427734375, 0.14404296875, -0.119873046875], "max": [1.80029296875, 1.815673828125, 2.48876953125]}, {"bufferView": 177, "byteOffset": 0, "componentType": 5126, "count": 12, "type": "VEC2"}, {"bufferView": 178, "byteOffset": 0, "componentType": 5126, "count": 12, "type": "VEC3"}, {"bufferView": 179, "byteOffset": 0, "componentType": 5123, "count": 18, "type": "SCALAR"}, {"bufferView": 180, "byteOffset": 0, "componentType": 5126, "count": 12, "type": "VEC3", "min": [3.226806640625, 0.91552734375, 3.40576171875], "max": [3.484375, 1.18212890625, 3.67431640625]}, {"bufferView": 181, "byteOffset": 0, "componentType": 5126, "count": 12, "type": "VEC2"}, {"bufferView": 182, "byteOffset": 0, "componentType": 5126, "count": 12, "type": "VEC3"}, {"bufferView": 183, "byteOffset": 0, "componentType": 5123, "count": 30, "type": "SCALAR"}, {"bufferView": 184, "byteOffset": 0, "componentType": 5126, "count": 63, "type": "VEC3", "min": [0.617919921875, 0.165283203125, 3.44775390625], "max": [0.892822265625, 0.42431640625, 3.6953125]}, {"bufferView": 185, "byteOffset": 0, "componentType": 5126, "count": 63, "type": "VEC2"}, {"bufferView": 186, "byteOffset": 0, "componentType": 5126, "count": 63, "type": "VEC3"}, {"bufferView": 187, "byteOffset": 0, "componentType": 5123, "count": 111, "type": "SCALAR"}, {"bufferView": 188, "byteOffset": 0, "componentType": 5126, "count": 4, "type": "VEC3", "min": [0.752197265625, 0.189453125, 3.526123046875], "max": [0.877197265625, 0.33740234375, 3.675537109375]}, {"bufferView": 189, "byteOffset": 0, "componentType": 5126, "count": 4, "type": "VEC2"}, {"bufferView": 190, "byteOffset": 0, "componentType": 5126, "count": 4, "type": "VEC3"}, {"bufferView": 191, "byteOffset": 0, "componentType": 5123, "count": 6, "type": "SCALAR"}, {"bufferView": 192, "byteOffset": 0, "componentType": 5126, "count": 3, "type": "VEC3", "min": [0.802001953125, 0.225830078125, 3.592041015625], "max": [0.84375, 0.31298828125, 3.63134765625]}, {"bufferView": 193, "byteOffset": 0, "componentType": 5126, "count": 3, "type": "VEC2"}, {"bufferView": 194, "byteOffset": 0, "componentType": 5126, "count": 3, "type": "VEC3"}, {"bufferView": 195, "byteOffset": 0, "componentType": 5123, "count": 3, "type": "SCALAR"}, {"bufferView": 196, "byteOffset": 0, "componentType": 5126, "count": 4, "type": "VEC3", "min": [1.88232421875, 1.41357421875, -0.110107421875], "max": [2.000244140625, 1.679931640625, -0.09765625]}, {"bufferView": 197, "byteOffset": 0, "componentType": 5126, "count": 4, "type": "VEC2"}, {"bufferView": 198, "byteOffset": 0, "componentType": 5126, "count": 4, "type": "VEC3"}, {"bufferView": 199, "byteOffset": 0, "componentType": 5123, "count": 6, "type": "SCALAR"}, {"bufferView": 200, "byteOffset": 0, "componentType": 5126, "count": 4, "type": "VEC3", "min": [2.00830078125, 1.41357421875, -0.110107421875], "max": [2.116455078125, 1.679931640625, -0.09765625]}, {"bufferView": 201, "byteOffset": 0, "componentType": 5126, "count": 4, "type": "VEC2"}, {"bufferView": 202, "byteOffset": 0, "componentType": 5126, "count": 4, "type": "VEC3"}, {"bufferView": 203, "byteOffset": 0, "componentType": 5123, "count": 6, "type": "SCALAR"}], "samplers": [{"magFilter": 9729, "minFilter": 9729, "wrapS": 10497, "wrapT": 10497}]}