{"asset": {"version": "2.0", "generator": "tongari-nsbmd-to-gltf"}, "scene": 0, "scenes": [{"nodes": [0, 14]}], "nodes": [{"name": "root", "translation": [0.0, 0.465087890625, 0.000244140625], "children": [1, 11]}, {"name": "chest", "translation": [0.0, 0.05908203125, 0.03369140625], "children": [2, 5, 7]}, {"name": "l_shoulder", "translation": [0.201171875, 0.46630859375, -0.025146484375], "children": [3]}, {"name": "l_elbow", "translation": [0.276123046875, -0.221435546875, -0.05712890625], "children": [4]}, {"name": "l_hand", "translation": [0.246337890625, -0.20068359375, 0.004150390625]}, {"name": "neck", "translation": [0.0, 0.324462890625, -0.05615234375], "children": [6]}, {"name": "mouse", "translation": [-0.001708984375, -0.166259765625, 0.93017578125]}, {"name": "r_shoulder", "translation": [-0.201171875, 0.46630859375, -0.025146484375], "children": [8]}, {"name": "r_elbow", "translation": [-0.276123046875, -0.221435546875, -0.05712890625], "children": [9]}, {"name": "r_forarm", "translation": [-0.246337890625, -0.20068359375, 0.004150390625], "children": [10]}, {"name": "r_hand", "translation": [-0.27099609375, -0.21923828125, 0.07568359375]}, {"name": "hip", "translation": [0.0, -0.0556640625, -0.0302734375], "children": [12, 13]}, {"name": "l_knee", "translation": [0.10595703125, -0.1845703125, 0.04736328125]}, {"name": "r_knee", "translation": [-0.10595703125, -0.1845703125, 0.04736328125]}, {"mesh": 0, "name": "uma009"}], "meshes": [{"name": "uma009", "primitives": [{"attributes": {"POSITION": 0, "TEXCOORD_0": 1, "NORMAL": 2}, "indices": 3, "mode": 4, "material": 1}, {"attributes": {"POSITION": 4, "TEXCOORD_0": 5, "NORMAL": 6}, "indices": 7, "mode": 4, "material": 2}, {"attributes": {"POSITION": 8, "TEXCOORD_0": 9, "NORMAL": 10}, "indices": 11, "mode": 4, "material": 3}, {"attributes": {"POSITION": 12, "TEXCOORD_0": 13, "NORMAL": 14}, "indices": 15, "mode": 4, "material": 0}, {"attributes": {"POSITION": 16, "TEXCOORD_0": 17, "NORMAL": 18}, "indices": 19, "mode": 4, "material": 4}, {"attributes": {"POSITION": 20, "TEXCOORD_0": 21, "NORMAL": 22}, "indices": 23, "mode": 4, "material": 5}, {"attributes": {"POSITION": 24, "TEXCOORD_0": 25, "NORMAL": 26}, "indices": 27, "mode": 4, "material": 6}]}], "materials": [{"name": "c00_face", "pbrMetallicRoughness": {"baseColorFactor": [0.803921568627451, 0.803921568627451, 0.803921568627451, 1.0], "metallicFactor": 0.0, "roughnessFactor": 1.0}, "alphaMode": "OPAQUE", "doubleSided": true}, {"name": "c04_head1", "pbrMetallicRoughness": {"baseColorFactor": [0.803921568627451, 0.803921568627451, 0.803921568627451, 1.0], "metallicFactor": 0.0, "roughnessFactor": 1.0}, "alphaMode": "OPAQUE", "doubleSided": true}, {"name": "c05_head2", "pbrMetallicRoughness": {"baseColorFactor": [0.803921568627451, 0.803921568627451, 0.803921568627451, 1.0], "metallicFactor": 0.0, "roughnessFactor": 1.0}, "alphaMode": "OPAQUE", "doubleSided": true}, {"name": "c06_light", "pbrMetallicRoughness": {"baseColorFactor": [0.803921568627451, 0.803921568627451, 0.803921568627451, 1.0], "metallicFactor": 0.0, "roughnessFactor": 1.0}, "alphaMode": "OPAQUE", "doubleSided": true}, {"name": "c07_arm", "pbrMetallicRoughness": {"baseColorFactor": [0.803921568627451, 0.803921568627451, 0.803921568627451, 1.0], "metallicFactor": 0.0, "roughnessFactor": 1.0}, "alphaMode": "OPAQUE", "doubleSided": true}, {"name": "c08_legs", "pbrMetallicRoughness": {"baseColorFactor": [0.803921568627451, 0.803921568627451, 0.803921568627451, 1.0], "metallicFactor": 0.0, "roughnessFactor": 1.0}, "alphaMode": "OPAQUE", "doubleSided": true}, {"name": "c09_mouth", "pbrMetallicRoughness": {"baseColorFactor": [0.803921568627451, 0.803921568627451, 0.803921568627451, 1.0], "metallicFactor": 0.0, "roughnessFactor": 1.0}, "alphaMode": "OPAQUE", "doubleSided": true}], "buffers": [{"byteLength": 16244, "uri": "data:application/octet-stream;base64,"}], "bufferViews": [{"buffer": 0, "byteOffset": 0, "byteLength": 2220}, {"buffer": 0, "byteOffset": 2220, "byteLength": 1480}, {"buffer": 0, "byteOffset": 3700, "byteLength": 2220}, {"buffer": 0, "byteOffset": 5920, "byteLength": 642}, {"buffer": 0, "byteOffset": 6564, "byteLength": 252}, {"buffer": 0, "byteOffset": 6816, "byteLength": 168}, {"buffer": 0, "byteOffset": 6984, "byteLength": 252}, {"buffer": 0, "byteOffset": 7236, "byteLength": 90}, {"buffer": 0, "byteOffset": 7328, "byteLength": 204}, {"buffer": 0, "byteOffset": 7532, "byteLength": 136}, {"buffer": 0, "byteOffset": 7668, "byteLength": 204}, {"buffer": 0, "byteOffset": 7872, "byteLength": 54}, {"buffer": 0, "byteOffset": 7928, "byteLength": 360}, {"buffer": 0, "byteOffset": 8288, "byteLength": 240}, {"buffer": 0, "byteOffset": 8528, "byteLength": 360}, {"buffer": 0, "byteOffset": 8888, "byteLength": 108}, {"buffer": 0, "byteOffset": 8996, "byteLength": 696}, {"buffer": 0, "byteOffset": 9692, "byteLength": 464}, {"buffer": 0, "byteOffset": 10156, "byteLength": 696}, {"buffer": 0, "byteOffset": 10852, "byteLength": 252}, {"buffer": 0, "byteOffset": 11104, "byteLength": 1512}, {"buffer": 0, "byteOffset": 12616, "byteLength": 1008}, {"buffer": 0, "byteOffset": 13624, "byteLength": 1512}, {"buffer": 0, "byteOffset": 15136, "byteLength": 396}, {"buffer": 0, "byteOffset": 15532, "byteLength": 240}, {"buffer": 0, "byteOffset": 15772, "byteLength": 160}, {"buffer": 0, "byteOffset": 15932, "byteLength": 240}, {"buffer": 0, "byteOffset": 16172, "byteLength": 72}], "accessors": [{"bufferView": 0, "byteOffset": 0, "componentType": 5126, "count": 185, "type": "VEC3", "min": [-1.072998046875, 0.47119140625, -1.059326171875], "max": [1.072998046875, 2.252685546875, 1.0625]}, {"bufferView": 1, "byteOffset": 0, "componentType": 5126, "count": 185, "type": "VEC2"}, {"bufferView": 2, "byteOffset": 0, "componentType": 5126, "count": 185, "type": "VEC3"}, {"bufferView": 3, "byteOffset": 0, "componentType": 5123, "count": 321, "type": "SCALAR"}, {"bufferView": 4, "byteOffset": 0, "componentType": 5126, "count": 21, "type": "VEC3", "min": [-0.48828125, 2.252685546875, -0.47119140625], "max": [0.48828125, 2.523681640625, 0.45751953125]}, {"bufferView": 5, "byteOffset": 0, "componentType": 5126, "count": 21, "type": "VEC2"}, {"bufferView": 6, "byteOffset": 0, "componentType": 5126, "count": 21, "type": "VEC3"}, {"bufferView": 7, "byteOffset": 0, "componentType": 5123, "count": 45, "type": "SCALAR"}, {"bufferView": 8, "byteOffset": 0, "componentType": 5126, "count": 17, "type": "VEC3", "min": [-0.283935546875, 2.35302734375, -0.26123046875], "max": [0.283935546875, 3.58837890625, 0.306396484375]}, {"bufferView": 9, "byteOffset": 0, "componentType": 5126, "count": 17, "type": "VEC2"}, {"bufferView": 10, "byteOffset": 0, "componentType": 5126, "count": 17, "type": "VEC3"}, {"bufferView": 11, "byteOffset": 0, "componentType": 5123, "count": 27, "type": "SCALAR"}, {"bufferView": 12, "byteOffset": 0, "componentType": 5126, "count": 30, "type": "VEC3", "min": [-0.667236328125, 0.415771484375, -0.3681640625], "max": [0.667236328125, 0.849365234375, 0.7861328125]}, {"bufferView": 13, "byteOffset": 0, "componentType": 5126, "count": 30, "type": "VEC2"}, {"bufferView": 14, "byteOffset": 0, "componentType": 5126, "count": 30, "type": "VEC3"}, {"bufferView": 15, "byteOffset": 0, "componentType": 5123, "count": 54, "type": "SCALAR"}, {"bufferView": 16, "byteOffset": 0, "componentType": 5126, "count": 58, "type": "VEC3", "min": [-0.828857421875, 0.27880859375, -0.1650390625], "max": [1.0751953125, 1.0654296875, 1.037353515625]}, {"bufferView": 17, "byteOffset": 0, "componentType": 5126, "count": 58, "type": "VEC2"}, {"bufferView": 18, "byteOffset": 0, "componentType": 5126, "count": 58, "type": "VEC3"}, {"bufferView": 19, "byteOffset": 0, "componentType": 5123, "count": 126, "type": "SCALAR"}, {"bufferView": 20, "byteOffset": 0, "componentType": 5126, "count": 126, "type": "VEC3", "min": [-0.401611328125, 0.2236328125, -0.60693359375], "max": [0.533935546875, 0.9921875, 0.55908203125]}, {"bufferView": 21, "byteOffset": 0, "componentType": 5126, "count": 126, "type": "VEC2"}, {"bufferView": 22, "byteOffset": 0, "componentType": 5126, "count": 126, "type": "VEC3"}, {"bufferView": 23, "byteOffset": 0, "componentType": 5123, "count": 198, "type": "SCALAR"}, {"bufferView": 24, "byteOffset": 0, "componentType": 5126, "count": 20, "type": "VEC3", "min": [-0.1220703125, 0.562744140625, 0.076904296875], "max": [0.1220703125, 0.901611328125, 0.93212890625]}, {"bufferView": 25, "byteOffset": 0, "componentType": 5126, "count": 20, "type": "VEC2"}, {"bufferView": 26, "byteOffset": 0, "componentType": 5126, "count": 20, "type": "VEC3"}, {"bufferView": 27, "byteOffset": 0, "componentType": 5123, "count": 36, "type": "SCALAR"}], "samplers": [{"magFilter": 9729, "minFilter": 9729, "wrapS": 10497, "wrapT": 10497}]}