{"asset": {"version": "2.0", "generator": "tongari-nsbmd-to-gltf"}, "scene": 0, "scenes": [{"nodes": [0, 1]}], "nodes": [{"name": "tue0", "translation": [0.0, 0.0, 0.0]}, {"mesh": 0, "name": "1462sbim02_02"}], "meshes": [{"name": "1462sbim02_02", "primitives": [{"attributes": {"POSITION": 0, "TEXCOORD_0": 1, "NORMAL": 2}, "indices": 3, "mode": 4, "material": 0}]}], "materials": [{"name": "sbim02_02_0", "pbrMetallicRoughness": {"baseColorFactor": [1.0, 1.0, 1.0, 1.0], "metallicFactor": 0.0, "roughnessFactor": 1.0}, "alphaMode": "OPAQUE", "doubleSided": true}], "buffers": [{"byteLength": 3752, "uri": "data:application/octet-stream;base64,"}], "bufferViews": [{"buffer": 0, "byteOffset": 0, "byteLength": 1272}, {"buffer": 0, "byteOffset": 1272, "byteLength": 848}, {"buffer": 0, "byteOffset": 2120, "byteLength": 1272}, {"buffer": 0, "byteOffset": 3392, "byteLength": 360}], "accessors": [{"bufferView": 0, "byteOffset": 0, "componentType": 5126, "count": 106, "type": "VEC3", "min": [-0.138916015625, -0.170166015625, -0.274169921875], "max": [0.138916015625, 0.16748046875, 0.886962890625]}, {"bufferView": 1, "byteOffset": 0, "componentType": 5126, "count": 106, "type": "VEC2"}, {"bufferView": 2, "byteOffset": 0, "componentType": 5126, "count": 106, "type": "VEC3"}, {"bufferView": 3, "byteOffset": 0, "componentType": 5123, "count": 180, "type": "SCALAR"}], "samplers": [{"magFilter": 9729, "minFilter": 9729, "wrapS": 10497, "wrapT": 10497}]}