{"asset": {"version": "2.0", "generator": "tongari-nsbmd-to-gltf"}, "scene": 0, "scenes": [{"nodes": [0, 4]}], "nodes": [{"name": "uma_uni_tree0", "translation": [0.0, 0.0, 0.0], "children": [1, 2, 3]}, {"name": "polySurface1", "translation": [-0.07763671875, 9.12255859375, -0.105712890625]}, {"name": "polySurface2", "translation": [-1.687255859375, 6.90966796875, -0.501708984375]}, {"name": "polySurface3", "translation": [0.96728515625, 6.793212890625, 0.27783203125]}, {"mesh": 0, "name": "uma_uni_tree0"}], "meshes": [{"name": "uma_uni_tree0", "primitives": [{"attributes": {"POSITION": 0, "TEXCOORD_0": 1, "NORMAL": 2}, "indices": 3, "mode": 4, "material": 1}, {"attributes": {"POSITION": 4, "TEXCOORD_0": 5, "NORMAL": 6}, "indices": 7, "mode": 4, "material": 0}, {"attributes": {"POSITION": 8, "TEXCOORD_0": 9, "NORMAL": 10}, "indices": 11, "mode": 4, "material": 0}, {"attributes": {"POSITION": 12, "TEXCOORD_0": 13, "NORMAL": 14}, "indices": 15, "mode": 4, "material": 0}]}], "materials": [{"name": "uma_uni000", "pbrMetallicRoughness": {"baseColorFactor": [1.0, 1.0, 1.0, 1.0], "metallicFactor": 0.0, "roughnessFactor": 1.0}, "alphaMode": "OPAQUE", "doubleSided": true}, {"name": "uma_uni001", "pbrMetallicRoughness": {"baseColorFactor": [1.0, 1.0, 1.0, 1.0], "metallicFactor": 0.0, "roughnessFactor": 1.0}, "alphaMode": "OPAQUE", "doubleSided": true}], "buffers": [{"byteLength": 3272, "uri": "data:application/octet-stream;base64,"}], "bufferViews": [{"buffer": 0, "byteOffset": 0, "byteLength": 588}, {"buffer": 0, "byteOffset": 588, "byteLength": 392}, {"buffer": 0, "byteOffset": 980, "byteLength": 588}, {"buffer": 0, "byteOffset": 1568, "byteLength": 162}, {"buffer": 0, "byteOffset": 1732, "byteLength": 144}, {"buffer": 0, "byteOffset": 1876, "byteLength": 96}, {"buffer": 0, "byteOffset": 1972, "byteLength": 144}, {"buffer": 0, "byteOffset": 2116, "byteLength": 36}, {"buffer": 0, "byteOffset": 2152, "byteLength": 192}, {"buffer": 0, "byteOffset": 2344, "byteLength": 128}, {"buffer": 0, "byteOffset": 2472, "byteLength": 192}, {"buffer": 0, "byteOffset": 2664, "byteLength": 48}, {"buffer": 0, "byteOffset": 2712, "byteLength": 192}, {"buffer": 0, "byteOffset": 2904, "byteLength": 128}, {"buffer": 0, "byteOffset": 3032, "byteLength": 192}, {"buffer": 0, "byteOffset": 3224, "byteLength": 48}], "accessors": [{"bufferView": 0, "byteOffset": 0, "componentType": 5126, "count": 49, "type": "VEC3", "min": [-1.890869140625, 0.0, -1.1103515625], "max": [1.30078125, 7.59228515625, 0.794677734375]}, {"bufferView": 1, "byteOffset": 0, "componentType": 5126, "count": 49, "type": "VEC2"}, {"bufferView": 2, "byteOffset": 0, "componentType": 5126, "count": 49, "type": "VEC3"}, {"bufferView": 3, "byteOffset": 0, "componentType": 5123, "count": 81, "type": "SCALAR"}, {"bufferView": 4, "byteOffset": 0, "componentType": 5126, "count": 12, "type": "VEC3", "min": [-2.020751953125, -1.716552734375, -0.894287109375], "max": [2.020751953125, 1.716552734375, 0.6240234375]}, {"bufferView": 5, "byteOffset": 0, "componentType": 5126, "count": 12, "type": "VEC2"}, {"bufferView": 6, "byteOffset": 0, "componentType": 5126, "count": 12, "type": "VEC3"}, {"bufferView": 7, "byteOffset": 0, "componentType": 5123, "count": 18, "type": "SCALAR"}, {"bufferView": 8, "byteOffset": 0, "componentType": 5126, "count": 16, "type": "VEC3", "min": [-1.927978515625, -2.38232421875, -0.991943359375], "max": [1.927978515625, 2.38232421875, 0.76904296875]}, {"bufferView": 9, "byteOffset": 0, "componentType": 5126, "count": 16, "type": "VEC2"}, {"bufferView": 10, "byteOffset": 0, "componentType": 5126, "count": 16, "type": "VEC3"}, {"bufferView": 11, "byteOffset": 0, "componentType": 5123, "count": 24, "type": "SCALAR"}, {"bufferView": 12, "byteOffset": 0, "componentType": 5126, "count": 16, "type": "VEC3", "min": [-2.29052734375, -1.98291015625, -0.89697265625], "max": [2.29052734375, 1.98291015625, 0.70458984375]}, {"bufferView": 13, "byteOffset": 0, "componentType": 5126, "count": 16, "type": "VEC2"}, {"bufferView": 14, "byteOffset": 0, "componentType": 5126, "count": 16, "type": "VEC3"}, {"bufferView": 15, "byteOffset": 0, "componentType": 5123, "count": 24, "type": "SCALAR"}], "samplers": [{"magFilter": 9729, "minFilter": 9729, "wrapS": 10497, "wrapT": 10497}]}