{"asset": {"version": "2.0", "generator": "tongari-nsbmd-to-gltf"}, "scene": 0, "scenes": [{"nodes": [0, 1]}], "nodes": [{"name": "sh_m03_c02", "translation": [0.0, 0.0, 0.0]}, {"mesh": 0, "name": "sh_m03_c02"}], "meshes": [{"name": "sh_m03_c02", "primitives": [{"attributes": {"POSITION": 0, "TEXCOORD_0": 1, "NORMAL": 2}, "indices": 3, "mode": 4, "material": 1}, {"attributes": {"POSITION": 4, "TEXCOORD_0": 5, "NORMAL": 6}, "indices": 7, "mode": 4, "material": 0}]}], "materials": [{"name": "sh_t03c_0", "pbrMetallicRoughness": {"baseColorFactor": [0.803921568627451, 0.803921568627451, 0.803921568627451, 1.0], "metallicFactor": 0.0, "roughnessFactor": 1.0}, "alphaMode": "OPAQUE", "doubleSided": true}, {"name": "sh_t03c_1", "pbrMetallicRoughness": {"baseColorFactor": [0.803921568627451, 0.803921568627451, 0.803921568627451, 1.0], "metallicFactor": 0.0, "roughnessFactor": 1.0}, "alphaMode": "OPAQUE", "doubleSided": true}], "buffers": [{"byteLength": 3092, "uri": "data:application/octet-stream;base64,"}], "bufferViews": [{"buffer": 0, "byteOffset": 0, "byteLength": 360}, {"buffer": 0, "byteOffset": 360, "byteLength": 240}, {"buffer": 0, "byteOffset": 600, "byteLength": 360}, {"buffer": 0, "byteOffset": 960, "byteLength": 96}, {"buffer": 0, "byteOffset": 1056, "byteLength": 696}, {"buffer": 0, "byteOffset": 1752, "byteLength": 464}, {"buffer": 0, "byteOffset": 2216, "byteLength": 696}, {"buffer": 0, "byteOffset": 2912, "byteLength": 180}], "accessors": [{"bufferView": 0, "byteOffset": 0, "componentType": 5126, "count": 30, "type": "VEC3", "min": [0.84716796875, 0.0, 4.160400390625], "max": [6.952880859375, 0.64990234375, 4.739990234375]}, {"bufferView": 1, "byteOffset": 0, "componentType": 5126, "count": 30, "type": "VEC2"}, {"bufferView": 2, "byteOffset": 0, "componentType": 5126, "count": 30, "type": "VEC3"}, {"bufferView": 3, "byteOffset": 0, "componentType": 5123, "count": 48, "type": "SCALAR"}, {"bufferView": 4, "byteOffset": 0, "componentType": 5126, "count": 58, "type": "VEC3", "min": [0.800048828125, 0.60009765625, 4.0], "max": [7.0, 0.739990234375, 4.89990234375]}, {"bufferView": 5, "byteOffset": 0, "componentType": 5126, "count": 58, "type": "VEC2"}, {"bufferView": 6, "byteOffset": 0, "componentType": 5126, "count": 58, "type": "VEC3"}, {"bufferView": 7, "byteOffset": 0, "componentType": 5123, "count": 90, "type": "SCALAR"}], "samplers": [{"magFilter": 9729, "minFilter": 9729, "wrapS": 10497, "wrapT": 10497}]}