{"asset": {"version": "2.0", "generator": "tongari-nsbmd-to-gltf"}, "scene": 0, "scenes": [{"nodes": [0, 1]}], "nodes": [{"name": "kg_sh0_15", "translation": [0.0, 0.0, 0.0]}, {"mesh": 0, "name": "3768kg_sh0_15"}], "meshes": [{"name": "3768kg_sh0_15", "primitives": [{"attributes": {"POSITION": 0, "TEXCOORD_0": 1, "NORMAL": 2}, "indices": 3, "mode": 4, "material": 0}, {"attributes": {"POSITION": 4, "TEXCOORD_0": 5, "NORMAL": 6}, "indices": 7, "mode": 4, "material": 3}, {"attributes": {"POSITION": 8, "TEXCOORD_0": 9, "NORMAL": 10}, "indices": 11, "mode": 4, "material": 1}, {"attributes": {"POSITION": 12, "TEXCOORD_0": 13, "NORMAL": 14}, "indices": 15, "mode": 4, "material": 2}]}], "materials": [{"name": "sh0_15_0", "pbrMetallicRoughness": {"baseColorFactor": [1.0, 1.0, 1.0, 1.0], "metallicFactor": 0.0, "roughnessFactor": 1.0}, "alphaMode": "OPAQUE", "doubleSided": true}, {"name": "sh0_15_1", "pbrMetallicRoughness": {"baseColorFactor": [1.0, 1.0, 1.0, 1.0], "metallicFactor": 0.0, "roughnessFactor": 1.0}, "alphaMode": "OPAQUE", "doubleSided": true}, {"name": "sh0_15_2", "pbrMetallicRoughness": {"baseColorFactor": [1.0, 1.0, 1.0, 1.0], "metallicFactor": 0.0, "roughnessFactor": 1.0}, "alphaMode": "OPAQUE", "doubleSided": true}, {"name": "sh0_15_3", "pbrMetallicRoughness": {"baseColorFactor": [1.0, 1.0, 1.0, 1.0], "metallicFactor": 0.0, "roughnessFactor": 1.0}, "alphaMode": "OPAQUE", "doubleSided": true}], "buffers": [{"byteLength": 4428, "uri": "data:application/octet-stream;base64,"}], "bufferViews": [{"buffer": 0, "byteOffset": 0, "byteLength": 528}, {"buffer": 0, "byteOffset": 528, "byteLength": 352}, {"buffer": 0, "byteOffset": 880, "byteLength": 528}, {"buffer": 0, "byteOffset": 1408, "byteLength": 144}, {"buffer": 0, "byteOffset": 1552, "byteLength": 240}, {"buffer": 0, "byteOffset": 1792, "byteLength": 160}, {"buffer": 0, "byteOffset": 1952, "byteLength": 240}, {"buffer": 0, "byteOffset": 2192, "byteLength": 60}, {"buffer": 0, "byteOffset": 2252, "byteLength": 456}, {"buffer": 0, "byteOffset": 2708, "byteLength": 304}, {"buffer": 0, "byteOffset": 3012, "byteLength": 456}, {"buffer": 0, "byteOffset": 3468, "byteLength": 120}, {"buffer": 0, "byteOffset": 3588, "byteLength": 288}, {"buffer": 0, "byteOffset": 3876, "byteLength": 192}, {"buffer": 0, "byteOffset": 4068, "byteLength": 288}, {"buffer": 0, "byteOffset": 4356, "byteLength": 72}], "accessors": [{"bufferView": 0, "byteOffset": 0, "componentType": 5126, "count": 44, "type": "VEC3", "min": [-0.679443359375, 0.0, -0.447265625], "max": [0.679443359375, 1.629638671875, 0.447265625]}, {"bufferView": 1, "byteOffset": 0, "componentType": 5126, "count": 44, "type": "VEC2"}, {"bufferView": 2, "byteOffset": 0, "componentType": 5126, "count": 44, "type": "VEC3"}, {"bufferView": 3, "byteOffset": 0, "componentType": 5123, "count": 72, "type": "SCALAR"}, {"bufferView": 4, "byteOffset": 0, "componentType": 5126, "count": 20, "type": "VEC3", "min": [0.086181640625, 0.393798828125, -0.1005859375], "max": [0.56396484375, 1.045166015625, 0.32666015625]}, {"bufferView": 5, "byteOffset": 0, "componentType": 5126, "count": 20, "type": "VEC2"}, {"bufferView": 6, "byteOffset": 0, "componentType": 5126, "count": 20, "type": "VEC3"}, {"bufferView": 7, "byteOffset": 0, "componentType": 5123, "count": 30, "type": "SCALAR"}, {"bufferView": 8, "byteOffset": 0, "componentType": 5126, "count": 38, "type": "VEC3", "min": [-0.271728515625, 0.145751953125, -0.118408203125], "max": [0.249755859375, 1.0673828125, 0.45654296875]}, {"bufferView": 9, "byteOffset": 0, "componentType": 5126, "count": 38, "type": "VEC2"}, {"bufferView": 10, "byteOffset": 0, "componentType": 5126, "count": 38, "type": "VEC3"}, {"bufferView": 11, "byteOffset": 0, "componentType": 5123, "count": 60, "type": "SCALAR"}, {"bufferView": 12, "byteOffset": 0, "componentType": 5126, "count": 24, "type": "VEC3", "min": [-0.646240234375, 0.426513671875, -0.18505859375], "max": [-0.169677734375, 0.8662109375, 0.342529296875]}, {"bufferView": 13, "byteOffset": 0, "componentType": 5126, "count": 24, "type": "VEC2"}, {"bufferView": 14, "byteOffset": 0, "componentType": 5126, "count": 24, "type": "VEC3"}, {"bufferView": 15, "byteOffset": 0, "componentType": 5123, "count": 36, "type": "SCALAR"}], "samplers": [{"magFilter": 9729, "minFilter": 9729, "wrapS": 10497, "wrapT": 10497}]}