{"asset": {"version": "2.0", "generator": "tongari-nsbmd-to-gltf"}, "scene": 0, "scenes": [{"nodes": [0, 1]}], "nodes": [{"name": "polySurface281", "translation": [0.0, 0.0, 0.0]}, {"mesh": 0, "name": "doukutu_00_2"}], "meshes": [{"name": "doukutu_00_2", "primitives": [{"attributes": {"POSITION": 0, "TEXCOORD_0": 1}, "indices": 2, "mode": 4, "material": 7}, {"attributes": {"POSITION": 3, "TEXCOORD_0": 4}, "indices": 5, "mode": 4, "material": 3}, {"attributes": {"POSITION": 6, "TEXCOORD_0": 7}, "indices": 8, "mode": 4, "material": 5}, {"attributes": {"POSITION": 9, "TEXCOORD_0": 10}, "indices": 11, "mode": 4, "material": 11}, {"attributes": {"POSITION": 12, "TEXCOORD_0": 13}, "indices": 14, "mode": 4, "material": 6}, {"attributes": {"POSITION": 15, "TEXCOORD_0": 16}, "indices": 17, "mode": 4, "material": 12}, {"attributes": {"POSITION": 18, "TEXCOORD_0": 19}, "indices": 20, "mode": 4, "material": 1}, {"attributes": {"POSITION": 21, "TEXCOORD_0": 22}, "indices": 23, "mode": 4, "material": 0}, {"attributes": {"POSITION": 24, "TEXCOORD_0": 25}, "indices": 26, "mode": 4, "material": 4}, {"attributes": {"POSITION": 27, "TEXCOORD_0": 28}, "indices": 29, "mode": 4, "material": 8}, {"attributes": {"POSITION": 30, "TEXCOORD_0": 31}, "indices": 32, "mode": 4, "material": 2}, {"attributes": {"POSITION": 33, "TEXCOORD_0": 34}, "indices": 35, "mode": 4, "material": 10}, {"attributes": {"POSITION": 36, "TEXCOORD_0": 37}, "indices": 38, "mode": 4, "material": 9}]}], "materials": [{"name": "dou_f01", "pbrMetallicRoughness": {"baseColorFactor": [1.0, 1.0, 1.0, 1.0], "metallicFactor": 0.0, "roughnessFactor": 1.0}, "alphaMode": "OPAQUE", "doubleSided": true}, {"name": "dou_f02", "pbrMetallicRoughness": {"baseColorFactor": [1.0, 1.0, 1.0, 1.0], "metallicFactor": 0.0, "roughnessFactor": 1.0}, "alphaMode": "OPAQUE", "doubleSided": true}, {"name": "dou_isi00", "pbrMetallicRoughness": {"baseColorFactor": [1.0, 1.0, 1.0, 1.0], "metallicFactor": 0.0, "roughnessFactor": 1.0}, "alphaMode": "OPAQUE", "doubleSided": true}, {"name": "dou_lake00", "pbrMetallicRoughness": {"baseColorFactor": [1.0, 1.0, 1.0, 0.5161290322580645], "metallicFactor": 0.0, "roughnessFactor": 1.0}, "alphaMode": "BLEND", "doubleSided": true}, {"name": "dou_lake01", "pbrMetallicRoughness": {"baseColorFactor": [1.0, 1.0, 1.0, 1.0], "metallicFactor": 0.0, "roughnessFactor": 1.0}, "alphaMode": "OPAQUE", "doubleSided": true}, {"name": "dou_lakef00", "pbrMetallicRoughness": {"baseColorFactor": [1.0, 1.0, 1.0, 1.0], "metallicFactor": 0.0, "roughnessFactor": 1.0}, "alphaMode": "OPAQUE", "doubleSided": true}, {"name": "dou_lakew00", "pbrMetallicRoughness": {"baseColorFactor": [1.0, 1.0, 1.0, 1.0], "metallicFactor": 0.0, "roughnessFactor": 1.0}, "alphaMode": "OPAQUE", "doubleSided": true}, {"name": "dou_light00", "pbrMetallicRoughness": {"baseColorFactor": [1.0, 1.0, 1.0, 1.0], "metallicFactor": 0.0, "roughnessFactor": 1.0}, "alphaMode": "OPAQUE", "doubleSided": true}, {"name": "dou_stone00", "pbrMetallicRoughness": {"baseColorFactor": [1.0, 1.0, 1.0, 1.0], "metallicFactor": 0.0, "roughnessFactor": 1.0}, "alphaMode": "OPAQUE", "doubleSided": true}, {"name": "dou_turara03", "pbrMetallicRoughness": {"baseColorFactor": [1.0, 1.0, 1.0, 1.0], "metallicFactor": 0.0, "roughnessFactor": 1.0}, "alphaMode": "OPAQUE", "doubleSided": true}, {"name": "dou_turara06", "pbrMetallicRoughness": {"baseColorFactor": [1.0, 1.0, 1.0, 1.0], "metallicFactor": 0.0, "roughnessFactor": 1.0}, "alphaMode": "OPAQUE", "doubleSided": true}, {"name": "dou_w01", "pbrMetallicRoughness": {"baseColorFactor": [1.0, 1.0, 1.0, 1.0], "metallicFactor": 0.0, "roughnessFactor": 1.0}, "alphaMode": "OPAQUE", "doubleSided": true}, {"name": "dou_w05", "pbrMetallicRoughness": {"baseColorFactor": [1.0, 1.0, 1.0, 1.0], "metallicFactor": 0.0, "roughnessFactor": 1.0}, "alphaMode": "OPAQUE", "doubleSided": true}], "buffers": [{"byteLength": 6346, "uri": "data:application/octet-stream;base64,"}], "bufferViews": [{"buffer": 0, "byteOffset": 0, "byteLength": 108}, {"buffer": 0, "byteOffset": 108, "byteLength": 72}, {"buffer": 0, "byteOffset": 180, "byteLength": 18}, {"buffer": 0, "byteOffset": 200, "byteLength": 144}, {"buffer": 0, "byteOffset": 344, "byteLength": 96}, {"buffer": 0, "byteOffset": 440, "byteLength": 48}, {"buffer": 0, "byteOffset": 488, "byteLength": 144}, {"buffer": 0, "byteOffset": 632, "byteLength": 96}, {"buffer": 0, "byteOffset": 728, "byteLength": 48}, {"buffer": 0, "byteOffset": 776, "byteLength": 192}, {"buffer": 0, "byteOffset": 968, "byteLength": 128}, {"buffer": 0, "byteOffset": 1096, "byteLength": 48}, {"buffer": 0, "byteOffset": 1144, "byteLength": 240}, {"buffer": 0, "byteOffset": 1384, "byteLength": 160}, {"buffer": 0, "byteOffset": 1544, "byteLength": 60}, {"buffer": 0, "byteOffset": 1604, "byteLength": 240}, {"buffer": 0, "byteOffset": 1844, "byteLength": 160}, {"buffer": 0, "byteOffset": 2004, "byteLength": 60}, {"buffer": 0, "byteOffset": 2064, "byteLength": 96}, {"buffer": 0, "byteOffset": 2160, "byteLength": 64}, {"buffer": 0, "byteOffset": 2224, "byteLength": 24}, {"buffer": 0, "byteOffset": 2248, "byteLength": 288}, {"buffer": 0, "byteOffset": 2536, "byteLength": 192}, {"buffer": 0, "byteOffset": 2728, "byteLength": 72}, {"buffer": 0, "byteOffset": 2800, "byteLength": 288}, {"buffer": 0, "byteOffset": 3088, "byteLength": 192}, {"buffer": 0, "byteOffset": 3280, "byteLength": 84}, {"buffer": 0, "byteOffset": 3364, "byteLength": 480}, {"buffer": 0, "byteOffset": 3844, "byteLength": 320}, {"buffer": 0, "byteOffset": 4164, "byteLength": 144}, {"buffer": 0, "byteOffset": 4308, "byteLength": 240}, {"buffer": 0, "byteOffset": 4548, "byteLength": 160}, {"buffer": 0, "byteOffset": 4708, "byteLength": 60}, {"buffer": 0, "byteOffset": 4768, "byteLength": 408}, {"buffer": 0, "byteOffset": 5176, "byteLength": 272}, {"buffer": 0, "byteOffset": 5448, "byteLength": 108}, {"buffer": 0, "byteOffset": 5556, "byteLength": 420}, {"buffer": 0, "byteOffset": 5976, "byteLength": 280}, {"buffer": 0, "byteOffset": 6256, "byteLength": 90}], "accessors": [{"bufferView": 0, "byteOffset": 0, "componentType": 5126, "count": 9, "type": "VEC3", "min": [0.10009765625, 0.59716796875, -1.75244140625], "max": [2.03466796875, 5.59033203125, -1.0]}, {"bufferView": 1, "byteOffset": 0, "componentType": 5126, "count": 9, "type": "VEC2"}, {"bufferView": 2, "byteOffset": 0, "componentType": 5123, "count": 9, "type": "SCALAR"}, {"bufferView": 3, "byteOffset": 0, "componentType": 5126, "count": 12, "type": "VEC3", "min": [-1.848388671875, -0.12548828125, -3.990966796875], "max": [3.848388671875, -0.12548828125, 1.990966796875]}, {"bufferView": 4, "byteOffset": 0, "componentType": 5126, "count": 12, "type": "VEC2"}, {"bufferView": 5, "byteOffset": 0, "componentType": 5123, "count": 24, "type": "SCALAR"}, {"bufferView": 6, "byteOffset": 0, "componentType": 5126, "count": 12, "type": "VEC3", "min": [-1.848388671875, -0.75, -3.990966796875], "max": [3.848388671875, -0.75, 1.990966796875]}, {"bufferView": 7, "byteOffset": 0, "componentType": 5126, "count": 12, "type": "VEC2"}, {"bufferView": 8, "byteOffset": 0, "componentType": 5123, "count": 24, "type": "SCALAR"}, {"bufferView": 9, "byteOffset": 0, "componentType": 5126, "count": 16, "type": "VEC3", "min": [-1.657470703125, 1.25, -3.6162109375], "max": [3.25, 4.971435546875, 0.0]}, {"bufferView": 10, "byteOffset": 0, "componentType": 5126, "count": 16, "type": "VEC2"}, {"bufferView": 11, "byteOffset": 0, "componentType": 5123, "count": 24, "type": "SCALAR"}, {"bufferView": 12, "byteOffset": 0, "componentType": 5126, "count": 20, "type": "VEC3", "min": [-1.657470703125, -0.75, -3.639892578125], "max": [3.399169921875, 1.25, 0.0]}, {"bufferView": 13, "byteOffset": 0, "componentType": 5126, "count": 20, "type": "VEC2"}, {"bufferView": 14, "byteOffset": 0, "componentType": 5123, "count": 30, "type": "SCALAR"}, {"bufferView": 15, "byteOffset": 0, "componentType": 5126, "count": 20, "type": "VEC3", "min": [2.967041015625, 0.0, -0.01708984375], "max": [4.38525390625, 4.425048828125, 3.25]}, {"bufferView": 16, "byteOffset": 0, "componentType": 5126, "count": 20, "type": "VEC2"}, {"bufferView": 17, "byteOffset": 0, "componentType": 5123, "count": 30, "type": "SCALAR"}, {"bufferView": 18, "byteOffset": 0, "componentType": 5126, "count": 8, "type": "VEC3", "min": [0.25, 0.0, 2.25], "max": [4.25, 0.0, 3.25]}, {"bufferView": 19, "byteOffset": 0, "componentType": 5126, "count": 8, "type": "VEC2"}, {"bufferView": 20, "byteOffset": 0, "componentType": 5123, "count": 12, "type": "SCALAR"}, {"bufferView": 21, "byteOffset": 0, "componentType": 5126, "count": 24, "type": "VEC3", "min": [0.25, 0.0, -1.5], "max": [5.0, 0.0, 2.25]}, {"bufferView": 22, "byteOffset": 0, "componentType": 5126, "count": 24, "type": "VEC2"}, {"bufferView": 23, "byteOffset": 0, "componentType": 5123, "count": 36, "type": "SCALAR"}, {"bufferView": 24, "byteOffset": 0, "componentType": 5126, "count": 24, "type": "VEC3", "min": [0.25, -0.75, -0.25], "max": [3.25, 0.0, 2.25]}, {"bufferView": 25, "byteOffset": 0, "componentType": 5126, "count": 24, "type": "VEC2"}, {"bufferView": 26, "byteOffset": 0, "componentType": 5123, "count": 42, "type": "SCALAR"}, {"bufferView": 27, "byteOffset": 0, "componentType": 5126, "count": 40, "type": "VEC3", "min": [3.0009765625, -0.25341796875, -1.7958984375], "max": [4.98486328125, 0.644775390625, 0.737548828125]}, {"bufferView": 28, "byteOffset": 0, "componentType": 5126, "count": 40, "type": "VEC2"}, {"bufferView": 29, "byteOffset": 0, "componentType": 5123, "count": 72, "type": "SCALAR"}, {"bufferView": 30, "byteOffset": 0, "componentType": 5126, "count": 20, "type": "VEC3", "min": [2.470947265625, -0.019287109375, -0.158203125], "max": [3.354248046875, 1.7548828125, 0.278564453125]}, {"bufferView": 31, "byteOffset": 0, "componentType": 5126, "count": 20, "type": "VEC2"}, {"bufferView": 32, "byteOffset": 0, "componentType": 5123, "count": 30, "type": "SCALAR"}, {"bufferView": 33, "byteOffset": 0, "componentType": 5126, "count": 34, "type": "VEC3", "min": [0.906982421875, -0.75, -0.198974609375], "max": [2.98828125, 4.437744140625, 0.739501953125]}, {"bufferView": 34, "byteOffset": 0, "componentType": 5126, "count": 34, "type": "VEC2"}, {"bufferView": 35, "byteOffset": 0, "componentType": 5123, "count": 54, "type": "SCALAR"}, {"bufferView": 36, "byteOffset": 0, "componentType": 5126, "count": 35, "type": "VEC3", "min": [0.577880859375, 2.232177734375, 0.366943359375], "max": [3.229736328125, 4.437744140625, 0.689697265625]}, {"bufferView": 37, "byteOffset": 0, "componentType": 5126, "count": 35, "type": "VEC2"}, {"bufferView": 38, "byteOffset": 0, "componentType": 5123, "count": 45, "type": "SCALAR"}], "samplers": [{"magFilter": 9729, "minFilter": 9729, "wrapS": 10497, "wrapT": 10497}]}