{"asset": {"version": "2.0", "generator": "tongari-nsbmd-to-gltf"}, "scene": 0, "scenes": [{"nodes": [0, 1]}], "nodes": [{"name": "ghost_lobby", "translation": [0.0, 0.0, 0.0]}, {"mesh": 0, "name": "ghost_lobby"}], "meshes": [{"name": "ghost_lobby", "primitives": [{"attributes": {"POSITION": 0, "TEXCOORD_0": 1, "NORMAL": 2}, "indices": 3, "mode": 4, "material": 45}, {"attributes": {"POSITION": 4, "TEXCOORD_0": 5, "NORMAL": 6}, "indices": 7, "mode": 4, "material": 21}, {"attributes": {"POSITION": 8, "TEXCOORD_0": 9, "NORMAL": 10}, "indices": 11, "mode": 4, "material": 40}, {"attributes": {"POSITION": 12, "TEXCOORD_0": 13, "NORMAL": 14}, "indices": 15, "mode": 4, "material": 41}, {"attributes": {"POSITION": 16, "TEXCOORD_0": 17, "NORMAL": 18}, "indices": 19, "mode": 4, "material": 43}, {"attributes": {"POSITION": 20, "TEXCOORD_0": 21, "NORMAL": 22}, "indices": 23, "mode": 4, "material": 44}, {"attributes": {"POSITION": 24, "TEXCOORD_0": 25, "NORMAL": 26}, "indices": 27, "mode": 4, "material": 49}, {"attributes": {"POSITION": 28, "TEXCOORD_0": 29, "NORMAL": 30}, "indices": 31, "mode": 4, "material": 26}, {"attributes": {"POSITION": 32, "TEXCOORD_0": 33, "NORMAL": 34}, "indices": 35, "mode": 4, "material": 27}, {"attributes": {"POSITION": 36, "TEXCOORD_0": 37, "NORMAL": 38}, "indices": 39, "mode": 4, "material": 28}, {"attributes": {"POSITION": 40, "TEXCOORD_0": 41, "NORMAL": 42}, "indices": 43, "mode": 4, "material": 1}, {"attributes": {"POSITION": 44, "TEXCOORD_0": 45, "NORMAL": 46}, "indices": 47, "mode": 4, "material": 2}, {"attributes": {"POSITION": 48, "TEXCOORD_0": 49, "NORMAL": 50}, "indices": 51, "mode": 4, "material": 4}, {"attributes": {"POSITION": 52, "TEXCOORD_0": 53, "NORMAL": 54}, "indices": 55, "mode": 4, "material": 22}, {"attributes": {"POSITION": 56, "TEXCOORD_0": 57, "NORMAL": 58}, "indices": 59, "mode": 4, "material": 25}, {"attributes": {"POSITION": 60, "TEXCOORD_0": 61, "NORMAL": 62}, "indices": 63, "mode": 4, "material": 23}, {"attributes": {"POSITION": 64, "TEXCOORD_0": 65, "NORMAL": 66}, "indices": 67, "mode": 4, "material": 14}, {"attributes": {"POSITION": 68, "TEXCOORD_0": 69, "NORMAL": 70}, "indices": 71, "mode": 4, "material": 20}, {"attributes": {"POSITION": 72, "TEXCOORD_0": 73, "NORMAL": 74}, "indices": 75, "mode": 4, "material": 47}, {"attributes": {"POSITION": 76, "TEXCOORD_0": 77, "NORMAL": 78}, "indices": 79, "mode": 4, "material": 16}, {"attributes": {"POSITION": 80, "TEXCOORD_0": 81, "NORMAL": 82}, "indices": 83, "mode": 4, "material": 18}, {"attributes": {"POSITION": 84, "TEXCOORD_0": 85, "NORMAL": 86}, "indices": 87, "mode": 4, "material": 54}, {"attributes": {"POSITION": 88, "TEXCOORD_0": 89, "NORMAL": 90}, "indices": 91, "mode": 4, "material": 17}, {"attributes": {"POSITION": 92, "TEXCOORD_0": 93, "NORMAL": 94}, "indices": 95, "mode": 4, "material": 59}, {"attributes": {"POSITION": 96, "TEXCOORD_0": 97, "NORMAL": 98}, "indices": 99, "mode": 4, "material": 58}, {"attributes": {"POSITION": 100, "TEXCOORD_0": 101, "NORMAL": 102}, "indices": 103, "mode": 4, "material": 9}, {"attributes": {"POSITION": 104, "TEXCOORD_0": 105, "NORMAL": 106}, "indices": 107, "mode": 4, "material": 11}, {"attributes": {"POSITION": 108, "TEXCOORD_0": 109, "NORMAL": 110}, "indices": 111, "mode": 4, "material": 55}, {"attributes": {"POSITION": 112, "TEXCOORD_0": 113, "NORMAL": 114}, "indices": 115, "mode": 4, "material": 60}, {"attributes": {"POSITION": 116, "TEXCOORD_0": 117, "NORMAL": 118}, "indices": 119, "mode": 4, "material": 15}, {"attributes": {"POSITION": 120, "TEXCOORD_0": 121, "NORMAL": 122}, "indices": 123, "mode": 4, "material": 51}, {"attributes": {"POSITION": 124, "TEXCOORD_0": 125, "NORMAL": 126}, "indices": 127, "mode": 4, "material": 13}, {"attributes": {"POSITION": 128, "TEXCOORD_0": 129}, "indices": 130, "mode": 4, "material": 53}, {"attributes": {"POSITION": 131, "TEXCOORD_0": 132, "NORMAL": 133}, "indices": 134, "mode": 4, "material": 62}, {"attributes": {"POSITION": 135, "TEXCOORD_0": 136, "NORMAL": 137}, "indices": 138, "mode": 4, "material": 46}, {"attributes": {"POSITION": 139, "TEXCOORD_0": 140, "NORMAL": 141}, "indices": 142, "mode": 4, "material": 50}, {"attributes": {"POSITION": 143, "TEXCOORD_0": 144, "NORMAL": 145}, "indices": 146, "mode": 4, "material": 12}, {"attributes": {"POSITION": 147, "TEXCOORD_0": 148, "NORMAL": 149}, "indices": 150, "mode": 4, "material": 56}, {"attributes": {"POSITION": 151, "TEXCOORD_0": 152}, "indices": 153, "mode": 4, "material": 10}, {"attributes": {"POSITION": 154, "TEXCOORD_0": 155, "NORMAL": 156}, "indices": 157, "mode": 4, "material": 52}, {"attributes": {"POSITION": 158, "TEXCOORD_0": 159, "NORMAL": 160}, "indices": 161, "mode": 4, "material": 48}, {"attributes": {"POSITION": 162, "TEXCOORD_0": 163, "NORMAL": 164}, "indices": 165, "mode": 4, "material": 57}, {"attributes": {"POSITION": 166, "TEXCOORD_0": 167, "NORMAL": 168}, "indices": 169, "mode": 4, "material": 5}, {"attributes": {"POSITION": 170, "TEXCOORD_0": 171, "NORMAL": 172}, "indices": 173, "mode": 4, "material": 6}, {"attributes": {"POSITION": 174, "TEXCOORD_0": 175, "NORMAL": 176}, "indices": 177, "mode": 4, "material": 7}, {"attributes": {"POSITION": 178, "TEXCOORD_0": 179, "NORMAL": 180}, "indices": 181, "mode": 4, "material": 8}, {"attributes": {"POSITION": 182, "TEXCOORD_0": 183, "NORMAL": 184}, "indices": 185, "mode": 4, "material": 42}, {"attributes": {"POSITION": 186, "TEXCOORD_0": 187, "NORMAL": 188}, "indices": 189, "mode": 4, "material": 3}, {"attributes": {"POSITION": 190, "TEXCOORD_0": 191, "NORMAL": 192}, "indices": 193, "mode": 4, "material": 0}, {"attributes": {"POSITION": 194, "TEXCOORD_0": 195, "NORMAL": 196}, "indices": 197, "mode": 4, "material": 37}, {"attributes": {"POSITION": 198, "TEXCOORD_0": 199, "NORMAL": 200}, "indices": 201, "mode": 4, "material": 36}, {"attributes": {"POSITION": 202, "TEXCOORD_0": 203, "NORMAL": 204}, "indices": 205, "mode": 4, "material": 38}, {"attributes": {"POSITION": 206, "TEXCOORD_0": 207, "NORMAL": 208}, "indices": 209, "mode": 4, "material": 39}, {"attributes": {"POSITION": 210, "TEXCOORD_0": 211, "NORMAL": 212}, "indices": 213, "mode": 4, "material": 30}, {"attributes": {"POSITION": 214, "TEXCOORD_0": 215, "NORMAL": 216}, "indices": 217, "mode": 4, "material": 31}, {"attributes": {"POSITION": 218, "TEXCOORD_0": 219, "NORMAL": 220}, "indices": 221, "mode": 4, "material": 29}, {"attributes": {"POSITION": 222, "TEXCOORD_0": 223, "NORMAL": 224}, "indices": 225, "mode": 4, "material": 32}, {"attributes": {"POSITION": 226, "TEXCOORD_0": 227, "NORMAL": 228}, "indices": 229, "mode": 4, "material": 24}, {"attributes": {"POSITION": 230, "TEXCOORD_0": 231, "NORMAL": 232}, "indices": 233, "mode": 4, "material": 14}, {"attributes": {"POSITION": 234, "TEXCOORD_0": 235, "NORMAL": 236}, "indices": 237, "mode": 4, "material": 19}, {"attributes": {"POSITION": 238, "TEXCOORD_0": 239, "NORMAL": 240}, "indices": 241, "mode": 4, "material": 61}, {"attributes": {"POSITION": 242, "TEXCOORD_0": 243, "NORMAL": 244}, "indices": 245, "mode": 4, "material": 33}, {"attributes": {"POSITION": 246, "TEXCOORD_0": 247, "NORMAL": 248}, "indices": 249, "mode": 4, "material": 34}, {"attributes": {"POSITION": 250, "TEXCOORD_0": 251, "NORMAL": 252}, "indices": 253, "mode": 4, "material": 35}]}], "materials": [{"name": "_0", "pbrMetallicRoughness": {"baseColorFactor": [1.0, 1.0, 1.0, 1.0], "metallicFactor": 0.0, "roughnessFactor": 1.0}, "alphaMode": "OPAQUE", "doubleSided": true}, {"name": "_05_1", "pbrMetallicRoughness": {"baseColorFactor": [1.0, 1.0, 1.0, 1.0], "metallicFactor": 0.0, "roughnessFactor": 1.0}, "alphaMode": "OPAQUE", "doubleSided": true}, {"name": "_05_2", "pbrMetallicRoughness": {"baseColorFactor": [1.0, 1.0, 1.0, 1.0], "metallicFactor": 0.0, "roughnessFactor": 1.0}, "alphaMode": "OPAQUE", "doubleSided": true}, {"name": "_2", "pbrMetallicRoughness": {"baseColorFactor": [1.0, 1.0, 1.0, 1.0], "metallicFactor": 0.0, "roughnessFactor": 1.0}, "alphaMode": "OPAQUE", "doubleSided": true}, {"name": "_3", "pbrMetallicRoughness": {"baseColorFactor": [1.0, 1.0, 1.0, 1.0], "metallicFactor": 0.0, "roughnessFactor": 1.0}, "alphaMode": "OPAQUE", "doubleSided": true}, {"name": "bed00", "pbrMetallicRoughness": {"baseColorFactor": [1.0, 1.0, 1.0, 1.0], "metallicFactor": 0.0, "roughnessFactor": 1.0}, "alphaMode": "OPAQUE", "doubleSided": true}, {"name": "bed01", "pbrMetallicRoughness": {"baseColorFactor": [1.0, 1.0, 1.0, 0.6129032258064516], "metallicFactor": 0.0, "roughnessFactor": 1.0}, "alphaMode": "BLEND", "doubleSided": true}, {"name": "bed02", "pbrMetallicRoughness": {"baseColorFactor": [1.0, 1.0, 1.0, 1.0], "metallicFactor": 0.0, "roughnessFactor": 1.0}, "alphaMode": "OPAQUE", "doubleSided": true}, {"name": "bed03", "pbrMetallicRoughness": {"baseColorFactor": [1.0, 1.0, 1.0, 1.0], "metallicFactor": 0.0, "roughnessFactor": 1.0}, "alphaMode": "OPAQUE", "doubleSided": true}, {"name": "book_chi00", "pbrMetallicRoughness": {"baseColorFactor": [1.0, 1.0, 1.0, 1.0], "metallicFactor": 0.0, "roughnessFactor": 1.0}, "alphaMode": "OPAQUE", "doubleSided": true}, {"name": "ch00", "pbrMetallicRoughness": {"baseColorFactor": [1.0, 1.0, 1.0, 1.0], "metallicFactor": 0.0, "roughnessFactor": 1.0}, "alphaMode": "OPAQUE", "doubleSided": true}, {"name": "chi01", "pbrMetallicRoughness": {"baseColorFactor": [1.0, 1.0, 1.0, 1.0], "metallicFactor": 0.0, "roughnessFactor": 1.0}, "alphaMode": "OPAQUE", "doubleSided": true}, {"name": "dan00", "pbrMetallicRoughness": {"baseColorFactor": [1.0, 1.0, 1.0, 1.0], "metallicFactor": 0.0, "roughnessFactor": 1.0}, "alphaMode": "OPAQUE", "doubleSided": true}, {"name": "dw00", "pbrMetallicRoughness": {"baseColorFactor": [1.0, 1.0, 1.0, 1.0], "metallicFactor": 0.0, "roughnessFactor": 1.0}, "alphaMode": "OPAQUE", "doubleSided": true}, {"name": "exit00", "pbrMetallicRoughness": {"baseColorFactor": [1.0, 1.0, 1.0, 1.0], "metallicFactor": 0.0, "roughnessFactor": 1.0}, "alphaMode": "OPAQUE", "doubleSided": true}, {"name": "f01", "pbrMetallicRoughness": {"baseColorFactor": [1.0, 1.0, 1.0, 1.0], "metallicFactor": 0.0, "roughnessFactor": 1.0}, "alphaMode": "OPAQUE", "doubleSided": true}, {"name": "floor", "pbrMetallicRoughness": {"baseColorFactor": [1.0, 1.0, 1.0, 1.0], "metallicFactor": 0.0, "roughnessFactor": 1.0}, "alphaMode": "OPAQUE", "doubleSided": true}, {"name": "hasigo", "pbrMetallicRoughness": {"baseColorFactor": [1.0, 1.0, 1.0, 1.0], "metallicFactor": 0.0, "roughnessFactor": 1.0}, "alphaMode": "OPAQUE", "doubleSided": true}, {"name": "heri", "pbrMetallicRoughness": {"baseColorFactor": [1.0, 1.0, 1.0, 1.0], "metallicFactor": 0.0, "roughnessFactor": 1.0}, "alphaMode": "OPAQUE", "doubleSided": true}, {"name": "heri1", "pbrMetallicRoughness": {"baseColorFactor": [1.0, 1.0, 1.0, 1.0], "metallicFactor": 0.0, "roughnessFactor": 1.0}, "alphaMode": "OPAQUE", "doubleSided": true}, {"name": "hon00", "pbrMetallicRoughness": {"baseColorFactor": [1.0, 1.0, 1.0, 1.0], "metallicFactor": 0.0, "roughnessFactor": 1.0}, "alphaMode": "OPAQUE", "doubleSided": true}, {"name": "imfy0", "pbrMetallicRoughness": {"baseColorFactor": [1.0, 1.0, 1.0, 1.0], "metallicFactor": 0.0, "roughnessFactor": 1.0}, "alphaMode": "OPAQUE", "doubleSided": true}, {"name": "imfy010", "pbrMetallicRoughness": {"baseColorFactor": [1.0, 1.0, 1.0, 1.0], "metallicFactor": 0.0, "roughnessFactor": 1.0}, "alphaMode": "OPAQUE", "doubleSided": true}, {"name": "imfy011", "pbrMetallicRoughness": {"baseColorFactor": [1.0, 1.0, 1.0, 1.0], "metallicFactor": 0.0, "roughnessFactor": 1.0}, "alphaMode": "OPAQUE", "doubleSided": true}, {"name": "imfy012", "pbrMetallicRoughness": {"baseColorFactor": [1.0, 1.0, 1.0, 0.001], "metallicFactor": 0.0, "roughnessFactor": 1.0}, "alphaMode": "BLEND", "doubleSided": true}, {"name": "imfy013", "pbrMetallicRoughness": {"baseColorFactor": [1.0, 1.0, 1.0, 1.0], "metallicFactor": 0.0, "roughnessFactor": 1.0}, "alphaMode": "OPAQUE", "doubleSided": true}, {"name": "imfy019", "pbrMetallicRoughness": {"baseColorFactor": [1.0, 1.0, 1.0, 1.0], "metallicFactor": 0.0, "roughnessFactor": 1.0}, "alphaMode": "OPAQUE", "doubleSided": true}, {"name": "imfy020", "pbrMetallicRoughness": {"baseColorFactor": [1.0, 1.0, 1.0, 1.0], "metallicFactor": 0.0, "roughnessFactor": 1.0}, "alphaMode": "OPAQUE", "doubleSided": true}, {"name": "imfy05_05_2", "pbrMetallicRoughness": {"baseColorFactor": [1.0, 1.0, 1.0, 1.0], "metallicFactor": 0.0, "roughnessFactor": 1.0}, "alphaMode": "OPAQUE", "doubleSided": true}, {"name": "imfy05_06_0", "pbrMetallicRoughness": {"baseColorFactor": [1.0, 1.0, 1.0, 1.0], "metallicFactor": 0.0, "roughnessFactor": 1.0}, "alphaMode": "OPAQUE", "doubleSided": true}, {"name": "imfy05_06_1", "pbrMetallicRoughness": {"baseColorFactor": [1.0, 1.0, 1.0, 1.0], "metallicFactor": 0.0, "roughnessFactor": 1.0}, "alphaMode": "OPAQUE", "doubleSided": true}, {"name": "imfy05_06_2", "pbrMetallicRoughness": {"baseColorFactor": [1.0, 1.0, 1.0, 1.0], "metallicFactor": 0.0, "roughnessFactor": 1.0}, "alphaMode": "OPAQUE", "doubleSided": true}, {"name": "imfy05_06_3", "pbrMetallicRoughness": {"baseColorFactor": [1.0, 1.0, 1.0, 0.2903225806451613], "metallicFactor": 0.0, "roughnessFactor": 1.0}, "alphaMode": "BLEND", "doubleSided": true}, {"name": "imfy05_07_0", "pbrMetallicRoughness": {"baseColorFactor": [1.0, 1.0, 1.0, 1.0], "metallicFactor": 0.0, "roughnessFactor": 1.0}, "alphaMode": "OPAQUE", "doubleSided": true}, {"name": "imfy05_07_2", "pbrMetallicRoughness": {"baseColorFactor": [1.0, 1.0, 1.0, 1.0], "metallicFactor": 0.0, "roughnessFactor": 1.0}, "alphaMode": "OPAQUE", "doubleSided": true}, {"name": "imfy05_07_3", "pbrMetallicRoughness": {"baseColorFactor": [1.0, 1.0, 1.0, 1.0], "metallicFactor": 0.0, "roughnessFactor": 1.0}, "alphaMode": "OPAQUE", "doubleSided": true}, {"name": "imfy05_09_0", "pbrMetallicRoughness": {"baseColorFactor": [1.0, 1.0, 1.0, 1.0], "metallicFactor": 0.0, "roughnessFactor": 1.0}, "alphaMode": "OPAQUE", "doubleSided": true}, {"name": "imfy05_09_1", "pbrMetallicRoughness": {"baseColorFactor": [1.0, 1.0, 1.0, 1.0], "metallicFactor": 0.0, "roughnessFactor": 1.0}, "alphaMode": "OPAQUE", "doubleSided": true}, {"name": "imfy05_09_2", "pbrMetallicRoughness": {"baseColorFactor": [1.0, 1.0, 1.0, 1.0], "metallicFactor": 0.0, "roughnessFactor": 1.0}, "alphaMode": "OPAQUE", "doubleSided": true}, {"name": "imfy05_09_3", "pbrMetallicRoughness": {"baseColorFactor": [1.0, 1.0, 1.0, 0.001], "metallicFactor": 0.0, "roughnessFactor": 1.0}, "alphaMode": "BLEND", "doubleSided": true}, {"name": "imfy05_1", "pbrMetallicRoughness": {"baseColorFactor": [1.0, 1.0, 1.0, 1.0], "metallicFactor": 0.0, "roughnessFactor": 1.0}, "alphaMode": "OPAQUE", "doubleSided": true}, {"name": "imfy05_3", "pbrMetallicRoughness": {"baseColorFactor": [1.0, 1.0, 1.0, 1.0], "metallicFactor": 0.0, "roughnessFactor": 1.0}, "alphaMode": "OPAQUE", "doubleSided": true}, {"name": "imfy07", "pbrMetallicRoughness": {"baseColorFactor": [1.0, 1.0, 1.0, 1.0], "metallicFactor": 0.0, "roughnessFactor": 1.0}, "alphaMode": "OPAQUE", "doubleSided": true}, {"name": "imrl02_06_0", "pbrMetallicRoughness": {"baseColorFactor": [1.0, 1.0, 1.0, 1.0], "metallicFactor": 0.0, "roughnessFactor": 1.0}, "alphaMode": "OPAQUE", "doubleSided": true}, {"name": "imrl02_06_1", "pbrMetallicRoughness": {"baseColorFactor": [1.0, 1.0, 1.0, 1.0], "metallicFactor": 0.0, "roughnessFactor": 1.0}, "alphaMode": "OPAQUE", "doubleSided": true}, {"name": "lambert1", "pbrMetallicRoughness": {"baseColorFactor": [0.3843137254901961, 0.3843137254901961, 0.3843137254901961, 1.0], "metallicFactor": 0.0, "roughnessFactor": 1.0}, "alphaMode": "OPAQUE", "doubleSided": true}, {"name": "lobby_dw01", "pbrMetallicRoughness": {"baseColorFactor": [1.0, 1.0, 1.0, 1.0], "metallicFactor": 0.0, "roughnessFactor": 1.0}, "alphaMode": "OPAQUE", "doubleSided": true}, {"name": "lobby_w00", "pbrMetallicRoughness": {"baseColorFactor": [1.0, 1.0, 1.0, 1.0], "metallicFactor": 0.0, "roughnessFactor": 1.0}, "alphaMode": "OPAQUE", "doubleSided": true}, {"name": "lt00", "pbrMetallicRoughness": {"baseColorFactor": [1.0, 1.0, 1.0, 1.0], "metallicFactor": 0.0, "roughnessFactor": 1.0}, "alphaMode": "OPAQUE", "doubleSided": true}, {"name": "mrl02_06_2", "pbrMetallicRoughness": {"baseColorFactor": [1.0, 1.0, 1.0, 1.0], "metallicFactor": 0.0, "roughnessFactor": 1.0}, "alphaMode": "OPAQUE", "doubleSided": true}, {"name": "ob_01", "pbrMetallicRoughness": {"baseColorFactor": [1.0, 1.0, 1.0, 1.0], "metallicFactor": 0.0, "roughnessFactor": 1.0}, "alphaMode": "OPAQUE", "doubleSided": true}, {"name": "pi00", "pbrMetallicRoughness": {"baseColorFactor": [0.803921568627451, 0.803921568627451, 0.803921568627451, 1.0], "metallicFactor": 0.0, "roughnessFactor": 1.0}, "alphaMode": "OPAQUE", "doubleSided": true}, {"name": "sara00", "pbrMetallicRoughness": {"baseColorFactor": [1.0, 1.0, 1.0, 1.0], "metallicFactor": 0.0, "roughnessFactor": 1.0}, "alphaMode": "OPAQUE", "doubleSided": true}, {"name": "shade", "pbrMetallicRoughness": {"baseColorFactor": [0.803921568627451, 0.803921568627451, 0.803921568627451, 1.0], "metallicFactor": 0.0, "roughnessFactor": 1.0}, "alphaMode": "OPAQUE", "doubleSided": true}, {"name": "shade_shade", "pbrMetallicRoughness": {"baseColorFactor": [0.803921568627451, 0.803921568627451, 0.803921568627451, 1.0], "metallicFactor": 0.0, "roughnessFactor": 1.0}, "alphaMode": "OPAQUE", "doubleSided": true}, {"name": "spider", "pbrMetallicRoughness": {"baseColorFactor": [1.0, 1.0, 1.0, 1.0], "metallicFactor": 0.0, "roughnessFactor": 1.0}, "alphaMode": "OPAQUE", "doubleSided": true}, {"name": "tab00", "pbrMetallicRoughness": {"baseColorFactor": [1.0, 1.0, 1.0, 1.0], "metallicFactor": 0.0, "roughnessFactor": 1.0}, "alphaMode": "OPAQUE", "doubleSided": true}, {"name": "tab01", "pbrMetallicRoughness": {"baseColorFactor": [1.0, 1.0, 1.0, 1.0], "metallicFactor": 0.0, "roughnessFactor": 1.0}, "alphaMode": "OPAQUE", "doubleSided": true}, {"name": "table00", "pbrMetallicRoughness": {"baseColorFactor": [1.0, 1.0, 1.0, 1.0], "metallicFactor": 0.0, "roughnessFactor": 1.0}, "alphaMode": "OPAQUE", "doubleSided": true}, {"name": "table01", "pbrMetallicRoughness": {"baseColorFactor": [1.0, 1.0, 1.0, 1.0], "metallicFactor": 0.0, "roughnessFactor": 1.0}, "alphaMode": "OPAQUE", "doubleSided": true}, {"name": "w01", "pbrMetallicRoughness": {"baseColorFactor": [1.0, 1.0, 1.0, 1.0], "metallicFactor": 0.0, "roughnessFactor": 1.0}, "alphaMode": "OPAQUE", "doubleSided": true}, {"name": "wall", "pbrMetallicRoughness": {"baseColorFactor": [1.0, 1.0, 1.0, 1.0], "metallicFactor": 0.0, "roughnessFactor": 1.0}, "alphaMode": "OPAQUE", "doubleSided": true}, {"name": "wall01", "pbrMetallicRoughness": {"baseColorFactor": [1.0, 1.0, 1.0, 1.0], "metallicFactor": 0.0, "roughnessFactor": 1.0}, "alphaMode": "OPAQUE", "doubleSided": true}], "buffers": [{"byteLength": 224460, "uri": "data:application/octet-stream;base64,"}], "bufferViews": [{"buffer": 0, "byteOffset": 0, "byteLength": 120}, {"buffer": 0, "byteOffset": 120, "byteLength": 80}, {"buffer": 0, "byteOffset": 200, "byteLength": 120}, {"buffer": 0, "byteOffset": 320, "byteLength": 36}, {"buffer": 0, "byteOffset": 356, "byteLength": 3168}, {"buffer": 0, "byteOffset": 3524, "byteLength": 2112}, {"buffer": 0, "byteOffset": 5636, "byteLength": 3168}, {"buffer": 0, "byteOffset": 8804, "byteLength": 612}, {"buffer": 0, "byteOffset": 9416, "byteLength": 1728}, {"buffer": 0, "byteOffset": 11144, "byteLength": 1152}, {"buffer": 0, "byteOffset": 12296, "byteLength": 1728}, {"buffer": 0, "byteOffset": 14024, "byteLength": 432}, {"buffer": 0, "byteOffset": 14456, "byteLength": 864}, {"buffer": 0, "byteOffset": 15320, "byteLength": 576}, {"buffer": 0, "byteOffset": 15896, "byteLength": 864}, {"buffer": 0, "byteOffset": 16760, "byteLength": 216}, {"buffer": 0, "byteOffset": 16976, "byteLength": 48}, {"buffer": 0, "byteOffset": 17024, "byteLength": 32}, {"buffer": 0, "byteOffset": 17056, "byteLength": 48}, {"buffer": 0, "byteOffset": 17104, "byteLength": 12}, {"buffer": 0, "byteOffset": 17116, "byteLength": 960}, {"buffer": 0, "byteOffset": 18076, "byteLength": 640}, {"buffer": 0, "byteOffset": 18716, "byteLength": 960}, {"buffer": 0, "byteOffset": 19676, "byteLength": 240}, {"buffer": 0, "byteOffset": 19916, "byteLength": 576}, {"buffer": 0, "byteOffset": 20492, "byteLength": 384}, {"buffer": 0, "byteOffset": 20876, "byteLength": 576}, {"buffer": 0, "byteOffset": 21452, "byteLength": 144}, {"buffer": 0, "byteOffset": 21596, "byteLength": 96}, {"buffer": 0, "byteOffset": 21692, "byteLength": 64}, {"buffer": 0, "byteOffset": 21756, "byteLength": 96}, {"buffer": 0, "byteOffset": 21852, "byteLength": 24}, {"buffer": 0, "byteOffset": 21876, "byteLength": 1920}, {"buffer": 0, "byteOffset": 23796, "byteLength": 1280}, {"buffer": 0, "byteOffset": 25076, "byteLength": 1920}, {"buffer": 0, "byteOffset": 26996, "byteLength": 480}, {"buffer": 0, "byteOffset": 27476, "byteLength": 1152}, {"buffer": 0, "byteOffset": 28628, "byteLength": 768}, {"buffer": 0, "byteOffset": 29396, "byteLength": 1152}, {"buffer": 0, "byteOffset": 30548, "byteLength": 288}, {"buffer": 0, "byteOffset": 30836, "byteLength": 864}, {"buffer": 0, "byteOffset": 31700, "byteLength": 576}, {"buffer": 0, "byteOffset": 32276, "byteLength": 864}, {"buffer": 0, "byteOffset": 33140, "byteLength": 216}, {"buffer": 0, "byteOffset": 33356, "byteLength": 3180}, {"buffer": 0, "byteOffset": 36536, "byteLength": 2120}, {"buffer": 0, "byteOffset": 38656, "byteLength": 3180}, {"buffer": 0, "byteOffset": 41836, "byteLength": 738}, {"buffer": 0, "byteOffset": 42576, "byteLength": 1080}, {"buffer": 0, "byteOffset": 43656, "byteLength": 720}, {"buffer": 0, "byteOffset": 44376, "byteLength": 1080}, {"buffer": 0, "byteOffset": 45456, "byteLength": 252}, {"buffer": 0, "byteOffset": 45708, "byteLength": 432}, {"buffer": 0, "byteOffset": 46140, "byteLength": 288}, {"buffer": 0, "byteOffset": 46428, "byteLength": 432}, {"buffer": 0, "byteOffset": 46860, "byteLength": 120}, {"buffer": 0, "byteOffset": 46980, "byteLength": 2640}, {"buffer": 0, "byteOffset": 49620, "byteLength": 1760}, {"buffer": 0, "byteOffset": 51380, "byteLength": 2640}, {"buffer": 0, "byteOffset": 54020, "byteLength": 600}, {"buffer": 0, "byteOffset": 54620, "byteLength": 96}, {"buffer": 0, "byteOffset": 54716, "byteLength": 64}, {"buffer": 0, "byteOffset": 54780, "byteLength": 96}, {"buffer": 0, "byteOffset": 54876, "byteLength": 24}, {"buffer": 0, "byteOffset": 54900, "byteLength": 288}, {"buffer": 0, "byteOffset": 55188, "byteLength": 192}, {"buffer": 0, "byteOffset": 55380, "byteLength": 288}, {"buffer": 0, "byteOffset": 55668, "byteLength": 72}, {"buffer": 0, "byteOffset": 55740, "byteLength": 216}, {"buffer": 0, "byteOffset": 55956, "byteLength": 144}, {"buffer": 0, "byteOffset": 56100, "byteLength": 216}, {"buffer": 0, "byteOffset": 56316, "byteLength": 72}, {"buffer": 0, "byteOffset": 56388, "byteLength": 2196}, {"buffer": 0, "byteOffset": 58584, "byteLength": 1464}, {"buffer": 0, "byteOffset": 60048, "byteLength": 2196}, {"buffer": 0, "byteOffset": 62244, "byteLength": 630}, {"buffer": 0, "byteOffset": 62876, "byteLength": 816}, {"buffer": 0, "byteOffset": 63692, "byteLength": 544}, {"buffer": 0, "byteOffset": 64236, "byteLength": 816}, {"buffer": 0, "byteOffset": 65052, "byteLength": 288}, {"buffer": 0, "byteOffset": 65340, "byteLength": 672}, {"buffer": 0, "byteOffset": 66012, "byteLength": 448}, {"buffer": 0, "byteOffset": 66460, "byteLength": 672}, {"buffer": 0, "byteOffset": 67132, "byteLength": 228}, {"buffer": 0, "byteOffset": 67360, "byteLength": 1800}, {"buffer": 0, "byteOffset": 69160, "byteLength": 1200}, {"buffer": 0, "byteOffset": 70360, "byteLength": 1800}, {"buffer": 0, "byteOffset": 72160, "byteLength": 528}, {"buffer": 0, "byteOffset": 72688, "byteLength": 1248}, {"buffer": 0, "byteOffset": 73936, "byteLength": 832}, {"buffer": 0, "byteOffset": 74768, "byteLength": 1248}, {"buffer": 0, "byteOffset": 76016, "byteLength": 360}, {"buffer": 0, "byteOffset": 76376, "byteLength": 960}, {"buffer": 0, "byteOffset": 77336, "byteLength": 640}, {"buffer": 0, "byteOffset": 77976, "byteLength": 960}, {"buffer": 0, "byteOffset": 78936, "byteLength": 384}, {"buffer": 0, "byteOffset": 79320, "byteLength": 624}, {"buffer": 0, "byteOffset": 79944, "byteLength": 416}, {"buffer": 0, "byteOffset": 80360, "byteLength": 624}, {"buffer": 0, "byteOffset": 80984, "byteLength": 192}, {"buffer": 0, "byteOffset": 81176, "byteLength": 672}, {"buffer": 0, "byteOffset": 81848, "byteLength": 448}, {"buffer": 0, "byteOffset": 82296, "byteLength": 672}, {"buffer": 0, "byteOffset": 82968, "byteLength": 216}, {"buffer": 0, "byteOffset": 83184, "byteLength": 552}, {"buffer": 0, "byteOffset": 83736, "byteLength": 368}, {"buffer": 0, "byteOffset": 84104, "byteLength": 552}, {"buffer": 0, "byteOffset": 84656, "byteLength": 192}, {"buffer": 0, "byteOffset": 84848, "byteLength": 624}, {"buffer": 0, "byteOffset": 85472, "byteLength": 416}, {"buffer": 0, "byteOffset": 85888, "byteLength": 624}, {"buffer": 0, "byteOffset": 86512, "byteLength": 156}, {"buffer": 0, "byteOffset": 86668, "byteLength": 96}, {"buffer": 0, "byteOffset": 86764, "byteLength": 64}, {"buffer": 0, "byteOffset": 86828, "byteLength": 96}, {"buffer": 0, "byteOffset": 86924, "byteLength": 24}, {"buffer": 0, "byteOffset": 86948, "byteLength": 192}, {"buffer": 0, "byteOffset": 87140, "byteLength": 128}, {"buffer": 0, "byteOffset": 87268, "byteLength": 192}, {"buffer": 0, "byteOffset": 87460, "byteLength": 60}, {"buffer": 0, "byteOffset": 87520, "byteLength": 9360}, {"buffer": 0, "byteOffset": 96880, "byteLength": 6240}, {"buffer": 0, "byteOffset": 103120, "byteLength": 9360}, {"buffer": 0, "byteOffset": 112480, "byteLength": 3960}, {"buffer": 0, "byteOffset": 116440, "byteLength": 4488}, {"buffer": 0, "byteOffset": 120928, "byteLength": 2992}, {"buffer": 0, "byteOffset": 123920, "byteLength": 4488}, {"buffer": 0, "byteOffset": 128408, "byteLength": 1524}, {"buffer": 0, "byteOffset": 129932, "byteLength": 336}, {"buffer": 0, "byteOffset": 130268, "byteLength": 224}, {"buffer": 0, "byteOffset": 130492, "byteLength": 84}, {"buffer": 0, "byteOffset": 130576, "byteLength": 48}, {"buffer": 0, "byteOffset": 130624, "byteLength": 32}, {"buffer": 0, "byteOffset": 130656, "byteLength": 48}, {"buffer": 0, "byteOffset": 130704, "byteLength": 12}, {"buffer": 0, "byteOffset": 130716, "byteLength": 72}, {"buffer": 0, "byteOffset": 130788, "byteLength": 48}, {"buffer": 0, "byteOffset": 130836, "byteLength": 72}, {"buffer": 0, "byteOffset": 130908, "byteLength": 12}, {"buffer": 0, "byteOffset": 130920, "byteLength": 288}, {"buffer": 0, "byteOffset": 131208, "byteLength": 192}, {"buffer": 0, "byteOffset": 131400, "byteLength": 288}, {"buffer": 0, "byteOffset": 131688, "byteLength": 72}, {"buffer": 0, "byteOffset": 131760, "byteLength": 456}, {"buffer": 0, "byteOffset": 132216, "byteLength": 304}, {"buffer": 0, "byteOffset": 132520, "byteLength": 456}, {"buffer": 0, "byteOffset": 132976, "byteLength": 132}, {"buffer": 0, "byteOffset": 133108, "byteLength": 288}, {"buffer": 0, "byteOffset": 133396, "byteLength": 192}, {"buffer": 0, "byteOffset": 133588, "byteLength": 288}, {"buffer": 0, "byteOffset": 133876, "byteLength": 84}, {"buffer": 0, "byteOffset": 133960, "byteLength": 15792}, {"buffer": 0, "byteOffset": 149752, "byteLength": 10528}, {"buffer": 0, "byteOffset": 160280, "byteLength": 4908}, {"buffer": 0, "byteOffset": 165188, "byteLength": 1680}, {"buffer": 0, "byteOffset": 166868, "byteLength": 1120}, {"buffer": 0, "byteOffset": 167988, "byteLength": 1680}, {"buffer": 0, "byteOffset": 169668, "byteLength": 420}, {"buffer": 0, "byteOffset": 170088, "byteLength": 4116}, {"buffer": 0, "byteOffset": 174204, "byteLength": 2744}, {"buffer": 0, "byteOffset": 176948, "byteLength": 4116}, {"buffer": 0, "byteOffset": 181064, "byteLength": 1206}, {"buffer": 0, "byteOffset": 182272, "byteLength": 240}, {"buffer": 0, "byteOffset": 182512, "byteLength": 160}, {"buffer": 0, "byteOffset": 182672, "byteLength": 240}, {"buffer": 0, "byteOffset": 182912, "byteLength": 72}, {"buffer": 0, "byteOffset": 182984, "byteLength": 768}, {"buffer": 0, "byteOffset": 183752, "byteLength": 512}, {"buffer": 0, "byteOffset": 184264, "byteLength": 768}, {"buffer": 0, "byteOffset": 185032, "byteLength": 216}, {"buffer": 0, "byteOffset": 185248, "byteLength": 192}, {"buffer": 0, "byteOffset": 185440, "byteLength": 128}, {"buffer": 0, "byteOffset": 185568, "byteLength": 192}, {"buffer": 0, "byteOffset": 185760, "byteLength": 72}, {"buffer": 0, "byteOffset": 185832, "byteLength": 960}, {"buffer": 0, "byteOffset": 186792, "byteLength": 640}, {"buffer": 0, "byteOffset": 187432, "byteLength": 960}, {"buffer": 0, "byteOffset": 188392, "byteLength": 288}, {"buffer": 0, "byteOffset": 188680, "byteLength": 2112}, {"buffer": 0, "byteOffset": 190792, "byteLength": 1408}, {"buffer": 0, "byteOffset": 192200, "byteLength": 2112}, {"buffer": 0, "byteOffset": 194312, "byteLength": 672}, {"buffer": 0, "byteOffset": 194984, "byteLength": 504}, {"buffer": 0, "byteOffset": 195488, "byteLength": 336}, {"buffer": 0, "byteOffset": 195824, "byteLength": 504}, {"buffer": 0, "byteOffset": 196328, "byteLength": 108}, {"buffer": 0, "byteOffset": 196436, "byteLength": 1800}, {"buffer": 0, "byteOffset": 198236, "byteLength": 1200}, {"buffer": 0, "byteOffset": 199436, "byteLength": 1800}, {"buffer": 0, "byteOffset": 201236, "byteLength": 408}, {"buffer": 0, "byteOffset": 201644, "byteLength": 1368}, {"buffer": 0, "byteOffset": 203012, "byteLength": 912}, {"buffer": 0, "byteOffset": 203924, "byteLength": 1368}, {"buffer": 0, "byteOffset": 205292, "byteLength": 276}, {"buffer": 0, "byteOffset": 205568, "byteLength": 288}, {"buffer": 0, "byteOffset": 205856, "byteLength": 192}, {"buffer": 0, "byteOffset": 206048, "byteLength": 288}, {"buffer": 0, "byteOffset": 206336, "byteLength": 72}, {"buffer": 0, "byteOffset": 206408, "byteLength": 144}, {"buffer": 0, "byteOffset": 206552, "byteLength": 96}, {"buffer": 0, "byteOffset": 206648, "byteLength": 144}, {"buffer": 0, "byteOffset": 206792, "byteLength": 36}, {"buffer": 0, "byteOffset": 206828, "byteLength": 72}, {"buffer": 0, "byteOffset": 206900, "byteLength": 48}, {"buffer": 0, "byteOffset": 206948, "byteLength": 72}, {"buffer": 0, "byteOffset": 207020, "byteLength": 24}, {"buffer": 0, "byteOffset": 207044, "byteLength": 48}, {"buffer": 0, "byteOffset": 207092, "byteLength": 32}, {"buffer": 0, "byteOffset": 207124, "byteLength": 48}, {"buffer": 0, "byteOffset": 207172, "byteLength": 12}, {"buffer": 0, "byteOffset": 207184, "byteLength": 1248}, {"buffer": 0, "byteOffset": 208432, "byteLength": 832}, {"buffer": 0, "byteOffset": 209264, "byteLength": 1248}, {"buffer": 0, "byteOffset": 210512, "byteLength": 384}, {"buffer": 0, "byteOffset": 210896, "byteLength": 1776}, {"buffer": 0, "byteOffset": 212672, "byteLength": 1184}, {"buffer": 0, "byteOffset": 213856, "byteLength": 1776}, {"buffer": 0, "byteOffset": 215632, "byteLength": 336}, {"buffer": 0, "byteOffset": 215968, "byteLength": 192}, {"buffer": 0, "byteOffset": 216160, "byteLength": 128}, {"buffer": 0, "byteOffset": 216288, "byteLength": 192}, {"buffer": 0, "byteOffset": 216480, "byteLength": 48}, {"buffer": 0, "byteOffset": 216528, "byteLength": 192}, {"buffer": 0, "byteOffset": 216720, "byteLength": 128}, {"buffer": 0, "byteOffset": 216848, "byteLength": 192}, {"buffer": 0, "byteOffset": 217040, "byteLength": 48}, {"buffer": 0, "byteOffset": 217088, "byteLength": 96}, {"buffer": 0, "byteOffset": 217184, "byteLength": 64}, {"buffer": 0, "byteOffset": 217248, "byteLength": 96}, {"buffer": 0, "byteOffset": 217344, "byteLength": 36}, {"buffer": 0, "byteOffset": 217380, "byteLength": 96}, {"buffer": 0, "byteOffset": 217476, "byteLength": 64}, {"buffer": 0, "byteOffset": 217540, "byteLength": 96}, {"buffer": 0, "byteOffset": 217636, "byteLength": 24}, {"buffer": 0, "byteOffset": 217660, "byteLength": 216}, {"buffer": 0, "byteOffset": 217876, "byteLength": 144}, {"buffer": 0, "byteOffset": 218020, "byteLength": 216}, {"buffer": 0, "byteOffset": 218236, "byteLength": 72}, {"buffer": 0, "byteOffset": 218308, "byteLength": 504}, {"buffer": 0, "byteOffset": 218812, "byteLength": 336}, {"buffer": 0, "byteOffset": 219148, "byteLength": 504}, {"buffer": 0, "byteOffset": 219652, "byteLength": 144}, {"buffer": 0, "byteOffset": 219796, "byteLength": 960}, {"buffer": 0, "byteOffset": 220756, "byteLength": 640}, {"buffer": 0, "byteOffset": 221396, "byteLength": 960}, {"buffer": 0, "byteOffset": 222356, "byteLength": 180}, {"buffer": 0, "byteOffset": 222536, "byteLength": 96}, {"buffer": 0, "byteOffset": 222632, "byteLength": 64}, {"buffer": 0, "byteOffset": 222696, "byteLength": 96}, {"buffer": 0, "byteOffset": 222792, "byteLength": 24}, {"buffer": 0, "byteOffset": 222816, "byteLength": 576}, {"buffer": 0, "byteOffset": 223392, "byteLength": 384}, {"buffer": 0, "byteOffset": 223776, "byteLength": 576}, {"buffer": 0, "byteOffset": 224352, "byteLength": 108}], "accessors": [{"bufferView": 0, "byteOffset": 0, "componentType": 5126, "count": 10, "type": "VEC3", "min": [2.48828125, 0.02197265625, 2.666259765625], "max": [2.759033203125, 0.089599609375, 2.8837890625]}, {"bufferView": 1, "byteOffset": 0, "componentType": 5126, "count": 10, "type": "VEC2"}, {"bufferView": 2, "byteOffset": 0, "componentType": 5126, "count": 10, "type": "VEC3"}, {"bufferView": 3, "byteOffset": 0, "componentType": 5123, "count": 18, "type": "SCALAR"}, {"bufferView": 4, "byteOffset": 0, "componentType": 5126, "count": 264, "type": "VEC3", "min": [2.8115234375, 0.007568359375, 0.14990234375], "max": [4.388671875, 0.12890625, 3.574462890625]}, {"bufferView": 5, "byteOffset": 0, "componentType": 5126, "count": 264, "type": "VEC2"}, {"bufferView": 6, "byteOffset": 0, "componentType": 5126, "count": 264, "type": "VEC3"}, {"bufferView": 7, "byteOffset": 0, "componentType": 5123, "count": 306, "type": "SCALAR"}, {"bufferView": 8, "byteOffset": 0, "componentType": 5126, "count": 144, "type": "VEC3", "min": [2.8115234375, 0.00048828125, 0.14990234375], "max": [4.388671875, 0.12890625, 3.574462890625]}, {"bufferView": 9, "byteOffset": 0, "componentType": 5126, "count": 144, "type": "VEC2"}, {"bufferView": 10, "byteOffset": 0, "componentType": 5126, "count": 144, "type": "VEC3"}, {"bufferView": 11, "byteOffset": 0, "componentType": 5123, "count": 216, "type": "SCALAR"}, {"bufferView": 12, "byteOffset": 0, "componentType": 5126, "count": 72, "type": "VEC3", "min": [2.81640625, 0.00732421875, 0.205810546875], "max": [4.38330078125, 0.12060546875, 3.569091796875]}, {"bufferView": 13, "byteOffset": 0, "componentType": 5126, "count": 72, "type": "VEC2"}, {"bufferView": 14, "byteOffset": 0, "componentType": 5126, "count": 72, "type": "VEC3"}, {"bufferView": 15, "byteOffset": 0, "componentType": 5123, "count": 108, "type": "SCALAR"}, {"bufferView": 16, "byteOffset": 0, "componentType": 5126, "count": 4, "type": "VEC3", "min": [4.125, 0.09375, 0.876220703125], "max": [4.25, 0.09375, 1.12353515625]}, {"bufferView": 17, "byteOffset": 0, "componentType": 5126, "count": 4, "type": "VEC2"}, {"bufferView": 18, "byteOffset": 0, "componentType": 5126, "count": 4, "type": "VEC3"}, {"bufferView": 19, "byteOffset": 0, "componentType": 5123, "count": 6, "type": "SCALAR"}, {"bufferView": 20, "byteOffset": 0, "componentType": 5126, "count": 80, "type": "VEC3", "min": [4.125, 0.056640625, 0.876220703125], "max": [4.25, 0.09375, 1.12353515625]}, {"bufferView": 21, "byteOffset": 0, "componentType": 5126, "count": 80, "type": "VEC2"}, {"bufferView": 22, "byteOffset": 0, "componentType": 5126, "count": 80, "type": "VEC3"}, {"bufferView": 23, "byteOffset": 0, "componentType": 5123, "count": 120, "type": "SCALAR"}, {"bufferView": 24, "byteOffset": 0, "componentType": 5126, "count": 48, "type": "VEC3", "min": [4.131591796875, 0.0, 0.88818359375], "max": [4.243408203125, 0.073486328125, 1.112060546875]}, {"bufferView": 25, "byteOffset": 0, "componentType": 5126, "count": 48, "type": "VEC2"}, {"bufferView": 26, "byteOffset": 0, "componentType": 5126, "count": 48, "type": "VEC3"}, {"bufferView": 27, "byteOffset": 0, "componentType": 5123, "count": 72, "type": "SCALAR"}, {"bufferView": 28, "byteOffset": 0, "componentType": 5126, "count": 8, "type": "VEC3", "min": [4.375, 0.054931640625, 0.9375], "max": [4.824951171875, 0.054931640625, 3.625]}, {"bufferView": 29, "byteOffset": 0, "componentType": 5126, "count": 8, "type": "VEC2"}, {"bufferView": 30, "byteOffset": 0, "componentType": 5126, "count": 8, "type": "VEC3"}, {"bufferView": 31, "byteOffset": 0, "componentType": 5123, "count": 12, "type": "SCALAR"}, {"bufferView": 32, "byteOffset": 0, "componentType": 5126, "count": 160, "type": "VEC3", "min": [4.375, 0.029541015625, 0.9375], "max": [4.824951171875, 0.054931640625, 3.625]}, {"bufferView": 33, "byteOffset": 0, "componentType": 5126, "count": 160, "type": "VEC2"}, {"bufferView": 34, "byteOffset": 0, "componentType": 5126, "count": 160, "type": "VEC3"}, {"bufferView": 35, "byteOffset": 0, "componentType": 5123, "count": 240, "type": "SCALAR"}, {"bufferView": 36, "byteOffset": 0, "componentType": 5126, "count": 96, "type": "VEC3", "min": [4.381591796875, 0.0, 0.944091796875], "max": [4.81884765625, 0.039794921875, 3.618896484375]}, {"bufferView": 37, "byteOffset": 0, "componentType": 5126, "count": 96, "type": "VEC2"}, {"bufferView": 38, "byteOffset": 0, "componentType": 5126, "count": 96, "type": "VEC3"}, {"bufferView": 39, "byteOffset": 0, "componentType": 5123, "count": 144, "type": "SCALAR"}, {"bufferView": 40, "byteOffset": 0, "componentType": 5126, "count": 72, "type": "VEC3", "min": [2.12548828125, 0.054931640625, 0.815185546875], "max": [4.98193359375, 0.14794921875, 3.62646484375]}, {"bufferView": 41, "byteOffset": 0, "componentType": 5126, "count": 72, "type": "VEC2"}, {"bufferView": 42, "byteOffset": 0, "componentType": 5126, "count": 72, "type": "VEC3"}, {"bufferView": 43, "byteOffset": 0, "componentType": 5123, "count": 108, "type": "SCALAR"}, {"bufferView": 44, "byteOffset": 0, "componentType": 5126, "count": 265, "type": "VEC3", "min": [2.12548828125, -0.06201171875, 0.815185546875], "max": [4.98193359375, 0.14794921875, 3.626953125]}, {"bufferView": 45, "byteOffset": 0, "componentType": 5126, "count": 265, "type": "VEC2"}, {"bufferView": 46, "byteOffset": 0, "componentType": 5126, "count": 265, "type": "VEC3"}, {"bufferView": 47, "byteOffset": 0, "componentType": 5123, "count": 369, "type": "SCALAR"}, {"bufferView": 48, "byteOffset": 0, "componentType": 5126, "count": 90, "type": "VEC3", "min": [2.1279296875, 0.023681640625, 0.815185546875], "max": [4.980224609375, 0.054931640625, 3.62646484375]}, {"bufferView": 49, "byteOffset": 0, "componentType": 5126, "count": 90, "type": "VEC2"}, {"bufferView": 50, "byteOffset": 0, "componentType": 5126, "count": 90, "type": "VEC3"}, {"bufferView": 51, "byteOffset": 0, "componentType": 5123, "count": 126, "type": "SCALAR"}, {"bufferView": 52, "byteOffset": 0, "componentType": 5126, "count": 36, "type": "VEC3", "min": [2.507568359375, 0.038818359375, 0.284912109375], "max": [4.61572265625, 0.054931640625, 3.066650390625]}, {"bufferView": 53, "byteOffset": 0, "componentType": 5126, "count": 36, "type": "VEC2"}, {"bufferView": 54, "byteOffset": 0, "componentType": 5126, "count": 36, "type": "VEC3"}, {"bufferView": 55, "byteOffset": 0, "componentType": 5123, "count": 60, "type": "SCALAR"}, {"bufferView": 56, "byteOffset": 0, "componentType": 5126, "count": 220, "type": "VEC3", "min": [2.511962890625, -0.01318359375, 0.25830078125], "max": [4.616455078125, 0.153564453125, 3.08984375]}, {"bufferView": 57, "byteOffset": 0, "componentType": 5126, "count": 220, "type": "VEC2"}, {"bufferView": 58, "byteOffset": 0, "componentType": 5126, "count": 220, "type": "VEC3"}, {"bufferView": 59, "byteOffset": 0, "componentType": 5123, "count": 300, "type": "SCALAR"}, {"bufferView": 60, "byteOffset": 0, "componentType": 5126, "count": 8, "type": "VEC3", "min": [2.54541015625, 0.043212890625, 0.265869140625], "max": [4.607421875, 0.138916015625, 3.082275390625]}, {"bufferView": 61, "byteOffset": 0, "componentType": 5126, "count": 8, "type": "VEC2"}, {"bufferView": 62, "byteOffset": 0, "componentType": 5126, "count": 8, "type": "VEC3"}, {"bufferView": 63, "byteOffset": 0, "componentType": 5123, "count": 12, "type": "SCALAR"}, {"bufferView": 64, "byteOffset": 0, "componentType": 5126, "count": 24, "type": "VEC3", "min": [0.0, 0.0, 0.5], "max": [4.137451171875, 0.0, 4.75]}, {"bufferView": 65, "byteOffset": 0, "componentType": 5126, "count": 24, "type": "VEC2"}, {"bufferView": 66, "byteOffset": 0, "componentType": 5126, "count": 24, "type": "VEC3"}, {"bufferView": 67, "byteOffset": 0, "componentType": 5123, "count": 36, "type": "SCALAR"}, {"bufferView": 68, "byteOffset": 0, "componentType": 5126, "count": 18, "type": "VEC3", "min": [4.125, 0.3125, 0.125], "max": [5.0, 0.5, 1.125]}, {"bufferView": 69, "byteOffset": 0, "componentType": 5126, "count": 18, "type": "VEC2"}, {"bufferView": 70, "byteOffset": 0, "componentType": 5126, "count": 18, "type": "VEC3"}, {"bufferView": 71, "byteOffset": 0, "componentType": 5123, "count": 36, "type": "SCALAR"}, {"bufferView": 72, "byteOffset": 0, "componentType": 5126, "count": 183, "type": "VEC3", "min": [0.125, 0.0, 0.120361328125], "max": [5.0, 0.625, 4.625]}, {"bufferView": 73, "byteOffset": 0, "componentType": 5126, "count": 183, "type": "VEC2"}, {"bufferView": 74, "byteOffset": 0, "componentType": 5126, "count": 183, "type": "VEC3"}, {"bufferView": 75, "byteOffset": 0, "componentType": 5123, "count": 315, "type": "SCALAR"}, {"bufferView": 76, "byteOffset": 0, "componentType": 5126, "count": 68, "type": "VEC3", "min": [0.125, 0.0, 0.125], "max": [5.125, 0.0, 4.625]}, {"bufferView": 77, "byteOffset": 0, "componentType": 5126, "count": 68, "type": "VEC2"}, {"bufferView": 78, "byteOffset": 0, "componentType": 5126, "count": 68, "type": "VEC3"}, {"bufferView": 79, "byteOffset": 0, "componentType": 5123, "count": 144, "type": "SCALAR"}, {"bufferView": 80, "byteOffset": 0, "componentType": 5126, "count": 56, "type": "VEC3", "min": [0.125, 0.5, 0.125], "max": [5.0, 0.6875, 4.625]}, {"bufferView": 81, "byteOffset": 0, "componentType": 5126, "count": 56, "type": "VEC2"}, {"bufferView": 82, "byteOffset": 0, "componentType": 5126, "count": 56, "type": "VEC3"}, {"bufferView": 83, "byteOffset": 0, "componentType": 5123, "count": 114, "type": "SCALAR"}, {"bufferView": 84, "byteOffset": 0, "componentType": 5126, "count": 150, "type": "VEC3", "min": [0.3125, 0.43994140625, 0.08154296875], "max": [5.1875, 0.672607421875, 3.699951171875]}, {"bufferView": 85, "byteOffset": 0, "componentType": 5126, "count": 150, "type": "VEC2"}, {"bufferView": 86, "byteOffset": 0, "componentType": 5126, "count": 150, "type": "VEC3"}, {"bufferView": 87, "byteOffset": 0, "componentType": 5123, "count": 264, "type": "SCALAR"}, {"bufferView": 88, "byteOffset": 0, "componentType": 5126, "count": 104, "type": "VEC3", "min": [4.13818359375, -0.00341796875, 0.374755859375], "max": [4.254150390625, 0.4130859375, 0.500244140625]}, {"bufferView": 89, "byteOffset": 0, "componentType": 5126, "count": 104, "type": "VEC2"}, {"bufferView": 90, "byteOffset": 0, "componentType": 5126, "count": 104, "type": "VEC3"}, {"bufferView": 91, "byteOffset": 0, "componentType": 5123, "count": 180, "type": "SCALAR"}, {"bufferView": 92, "byteOffset": 0, "componentType": 5126, "count": 80, "type": "VEC3", "min": [4.38232421875, -0.0078125, 0.38720703125], "max": [4.74267578125, 0.044189453125, 0.49267578125]}, {"bufferView": 93, "byteOffset": 0, "componentType": 5126, "count": 80, "type": "VEC2"}, {"bufferView": 94, "byteOffset": 0, "componentType": 5126, "count": 80, "type": "VEC3"}, {"bufferView": 95, "byteOffset": 0, "componentType": 5123, "count": 192, "type": "SCALAR"}, {"bufferView": 96, "byteOffset": 0, "componentType": 5126, "count": 52, "type": "VEC3", "min": [4.375, 0.043701171875, 0.375], "max": [4.75, 0.09375, 0.5]}, {"bufferView": 97, "byteOffset": 0, "componentType": 5126, "count": 52, "type": "VEC2"}, {"bufferView": 98, "byteOffset": 0, "componentType": 5126, "count": 52, "type": "VEC3"}, {"bufferView": 99, "byteOffset": 0, "componentType": 5123, "count": 96, "type": "SCALAR"}, {"bufferView": 100, "byteOffset": 0, "componentType": 5126, "count": 56, "type": "VEC3", "min": [4.633056640625, 0.09375, 0.3828125], "max": [4.7421875, 0.18115234375, 0.4921875]}, {"bufferView": 101, "byteOffset": 0, "componentType": 5126, "count": 56, "type": "VEC2"}, {"bufferView": 102, "byteOffset": 0, "componentType": 5126, "count": 56, "type": "VEC3"}, {"bufferView": 103, "byteOffset": 0, "componentType": 5123, "count": 108, "type": "SCALAR"}, {"bufferView": 104, "byteOffset": 0, "componentType": 5126, "count": 46, "type": "VEC3", "min": [4.65673828125, 0.1103515625, 0.4375], "max": [4.718505859375, 0.17529296875, 0.46826171875]}, {"bufferView": 105, "byteOffset": 0, "componentType": 5126, "count": 46, "type": "VEC2"}, {"bufferView": 106, "byteOffset": 0, "componentType": 5126, "count": 46, "type": "VEC3"}, {"bufferView": 107, "byteOffset": 0, "componentType": 5123, "count": 96, "type": "SCALAR"}, {"bufferView": 108, "byteOffset": 0, "componentType": 5126, "count": 52, "type": "VEC3", "min": [0.128662109375, -0.018310546875, 0.136962890625], "max": [4.785888671875, 0.6083984375, 3.99072265625]}, {"bufferView": 109, "byteOffset": 0, "componentType": 5126, "count": 52, "type": "VEC2"}, {"bufferView": 110, "byteOffset": 0, "componentType": 5126, "count": 52, "type": "VEC3"}, {"bufferView": 111, "byteOffset": 0, "componentType": 5123, "count": 78, "type": "SCALAR"}, {"bufferView": 112, "byteOffset": 0, "componentType": 5126, "count": 8, "type": "VEC3", "min": [4.71240234375, -0.125, 0.0], "max": [5.0, 0.3125, 0.125]}, {"bufferView": 113, "byteOffset": 0, "componentType": 5126, "count": 8, "type": "VEC2"}, {"bufferView": 114, "byteOffset": 0, "componentType": 5126, "count": 8, "type": "VEC3"}, {"bufferView": 115, "byteOffset": 0, "componentType": 5123, "count": 12, "type": "SCALAR"}, {"bufferView": 116, "byteOffset": 0, "componentType": 5126, "count": 16, "type": "VEC3", "min": [0.375, 0.0, 0.0], "max": [5.0, 0.0, 0.875]}, {"bufferView": 117, "byteOffset": 0, "componentType": 5126, "count": 16, "type": "VEC2"}, {"bufferView": 118, "byteOffset": 0, "componentType": 5126, "count": 16, "type": "VEC3"}, {"bufferView": 119, "byteOffset": 0, "componentType": 5123, "count": 30, "type": "SCALAR"}, {"bufferView": 120, "byteOffset": 0, "componentType": 5126, "count": 780, "type": "VEC3", "min": [0.10009765625, 0.0, 0.125], "max": [5.149169921875, 0.703125, 4.675048828125]}, {"bufferView": 121, "byteOffset": 0, "componentType": 5126, "count": 780, "type": "VEC2"}, {"bufferView": 122, "byteOffset": 0, "componentType": 5126, "count": 780, "type": "VEC3"}, {"bufferView": 123, "byteOffset": 0, "componentType": 5123, "count": 1980, "type": "SCALAR"}, {"bufferView": 124, "byteOffset": 0, "componentType": 5126, "count": 374, "type": "VEC3", "min": [0.112548828125, 0.0, 0.125], "max": [5.137451171875, 0.52490234375, 4.387451171875]}, {"bufferView": 125, "byteOffset": 0, "componentType": 5126, "count": 374, "type": "VEC2"}, {"bufferView": 126, "byteOffset": 0, "componentType": 5126, "count": 374, "type": "VEC3"}, {"bufferView": 127, "byteOffset": 0, "componentType": 5123, "count": 762, "type": "SCALAR"}, {"bufferView": 128, "byteOffset": 0, "componentType": 5126, "count": 28, "type": "VEC3", "min": [-0.1279296875, 0.0, 1.14990234375], "max": [5.66650390625, 0.6875, 4.625]}, {"bufferView": 129, "byteOffset": 0, "componentType": 5126, "count": 28, "type": "VEC2"}, {"bufferView": 130, "byteOffset": 0, "componentType": 5123, "count": 42, "type": "SCALAR"}, {"bufferView": 131, "byteOffset": 0, "componentType": 5126, "count": 4, "type": "VEC3", "min": [1.5, 0.0, 1.125], "max": [1.75, 0.0, 1.25]}, {"bufferView": 132, "byteOffset": 0, "componentType": 5126, "count": 4, "type": "VEC2"}, {"bufferView": 133, "byteOffset": 0, "componentType": 5126, "count": 4, "type": "VEC3"}, {"bufferView": 134, "byteOffset": 0, "componentType": 5123, "count": 6, "type": "SCALAR"}, {"bufferView": 135, "byteOffset": 0, "componentType": 5126, "count": 6, "type": "VEC3", "min": [1.487548828125, 0.39990234375, 0.137451171875], "max": [1.762451171875, 0.512451171875, 0.137451171875]}, {"bufferView": 136, "byteOffset": 0, "componentType": 5126, "count": 6, "type": "VEC2"}, {"bufferView": 137, "byteOffset": 0, "componentType": 5126, "count": 6, "type": "VEC3"}, {"bufferView": 138, "byteOffset": 0, "componentType": 5123, "count": 6, "type": "SCALAR"}, {"bufferView": 139, "byteOffset": 0, "componentType": 5126, "count": 24, "type": "VEC3", "min": [0.626953125, 0.44384765625, 0.14990234375], "max": [2.8310546875, 0.606201171875, 0.39990234375]}, {"bufferView": 140, "byteOffset": 0, "componentType": 5126, "count": 24, "type": "VEC2"}, {"bufferView": 141, "byteOffset": 0, "componentType": 5126, "count": 24, "type": "VEC3"}, {"bufferView": 142, "byteOffset": 0, "componentType": 5123, "count": 36, "type": "SCALAR"}, {"bufferView": 143, "byteOffset": 0, "componentType": 5126, "count": 38, "type": "VEC3", "min": [0.425048828125, 0.0, 2.625], "max": [0.824951171875, 0.625, 2.8125]}, {"bufferView": 144, "byteOffset": 0, "componentType": 5126, "count": 38, "type": "VEC2"}, {"bufferView": 145, "byteOffset": 0, "componentType": 5126, "count": 38, "type": "VEC3"}, {"bufferView": 146, "byteOffset": 0, "componentType": 5123, "count": 66, "type": "SCALAR"}, {"bufferView": 147, "byteOffset": 0, "componentType": 5126, "count": 24, "type": "VEC3", "min": [0.504638671875, 0.02490234375, 3.25], "max": [0.745361328125, 0.09375, 4.1181640625]}, {"bufferView": 148, "byteOffset": 0, "componentType": 5126, "count": 24, "type": "VEC2"}, {"bufferView": 149, "byteOffset": 0, "componentType": 5126, "count": 24, "type": "VEC3"}, {"bufferView": 150, "byteOffset": 0, "componentType": 5123, "count": 42, "type": "SCALAR"}, {"bufferView": 151, "byteOffset": 0, "componentType": 5126, "count": 1316, "type": "VEC3", "min": [0.3837890625, 0.0, 3.270751953125], "max": [0.863037109375, 0.123291015625, 4.104248046875]}, {"bufferView": 152, "byteOffset": 0, "componentType": 5126, "count": 1316, "type": "VEC2"}, {"bufferView": 153, "byteOffset": 0, "componentType": 5123, "count": 2454, "type": "SCALAR"}, {"bufferView": 154, "byteOffset": 0, "componentType": 5126, "count": 140, "type": "VEC3", "min": [0.521484375, 0.09423828125, 3.2822265625], "max": [0.728515625, 0.10009765625, 4.1025390625]}, {"bufferView": 155, "byteOffset": 0, "componentType": 5126, "count": 140, "type": "VEC2"}, {"bufferView": 156, "byteOffset": 0, "componentType": 5126, "count": 140, "type": "VEC3"}, {"bufferView": 157, "byteOffset": 0, "componentType": 5123, "count": 210, "type": "SCALAR"}, {"bufferView": 158, "byteOffset": 0, "componentType": 5126, "count": 343, "type": "VEC3", "min": [0.552734375, 0.09375, 3.40966796875], "max": [0.75439453125, 0.21875, 3.97705078125]}, {"bufferView": 159, "byteOffset": 0, "componentType": 5126, "count": 343, "type": "VEC2"}, {"bufferView": 160, "byteOffset": 0, "componentType": 5126, "count": 343, "type": "VEC3"}, {"bufferView": 161, "byteOffset": 0, "componentType": 5123, "count": 603, "type": "SCALAR"}, {"bufferView": 162, "byteOffset": 0, "componentType": 5126, "count": 20, "type": "VEC3", "min": [0.52490234375, 0.0, 3.324951171875], "max": [0.72509765625, 0.08740234375, 3.35009765625]}, {"bufferView": 163, "byteOffset": 0, "componentType": 5126, "count": 20, "type": "VEC2"}, {"bufferView": 164, "byteOffset": 0, "componentType": 5126, "count": 20, "type": "VEC3"}, {"bufferView": 165, "byteOffset": 0, "componentType": 5123, "count": 36, "type": "SCALAR"}, {"bufferView": 166, "byteOffset": 0, "componentType": 5126, "count": 64, "type": "VEC3", "min": [2.449951171875, 0.362548828125, 2.625], "max": [4.800048828125, 0.425048828125, 2.925048828125]}, {"bufferView": 167, "byteOffset": 0, "componentType": 5126, "count": 64, "type": "VEC2"}, {"bufferView": 168, "byteOffset": 0, "componentType": 5126, "count": 64, "type": "VEC3"}, {"bufferView": 169, "byteOffset": 0, "componentType": 5123, "count": 108, "type": "SCALAR"}, {"bufferView": 170, "byteOffset": 0, "componentType": 5126, "count": 16, "type": "VEC3", "min": [2.487548828125, 0.0625, 2.64990234375], "max": [4.762451171875, 0.375, 2.875]}, {"bufferView": 171, "byteOffset": 0, "componentType": 5126, "count": 16, "type": "VEC2"}, {"bufferView": 172, "byteOffset": 0, "componentType": 5126, "count": 16, "type": "VEC3"}, {"bufferView": 173, "byteOffset": 0, "componentType": 5123, "count": 36, "type": "SCALAR"}, {"bufferView": 174, "byteOffset": 0, "componentType": 5126, "count": 80, "type": "VEC3", "min": [2.46240234375, 0.39990234375, 2.649658203125], "max": [4.78759765625, 0.46240234375, 2.92529296875]}, {"bufferView": 175, "byteOffset": 0, "componentType": 5126, "count": 80, "type": "VEC2"}, {"bufferView": 176, "byteOffset": 0, "componentType": 5126, "count": 80, "type": "VEC3"}, {"bufferView": 177, "byteOffset": 0, "componentType": 5123, "count": 144, "type": "SCALAR"}, {"bufferView": 178, "byteOffset": 0, "componentType": 5126, "count": 176, "type": "VEC3", "min": [2.46240234375, 0.0, 2.637451171875], "max": [4.78759765625, 0.362548828125, 2.91259765625]}, {"bufferView": 179, "byteOffset": 0, "componentType": 5126, "count": 176, "type": "VEC2"}, {"bufferView": 180, "byteOffset": 0, "componentType": 5126, "count": 176, "type": "VEC3"}, {"bufferView": 181, "byteOffset": 0, "componentType": 5123, "count": 336, "type": "SCALAR"}, {"bufferView": 182, "byteOffset": 0, "componentType": 5126, "count": 42, "type": "VEC3", "min": [2.484375, -0.004150390625, 2.65185546875], "max": [4.7626953125, 0.08251953125, 2.88232421875]}, {"bufferView": 183, "byteOffset": 0, "componentType": 5126, "count": 42, "type": "VEC2"}, {"bufferView": 184, "byteOffset": 0, "componentType": 5126, "count": 42, "type": "VEC3"}, {"bufferView": 185, "byteOffset": 0, "componentType": 5123, "count": 54, "type": "SCALAR"}, {"bufferView": 186, "byteOffset": 0, "componentType": 5126, "count": 150, "type": "VEC3", "min": [2.490966796875, -0.02392578125, 2.659912109375], "max": [4.765380859375, 0.08935546875, 2.889892578125]}, {"bufferView": 187, "byteOffset": 0, "componentType": 5126, "count": 150, "type": "VEC2"}, {"bufferView": 188, "byteOffset": 0, "componentType": 5126, "count": 150, "type": "VEC3"}, {"bufferView": 189, "byteOffset": 0, "componentType": 5123, "count": 204, "type": "SCALAR"}, {"bufferView": 190, "byteOffset": 0, "componentType": 5126, "count": 114, "type": "VEC3", "min": [2.484619140625, -0.02392578125, 2.659912109375], "max": [4.76171875, 0.089599609375, 2.889892578125]}, {"bufferView": 191, "byteOffset": 0, "componentType": 5126, "count": 114, "type": "VEC2"}, {"bufferView": 192, "byteOffset": 0, "componentType": 5126, "count": 114, "type": "VEC3"}, {"bufferView": 193, "byteOffset": 0, "componentType": 5123, "count": 138, "type": "SCALAR"}, {"bufferView": 194, "byteOffset": 0, "componentType": 5126, "count": 24, "type": "VEC3", "min": [2.255615234375, -0.000732421875, 2.64013671875], "max": [2.369384765625, 0.29052734375, 2.6826171875]}, {"bufferView": 195, "byteOffset": 0, "componentType": 5126, "count": 24, "type": "VEC2"}, {"bufferView": 196, "byteOffset": 0, "componentType": 5126, "count": 24, "type": "VEC3"}, {"bufferView": 197, "byteOffset": 0, "componentType": 5123, "count": 36, "type": "SCALAR"}, {"bufferView": 198, "byteOffset": 0, "componentType": 5126, "count": 12, "type": "VEC3", "min": [2.255615234375, 0.000732421875, 2.655029296875], "max": [2.369384765625, 0.29052734375, 2.6826171875]}, {"bufferView": 199, "byteOffset": 0, "componentType": 5126, "count": 12, "type": "VEC2"}, {"bufferView": 200, "byteOffset": 0, "componentType": 5126, "count": 12, "type": "VEC3"}, {"bufferView": 201, "byteOffset": 0, "componentType": 5123, "count": 18, "type": "SCALAR"}, {"bufferView": 202, "byteOffset": 0, "componentType": 5126, "count": 6, "type": "VEC3", "min": [2.27001953125, 0.01611328125, 2.647705078125], "max": [2.35498046875, 0.2734375, 2.671875]}, {"bufferView": 203, "byteOffset": 0, "componentType": 5126, "count": 6, "type": "VEC2"}, {"bufferView": 204, "byteOffset": 0, "componentType": 5126, "count": 6, "type": "VEC3"}, {"bufferView": 205, "byteOffset": 0, "componentType": 5123, "count": 12, "type": "SCALAR"}, {"bufferView": 206, "byteOffset": 0, "componentType": 5126, "count": 4, "type": "VEC3", "min": [2.272705078125, 0.015869140625, 2.66455078125], "max": [2.352294921875, 0.151611328125, 2.67724609375]}, {"bufferView": 207, "byteOffset": 0, "componentType": 5126, "count": 4, "type": "VEC2"}, {"bufferView": 208, "byteOffset": 0, "componentType": 5126, "count": 4, "type": "VEC3"}, {"bufferView": 209, "byteOffset": 0, "componentType": 5123, "count": 6, "type": "SCALAR"}, {"bufferView": 210, "byteOffset": 0, "componentType": 5126, "count": 104, "type": "VEC3", "min": [2.875244140625, 0.032470703125, 2.638671875], "max": [5.123779296875, 0.19677734375, 2.747802734375]}, {"bufferView": 211, "byteOffset": 0, "componentType": 5126, "count": 104, "type": "VEC2"}, {"bufferView": 212, "byteOffset": 0, "componentType": 5126, "count": 104, "type": "VEC3"}, {"bufferView": 213, "byteOffset": 0, "componentType": 5123, "count": 192, "type": "SCALAR"}, {"bufferView": 214, "byteOffset": 0, "componentType": 5126, "count": 148, "type": "VEC3", "min": [2.885009765625, -0.21826171875, 2.641357421875], "max": [5.115234375, 0.17578125, 2.771728515625]}, {"bufferView": 215, "byteOffset": 0, "componentType": 5126, "count": 148, "type": "VEC2"}, {"bufferView": 216, "byteOffset": 0, "componentType": 5126, "count": 148, "type": "VEC3"}, {"bufferView": 217, "byteOffset": 0, "componentType": 5123, "count": 168, "type": "SCALAR"}, {"bufferView": 218, "byteOffset": 0, "componentType": 5126, "count": 16, "type": "VEC3", "min": [2.8955078125, 0.03466796875, 2.718994140625], "max": [5.103515625, 0.176025390625, 2.718994140625]}, {"bufferView": 219, "byteOffset": 0, "componentType": 5126, "count": 16, "type": "VEC2"}, {"bufferView": 220, "byteOffset": 0, "componentType": 5126, "count": 16, "type": "VEC3"}, {"bufferView": 221, "byteOffset": 0, "componentType": 5123, "count": 24, "type": "SCALAR"}, {"bufferView": 222, "byteOffset": 0, "componentType": 5126, "count": 16, "type": "VEC3", "min": [2.91552734375, 0.0478515625, 2.73681640625], "max": [5.083740234375, 0.16455078125, 2.73681640625]}, {"bufferView": 223, "byteOffset": 0, "componentType": 5126, "count": 16, "type": "VEC2"}, {"bufferView": 224, "byteOffset": 0, "componentType": 5126, "count": 16, "type": "VEC3"}, {"bufferView": 225, "byteOffset": 0, "componentType": 5123, "count": 24, "type": "SCALAR"}, {"bufferView": 226, "byteOffset": 0, "componentType": 5126, "count": 8, "type": "VEC3", "min": [2.505615234375, 0.00244140625, 2.9287109375], "max": [2.627685546875, 0.181884765625, 3.042724609375]}, {"bufferView": 227, "byteOffset": 0, "componentType": 5126, "count": 8, "type": "VEC2"}, {"bufferView": 228, "byteOffset": 0, "componentType": 5126, "count": 8, "type": "VEC3"}, {"bufferView": 229, "byteOffset": 0, "componentType": 5123, "count": 18, "type": "SCALAR"}, {"bufferView": 230, "byteOffset": 0, "componentType": 5126, "count": 8, "type": "VEC3", "min": [4.0, 0.0, 3.0], "max": [5.25, 0.0, 3.25]}, {"bufferView": 231, "byteOffset": 0, "componentType": 5126, "count": 8, "type": "VEC2"}, {"bufferView": 232, "byteOffset": 0, "componentType": 5126, "count": 8, "type": "VEC3"}, {"bufferView": 233, "byteOffset": 0, "componentType": 5123, "count": 12, "type": "SCALAR"}, {"bufferView": 234, "byteOffset": 0, "componentType": 5126, "count": 18, "type": "VEC3", "min": [4.125, 0.5, 2.625], "max": [5.125, 0.5625, 3.625]}, {"bufferView": 235, "byteOffset": 0, "componentType": 5126, "count": 18, "type": "VEC2"}, {"bufferView": 236, "byteOffset": 0, "componentType": 5126, "count": 18, "type": "VEC3"}, {"bufferView": 237, "byteOffset": 0, "componentType": 5123, "count": 36, "type": "SCALAR"}, {"bufferView": 238, "byteOffset": 0, "componentType": 5126, "count": 42, "type": "VEC3", "min": [4.125, 0.0, 2.625], "max": [5.125, 0.5, 3.625]}, {"bufferView": 239, "byteOffset": 0, "componentType": 5126, "count": 42, "type": "VEC2"}, {"bufferView": 240, "byteOffset": 0, "componentType": 5126, "count": 42, "type": "VEC3"}, {"bufferView": 241, "byteOffset": 0, "componentType": 5123, "count": 72, "type": "SCALAR"}, {"bufferView": 242, "byteOffset": 0, "componentType": 5126, "count": 80, "type": "VEC3", "min": [4.256103515625, 0.053466796875, 2.725341796875], "max": [4.34375, 0.291748046875, 2.774658203125]}, {"bufferView": 243, "byteOffset": 0, "componentType": 5126, "count": 80, "type": "VEC2"}, {"bufferView": 244, "byteOffset": 0, "componentType": 5126, "count": 80, "type": "VEC3"}, {"bufferView": 245, "byteOffset": 0, "componentType": 5123, "count": 90, "type": "SCALAR"}, {"bufferView": 246, "byteOffset": 0, "componentType": 5126, "count": 8, "type": "VEC3", "min": [4.26708984375, 0.160400390625, 2.75], "max": [4.332763671875, 0.1962890625, 2.75]}, {"bufferView": 247, "byteOffset": 0, "componentType": 5126, "count": 8, "type": "VEC2"}, {"bufferView": 248, "byteOffset": 0, "componentType": 5126, "count": 8, "type": "VEC3"}, {"bufferView": 249, "byteOffset": 0, "componentType": 5123, "count": 12, "type": "SCALAR"}, {"bufferView": 250, "byteOffset": 0, "componentType": 5126, "count": 48, "type": "VEC3", "min": [4.25634765625, 0.168701171875, 2.737548828125], "max": [4.34375, 0.281982421875, 2.762451171875]}, {"bufferView": 251, "byteOffset": 0, "componentType": 5126, "count": 48, "type": "VEC2"}, {"bufferView": 252, "byteOffset": 0, "componentType": 5126, "count": 48, "type": "VEC3"}, {"bufferView": 253, "byteOffset": 0, "componentType": 5123, "count": 54, "type": "SCALAR"}], "samplers": [{"magFilter": 9729, "minFilter": 9729, "wrapS": 10497, "wrapT": 10497}]}