{"asset": {"version": "2.0", "generator": "tongari-nsbmd-to-gltf"}, "scene": 0, "scenes": [{"nodes": [0, 1]}], "nodes": [{"name": "m00_kb5", "translation": [0.0, 0.0, 0.0]}, {"mesh": 0, "name": "m00_kb5"}], "meshes": [{"name": "m00_kb5", "primitives": [{"attributes": {"POSITION": 0, "TEXCOORD_0": 1, "NORMAL": 2}, "indices": 3, "mode": 4, "material": 3}, {"attributes": {"POSITION": 4, "TEXCOORD_0": 5, "NORMAL": 6}, "indices": 7, "mode": 4, "material": 1}, {"attributes": {"POSITION": 8, "TEXCOORD_0": 9, "NORMAL": 10}, "indices": 11, "mode": 4, "material": 2}, {"attributes": {"POSITION": 12, "TEXCOORD_0": 13, "NORMAL": 14}, "indices": 15, "mode": 4, "material": 0}, {"attributes": {"POSITION": 16, "TEXCOORD_0": 17, "NORMAL": 18}, "indices": 19, "mode": 4, "material": 4}]}], "materials": [{"name": "md00", "pbrMetallicRoughness": {"baseColorFactor": [0.803921568627451, 0.803921568627451, 0.803921568627451, 1.0], "metallicFactor": 0.0, "roughnessFactor": 1.0}, "alphaMode": "OPAQUE", "doubleSided": true}, {"name": "md_pt_01", "pbrMetallicRoughness": {"baseColorFactor": [0.803921568627451, 0.803921568627451, 0.803921568627451, 1.0], "metallicFactor": 0.0, "roughnessFactor": 1.0}, "alphaMode": "OPAQUE", "doubleSided": true}, {"name": "md_pt_02", "pbrMetallicRoughness": {"baseColorFactor": [0.803921568627451, 0.803921568627451, 0.803921568627451, 1.0], "metallicFactor": 0.0, "roughnessFactor": 1.0}, "alphaMode": "OPAQUE", "doubleSided": true}, {"name": "r_wall_", "pbrMetallicRoughness": {"baseColorFactor": [0.803921568627451, 0.803921568627451, 0.803921568627451, 1.0], "metallicFactor": 0.0, "roughnessFactor": 1.0}, "alphaMode": "OPAQUE", "doubleSided": true}, {"name": "sh_leaf", "pbrMetallicRoughness": {"baseColorFactor": [0.803921568627451, 0.803921568627451, 0.803921568627451, 1.0], "metallicFactor": 0.0, "roughnessFactor": 1.0}, "alphaMode": "OPAQUE", "doubleSided": true}], "buffers": [{"byteLength": 7936, "uri": "data:application/octet-stream;base64,"}], "bufferViews": [{"buffer": 0, "byteOffset": 0, "byteLength": 768}, {"buffer": 0, "byteOffset": 768, "byteLength": 512}, {"buffer": 0, "byteOffset": 1280, "byteLength": 768}, {"buffer": 0, "byteOffset": 2048, "byteLength": 288}, {"buffer": 0, "byteOffset": 2336, "byteLength": 1248}, {"buffer": 0, "byteOffset": 3584, "byteLength": 832}, {"buffer": 0, "byteOffset": 4416, "byteLength": 1248}, {"buffer": 0, "byteOffset": 5664, "byteLength": 312}, {"buffer": 0, "byteOffset": 5976, "byteLength": 96}, {"buffer": 0, "byteOffset": 6072, "byteLength": 64}, {"buffer": 0, "byteOffset": 6136, "byteLength": 96}, {"buffer": 0, "byteOffset": 6232, "byteLength": 24}, {"buffer": 0, "byteOffset": 6256, "byteLength": 96}, {"buffer": 0, "byteOffset": 6352, "byteLength": 64}, {"buffer": 0, "byteOffset": 6416, "byteLength": 96}, {"buffer": 0, "byteOffset": 6512, "byteLength": 24}, {"buffer": 0, "byteOffset": 6536, "byteLength": 480}, {"buffer": 0, "byteOffset": 7016, "byteLength": 320}, {"buffer": 0, "byteOffset": 7336, "byteLength": 480}, {"buffer": 0, "byteOffset": 7816, "byteLength": 120}], "accessors": [{"bufferView": 0, "byteOffset": 0, "componentType": 5126, "count": 64, "type": "VEC3", "min": [0.3349609375, 0.0, 0.300048828125], "max": [5.6650390625, 2.0, 5.60302734375]}, {"bufferView": 1, "byteOffset": 0, "componentType": 5126, "count": 64, "type": "VEC2"}, {"bufferView": 2, "byteOffset": 0, "componentType": 5126, "count": 64, "type": "VEC3"}, {"bufferView": 3, "byteOffset": 0, "componentType": 5123, "count": 144, "type": "SCALAR"}, {"bufferView": 4, "byteOffset": 0, "componentType": 5126, "count": 104, "type": "VEC3", "min": [-0.50634765625, -0.144287109375, 0.99658203125], "max": [6.50634765625, 2.0, 4.521728515625]}, {"bufferView": 5, "byteOffset": 0, "componentType": 5126, "count": 104, "type": "VEC2"}, {"bufferView": 6, "byteOffset": 0, "componentType": 5126, "count": 104, "type": "VEC3"}, {"bufferView": 7, "byteOffset": 0, "componentType": 5123, "count": 156, "type": "SCALAR"}, {"bufferView": 8, "byteOffset": 0, "componentType": 5126, "count": 8, "type": "VEC3", "min": [-0.449462890625, 0.0, 1.0], "max": [6.449462890625, 0.0, 4.48583984375]}, {"bufferView": 9, "byteOffset": 0, "componentType": 5126, "count": 8, "type": "VEC2"}, {"bufferView": 10, "byteOffset": 0, "componentType": 5126, "count": 8, "type": "VEC3"}, {"bufferView": 11, "byteOffset": 0, "componentType": 5123, "count": 12, "type": "SCALAR"}, {"bufferView": 12, "byteOffset": 0, "componentType": 5126, "count": 8, "type": "VEC3", "min": [0.300048828125, 1.09326171875, 0.25], "max": [5.699951171875, 1.97900390625, 4.499755859375]}, {"bufferView": 13, "byteOffset": 0, "componentType": 5126, "count": 8, "type": "VEC2"}, {"bufferView": 14, "byteOffset": 0, "componentType": 5126, "count": 8, "type": "VEC3"}, {"bufferView": 15, "byteOffset": 0, "componentType": 5123, "count": 12, "type": "SCALAR"}, {"bufferView": 16, "byteOffset": 0, "componentType": 5126, "count": 40, "type": "VEC3", "min": [-1.587158203125, -0.613037109375, 0.19091796875], "max": [7.48486328125, 0.806884765625, 4.098388671875]}, {"bufferView": 17, "byteOffset": 0, "componentType": 5126, "count": 40, "type": "VEC2"}, {"bufferView": 18, "byteOffset": 0, "componentType": 5126, "count": 40, "type": "VEC3"}, {"bufferView": 19, "byteOffset": 0, "componentType": 5123, "count": 60, "type": "SCALAR"}], "samplers": [{"magFilter": 9729, "minFilter": 9729, "wrapS": 10497, "wrapT": 10497}]}