{"asset": {"version": "2.0", "generator": "tongari-nsbmd-to-gltf"}, "scene": 0, "scenes": [{"nodes": [0, 5]}], "nodes": [{"name": "ucc_mis_ck2", "translation": [0.0, 0.0, 0.0], "children": [1, 2, 3, 4]}, {"name": "polySurface121", "translation": [-0.11083984375, 0.12451171875, -0.0615234375]}, {"name": "polySurface134", "translation": [0.16259765625, 0.12451171875, 0.113525390625]}, {"name": "topping30", "translation": [-0.10205078125, 0.12841796875, -0.08203125]}, {"name": "topping31", "translation": [-0.111572265625, 0.12841796875, -0.038330078125]}, {"mesh": 0, "name": "1166ucc_mis_ck2"}], "meshes": [{"name": "1166ucc_mis_ck2", "primitives": [{"attributes": {"POSITION": 0, "TEXCOORD_0": 1, "NORMAL": 2}, "indices": 3, "mode": 4, "material": 1}, {"attributes": {"POSITION": 4, "TEXCOORD_0": 5, "NORMAL": 6}, "indices": 7, "mode": 4, "material": 0}, {"attributes": {"POSITION": 8, "TEXCOORD_0": 9, "NORMAL": 10}, "indices": 11, "mode": 4, "material": 0}, {"attributes": {"POSITION": 12, "TEXCOORD_0": 13, "NORMAL": 14}, "indices": 15, "mode": 4, "material": 2}, {"attributes": {"POSITION": 16, "TEXCOORD_0": 17, "NORMAL": 18}, "indices": 19, "mode": 4, "material": 3}]}], "materials": [{"name": "ucc_mis_mf2", "pbrMetallicRoughness": {"baseColorFactor": [0.803921568627451, 0.803921568627451, 0.803921568627451, 1.0], "metallicFactor": 0.0, "roughnessFactor": 1.0}, "alphaMode": "OPAQUE", "doubleSided": true}, {"name": "ucc_sara0", "pbrMetallicRoughness": {"baseColorFactor": [0.803921568627451, 0.803921568627451, 0.803921568627451, 1.0], "metallicFactor": 0.0, "roughnessFactor": 1.0}, "alphaMode": "OPAQUE", "doubleSided": true}, {"name": "ucc_top00", "pbrMetallicRoughness": {"baseColorFactor": [0.803921568627451, 0.803921568627451, 0.803921568627451, 1.0], "metallicFactor": 0.0, "roughnessFactor": 1.0}, "alphaMode": "OPAQUE", "doubleSided": true}, {"name": "ucc_top01", "pbrMetallicRoughness": {"baseColorFactor": [0.803921568627451, 0.803921568627451, 0.803921568627451, 1.0], "metallicFactor": 0.0, "roughnessFactor": 1.0}, "alphaMode": "OPAQUE", "doubleSided": true}], "buffers": [{"byteLength": 4056, "uri": "data:application/octet-stream;base64,"}], "bufferViews": [{"buffer": 0, "byteOffset": 0, "byteLength": 168}, {"buffer": 0, "byteOffset": 168, "byteLength": 112}, {"buffer": 0, "byteOffset": 280, "byteLength": 168}, {"buffer": 0, "byteOffset": 448, "byteLength": 48}, {"buffer": 0, "byteOffset": 496, "byteLength": 552}, {"buffer": 0, "byteOffset": 1048, "byteLength": 368}, {"buffer": 0, "byteOffset": 1416, "byteLength": 552}, {"buffer": 0, "byteOffset": 1968, "byteLength": 168}, {"buffer": 0, "byteOffset": 2136, "byteLength": 552}, {"buffer": 0, "byteOffset": 2688, "byteLength": 368}, {"buffer": 0, "byteOffset": 3056, "byteLength": 552}, {"buffer": 0, "byteOffset": 3608, "byteLength": 168}, {"buffer": 0, "byteOffset": 3776, "byteLength": 48}, {"buffer": 0, "byteOffset": 3824, "byteLength": 32}, {"buffer": 0, "byteOffset": 3856, "byteLength": 48}, {"buffer": 0, "byteOffset": 3904, "byteLength": 12}, {"buffer": 0, "byteOffset": 3916, "byteLength": 48}, {"buffer": 0, "byteOffset": 3964, "byteLength": 32}, {"buffer": 0, "byteOffset": 3996, "byteLength": 48}, {"buffer": 0, "byteOffset": 4044, "byteLength": 12}], "accessors": [{"bufferView": 0, "byteOffset": 0, "componentType": 5126, "count": 14, "type": "VEC3", "min": [-0.450439453125, 0.034423828125, -0.449462890625], "max": [0.450439453125, 0.14501953125, 0.451416015625]}, {"bufferView": 1, "byteOffset": 0, "componentType": 5126, "count": 14, "type": "VEC2"}, {"bufferView": 2, "byteOffset": 0, "componentType": 5126, "count": 14, "type": "VEC3"}, {"bufferView": 3, "byteOffset": 0, "componentType": 5123, "count": 24, "type": "SCALAR"}, {"bufferView": 4, "byteOffset": 0, "componentType": 5126, "count": 46, "type": "VEC3", "min": [-0.19384765625, -0.0048828125, -0.171630859375], "max": [0.1416015625, 0.050537109375, 0.154296875]}, {"bufferView": 5, "byteOffset": 0, "componentType": 5126, "count": 46, "type": "VEC2"}, {"bufferView": 6, "byteOffset": 0, "componentType": 5126, "count": 46, "type": "VEC3"}, {"bufferView": 7, "byteOffset": 0, "componentType": 5123, "count": 84, "type": "SCALAR"}, {"bufferView": 8, "byteOffset": 0, "componentType": 5126, "count": 46, "type": "VEC3", "min": [-0.19384765625, -0.0048828125, -0.171630859375], "max": [0.1416015625, 0.050537109375, 0.154296875]}, {"bufferView": 9, "byteOffset": 0, "componentType": 5126, "count": 46, "type": "VEC2"}, {"bufferView": 10, "byteOffset": 0, "componentType": 5126, "count": 46, "type": "VEC3"}, {"bufferView": 11, "byteOffset": 0, "componentType": 5123, "count": 84, "type": "SCALAR"}, {"bufferView": 12, "byteOffset": 0, "componentType": 5126, "count": 4, "type": "VEC3", "min": [-0.022216796875, -0.022216796875, 0.0], "max": [0.022216796875, 0.022216796875, 0.0]}, {"bufferView": 13, "byteOffset": 0, "componentType": 5126, "count": 4, "type": "VEC2"}, {"bufferView": 14, "byteOffset": 0, "componentType": 5126, "count": 4, "type": "VEC3"}, {"bufferView": 15, "byteOffset": 0, "componentType": 5123, "count": 6, "type": "SCALAR"}, {"bufferView": 16, "byteOffset": 0, "componentType": 5126, "count": 4, "type": "VEC3", "min": [-0.021728515625, -0.021728515625, 0.0], "max": [0.021728515625, 0.021728515625, 0.0]}, {"bufferView": 17, "byteOffset": 0, "componentType": 5126, "count": 4, "type": "VEC2"}, {"bufferView": 18, "byteOffset": 0, "componentType": 5126, "count": 4, "type": "VEC3"}, {"bufferView": 19, "byteOffset": 0, "componentType": 5123, "count": 6, "type": "SCALAR"}], "samplers": [{"magFilter": 9729, "minFilter": 9729, "wrapS": 10497, "wrapT": 10497}]}