{"asset": {"version": "2.0", "generator": "tongari-nsbmd-to-gltf"}, "scene": 0, "scenes": [{"nodes": [0, 4]}], "nodes": [{"name": "uma_yt_mise", "translation": [0.0, 0.0, 0.0], "children": [1, 2, 3]}, {"name": "ramen_0", "translation": [0.996826171875, -0.596435546875, 0.458984375]}, {"name": "ramen_1", "translation": [1.622802734375, -0.596435546875, 0.479736328125]}, {"name": "ramen_2", "translation": [0.353515625, -0.596435546875, 0.479736328125]}, {"mesh": 0, "name": "uma_yt_mise"}], "meshes": [{"name": "uma_yt_mise", "primitives": [{"attributes": {"POSITION": 0, "TEXCOORD_0": 1}, "indices": 2, "mode": 4, "material": 5}, {"attributes": {"POSITION": 3, "TEXCOORD_0": 4}, "indices": 5, "mode": 4, "material": 8}, {"attributes": {"POSITION": 6, "TEXCOORD_0": 7}, "indices": 8, "mode": 4, "material": 9}, {"attributes": {"POSITION": 9, "TEXCOORD_0": 10}, "indices": 11, "mode": 4, "material": 7}, {"attributes": {"POSITION": 12, "TEXCOORD_0": 13}, "indices": 14, "mode": 4, "material": 6}, {"attributes": {"POSITION": 15, "TEXCOORD_0": 16}, "indices": 17, "mode": 4, "material": 1}, {"attributes": {"POSITION": 18, "TEXCOORD_0": 19}, "indices": 20, "mode": 4, "material": 0}, {"attributes": {"POSITION": 21, "TEXCOORD_0": 22}, "indices": 23, "mode": 4, "material": 2}, {"attributes": {"POSITION": 24, "TEXCOORD_0": 25}, "indices": 26, "mode": 4, "material": 3}, {"attributes": {"POSITION": 27, "TEXCOORD_0": 28}, "indices": 29, "mode": 4, "material": 4}, {"attributes": {"POSITION": 30, "TEXCOORD_0": 31}, "indices": 32, "mode": 4, "material": 4}, {"attributes": {"POSITION": 33, "TEXCOORD_0": 34}, "indices": 35, "mode": 4, "material": 4}]}], "materials": [{"name": "yatai_hasi0", "pbrMetallicRoughness": {"baseColorFactor": [1.0, 1.0, 1.0, 1.0], "metallicFactor": 0.0, "roughnessFactor": 1.0}, "alphaMode": "OPAQUE", "doubleSided": true}, {"name": "yatai_ita0", "pbrMetallicRoughness": {"baseColorFactor": [1.0, 1.0, 1.0, 1.0], "metallicFactor": 0.0, "roughnessFactor": 1.0}, "alphaMode": "OPAQUE", "doubleSided": true}, {"name": "yatai_lig0", "pbrMetallicRoughness": {"baseColorFactor": [1.0, 1.0, 1.0, 1.0], "metallicFactor": 0.0, "roughnessFactor": 1.0}, "alphaMode": "OPAQUE", "doubleSided": true}, {"name": "yatai_lig1", "pbrMetallicRoughness": {"baseColorFactor": [1.0, 1.0, 1.0, 1.0], "metallicFactor": 0.0, "roughnessFactor": 1.0}, "alphaMode": "OPAQUE", "doubleSided": true}, {"name": "yatai_men0", "pbrMetallicRoughness": {"baseColorFactor": [1.0, 1.0, 1.0, 1.0], "metallicFactor": 0.0, "roughnessFactor": 1.0}, "alphaMode": "OPAQUE", "doubleSided": true}, {"name": "yatai_nabe0", "pbrMetallicRoughness": {"baseColorFactor": [1.0, 1.0, 1.0, 1.0], "metallicFactor": 0.0, "roughnessFactor": 1.0}, "alphaMode": "OPAQUE", "doubleSided": true}, {"name": "yatai_noren0", "pbrMetallicRoughness": {"baseColorFactor": [1.0, 1.0, 1.0, 1.0], "metallicFactor": 0.0, "roughnessFactor": 1.0}, "alphaMode": "OPAQUE", "doubleSided": true}, {"name": "yatai_tana0", "pbrMetallicRoughness": {"baseColorFactor": [1.0, 1.0, 1.0, 1.0], "metallicFactor": 0.0, "roughnessFactor": 1.0}, "alphaMode": "OPAQUE", "doubleSided": true}, {"name": "yatai_tire0", "pbrMetallicRoughness": {"baseColorFactor": [1.0, 1.0, 1.0, 1.0], "metallicFactor": 0.0, "roughnessFactor": 1.0}, "alphaMode": "OPAQUE", "doubleSided": true}, {"name": "yatai_yn0", "pbrMetallicRoughness": {"baseColorFactor": [1.0, 1.0, 1.0, 1.0], "metallicFactor": 0.0, "roughnessFactor": 1.0}, "alphaMode": "OPAQUE", "doubleSided": true}], "buffers": [{"byteLength": 6680, "uri": "data:application/octet-stream;base64,"}], "bufferViews": [{"buffer": 0, "byteOffset": 0, "byteLength": 528}, {"buffer": 0, "byteOffset": 528, "byteLength": 352}, {"buffer": 0, "byteOffset": 880, "byteLength": 192}, {"buffer": 0, "byteOffset": 1072, "byteLength": 48}, {"buffer": 0, "byteOffset": 1120, "byteLength": 32}, {"buffer": 0, "byteOffset": 1152, "byteLength": 12}, {"buffer": 0, "byteOffset": 1164, "byteLength": 1032}, {"buffer": 0, "byteOffset": 2196, "byteLength": 688}, {"buffer": 0, "byteOffset": 2884, "byteLength": 300}, {"buffer": 0, "byteOffset": 3184, "byteLength": 264}, {"buffer": 0, "byteOffset": 3448, "byteLength": 176}, {"buffer": 0, "byteOffset": 3624, "byteLength": 60}, {"buffer": 0, "byteOffset": 3684, "byteLength": 48}, {"buffer": 0, "byteOffset": 3732, "byteLength": 32}, {"buffer": 0, "byteOffset": 3764, "byteLength": 12}, {"buffer": 0, "byteOffset": 3776, "byteLength": 288}, {"buffer": 0, "byteOffset": 4064, "byteLength": 192}, {"buffer": 0, "byteOffset": 4256, "byteLength": 72}, {"buffer": 0, "byteOffset": 4328, "byteLength": 48}, {"buffer": 0, "byteOffset": 4376, "byteLength": 32}, {"buffer": 0, "byteOffset": 4408, "byteLength": 12}, {"buffer": 0, "byteOffset": 4420, "byteLength": 192}, {"buffer": 0, "byteOffset": 4612, "byteLength": 128}, {"buffer": 0, "byteOffset": 4740, "byteLength": 60}, {"buffer": 0, "byteOffset": 4800, "byteLength": 36}, {"buffer": 0, "byteOffset": 4836, "byteLength": 24}, {"buffer": 0, "byteOffset": 4860, "byteLength": 6}, {"buffer": 0, "byteOffset": 4868, "byteLength": 312}, {"buffer": 0, "byteOffset": 5180, "byteLength": 208}, {"buffer": 0, "byteOffset": 5388, "byteLength": 84}, {"buffer": 0, "byteOffset": 5472, "byteLength": 312}, {"buffer": 0, "byteOffset": 5784, "byteLength": 208}, {"buffer": 0, "byteOffset": 5992, "byteLength": 84}, {"buffer": 0, "byteOffset": 6076, "byteLength": 312}, {"buffer": 0, "byteOffset": 6388, "byteLength": 208}, {"buffer": 0, "byteOffset": 6596, "byteLength": 84}], "accessors": [{"bufferView": 0, "byteOffset": 0, "componentType": 5126, "count": 44, "type": "VEC3", "min": [-0.767333984375, 0.813232421875, -0.77099609375], "max": [-0.04150390625, 1.379638671875, 0.392333984375]}, {"bufferView": 1, "byteOffset": 0, "componentType": 5126, "count": 44, "type": "VEC2"}, {"bufferView": 2, "byteOffset": 0, "componentType": 5123, "count": 96, "type": "SCALAR"}, {"bufferView": 3, "byteOffset": 0, "componentType": 5126, "count": 4, "type": "VEC3", "min": [0.302001953125, 0.006103515625, 0.6416015625], "max": [1.09375, 0.722412109375, 0.641845703125]}, {"bufferView": 4, "byteOffset": 0, "componentType": 5126, "count": 4, "type": "VEC2"}, {"bufferView": 5, "byteOffset": 0, "componentType": 5123, "count": 6, "type": "SCALAR"}, {"bufferView": 6, "byteOffset": 0, "componentType": 5126, "count": 86, "type": "VEC3", "min": [-1.5625, 0.037109375, -1.1416015625], "max": [3.177490234375, 3.732177734375, 0.83203125]}, {"bufferView": 7, "byteOffset": 0, "componentType": 5126, "count": 86, "type": "VEC2"}, {"bufferView": 8, "byteOffset": 0, "componentType": 5123, "count": 150, "type": "SCALAR"}, {"bufferView": 9, "byteOffset": 0, "componentType": 5126, "count": 22, "type": "VEC3", "min": [-1.310546875, 0.7841796875, -1.003173828125], "max": [2.5537109375, 3.68310546875, 0.665771484375]}, {"bufferView": 10, "byteOffset": 0, "componentType": 5126, "count": 22, "type": "VEC2"}, {"bufferView": 11, "byteOffset": 0, "componentType": 5123, "count": 30, "type": "SCALAR"}, {"bufferView": 12, "byteOffset": 0, "componentType": 5126, "count": 4, "type": "VEC3", "min": [-0.849365234375, 2.520263671875, 0.671142578125], "max": [2.23388671875, 3.087158203125, 0.763916015625]}, {"bufferView": 13, "byteOffset": 0, "componentType": 5126, "count": 4, "type": "VEC2"}, {"bufferView": 14, "byteOffset": 0, "componentType": 5123, "count": 6, "type": "SCALAR"}, {"bufferView": 15, "byteOffset": 0, "componentType": 5126, "count": 24, "type": "VEC3", "min": [-0.743896484375, 0.276123046875, -0.8134765625], "max": [2.1884765625, 0.826416015625, 0.748291015625]}, {"bufferView": 16, "byteOffset": 0, "componentType": 5126, "count": 24, "type": "VEC2"}, {"bufferView": 17, "byteOffset": 0, "componentType": 5123, "count": 36, "type": "SCALAR"}, {"bufferView": 18, "byteOffset": 0, "componentType": 5126, "count": 4, "type": "VEC3", "min": [-0.373046875, 0.77587890625, -0.042236328125], "max": [-0.0048828125, 1.363525390625, 0.06591796875]}, {"bufferView": 19, "byteOffset": 0, "componentType": 5126, "count": 4, "type": "VEC2"}, {"bufferView": 20, "byteOffset": 0, "componentType": 5123, "count": 6, "type": "SCALAR"}, {"bufferView": 21, "byteOffset": 0, "componentType": 5126, "count": 16, "type": "VEC3", "min": [2.197265625, 1.2431640625, 0.41015625], "max": [2.9638671875, 2.374267578125, 1.073974609375]}, {"bufferView": 22, "byteOffset": 0, "componentType": 5126, "count": 16, "type": "VEC2"}, {"bufferView": 23, "byteOffset": 0, "componentType": 5123, "count": 30, "type": "SCALAR"}, {"bufferView": 24, "byteOffset": 0, "componentType": 5126, "count": 3, "type": "VEC3", "min": [2.200439453125, 2.376220703125, 0.6943359375], "max": [2.960693359375, 3.347412109375, 0.85302734375]}, {"bufferView": 25, "byteOffset": 0, "componentType": 5126, "count": 3, "type": "VEC2"}, {"bufferView": 26, "byteOffset": 0, "componentType": 5123, "count": 3, "type": "SCALAR"}, {"bufferView": 27, "byteOffset": 0, "componentType": 5126, "count": 26, "type": "VEC3", "min": [-0.3642578125, -0.179931640625, -0.364501953125], "max": [0.3642578125, 0.179931640625, 0.364501953125]}, {"bufferView": 28, "byteOffset": 0, "componentType": 5126, "count": 26, "type": "VEC2"}, {"bufferView": 29, "byteOffset": 0, "componentType": 5123, "count": 42, "type": "SCALAR"}, {"bufferView": 30, "byteOffset": 0, "componentType": 5126, "count": 26, "type": "VEC3", "min": [-0.3642578125, -0.179931640625, -0.364501953125], "max": [0.3642578125, 0.179931640625, 0.364501953125]}, {"bufferView": 31, "byteOffset": 0, "componentType": 5126, "count": 26, "type": "VEC2"}, {"bufferView": 32, "byteOffset": 0, "componentType": 5123, "count": 42, "type": "SCALAR"}, {"bufferView": 33, "byteOffset": 0, "componentType": 5126, "count": 26, "type": "VEC3", "min": [-0.3642578125, -0.179931640625, -0.364501953125], "max": [0.3642578125, 0.179931640625, 0.364501953125]}, {"bufferView": 34, "byteOffset": 0, "componentType": 5126, "count": 26, "type": "VEC2"}, {"bufferView": 35, "byteOffset": 0, "componentType": 5123, "count": 42, "type": "SCALAR"}], "samplers": [{"magFilter": 9729, "minFilter": 9729, "wrapS": 10497, "wrapT": 10497}]}