{"asset": {"version": "2.0", "generator": "tongari-nsbmd-to-gltf"}, "scene": 0, "scenes": [{"nodes": [0, 1]}], "nodes": [{"name": "sh_l02_c00", "translation": [0.0, 0.0, 0.0]}, {"mesh": 0, "name": "sh_l02_c00"}], "meshes": [{"name": "sh_l02_c00", "primitives": [{"attributes": {"POSITION": 0, "TEXCOORD_0": 1, "NORMAL": 2}, "indices": 3, "mode": 4, "material": 0}, {"attributes": {"POSITION": 4, "TEXCOORD_0": 5, "NORMAL": 6}, "indices": 7, "mode": 4, "material": 1}, {"attributes": {"POSITION": 8, "TEXCOORD_0": 9, "NORMAL": 10}, "indices": 11, "mode": 4, "material": 3}, {"attributes": {"POSITION": 12, "TEXCOORD_0": 13, "NORMAL": 14}, "indices": 15, "mode": 4, "material": 2}]}], "materials": [{"name": "sh_t01c_0", "pbrMetallicRoughness": {"baseColorFactor": [0.803921568627451, 0.803921568627451, 0.803921568627451, 1.0], "metallicFactor": 0.0, "roughnessFactor": 1.0}, "alphaMode": "OPAQUE", "doubleSided": true}, {"name": "sh_t01c_1", "pbrMetallicRoughness": {"baseColorFactor": [0.803921568627451, 0.803921568627451, 0.803921568627451, 1.0], "metallicFactor": 0.0, "roughnessFactor": 1.0}, "alphaMode": "OPAQUE", "doubleSided": true}, {"name": "sh_t01c_2", "pbrMetallicRoughness": {"baseColorFactor": [0.803921568627451, 0.803921568627451, 0.803921568627451, 1.0], "metallicFactor": 0.0, "roughnessFactor": 1.0}, "alphaMode": "OPAQUE", "doubleSided": true}, {"name": "sh_t01c_3", "pbrMetallicRoughness": {"baseColorFactor": [1.0, 1.0, 1.0, 0.5161290322580645], "metallicFactor": 0.0, "roughnessFactor": 1.0}, "alphaMode": "BLEND", "doubleSided": true}], "buffers": [{"byteLength": 7380, "uri": "data:application/octet-stream;base64,"}], "bufferViews": [{"buffer": 0, "byteOffset": 0, "byteLength": 756}, {"buffer": 0, "byteOffset": 756, "byteLength": 504}, {"buffer": 0, "byteOffset": 1260, "byteLength": 756}, {"buffer": 0, "byteOffset": 2016, "byteLength": 198}, {"buffer": 0, "byteOffset": 2216, "byteLength": 600}, {"buffer": 0, "byteOffset": 2816, "byteLength": 400}, {"buffer": 0, "byteOffset": 3216, "byteLength": 600}, {"buffer": 0, "byteOffset": 3816, "byteLength": 192}, {"buffer": 0, "byteOffset": 4008, "byteLength": 768}, {"buffer": 0, "byteOffset": 4776, "byteLength": 512}, {"buffer": 0, "byteOffset": 5288, "byteLength": 768}, {"buffer": 0, "byteOffset": 6056, "byteLength": 192}, {"buffer": 0, "byteOffset": 6248, "byteLength": 384}, {"buffer": 0, "byteOffset": 6632, "byteLength": 256}, {"buffer": 0, "byteOffset": 6888, "byteLength": 384}, {"buffer": 0, "byteOffset": 7272, "byteLength": 108}], "accessors": [{"bufferView": 0, "byteOffset": 0, "componentType": 5126, "count": 63, "type": "VEC3", "min": [4.550048828125, 0.002685546875, 0.39990234375], "max": [5.0, 0.3701171875, 4.5]}, {"bufferView": 1, "byteOffset": 0, "componentType": 5126, "count": 63, "type": "VEC2"}, {"bufferView": 2, "byteOffset": 0, "componentType": 5126, "count": 63, "type": "VEC3"}, {"bufferView": 3, "byteOffset": 0, "componentType": 5123, "count": 99, "type": "SCALAR"}, {"bufferView": 4, "byteOffset": 0, "componentType": 5126, "count": 50, "type": "VEC3", "min": [4.56494140625, 0.00146484375, 0.39990234375], "max": [5.0, 0.3701171875, 4.5]}, {"bufferView": 5, "byteOffset": 0, "componentType": 5126, "count": 50, "type": "VEC2"}, {"bufferView": 6, "byteOffset": 0, "componentType": 5126, "count": 50, "type": "VEC3"}, {"bufferView": 7, "byteOffset": 0, "componentType": 5123, "count": 96, "type": "SCALAR"}, {"bufferView": 8, "byteOffset": 0, "componentType": 5126, "count": 64, "type": "VEC3", "min": [4.645263671875, 0.15869140625, 0.47509765625], "max": [4.689208984375, 0.30908203125, 4.425048828125]}, {"bufferView": 9, "byteOffset": 0, "componentType": 5126, "count": 64, "type": "VEC2"}, {"bufferView": 10, "byteOffset": 0, "componentType": 5126, "count": 64, "type": "VEC3"}, {"bufferView": 11, "byteOffset": 0, "componentType": 5123, "count": 96, "type": "SCALAR"}, {"bufferView": 12, "byteOffset": 0, "componentType": 5126, "count": 32, "type": "VEC3", "min": [4.550048828125, 0.00146484375, 0.39990234375], "max": [4.679443359375, 0.362548828125, 4.5]}, {"bufferView": 13, "byteOffset": 0, "componentType": 5126, "count": 32, "type": "VEC2"}, {"bufferView": 14, "byteOffset": 0, "componentType": 5126, "count": 32, "type": "VEC3"}, {"bufferView": 15, "byteOffset": 0, "componentType": 5123, "count": 54, "type": "SCALAR"}], "samplers": [{"magFilter": 9729, "minFilter": 9729, "wrapS": 10497, "wrapT": 10497}]}