{"asset": {"version": "2.0", "generator": "tongari-nsbmd-to-gltf"}, "scene": 0, "scenes": [{"nodes": [0, 12]}], "nodes": [{"name": "root", "translation": [-0.041015625, 1.143310546875, -0.10986328125], "children": [1, 9]}, {"name": "chest", "translation": [0.0, 0.14794921875, 0.08447265625], "children": [2, 4, 6]}, {"name": "l_shoulder", "translation": [1.09228515625, 0.509521484375, -0.14306640625], "children": [3]}, {"name": "l_elbow", "translation": [0.414794921875, -0.01953125, 0.0]}, {"name": "neck", "translation": [0.0, 0.72705078125, 0.21044921875], "children": [5]}, {"name": "mouse", "translation": [0.0, -0.0029296875, 0.849853515625]}, {"name": "r_shoulder", "translation": [-1.09228515625, 0.509765625, -0.1435546875], "children": [7]}, {"name": "r_elbow", "translation": [-0.414794921875, -0.01953125, 0.0], "children": [8]}, {"name": "r_hand", "translation": [-0.4755859375, -0.022216796875, 0.07763671875]}, {"name": "hip", "translation": [0.0, -0.13916015625, -0.075439453125], "children": [10, 11]}, {"name": "l_knee", "translation": [0.473388671875, -0.43115234375, 0.118408203125]}, {"name": "r_knee", "translation": [-0.478271484375, -0.427978515625, 0.11865234375]}, {"mesh": 0, "name": "uma_2golem2"}], "meshes": [{"name": "uma_2golem2", "primitives": [{"attributes": {"POSITION": 0, "TEXCOORD_0": 1, "NORMAL": 2}, "indices": 3, "mode": 4, "material": 4}, {"attributes": {"POSITION": 4, "TEXCOORD_0": 5, "NORMAL": 6}, "indices": 7, "mode": 4, "material": 1}, {"attributes": {"POSITION": 8, "TEXCOORD_0": 9, "NORMAL": 10}, "indices": 11, "mode": 4, "material": 5}, {"attributes": {"POSITION": 12, "TEXCOORD_0": 13, "NORMAL": 14}, "indices": 15, "mode": 4, "material": 2}, {"attributes": {"POSITION": 16, "TEXCOORD_0": 17, "NORMAL": 18}, "indices": 19, "mode": 4, "material": 3}, {"attributes": {"POSITION": 20, "TEXCOORD_0": 21, "NORMAL": 22}, "indices": 23, "mode": 4, "material": 0}]}], "materials": [{"name": "ac_cir_sap", "pbrMetallicRoughness": {"baseColorFactor": [0.803921568627451, 0.803921568627451, 0.803921568627451, 1.0], "metallicFactor": 0.0, "roughnessFactor": 1.0}, "alphaMode": "OPAQUE", "doubleSided": true}, {"name": "c00_golem", "pbrMetallicRoughness": {"baseColorFactor": [0.803921568627451, 0.803921568627451, 0.803921568627451, 1.0], "metallicFactor": 0.0, "roughnessFactor": 1.0}, "alphaMode": "OPAQUE", "doubleSided": true}, {"name": "c04_stone", "pbrMetallicRoughness": {"baseColorFactor": [0.803921568627451, 0.803921568627451, 0.803921568627451, 1.0], "metallicFactor": 0.0, "roughnessFactor": 1.0}, "alphaMode": "OPAQUE", "doubleSided": true}, {"name": "c05_ammonite", "pbrMetallicRoughness": {"baseColorFactor": [0.803921568627451, 0.803921568627451, 0.803921568627451, 1.0], "metallicFactor": 0.0, "roughnessFactor": 1.0}, "alphaMode": "OPAQUE", "doubleSided": true}, {"name": "tia_03", "pbrMetallicRoughness": {"baseColorFactor": [1.0, 1.0, 1.0, 1.0], "metallicFactor": 0.0, "roughnessFactor": 1.0}, "alphaMode": "OPAQUE", "doubleSided": true}, {"name": "ucc_top0", "pbrMetallicRoughness": {"baseColorFactor": [1.0, 1.0, 1.0, 1.0], "metallicFactor": 0.0, "roughnessFactor": 1.0}, "alphaMode": "OPAQUE", "doubleSided": true}], "buffers": [{"byteLength": 18672, "uri": "data:application/octet-stream;base64,"}], "bufferViews": [{"buffer": 0, "byteOffset": 0, "byteLength": 384}, {"buffer": 0, "byteOffset": 384, "byteLength": 256}, {"buffer": 0, "byteOffset": 640, "byteLength": 384}, {"buffer": 0, "byteOffset": 1024, "byteLength": 84}, {"buffer": 0, "byteOffset": 1108, "byteLength": 192}, {"buffer": 0, "byteOffset": 1300, "byteLength": 128}, {"buffer": 0, "byteOffset": 1428, "byteLength": 192}, {"buffer": 0, "byteOffset": 1620, "byteLength": 48}, {"buffer": 0, "byteOffset": 1668, "byteLength": 1044}, {"buffer": 0, "byteOffset": 2712, "byteLength": 696}, {"buffer": 0, "byteOffset": 3408, "byteLength": 1044}, {"buffer": 0, "byteOffset": 4452, "byteLength": 294}, {"buffer": 0, "byteOffset": 4748, "byteLength": 3876}, {"buffer": 0, "byteOffset": 8624, "byteLength": 2584}, {"buffer": 0, "byteOffset": 11208, "byteLength": 3876}, {"buffer": 0, "byteOffset": 15084, "byteLength": 1206}, {"buffer": 0, "byteOffset": 16292, "byteLength": 240}, {"buffer": 0, "byteOffset": 16532, "byteLength": 160}, {"buffer": 0, "byteOffset": 16692, "byteLength": 240}, {"buffer": 0, "byteOffset": 16932, "byteLength": 60}, {"buffer": 0, "byteOffset": 16992, "byteLength": 576}, {"buffer": 0, "byteOffset": 17568, "byteLength": 384}, {"buffer": 0, "byteOffset": 17952, "byteLength": 576}, {"buffer": 0, "byteOffset": 18528, "byteLength": 144}], "accessors": [{"bufferView": 0, "byteOffset": 0, "componentType": 5126, "count": 32, "type": "VEC3", "min": [-0.729248046875, 1.481201171875, 0.252197265625], "max": [0.647216796875, 2.203125, 0.7451171875]}, {"bufferView": 1, "byteOffset": 0, "componentType": 5126, "count": 32, "type": "VEC2"}, {"bufferView": 2, "byteOffset": 0, "componentType": 5126, "count": 32, "type": "VEC3"}, {"bufferView": 3, "byteOffset": 0, "componentType": 5123, "count": 42, "type": "SCALAR"}, {"bufferView": 4, "byteOffset": 0, "componentType": 5126, "count": 16, "type": "VEC3", "min": [-0.91015625, 0.825927734375, 0.329833984375], "max": [0.828125, 1.36572265625, 1.11669921875]}, {"bufferView": 5, "byteOffset": 0, "componentType": 5126, "count": 16, "type": "VEC2"}, {"bufferView": 6, "byteOffset": 0, "componentType": 5126, "count": 16, "type": "VEC3"}, {"bufferView": 7, "byteOffset": 0, "componentType": 5123, "count": 24, "type": "SCALAR"}, {"bufferView": 8, "byteOffset": 0, "componentType": 5126, "count": 87, "type": "VEC3", "min": [-2.178955078125, 0.826904296875, -0.926513671875], "max": [1.99609375, 2.24169921875, 0.588623046875]}, {"bufferView": 9, "byteOffset": 0, "componentType": 5126, "count": 87, "type": "VEC2"}, {"bufferView": 10, "byteOffset": 0, "componentType": 5126, "count": 87, "type": "VEC3"}, {"bufferView": 11, "byteOffset": 0, "componentType": 5123, "count": 147, "type": "SCALAR"}, {"bufferView": 12, "byteOffset": 0, "componentType": 5126, "count": 323, "type": "VEC3", "min": [-2.43798828125, 0.551025390625, -0.926513671875], "max": [2.4853515625, 2.629150390625, 2.00634765625]}, {"bufferView": 13, "byteOffset": 0, "componentType": 5126, "count": 323, "type": "VEC2"}, {"bufferView": 14, "byteOffset": 0, "componentType": 5126, "count": 323, "type": "VEC3"}, {"bufferView": 15, "byteOffset": 0, "componentType": 5123, "count": 603, "type": "SCALAR"}, {"bufferView": 16, "byteOffset": 0, "componentType": 5126, "count": 20, "type": "VEC3", "min": [-2.178955078125, 0.826904296875, -0.0927734375], "max": [0.727783203125, 1.58837890625, 0.771728515625]}, {"bufferView": 17, "byteOffset": 0, "componentType": 5126, "count": 20, "type": "VEC2"}, {"bufferView": 18, "byteOffset": 0, "componentType": 5126, "count": 20, "type": "VEC3"}, {"bufferView": 19, "byteOffset": 0, "componentType": 5123, "count": 30, "type": "SCALAR"}, {"bufferView": 20, "byteOffset": 0, "componentType": 5126, "count": 48, "type": "VEC3", "min": [-1.6416015625, 0.8837890625, -0.70361328125], "max": [1.974609375, 2.8974609375, 1.053955078125]}, {"bufferView": 21, "byteOffset": 0, "componentType": 5126, "count": 48, "type": "VEC2"}, {"bufferView": 22, "byteOffset": 0, "componentType": 5126, "count": 48, "type": "VEC3"}, {"bufferView": 23, "byteOffset": 0, "componentType": 5123, "count": 72, "type": "SCALAR"}], "samplers": [{"magFilter": 9729, "minFilter": 9729, "wrapS": 10497, "wrapT": 10497}]}