{"asset": {"version": "2.0", "generator": "tongari-nsbmd-to-gltf"}, "scene": 0, "scenes": [{"nodes": [0, 1]}], "nodes": [{"name": "foot", "translation": [6.800048828125, 0.60009765625, 4.5]}, {"mesh": 0, "name": "uma_foot"}], "meshes": [{"name": "uma_foot", "primitives": [{"attributes": {"POSITION": 0, "TEXCOORD_0": 1, "NORMAL": 2}, "indices": 3, "mode": 4, "material": 0}]}], "materials": [{"name": "r_hair_foot", "pbrMetallicRoughness": {"baseColorFactor": [1.0, 1.0, 1.0, 1.0], "metallicFactor": 0.0, "roughnessFactor": 1.0}, "alphaMode": "OPAQUE", "doubleSided": true}], "buffers": [{"byteLength": 2216, "uri": "data:application/octet-stream;base64,"}], "bufferViews": [{"buffer": 0, "byteOffset": 0, "byteLength": 768}, {"buffer": 0, "byteOffset": 768, "byteLength": 512}, {"buffer": 0, "byteOffset": 1280, "byteLength": 768}, {"buffer": 0, "byteOffset": 2048, "byteLength": 168}], "accessors": [{"bufferView": 0, "byteOffset": 0, "componentType": 5126, "count": 64, "type": "VEC3", "min": [6.800048828125, 0.2001953125, 4.139892578125], "max": [7.199951171875, 0.7001953125, 4.860107421875]}, {"bufferView": 1, "byteOffset": 0, "componentType": 5126, "count": 64, "type": "VEC2"}, {"bufferView": 2, "byteOffset": 0, "componentType": 5126, "count": 64, "type": "VEC3"}, {"bufferView": 3, "byteOffset": 0, "componentType": 5123, "count": 84, "type": "SCALAR"}], "samplers": [{"magFilter": 9729, "minFilter": 9729, "wrapS": 10497, "wrapT": 10497}]}