{"asset": {"version": "2.0", "generator": "tongari-nsbmd-to-gltf"}, "scene": 0, "scenes": [{"nodes": [0, 1]}], "nodes": [{"name": "sbim03_10_c", "translation": [0.0, 0.0, 0.0]}, {"mesh": 0, "name": "1327sbim03_10_c"}], "meshes": [{"name": "1327sbim03_10_c", "primitives": [{"attributes": {"POSITION": 0, "TEXCOORD_0": 1, "NORMAL": 2}, "indices": 3, "mode": 4, "material": 0}]}], "materials": [{"name": "sbim03_10_0", "pbrMetallicRoughness": {"baseColorFactor": [0.803921568627451, 0.803921568627451, 0.803921568627451, 1.0], "metallicFactor": 0.0, "roughnessFactor": 1.0}, "alphaMode": "OPAQUE", "doubleSided": true}], "buffers": [{"byteLength": 3396, "uri": "data:application/octet-stream;base64,"}], "bufferViews": [{"buffer": 0, "byteOffset": 0, "byteLength": 1152}, {"buffer": 0, "byteOffset": 1152, "byteLength": 768}, {"buffer": 0, "byteOffset": 1920, "byteLength": 1152}, {"buffer": 0, "byteOffset": 3072, "byteLength": 324}], "accessors": [{"bufferView": 0, "byteOffset": 0, "componentType": 5126, "count": 96, "type": "VEC3", "min": [-0.990966796875, 0.2978515625, -0.205322265625], "max": [1.025390625, 0.610595703125, 0.203857421875]}, {"bufferView": 1, "byteOffset": 0, "componentType": 5126, "count": 96, "type": "VEC2"}, {"bufferView": 2, "byteOffset": 0, "componentType": 5126, "count": 96, "type": "VEC3"}, {"bufferView": 3, "byteOffset": 0, "componentType": 5123, "count": 162, "type": "SCALAR"}], "samplers": [{"magFilter": 9729, "minFilter": 9729, "wrapS": 10497, "wrapT": 10497}]}