{"asset": {"version": "2.0", "generator": "tongari-nsbmd-to-gltf"}, "scene": 0, "scenes": [{"nodes": [0, 2]}], "nodes": [{"name": "item2759r", "translation": [4.536376953125, 0.5693359375, 10.193359375], "rotation": [0.23581622752444784, -0.024150690752945216, 0.4127130974361069, 0.879487654919755], "children": [1]}, {"name": "body6", "translation": [-0.147216796875, 0.01220703125, 0.2470703125]}, {"mesh": 0, "name": "1369item2759r"}], "meshes": [{"name": "1369item2759r", "primitives": [{"attributes": {"POSITION": 0, "TEXCOORD_0": 1}, "indices": 2, "mode": 4, "material": 0}]}], "materials": [{"name": "nabe_nakami3", "pbrMetallicRoughness": {"baseColorFactor": [1.0, 1.0, 1.0, 1.0], "metallicFactor": 0.0, "roughnessFactor": 1.0}, "alphaMode": "OPAQUE", "doubleSided": true}], "buffers": [{"byteLength": 812, "uri": "data:application/octet-stream;base64,"}], "bufferViews": [{"buffer": 0, "byteOffset": 0, "byteLength": 408}, {"buffer": 0, "byteOffset": 408, "byteLength": 272}, {"buffer": 0, "byteOffset": 680, "byteLength": 132}], "accessors": [{"bufferView": 0, "byteOffset": 0, "componentType": 5126, "count": 34, "type": "VEC3", "min": [4.388971721811686, 0.5004713973903563, 9.855640718727955], "max": [4.62462638807483, 0.8050183945306344, 10.193542405948392]}, {"bufferView": 1, "byteOffset": 0, "componentType": 5126, "count": 34, "type": "VEC2"}, {"bufferView": 2, "byteOffset": 0, "componentType": 5123, "count": 66, "type": "SCALAR"}], "samplers": [{"magFilter": 9729, "minFilter": 9729, "wrapS": 10497, "wrapT": 10497}]}