{"asset": {"version": "2.0", "generator": "tongari-nsbmd-to-gltf"}, "scene": 0, "scenes": [{"nodes": [0, 7]}], "nodes": [{"name": "ev_op_do0_d", "translation": [0.0, 2.16552734375, 10.0087890625], "children": [1, 3, 5]}, {"name": "fc", "translation": [0.0, 0.0, 0.0], "children": [2]}, {"name": "fc0", "translation": [1.0, 0.0, 0.0]}, {"name": "fs", "translation": [0.0, 0.0, 1.0], "children": [4]}, {"name": "fs0", "translation": [1.0, 0.0, 0.0]}, {"name": "se", "translation": [0.0, 0.0, 1.0], "children": [6]}, {"name": "fs2", "translation": [1.0, 0.0, 0.0]}, {"mesh": 0, "name": "ev_op_do0_d"}], "meshes": [{"name": "ev_op_do0_d", "primitives": [{"attributes": {"POSITION": 0, "TEXCOORD_0": 1, "NORMAL": 2}, "indices": 3, "mode": 4, "material": 0}]}], "materials": [{"name": "lambert1", "pbrMetallicRoughness": {"baseColorFactor": [0.3843137254901961, 0.3843137254901961, 0.3843137254901961, 1.0], "metallicFactor": 0.0, "roughnessFactor": 1.0}, "alphaMode": "OPAQUE", "doubleSided": true}], "buffers": [{"byteLength": 2148, "uri": "data:application/octet-stream;base64,"}], "bufferViews": [{"buffer": 0, "byteOffset": 0, "byteLength": 720}, {"buffer": 0, "byteOffset": 720, "byteLength": 480}, {"buffer": 0, "byteOffset": 1200, "byteLength": 720}, {"buffer": 0, "byteOffset": 1920, "byteLength": 228}], "accessors": [{"bufferView": 0, "byteOffset": 0, "componentType": 5126, "count": 60, "type": "VEC3", "min": [-1.0, 1.16552734375, 9.0087890625], "max": [1.0, 3.16552734375, 11.0087890625]}, {"bufferView": 1, "byteOffset": 0, "componentType": 5126, "count": 60, "type": "VEC2"}, {"bufferView": 2, "byteOffset": 0, "componentType": 5126, "count": 60, "type": "VEC3"}, {"bufferView": 3, "byteOffset": 0, "componentType": 5123, "count": 114, "type": "SCALAR"}], "samplers": [{"magFilter": 9729, "minFilter": 9729, "wrapS": 10497, "wrapT": 10497}]}