{"asset": {"version": "2.0", "generator": "tongari-nsbmd-to-gltf"}, "scene": 0, "scenes": [{"nodes": [0, 7]}], "nodes": [{"name": "item568", "translation": [-0.5, 0.0, -0.5], "children": [1]}, {"name": "ucc_pen_r", "translation": [15.39501953125, 0.5283203125, 5.10986328125], "children": [2, 3]}, {"name": "polySurface1", "translation": [0.076416015625, 0.391357421875, -0.007080078125], "rotation": [-0.3067383060472717, 0.05188384258649093, 0.044297357549061035, 0.9493393056160163]}, {"name": "ucc_pen00", "translation": [0.040283203125, 0.192626953125, -0.004638671875], "children": [4, 5, 6]}, {"name": "pCube1", "translation": [-0.0068359375, -0.03515625, 0.00244140625]}, {"name": "pCube2", "translation": [0.0009765625, 0.010009765625, 0.00244140625]}, {"name": "pCube4", "translation": [0.032958984375, 0.193603515625, 0.00244140625]}, {"mesh": 0, "name": "1097item568"}], "meshes": [{"name": "1097item568", "primitives": [{"attributes": {"POSITION": 0, "TEXCOORD_0": 1, "NORMAL": 2}, "indices": 3, "mode": 4, "material": 0}, {"attributes": {"POSITION": 4, "TEXCOORD_0": 5, "NORMAL": 6}, "indices": 7, "mode": 4, "material": 3}, {"attributes": {"POSITION": 8, "TEXCOORD_0": 9, "NORMAL": 10}, "indices": 11, "mode": 4, "material": 2}, {"attributes": {"POSITION": 12, "TEXCOORD_0": 13, "NORMAL": 14}, "indices": 15, "mode": 4, "material": 0}, {"attributes": {"POSITION": 16, "TEXCOORD_0": 17, "NORMAL": 18}, "indices": 19, "mode": 4, "material": 1}, {"attributes": {"POSITION": 20, "TEXCOORD_0": 21, "NORMAL": 22}, "indices": 23, "mode": 4, "material": 4}]}], "materials": [{"name": "ucc_pen0", "pbrMetallicRoughness": {"baseColorFactor": [0.803921568627451, 0.803921568627451, 0.803921568627451, 1.0], "metallicFactor": 0.0, "roughnessFactor": 1.0}, "alphaMode": "OPAQUE", "doubleSided": true}, {"name": "ucc_pen1", "pbrMetallicRoughness": {"baseColorFactor": [0.803921568627451, 0.803921568627451, 0.803921568627451, 1.0], "metallicFactor": 0.0, "roughnessFactor": 1.0}, "alphaMode": "OPAQUE", "doubleSided": true}, {"name": "ucc_pen2", "pbrMetallicRoughness": {"baseColorFactor": [0.803921568627451, 0.803921568627451, 0.803921568627451, 1.0], "metallicFactor": 0.0, "roughnessFactor": 1.0}, "alphaMode": "OPAQUE", "doubleSided": true}, {"name": "ucc_pen3", "pbrMetallicRoughness": {"baseColorFactor": [0.803921568627451, 0.803921568627451, 0.803921568627451, 1.0], "metallicFactor": 0.0, "roughnessFactor": 1.0}, "alphaMode": "OPAQUE", "doubleSided": true}, {"name": "ucc_pen4", "pbrMetallicRoughness": {"baseColorFactor": [0.803921568627451, 0.803921568627451, 0.803921568627451, 1.0], "metallicFactor": 0.0, "roughnessFactor": 1.0}, "alphaMode": "OPAQUE", "doubleSided": true}], "buffers": [{"byteLength": 5024, "uri": "data:application/octet-stream;base64,"}], "bufferViews": [{"buffer": 0, "byteOffset": 0, "byteLength": 624}, {"buffer": 0, "byteOffset": 624, "byteLength": 416}, {"buffer": 0, "byteOffset": 1040, "byteLength": 624}, {"buffer": 0, "byteOffset": 1664, "byteLength": 144}, {"buffer": 0, "byteOffset": 1808, "byteLength": 48}, {"buffer": 0, "byteOffset": 1856, "byteLength": 32}, {"buffer": 0, "byteOffset": 1888, "byteLength": 48}, {"buffer": 0, "byteOffset": 1936, "byteLength": 12}, {"buffer": 0, "byteOffset": 1948, "byteLength": 216}, {"buffer": 0, "byteOffset": 2164, "byteLength": 144}, {"buffer": 0, "byteOffset": 2308, "byteLength": 216}, {"buffer": 0, "byteOffset": 2524, "byteLength": 60}, {"buffer": 0, "byteOffset": 2584, "byteLength": 216}, {"buffer": 0, "byteOffset": 2800, "byteLength": 144}, {"buffer": 0, "byteOffset": 2944, "byteLength": 216}, {"buffer": 0, "byteOffset": 3160, "byteLength": 72}, {"buffer": 0, "byteOffset": 3232, "byteLength": 336}, {"buffer": 0, "byteOffset": 3568, "byteLength": 224}, {"buffer": 0, "byteOffset": 3792, "byteLength": 336}, {"buffer": 0, "byteOffset": 4128, "byteLength": 120}, {"buffer": 0, "byteOffset": 4248, "byteLength": 264}, {"buffer": 0, "byteOffset": 4512, "byteLength": 176}, {"buffer": 0, "byteOffset": 4688, "byteLength": 264}, {"buffer": 0, "byteOffset": 4952, "byteLength": 72}], "accessors": [{"bufferView": 0, "byteOffset": 0, "componentType": 5126, "count": 52, "type": "VEC3", "min": [-0.580078125, -0.03173828125, -0.587646484375], "max": [-0.404052734375, 0.1796875, -0.411865234375]}, {"bufferView": 1, "byteOffset": 0, "componentType": 5126, "count": 52, "type": "VEC2"}, {"bufferView": 2, "byteOffset": 0, "componentType": 5126, "count": 52, "type": "VEC3"}, {"bufferView": 3, "byteOffset": 0, "componentType": 5123, "count": 72, "type": "SCALAR"}, {"bufferView": 4, "byteOffset": 0, "componentType": 5126, "count": 4, "type": "VEC3", "min": [-0.676025390625, 0.613037109375, -0.864501953125], "max": [-0.511962890625, 0.761962890625, -0.69482421875]}, {"bufferView": 5, "byteOffset": 0, "componentType": 5126, "count": 4, "type": "VEC2"}, {"bufferView": 6, "byteOffset": 0, "componentType": 5126, "count": 4, "type": "VEC3"}, {"bufferView": 7, "byteOffset": 0, "componentType": 5123, "count": 6, "type": "SCALAR"}, {"bufferView": 8, "byteOffset": 0, "componentType": 5126, "count": 18, "type": "VEC3", "min": [-0.545654296875, 0.0, -0.808349609375], "max": [-0.40625, 0.669189453125, -0.485595703125]}, {"bufferView": 9, "byteOffset": 0, "componentType": 5126, "count": 18, "type": "VEC2"}, {"bufferView": 10, "byteOffset": 0, "componentType": 5126, "count": 18, "type": "VEC3"}, {"bufferView": 11, "byteOffset": 0, "componentType": 5123, "count": 30, "type": "SCALAR"}, {"bufferView": 12, "byteOffset": 0, "componentType": 5126, "count": 18, "type": "VEC3", "min": [-0.525634765625, -0.090087890625, -0.51123046875], "max": [-0.468505859375, 0.04833984375, -0.482421875]}, {"bufferView": 13, "byteOffset": 0, "componentType": 5126, "count": 18, "type": "VEC2"}, {"bufferView": 14, "byteOffset": 0, "componentType": 5126, "count": 18, "type": "VEC3"}, {"bufferView": 15, "byteOffset": 0, "componentType": 5123, "count": 36, "type": "SCALAR"}, {"bufferView": 16, "byteOffset": 0, "componentType": 5126, "count": 28, "type": "VEC3", "min": [-0.528076171875, -0.0029296875, -0.535888671875], "max": [-0.439453125, 0.2255859375, -0.464111328125]}, {"bufferView": 17, "byteOffset": 0, "componentType": 5126, "count": 28, "type": "VEC2"}, {"bufferView": 18, "byteOffset": 0, "componentType": 5126, "count": 28, "type": "VEC3"}, {"bufferView": 19, "byteOffset": 0, "componentType": 5123, "count": 60, "type": "SCALAR"}, {"bufferView": 20, "byteOffset": 0, "componentType": 5126, "count": 22, "type": "VEC3", "min": [-0.528076171875, -0.0029296875, -0.535888671875], "max": [-0.45751953125, 0.047119140625, -0.464111328125]}, {"bufferView": 21, "byteOffset": 0, "componentType": 5126, "count": 22, "type": "VEC2"}, {"bufferView": 22, "byteOffset": 0, "componentType": 5126, "count": 22, "type": "VEC3"}, {"bufferView": 23, "byteOffset": 0, "componentType": 5123, "count": 36, "type": "SCALAR"}], "samplers": [{"magFilter": 9729, "minFilter": 9729, "wrapS": 10497, "wrapT": 10497}]}