{"asset": {"version": "2.0", "generator": "tongari-nsbmd-to-gltf"}, "scene": 0, "scenes": [{"nodes": [0, 3]}], "nodes": [{"name": "root", "translation": [0.0, 0.0, 0.0], "children": [1, 2]}, {"name": "hour_joint_00", "translation": [0.0, 0.232177734375, -0.008056640625]}, {"name": "long_joint_00", "translation": [0.0, 0.232177734375, -0.017578125]}, {"mesh": 0, "name": "3915kg3_gs17"}], "meshes": [{"name": "3915kg3_gs17", "primitives": [{"attributes": {"POSITION": 0, "TEXCOORD_0": 1, "NORMAL": 2}, "indices": 3, "mode": 4, "material": 0}, {"attributes": {"POSITION": 4, "TEXCOORD_0": 5, "NORMAL": 6}, "indices": 7, "mode": 4, "material": 2}, {"attributes": {"POSITION": 8, "TEXCOORD_0": 9, "NORMAL": 10}, "indices": 11, "mode": 4, "material": 1}]}], "materials": [{"name": "gs17_0", "pbrMetallicRoughness": {"baseColorFactor": [1.0, 1.0, 1.0, 1.0], "metallicFactor": 0.0, "roughnessFactor": 1.0}, "alphaMode": "OPAQUE", "doubleSided": true}, {"name": "gs17_1", "pbrMetallicRoughness": {"baseColorFactor": [1.0, 1.0, 1.0, 1.0], "metallicFactor": 0.0, "roughnessFactor": 1.0}, "alphaMode": "OPAQUE", "doubleSided": true}, {"name": "gs17_2", "pbrMetallicRoughness": {"baseColorFactor": [1.0, 1.0, 1.0, 1.0], "metallicFactor": 0.0, "roughnessFactor": 1.0}, "alphaMode": "OPAQUE", "doubleSided": true}], "buffers": [{"byteLength": 2824, "uri": "data:application/octet-stream;base64,"}], "bufferViews": [{"buffer": 0, "byteOffset": 0, "byteLength": 408}, {"buffer": 0, "byteOffset": 408, "byteLength": 272}, {"buffer": 0, "byteOffset": 680, "byteLength": 408}, {"buffer": 0, "byteOffset": 1088, "byteLength": 108}, {"buffer": 0, "byteOffset": 1196, "byteLength": 504}, {"buffer": 0, "byteOffset": 1700, "byteLength": 336}, {"buffer": 0, "byteOffset": 2036, "byteLength": 504}, {"buffer": 0, "byteOffset": 2540, "byteLength": 144}, {"buffer": 0, "byteOffset": 2684, "byteLength": 48}, {"buffer": 0, "byteOffset": 2732, "byteLength": 32}, {"buffer": 0, "byteOffset": 2764, "byteLength": 48}, {"buffer": 0, "byteOffset": 2812, "byteLength": 12}], "accessors": [{"bufferView": 0, "byteOffset": 0, "componentType": 5126, "count": 34, "type": "VEC3", "min": [-0.367919921875, 0.0, -0.084716796875], "max": [0.367919921875, 0.47216796875, 0.091796875]}, {"bufferView": 1, "byteOffset": 0, "componentType": 5126, "count": 34, "type": "VEC2"}, {"bufferView": 2, "byteOffset": 0, "componentType": 5126, "count": 34, "type": "VEC3"}, {"bufferView": 3, "byteOffset": 0, "componentType": 5123, "count": 54, "type": "SCALAR"}, {"bufferView": 4, "byteOffset": 0, "componentType": 5126, "count": 42, "type": "VEC3", "min": [-0.367919921875, 0.0, -0.084716796875], "max": [0.367919921875, 0.47216796875, 0.03857421875]}, {"bufferView": 5, "byteOffset": 0, "componentType": 5126, "count": 42, "type": "VEC2"}, {"bufferView": 6, "byteOffset": 0, "componentType": 5126, "count": 42, "type": "VEC3"}, {"bufferView": 7, "byteOffset": 0, "componentType": 5123, "count": 72, "type": "SCALAR"}, {"bufferView": 8, "byteOffset": 0, "componentType": 5126, "count": 4, "type": "VEC3", "min": [-0.1494140625, 0.0546875, 0.021240234375], "max": [0.1494140625, 0.417236328125, 0.021240234375]}, {"bufferView": 9, "byteOffset": 0, "componentType": 5126, "count": 4, "type": "VEC2"}, {"bufferView": 10, "byteOffset": 0, "componentType": 5126, "count": 4, "type": "VEC3"}, {"bufferView": 11, "byteOffset": 0, "componentType": 5123, "count": 6, "type": "SCALAR"}], "samplers": [{"magFilter": 9729, "minFilter": 9729, "wrapS": 10497, "wrapT": 10497}]}