{"asset": {"version": "2.0", "generator": "tongari-nsbmd-to-gltf"}, "scene": 0, "scenes": [{"nodes": [0, 1]}], "nodes": [{"name": "kg_tr_mir", "translation": [0.0, 0.0, 0.0]}, {"mesh": 0, "name": "3707kg_tr_mir"}], "meshes": [{"name": "3707kg_tr_mir", "primitives": [{"attributes": {"POSITION": 0, "TEXCOORD_0": 1, "NORMAL": 2}, "indices": 3, "mode": 4, "material": 0}]}], "materials": [{"name": "tr_mir_0", "pbrMetallicRoughness": {"baseColorFactor": [1.0, 1.0, 1.0, 1.0], "metallicFactor": 0.0, "roughnessFactor": 1.0}, "alphaMode": "OPAQUE", "doubleSided": true}], "buffers": [{"byteLength": 3968, "uri": "data:application/octet-stream;base64,"}], "bufferViews": [{"buffer": 0, "byteOffset": 0, "byteLength": 1344}, {"buffer": 0, "byteOffset": 1344, "byteLength": 896}, {"buffer": 0, "byteOffset": 2240, "byteLength": 1344}, {"buffer": 0, "byteOffset": 3584, "byteLength": 384}], "accessors": [{"bufferView": 0, "byteOffset": 0, "componentType": 5126, "count": 112, "type": "VEC3", "min": [-0.449951171875, -0.001220703125, -0.269775390625], "max": [0.449951171875, 0.88671875, 0.336669921875]}, {"bufferView": 1, "byteOffset": 0, "componentType": 5126, "count": 112, "type": "VEC2"}, {"bufferView": 2, "byteOffset": 0, "componentType": 5126, "count": 112, "type": "VEC3"}, {"bufferView": 3, "byteOffset": 0, "componentType": 5123, "count": 192, "type": "SCALAR"}], "samplers": [{"magFilter": 9729, "minFilter": 9729, "wrapS": 10497, "wrapT": 10497}]}