{"asset": {"version": "2.0", "generator": "tongari-nsbmd-to-gltf"}, "scene": 0, "scenes": [{"nodes": [0, 1]}], "nodes": [{"name": "imel01_09", "translation": [0.0, 0.0, 0.0]}, {"mesh": 0, "name": "3492IMEL01_09"}], "meshes": [{"name": "3492IMEL01_09", "primitives": [{"attributes": {"POSITION": 0, "TEXCOORD_0": 1, "NORMAL": 2}, "indices": 3, "mode": 4, "material": 0}]}], "materials": [{"name": "imel01_09_0", "pbrMetallicRoughness": {"baseColorFactor": [1.0, 1.0, 1.0, 1.0], "metallicFactor": 0.0, "roughnessFactor": 1.0}, "alphaMode": "OPAQUE", "doubleSided": true}], "buffers": [{"byteLength": 4094, "uri": "data:application/octet-stream;base64,"}], "bufferViews": [{"buffer": 0, "byteOffset": 0, "byteLength": 1380}, {"buffer": 0, "byteOffset": 1380, "byteLength": 920}, {"buffer": 0, "byteOffset": 2300, "byteLength": 1380}, {"buffer": 0, "byteOffset": 3680, "byteLength": 414}], "accessors": [{"bufferView": 0, "byteOffset": 0, "componentType": 5126, "count": 115, "type": "VEC3", "min": [-0.47509765625, 0.0, -0.47509765625], "max": [0.47509765625, 1.22998046875, 0.46044921875]}, {"bufferView": 1, "byteOffset": 0, "componentType": 5126, "count": 115, "type": "VEC2"}, {"bufferView": 2, "byteOffset": 0, "componentType": 5126, "count": 115, "type": "VEC3"}, {"bufferView": 3, "byteOffset": 0, "componentType": 5123, "count": 207, "type": "SCALAR"}], "samplers": [{"magFilter": 9729, "minFilter": 9729, "wrapS": 10497, "wrapT": 10497}]}