{"asset": {"version": "2.0", "generator": "tongari-nsbmd-to-gltf"}, "scene": 0, "scenes": [{"nodes": [0, 1]}], "nodes": [{"name": "u_grtn00_d", "translation": [0.0, 0.0, 0.0]}, {"mesh": 0, "name": "5575u_grtn00_d"}], "meshes": [{"name": "5575u_grtn00_d", "primitives": [{"attributes": {"POSITION": 0, "TEXCOORD_0": 1, "NORMAL": 2}, "indices": 3, "mode": 4, "material": 0}, {"attributes": {"POSITION": 4, "TEXCOORD_0": 5, "NORMAL": 6}, "indices": 7, "mode": 4, "material": 1}]}], "materials": [{"name": "oven_ucc_corn2", "pbrMetallicRoughness": {"baseColorFactor": [1.0, 1.0, 1.0, 1.0], "metallicFactor": 0.0, "roughnessFactor": 1.0}, "alphaMode": "OPAQUE", "doubleSided": true}, {"name": "ucc_grtn0", "pbrMetallicRoughness": {"baseColorFactor": [0.803921568627451, 0.803921568627451, 0.803921568627451, 1.0], "metallicFactor": 0.0, "roughnessFactor": 1.0}, "alphaMode": "OPAQUE", "doubleSided": true}], "buffers": [{"byteLength": 5112, "uri": "data:application/octet-stream;base64,"}], "bufferViews": [{"buffer": 0, "byteOffset": 0, "byteLength": 1416}, {"buffer": 0, "byteOffset": 1416, "byteLength": 944}, {"buffer": 0, "byteOffset": 2360, "byteLength": 1416}, {"buffer": 0, "byteOffset": 3776, "byteLength": 420}, {"buffer": 0, "byteOffset": 4196, "byteLength": 312}, {"buffer": 0, "byteOffset": 4508, "byteLength": 208}, {"buffer": 0, "byteOffset": 4716, "byteLength": 312}, {"buffer": 0, "byteOffset": 5028, "byteLength": 84}], "accessors": [{"bufferView": 0, "byteOffset": 0, "componentType": 5126, "count": 118, "type": "VEC3", "min": [-0.3662109375, 0.000732421875, -0.28759765625], "max": [0.3662109375, 0.152099609375, 0.28759765625]}, {"bufferView": 1, "byteOffset": 0, "componentType": 5126, "count": 118, "type": "VEC2"}, {"bufferView": 2, "byteOffset": 0, "componentType": 5126, "count": 118, "type": "VEC3"}, {"bufferView": 3, "byteOffset": 0, "componentType": 5123, "count": 210, "type": "SCALAR"}, {"bufferView": 4, "byteOffset": 0, "componentType": 5126, "count": 26, "type": "VEC3", "min": [-0.27197265625, 0.125, -0.254150390625], "max": [0.27197265625, 0.168701171875, 0.254150390625]}, {"bufferView": 5, "byteOffset": 0, "componentType": 5126, "count": 26, "type": "VEC2"}, {"bufferView": 6, "byteOffset": 0, "componentType": 5126, "count": 26, "type": "VEC3"}, {"bufferView": 7, "byteOffset": 0, "componentType": 5123, "count": 42, "type": "SCALAR"}], "samplers": [{"magFilter": 9729, "minFilter": 9729, "wrapS": 10497, "wrapT": 10497}]}