{"asset": {"version": "2.0", "generator": "tongari-nsbmd-to-gltf"}, "scene": 0, "scenes": [{"nodes": [0, 1]}], "nodes": [{"name": "imig09_10", "translation": [0.0, 0.0, 0.0]}, {"mesh": 0, "name": "3321IMIG09_10"}], "meshes": [{"name": "3321IMIG09_10", "primitives": [{"attributes": {"POSITION": 0, "TEXCOORD_0": 1, "NORMAL": 2}, "indices": 3, "mode": 4, "material": 2}, {"attributes": {"POSITION": 4, "TEXCOORD_0": 5, "NORMAL": 6}, "indices": 7, "mode": 4, "material": 1}, {"attributes": {"POSITION": 8, "TEXCOORD_0": 9, "NORMAL": 10}, "indices": 11, "mode": 4, "material": 0}]}], "materials": [{"name": "imig09_10_0", "pbrMetallicRoughness": {"baseColorFactor": [1.0, 1.0, 1.0, 1.0], "metallicFactor": 0.0, "roughnessFactor": 1.0}, "alphaMode": "OPAQUE", "doubleSided": true}, {"name": "imig09_10_1", "pbrMetallicRoughness": {"baseColorFactor": [1.0, 1.0, 1.0, 1.0], "metallicFactor": 0.0, "roughnessFactor": 1.0}, "alphaMode": "OPAQUE", "doubleSided": true}, {"name": "imig09_10_2", "pbrMetallicRoughness": {"baseColorFactor": [1.0, 1.0, 1.0, 1.0], "metallicFactor": 0.0, "roughnessFactor": 1.0}, "alphaMode": "OPAQUE", "doubleSided": true}], "buffers": [{"byteLength": 4388, "uri": "data:application/octet-stream;base64,"}], "bufferViews": [{"buffer": 0, "byteOffset": 0, "byteLength": 552}, {"buffer": 0, "byteOffset": 552, "byteLength": 368}, {"buffer": 0, "byteOffset": 920, "byteLength": 552}, {"buffer": 0, "byteOffset": 1472, "byteLength": 144}, {"buffer": 0, "byteOffset": 1616, "byteLength": 624}, {"buffer": 0, "byteOffset": 2240, "byteLength": 416}, {"buffer": 0, "byteOffset": 2656, "byteLength": 624}, {"buffer": 0, "byteOffset": 3280, "byteLength": 216}, {"buffer": 0, "byteOffset": 3496, "byteLength": 312}, {"buffer": 0, "byteOffset": 3808, "byteLength": 208}, {"buffer": 0, "byteOffset": 4016, "byteLength": 312}, {"buffer": 0, "byteOffset": 4328, "byteLength": 60}], "accessors": [{"bufferView": 0, "byteOffset": 0, "componentType": 5126, "count": 46, "type": "VEC3", "min": [-0.425048828125, -0.000244140625, -0.380126953125], "max": [0.425048828125, 0.757568359375, 0.361572265625]}, {"bufferView": 1, "byteOffset": 0, "componentType": 5126, "count": 46, "type": "VEC2"}, {"bufferView": 2, "byteOffset": 0, "componentType": 5126, "count": 46, "type": "VEC3"}, {"bufferView": 3, "byteOffset": 0, "componentType": 5123, "count": 72, "type": "SCALAR"}, {"bufferView": 4, "byteOffset": 0, "componentType": 5126, "count": 52, "type": "VEC3", "min": [-0.30078125, 0.0, -0.25927734375], "max": [0.30078125, 0.388427734375, 0.361572265625]}, {"bufferView": 5, "byteOffset": 0, "componentType": 5126, "count": 52, "type": "VEC2"}, {"bufferView": 6, "byteOffset": 0, "componentType": 5126, "count": 52, "type": "VEC3"}, {"bufferView": 7, "byteOffset": 0, "componentType": 5123, "count": 108, "type": "SCALAR"}, {"bufferView": 8, "byteOffset": 0, "componentType": 5126, "count": 26, "type": "VEC3", "min": [-0.43505859375, 0.12451171875, -0.271728515625], "max": [0.43505859375, 0.654052734375, -0.1103515625]}, {"bufferView": 9, "byteOffset": 0, "componentType": 5126, "count": 26, "type": "VEC2"}, {"bufferView": 10, "byteOffset": 0, "componentType": 5126, "count": 26, "type": "VEC3"}, {"bufferView": 11, "byteOffset": 0, "componentType": 5123, "count": 30, "type": "SCALAR"}], "samplers": [{"magFilter": 9729, "minFilter": 9729, "wrapS": 10497, "wrapT": 10497}]}