{"asset": {"version": "2.0", "generator": "tongari-nsbmd-to-gltf"}, "scene": 0, "scenes": [{"nodes": [0, 7]}], "nodes": [{"name": "world_root", "translation": [0.0, 0.0, 0.0], "children": [1, 2, 3, 4, 5]}, {"name": "cray1", "translation": [0.0, -0.0654296875, 0.298095703125]}, {"name": "cray2", "translation": [0.0, 0.0, 0.298095703125]}, {"name": "cray3", "translation": [0.0, 0.07080078125, 0.298095703125]}, {"name": "scop_0", "translation": [0.0, 0.0, -0.068359375]}, {"name": "scop_1", "translation": [0.0, 0.0, 0.0], "rotation": [0.0, 0.0, 0.7071067811865476, 0.0], "children": [6]}, {"name": "scop_2", "translation": [0.118408203125, 0.0, 0.0], "rotation": [0.0, 0.0, 0.7071067811865476, 0.0]}, {"mesh": 0, "name": "01_01_stick"}], "meshes": [{"name": "01_01_stick", "primitives": [{"attributes": {"POSITION": 0, "TEXCOORD_0": 1, "NORMAL": 2}, "indices": 3, "mode": 4, "material": 0}, {"attributes": {"POSITION": 4, "TEXCOORD_0": 5, "NORMAL": 6}, "indices": 7, "mode": 4, "material": 1}, {"attributes": {"POSITION": 8, "TEXCOORD_0": 9, "NORMAL": 10}, "indices": 11, "mode": 4, "material": 0}, {"attributes": {"POSITION": 12, "TEXCOORD_0": 13, "NORMAL": 14}, "indices": 15, "mode": 4, "material": 0}, {"attributes": {"POSITION": 16, "TEXCOORD_0": 17, "NORMAL": 18}, "indices": 19, "mode": 4, "material": 0}]}], "materials": [{"name": "equip00", "pbrMetallicRoughness": {"baseColorFactor": [1.0, 1.0, 1.0, 1.0], "metallicFactor": 0.0, "roughnessFactor": 1.0}, "alphaMode": "OPAQUE", "doubleSided": true}, {"name": "sbim02_01_0", "pbrMetallicRoughness": {"baseColorFactor": [1.0, 1.0, 1.0, 1.0], "metallicFactor": 0.0, "roughnessFactor": 1.0}, "alphaMode": "OPAQUE", "doubleSided": true}], "buffers": [{"byteLength": 6572, "uri": "data:application/octet-stream;base64,"}], "bufferViews": [{"buffer": 0, "byteOffset": 0, "byteLength": 852}, {"buffer": 0, "byteOffset": 852, "byteLength": 568}, {"buffer": 0, "byteOffset": 1420, "byteLength": 852}, {"buffer": 0, "byteOffset": 2272, "byteLength": 270}, {"buffer": 0, "byteOffset": 2544, "byteLength": 1128}, {"buffer": 0, "byteOffset": 3672, "byteLength": 752}, {"buffer": 0, "byteOffset": 4424, "byteLength": 1128}, {"buffer": 0, "byteOffset": 5552, "byteLength": 372}, {"buffer": 0, "byteOffset": 5924, "byteLength": 72}, {"buffer": 0, "byteOffset": 5996, "byteLength": 48}, {"buffer": 0, "byteOffset": 6044, "byteLength": 72}, {"buffer": 0, "byteOffset": 6116, "byteLength": 24}, {"buffer": 0, "byteOffset": 6140, "byteLength": 72}, {"buffer": 0, "byteOffset": 6212, "byteLength": 48}, {"buffer": 0, "byteOffset": 6260, "byteLength": 72}, {"buffer": 0, "byteOffset": 6332, "byteLength": 24}, {"buffer": 0, "byteOffset": 6356, "byteLength": 72}, {"buffer": 0, "byteOffset": 6428, "byteLength": 48}, {"buffer": 0, "byteOffset": 6476, "byteLength": 72}, {"buffer": 0, "byteOffset": 6548, "byteLength": 24}], "accessors": [{"bufferView": 0, "byteOffset": 0, "componentType": 5126, "count": 71, "type": "VEC3", "min": [-0.05126953125, -0.1103515625, 0.0], "max": [0.014404296875, 0.1103515625, 0.489013671875]}, {"bufferView": 1, "byteOffset": 0, "componentType": 5126, "count": 71, "type": "VEC2"}, {"bufferView": 2, "byteOffset": 0, "componentType": 5126, "count": 71, "type": "VEC3"}, {"bufferView": 3, "byteOffset": 0, "componentType": 5123, "count": 135, "type": "SCALAR"}, {"bufferView": 4, "byteOffset": 0, "componentType": 5126, "count": 94, "type": "VEC3", "min": [-0.259521484375, -0.235595703125, 0.0], "max": [0.138916015625, 0.10205078125, 1.245361328125]}, {"bufferView": 5, "byteOffset": 0, "componentType": 5126, "count": 94, "type": "VEC2"}, {"bufferView": 6, "byteOffset": 0, "componentType": 5126, "count": 94, "type": "VEC3"}, {"bufferView": 7, "byteOffset": 0, "componentType": 5123, "count": 186, "type": "SCALAR"}, {"bufferView": 8, "byteOffset": 0, "componentType": 5126, "count": 6, "type": "VEC3", "min": [-0.042724609375, -0.042724609375, -0.042724609375], "max": [0.042724609375, 0.0, 0.0]}, {"bufferView": 9, "byteOffset": 0, "componentType": 5126, "count": 6, "type": "VEC2"}, {"bufferView": 10, "byteOffset": 0, "componentType": 5126, "count": 6, "type": "VEC3"}, {"bufferView": 11, "byteOffset": 0, "componentType": 5123, "count": 12, "type": "SCALAR"}, {"bufferView": 12, "byteOffset": 0, "componentType": 5126, "count": 6, "type": "VEC3", "min": [-0.042724609375, -0.042724609375, -0.042724609375], "max": [0.042724609375, 0.0, 0.0]}, {"bufferView": 13, "byteOffset": 0, "componentType": 5126, "count": 6, "type": "VEC2"}, {"bufferView": 14, "byteOffset": 0, "componentType": 5126, "count": 6, "type": "VEC3"}, {"bufferView": 15, "byteOffset": 0, "componentType": 5123, "count": 12, "type": "SCALAR"}, {"bufferView": 16, "byteOffset": 0, "componentType": 5126, "count": 6, "type": "VEC3", "min": [-0.042724609375, -0.042724609375, -0.042724609375], "max": [0.042724609375, 0.0, 0.0]}, {"bufferView": 17, "byteOffset": 0, "componentType": 5126, "count": 6, "type": "VEC2"}, {"bufferView": 18, "byteOffset": 0, "componentType": 5126, "count": 6, "type": "VEC3"}, {"bufferView": 19, "byteOffset": 0, "componentType": 5123, "count": 12, "type": "SCALAR"}], "samplers": [{"magFilter": 9729, "minFilter": 9729, "wrapS": 10497, "wrapT": 10497}]}