{"asset": {"version": "2.0", "generator": "tongari-nsbmd-to-gltf"}, "scene": 0, "scenes": [{"nodes": [0, 1]}], "nodes": [{"name": "imrl09_01", "translation": [0.0, 0.0, 0.0]}, {"mesh": 0, "name": "3112IMRL09_01"}], "meshes": [{"name": "3112IMRL09_01", "primitives": [{"attributes": {"POSITION": 0, "TEXCOORD_0": 1, "NORMAL": 2}, "indices": 3, "mode": 4, "material": 2}, {"attributes": {"POSITION": 4, "TEXCOORD_0": 5, "NORMAL": 6}, "indices": 7, "mode": 4, "material": 1}, {"attributes": {"POSITION": 8, "TEXCOORD_0": 9, "NORMAL": 10}, "indices": 11, "mode": 4, "material": 0}]}], "materials": [{"name": "imrl09_01_0", "pbrMetallicRoughness": {"baseColorFactor": [1.0, 1.0, 1.0, 1.0], "metallicFactor": 0.0, "roughnessFactor": 1.0}, "alphaMode": "OPAQUE", "doubleSided": true}, {"name": "imrl09_01_1", "pbrMetallicRoughness": {"baseColorFactor": [1.0, 1.0, 1.0, 1.0], "metallicFactor": 0.0, "roughnessFactor": 1.0}, "alphaMode": "OPAQUE", "doubleSided": true}, {"name": "imrl09_01_2", "pbrMetallicRoughness": {"baseColorFactor": [1.0, 1.0, 1.0, 1.0], "metallicFactor": 0.0, "roughnessFactor": 1.0}, "alphaMode": "OPAQUE", "doubleSided": true}], "buffers": [{"byteLength": 4232, "uri": "data:application/octet-stream;base64,"}], "bufferViews": [{"buffer": 0, "byteOffset": 0, "byteLength": 912}, {"buffer": 0, "byteOffset": 912, "byteLength": 608}, {"buffer": 0, "byteOffset": 1520, "byteLength": 912}, {"buffer": 0, "byteOffset": 2432, "byteLength": 264}, {"buffer": 0, "byteOffset": 2696, "byteLength": 384}, {"buffer": 0, "byteOffset": 3080, "byteLength": 256}, {"buffer": 0, "byteOffset": 3336, "byteLength": 384}, {"buffer": 0, "byteOffset": 3720, "byteLength": 144}, {"buffer": 0, "byteOffset": 3864, "byteLength": 120}, {"buffer": 0, "byteOffset": 3984, "byteLength": 80}, {"buffer": 0, "byteOffset": 4064, "byteLength": 120}, {"buffer": 0, "byteOffset": 4184, "byteLength": 48}], "accessors": [{"bufferView": 0, "byteOffset": 0, "componentType": 5126, "count": 76, "type": "VEC3", "min": [-0.430419921875, 0.0, -0.35888671875], "max": [0.430419921875, 0.695556640625, 0.35888671875]}, {"bufferView": 1, "byteOffset": 0, "componentType": 5126, "count": 76, "type": "VEC2"}, {"bufferView": 2, "byteOffset": 0, "componentType": 5126, "count": 76, "type": "VEC3"}, {"bufferView": 3, "byteOffset": 0, "componentType": 5123, "count": 132, "type": "SCALAR"}, {"bufferView": 4, "byteOffset": 0, "componentType": 5126, "count": 32, "type": "VEC3", "min": [-0.47509765625, 0.513427734375, -0.4033203125], "max": [0.47509765625, 0.75, 0.4033203125]}, {"bufferView": 5, "byteOffset": 0, "componentType": 5126, "count": 32, "type": "VEC2"}, {"bufferView": 6, "byteOffset": 0, "componentType": 5126, "count": 32, "type": "VEC3"}, {"bufferView": 7, "byteOffset": 0, "componentType": 5123, "count": 72, "type": "SCALAR"}, {"bufferView": 8, "byteOffset": 0, "componentType": 5126, "count": 10, "type": "VEC3", "min": [-0.47509765625, 0.513427734375, -0.269287109375], "max": [0.47509765625, 0.75, 0.26611328125]}, {"bufferView": 9, "byteOffset": 0, "componentType": 5126, "count": 10, "type": "VEC2"}, {"bufferView": 10, "byteOffset": 0, "componentType": 5126, "count": 10, "type": "VEC3"}, {"bufferView": 11, "byteOffset": 0, "componentType": 5123, "count": 24, "type": "SCALAR"}], "samplers": [{"magFilter": 9729, "minFilter": 9729, "wrapS": 10497, "wrapT": 10497}]}