{"asset": {"version": "2.0", "generator": "tongari-nsbmd-to-gltf"}, "scene": 0, "scenes": [{"nodes": [0, 2]}], "nodes": [{"name": "bone0", "translation": [0.0, 0.0, 0.0], "children": [1]}, {"name": "bone1", "translation": [-0.408447265625, 1.045654296875, 0.4140625], "rotation": [0.5, -0.5, 0.5, -0.5]}, {"mesh": 0, "name": "3870kg3_shp01"}], "meshes": [{"name": "3870kg3_shp01", "primitives": [{"attributes": {"POSITION": 0, "TEXCOORD_0": 1, "NORMAL": 2}, "indices": 3, "mode": 4, "material": 1}, {"attributes": {"POSITION": 4, "TEXCOORD_0": 5, "NORMAL": 6}, "indices": 7, "mode": 4, "material": 0}, {"attributes": {"POSITION": 8, "TEXCOORD_0": 9, "NORMAL": 10}, "indices": 11, "mode": 4, "material": 2}]}], "materials": [{"name": "shp01_0", "pbrMetallicRoughness": {"baseColorFactor": [1.0, 1.0, 1.0, 1.0], "metallicFactor": 0.0, "roughnessFactor": 1.0}, "alphaMode": "OPAQUE", "doubleSided": true}, {"name": "shp01_1", "pbrMetallicRoughness": {"baseColorFactor": [1.0, 1.0, 1.0, 1.0], "metallicFactor": 0.0, "roughnessFactor": 1.0}, "alphaMode": "OPAQUE", "doubleSided": true}, {"name": "shp01_2", "pbrMetallicRoughness": {"baseColorFactor": [1.0, 1.0, 1.0, 1.0], "metallicFactor": 0.0, "roughnessFactor": 1.0}, "alphaMode": "OPAQUE", "doubleSided": true}], "buffers": [{"byteLength": 4492, "uri": "data:application/octet-stream;base64,"}], "bufferViews": [{"buffer": 0, "byteOffset": 0, "byteLength": 1008}, {"buffer": 0, "byteOffset": 1008, "byteLength": 672}, {"buffer": 0, "byteOffset": 1680, "byteLength": 1008}, {"buffer": 0, "byteOffset": 2688, "byteLength": 264}, {"buffer": 0, "byteOffset": 2952, "byteLength": 48}, {"buffer": 0, "byteOffset": 3000, "byteLength": 32}, {"buffer": 0, "byteOffset": 3032, "byteLength": 48}, {"buffer": 0, "byteOffset": 3080, "byteLength": 12}, {"buffer": 0, "byteOffset": 3092, "byteLength": 480}, {"buffer": 0, "byteOffset": 3572, "byteLength": 320}, {"buffer": 0, "byteOffset": 3892, "byteLength": 480}, {"buffer": 0, "byteOffset": 4372, "byteLength": 120}], "accessors": [{"bufferView": 0, "byteOffset": 0, "componentType": 5126, "count": 84, "type": "VEC3", "min": [-0.43701171875, 0.103271484375, -0.43701171875], "max": [0.43701171875, 2.689697265625, 0.43701171875]}, {"bufferView": 1, "byteOffset": 0, "componentType": 5126, "count": 84, "type": "VEC2"}, {"bufferView": 2, "byteOffset": 0, "componentType": 5126, "count": 84, "type": "VEC3"}, {"bufferView": 3, "byteOffset": 0, "componentType": 5123, "count": 132, "type": "SCALAR"}, {"bufferView": 4, "byteOffset": 0, "componentType": 5126, "count": 4, "type": "VEC3", "min": [-0.384033203125, 0.208740234375, 0.0244140625], "max": [0.38671875, 1.77783203125, 1.146240234375]}, {"bufferView": 5, "byteOffset": 0, "componentType": 5126, "count": 4, "type": "VEC2"}, {"bufferView": 6, "byteOffset": 0, "componentType": 5126, "count": 4, "type": "VEC3"}, {"bufferView": 7, "byteOffset": 0, "componentType": 5123, "count": 6, "type": "SCALAR"}, {"bufferView": 8, "byteOffset": 0, "componentType": 5126, "count": 40, "type": "VEC3", "min": [-0.400146484375, 0.000244140625, -0.3701171875], "max": [0.400146484375, 1.65576171875, 0.345947265625]}, {"bufferView": 9, "byteOffset": 0, "componentType": 5126, "count": 40, "type": "VEC2"}, {"bufferView": 10, "byteOffset": 0, "componentType": 5126, "count": 40, "type": "VEC3"}, {"bufferView": 11, "byteOffset": 0, "componentType": 5123, "count": 60, "type": "SCALAR"}], "samplers": [{"magFilter": 9729, "minFilter": 9729, "wrapS": 10497, "wrapT": 10497}]}