{"asset": {"version": "2.0", "generator": "tongari-nsbmd-to-gltf"}, "scene": 0, "scenes": [{"nodes": [0, 1]}], "nodes": [{"name": "kg_case_14", "translation": [0.0, 0.0, 0.0]}, {"mesh": 0, "name": "3647kg_case_14"}], "meshes": [{"name": "3647kg_case_14", "primitives": [{"attributes": {"POSITION": 0, "TEXCOORD_0": 1, "NORMAL": 2}, "indices": 3, "mode": 4, "material": 0}, {"attributes": {"POSITION": 4, "TEXCOORD_0": 5, "NORMAL": 6}, "indices": 7, "mode": 4, "material": 1}]}], "materials": [{"name": "case_14_0", "pbrMetallicRoughness": {"baseColorFactor": [1.0, 1.0, 1.0, 1.0], "metallicFactor": 0.0, "roughnessFactor": 1.0}, "alphaMode": "OPAQUE", "doubleSided": true}, {"name": "case_14_1", "pbrMetallicRoughness": {"baseColorFactor": [1.0, 1.0, 1.0, 1.0], "metallicFactor": 0.0, "roughnessFactor": 1.0}, "alphaMode": "OPAQUE", "doubleSided": true}], "buffers": [{"byteLength": 3828, "uri": "data:application/octet-stream;base64,"}], "bufferViews": [{"buffer": 0, "byteOffset": 0, "byteLength": 1176}, {"buffer": 0, "byteOffset": 1176, "byteLength": 784}, {"buffer": 0, "byteOffset": 1960, "byteLength": 1176}, {"buffer": 0, "byteOffset": 3136, "byteLength": 324}, {"buffer": 0, "byteOffset": 3460, "byteLength": 120}, {"buffer": 0, "byteOffset": 3580, "byteLength": 80}, {"buffer": 0, "byteOffset": 3660, "byteLength": 120}, {"buffer": 0, "byteOffset": 3780, "byteLength": 48}], "accessors": [{"bufferView": 0, "byteOffset": 0, "componentType": 5126, "count": 98, "type": "VEC3", "min": [-1.0, 0.0, -0.5], "max": [1.0, 0.43994140625, 0.5]}, {"bufferView": 1, "byteOffset": 0, "componentType": 5126, "count": 98, "type": "VEC2"}, {"bufferView": 2, "byteOffset": 0, "componentType": 5126, "count": 98, "type": "VEC3"}, {"bufferView": 3, "byteOffset": 0, "componentType": 5123, "count": 162, "type": "SCALAR"}, {"bufferView": 4, "byteOffset": 0, "componentType": 5126, "count": 10, "type": "VEC3", "min": [-0.865478515625, 0.085693359375, 0.431640625], "max": [0.865478515625, 0.335205078125, 0.449951171875]}, {"bufferView": 5, "byteOffset": 0, "componentType": 5126, "count": 10, "type": "VEC2"}, {"bufferView": 6, "byteOffset": 0, "componentType": 5126, "count": 10, "type": "VEC3"}, {"bufferView": 7, "byteOffset": 0, "componentType": 5123, "count": 24, "type": "SCALAR"}], "samplers": [{"magFilter": 9729, "minFilter": 9729, "wrapS": 10497, "wrapT": 10497}]}