{"asset": {"version": "2.0", "generator": "tongari-nsbmd-to-gltf"}, "scene": 0, "scenes": [{"nodes": [0, 1]}], "nodes": [{"name": "sh_m04_c03", "translation": [0.0, 0.0, 0.0]}, {"mesh": 0, "name": "sh_m04_c03"}], "meshes": [{"name": "sh_m04_c03", "primitives": [{"attributes": {"POSITION": 0, "TEXCOORD_0": 1, "NORMAL": 2}, "indices": 3, "mode": 4, "material": 3}, {"attributes": {"POSITION": 4, "TEXCOORD_0": 5, "NORMAL": 6}, "indices": 7, "mode": 4, "material": 0}, {"attributes": {"POSITION": 8, "TEXCOORD_0": 9, "NORMAL": 10}, "indices": 11, "mode": 4, "material": 2}, {"attributes": {"POSITION": 12, "TEXCOORD_0": 13, "NORMAL": 14}, "indices": 15, "mode": 4, "material": 1}]}], "materials": [{"name": "sh_t04c_0", "pbrMetallicRoughness": {"baseColorFactor": [0.803921568627451, 0.803921568627451, 0.803921568627451, 1.0], "metallicFactor": 0.0, "roughnessFactor": 1.0}, "alphaMode": "OPAQUE", "doubleSided": true}, {"name": "sh_t04c_1", "pbrMetallicRoughness": {"baseColorFactor": [0.803921568627451, 0.803921568627451, 0.803921568627451, 1.0], "metallicFactor": 0.0, "roughnessFactor": 1.0}, "alphaMode": "OPAQUE", "doubleSided": true}, {"name": "sh_t04c_2", "pbrMetallicRoughness": {"baseColorFactor": [0.803921568627451, 0.803921568627451, 0.803921568627451, 1.0], "metallicFactor": 0.0, "roughnessFactor": 1.0}, "alphaMode": "OPAQUE", "doubleSided": true}, {"name": "sh_t04c_3", "pbrMetallicRoughness": {"baseColorFactor": [0.803921568627451, 0.803921568627451, 0.803921568627451, 1.0], "metallicFactor": 0.0, "roughnessFactor": 1.0}, "alphaMode": "OPAQUE", "doubleSided": true}], "buffers": [{"byteLength": 4760, "uri": "data:application/octet-stream;base64,"}], "bufferViews": [{"buffer": 0, "byteOffset": 0, "byteLength": 432}, {"buffer": 0, "byteOffset": 432, "byteLength": 288}, {"buffer": 0, "byteOffset": 720, "byteLength": 432}, {"buffer": 0, "byteOffset": 1152, "byteLength": 108}, {"buffer": 0, "byteOffset": 1260, "byteLength": 336}, {"buffer": 0, "byteOffset": 1596, "byteLength": 224}, {"buffer": 0, "byteOffset": 1820, "byteLength": 336}, {"buffer": 0, "byteOffset": 2156, "byteLength": 84}, {"buffer": 0, "byteOffset": 2240, "byteLength": 720}, {"buffer": 0, "byteOffset": 2960, "byteLength": 480}, {"buffer": 0, "byteOffset": 3440, "byteLength": 720}, {"buffer": 0, "byteOffset": 4160, "byteLength": 180}, {"buffer": 0, "byteOffset": 4340, "byteLength": 144}, {"buffer": 0, "byteOffset": 4484, "byteLength": 96}, {"buffer": 0, "byteOffset": 4580, "byteLength": 144}, {"buffer": 0, "byteOffset": 4724, "byteLength": 36}], "accessors": [{"bufferView": 0, "byteOffset": 0, "componentType": 5126, "count": 36, "type": "VEC3", "min": [3.628173828125, 0.071044921875, 0.560791015625], "max": [3.87548828125, 0.3701171875, 2.839111328125]}, {"bufferView": 1, "byteOffset": 0, "componentType": 5126, "count": 36, "type": "VEC2"}, {"bufferView": 2, "byteOffset": 0, "componentType": 5126, "count": 36, "type": "VEC3"}, {"bufferView": 3, "byteOffset": 0, "componentType": 5123, "count": 54, "type": "SCALAR"}, {"bufferView": 4, "byteOffset": 0, "componentType": 5126, "count": 28, "type": "VEC3", "min": [3.550048828125, 0.271728515625, 0.39990234375], "max": [4.0, 0.351318359375, 3.0]}, {"bufferView": 5, "byteOffset": 0, "componentType": 5126, "count": 28, "type": "VEC2"}, {"bufferView": 6, "byteOffset": 0, "componentType": 5126, "count": 28, "type": "VEC3"}, {"bufferView": 7, "byteOffset": 0, "componentType": 5123, "count": 42, "type": "SCALAR"}, {"bufferView": 8, "byteOffset": 0, "componentType": 5126, "count": 60, "type": "VEC3", "min": [3.641357421875, 0.0, 0.426025390625], "max": [3.91015625, 0.271728515625, 2.973876953125]}, {"bufferView": 9, "byteOffset": 0, "componentType": 5126, "count": 60, "type": "VEC2"}, {"bufferView": 10, "byteOffset": 0, "componentType": 5126, "count": 60, "type": "VEC3"}, {"bufferView": 11, "byteOffset": 0, "componentType": 5123, "count": 90, "type": "SCALAR"}, {"bufferView": 12, "byteOffset": 0, "componentType": 5126, "count": 12, "type": "VEC3", "min": [3.550048828125, 0.351318359375, 0.39990234375], "max": [4.0, 0.351318359375, 3.0]}, {"bufferView": 13, "byteOffset": 0, "componentType": 5126, "count": 12, "type": "VEC2"}, {"bufferView": 14, "byteOffset": 0, "componentType": 5126, "count": 12, "type": "VEC3"}, {"bufferView": 15, "byteOffset": 0, "componentType": 5123, "count": 18, "type": "SCALAR"}], "samplers": [{"magFilter": 9729, "minFilter": 9729, "wrapS": 10497, "wrapT": 10497}]}