{"asset": {"version": "2.0", "generator": "tongari-nsbmd-to-gltf"}, "scene": 0, "scenes": [{"nodes": [0, 2]}], "nodes": [{"name": "musi52_e", "translation": [0.0, 0.0, 0.0], "children": [1]}, {"name": "musi52", "translation": [0.050048828125, 0.0, 0.0]}, {"mesh": 0, "name": "5042musi52_e"}], "meshes": [{"name": "5042musi52_e", "primitives": [{"attributes": {"POSITION": 0, "TEXCOORD_0": 1, "NORMAL": 2}, "indices": 3, "mode": 4, "material": 0}]}], "materials": [{"name": "musi70", "pbrMetallicRoughness": {"baseColorFactor": [1.0, 1.0, 1.0, 1.0], "metallicFactor": 0.0, "roughnessFactor": 1.0}, "alphaMode": "OPAQUE", "doubleSided": true}], "buffers": [{"byteLength": 216, "uri": "data:application/octet-stream;base64,"}], "bufferViews": [{"buffer": 0, "byteOffset": 0, "byteLength": 72}, {"buffer": 0, "byteOffset": 72, "byteLength": 48}, {"buffer": 0, "byteOffset": 120, "byteLength": 72}, {"buffer": 0, "byteOffset": 192, "byteLength": 24}], "accessors": [{"bufferView": 0, "byteOffset": 0, "componentType": 5126, "count": 6, "type": "VEC3", "min": [-0.135498046875, -0.11181640625, 0.0], "max": [0.135498046875, 0.11181640625, 0.0]}, {"bufferView": 1, "byteOffset": 0, "componentType": 5126, "count": 6, "type": "VEC2"}, {"bufferView": 2, "byteOffset": 0, "componentType": 5126, "count": 6, "type": "VEC3"}, {"bufferView": 3, "byteOffset": 0, "componentType": 5123, "count": 12, "type": "SCALAR"}], "samplers": [{"magFilter": 9729, "minFilter": 9729, "wrapS": 10497, "wrapT": 10497}]}