{"asset": {"version": "2.0", "generator": "tongari-nsbmd-to-gltf"}, "scene": 0, "scenes": [{"nodes": [0, 1]}], "nodes": [{"name": "polySurface170", "translation": [0.0, 0.0, 0.0]}, {"mesh": 0, "name": "kb_ma_kitchen"}], "meshes": [{"name": "kb_ma_kitchen", "primitives": [{"attributes": {"POSITION": 0, "TEXCOORD_0": 1, "NORMAL": 2}, "indices": 3, "mode": 4, "material": 24}, {"attributes": {"POSITION": 4, "TEXCOORD_0": 5}, "indices": 6, "mode": 4, "material": 3}, {"attributes": {"POSITION": 7, "TEXCOORD_0": 8, "NORMAL": 9}, "indices": 10, "mode": 4, "material": 5}, {"attributes": {"POSITION": 11, "TEXCOORD_0": 12, "NORMAL": 13}, "indices": 14, "mode": 4, "material": 29}, {"attributes": {"POSITION": 15, "TEXCOORD_0": 16, "NORMAL": 17}, "indices": 18, "mode": 4, "material": 36}, {"attributes": {"POSITION": 19, "TEXCOORD_0": 20, "NORMAL": 21}, "indices": 22, "mode": 4, "material": 35}, {"attributes": {"POSITION": 23, "TEXCOORD_0": 24, "NORMAL": 25}, "indices": 26, "mode": 4, "material": 33}, {"attributes": {"POSITION": 27, "TEXCOORD_0": 28, "NORMAL": 29}, "indices": 30, "mode": 4, "material": 23}, {"attributes": {"POSITION": 31, "TEXCOORD_0": 32, "NORMAL": 33}, "indices": 34, "mode": 4, "material": 26}, {"attributes": {"POSITION": 35, "TEXCOORD_0": 36, "NORMAL": 37}, "indices": 38, "mode": 4, "material": 28}, {"attributes": {"POSITION": 39, "TEXCOORD_0": 40, "NORMAL": 41}, "indices": 42, "mode": 4, "material": 8}, {"attributes": {"POSITION": 43, "TEXCOORD_0": 44, "NORMAL": 45}, "indices": 46, "mode": 4, "material": 2}, {"attributes": {"POSITION": 47, "TEXCOORD_0": 48, "NORMAL": 49}, "indices": 50, "mode": 4, "material": 34}, {"attributes": {"POSITION": 51, "TEXCOORD_0": 52, "NORMAL": 53}, "indices": 54, "mode": 4, "material": 6}, {"attributes": {"POSITION": 55, "TEXCOORD_0": 56, "NORMAL": 57}, "indices": 58, "mode": 4, "material": 27}, {"attributes": {"POSITION": 59, "TEXCOORD_0": 60, "NORMAL": 61}, "indices": 62, "mode": 4, "material": 4}, {"attributes": {"POSITION": 63, "TEXCOORD_0": 64, "NORMAL": 65}, "indices": 66, "mode": 4, "material": 9}, {"attributes": {"POSITION": 67, "TEXCOORD_0": 68, "NORMAL": 69}, "indices": 70, "mode": 4, "material": 25}, {"attributes": {"POSITION": 71, "TEXCOORD_0": 72, "NORMAL": 73}, "indices": 74, "mode": 4, "material": 11}, {"attributes": {"POSITION": 75, "TEXCOORD_0": 76, "NORMAL": 77}, "indices": 78, "mode": 4, "material": 22}, {"attributes": {"POSITION": 79, "TEXCOORD_0": 80, "NORMAL": 81}, "indices": 82, "mode": 4, "material": 10}, {"attributes": {"POSITION": 83, "TEXCOORD_0": 84, "NORMAL": 85}, "indices": 86, "mode": 4, "material": 17}, {"attributes": {"POSITION": 87, "TEXCOORD_0": 88, "NORMAL": 89}, "indices": 90, "mode": 4, "material": 20}, {"attributes": {"POSITION": 91, "TEXCOORD_0": 92, "NORMAL": 93}, "indices": 94, "mode": 4, "material": 31}, {"attributes": {"POSITION": 95, "TEXCOORD_0": 96, "NORMAL": 97}, "indices": 98, "mode": 4, "material": 15}, {"attributes": {"POSITION": 99, "TEXCOORD_0": 100, "NORMAL": 101}, "indices": 102, "mode": 4, "material": 16}, {"attributes": {"POSITION": 103, "TEXCOORD_0": 104, "NORMAL": 105}, "indices": 106, "mode": 4, "material": 19}, {"attributes": {"POSITION": 107, "TEXCOORD_0": 108, "NORMAL": 109}, "indices": 110, "mode": 4, "material": 12}, {"attributes": {"POSITION": 111, "TEXCOORD_0": 112, "NORMAL": 113}, "indices": 114, "mode": 4, "material": 21}, {"attributes": {"POSITION": 115, "TEXCOORD_0": 116, "NORMAL": 117}, "indices": 118, "mode": 4, "material": 18}, {"attributes": {"POSITION": 119, "TEXCOORD_0": 120, "NORMAL": 121}, "indices": 122, "mode": 4, "material": 0}, {"attributes": {"POSITION": 123, "TEXCOORD_0": 124, "NORMAL": 125}, "indices": 126, "mode": 4, "material": 37}, {"attributes": {"POSITION": 127, "TEXCOORD_0": 128, "NORMAL": 129}, "indices": 130, "mode": 4, "material": 1}, {"attributes": {"POSITION": 131, "TEXCOORD_0": 132, "NORMAL": 133}, "indices": 134, "mode": 4, "material": 32}, {"attributes": {"POSITION": 135, "TEXCOORD_0": 136, "NORMAL": 137}, "indices": 138, "mode": 4, "material": 7}, {"attributes": {"POSITION": 139, "TEXCOORD_0": 140, "NORMAL": 141}, "indices": 142, "mode": 4, "material": 13}, {"attributes": {"POSITION": 143, "TEXCOORD_0": 144, "NORMAL": 145}, "indices": 146, "mode": 4, "material": 14}, {"attributes": {"POSITION": 147, "TEXCOORD_0": 148, "NORMAL": 149}, "indices": 150, "mode": 4, "material": 30}]}], "materials": [{"name": "a_dai", "pbrMetallicRoughness": {"baseColorFactor": [0.803921568627451, 0.803921568627451, 0.803921568627451, 1.0], "metallicFactor": 0.0, "roughnessFactor": 1.0}, "alphaMode": "OPAQUE", "doubleSided": true}, {"name": "a_k_ndai0", "pbrMetallicRoughness": {"baseColorFactor": [0.803921568627451, 0.803921568627451, 0.803921568627451, 1.0], "metallicFactor": 0.0, "roughnessFactor": 1.0}, "alphaMode": "OPAQUE", "doubleSided": true}, {"name": "cute_desk01", "pbrMetallicRoughness": {"baseColorFactor": [1.0, 1.0, 1.0, 1.0], "metallicFactor": 0.0, "roughnessFactor": 1.0}, "alphaMode": "OPAQUE", "doubleSided": true}, {"name": "cute_kabe00", "pbrMetallicRoughness": {"baseColorFactor": [1.0, 1.0, 1.0, 1.0], "metallicFactor": 0.0, "roughnessFactor": 1.0}, "alphaMode": "OPAQUE", "doubleSided": true}, {"name": "cute_kabe01", "pbrMetallicRoughness": {"baseColorFactor": [0.803921568627451, 0.803921568627451, 0.803921568627451, 1.0], "metallicFactor": 0.0, "roughnessFactor": 1.0}, "alphaMode": "OPAQUE", "doubleSided": true}, {"name": "cute_pi00", "pbrMetallicRoughness": {"baseColorFactor": [0.803921568627451, 0.803921568627451, 0.803921568627451, 1.0], "metallicFactor": 0.0, "roughnessFactor": 1.0}, "alphaMode": "OPAQUE", "doubleSided": true}, {"name": "cute_pi01", "pbrMetallicRoughness": {"baseColorFactor": [0.803921568627451, 0.803921568627451, 0.803921568627451, 1.0], "metallicFactor": 0.0, "roughnessFactor": 1.0}, "alphaMode": "OPAQUE", "doubleSided": true}, {"name": "desk00", "pbrMetallicRoughness": {"baseColorFactor": [0.803921568627451, 0.803921568627451, 0.803921568627451, 1.0], "metallicFactor": 0.0, "roughnessFactor": 1.0}, "alphaMode": "OPAQUE", "doubleSided": true}, {"name": "desk02", "pbrMetallicRoughness": {"baseColorFactor": [0.803921568627451, 0.803921568627451, 0.803921568627451, 1.0], "metallicFactor": 0.0, "roughnessFactor": 1.0}, "alphaMode": "OPAQUE", "doubleSided": true}, {"name": "floor", "pbrMetallicRoughness": {"baseColorFactor": [1.0, 1.0, 1.0, 1.0], "metallicFactor": 0.0, "roughnessFactor": 1.0}, "alphaMode": "OPAQUE", "doubleSided": true}, {"name": "front00", "pbrMetallicRoughness": {"baseColorFactor": [0.803921568627451, 0.803921568627451, 0.803921568627451, 1.0], "metallicFactor": 0.0, "roughnessFactor": 1.0}, "alphaMode": "OPAQUE", "doubleSided": true}, {"name": "hook", "pbrMetallicRoughness": {"baseColorFactor": [0.803921568627451, 0.803921568627451, 0.803921568627451, 1.0], "metallicFactor": 0.0, "roughnessFactor": 1.0}, "alphaMode": "OPAQUE", "doubleSided": true}, {"name": "kago_taru", "pbrMetallicRoughness": {"baseColorFactor": [0.803921568627451, 0.803921568627451, 0.803921568627451, 1.0], "metallicFactor": 0.0, "roughnessFactor": 1.0}, "alphaMode": "OPAQUE", "doubleSided": true}, {"name": "kb_pan05", "pbrMetallicRoughness": {"baseColorFactor": [0.803921568627451, 0.803921568627451, 0.803921568627451, 1.0], "metallicFactor": 0.0, "roughnessFactor": 1.0}, "alphaMode": "OPAQUE", "doubleSided": true}, {"name": "kb_pan06", "pbrMetallicRoughness": {"baseColorFactor": [0.803921568627451, 0.803921568627451, 0.803921568627451, 1.0], "metallicFactor": 0.0, "roughnessFactor": 1.0}, "alphaMode": "OPAQUE", "doubleSided": true}, {"name": "kinokago", "pbrMetallicRoughness": {"baseColorFactor": [1.0, 1.0, 1.0, 1.0], "metallicFactor": 0.0, "roughnessFactor": 1.0}, "alphaMode": "OPAQUE", "doubleSided": true}, {"name": "kinokago1", "pbrMetallicRoughness": {"baseColorFactor": [0.803921568627451, 0.803921568627451, 0.803921568627451, 1.0], "metallicFactor": 0.0, "roughnessFactor": 1.0}, "alphaMode": "OPAQUE", "doubleSided": true}, {"name": "komono00", "pbrMetallicRoughness": {"baseColorFactor": [0.803921568627451, 0.803921568627451, 0.803921568627451, 1.0], "metallicFactor": 0.0, "roughnessFactor": 1.0}, "alphaMode": "OPAQUE", "doubleSided": true}, {"name": "komono02", "pbrMetallicRoughness": {"baseColorFactor": [0.803921568627451, 0.803921568627451, 0.803921568627451, 1.0], "metallicFactor": 0.0, "roughnessFactor": 1.0}, "alphaMode": "OPAQUE", "doubleSided": true}, {"name": "konro0", "pbrMetallicRoughness": {"baseColorFactor": [0.803921568627451, 0.803921568627451, 0.803921568627451, 1.0], "metallicFactor": 0.0, "roughnessFactor": 1.0}, "alphaMode": "OPAQUE", "doubleSided": true}, {"name": "lambert169", "pbrMetallicRoughness": {"baseColorFactor": [0.803921568627451, 0.803921568627451, 0.803921568627451, 1.0], "metallicFactor": 0.0, "roughnessFactor": 1.0}, "alphaMode": "OPAQUE", "doubleSided": true}, {"name": "light1", "pbrMetallicRoughness": {"baseColorFactor": [0.803921568627451, 0.803921568627451, 0.803921568627451, 1.0], "metallicFactor": 0.0, "roughnessFactor": 1.0}, "alphaMode": "OPAQUE", "doubleSided": true}, {"name": "nabesaku", "pbrMetallicRoughness": {"baseColorFactor": [0.803921568627451, 0.803921568627451, 0.803921568627451, 1.0], "metallicFactor": 0.0, "roughnessFactor": 1.0}, "alphaMode": "OPAQUE", "doubleSided": true}, {"name": "object_shade", "pbrMetallicRoughness": {"baseColorFactor": [0.803921568627451, 0.803921568627451, 0.803921568627451, 0.41935483870967744], "metallicFactor": 0.0, "roughnessFactor": 1.0}, "alphaMode": "BLEND", "doubleSided": true}, {"name": "ogama01", "pbrMetallicRoughness": {"baseColorFactor": [0.803921568627451, 0.803921568627451, 0.803921568627451, 1.0], "metallicFactor": 0.0, "roughnessFactor": 1.0}, "alphaMode": "OPAQUE", "doubleSided": true}, {"name": "ovenobj", "pbrMetallicRoughness": {"baseColorFactor": [0.803921568627451, 0.803921568627451, 0.803921568627451, 1.0], "metallicFactor": 0.0, "roughnessFactor": 1.0}, "alphaMode": "OPAQUE", "doubleSided": true}, {"name": "plane1", "pbrMetallicRoughness": {"baseColorFactor": [0.803921568627451, 0.803921568627451, 0.803921568627451, 1.0], "metallicFactor": 0.0, "roughnessFactor": 1.0}, "alphaMode": "OPAQUE", "doubleSided": true}, {"name": "ran", "pbrMetallicRoughness": {"baseColorFactor": [1.0, 1.0, 1.0, 1.0], "metallicFactor": 0.0, "roughnessFactor": 1.0}, "alphaMode": "OPAQUE", "doubleSided": true}, {"name": "renga", "pbrMetallicRoughness": {"baseColorFactor": [0.803921568627451, 0.803921568627451, 0.803921568627451, 1.0], "metallicFactor": 0.0, "roughnessFactor": 1.0}, "alphaMode": "OPAQUE", "doubleSided": true}, {"name": "room_mat00", "pbrMetallicRoughness": {"baseColorFactor": [1.0, 1.0, 1.0, 1.0], "metallicFactor": 0.0, "roughnessFactor": 1.0}, "alphaMode": "OPAQUE", "doubleSided": true}, {"name": "room_mat01", "pbrMetallicRoughness": {"baseColorFactor": [1.0, 1.0, 1.0, 1.0], "metallicFactor": 0.0, "roughnessFactor": 1.0}, "alphaMode": "OPAQUE", "doubleSided": true}, {"name": "step1", "pbrMetallicRoughness": {"baseColorFactor": [1.0, 1.0, 1.0, 1.0], "metallicFactor": 0.0, "roughnessFactor": 1.0}, "alphaMode": "OPAQUE", "doubleSided": true}, {"name": "t_men0", "pbrMetallicRoughness": {"baseColorFactor": [0.803921568627451, 0.803921568627451, 0.803921568627451, 1.0], "metallicFactor": 0.0, "roughnessFactor": 1.0}, "alphaMode": "OPAQUE", "doubleSided": true}, {"name": "tana", "pbrMetallicRoughness": {"baseColorFactor": [0.803921568627451, 0.803921568627451, 0.803921568627451, 1.0], "metallicFactor": 0.0, "roughnessFactor": 1.0}, "alphaMode": "OPAQUE", "doubleSided": true}, {"name": "tile01", "pbrMetallicRoughness": {"baseColorFactor": [0.803921568627451, 0.803921568627451, 0.803921568627451, 1.0], "metallicFactor": 0.0, "roughnessFactor": 1.0}, "alphaMode": "OPAQUE", "doubleSided": true}, {"name": "tree1", "pbrMetallicRoughness": {"baseColorFactor": [1.0, 1.0, 1.0, 1.0], "metallicFactor": 0.0, "roughnessFactor": 1.0}, "alphaMode": "OPAQUE", "doubleSided": true}, {"name": "wood00", "pbrMetallicRoughness": {"baseColorFactor": [0.803921568627451, 0.803921568627451, 0.803921568627451, 1.0], "metallicFactor": 0.0, "roughnessFactor": 1.0}, "alphaMode": "OPAQUE", "doubleSided": true}, {"name": "yakan00", "pbrMetallicRoughness": {"baseColorFactor": [1.0, 1.0, 1.0, 1.0], "metallicFactor": 0.0, "roughnessFactor": 1.0}, "alphaMode": "OPAQUE", "doubleSided": true}], "buffers": [{"byteLength": 67128, "uri": "data:application/octet-stream;base64,"}], "bufferViews": [{"buffer": 0, "byteOffset": 0, "byteLength": 1464}, {"buffer": 0, "byteOffset": 1464, "byteLength": 976}, {"buffer": 0, "byteOffset": 2440, "byteLength": 1464}, {"buffer": 0, "byteOffset": 3904, "byteLength": 576}, {"buffer": 0, "byteOffset": 4480, "byteLength": 408}, {"buffer": 0, "byteOffset": 4888, "byteLength": 272}, {"buffer": 0, "byteOffset": 5160, "byteLength": 108}, {"buffer": 0, "byteOffset": 5268, "byteLength": 732}, {"buffer": 0, "byteOffset": 6000, "byteLength": 488}, {"buffer": 0, "byteOffset": 6488, "byteLength": 732}, {"buffer": 0, "byteOffset": 7220, "byteLength": 186}, {"buffer": 0, "byteOffset": 7408, "byteLength": 96}, {"buffer": 0, "byteOffset": 7504, "byteLength": 64}, {"buffer": 0, "byteOffset": 7568, "byteLength": 96}, {"buffer": 0, "byteOffset": 7664, "byteLength": 24}, {"buffer": 0, "byteOffset": 7688, "byteLength": 528}, {"buffer": 0, "byteOffset": 8216, "byteLength": 352}, {"buffer": 0, "byteOffset": 8568, "byteLength": 528}, {"buffer": 0, "byteOffset": 9096, "byteLength": 156}, {"buffer": 0, "byteOffset": 9252, "byteLength": 1380}, {"buffer": 0, "byteOffset": 10632, "byteLength": 920}, {"buffer": 0, "byteOffset": 11552, "byteLength": 1380}, {"buffer": 0, "byteOffset": 12932, "byteLength": 450}, {"buffer": 0, "byteOffset": 13384, "byteLength": 900}, {"buffer": 0, "byteOffset": 14284, "byteLength": 600}, {"buffer": 0, "byteOffset": 14884, "byteLength": 900}, {"buffer": 0, "byteOffset": 15784, "byteLength": 282}, {"buffer": 0, "byteOffset": 16068, "byteLength": 576}, {"buffer": 0, "byteOffset": 16644, "byteLength": 384}, {"buffer": 0, "byteOffset": 17028, "byteLength": 576}, {"buffer": 0, "byteOffset": 17604, "byteLength": 144}, {"buffer": 0, "byteOffset": 17748, "byteLength": 144}, {"buffer": 0, "byteOffset": 17892, "byteLength": 96}, {"buffer": 0, "byteOffset": 17988, "byteLength": 144}, {"buffer": 0, "byteOffset": 18132, "byteLength": 36}, {"buffer": 0, "byteOffset": 18168, "byteLength": 528}, {"buffer": 0, "byteOffset": 18696, "byteLength": 352}, {"buffer": 0, "byteOffset": 19048, "byteLength": 528}, {"buffer": 0, "byteOffset": 19576, "byteLength": 168}, {"buffer": 0, "byteOffset": 19744, "byteLength": 144}, {"buffer": 0, "byteOffset": 19888, "byteLength": 96}, {"buffer": 0, "byteOffset": 19984, "byteLength": 144}, {"buffer": 0, "byteOffset": 20128, "byteLength": 36}, {"buffer": 0, "byteOffset": 20164, "byteLength": 360}, {"buffer": 0, "byteOffset": 20524, "byteLength": 240}, {"buffer": 0, "byteOffset": 20764, "byteLength": 360}, {"buffer": 0, "byteOffset": 21124, "byteLength": 96}, {"buffer": 0, "byteOffset": 21220, "byteLength": 168}, {"buffer": 0, "byteOffset": 21388, "byteLength": 112}, {"buffer": 0, "byteOffset": 21500, "byteLength": 168}, {"buffer": 0, "byteOffset": 21668, "byteLength": 48}, {"buffer": 0, "byteOffset": 21716, "byteLength": 72}, {"buffer": 0, "byteOffset": 21788, "byteLength": 48}, {"buffer": 0, "byteOffset": 21836, "byteLength": 72}, {"buffer": 0, "byteOffset": 21908, "byteLength": 24}, {"buffer": 0, "byteOffset": 21932, "byteLength": 192}, {"buffer": 0, "byteOffset": 22124, "byteLength": 128}, {"buffer": 0, "byteOffset": 22252, "byteLength": 192}, {"buffer": 0, "byteOffset": 22444, "byteLength": 48}, {"buffer": 0, "byteOffset": 22492, "byteLength": 156}, {"buffer": 0, "byteOffset": 22648, "byteLength": 104}, {"buffer": 0, "byteOffset": 22752, "byteLength": 156}, {"buffer": 0, "byteOffset": 22908, "byteLength": 42}, {"buffer": 0, "byteOffset": 22952, "byteLength": 228}, {"buffer": 0, "byteOffset": 23180, "byteLength": 152}, {"buffer": 0, "byteOffset": 23332, "byteLength": 228}, {"buffer": 0, "byteOffset": 23560, "byteLength": 66}, {"buffer": 0, "byteOffset": 23628, "byteLength": 96}, {"buffer": 0, "byteOffset": 23724, "byteLength": 64}, {"buffer": 0, "byteOffset": 23788, "byteLength": 96}, {"buffer": 0, "byteOffset": 23884, "byteLength": 24}, {"buffer": 0, "byteOffset": 23908, "byteLength": 624}, {"buffer": 0, "byteOffset": 24532, "byteLength": 416}, {"buffer": 0, "byteOffset": 24948, "byteLength": 624}, {"buffer": 0, "byteOffset": 25572, "byteLength": 156}, {"buffer": 0, "byteOffset": 25728, "byteLength": 120}, {"buffer": 0, "byteOffset": 25848, "byteLength": 80}, {"buffer": 0, "byteOffset": 25928, "byteLength": 120}, {"buffer": 0, "byteOffset": 26048, "byteLength": 36}, {"buffer": 0, "byteOffset": 26084, "byteLength": 1440}, {"buffer": 0, "byteOffset": 27524, "byteLength": 960}, {"buffer": 0, "byteOffset": 28484, "byteLength": 1440}, {"buffer": 0, "byteOffset": 29924, "byteLength": 456}, {"buffer": 0, "byteOffset": 30380, "byteLength": 96}, {"buffer": 0, "byteOffset": 30476, "byteLength": 64}, {"buffer": 0, "byteOffset": 30540, "byteLength": 96}, {"buffer": 0, "byteOffset": 30636, "byteLength": 24}, {"buffer": 0, "byteOffset": 30660, "byteLength": 96}, {"buffer": 0, "byteOffset": 30756, "byteLength": 64}, {"buffer": 0, "byteOffset": 30820, "byteLength": 96}, {"buffer": 0, "byteOffset": 30916, "byteLength": 24}, {"buffer": 0, "byteOffset": 30940, "byteLength": 2280}, {"buffer": 0, "byteOffset": 33220, "byteLength": 1520}, {"buffer": 0, "byteOffset": 34740, "byteLength": 2280}, {"buffer": 0, "byteOffset": 37020, "byteLength": 636}, {"buffer": 0, "byteOffset": 37656, "byteLength": 444}, {"buffer": 0, "byteOffset": 38100, "byteLength": 296}, {"buffer": 0, "byteOffset": 38396, "byteLength": 444}, {"buffer": 0, "byteOffset": 38840, "byteLength": 150}, {"buffer": 0, "byteOffset": 38992, "byteLength": 144}, {"buffer": 0, "byteOffset": 39136, "byteLength": 96}, {"buffer": 0, "byteOffset": 39232, "byteLength": 144}, {"buffer": 0, "byteOffset": 39376, "byteLength": 36}, {"buffer": 0, "byteOffset": 39412, "byteLength": 144}, {"buffer": 0, "byteOffset": 39556, "byteLength": 96}, {"buffer": 0, "byteOffset": 39652, "byteLength": 144}, {"buffer": 0, "byteOffset": 39796, "byteLength": 36}, {"buffer": 0, "byteOffset": 39832, "byteLength": 876}, {"buffer": 0, "byteOffset": 40708, "byteLength": 584}, {"buffer": 0, "byteOffset": 41292, "byteLength": 876}, {"buffer": 0, "byteOffset": 42168, "byteLength": 306}, {"buffer": 0, "byteOffset": 42476, "byteLength": 384}, {"buffer": 0, "byteOffset": 42860, "byteLength": 256}, {"buffer": 0, "byteOffset": 43116, "byteLength": 384}, {"buffer": 0, "byteOffset": 43500, "byteLength": 120}, {"buffer": 0, "byteOffset": 43620, "byteLength": 72}, {"buffer": 0, "byteOffset": 43692, "byteLength": 48}, {"buffer": 0, "byteOffset": 43740, "byteLength": 72}, {"buffer": 0, "byteOffset": 43812, "byteLength": 24}, {"buffer": 0, "byteOffset": 43836, "byteLength": 1128}, {"buffer": 0, "byteOffset": 44964, "byteLength": 752}, {"buffer": 0, "byteOffset": 45716, "byteLength": 1128}, {"buffer": 0, "byteOffset": 46844, "byteLength": 312}, {"buffer": 0, "byteOffset": 47156, "byteLength": 408}, {"buffer": 0, "byteOffset": 47564, "byteLength": 272}, {"buffer": 0, "byteOffset": 47836, "byteLength": 408}, {"buffer": 0, "byteOffset": 48244, "byteLength": 132}, {"buffer": 0, "byteOffset": 48376, "byteLength": 456}, {"buffer": 0, "byteOffset": 48832, "byteLength": 304}, {"buffer": 0, "byteOffset": 49136, "byteLength": 456}, {"buffer": 0, "byteOffset": 49592, "byteLength": 120}, {"buffer": 0, "byteOffset": 49712, "byteLength": 1392}, {"buffer": 0, "byteOffset": 51104, "byteLength": 928}, {"buffer": 0, "byteOffset": 52032, "byteLength": 1392}, {"buffer": 0, "byteOffset": 53424, "byteLength": 504}, {"buffer": 0, "byteOffset": 53928, "byteLength": 144}, {"buffer": 0, "byteOffset": 54072, "byteLength": 96}, {"buffer": 0, "byteOffset": 54168, "byteLength": 144}, {"buffer": 0, "byteOffset": 54312, "byteLength": 48}, {"buffer": 0, "byteOffset": 54360, "byteLength": 4128}, {"buffer": 0, "byteOffset": 58488, "byteLength": 2752}, {"buffer": 0, "byteOffset": 61240, "byteLength": 4128}, {"buffer": 0, "byteOffset": 65368, "byteLength": 984}, {"buffer": 0, "byteOffset": 66352, "byteLength": 216}, {"buffer": 0, "byteOffset": 66568, "byteLength": 144}, {"buffer": 0, "byteOffset": 66712, "byteLength": 216}, {"buffer": 0, "byteOffset": 66928, "byteLength": 60}, {"buffer": 0, "byteOffset": 66988, "byteLength": 48}, {"buffer": 0, "byteOffset": 67036, "byteLength": 32}, {"buffer": 0, "byteOffset": 67068, "byteLength": 48}, {"buffer": 0, "byteOffset": 67116, "byteLength": 12}], "accessors": [{"bufferView": 0, "byteOffset": 0, "componentType": 5126, "count": 122, "type": "VEC3", "min": [1.292236328125, 0.27490234375, 0.19677734375], "max": [2.2099609375, 1.037109375, 1.118896484375]}, {"bufferView": 1, "byteOffset": 0, "componentType": 5126, "count": 122, "type": "VEC2"}, {"bufferView": 2, "byteOffset": 0, "componentType": 5126, "count": 122, "type": "VEC3"}, {"bufferView": 3, "byteOffset": 0, "componentType": 5123, "count": 288, "type": "SCALAR"}, {"bufferView": 4, "byteOffset": 0, "componentType": 5126, "count": 34, "type": "VEC3", "min": [0.5, 0.0, -0.177490234375], "max": [3.5, 1.2607421875, 4.0]}, {"bufferView": 5, "byteOffset": 0, "componentType": 5126, "count": 34, "type": "VEC2"}, {"bufferView": 6, "byteOffset": 0, "componentType": 5123, "count": 54, "type": "SCALAR"}, {"bufferView": 7, "byteOffset": 0, "componentType": 5126, "count": 61, "type": "VEC3", "min": [0.50244140625, 0.0, -0.199951171875], "max": [3.498046875, 1.835693359375, 1.918701171875]}, {"bufferView": 8, "byteOffset": 0, "componentType": 5126, "count": 61, "type": "VEC2"}, {"bufferView": 9, "byteOffset": 0, "componentType": 5126, "count": 61, "type": "VEC3"}, {"bufferView": 10, "byteOffset": 0, "componentType": 5123, "count": 93, "type": "SCALAR"}, {"bufferView": 11, "byteOffset": 0, "componentType": 5126, "count": 8, "type": "VEC3", "min": [1.75, 0.0, 3.300048828125], "max": [3.75439453125, 0.00048828125, 4.25]}, {"bufferView": 12, "byteOffset": 0, "componentType": 5126, "count": 8, "type": "VEC2"}, {"bufferView": 13, "byteOffset": 0, "componentType": 5126, "count": 8, "type": "VEC3"}, {"bufferView": 14, "byteOffset": 0, "componentType": 5123, "count": 12, "type": "SCALAR"}, {"bufferView": 15, "byteOffset": 0, "componentType": 5126, "count": 44, "type": "VEC3", "min": [0.5, 0.0, 2.52490234375], "max": [3.541748046875, 0.77490234375, 3.85009765625]}, {"bufferView": 16, "byteOffset": 0, "componentType": 5126, "count": 44, "type": "VEC2"}, {"bufferView": 17, "byteOffset": 0, "componentType": 5126, "count": 44, "type": "VEC3"}, {"bufferView": 18, "byteOffset": 0, "componentType": 5123, "count": 78, "type": "SCALAR"}, {"bufferView": 19, "byteOffset": 0, "componentType": 5126, "count": 115, "type": "VEC3", "min": [0.385009765625, -0.00634765625, 4.03662109375], "max": [3.62158203125, 1.90576171875, 4.111328125]}, {"bufferView": 20, "byteOffset": 0, "componentType": 5126, "count": 115, "type": "VEC2"}, {"bufferView": 21, "byteOffset": 0, "componentType": 5126, "count": 115, "type": "VEC3"}, {"bufferView": 22, "byteOffset": 0, "componentType": 5123, "count": 225, "type": "SCALAR"}, {"bufferView": 23, "byteOffset": 0, "componentType": 5126, "count": 75, "type": "VEC3", "min": [0.47509765625, 0.39990234375, 2.537353515625], "max": [3.574951171875, 0.99951171875, 3.949951171875]}, {"bufferView": 24, "byteOffset": 0, "componentType": 5126, "count": 75, "type": "VEC2"}, {"bufferView": 25, "byteOffset": 0, "componentType": 5126, "count": 75, "type": "VEC3"}, {"bufferView": 26, "byteOffset": 0, "componentType": 5123, "count": 141, "type": "SCALAR"}, {"bufferView": 27, "byteOffset": 0, "componentType": 5126, "count": 48, "type": "VEC3", "min": [0.53759765625, 0.012451171875, -0.375244140625], "max": [3.50732421875, 0.85888671875, 4.359130859375]}, {"bufferView": 28, "byteOffset": 0, "componentType": 5126, "count": 48, "type": "VEC2"}, {"bufferView": 29, "byteOffset": 0, "componentType": 5126, "count": 48, "type": "VEC3"}, {"bufferView": 30, "byteOffset": 0, "componentType": 5123, "count": 72, "type": "SCALAR"}, {"bufferView": 31, "byteOffset": 0, "componentType": 5126, "count": 12, "type": "VEC3", "min": [0.5, -1.83349609375, 3.25244140625], "max": [4.362060546875, 1.805908203125, 4.02783203125]}, {"bufferView": 32, "byteOffset": 0, "componentType": 5126, "count": 12, "type": "VEC2"}, {"bufferView": 33, "byteOffset": 0, "componentType": 5126, "count": 12, "type": "VEC3"}, {"bufferView": 34, "byteOffset": 0, "componentType": 5123, "count": 18, "type": "SCALAR"}, {"bufferView": 35, "byteOffset": 0, "componentType": 5126, "count": 44, "type": "VEC3", "min": [0.458740234375, 0.007568359375, 1.248046875], "max": [3.53564453125, 0.057861328125, 2.21533203125]}, {"bufferView": 36, "byteOffset": 0, "componentType": 5126, "count": 44, "type": "VEC2"}, {"bufferView": 37, "byteOffset": 0, "componentType": 5126, "count": 44, "type": "VEC3"}, {"bufferView": 38, "byteOffset": 0, "componentType": 5123, "count": 84, "type": "SCALAR"}, {"bufferView": 39, "byteOffset": 0, "componentType": 5126, "count": 12, "type": "VEC3", "min": [0.5, 0.0, 2.319580078125], "max": [1.465087890625, 0.10009765625, 4.021728515625]}, {"bufferView": 40, "byteOffset": 0, "componentType": 5126, "count": 12, "type": "VEC2"}, {"bufferView": 41, "byteOffset": 0, "componentType": 5126, "count": 12, "type": "VEC3"}, {"bufferView": 42, "byteOffset": 0, "componentType": 5123, "count": 18, "type": "SCALAR"}, {"bufferView": 43, "byteOffset": 0, "componentType": 5126, "count": 30, "type": "VEC3", "min": [0.5, 0.10009765625, 2.319580078125], "max": [3.5, 0.14990234375, 4.049560546875]}, {"bufferView": 44, "byteOffset": 0, "componentType": 5126, "count": 30, "type": "VEC2"}, {"bufferView": 45, "byteOffset": 0, "componentType": 5126, "count": 30, "type": "VEC3"}, {"bufferView": 46, "byteOffset": 0, "componentType": 5123, "count": 48, "type": "SCALAR"}, {"bufferView": 47, "byteOffset": 0, "componentType": 5126, "count": 14, "type": "VEC3", "min": [1.1474609375, 0.154052734375, -0.177490234375], "max": [2.6962890625, 1.8154296875, 1.25]}, {"bufferView": 48, "byteOffset": 0, "componentType": 5126, "count": 14, "type": "VEC2"}, {"bufferView": 49, "byteOffset": 0, "componentType": 5126, "count": 14, "type": "VEC3"}, {"bufferView": 50, "byteOffset": 0, "componentType": 5123, "count": 24, "type": "SCALAR"}, {"bufferView": 51, "byteOffset": 0, "componentType": 5126, "count": 6, "type": "VEC3", "min": [1.303955078125, 0.875, -0.177490234375], "max": [2.6962890625, 1.27490234375, 1.25]}, {"bufferView": 52, "byteOffset": 0, "componentType": 5126, "count": 6, "type": "VEC2"}, {"bufferView": 53, "byteOffset": 0, "componentType": 5126, "count": 6, "type": "VEC3"}, {"bufferView": 54, "byteOffset": 0, "componentType": 5123, "count": 12, "type": "SCALAR"}, {"bufferView": 55, "byteOffset": 0, "componentType": 5126, "count": 16, "type": "VEC3", "min": [0.5, 1.26025390625, -0.177490234375], "max": [3.5, 1.815673828125, 4.0]}, {"bufferView": 56, "byteOffset": 0, "componentType": 5126, "count": 16, "type": "VEC2"}, {"bufferView": 57, "byteOffset": 0, "componentType": 5126, "count": 16, "type": "VEC3"}, {"bufferView": 58, "byteOffset": 0, "componentType": 5123, "count": 24, "type": "SCALAR"}, {"bufferView": 59, "byteOffset": 0, "componentType": 5126, "count": 13, "type": "VEC3", "min": [0.5, 0.0, 1.866455078125], "max": [3.5, 0.5, 4.0]}, {"bufferView": 60, "byteOffset": 0, "componentType": 5126, "count": 13, "type": "VEC2"}, {"bufferView": 61, "byteOffset": 0, "componentType": 5126, "count": 13, "type": "VEC3"}, {"bufferView": 62, "byteOffset": 0, "componentType": 5123, "count": 21, "type": "SCALAR"}, {"bufferView": 63, "byteOffset": 0, "componentType": 5126, "count": 19, "type": "VEC3", "min": [0.5, 0.0, 1.25], "max": [3.5, 0.0009765625, 4.0]}, {"bufferView": 64, "byteOffset": 0, "componentType": 5126, "count": 19, "type": "VEC2"}, {"bufferView": 65, "byteOffset": 0, "componentType": 5126, "count": 19, "type": "VEC3"}, {"bufferView": 66, "byteOffset": 0, "componentType": 5123, "count": 33, "type": "SCALAR"}, {"bufferView": 67, "byteOffset": 0, "componentType": 5126, "count": 8, "type": "VEC3", "min": [0.51416015625, 0.00048828125, 2.033935546875], "max": [3.54248046875, 0.923095703125, 3.699951171875]}, {"bufferView": 68, "byteOffset": 0, "componentType": 5126, "count": 8, "type": "VEC2"}, {"bufferView": 69, "byteOffset": 0, "componentType": 5126, "count": 8, "type": "VEC3"}, {"bufferView": 70, "byteOffset": 0, "componentType": 5123, "count": 12, "type": "SCALAR"}, {"bufferView": 71, "byteOffset": 0, "componentType": 5126, "count": 52, "type": "VEC3", "min": [0.462890625, 0.34228515625, 3.2587890625], "max": [0.683837890625, 0.740234375, 4.02685546875]}, {"bufferView": 72, "byteOffset": 0, "componentType": 5126, "count": 52, "type": "VEC2"}, {"bufferView": 73, "byteOffset": 0, "componentType": 5126, "count": 52, "type": "VEC3"}, {"bufferView": 74, "byteOffset": 0, "componentType": 5123, "count": 78, "type": "SCALAR"}, {"bufferView": 75, "byteOffset": 0, "componentType": 5126, "count": 10, "type": "VEC3", "min": [1.28759765625, 0.25, 1.21240234375], "max": [2.0625, 0.57080078125, 1.28759765625]}, {"bufferView": 76, "byteOffset": 0, "componentType": 5126, "count": 10, "type": "VEC2"}, {"bufferView": 77, "byteOffset": 0, "componentType": 5126, "count": 10, "type": "VEC3"}, {"bufferView": 78, "byteOffset": 0, "componentType": 5123, "count": 18, "type": "SCALAR"}, {"bufferView": 79, "byteOffset": 0, "componentType": 5126, "count": 120, "type": "VEC3", "min": [2.9716796875, 0.011474609375, 3.962158203125], "max": [3.306396484375, 0.36962890625, 4.318603515625]}, {"bufferView": 80, "byteOffset": 0, "componentType": 5126, "count": 120, "type": "VEC2"}, {"bufferView": 81, "byteOffset": 0, "componentType": 5126, "count": 120, "type": "VEC3"}, {"bufferView": 82, "byteOffset": 0, "componentType": 5123, "count": 228, "type": "SCALAR"}, {"bufferView": 83, "byteOffset": 0, "componentType": 5126, "count": 8, "type": "VEC3", "min": [0.56005859375, 0.97509765625, 3.401123046875], "max": [0.7900390625, 1.341552734375, 3.8740234375]}, {"bufferView": 84, "byteOffset": 0, "componentType": 5126, "count": 8, "type": "VEC2"}, {"bufferView": 85, "byteOffset": 0, "componentType": 5126, "count": 8, "type": "VEC3"}, {"bufferView": 86, "byteOffset": 0, "componentType": 5123, "count": 12, "type": "SCALAR"}, {"bufferView": 87, "byteOffset": 0, "componentType": 5126, "count": 8, "type": "VEC3", "min": [0.48193359375, 0.14990234375, 2.869384765625], "max": [0.894775390625, 1.278564453125, 3.951171875]}, {"bufferView": 88, "byteOffset": 0, "componentType": 5126, "count": 8, "type": "VEC2"}, {"bufferView": 89, "byteOffset": 0, "componentType": 5126, "count": 8, "type": "VEC3"}, {"bufferView": 90, "byteOffset": 0, "componentType": 5123, "count": 12, "type": "SCALAR"}, {"bufferView": 91, "byteOffset": 0, "componentType": 5126, "count": 190, "type": "VEC3", "min": [1.300048828125, 0.0, -0.20751953125], "max": [2.82958984375, 0.883056640625, 1.619873046875]}, {"bufferView": 92, "byteOffset": 0, "componentType": 5126, "count": 190, "type": "VEC2"}, {"bufferView": 93, "byteOffset": 0, "componentType": 5126, "count": 190, "type": "VEC3"}, {"bufferView": 94, "byteOffset": 0, "componentType": 5123, "count": 318, "type": "SCALAR"}, {"bufferView": 95, "byteOffset": 0, "componentType": 5126, "count": 37, "type": "VEC3", "min": [0.59228515625, 0.024658203125, 2.47607421875], "max": [1.023193359375, 0.485107421875, 2.823974609375]}, {"bufferView": 96, "byteOffset": 0, "componentType": 5126, "count": 37, "type": "VEC2"}, {"bufferView": 97, "byteOffset": 0, "componentType": 5126, "count": 37, "type": "VEC3"}, {"bufferView": 98, "byteOffset": 0, "componentType": 5123, "count": 75, "type": "SCALAR"}, {"bufferView": 99, "byteOffset": 0, "componentType": 5126, "count": 12, "type": "VEC3", "min": [0.545166015625, 0.18896484375, 2.59130859375], "max": [0.902587890625, 0.5576171875, 2.78466796875]}, {"bufferView": 100, "byteOffset": 0, "componentType": 5126, "count": 12, "type": "VEC2"}, {"bufferView": 101, "byteOffset": 0, "componentType": 5126, "count": 12, "type": "VEC3"}, {"bufferView": 102, "byteOffset": 0, "componentType": 5123, "count": 18, "type": "SCALAR"}, {"bufferView": 103, "byteOffset": 0, "componentType": 5126, "count": 12, "type": "VEC3", "min": [1.1474609375, -0.046875, 0.130615234375], "max": [2.39990234375, 0.247314453125, 1.23681640625]}, {"bufferView": 104, "byteOffset": 0, "componentType": 5126, "count": 12, "type": "VEC2"}, {"bufferView": 105, "byteOffset": 0, "componentType": 5126, "count": 12, "type": "VEC3"}, {"bufferView": 106, "byteOffset": 0, "componentType": 5123, "count": 18, "type": "SCALAR"}, {"bufferView": 107, "byteOffset": 0, "componentType": 5126, "count": 73, "type": "VEC3", "min": [2.604736328125, 0.012451171875, 3.90283203125], "max": [2.839599609375, 0.165283203125, 4.1259765625]}, {"bufferView": 108, "byteOffset": 0, "componentType": 5126, "count": 73, "type": "VEC2"}, {"bufferView": 109, "byteOffset": 0, "componentType": 5126, "count": 73, "type": "VEC3"}, {"bufferView": 110, "byteOffset": 0, "componentType": 5123, "count": 153, "type": "SCALAR"}, {"bufferView": 111, "byteOffset": 0, "componentType": 5126, "count": 32, "type": "VEC3", "min": [0.5, 0.4560546875, 2.383544921875], "max": [3.496826171875, 1.02490234375, 3.647705078125]}, {"bufferView": 112, "byteOffset": 0, "componentType": 5126, "count": 32, "type": "VEC2"}, {"bufferView": 113, "byteOffset": 0, "componentType": 5126, "count": 32, "type": "VEC3"}, {"bufferView": 114, "byteOffset": 0, "componentType": 5123, "count": 60, "type": "SCALAR"}, {"bufferView": 115, "byteOffset": 0, "componentType": 5126, "count": 6, "type": "VEC3", "min": [3.350830078125, 0.625, 2.764404296875], "max": [3.5078125, 0.8525390625, 2.8427734375]}, {"bufferView": 116, "byteOffset": 0, "componentType": 5126, "count": 6, "type": "VEC2"}, {"bufferView": 117, "byteOffset": 0, "componentType": 5126, "count": 6, "type": "VEC3"}, {"bufferView": 118, "byteOffset": 0, "componentType": 5123, "count": 12, "type": "SCALAR"}, {"bufferView": 119, "byteOffset": 0, "componentType": 5126, "count": 94, "type": "VEC3", "min": [0.867431640625, 0.017578125, 1.97119140625], "max": [1.226806640625, 0.27490234375, 2.332275390625]}, {"bufferView": 120, "byteOffset": 0, "componentType": 5126, "count": 94, "type": "VEC2"}, {"bufferView": 121, "byteOffset": 0, "componentType": 5126, "count": 94, "type": "VEC3"}, {"bufferView": 122, "byteOffset": 0, "componentType": 5123, "count": 156, "type": "SCALAR"}, {"bufferView": 123, "byteOffset": 0, "componentType": 5126, "count": 34, "type": "VEC3", "min": [3.00732421875, 0.174560546875, 2.938232421875], "max": [3.231201171875, 0.385009765625, 3.01171875]}, {"bufferView": 124, "byteOffset": 0, "componentType": 5126, "count": 34, "type": "VEC2"}, {"bufferView": 125, "byteOffset": 0, "componentType": 5126, "count": 34, "type": "VEC3"}, {"bufferView": 126, "byteOffset": 0, "componentType": 5123, "count": 66, "type": "SCALAR"}, {"bufferView": 127, "byteOffset": 0, "componentType": 5126, "count": 38, "type": "VEC3", "min": [1.0205078125, 0.15234375, 3.708740234375], "max": [1.408447265625, 0.1806640625, 3.983154296875]}, {"bufferView": 128, "byteOffset": 0, "componentType": 5126, "count": 38, "type": "VEC2"}, {"bufferView": 129, "byteOffset": 0, "componentType": 5126, "count": 38, "type": "VEC3"}, {"bufferView": 130, "byteOffset": 0, "componentType": 5123, "count": 60, "type": "SCALAR"}, {"bufferView": 131, "byteOffset": 0, "componentType": 5126, "count": 116, "type": "VEC3", "min": [0.796630859375, 0.14990234375, 3.53564453125], "max": [0.998291015625, 0.208984375, 3.846923828125]}, {"bufferView": 132, "byteOffset": 0, "componentType": 5126, "count": 116, "type": "VEC2"}, {"bufferView": 133, "byteOffset": 0, "componentType": 5126, "count": 116, "type": "VEC3"}, {"bufferView": 134, "byteOffset": 0, "componentType": 5123, "count": 252, "type": "SCALAR"}, {"bufferView": 135, "byteOffset": 0, "componentType": 5126, "count": 12, "type": "VEC3", "min": [3.027099609375, 0.007568359375, 2.37060546875], "max": [3.5, 0.113037109375, 3.078125]}, {"bufferView": 136, "byteOffset": 0, "componentType": 5126, "count": 12, "type": "VEC2"}, {"bufferView": 137, "byteOffset": 0, "componentType": 5126, "count": 12, "type": "VEC3"}, {"bufferView": 138, "byteOffset": 0, "componentType": 5123, "count": 24, "type": "SCALAR"}, {"bufferView": 139, "byteOffset": 0, "componentType": 5126, "count": 344, "type": "VEC3", "min": [3.044677734375, 0.138427734375, 2.379150390625], "max": [3.4208984375, 0.187255859375, 3.074462890625]}, {"bufferView": 140, "byteOffset": 0, "componentType": 5126, "count": 344, "type": "VEC2"}, {"bufferView": 141, "byteOffset": 0, "componentType": 5126, "count": 344, "type": "VEC3"}, {"bufferView": 142, "byteOffset": 0, "componentType": 5123, "count": 492, "type": "SCALAR"}, {"bufferView": 143, "byteOffset": 0, "componentType": 5126, "count": 18, "type": "VEC3", "min": [3.044677734375, 0.16455078125, 2.379150390625], "max": [3.4208984375, 0.1650390625, 3.074462890625]}, {"bufferView": 144, "byteOffset": 0, "componentType": 5126, "count": 18, "type": "VEC2"}, {"bufferView": 145, "byteOffset": 0, "componentType": 5126, "count": 18, "type": "VEC3"}, {"bufferView": 146, "byteOffset": 0, "componentType": 5123, "count": 30, "type": "SCALAR"}, {"bufferView": 147, "byteOffset": 0, "componentType": 5126, "count": 4, "type": "VEC3", "min": [3.25, 0.00048828125, 3.300048828125], "max": [3.458251953125, 0.00048828125, 3.699951171875]}, {"bufferView": 148, "byteOffset": 0, "componentType": 5126, "count": 4, "type": "VEC2"}, {"bufferView": 149, "byteOffset": 0, "componentType": 5126, "count": 4, "type": "VEC3"}, {"bufferView": 150, "byteOffset": 0, "componentType": 5123, "count": 6, "type": "SCALAR"}], "samplers": [{"magFilter": 9729, "minFilter": 9729, "wrapS": 10497, "wrapT": 10497}]}