{"asset": {"version": "2.0", "generator": "tongari-nsbmd-to-gltf"}, "scene": 0, "scenes": [{"nodes": [0, 1]}], "nodes": [{"name": "imrl06_01", "translation": [0.0, 0.0, 0.0]}, {"mesh": 0, "name": "3083IMRL06_01"}], "meshes": [{"name": "3083IMRL06_01", "primitives": [{"attributes": {"POSITION": 0, "TEXCOORD_0": 1, "NORMAL": 2}, "indices": 3, "mode": 4, "material": 1}, {"attributes": {"POSITION": 4, "TEXCOORD_0": 5, "NORMAL": 6}, "indices": 7, "mode": 4, "material": 2}, {"attributes": {"POSITION": 8, "TEXCOORD_0": 9, "NORMAL": 10}, "indices": 11, "mode": 4, "material": 0}]}], "materials": [{"name": "imrl06_01_0", "pbrMetallicRoughness": {"baseColorFactor": [1.0, 1.0, 1.0, 1.0], "metallicFactor": 0.0, "roughnessFactor": 1.0}, "alphaMode": "OPAQUE", "doubleSided": true}, {"name": "imrl06_01_1", "pbrMetallicRoughness": {"baseColorFactor": [1.0, 1.0, 1.0, 1.0], "metallicFactor": 0.0, "roughnessFactor": 1.0}, "alphaMode": "OPAQUE", "doubleSided": true}, {"name": "imrl06_01_2", "pbrMetallicRoughness": {"baseColorFactor": [1.0, 1.0, 1.0, 1.0], "metallicFactor": 0.0, "roughnessFactor": 1.0}, "alphaMode": "OPAQUE", "doubleSided": true}], "buffers": [{"byteLength": 5028, "uri": "data:application/octet-stream;base64,"}], "bufferViews": [{"buffer": 0, "byteOffset": 0, "byteLength": 576}, {"buffer": 0, "byteOffset": 576, "byteLength": 384}, {"buffer": 0, "byteOffset": 960, "byteLength": 576}, {"buffer": 0, "byteOffset": 1536, "byteLength": 144}, {"buffer": 0, "byteOffset": 1680, "byteLength": 960}, {"buffer": 0, "byteOffset": 2640, "byteLength": 640}, {"buffer": 0, "byteOffset": 3280, "byteLength": 960}, {"buffer": 0, "byteOffset": 4240, "byteLength": 228}, {"buffer": 0, "byteOffset": 4468, "byteLength": 192}, {"buffer": 0, "byteOffset": 4660, "byteLength": 128}, {"buffer": 0, "byteOffset": 4788, "byteLength": 192}, {"buffer": 0, "byteOffset": 4980, "byteLength": 48}], "accessors": [{"bufferView": 0, "byteOffset": 0, "componentType": 5126, "count": 48, "type": "VEC3", "min": [-0.908935546875, 0.094970703125, -0.875], "max": [0.908935546875, 0.540283203125, 0.873046875]}, {"bufferView": 1, "byteOffset": 0, "componentType": 5126, "count": 48, "type": "VEC2"}, {"bufferView": 2, "byteOffset": 0, "componentType": 5126, "count": 48, "type": "VEC3"}, {"bufferView": 3, "byteOffset": 0, "componentType": 5123, "count": 72, "type": "SCALAR"}, {"bufferView": 4, "byteOffset": 0, "componentType": 5126, "count": 80, "type": "VEC3", "min": [-0.9892578125, -0.339111328125, -0.97509765625], "max": [0.9892578125, 0.667724609375, 0.97509765625]}, {"bufferView": 5, "byteOffset": 0, "componentType": 5126, "count": 80, "type": "VEC2"}, {"bufferView": 6, "byteOffset": 0, "componentType": 5126, "count": 80, "type": "VEC3"}, {"bufferView": 7, "byteOffset": 0, "componentType": 5123, "count": 114, "type": "SCALAR"}, {"bufferView": 8, "byteOffset": 0, "componentType": 5126, "count": 16, "type": "VEC3", "min": [-0.94091796875, 0.176025390625, -0.890625], "max": [0.94091796875, 0.751220703125, 0.890625]}, {"bufferView": 9, "byteOffset": 0, "componentType": 5126, "count": 16, "type": "VEC2"}, {"bufferView": 10, "byteOffset": 0, "componentType": 5126, "count": 16, "type": "VEC3"}, {"bufferView": 11, "byteOffset": 0, "componentType": 5123, "count": 24, "type": "SCALAR"}], "samplers": [{"magFilter": 9729, "minFilter": 9729, "wrapS": 10497, "wrapT": 10497}]}