{"asset": {"version": "2.0", "generator": "tongari-nsbmd-to-gltf"}, "scene": 0, "scenes": [{"nodes": [0, 1]}], "nodes": [{"name": "dishup_s", "translation": [0.0, 0.0, 0.0]}, {"mesh": 0, "name": "5546dishup_s"}], "meshes": [{"name": "5546dishup_s", "primitives": [{"attributes": {"POSITION": 0, "TEXCOORD_0": 1, "NORMAL": 2}, "indices": 3, "mode": 4, "material": 0}, {"attributes": {"POSITION": 4, "TEXCOORD_0": 5, "NORMAL": 6}, "indices": 7, "mode": 4, "material": 1}]}], "materials": [{"name": "ucc_tenp0", "pbrMetallicRoughness": {"baseColorFactor": [1.0, 1.0, 1.0, 1.0], "metallicFactor": 0.0, "roughnessFactor": 1.0}, "alphaMode": "OPAQUE", "doubleSided": true}, {"name": "ucc_top0", "pbrMetallicRoughness": {"baseColorFactor": [1.0, 1.0, 1.0, 1.0], "metallicFactor": 0.0, "roughnessFactor": 1.0}, "alphaMode": "OPAQUE", "doubleSided": true}], "buffers": [{"byteLength": 280, "uri": "data:application/octet-stream;base64,"}], "bufferViews": [{"buffer": 0, "byteOffset": 0, "byteLength": 48}, {"buffer": 0, "byteOffset": 48, "byteLength": 32}, {"buffer": 0, "byteOffset": 80, "byteLength": 48}, {"buffer": 0, "byteOffset": 128, "byteLength": 12}, {"buffer": 0, "byteOffset": 140, "byteLength": 48}, {"buffer": 0, "byteOffset": 188, "byteLength": 32}, {"buffer": 0, "byteOffset": 220, "byteLength": 48}, {"buffer": 0, "byteOffset": 268, "byteLength": 12}], "accessors": [{"bufferView": 0, "byteOffset": 0, "componentType": 5126, "count": 4, "type": "VEC3", "min": [-0.10205078125, -0.037841796875, -0.01220703125], "max": [0.10205078125, 0.112060546875, 0.033203125]}, {"bufferView": 1, "byteOffset": 0, "componentType": 5126, "count": 4, "type": "VEC2"}, {"bufferView": 2, "byteOffset": 0, "componentType": 5126, "count": 4, "type": "VEC3"}, {"bufferView": 3, "byteOffset": 0, "componentType": 5123, "count": 6, "type": "SCALAR"}, {"bufferView": 4, "byteOffset": 0, "componentType": 5126, "count": 4, "type": "VEC3", "min": [-0.082275390625, -0.001953125, -0.0478515625], "max": [0.082275390625, 0.15576171875, -0.000244140625]}, {"bufferView": 5, "byteOffset": 0, "componentType": 5126, "count": 4, "type": "VEC2"}, {"bufferView": 6, "byteOffset": 0, "componentType": 5126, "count": 4, "type": "VEC3"}, {"bufferView": 7, "byteOffset": 0, "componentType": 5123, "count": 6, "type": "SCALAR"}], "samplers": [{"magFilter": 9729, "minFilter": 9729, "wrapS": 10497, "wrapT": 10497}]}