{"asset": {"version": "2.0", "generator": "tongari-nsbmd-to-gltf"}, "scene": 0, "scenes": [{"nodes": [0, 1]}], "nodes": [{"name": "kb_system_add", "translation": [0.0, 0.0, 0.0]}, {"mesh": 0, "name": "kb_system_add"}], "meshes": [{"name": "kb_system_add", "primitives": [{"attributes": {"POSITION": 0, "TEXCOORD_0": 1, "NORMAL": 2}, "indices": 3, "mode": 4, "material": 19}, {"attributes": {"POSITION": 4, "TEXCOORD_0": 5, "NORMAL": 6}, "indices": 7, "mode": 4, "material": 30}, {"attributes": {"POSITION": 8, "TEXCOORD_0": 9, "NORMAL": 10}, "indices": 11, "mode": 4, "material": 35}, {"attributes": {"POSITION": 12, "TEXCOORD_0": 13, "NORMAL": 14}, "indices": 15, "mode": 4, "material": 38}, {"attributes": {"POSITION": 16, "TEXCOORD_0": 17, "NORMAL": 18}, "indices": 19, "mode": 4, "material": 28}, {"attributes": {"POSITION": 20, "TEXCOORD_0": 21, "NORMAL": 22}, "indices": 23, "mode": 4, "material": 22}, {"attributes": {"POSITION": 24, "TEXCOORD_0": 25, "NORMAL": 26}, "indices": 27, "mode": 4, "material": 36}, {"attributes": {"POSITION": 28, "TEXCOORD_0": 29}, "indices": 30, "mode": 4, "material": 23}, {"attributes": {"POSITION": 31, "TEXCOORD_0": 32, "NORMAL": 33}, "indices": 34, "mode": 4, "material": 11}, {"attributes": {"POSITION": 35, "TEXCOORD_0": 36, "NORMAL": 37}, "indices": 38, "mode": 4, "material": 1}, {"attributes": {"POSITION": 39, "TEXCOORD_0": 40, "NORMAL": 41}, "indices": 42, "mode": 4, "material": 24}, {"attributes": {"POSITION": 43, "TEXCOORD_0": 44}, "indices": 45, "mode": 4, "material": 9}, {"attributes": {"POSITION": 46, "TEXCOORD_0": 47, "NORMAL": 48}, "indices": 49, "mode": 4, "material": 34}, {"attributes": {"POSITION": 50, "TEXCOORD_0": 51, "NORMAL": 52}, "indices": 53, "mode": 4, "material": 7}, {"attributes": {"POSITION": 54, "TEXCOORD_0": 55, "NORMAL": 56}, "indices": 57, "mode": 4, "material": 31}, {"attributes": {"POSITION": 58, "TEXCOORD_0": 59}, "indices": 60, "mode": 4, "material": 21}, {"attributes": {"POSITION": 61, "TEXCOORD_0": 62, "NORMAL": 63}, "indices": 64, "mode": 4, "material": 37}, {"attributes": {"POSITION": 65, "TEXCOORD_0": 66, "NORMAL": 67}, "indices": 68, "mode": 4, "material": 15}, {"attributes": {"POSITION": 69, "TEXCOORD_0": 70, "NORMAL": 71}, "indices": 72, "mode": 4, "material": 26}, {"attributes": {"POSITION": 73, "TEXCOORD_0": 74, "NORMAL": 75}, "indices": 76, "mode": 4, "material": 32}, {"attributes": {"POSITION": 77, "TEXCOORD_0": 78, "NORMAL": 79}, "indices": 80, "mode": 4, "material": 27}, {"attributes": {"POSITION": 81, "TEXCOORD_0": 82, "NORMAL": 83}, "indices": 84, "mode": 4, "material": 2}, {"attributes": {"POSITION": 85, "TEXCOORD_0": 86, "NORMAL": 87}, "indices": 88, "mode": 4, "material": 8}, {"attributes": {"POSITION": 89, "TEXCOORD_0": 90, "NORMAL": 91}, "indices": 92, "mode": 4, "material": 5}, {"attributes": {"POSITION": 93, "TEXCOORD_0": 94, "NORMAL": 95}, "indices": 96, "mode": 4, "material": 29}, {"attributes": {"POSITION": 97, "TEXCOORD_0": 98, "NORMAL": 99}, "indices": 100, "mode": 4, "material": 6}, {"attributes": {"POSITION": 101, "TEXCOORD_0": 102, "NORMAL": 103}, "indices": 104, "mode": 4, "material": 20}, {"attributes": {"POSITION": 105, "TEXCOORD_0": 106, "NORMAL": 107}, "indices": 108, "mode": 4, "material": 14}, {"attributes": {"POSITION": 109, "TEXCOORD_0": 110, "NORMAL": 111}, "indices": 112, "mode": 4, "material": 17}, {"attributes": {"POSITION": 113, "TEXCOORD_0": 114, "NORMAL": 115}, "indices": 116, "mode": 4, "material": 12}, {"attributes": {"POSITION": 117, "TEXCOORD_0": 118, "NORMAL": 119}, "indices": 120, "mode": 4, "material": 0}, {"attributes": {"POSITION": 121, "TEXCOORD_0": 122, "NORMAL": 123}, "indices": 124, "mode": 4, "material": 13}, {"attributes": {"POSITION": 125, "TEXCOORD_0": 126, "NORMAL": 127}, "indices": 128, "mode": 4, "material": 4}, {"attributes": {"POSITION": 129, "TEXCOORD_0": 130, "NORMAL": 131}, "indices": 132, "mode": 4, "material": 3}, {"attributes": {"POSITION": 133, "TEXCOORD_0": 134, "NORMAL": 135}, "indices": 136, "mode": 4, "material": 25}, {"attributes": {"POSITION": 137, "TEXCOORD_0": 138, "NORMAL": 139}, "indices": 140, "mode": 4, "material": 16}, {"attributes": {"POSITION": 141, "TEXCOORD_0": 142, "NORMAL": 143}, "indices": 144, "mode": 4, "material": 10}, {"attributes": {"POSITION": 145, "TEXCOORD_0": 146, "NORMAL": 147}, "indices": 148, "mode": 4, "material": 33}, {"attributes": {"POSITION": 149, "TEXCOORD_0": 150, "NORMAL": 151}, "indices": 152, "mode": 4, "material": 18}]}], "materials": [{"name": "cho00", "pbrMetallicRoughness": {"baseColorFactor": [0.803921568627451, 0.803921568627451, 0.803921568627451, 1.0], "metallicFactor": 0.0, "roughnessFactor": 1.0}, "alphaMode": "OPAQUE", "doubleSided": true}, {"name": "cute_desk01", "pbrMetallicRoughness": {"baseColorFactor": [1.0, 1.0, 1.0, 1.0], "metallicFactor": 0.0, "roughnessFactor": 1.0}, "alphaMode": "OPAQUE", "doubleSided": true}, {"name": "cute_fruits00", "pbrMetallicRoughness": {"baseColorFactor": [0.803921568627451, 0.803921568627451, 0.803921568627451, 1.0], "metallicFactor": 0.0, "roughnessFactor": 1.0}, "alphaMode": "OPAQUE", "doubleSided": true}, {"name": "cute_k_light0", "pbrMetallicRoughness": {"baseColorFactor": [0.803921568627451, 0.803921568627451, 0.803921568627451, 1.0], "metallicFactor": 0.0, "roughnessFactor": 1.0}, "alphaMode": "OPAQUE", "doubleSided": true}, {"name": "cute_otama00", "pbrMetallicRoughness": {"baseColorFactor": [0.803921568627451, 0.803921568627451, 0.803921568627451, 1.0], "metallicFactor": 0.0, "roughnessFactor": 1.0}, "alphaMode": "OPAQUE", "doubleSided": true}, {"name": "cute_pi01", "pbrMetallicRoughness": {"baseColorFactor": [0.803921568627451, 0.803921568627451, 0.803921568627451, 1.0], "metallicFactor": 0.0, "roughnessFactor": 1.0}, "alphaMode": "OPAQUE", "doubleSided": true}, {"name": "cute_sara02", "pbrMetallicRoughness": {"baseColorFactor": [0.803921568627451, 0.803921568627451, 0.803921568627451, 1.0], "metallicFactor": 0.0, "roughnessFactor": 1.0}, "alphaMode": "OPAQUE", "doubleSided": true}, {"name": "cute_step01", "pbrMetallicRoughness": {"baseColorFactor": [0.803921568627451, 0.803921568627451, 0.803921568627451, 1.0], "metallicFactor": 0.0, "roughnessFactor": 1.0}, "alphaMode": "OPAQUE", "doubleSided": true}, {"name": "cute_tile00", "pbrMetallicRoughness": {"baseColorFactor": [0.803921568627451, 0.803921568627451, 0.803921568627451, 1.0], "metallicFactor": 0.0, "roughnessFactor": 1.0}, "alphaMode": "OPAQUE", "doubleSided": true}, {"name": "cute_tile01", "pbrMetallicRoughness": {"baseColorFactor": [0.803921568627451, 0.803921568627451, 0.803921568627451, 1.0], "metallicFactor": 0.0, "roughnessFactor": 1.0}, "alphaMode": "OPAQUE", "doubleSided": true}, {"name": "dai", "pbrMetallicRoughness": {"baseColorFactor": [0.803921568627451, 0.803921568627451, 0.803921568627451, 1.0], "metallicFactor": 0.0, "roughnessFactor": 1.0}, "alphaMode": "OPAQUE", "doubleSided": true}, {"name": "desk00", "pbrMetallicRoughness": {"baseColorFactor": [0.803921568627451, 0.803921568627451, 0.803921568627451, 1.0], "metallicFactor": 0.0, "roughnessFactor": 1.0}, "alphaMode": "OPAQUE", "doubleSided": true}, {"name": "floor", "pbrMetallicRoughness": {"baseColorFactor": [1.0, 1.0, 1.0, 1.0], "metallicFactor": 0.0, "roughnessFactor": 1.0}, "alphaMode": "OPAQUE", "doubleSided": true}, {"name": "front00", "pbrMetallicRoughness": {"baseColorFactor": [0.803921568627451, 0.803921568627451, 0.803921568627451, 1.0], "metallicFactor": 0.0, "roughnessFactor": 1.0}, "alphaMode": "OPAQUE", "doubleSided": true}, {"name": "hakari", "pbrMetallicRoughness": {"baseColorFactor": [1.0, 1.0, 1.0, 1.0], "metallicFactor": 0.0, "roughnessFactor": 1.0}, "alphaMode": "OPAQUE", "doubleSided": true}, {"name": "hikidasi", "pbrMetallicRoughness": {"baseColorFactor": [1.0, 1.0, 1.0, 1.0], "metallicFactor": 0.0, "roughnessFactor": 1.0}, "alphaMode": "OPAQUE", "doubleSided": true}, {"name": "kago", "pbrMetallicRoughness": {"baseColorFactor": [0.803921568627451, 0.803921568627451, 0.803921568627451, 1.0], "metallicFactor": 0.0, "roughnessFactor": 1.0}, "alphaMode": "OPAQUE", "doubleSided": true}, {"name": "kanki00", "pbrMetallicRoughness": {"baseColorFactor": [1.0, 1.0, 1.0, 1.0], "metallicFactor": 0.0, "roughnessFactor": 1.0}, "alphaMode": "OPAQUE", "doubleSided": true}, {"name": "kb_pan05", "pbrMetallicRoughness": {"baseColorFactor": [0.803921568627451, 0.803921568627451, 0.803921568627451, 1.0], "metallicFactor": 0.0, "roughnessFactor": 1.0}, "alphaMode": "OPAQUE", "doubleSided": true}, {"name": "kb_pan06", "pbrMetallicRoughness": {"baseColorFactor": [0.803921568627451, 0.803921568627451, 0.803921568627451, 1.0], "metallicFactor": 0.0, "roughnessFactor": 1.0}, "alphaMode": "OPAQUE", "doubleSided": true}, {"name": "komono00", "pbrMetallicRoughness": {"baseColorFactor": [0.803921568627451, 0.803921568627451, 0.803921568627451, 1.0], "metallicFactor": 0.0, "roughnessFactor": 1.0}, "alphaMode": "OPAQUE", "doubleSided": true}, {"name": "konro", "pbrMetallicRoughness": {"baseColorFactor": [0.803921568627451, 0.803921568627451, 0.803921568627451, 1.0], "metallicFactor": 0.0, "roughnessFactor": 1.0}, "alphaMode": "OPAQUE", "doubleSided": true}, {"name": "object_shade", "pbrMetallicRoughness": {"baseColorFactor": [0.803921568627451, 0.803921568627451, 0.803921568627451, 0.41935483870967744], "metallicFactor": 0.0, "roughnessFactor": 1.0}, "alphaMode": "BLEND", "doubleSided": true}, {"name": "ogama01", "pbrMetallicRoughness": {"baseColorFactor": [0.803921568627451, 0.803921568627451, 0.803921568627451, 1.0], "metallicFactor": 0.0, "roughnessFactor": 1.0}, "alphaMode": "OPAQUE", "doubleSided": true}, {"name": "ogama02", "pbrMetallicRoughness": {"baseColorFactor": [0.803921568627451, 0.803921568627451, 0.803921568627451, 1.0], "metallicFactor": 0.0, "roughnessFactor": 1.0}, "alphaMode": "OPAQUE", "doubleSided": true}, {"name": "pi00", "pbrMetallicRoughness": {"baseColorFactor": [0.803921568627451, 0.803921568627451, 0.803921568627451, 1.0], "metallicFactor": 0.0, "roughnessFactor": 1.0}, "alphaMode": "OPAQUE", "doubleSided": true}, {"name": "plane1", "pbrMetallicRoughness": {"baseColorFactor": [0.803921568627451, 0.803921568627451, 0.803921568627451, 1.0], "metallicFactor": 0.0, "roughnessFactor": 1.0}, "alphaMode": "OPAQUE", "doubleSided": true}, {"name": "renga", "pbrMetallicRoughness": {"baseColorFactor": [0.803921568627451, 0.803921568627451, 0.803921568627451, 1.0], "metallicFactor": 0.0, "roughnessFactor": 1.0}, "alphaMode": "OPAQUE", "doubleSided": true}, {"name": "room_mat00", "pbrMetallicRoughness": {"baseColorFactor": [1.0, 1.0, 1.0, 1.0], "metallicFactor": 0.0, "roughnessFactor": 1.0}, "alphaMode": "OPAQUE", "doubleSided": true}, {"name": "saku00", "pbrMetallicRoughness": {"baseColorFactor": [1.0, 1.0, 1.0, 1.0], "metallicFactor": 0.0, "roughnessFactor": 1.0}, "alphaMode": "OPAQUE", "doubleSided": true}, {"name": "shade1", "pbrMetallicRoughness": {"baseColorFactor": [0.803921568627451, 0.803921568627451, 0.803921568627451, 1.0], "metallicFactor": 0.0, "roughnessFactor": 1.0}, "alphaMode": "OPAQUE", "doubleSided": true}, {"name": "shikii0", "pbrMetallicRoughness": {"baseColorFactor": [1.0, 1.0, 1.0, 1.0], "metallicFactor": 0.0, "roughnessFactor": 1.0}, "alphaMode": "OPAQUE", "doubleSided": true}, {"name": "shokusen0", "pbrMetallicRoughness": {"baseColorFactor": [1.0, 1.0, 1.0, 1.0], "metallicFactor": 0.0, "roughnessFactor": 1.0}, "alphaMode": "OPAQUE", "doubleSided": true}, {"name": "spot00", "pbrMetallicRoughness": {"baseColorFactor": [1.0, 1.0, 1.0, 1.0], "metallicFactor": 0.0, "roughnessFactor": 1.0}, "alphaMode": "OPAQUE", "doubleSided": true}, {"name": "step1", "pbrMetallicRoughness": {"baseColorFactor": [1.0, 1.0, 1.0, 1.0], "metallicFactor": 0.0, "roughnessFactor": 1.0}, "alphaMode": "OPAQUE", "doubleSided": true}, {"name": "step_base2", "pbrMetallicRoughness": {"baseColorFactor": [1.0, 1.0, 1.0, 1.0], "metallicFactor": 0.0, "roughnessFactor": 1.0}, "alphaMode": "OPAQUE", "doubleSided": true}, {"name": "step_side1", "pbrMetallicRoughness": {"baseColorFactor": [1.0, 1.0, 1.0, 1.0], "metallicFactor": 0.0, "roughnessFactor": 1.0}, "alphaMode": "OPAQUE", "doubleSided": true}, {"name": "tana", "pbrMetallicRoughness": {"baseColorFactor": [0.803921568627451, 0.803921568627451, 0.803921568627451, 1.0], "metallicFactor": 0.0, "roughnessFactor": 1.0}, "alphaMode": "OPAQUE", "doubleSided": true}, {"name": "tree1", "pbrMetallicRoughness": {"baseColorFactor": [1.0, 1.0, 1.0, 1.0], "metallicFactor": 0.0, "roughnessFactor": 1.0}, "alphaMode": "OPAQUE", "doubleSided": true}], "buffers": [{"byteLength": 62356, "uri": "data:application/octet-stream;base64,"}], "bufferViews": [{"buffer": 0, "byteOffset": 0, "byteLength": 216}, {"buffer": 0, "byteOffset": 216, "byteLength": 144}, {"buffer": 0, "byteOffset": 360, "byteLength": 216}, {"buffer": 0, "byteOffset": 576, "byteLength": 60}, {"buffer": 0, "byteOffset": 636, "byteLength": 504}, {"buffer": 0, "byteOffset": 1140, "byteLength": 336}, {"buffer": 0, "byteOffset": 1476, "byteLength": 504}, {"buffer": 0, "byteOffset": 1980, "byteLength": 120}, {"buffer": 0, "byteOffset": 2100, "byteLength": 528}, {"buffer": 0, "byteOffset": 2628, "byteLength": 352}, {"buffer": 0, "byteOffset": 2980, "byteLength": 528}, {"buffer": 0, "byteOffset": 3508, "byteLength": 132}, {"buffer": 0, "byteOffset": 3640, "byteLength": 1392}, {"buffer": 0, "byteOffset": 5032, "byteLength": 928}, {"buffer": 0, "byteOffset": 5960, "byteLength": 1392}, {"buffer": 0, "byteOffset": 7352, "byteLength": 456}, {"buffer": 0, "byteOffset": 7808, "byteLength": 168}, {"buffer": 0, "byteOffset": 7976, "byteLength": 112}, {"buffer": 0, "byteOffset": 8088, "byteLength": 168}, {"buffer": 0, "byteOffset": 8256, "byteLength": 48}, {"buffer": 0, "byteOffset": 8304, "byteLength": 852}, {"buffer": 0, "byteOffset": 9156, "byteLength": 568}, {"buffer": 0, "byteOffset": 9724, "byteLength": 852}, {"buffer": 0, "byteOffset": 10576, "byteLength": 210}, {"buffer": 0, "byteOffset": 10788, "byteLength": 372}, {"buffer": 0, "byteOffset": 11160, "byteLength": 248}, {"buffer": 0, "byteOffset": 11408, "byteLength": 372}, {"buffer": 0, "byteOffset": 11780, "byteLength": 102}, {"buffer": 0, "byteOffset": 11884, "byteLength": 1032}, {"buffer": 0, "byteOffset": 12916, "byteLength": 688}, {"buffer": 0, "byteOffset": 13604, "byteLength": 432}, {"buffer": 0, "byteOffset": 14036, "byteLength": 240}, {"buffer": 0, "byteOffset": 14276, "byteLength": 160}, {"buffer": 0, "byteOffset": 14436, "byteLength": 240}, {"buffer": 0, "byteOffset": 14676, "byteLength": 72}, {"buffer": 0, "byteOffset": 14748, "byteLength": 300}, {"buffer": 0, "byteOffset": 15048, "byteLength": 200}, {"buffer": 0, "byteOffset": 15248, "byteLength": 300}, {"buffer": 0, "byteOffset": 15548, "byteLength": 78}, {"buffer": 0, "byteOffset": 15628, "byteLength": 432}, {"buffer": 0, "byteOffset": 16060, "byteLength": 288}, {"buffer": 0, "byteOffset": 16348, "byteLength": 432}, {"buffer": 0, "byteOffset": 16780, "byteLength": 144}, {"buffer": 0, "byteOffset": 16924, "byteLength": 168}, {"buffer": 0, "byteOffset": 17092, "byteLength": 112}, {"buffer": 0, "byteOffset": 17204, "byteLength": 48}, {"buffer": 0, "byteOffset": 17252, "byteLength": 852}, {"buffer": 0, "byteOffset": 18104, "byteLength": 568}, {"buffer": 0, "byteOffset": 18672, "byteLength": 852}, {"buffer": 0, "byteOffset": 19524, "byteLength": 258}, {"buffer": 0, "byteOffset": 19784, "byteLength": 528}, {"buffer": 0, "byteOffset": 20312, "byteLength": 352}, {"buffer": 0, "byteOffset": 20664, "byteLength": 528}, {"buffer": 0, "byteOffset": 21192, "byteLength": 132}, {"buffer": 0, "byteOffset": 21324, "byteLength": 456}, {"buffer": 0, "byteOffset": 21780, "byteLength": 304}, {"buffer": 0, "byteOffset": 22084, "byteLength": 456}, {"buffer": 0, "byteOffset": 22540, "byteLength": 120}, {"buffer": 0, "byteOffset": 22660, "byteLength": 72}, {"buffer": 0, "byteOffset": 22732, "byteLength": 48}, {"buffer": 0, "byteOffset": 22780, "byteLength": 24}, {"buffer": 0, "byteOffset": 22804, "byteLength": 2340}, {"buffer": 0, "byteOffset": 25144, "byteLength": 1560}, {"buffer": 0, "byteOffset": 26704, "byteLength": 2340}, {"buffer": 0, "byteOffset": 29044, "byteLength": 654}, {"buffer": 0, "byteOffset": 29700, "byteLength": 672}, {"buffer": 0, "byteOffset": 30372, "byteLength": 448}, {"buffer": 0, "byteOffset": 30820, "byteLength": 672}, {"buffer": 0, "byteOffset": 31492, "byteLength": 168}, {"buffer": 0, "byteOffset": 31660, "byteLength": 192}, {"buffer": 0, "byteOffset": 31852, "byteLength": 128}, {"buffer": 0, "byteOffset": 31980, "byteLength": 192}, {"buffer": 0, "byteOffset": 32172, "byteLength": 48}, {"buffer": 0, "byteOffset": 32220, "byteLength": 120}, {"buffer": 0, "byteOffset": 32340, "byteLength": 80}, {"buffer": 0, "byteOffset": 32420, "byteLength": 120}, {"buffer": 0, "byteOffset": 32540, "byteLength": 36}, {"buffer": 0, "byteOffset": 32576, "byteLength": 528}, {"buffer": 0, "byteOffset": 33104, "byteLength": 352}, {"buffer": 0, "byteOffset": 33456, "byteLength": 528}, {"buffer": 0, "byteOffset": 33984, "byteLength": 168}, {"buffer": 0, "byteOffset": 34152, "byteLength": 312}, {"buffer": 0, "byteOffset": 34464, "byteLength": 208}, {"buffer": 0, "byteOffset": 34672, "byteLength": 312}, {"buffer": 0, "byteOffset": 34984, "byteLength": 84}, {"buffer": 0, "byteOffset": 35068, "byteLength": 336}, {"buffer": 0, "byteOffset": 35404, "byteLength": 224}, {"buffer": 0, "byteOffset": 35628, "byteLength": 336}, {"buffer": 0, "byteOffset": 35964, "byteLength": 96}, {"buffer": 0, "byteOffset": 36060, "byteLength": 96}, {"buffer": 0, "byteOffset": 36156, "byteLength": 64}, {"buffer": 0, "byteOffset": 36220, "byteLength": 96}, {"buffer": 0, "byteOffset": 36316, "byteLength": 24}, {"buffer": 0, "byteOffset": 36340, "byteLength": 672}, {"buffer": 0, "byteOffset": 37012, "byteLength": 448}, {"buffer": 0, "byteOffset": 37460, "byteLength": 672}, {"buffer": 0, "byteOffset": 38132, "byteLength": 180}, {"buffer": 0, "byteOffset": 38312, "byteLength": 240}, {"buffer": 0, "byteOffset": 38552, "byteLength": 160}, {"buffer": 0, "byteOffset": 38712, "byteLength": 240}, {"buffer": 0, "byteOffset": 38952, "byteLength": 60}, {"buffer": 0, "byteOffset": 39012, "byteLength": 48}, {"buffer": 0, "byteOffset": 39060, "byteLength": 32}, {"buffer": 0, "byteOffset": 39092, "byteLength": 48}, {"buffer": 0, "byteOffset": 39140, "byteLength": 12}, {"buffer": 0, "byteOffset": 39152, "byteLength": 156}, {"buffer": 0, "byteOffset": 39308, "byteLength": 104}, {"buffer": 0, "byteOffset": 39412, "byteLength": 156}, {"buffer": 0, "byteOffset": 39568, "byteLength": 42}, {"buffer": 0, "byteOffset": 39612, "byteLength": 420}, {"buffer": 0, "byteOffset": 40032, "byteLength": 280}, {"buffer": 0, "byteOffset": 40312, "byteLength": 420}, {"buffer": 0, "byteOffset": 40732, "byteLength": 126}, {"buffer": 0, "byteOffset": 40860, "byteLength": 300}, {"buffer": 0, "byteOffset": 41160, "byteLength": 200}, {"buffer": 0, "byteOffset": 41360, "byteLength": 300}, {"buffer": 0, "byteOffset": 41660, "byteLength": 66}, {"buffer": 0, "byteOffset": 41728, "byteLength": 792}, {"buffer": 0, "byteOffset": 42520, "byteLength": 528}, {"buffer": 0, "byteOffset": 43048, "byteLength": 792}, {"buffer": 0, "byteOffset": 43840, "byteLength": 264}, {"buffer": 0, "byteOffset": 44104, "byteLength": 120}, {"buffer": 0, "byteOffset": 44224, "byteLength": 80}, {"buffer": 0, "byteOffset": 44304, "byteLength": 120}, {"buffer": 0, "byteOffset": 44424, "byteLength": 36}, {"buffer": 0, "byteOffset": 44460, "byteLength": 96}, {"buffer": 0, "byteOffset": 44556, "byteLength": 64}, {"buffer": 0, "byteOffset": 44620, "byteLength": 96}, {"buffer": 0, "byteOffset": 44716, "byteLength": 24}, {"buffer": 0, "byteOffset": 44740, "byteLength": 264}, {"buffer": 0, "byteOffset": 45004, "byteLength": 176}, {"buffer": 0, "byteOffset": 45180, "byteLength": 264}, {"buffer": 0, "byteOffset": 45444, "byteLength": 60}, {"buffer": 0, "byteOffset": 45504, "byteLength": 96}, {"buffer": 0, "byteOffset": 45600, "byteLength": 64}, {"buffer": 0, "byteOffset": 45664, "byteLength": 96}, {"buffer": 0, "byteOffset": 45760, "byteLength": 36}, {"buffer": 0, "byteOffset": 45796, "byteLength": 288}, {"buffer": 0, "byteOffset": 46084, "byteLength": 192}, {"buffer": 0, "byteOffset": 46276, "byteLength": 288}, {"buffer": 0, "byteOffset": 46564, "byteLength": 72}, {"buffer": 0, "byteOffset": 46636, "byteLength": 984}, {"buffer": 0, "byteOffset": 47620, "byteLength": 656}, {"buffer": 0, "byteOffset": 48276, "byteLength": 984}, {"buffer": 0, "byteOffset": 49260, "byteLength": 264}, {"buffer": 0, "byteOffset": 49524, "byteLength": 288}, {"buffer": 0, "byteOffset": 49812, "byteLength": 192}, {"buffer": 0, "byteOffset": 50004, "byteLength": 288}, {"buffer": 0, "byteOffset": 50292, "byteLength": 72}, {"buffer": 0, "byteOffset": 50364, "byteLength": 4128}, {"buffer": 0, "byteOffset": 54492, "byteLength": 2752}, {"buffer": 0, "byteOffset": 57244, "byteLength": 4128}, {"buffer": 0, "byteOffset": 61372, "byteLength": 984}], "accessors": [{"bufferView": 0, "byteOffset": 0, "componentType": 5126, "count": 18, "type": "VEC3", "min": [3.044677734375, 0.16455078125, 2.379150390625], "max": [3.4208984375, 0.1650390625, 3.074462890625]}, {"bufferView": 1, "byteOffset": 0, "componentType": 5126, "count": 18, "type": "VEC2"}, {"bufferView": 2, "byteOffset": 0, "componentType": 5126, "count": 18, "type": "VEC3"}, {"bufferView": 3, "byteOffset": 0, "componentType": 5123, "count": 30, "type": "SCALAR"}, {"bufferView": 4, "byteOffset": 0, "componentType": 5126, "count": 42, "type": "VEC3", "min": [-1.166259765625, -0.04248046875, 4.02197265625], "max": [0.560791015625, 1.8193359375, 4.028564453125]}, {"bufferView": 5, "byteOffset": 0, "componentType": 5126, "count": 42, "type": "VEC2"}, {"bufferView": 6, "byteOffset": 0, "componentType": 5126, "count": 42, "type": "VEC3"}, {"bufferView": 7, "byteOffset": 0, "componentType": 5123, "count": 60, "type": "SCALAR"}, {"bufferView": 8, "byteOffset": 0, "componentType": 5126, "count": 44, "type": "VEC3", "min": [-0.281494140625, 0.0, 4.00048828125], "max": [0.75, 0.247802734375, 4.855224609375]}, {"bufferView": 9, "byteOffset": 0, "componentType": 5126, "count": 44, "type": "VEC2"}, {"bufferView": 10, "byteOffset": 0, "componentType": 5126, "count": 44, "type": "VEC3"}, {"bufferView": 11, "byteOffset": 0, "componentType": 5123, "count": 66, "type": "SCALAR"}, {"bufferView": 12, "byteOffset": 0, "componentType": 5126, "count": 116, "type": "VEC3", "min": [0.385009765625, -0.00634765625, 4.03662109375], "max": [3.62158203125, 1.90576171875, 4.111328125]}, {"bufferView": 13, "byteOffset": 0, "componentType": 5126, "count": 116, "type": "VEC2"}, {"bufferView": 14, "byteOffset": 0, "componentType": 5126, "count": 116, "type": "VEC3"}, {"bufferView": 15, "byteOffset": 0, "componentType": 5123, "count": 228, "type": "SCALAR"}, {"bufferView": 16, "byteOffset": 0, "componentType": 5126, "count": 14, "type": "VEC3", "min": [0.75, 0.0, 4.0], "max": [2.5, 0.0, 4.74951171875]}, {"bufferView": 17, "byteOffset": 0, "componentType": 5126, "count": 14, "type": "VEC2"}, {"bufferView": 18, "byteOffset": 0, "componentType": 5126, "count": 14, "type": "VEC3"}, {"bufferView": 19, "byteOffset": 0, "componentType": 5123, "count": 24, "type": "SCALAR"}, {"bufferView": 20, "byteOffset": 0, "componentType": 5126, "count": 71, "type": "VEC3", "min": [-0.260498046875, 0.006591796875, -0.375244140625], "max": [3.50732421875, 0.85888671875, 4.727294921875]}, {"bufferView": 21, "byteOffset": 0, "componentType": 5126, "count": 71, "type": "VEC2"}, {"bufferView": 22, "byteOffset": 0, "componentType": 5126, "count": 71, "type": "VEC3"}, {"bufferView": 23, "byteOffset": 0, "componentType": 5123, "count": 105, "type": "SCALAR"}, {"bufferView": 24, "byteOffset": 0, "componentType": 5126, "count": 31, "type": "VEC3", "min": [0.07373046875, -0.049560546875, 4.394287109375], "max": [0.75, 0.247802734375, 4.855224609375]}, {"bufferView": 25, "byteOffset": 0, "componentType": 5126, "count": 31, "type": "VEC2"}, {"bufferView": 26, "byteOffset": 0, "componentType": 5126, "count": 31, "type": "VEC3"}, {"bufferView": 27, "byteOffset": 0, "componentType": 5123, "count": 51, "type": "SCALAR"}, {"bufferView": 28, "byteOffset": 0, "componentType": 5126, "count": 86, "type": "VEC3", "min": [1.320556640625, 0.3759765625, 0.222412109375], "max": [2.181640625, 1.037109375, 1.083251953125]}, {"bufferView": 29, "byteOffset": 0, "componentType": 5126, "count": 86, "type": "VEC2"}, {"bufferView": 30, "byteOffset": 0, "componentType": 5123, "count": 216, "type": "SCALAR"}, {"bufferView": 31, "byteOffset": 0, "componentType": 5126, "count": 20, "type": "VEC3", "min": [0.5, 0.0, 2.319580078125], "max": [3.5, 0.113037109375, 3.625]}, {"bufferView": 32, "byteOffset": 0, "componentType": 5126, "count": 20, "type": "VEC2"}, {"bufferView": 33, "byteOffset": 0, "componentType": 5126, "count": 20, "type": "VEC3"}, {"bufferView": 34, "byteOffset": 0, "componentType": 5123, "count": 36, "type": "SCALAR"}, {"bufferView": 35, "byteOffset": 0, "componentType": 5126, "count": 25, "type": "VEC3", "min": [0.5, 0.10009765625, 2.319580078125], "max": [3.5, 0.14990234375, 3.6591796875]}, {"bufferView": 36, "byteOffset": 0, "componentType": 5126, "count": 25, "type": "VEC2"}, {"bufferView": 37, "byteOffset": 0, "componentType": 5126, "count": 25, "type": "VEC3"}, {"bufferView": 38, "byteOffset": 0, "componentType": 5123, "count": 39, "type": "SCALAR"}, {"bufferView": 39, "byteOffset": 0, "componentType": 5126, "count": 36, "type": "VEC3", "min": [1.456787109375, 0.250732421875, 0.758544921875], "max": [2.036865234375, 0.375, 1.027587890625]}, {"bufferView": 40, "byteOffset": 0, "componentType": 5126, "count": 36, "type": "VEC2"}, {"bufferView": 41, "byteOffset": 0, "componentType": 5126, "count": 36, "type": "VEC3"}, {"bufferView": 42, "byteOffset": 0, "componentType": 5123, "count": 72, "type": "SCALAR"}, {"bufferView": 43, "byteOffset": 0, "componentType": 5126, "count": 14, "type": "VEC3", "min": [0.5, 0.0, 1.25], "max": [3.5, 1.8154296875, 4.0]}, {"bufferView": 44, "byteOffset": 0, "componentType": 5126, "count": 14, "type": "VEC2"}, {"bufferView": 45, "byteOffset": 0, "componentType": 5123, "count": 24, "type": "SCALAR"}, {"bufferView": 46, "byteOffset": 0, "componentType": 5126, "count": 71, "type": "VEC3", "min": [1.300048828125, -0.002685546875, -0.20751953125], "max": [2.82958984375, 0.883056640625, 1.616943359375]}, {"bufferView": 47, "byteOffset": 0, "componentType": 5126, "count": 71, "type": "VEC2"}, {"bufferView": 48, "byteOffset": 0, "componentType": 5126, "count": 71, "type": "VEC3"}, {"bufferView": 49, "byteOffset": 0, "componentType": 5123, "count": 129, "type": "SCALAR"}, {"bufferView": 50, "byteOffset": 0, "componentType": 5126, "count": 44, "type": "VEC3", "min": [1.9599609375, -0.002685546875, 0.55029296875], "max": [2.7275390625, 0.779296875, 1.616943359375]}, {"bufferView": 51, "byteOffset": 0, "componentType": 5126, "count": 44, "type": "VEC2"}, {"bufferView": 52, "byteOffset": 0, "componentType": 5126, "count": 44, "type": "VEC3"}, {"bufferView": 53, "byteOffset": 0, "componentType": 5123, "count": 66, "type": "SCALAR"}, {"bufferView": 54, "byteOffset": 0, "componentType": 5126, "count": 38, "type": "VEC3", "min": [3.25, 0.0, 3.219970703125], "max": [3.75439453125, 0.67041015625, 3.781494140625]}, {"bufferView": 55, "byteOffset": 0, "componentType": 5126, "count": 38, "type": "VEC2"}, {"bufferView": 56, "byteOffset": 0, "componentType": 5126, "count": 38, "type": "VEC3"}, {"bufferView": 57, "byteOffset": 0, "componentType": 5123, "count": 60, "type": "SCALAR"}, {"bufferView": 58, "byteOffset": 0, "componentType": 5126, "count": 6, "type": "VEC3", "min": [1.1474609375, -0.03271484375, 0.130615234375], "max": [2.39990234375, 0.247314453125, 1.23681640625]}, {"bufferView": 59, "byteOffset": 0, "componentType": 5126, "count": 6, "type": "VEC2"}, {"bufferView": 60, "byteOffset": 0, "componentType": 5123, "count": 12, "type": "SCALAR"}, {"bufferView": 61, "byteOffset": 0, "componentType": 5126, "count": 195, "type": "VEC3", "min": [0.47509765625, 0.85009765625, 2.39990234375], "max": [3.52490234375, 1.5, 4.0]}, {"bufferView": 62, "byteOffset": 0, "componentType": 5126, "count": 195, "type": "VEC2"}, {"bufferView": 63, "byteOffset": 0, "componentType": 5126, "count": 195, "type": "VEC3"}, {"bufferView": 64, "byteOffset": 0, "componentType": 5123, "count": 327, "type": "SCALAR"}, {"bufferView": 65, "byteOffset": 0, "componentType": 5126, "count": 56, "type": "VEC3", "min": [-1.154541015625, 0.0, -0.177490234375], "max": [3.52490234375, 1.824951171875, 4.0]}, {"bufferView": 66, "byteOffset": 0, "componentType": 5126, "count": 56, "type": "VEC2"}, {"bufferView": 67, "byteOffset": 0, "componentType": 5126, "count": 56, "type": "VEC3"}, {"bufferView": 68, "byteOffset": 0, "componentType": 5123, "count": 84, "type": "SCALAR"}, {"bufferView": 69, "byteOffset": 0, "componentType": 5126, "count": 16, "type": "VEC3", "min": [-1.154541015625, -1.83349609375, 3.25244140625], "max": [4.39453125, 1.805908203125, 4.02783203125]}, {"bufferView": 70, "byteOffset": 0, "componentType": 5126, "count": 16, "type": "VEC2"}, {"bufferView": 71, "byteOffset": 0, "componentType": 5126, "count": 16, "type": "VEC3"}, {"bufferView": 72, "byteOffset": 0, "componentType": 5123, "count": 24, "type": "SCALAR"}, {"bufferView": 73, "byteOffset": 0, "componentType": 5126, "count": 10, "type": "VEC3", "min": [0.52490234375, 0.14990234375, 2.35009765625], "max": [0.875, 0.85009765625, 2.75]}, {"bufferView": 74, "byteOffset": 0, "componentType": 5126, "count": 10, "type": "VEC2"}, {"bufferView": 75, "byteOffset": 0, "componentType": 5126, "count": 10, "type": "VEC3"}, {"bufferView": 76, "byteOffset": 0, "componentType": 5123, "count": 18, "type": "SCALAR"}, {"bufferView": 77, "byteOffset": 0, "componentType": 5126, "count": 44, "type": "VEC3", "min": [0.458740234375, 0.007568359375, 1.248046875], "max": [3.53564453125, 0.057861328125, 2.21533203125]}, {"bufferView": 78, "byteOffset": 0, "componentType": 5126, "count": 44, "type": "VEC2"}, {"bufferView": 79, "byteOffset": 0, "componentType": 5126, "count": 44, "type": "VEC3"}, {"bufferView": 80, "byteOffset": 0, "componentType": 5123, "count": 84, "type": "SCALAR"}, {"bufferView": 81, "byteOffset": 0, "componentType": 5126, "count": 26, "type": "VEC3", "min": [2.55078125, 0.0517578125, 3.885986328125], "max": [2.934326171875, 0.2412109375, 4.114013671875]}, {"bufferView": 82, "byteOffset": 0, "componentType": 5126, "count": 26, "type": "VEC2"}, {"bufferView": 83, "byteOffset": 0, "componentType": 5126, "count": 26, "type": "VEC3"}, {"bufferView": 84, "byteOffset": 0, "componentType": 5123, "count": 42, "type": "SCALAR"}, {"bufferView": 85, "byteOffset": 0, "componentType": 5126, "count": 28, "type": "VEC3", "min": [-1.154541015625, 0.0, -0.177490234375], "max": [3.5, 1.789306640625, 4.0]}, {"bufferView": 86, "byteOffset": 0, "componentType": 5126, "count": 28, "type": "VEC2"}, {"bufferView": 87, "byteOffset": 0, "componentType": 5126, "count": 28, "type": "VEC3"}, {"bufferView": 88, "byteOffset": 0, "componentType": 5123, "count": 48, "type": "SCALAR"}, {"bufferView": 89, "byteOffset": 0, "componentType": 5126, "count": 8, "type": "VEC3", "min": [0.5, 0.625, 1.866455078125], "max": [3.5, 1.300048828125, 4.0]}, {"bufferView": 90, "byteOffset": 0, "componentType": 5126, "count": 8, "type": "VEC2"}, {"bufferView": 91, "byteOffset": 0, "componentType": 5126, "count": 8, "type": "VEC3"}, {"bufferView": 92, "byteOffset": 0, "componentType": 5123, "count": 12, "type": "SCALAR"}, {"bufferView": 93, "byteOffset": 0, "componentType": 5126, "count": 56, "type": "VEC3", "min": [0.52490234375, 0.3671875, -0.125], "max": [3.5, 1.800048828125, 4.0]}, {"bufferView": 94, "byteOffset": 0, "componentType": 5126, "count": 56, "type": "VEC2"}, {"bufferView": 95, "byteOffset": 0, "componentType": 5126, "count": 56, "type": "VEC3"}, {"bufferView": 96, "byteOffset": 0, "componentType": 5123, "count": 90, "type": "SCALAR"}, {"bufferView": 97, "byteOffset": 0, "componentType": 5126, "count": 20, "type": "VEC3", "min": [0.793212890625, 0.882568359375, 2.973876953125], "max": [0.87158203125, 1.107666015625, 3.342041015625]}, {"bufferView": 98, "byteOffset": 0, "componentType": 5126, "count": 20, "type": "VEC2"}, {"bufferView": 99, "byteOffset": 0, "componentType": 5126, "count": 20, "type": "VEC3"}, {"bufferView": 100, "byteOffset": 0, "componentType": 5123, "count": 30, "type": "SCALAR"}, {"bufferView": 101, "byteOffset": 0, "componentType": 5126, "count": 4, "type": "VEC3", "min": [0.6845703125, 0.584716796875, 3.552978515625], "max": [0.88037109375, 0.82373046875, 3.64697265625]}, {"bufferView": 102, "byteOffset": 0, "componentType": 5126, "count": 4, "type": "VEC2"}, {"bufferView": 103, "byteOffset": 0, "componentType": 5126, "count": 4, "type": "VEC3"}, {"bufferView": 104, "byteOffset": 0, "componentType": 5123, "count": 6, "type": "SCALAR"}, {"bufferView": 105, "byteOffset": 0, "componentType": 5126, "count": 13, "type": "VEC3", "min": [0.565673828125, 0.60009765625, 3.631103515625], "max": [0.8134765625, 0.720703125, 3.83154296875]}, {"bufferView": 106, "byteOffset": 0, "componentType": 5126, "count": 13, "type": "VEC2"}, {"bufferView": 107, "byteOffset": 0, "componentType": 5126, "count": 13, "type": "VEC3"}, {"bufferView": 108, "byteOffset": 0, "componentType": 5123, "count": 21, "type": "SCALAR"}, {"bufferView": 109, "byteOffset": 0, "componentType": 5126, "count": 35, "type": "VEC3", "min": [3.009765625, 0.85009765625, 2.39990234375], "max": [3.522216796875, 1.283447265625, 3.074951171875]}, {"bufferView": 110, "byteOffset": 0, "componentType": 5126, "count": 35, "type": "VEC2"}, {"bufferView": 111, "byteOffset": 0, "componentType": 5126, "count": 35, "type": "VEC3"}, {"bufferView": 112, "byteOffset": 0, "componentType": 5123, "count": 63, "type": "SCALAR"}, {"bufferView": 113, "byteOffset": 0, "componentType": 5126, "count": 25, "type": "VEC3", "min": [0.5, 0.0, 1.25], "max": [3.5, 0.0009765625, 4.0]}, {"bufferView": 114, "byteOffset": 0, "componentType": 5126, "count": 25, "type": "VEC2"}, {"bufferView": 115, "byteOffset": 0, "componentType": 5126, "count": 25, "type": "VEC3"}, {"bufferView": 116, "byteOffset": 0, "componentType": 5123, "count": 33, "type": "SCALAR"}, {"bufferView": 117, "byteOffset": 0, "componentType": 5126, "count": 66, "type": "VEC3", "min": [1.40283203125, 0.377685546875, -0.091552734375], "max": [3.486572265625, 1.665771484375, 3.111328125]}, {"bufferView": 118, "byteOffset": 0, "componentType": 5126, "count": 66, "type": "VEC2"}, {"bufferView": 119, "byteOffset": 0, "componentType": 5126, "count": 66, "type": "VEC3"}, {"bufferView": 120, "byteOffset": 0, "componentType": 5123, "count": 132, "type": "SCALAR"}, {"bufferView": 121, "byteOffset": 0, "componentType": 5126, "count": 10, "type": "VEC3", "min": [2.921630859375, 0.0, 3.986328125], "max": [3.36767578125, 0.183837890625, 4.36376953125]}, {"bufferView": 122, "byteOffset": 0, "componentType": 5126, "count": 10, "type": "VEC2"}, {"bufferView": 123, "byteOffset": 0, "componentType": 5126, "count": 10, "type": "VEC3"}, {"bufferView": 124, "byteOffset": 0, "componentType": 5123, "count": 18, "type": "SCALAR"}, {"bufferView": 125, "byteOffset": 0, "componentType": 5126, "count": 8, "type": "VEC3", "min": [3.371337890625, 0.396484375, 2.419189453125], "max": [3.51025390625, 0.701416015625, 2.636474609375]}, {"bufferView": 126, "byteOffset": 0, "componentType": 5126, "count": 8, "type": "VEC2"}, {"bufferView": 127, "byteOffset": 0, "componentType": 5126, "count": 8, "type": "VEC3"}, {"bufferView": 128, "byteOffset": 0, "componentType": 5123, "count": 12, "type": "SCALAR"}, {"bufferView": 129, "byteOffset": 0, "componentType": 5126, "count": 22, "type": "VEC3", "min": [2.724853515625, 0.856201171875, 1.968994140625], "max": [2.988525390625, 2.15380859375, 2.300048828125]}, {"bufferView": 130, "byteOffset": 0, "componentType": 5126, "count": 22, "type": "VEC2"}, {"bufferView": 131, "byteOffset": 0, "componentType": 5126, "count": 22, "type": "VEC3"}, {"bufferView": 132, "byteOffset": 0, "componentType": 5123, "count": 30, "type": "SCALAR"}, {"bufferView": 133, "byteOffset": 0, "componentType": 5126, "count": 8, "type": "VEC3", "min": [2.583740234375, 0.0, 1.324951171875], "max": [2.800048828125, 1.835693359375, 1.47509765625]}, {"bufferView": 134, "byteOffset": 0, "componentType": 5126, "count": 8, "type": "VEC2"}, {"bufferView": 135, "byteOffset": 0, "componentType": 5126, "count": 8, "type": "VEC3"}, {"bufferView": 136, "byteOffset": 0, "componentType": 5123, "count": 18, "type": "SCALAR"}, {"bufferView": 137, "byteOffset": 0, "componentType": 5126, "count": 24, "type": "VEC3", "min": [2.44775390625, 0.0234375, 3.884033203125], "max": [2.9912109375, 0.221923828125, 4.16259765625]}, {"bufferView": 138, "byteOffset": 0, "componentType": 5126, "count": 24, "type": "VEC2"}, {"bufferView": 139, "byteOffset": 0, "componentType": 5126, "count": 24, "type": "VEC3"}, {"bufferView": 140, "byteOffset": 0, "componentType": 5123, "count": 36, "type": "SCALAR"}, {"bufferView": 141, "byteOffset": 0, "componentType": 5126, "count": 82, "type": "VEC3", "min": [0.867431640625, 0.017578125, 1.97119140625], "max": [1.226806640625, 0.27490234375, 2.332275390625]}, {"bufferView": 142, "byteOffset": 0, "componentType": 5126, "count": 82, "type": "VEC2"}, {"bufferView": 143, "byteOffset": 0, "componentType": 5126, "count": 82, "type": "VEC3"}, {"bufferView": 144, "byteOffset": 0, "componentType": 5123, "count": 132, "type": "SCALAR"}, {"bufferView": 145, "byteOffset": 0, "componentType": 5126, "count": 24, "type": "VEC3", "min": [1.423583984375, 1.141357421875, -0.01318359375], "max": [2.5673828125, 2.020751953125, 0.158935546875]}, {"bufferView": 146, "byteOffset": 0, "componentType": 5126, "count": 24, "type": "VEC2"}, {"bufferView": 147, "byteOffset": 0, "componentType": 5126, "count": 24, "type": "VEC3"}, {"bufferView": 148, "byteOffset": 0, "componentType": 5123, "count": 36, "type": "SCALAR"}, {"bufferView": 149, "byteOffset": 0, "componentType": 5126, "count": 344, "type": "VEC3", "min": [3.044677734375, 0.138427734375, 2.379150390625], "max": [3.4208984375, 0.187255859375, 3.074462890625]}, {"bufferView": 150, "byteOffset": 0, "componentType": 5126, "count": 344, "type": "VEC2"}, {"bufferView": 151, "byteOffset": 0, "componentType": 5126, "count": 344, "type": "VEC3"}, {"bufferView": 152, "byteOffset": 0, "componentType": 5123, "count": 492, "type": "SCALAR"}], "samplers": [{"magFilter": 9729, "minFilter": 9729, "wrapS": 10497, "wrapT": 10497}]}