{"asset": {"version": "2.0", "generator": "tongari-nsbmd-to-gltf"}, "scene": 0, "scenes": [{"nodes": [0, 1]}], "nodes": [{"name": "sbim03_08", "translation": [0.0, 0.0, 0.0]}, {"mesh": 0, "name": "2715sbim03_08"}], "meshes": [{"name": "2715sbim03_08", "primitives": [{"attributes": {"POSITION": 0, "TEXCOORD_0": 1, "NORMAL": 2}, "indices": 3, "mode": 4, "material": 0}]}], "materials": [{"name": "sbim03_08_0", "pbrMetallicRoughness": {"baseColorFactor": [0.803921568627451, 0.803921568627451, 0.803921568627451, 1.0], "metallicFactor": 0.0, "roughnessFactor": 1.0}, "alphaMode": "OPAQUE", "doubleSided": true}], "buffers": [{"byteLength": 3816, "uri": "data:application/octet-stream;base64,"}], "bufferViews": [{"buffer": 0, "byteOffset": 0, "byteLength": 1296}, {"buffer": 0, "byteOffset": 1296, "byteLength": 864}, {"buffer": 0, "byteOffset": 2160, "byteLength": 1296}, {"buffer": 0, "byteOffset": 3456, "byteLength": 360}], "accessors": [{"bufferView": 0, "byteOffset": 0, "componentType": 5126, "count": 108, "type": "VEC3", "min": [-0.065673828125, -0.09765625, -0.7333984375], "max": [0.416259765625, 0.09765625, 1.541259765625]}, {"bufferView": 1, "byteOffset": 0, "componentType": 5126, "count": 108, "type": "VEC2"}, {"bufferView": 2, "byteOffset": 0, "componentType": 5126, "count": 108, "type": "VEC3"}, {"bufferView": 3, "byteOffset": 0, "componentType": 5123, "count": 180, "type": "SCALAR"}], "samplers": [{"magFilter": 9729, "minFilter": 9729, "wrapS": 10497, "wrapT": 10497}]}