{"asset": {"version": "2.0", "generator": "tongari-nsbmd-to-gltf"}, "scene": 0, "scenes": [{"nodes": [0, 4]}], "nodes": [{"name": "equip_neko", "translation": [0.0, 0.0, -0.000244140625], "children": [1, 2, 3]}, {"name": "pCylinder1", "translation": [0.105712890625, 0.02490234375, 0.3935546875]}, {"name": "pSphere3", "translation": [0.105712890625, 0.114990234375, 0.3935546875]}, {"name": "pSphere4", "translation": [0.105712890625, 0.460205078125, 0.3935546875]}, {"mesh": 0, "name": "2757maindish_n"}], "meshes": [{"name": "2757maindish_n", "primitives": [{"attributes": {"POSITION": 0, "TEXCOORD_0": 1, "NORMAL": 2}, "indices": 3, "mode": 4, "material": 0}, {"attributes": {"POSITION": 4, "TEXCOORD_0": 5, "NORMAL": 6}, "indices": 7, "mode": 4, "material": 1}, {"attributes": {"POSITION": 8, "TEXCOORD_0": 9, "NORMAL": 10}, "indices": 11, "mode": 4, "material": 1}]}], "materials": [{"name": "lambert2", "pbrMetallicRoughness": {"baseColorFactor": [1.0, 1.0, 1.0, 1.0], "metallicFactor": 0.0, "roughnessFactor": 1.0}, "alphaMode": "OPAQUE", "doubleSided": true}, {"name": "lambert3", "pbrMetallicRoughness": {"baseColorFactor": [1.0, 1.0, 1.0, 1.0], "metallicFactor": 0.0, "roughnessFactor": 1.0}, "alphaMode": "OPAQUE", "doubleSided": true}], "buffers": [{"byteLength": 2668, "uri": "data:application/octet-stream;base64,"}], "bufferViews": [{"buffer": 0, "byteOffset": 0, "byteLength": 192}, {"buffer": 0, "byteOffset": 192, "byteLength": 128}, {"buffer": 0, "byteOffset": 320, "byteLength": 192}, {"buffer": 0, "byteOffset": 512, "byteLength": 48}, {"buffer": 0, "byteOffset": 560, "byteLength": 480}, {"buffer": 0, "byteOffset": 1040, "byteLength": 320}, {"buffer": 0, "byteOffset": 1360, "byteLength": 480}, {"buffer": 0, "byteOffset": 1840, "byteLength": 180}, {"buffer": 0, "byteOffset": 2020, "byteLength": 216}, {"buffer": 0, "byteOffset": 2236, "byteLength": 144}, {"buffer": 0, "byteOffset": 2380, "byteLength": 216}, {"buffer": 0, "byteOffset": 2596, "byteLength": 72}], "accessors": [{"bufferView": 0, "byteOffset": 0, "componentType": 5126, "count": 16, "type": "VEC3", "min": [-0.6650438904762268, 0.0, -0.6652880311012268], "max": [0.6650438904762268, 0.13999086618423462, 0.6647997498512268]}, {"bufferView": 1, "byteOffset": 0, "componentType": 5126, "count": 16, "type": "VEC2"}, {"bufferView": 2, "byteOffset": 0, "componentType": 5126, "count": 16, "type": "VEC3"}, {"bufferView": 3, "byteOffset": 0, "componentType": 5123, "count": 24, "type": "SCALAR"}, {"bufferView": 4, "byteOffset": 0, "componentType": 5126, "count": 40, "type": "VEC3", "min": [-0.44196617603302, 0.0, -0.5106347799301147], "max": [0.44196617603302, 0.5103906393051147, 0.5101464986801147]}, {"bufferView": 5, "byteOffset": 0, "componentType": 5126, "count": 40, "type": "VEC2"}, {"bufferView": 6, "byteOffset": 0, "componentType": 5126, "count": 40, "type": "VEC3"}, {"bufferView": 7, "byteOffset": 0, "componentType": 5123, "count": 90, "type": "SCALAR"}, {"bufferView": 8, "byteOffset": 0, "componentType": 5126, "count": 18, "type": "VEC3", "min": [-0.09181445837020874, 0.0, -0.09205859899520874], "max": [0.09181445837020874, 0.09181445837020874, 0.09157031774520874]}, {"bufferView": 9, "byteOffset": 0, "componentType": 5126, "count": 18, "type": "VEC2"}, {"bufferView": 10, "byteOffset": 0, "componentType": 5126, "count": 18, "type": "VEC3"}, {"bufferView": 11, "byteOffset": 0, "componentType": 5123, "count": 36, "type": "SCALAR"}], "samplers": [{"magFilter": 9729, "minFilter": 9729, "wrapS": 10497, "wrapT": 10497}]}