{"asset": {"version": "2.0", "generator": "tongari-nsbmd-to-gltf"}, "scene": 0, "scenes": [{"nodes": [0, 1]}], "nodes": [{"name": "tro_sale_e", "translation": [0.0, 0.0, 0.0]}, {"mesh": 0, "name": "5171tro_sale_e"}], "meshes": [{"name": "5171tro_sale_e", "primitives": [{"attributes": {"POSITION": 0, "TEXCOORD_0": 1, "NORMAL": 2}, "indices": 3, "mode": 4, "material": 2}, {"attributes": {"POSITION": 4, "TEXCOORD_0": 5, "NORMAL": 6}, "indices": 7, "mode": 4, "material": 1}, {"attributes": {"POSITION": 8, "TEXCOORD_0": 9, "NORMAL": 10}, "indices": 11, "mode": 4, "material": 0}]}], "materials": [{"name": "dai1", "pbrMetallicRoughness": {"baseColorFactor": [0.803921568627451, 0.803921568627451, 0.803921568627451, 1.0], "metallicFactor": 0.0, "roughnessFactor": 1.0}, "alphaMode": "OPAQUE", "doubleSided": true}, {"name": "lambert3", "pbrMetallicRoughness": {"baseColorFactor": [1.0, 1.0, 1.0, 1.0], "metallicFactor": 0.0, "roughnessFactor": 1.0}, "alphaMode": "OPAQUE", "doubleSided": true}, {"name": "lambert4", "pbrMetallicRoughness": {"baseColorFactor": [1.0, 1.0, 1.0, 1.0], "metallicFactor": 0.0, "roughnessFactor": 1.0}, "alphaMode": "OPAQUE", "doubleSided": true}], "buffers": [{"byteLength": 4408, "uri": "data:application/octet-stream;base64,"}], "bufferViews": [{"buffer": 0, "byteOffset": 0, "byteLength": 936}, {"buffer": 0, "byteOffset": 936, "byteLength": 624}, {"buffer": 0, "byteOffset": 1560, "byteLength": 936}, {"buffer": 0, "byteOffset": 2496, "byteLength": 360}, {"buffer": 0, "byteOffset": 2856, "byteLength": 336}, {"buffer": 0, "byteOffset": 3192, "byteLength": 224}, {"buffer": 0, "byteOffset": 3416, "byteLength": 336}, {"buffer": 0, "byteOffset": 3752, "byteLength": 84}, {"buffer": 0, "byteOffset": 3836, "byteLength": 192}, {"buffer": 0, "byteOffset": 4028, "byteLength": 128}, {"buffer": 0, "byteOffset": 4156, "byteLength": 192}, {"buffer": 0, "byteOffset": 4348, "byteLength": 60}], "accessors": [{"bufferView": 0, "byteOffset": 0, "componentType": 5126, "count": 78, "type": "VEC3", "min": [-0.391357421875, 0.489990234375, -0.108642578125], "max": [0.2158203125, 1.123291015625, 0.245849609375]}, {"bufferView": 1, "byteOffset": 0, "componentType": 5126, "count": 78, "type": "VEC2"}, {"bufferView": 2, "byteOffset": 0, "componentType": 5126, "count": 78, "type": "VEC3"}, {"bufferView": 3, "byteOffset": 0, "componentType": 5123, "count": 180, "type": "SCALAR"}, {"bufferView": 4, "byteOffset": 0, "componentType": 5126, "count": 28, "type": "VEC3", "min": [-0.260009765625, 0.31494140625, -0.119140625], "max": [0.2763671875, 0.751708984375, 0.1396484375]}, {"bufferView": 5, "byteOffset": 0, "componentType": 5126, "count": 28, "type": "VEC2"}, {"bufferView": 6, "byteOffset": 0, "componentType": 5126, "count": 28, "type": "VEC3"}, {"bufferView": 7, "byteOffset": 0, "componentType": 5123, "count": 42, "type": "SCALAR"}, {"bufferView": 8, "byteOffset": 0, "componentType": 5126, "count": 16, "type": "VEC3", "min": [-0.179931640625, 0.0, -0.179931640625], "max": [0.179931640625, 0.31494140625, 0.179931640625]}, {"bufferView": 9, "byteOffset": 0, "componentType": 5126, "count": 16, "type": "VEC2"}, {"bufferView": 10, "byteOffset": 0, "componentType": 5126, "count": 16, "type": "VEC3"}, {"bufferView": 11, "byteOffset": 0, "componentType": 5123, "count": 30, "type": "SCALAR"}], "samplers": [{"magFilter": 9729, "minFilter": 9729, "wrapS": 10497, "wrapT": 10497}]}