{"asset": {"version": "2.0", "generator": "tongari-nsbmd-to-gltf"}, "scene": 0, "scenes": [{"nodes": [0, 1]}], "nodes": [{"name": "sp_xmas_pre", "translation": [10.0, -0.39990234375, 1.5]}, {"mesh": 0, "name": "uma_a_pre01"}], "meshes": [{"name": "uma_a_pre01", "primitives": [{"attributes": {"POSITION": 0, "TEXCOORD_0": 1, "NORMAL": 2}, "indices": 3, "mode": 4, "material": 0}, {"attributes": {"POSITION": 4, "TEXCOORD_0": 5, "NORMAL": 6}, "indices": 7, "mode": 4, "material": 1}]}], "materials": [{"name": "sp_pre_0", "pbrMetallicRoughness": {"baseColorFactor": [0.803921568627451, 0.803921568627451, 0.803921568627451, 1.0], "metallicFactor": 0.0, "roughnessFactor": 1.0}, "alphaMode": "OPAQUE", "doubleSided": true}, {"name": "sp_pre_1", "pbrMetallicRoughness": {"baseColorFactor": [0.803921568627451, 0.803921568627451, 0.803921568627451, 1.0], "metallicFactor": 0.0, "roughnessFactor": 1.0}, "alphaMode": "OPAQUE", "doubleSided": true}], "buffers": [{"byteLength": 2264, "uri": "data:application/octet-stream;base64,"}], "bufferViews": [{"buffer": 0, "byteOffset": 0, "byteLength": 480}, {"buffer": 0, "byteOffset": 480, "byteLength": 320}, {"buffer": 0, "byteOffset": 800, "byteLength": 480}, {"buffer": 0, "byteOffset": 1280, "byteLength": 144}, {"buffer": 0, "byteOffset": 1424, "byteLength": 288}, {"buffer": 0, "byteOffset": 1712, "byteLength": 192}, {"buffer": 0, "byteOffset": 1904, "byteLength": 288}, {"buffer": 0, "byteOffset": 2192, "byteLength": 72}], "accessors": [{"bufferView": 0, "byteOffset": 0, "componentType": 5126, "count": 40, "type": "VEC3", "min": [9.508056640625, 0.0625, 1.194091796875], "max": [10.4033203125, 1.5478515625, 1.677978515625]}, {"bufferView": 1, "byteOffset": 0, "componentType": 5126, "count": 40, "type": "VEC2"}, {"bufferView": 2, "byteOffset": 0, "componentType": 5126, "count": 40, "type": "VEC3"}, {"bufferView": 3, "byteOffset": 0, "componentType": 5123, "count": 72, "type": "SCALAR"}, {"bufferView": 4, "byteOffset": 0, "componentType": 5126, "count": 24, "type": "VEC3", "min": [9.64990234375, 1.02001953125, 1.122314453125], "max": [10.240966796875, 1.718994140625, 1.71044921875]}, {"bufferView": 5, "byteOffset": 0, "componentType": 5126, "count": 24, "type": "VEC2"}, {"bufferView": 6, "byteOffset": 0, "componentType": 5126, "count": 24, "type": "VEC3"}, {"bufferView": 7, "byteOffset": 0, "componentType": 5123, "count": 36, "type": "SCALAR"}], "samplers": [{"magFilter": 9729, "minFilter": 9729, "wrapS": 10497, "wrapT": 10497}]}