{"asset": {"version": "2.0", "generator": "tongari-nsbmd-to-gltf"}, "scene": 0, "scenes": [{"nodes": [0, 3]}], "nodes": [{"name": "root", "translation": [0.0, 0.0, 0.0], "children": [1, 2]}, {"name": "bone_l", "translation": [0.308837890625, 0.4375, 0.240966796875]}, {"name": "bone_r", "translation": [-0.308837890625, 0.4375, 0.240966796875], "rotation": [0.5, -0.5, 0.5, -0.5]}, {"mesh": 0, "name": "3833kg3_ser14"}], "meshes": [{"name": "3833kg3_ser14", "primitives": [{"attributes": {"POSITION": 0, "TEXCOORD_0": 1, "NORMAL": 2}, "indices": 3, "mode": 4, "material": 2}, {"attributes": {"POSITION": 4, "TEXCOORD_0": 5, "NORMAL": 6}, "indices": 7, "mode": 4, "material": 0}, {"attributes": {"POSITION": 8, "TEXCOORD_0": 9, "NORMAL": 10}, "indices": 11, "mode": 4, "material": 1}]}], "materials": [{"name": "ser14_0", "pbrMetallicRoughness": {"baseColorFactor": [1.0, 1.0, 1.0, 1.0], "metallicFactor": 0.0, "roughnessFactor": 1.0}, "alphaMode": "OPAQUE", "doubleSided": true}, {"name": "ser14_1", "pbrMetallicRoughness": {"baseColorFactor": [1.0, 1.0, 1.0, 1.0], "metallicFactor": 0.0, "roughnessFactor": 1.0}, "alphaMode": "OPAQUE", "doubleSided": true}, {"name": "ser14_2", "pbrMetallicRoughness": {"baseColorFactor": [1.0, 1.0, 1.0, 1.0], "metallicFactor": 0.0, "roughnessFactor": 1.0}, "alphaMode": "OPAQUE", "doubleSided": true}], "buffers": [{"byteLength": 4544, "uri": "data:application/octet-stream;base64,"}], "bufferViews": [{"buffer": 0, "byteOffset": 0, "byteLength": 660}, {"buffer": 0, "byteOffset": 660, "byteLength": 440}, {"buffer": 0, "byteOffset": 1100, "byteLength": 660}, {"buffer": 0, "byteOffset": 1760, "byteLength": 162}, {"buffer": 0, "byteOffset": 1924, "byteLength": 696}, {"buffer": 0, "byteOffset": 2620, "byteLength": 464}, {"buffer": 0, "byteOffset": 3084, "byteLength": 696}, {"buffer": 0, "byteOffset": 3780, "byteLength": 192}, {"buffer": 0, "byteOffset": 3972, "byteLength": 192}, {"buffer": 0, "byteOffset": 4164, "byteLength": 128}, {"buffer": 0, "byteOffset": 4292, "byteLength": 192}, {"buffer": 0, "byteOffset": 4484, "byteLength": 60}], "accessors": [{"bufferView": 0, "byteOffset": 0, "componentType": 5126, "count": 55, "type": "VEC3", "min": [-0.376953125, -1.078369140625, -0.23388671875], "max": [0.376953125, 1.39990234375, 0.23388671875]}, {"bufferView": 1, "byteOffset": 0, "componentType": 5126, "count": 55, "type": "VEC2"}, {"bufferView": 2, "byteOffset": 0, "componentType": 5126, "count": 55, "type": "VEC3"}, {"bufferView": 3, "byteOffset": 0, "componentType": 5123, "count": 81, "type": "SCALAR"}, {"bufferView": 4, "byteOffset": 0, "componentType": 5126, "count": 58, "type": "VEC3", "min": [-0.376953125, 0.128662109375, -0.23388671875], "max": [0.376953125, 1.39990234375, 0.63818359375]}, {"bufferView": 5, "byteOffset": 0, "componentType": 5126, "count": 58, "type": "VEC2"}, {"bufferView": 6, "byteOffset": 0, "componentType": 5126, "count": 58, "type": "VEC3"}, {"bufferView": 7, "byteOffset": 0, "componentType": 5123, "count": 96, "type": "SCALAR"}, {"bufferView": 8, "byteOffset": 0, "componentType": 5126, "count": 16, "type": "VEC3", "min": [-0.46533203125, 0.83447265625, -0.244384765625], "max": [0.461181640625, 1.446044921875, 0.248046875]}, {"bufferView": 9, "byteOffset": 0, "componentType": 5126, "count": 16, "type": "VEC2"}, {"bufferView": 10, "byteOffset": 0, "componentType": 5126, "count": 16, "type": "VEC3"}, {"bufferView": 11, "byteOffset": 0, "componentType": 5123, "count": 30, "type": "SCALAR"}], "samplers": [{"magFilter": 9729, "minFilter": 9729, "wrapS": 10497, "wrapT": 10497}]}