{"asset": {"version": "2.0", "generator": "tongari-nsbmd-to-gltf"}, "scene": 0, "scenes": [{"nodes": [0, 1]}], "nodes": [{"name": "polySurface359", "translation": [0.0, 0.0, 0.0]}, {"mesh": 0, "name": "sc_staffroom"}], "meshes": [{"name": "sc_staffroom", "primitives": [{"attributes": {"POSITION": 0, "TEXCOORD_0": 1, "NORMAL": 2}, "indices": 3, "mode": 4, "material": 4}, {"attributes": {"POSITION": 4, "TEXCOORD_0": 5, "NORMAL": 6}, "indices": 7, "mode": 4, "material": 6}, {"attributes": {"POSITION": 8, "TEXCOORD_0": 9, "NORMAL": 10}, "indices": 11, "mode": 4, "material": 11}, {"attributes": {"POSITION": 12, "TEXCOORD_0": 13, "NORMAL": 14}, "indices": 15, "mode": 4, "material": 23}, {"attributes": {"POSITION": 16, "TEXCOORD_0": 17, "NORMAL": 18}, "indices": 19, "mode": 4, "material": 20}, {"attributes": {"POSITION": 20, "TEXCOORD_0": 21, "NORMAL": 22}, "indices": 23, "mode": 4, "material": 10}, {"attributes": {"POSITION": 24, "TEXCOORD_0": 25, "NORMAL": 26}, "indices": 27, "mode": 4, "material": 25}, {"attributes": {"POSITION": 28, "TEXCOORD_0": 29, "NORMAL": 30}, "indices": 31, "mode": 4, "material": 19}, {"attributes": {"POSITION": 32, "TEXCOORD_0": 33, "NORMAL": 34}, "indices": 35, "mode": 4, "material": 18}, {"attributes": {"POSITION": 36, "TEXCOORD_0": 37, "NORMAL": 38}, "indices": 39, "mode": 4, "material": 7}, {"attributes": {"POSITION": 40, "TEXCOORD_0": 41, "NORMAL": 42}, "indices": 43, "mode": 4, "material": 21}, {"attributes": {"POSITION": 44, "TEXCOORD_0": 45, "NORMAL": 46}, "indices": 47, "mode": 4, "material": 24}, {"attributes": {"POSITION": 48, "TEXCOORD_0": 49, "NORMAL": 50}, "indices": 51, "mode": 4, "material": 1}, {"attributes": {"POSITION": 52, "TEXCOORD_0": 53, "NORMAL": 54}, "indices": 55, "mode": 4, "material": 2}, {"attributes": {"POSITION": 56, "TEXCOORD_0": 57, "NORMAL": 58}, "indices": 59, "mode": 4, "material": 3}, {"attributes": {"POSITION": 60, "TEXCOORD_0": 61, "NORMAL": 62}, "indices": 63, "mode": 4, "material": 27}, {"attributes": {"POSITION": 64, "TEXCOORD_0": 65, "NORMAL": 66}, "indices": 67, "mode": 4, "material": 26}, {"attributes": {"POSITION": 68, "TEXCOORD_0": 69, "NORMAL": 70}, "indices": 71, "mode": 4, "material": 13}, {"attributes": {"POSITION": 72, "TEXCOORD_0": 73, "NORMAL": 74}, "indices": 75, "mode": 4, "material": 12}, {"attributes": {"POSITION": 76, "TEXCOORD_0": 77, "NORMAL": 78}, "indices": 79, "mode": 4, "material": 9}, {"attributes": {"POSITION": 80, "TEXCOORD_0": 81, "NORMAL": 82}, "indices": 83, "mode": 4, "material": 8}, {"attributes": {"POSITION": 84, "TEXCOORD_0": 85, "NORMAL": 86}, "indices": 87, "mode": 4, "material": 22}, {"attributes": {"POSITION": 88, "TEXCOORD_0": 89, "NORMAL": 90}, "indices": 91, "mode": 4, "material": 14}, {"attributes": {"POSITION": 92, "TEXCOORD_0": 93, "NORMAL": 94}, "indices": 95, "mode": 4, "material": 17}, {"attributes": {"POSITION": 96, "TEXCOORD_0": 97, "NORMAL": 98}, "indices": 99, "mode": 4, "material": 16}, {"attributes": {"POSITION": 100, "TEXCOORD_0": 101, "NORMAL": 102}, "indices": 103, "mode": 4, "material": 15}, {"attributes": {"POSITION": 104, "TEXCOORD_0": 105, "NORMAL": 106}, "indices": 107, "mode": 4, "material": 5}, {"attributes": {"POSITION": 108, "TEXCOORD_0": 109, "NORMAL": 110}, "indices": 111, "mode": 4, "material": 0}]}], "materials": [{"name": "lambert31", "pbrMetallicRoughness": {"baseColorFactor": [1.0, 1.0, 1.0, 1.0], "metallicFactor": 0.0, "roughnessFactor": 1.0}, "alphaMode": "OPAQUE", "doubleSided": true}, {"name": "lambert41", "pbrMetallicRoughness": {"baseColorFactor": [1.0, 1.0, 1.0, 1.0], "metallicFactor": 0.0, "roughnessFactor": 1.0}, "alphaMode": "OPAQUE", "doubleSided": true}, {"name": "lambert42", "pbrMetallicRoughness": {"baseColorFactor": [1.0, 1.0, 1.0, 1.0], "metallicFactor": 0.0, "roughnessFactor": 1.0}, "alphaMode": "OPAQUE", "doubleSided": true}, {"name": "lambert43", "pbrMetallicRoughness": {"baseColorFactor": [1.0, 1.0, 1.0, 1.0], "metallicFactor": 0.0, "roughnessFactor": 1.0}, "alphaMode": "OPAQUE", "doubleSided": true}, {"name": "lambert46", "pbrMetallicRoughness": {"baseColorFactor": [0.803921568627451, 0.803921568627451, 0.803921568627451, 1.0], "metallicFactor": 0.0, "roughnessFactor": 1.0}, "alphaMode": "OPAQUE", "doubleSided": true}, {"name": "object_shade", "pbrMetallicRoughness": {"baseColorFactor": [0.803921568627451, 0.803921568627451, 0.803921568627451, 0.41935483870967744], "metallicFactor": 0.0, "roughnessFactor": 1.0}, "alphaMode": "BLEND", "doubleSided": true}, {"name": "sc_exit", "pbrMetallicRoughness": {"baseColorFactor": [1.0, 1.0, 1.0, 1.0], "metallicFactor": 0.0, "roughnessFactor": 1.0}, "alphaMode": "OPAQUE", "doubleSided": true}, {"name": "sc_staff_bbs", "pbrMetallicRoughness": {"baseColorFactor": [1.0, 1.0, 1.0, 1.0], "metallicFactor": 0.0, "roughnessFactor": 1.0}, "alphaMode": "OPAQUE", "doubleSided": true}, {"name": "sc_staff_f00", "pbrMetallicRoughness": {"baseColorFactor": [1.0, 1.0, 1.0, 1.0], "metallicFactor": 0.0, "roughnessFactor": 1.0}, "alphaMode": "OPAQUE", "doubleSided": true}, {"name": "sc_staff_w00", "pbrMetallicRoughness": {"baseColorFactor": [1.0, 1.0, 1.0, 1.0], "metallicFactor": 0.0, "roughnessFactor": 1.0}, "alphaMode": "OPAQUE", "doubleSided": true}, {"name": "shade_shade", "pbrMetallicRoughness": {"baseColorFactor": [0.803921568627451, 0.803921568627451, 0.803921568627451, 1.0], "metallicFactor": 0.0, "roughnessFactor": 1.0}, "alphaMode": "OPAQUE", "doubleSided": true}, {"name": "shokaki", "pbrMetallicRoughness": {"baseColorFactor": [1.0, 1.0, 1.0, 1.0], "metallicFactor": 0.0, "roughnessFactor": 1.0}, "alphaMode": "OPAQUE", "doubleSided": true}, {"name": "staff_book", "pbrMetallicRoughness": {"baseColorFactor": [1.0, 1.0, 1.0, 1.0], "metallicFactor": 0.0, "roughnessFactor": 1.0}, "alphaMode": "OPAQUE", "doubleSided": true}, {"name": "staff_box", "pbrMetallicRoughness": {"baseColorFactor": [1.0, 1.0, 1.0, 1.0], "metallicFactor": 0.0, "roughnessFactor": 1.0}, "alphaMode": "OPAQUE", "doubleSided": true}, {"name": "staff_ch00", "pbrMetallicRoughness": {"baseColorFactor": [1.0, 1.0, 1.0, 1.0], "metallicFactor": 0.0, "roughnessFactor": 1.0}, "alphaMode": "OPAQUE", "doubleSided": true}, {"name": "staff_ch01", "pbrMetallicRoughness": {"baseColorFactor": [1.0, 1.0, 1.0, 1.0], "metallicFactor": 0.0, "roughnessFactor": 1.0}, "alphaMode": "OPAQUE", "doubleSided": true}, {"name": "staff_ch02", "pbrMetallicRoughness": {"baseColorFactor": [1.0, 1.0, 1.0, 1.0], "metallicFactor": 0.0, "roughnessFactor": 1.0}, "alphaMode": "OPAQUE", "doubleSided": true}, {"name": "staff_ch03", "pbrMetallicRoughness": {"baseColorFactor": [1.0, 1.0, 1.0, 1.0], "metallicFactor": 0.0, "roughnessFactor": 1.0}, "alphaMode": "OPAQUE", "doubleSided": true}, {"name": "staff_hako00", "pbrMetallicRoughness": {"baseColorFactor": [1.0, 1.0, 1.0, 1.0], "metallicFactor": 0.0, "roughnessFactor": 1.0}, "alphaMode": "OPAQUE", "doubleSided": true}, {"name": "staff_hako01", "pbrMetallicRoughness": {"baseColorFactor": [1.0, 1.0, 1.0, 1.0], "metallicFactor": 0.0, "roughnessFactor": 1.0}, "alphaMode": "OPAQUE", "doubleSided": true}, {"name": "staff_heri", "pbrMetallicRoughness": {"baseColorFactor": [1.0, 1.0, 1.0, 1.0], "metallicFactor": 0.0, "roughnessFactor": 1.0}, "alphaMode": "OPAQUE", "doubleSided": true}, {"name": "staff_paper", "pbrMetallicRoughness": {"baseColorFactor": [1.0, 1.0, 1.0, 1.0], "metallicFactor": 0.0, "roughnessFactor": 1.0}, "alphaMode": "OPAQUE", "doubleSided": true}, {"name": "staff_plant", "pbrMetallicRoughness": {"baseColorFactor": [1.0, 1.0, 1.0, 1.0], "metallicFactor": 0.0, "roughnessFactor": 1.0}, "alphaMode": "OPAQUE", "doubleSided": true}, {"name": "staff_tana00", "pbrMetallicRoughness": {"baseColorFactor": [1.0, 1.0, 1.0, 1.0], "metallicFactor": 0.0, "roughnessFactor": 1.0}, "alphaMode": "OPAQUE", "doubleSided": true}, {"name": "staff_tana01", "pbrMetallicRoughness": {"baseColorFactor": [1.0, 1.0, 1.0, 1.0], "metallicFactor": 0.0, "roughnessFactor": 1.0}, "alphaMode": "OPAQUE", "doubleSided": true}, {"name": "staff_tana02", "pbrMetallicRoughness": {"baseColorFactor": [1.0, 1.0, 1.0, 1.0], "metallicFactor": 0.0, "roughnessFactor": 1.0}, "alphaMode": "OPAQUE", "doubleSided": true}, {"name": "staff_tea_t00", "pbrMetallicRoughness": {"baseColorFactor": [1.0, 1.0, 1.0, 1.0], "metallicFactor": 0.0, "roughnessFactor": 1.0}, "alphaMode": "OPAQUE", "doubleSided": true}, {"name": "staff_tea_t01", "pbrMetallicRoughness": {"baseColorFactor": [1.0, 1.0, 1.0, 1.0], "metallicFactor": 0.0, "roughnessFactor": 1.0}, "alphaMode": "OPAQUE", "doubleSided": true}], "buffers": [{"byteLength": 71000, "uri": "data:application/octet-stream;base64,"}], "bufferViews": [{"buffer": 0, "byteOffset": 0, "byteLength": 72}, {"buffer": 0, "byteOffset": 72, "byteLength": 48}, {"buffer": 0, "byteOffset": 120, "byteLength": 72}, {"buffer": 0, "byteOffset": 192, "byteLength": 24}, {"buffer": 0, "byteOffset": 216, "byteLength": 96}, {"buffer": 0, "byteOffset": 312, "byteLength": 64}, {"buffer": 0, "byteOffset": 376, "byteLength": 96}, {"buffer": 0, "byteOffset": 472, "byteLength": 24}, {"buffer": 0, "byteOffset": 496, "byteLength": 1620}, {"buffer": 0, "byteOffset": 2116, "byteLength": 1080}, {"buffer": 0, "byteOffset": 3196, "byteLength": 1620}, {"buffer": 0, "byteOffset": 4816, "byteLength": 522}, {"buffer": 0, "byteOffset": 5340, "byteLength": 1176}, {"buffer": 0, "byteOffset": 6516, "byteLength": 784}, {"buffer": 0, "byteOffset": 7300, "byteLength": 1176}, {"buffer": 0, "byteOffset": 8476, "byteLength": 312}, {"buffer": 0, "byteOffset": 8788, "byteLength": 144}, {"buffer": 0, "byteOffset": 8932, "byteLength": 96}, {"buffer": 0, "byteOffset": 9028, "byteLength": 144}, {"buffer": 0, "byteOffset": 9172, "byteLength": 36}, {"buffer": 0, "byteOffset": 9208, "byteLength": 384}, {"buffer": 0, "byteOffset": 9592, "byteLength": 256}, {"buffer": 0, "byteOffset": 9848, "byteLength": 384}, {"buffer": 0, "byteOffset": 10232, "byteLength": 108}, {"buffer": 0, "byteOffset": 10340, "byteLength": 72}, {"buffer": 0, "byteOffset": 10412, "byteLength": 48}, {"buffer": 0, "byteOffset": 10460, "byteLength": 72}, {"buffer": 0, "byteOffset": 10532, "byteLength": 24}, {"buffer": 0, "byteOffset": 10556, "byteLength": 240}, {"buffer": 0, "byteOffset": 10796, "byteLength": 160}, {"buffer": 0, "byteOffset": 10956, "byteLength": 240}, {"buffer": 0, "byteOffset": 11196, "byteLength": 72}, {"buffer": 0, "byteOffset": 11268, "byteLength": 240}, {"buffer": 0, "byteOffset": 11508, "byteLength": 160}, {"buffer": 0, "byteOffset": 11668, "byteLength": 240}, {"buffer": 0, "byteOffset": 11908, "byteLength": 72}, {"buffer": 0, "byteOffset": 11980, "byteLength": 48}, {"buffer": 0, "byteOffset": 12028, "byteLength": 32}, {"buffer": 0, "byteOffset": 12060, "byteLength": 48}, {"buffer": 0, "byteOffset": 12108, "byteLength": 12}, {"buffer": 0, "byteOffset": 12120, "byteLength": 96}, {"buffer": 0, "byteOffset": 12216, "byteLength": 64}, {"buffer": 0, "byteOffset": 12280, "byteLength": 96}, {"buffer": 0, "byteOffset": 12376, "byteLength": 24}, {"buffer": 0, "byteOffset": 12400, "byteLength": 216}, {"buffer": 0, "byteOffset": 12616, "byteLength": 144}, {"buffer": 0, "byteOffset": 12760, "byteLength": 216}, {"buffer": 0, "byteOffset": 12976, "byteLength": 72}, {"buffer": 0, "byteOffset": 13048, "byteLength": 48}, {"buffer": 0, "byteOffset": 13096, "byteLength": 32}, {"buffer": 0, "byteOffset": 13128, "byteLength": 48}, {"buffer": 0, "byteOffset": 13176, "byteLength": 12}, {"buffer": 0, "byteOffset": 13188, "byteLength": 960}, {"buffer": 0, "byteOffset": 14148, "byteLength": 640}, {"buffer": 0, "byteOffset": 14788, "byteLength": 960}, {"buffer": 0, "byteOffset": 15748, "byteLength": 240}, {"buffer": 0, "byteOffset": 15988, "byteLength": 576}, {"buffer": 0, "byteOffset": 16564, "byteLength": 384}, {"buffer": 0, "byteOffset": 16948, "byteLength": 576}, {"buffer": 0, "byteOffset": 17524, "byteLength": 144}, {"buffer": 0, "byteOffset": 17668, "byteLength": 1416}, {"buffer": 0, "byteOffset": 19084, "byteLength": 944}, {"buffer": 0, "byteOffset": 20028, "byteLength": 1416}, {"buffer": 0, "byteOffset": 21444, "byteLength": 504}, {"buffer": 0, "byteOffset": 21948, "byteLength": 624}, {"buffer": 0, "byteOffset": 22572, "byteLength": 416}, {"buffer": 0, "byteOffset": 22988, "byteLength": 624}, {"buffer": 0, "byteOffset": 23612, "byteLength": 180}, {"buffer": 0, "byteOffset": 23792, "byteLength": 960}, {"buffer": 0, "byteOffset": 24752, "byteLength": 640}, {"buffer": 0, "byteOffset": 25392, "byteLength": 960}, {"buffer": 0, "byteOffset": 26352, "byteLength": 300}, {"buffer": 0, "byteOffset": 26652, "byteLength": 1536}, {"buffer": 0, "byteOffset": 28188, "byteLength": 1024}, {"buffer": 0, "byteOffset": 29212, "byteLength": 1536}, {"buffer": 0, "byteOffset": 30748, "byteLength": 492}, {"buffer": 0, "byteOffset": 31240, "byteLength": 708}, {"buffer": 0, "byteOffset": 31948, "byteLength": 472}, {"buffer": 0, "byteOffset": 32420, "byteLength": 708}, {"buffer": 0, "byteOffset": 33128, "byteLength": 282}, {"buffer": 0, "byteOffset": 33412, "byteLength": 480}, {"buffer": 0, "byteOffset": 33892, "byteLength": 320}, {"buffer": 0, "byteOffset": 34212, "byteLength": 480}, {"buffer": 0, "byteOffset": 34692, "byteLength": 192}, {"buffer": 0, "byteOffset": 34884, "byteLength": 768}, {"buffer": 0, "byteOffset": 35652, "byteLength": 512}, {"buffer": 0, "byteOffset": 36164, "byteLength": 768}, {"buffer": 0, "byteOffset": 36932, "byteLength": 240}, {"buffer": 0, "byteOffset": 37172, "byteLength": 1368}, {"buffer": 0, "byteOffset": 38540, "byteLength": 912}, {"buffer": 0, "byteOffset": 39452, "byteLength": 1368}, {"buffer": 0, "byteOffset": 40820, "byteLength": 432}, {"buffer": 0, "byteOffset": 41252, "byteLength": 1200}, {"buffer": 0, "byteOffset": 42452, "byteLength": 800}, {"buffer": 0, "byteOffset": 43252, "byteLength": 1200}, {"buffer": 0, "byteOffset": 44452, "byteLength": 384}, {"buffer": 0, "byteOffset": 44836, "byteLength": 6720}, {"buffer": 0, "byteOffset": 51556, "byteLength": 4480}, {"buffer": 0, "byteOffset": 56036, "byteLength": 6720}, {"buffer": 0, "byteOffset": 62756, "byteLength": 2040}, {"buffer": 0, "byteOffset": 64796, "byteLength": 1224}, {"buffer": 0, "byteOffset": 66020, "byteLength": 816}, {"buffer": 0, "byteOffset": 66836, "byteLength": 1224}, {"buffer": 0, "byteOffset": 68060, "byteLength": 360}, {"buffer": 0, "byteOffset": 68420, "byteLength": 744}, {"buffer": 0, "byteOffset": 69164, "byteLength": 496}, {"buffer": 0, "byteOffset": 69660, "byteLength": 744}, {"buffer": 0, "byteOffset": 70404, "byteLength": 240}, {"buffer": 0, "byteOffset": 70644, "byteLength": 120}, {"buffer": 0, "byteOffset": 70764, "byteLength": 80}, {"buffer": 0, "byteOffset": 70844, "byteLength": 120}, {"buffer": 0, "byteOffset": 70964, "byteLength": 36}], "accessors": [{"bufferView": 0, "byteOffset": 0, "componentType": 5126, "count": 6, "type": "VEC3", "min": [6.199951171875, -0.25, 5.0], "max": [7.5, 2.0, 5.199951171875]}, {"bufferView": 1, "byteOffset": 0, "componentType": 5126, "count": 6, "type": "VEC2"}, {"bufferView": 2, "byteOffset": 0, "componentType": 5126, "count": 6, "type": "VEC3"}, {"bufferView": 3, "byteOffset": 0, "componentType": 5123, "count": 12, "type": "SCALAR"}, {"bufferView": 4, "byteOffset": 0, "componentType": 5126, "count": 8, "type": "VEC3", "min": [6.0, 0.0, 3.89990234375], "max": [6.5, 1.333251953125, 5.0]}, {"bufferView": 5, "byteOffset": 0, "componentType": 5126, "count": 8, "type": "VEC2"}, {"bufferView": 6, "byteOffset": 0, "componentType": 5126, "count": 8, "type": "VEC3"}, {"bufferView": 7, "byteOffset": 0, "componentType": 5123, "count": 12, "type": "SCALAR"}, {"bufferView": 8, "byteOffset": 0, "componentType": 5126, "count": 135, "type": "VEC3", "min": [5.649658203125, 0.011962890625, 1.72705078125], "max": [5.916748046875, 0.587890625, 1.872802734375]}, {"bufferView": 9, "byteOffset": 0, "componentType": 5126, "count": 135, "type": "VEC2"}, {"bufferView": 10, "byteOffset": 0, "componentType": 5126, "count": 135, "type": "VEC3"}, {"bufferView": 11, "byteOffset": 0, "componentType": 5123, "count": 261, "type": "SCALAR"}, {"bufferView": 12, "byteOffset": 0, "componentType": 5126, "count": 98, "type": "VEC3", "min": [5.608154296875, 0.0, 0.699951171875], "max": [5.983154296875, 0.64990234375, 1.699951171875]}, {"bufferView": 13, "byteOffset": 0, "componentType": 5126, "count": 98, "type": "VEC2"}, {"bufferView": 14, "byteOffset": 0, "componentType": 5126, "count": 98, "type": "VEC3"}, {"bufferView": 15, "byteOffset": 0, "componentType": 5123, "count": 156, "type": "SCALAR"}, {"bufferView": 16, "byteOffset": 0, "componentType": 5126, "count": 12, "type": "VEC3", "min": [0.517578125, 1.699951171875, 0.550048828125], "max": [5.982421875, 2.10009765625, 5.050048828125]}, {"bufferView": 17, "byteOffset": 0, "componentType": 5126, "count": 12, "type": "VEC2"}, {"bufferView": 18, "byteOffset": 0, "componentType": 5126, "count": 12, "type": "VEC3"}, {"bufferView": 19, "byteOffset": 0, "componentType": 5123, "count": 18, "type": "SCALAR"}, {"bufferView": 20, "byteOffset": 0, "componentType": 5126, "count": 32, "type": "VEC3", "min": [-0.093017578125, 1.800048828125, 0.402099609375], "max": [6.903564453125, 2.2265625, 5.50146484375]}, {"bufferView": 21, "byteOffset": 0, "componentType": 5126, "count": 32, "type": "VEC2"}, {"bufferView": 22, "byteOffset": 0, "componentType": 5126, "count": 32, "type": "VEC3"}, {"bufferView": 23, "byteOffset": 0, "componentType": 5123, "count": 54, "type": "SCALAR"}, {"bufferView": 24, "byteOffset": 0, "componentType": 5126, "count": 6, "type": "VEC3", "min": [0.5, 0.0, 1.0], "max": [1.699951171875, 0.550048828125, 1.0]}, {"bufferView": 25, "byteOffset": 0, "componentType": 5126, "count": 6, "type": "VEC2"}, {"bufferView": 26, "byteOffset": 0, "componentType": 5126, "count": 6, "type": "VEC3"}, {"bufferView": 27, "byteOffset": 0, "componentType": 5123, "count": 12, "type": "SCALAR"}, {"bufferView": 28, "byteOffset": 0, "componentType": 5126, "count": 20, "type": "VEC3", "min": [1.199951171875, 1.10009765625, 0.550048828125], "max": [1.60009765625, 1.446044921875, 1.0]}, {"bufferView": 29, "byteOffset": 0, "componentType": 5126, "count": 20, "type": "VEC2"}, {"bufferView": 30, "byteOffset": 0, "componentType": 5126, "count": 20, "type": "VEC3"}, {"bufferView": 31, "byteOffset": 0, "componentType": 5123, "count": 36, "type": "SCALAR"}, {"bufferView": 32, "byteOffset": 0, "componentType": 5126, "count": 20, "type": "VEC3", "min": [0.60009765625, 0.0, 0.5], "max": [2.0, 1.35009765625, 1.0]}, {"bufferView": 33, "byteOffset": 0, "componentType": 5126, "count": 20, "type": "VEC2"}, {"bufferView": 34, "byteOffset": 0, "componentType": 5126, "count": 20, "type": "VEC3"}, {"bufferView": 35, "byteOffset": 0, "componentType": 5123, "count": 36, "type": "SCALAR"}, {"bufferView": 36, "byteOffset": 0, "componentType": 5126, "count": 4, "type": "VEC3", "min": [4.506103515625, 0.7646484375, 0.550048828125], "max": [5.456298828125, 1.635498046875, 0.550048828125]}, {"bufferView": 37, "byteOffset": 0, "componentType": 5126, "count": 4, "type": "VEC2"}, {"bufferView": 38, "byteOffset": 0, "componentType": 5126, "count": 4, "type": "VEC3"}, {"bufferView": 39, "byteOffset": 0, "componentType": 5123, "count": 6, "type": "SCALAR"}, {"bufferView": 40, "byteOffset": 0, "componentType": 5126, "count": 8, "type": "VEC3", "min": [3.388671875, 0.825439453125, 0.550048828125], "max": [4.266357421875, 1.339111328125, 0.550048828125]}, {"bufferView": 41, "byteOffset": 0, "componentType": 5126, "count": 8, "type": "VEC2"}, {"bufferView": 42, "byteOffset": 0, "componentType": 5126, "count": 8, "type": "VEC3"}, {"bufferView": 43, "byteOffset": 0, "componentType": 5123, "count": 12, "type": "SCALAR"}, {"bufferView": 44, "byteOffset": 0, "componentType": 5126, "count": 18, "type": "VEC3", "min": [0.5, 0.0, 0.5], "max": [1.699951171875, 1.10009765625, 1.0]}, {"bufferView": 45, "byteOffset": 0, "componentType": 5126, "count": 18, "type": "VEC2"}, {"bufferView": 46, "byteOffset": 0, "componentType": 5126, "count": 18, "type": "VEC3"}, {"bufferView": 47, "byteOffset": 0, "componentType": 5123, "count": 36, "type": "SCALAR"}, {"bufferView": 48, "byteOffset": 0, "componentType": 5126, "count": 4, "type": "VEC3", "min": [1.0, 0.219970703125, 2.75], "max": [2.0, 0.219970703125, 3.25]}, {"bufferView": 49, "byteOffset": 0, "componentType": 5126, "count": 4, "type": "VEC2"}, {"bufferView": 50, "byteOffset": 0, "componentType": 5126, "count": 4, "type": "VEC3"}, {"bufferView": 51, "byteOffset": 0, "componentType": 5123, "count": 6, "type": "SCALAR"}, {"bufferView": 52, "byteOffset": 0, "componentType": 5126, "count": 80, "type": "VEC3", "min": [1.0, 0.1181640625, 2.75], "max": [2.0, 0.219970703125, 3.25]}, {"bufferView": 53, "byteOffset": 0, "componentType": 5126, "count": 80, "type": "VEC2"}, {"bufferView": 54, "byteOffset": 0, "componentType": 5126, "count": 80, "type": "VEC3"}, {"bufferView": 55, "byteOffset": 0, "componentType": 5123, "count": 120, "type": "SCALAR"}, {"bufferView": 56, "byteOffset": 0, "componentType": 5126, "count": 48, "type": "VEC3", "min": [1.0244140625, 0.0, 2.776123046875], "max": [1.9755859375, 0.159423828125, 3.223876953125]}, {"bufferView": 57, "byteOffset": 0, "componentType": 5126, "count": 48, "type": "VEC2"}, {"bufferView": 58, "byteOffset": 0, "componentType": 5126, "count": 48, "type": "VEC3"}, {"bufferView": 59, "byteOffset": 0, "componentType": 5123, "count": 72, "type": "SCALAR"}, {"bufferView": 60, "byteOffset": 0, "componentType": 5126, "count": 118, "type": "VEC3", "min": [2.78173828125, 0.0, 2.259033203125], "max": [4.75, 0.324951171875, 3.259033203125]}, {"bufferView": 61, "byteOffset": 0, "componentType": 5126, "count": 118, "type": "VEC2"}, {"bufferView": 62, "byteOffset": 0, "componentType": 5126, "count": 118, "type": "VEC3"}, {"bufferView": 63, "byteOffset": 0, "componentType": 5123, "count": 252, "type": "SCALAR"}, {"bufferView": 64, "byteOffset": 0, "componentType": 5126, "count": 52, "type": "VEC3", "min": [2.74951171875, 0.324951171875, 2.25830078125], "max": [4.75, 0.375, 3.259521484375]}, {"bufferView": 65, "byteOffset": 0, "componentType": 5126, "count": 52, "type": "VEC2"}, {"bufferView": 66, "byteOffset": 0, "componentType": 5126, "count": 52, "type": "VEC3"}, {"bufferView": 67, "byteOffset": 0, "componentType": 5123, "count": 90, "type": "SCALAR"}, {"bufferView": 68, "byteOffset": 0, "componentType": 5126, "count": 80, "type": "VEC3", "min": [2.85009765625, 0.375, 2.47607421875], "max": [4.449951171875, 0.574951171875, 3.020751953125]}, {"bufferView": 69, "byteOffset": 0, "componentType": 5126, "count": 80, "type": "VEC2"}, {"bufferView": 70, "byteOffset": 0, "componentType": 5126, "count": 80, "type": "VEC3"}, {"bufferView": 71, "byteOffset": 0, "componentType": 5123, "count": 150, "type": "SCALAR"}, {"bufferView": 72, "byteOffset": 0, "componentType": 5126, "count": 128, "type": "VEC3", "min": [3.0, 0.375, 2.420654296875], "max": [4.449951171875, 0.574951171875, 2.926025390625]}, {"bufferView": 73, "byteOffset": 0, "componentType": 5126, "count": 128, "type": "VEC2"}, {"bufferView": 74, "byteOffset": 0, "componentType": 5126, "count": 128, "type": "VEC3"}, {"bufferView": 75, "byteOffset": 0, "componentType": 5123, "count": 246, "type": "SCALAR"}, {"bufferView": 76, "byteOffset": 0, "componentType": 5126, "count": 59, "type": "VEC3", "min": [0.5, 0.0, 0.5], "max": [6.0, 2.0, 5.0]}, {"bufferView": 77, "byteOffset": 0, "componentType": 5126, "count": 59, "type": "VEC2"}, {"bufferView": 78, "byteOffset": 0, "componentType": 5126, "count": 59, "type": "VEC3"}, {"bufferView": 79, "byteOffset": 0, "componentType": 5123, "count": 141, "type": "SCALAR"}, {"bufferView": 80, "byteOffset": 0, "componentType": 5126, "count": 40, "type": "VEC3", "min": [0.5, 0.0, 0.5], "max": [6.0, 0.0, 5.0]}, {"bufferView": 81, "byteOffset": 0, "componentType": 5126, "count": 40, "type": "VEC2"}, {"bufferView": 82, "byteOffset": 0, "componentType": 5126, "count": 40, "type": "VEC3"}, {"bufferView": 83, "byteOffset": 0, "componentType": 5123, "count": 96, "type": "SCALAR"}, {"bufferView": 84, "byteOffset": 0, "componentType": 5126, "count": 64, "type": "VEC3", "min": [4.43994140625, 0.37939453125, 1.39501953125], "max": [5.81298828125, 0.712158203125, 3.215087890625]}, {"bufferView": 85, "byteOffset": 0, "componentType": 5126, "count": 64, "type": "VEC2"}, {"bufferView": 86, "byteOffset": 0, "componentType": 5126, "count": 64, "type": "VEC3"}, {"bufferView": 87, "byteOffset": 0, "componentType": 5123, "count": 120, "type": "SCALAR"}, {"bufferView": 88, "byteOffset": 0, "componentType": 5126, "count": 114, "type": "VEC3", "min": [1.075439453125, 0.0, 1.75], "max": [1.924560546875, 0.477294921875, 4.25]}, {"bufferView": 89, "byteOffset": 0, "componentType": 5126, "count": 114, "type": "VEC2"}, {"bufferView": 90, "byteOffset": 0, "componentType": 5126, "count": 114, "type": "VEC3"}, {"bufferView": 91, "byteOffset": 0, "componentType": 5123, "count": 216, "type": "SCALAR"}, {"bufferView": 92, "byteOffset": 0, "componentType": 5126, "count": 100, "type": "VEC3", "min": [1.0, 0.0, 1.949951171875], "max": [2.0, 0.244140625, 4.050048828125]}, {"bufferView": 93, "byteOffset": 0, "componentType": 5126, "count": 100, "type": "VEC2"}, {"bufferView": 94, "byteOffset": 0, "componentType": 5126, "count": 100, "type": "VEC3"}, {"bufferView": 95, "byteOffset": 0, "componentType": 5123, "count": 192, "type": "SCALAR"}, {"bufferView": 96, "byteOffset": 0, "componentType": 5126, "count": 560, "type": "VEC3", "min": [2.92578125, 0.0, 1.60791015625], "max": [5.247314453125, 0.348388671875, 3.876220703125]}, {"bufferView": 97, "byteOffset": 0, "componentType": 5126, "count": 560, "type": "VEC2"}, {"bufferView": 98, "byteOffset": 0, "componentType": 5126, "count": 560, "type": "VEC3"}, {"bufferView": 99, "byteOffset": 0, "componentType": 5123, "count": 1020, "type": "SCALAR"}, {"bufferView": 100, "byteOffset": 0, "componentType": 5126, "count": 102, "type": "VEC3", "min": [2.88330078125, 0.181640625, 1.64794921875], "max": [5.207275390625, 0.54052734375, 3.836181640625]}, {"bufferView": 101, "byteOffset": 0, "componentType": 5126, "count": 102, "type": "VEC2"}, {"bufferView": 102, "byteOffset": 0, "componentType": 5126, "count": 102, "type": "VEC3"}, {"bufferView": 103, "byteOffset": 0, "componentType": 5123, "count": 180, "type": "SCALAR"}, {"bufferView": 104, "byteOffset": 0, "componentType": 5126, "count": 62, "type": "VEC3", "min": [0.5, 0.014892578125, 0.5], "max": [5.99560546875, 0.014892578125, 4.335205078125]}, {"bufferView": 105, "byteOffset": 0, "componentType": 5126, "count": 62, "type": "VEC2"}, {"bufferView": 106, "byteOffset": 0, "componentType": 5126, "count": 62, "type": "VEC3"}, {"bufferView": 107, "byteOffset": 0, "componentType": 5123, "count": 120, "type": "SCALAR"}, {"bufferView": 108, "byteOffset": 0, "componentType": 5126, "count": 10, "type": "VEC3", "min": [0.300048828125, -0.199951171875, 5.0], "max": [6.199951171875, 2.0, 5.0]}, {"bufferView": 109, "byteOffset": 0, "componentType": 5126, "count": 10, "type": "VEC2"}, {"bufferView": 110, "byteOffset": 0, "componentType": 5126, "count": 10, "type": "VEC3"}, {"bufferView": 111, "byteOffset": 0, "componentType": 5123, "count": 18, "type": "SCALAR"}], "samplers": [{"magFilter": 9729, "minFilter": 9729, "wrapS": 10497, "wrapT": 10497}]}