{"asset": {"version": "2.0", "generator": "tongari-nsbmd-to-gltf"}, "scene": 0, "scenes": [{"nodes": [0, 1]}], "nodes": [{"name": "mori_g_c01", "translation": [0.0, 0.0, 0.0]}, {"mesh": 0, "name": "mori_g_c01"}], "meshes": [{"name": "mori_g_c01", "primitives": [{"attributes": {"POSITION": 0, "TEXCOORD_0": 1, "NORMAL": 2}, "indices": 3, "mode": 4, "material": 0}, {"attributes": {"POSITION": 4, "TEXCOORD_0": 5, "NORMAL": 6}, "indices": 7, "mode": 4, "material": 2}, {"attributes": {"POSITION": 8, "TEXCOORD_0": 9, "NORMAL": 10}, "indices": 11, "mode": 4, "material": 5}, {"attributes": {"POSITION": 12, "TEXCOORD_0": 13, "NORMAL": 14}, "indices": 15, "mode": 4, "material": 3}, {"attributes": {"POSITION": 16, "TEXCOORD_0": 17, "NORMAL": 18}, "indices": 19, "mode": 4, "material": 4}, {"attributes": {"POSITION": 20, "TEXCOORD_0": 21, "NORMAL": 22}, "indices": 23, "mode": 4, "material": 1}]}], "materials": [{"name": "mo_green00", "pbrMetallicRoughness": {"baseColorFactor": [1.0, 1.0, 1.0, 1.0], "metallicFactor": 0.0, "roughnessFactor": 1.0}, "alphaMode": "OPAQUE", "doubleSided": true}, {"name": "mo_green1", "pbrMetallicRoughness": {"baseColorFactor": [1.0, 1.0, 1.0, 1.0], "metallicFactor": 0.0, "roughnessFactor": 1.0}, "alphaMode": "OPAQUE", "doubleSided": true}, {"name": "mori_bush0", "pbrMetallicRoughness": {"baseColorFactor": [1.0, 1.0, 1.0, 1.0], "metallicFactor": 0.0, "roughnessFactor": 1.0}, "alphaMode": "OPAQUE", "doubleSided": true}, {"name": "tree_mori_g0", "pbrMetallicRoughness": {"baseColorFactor": [1.0, 1.0, 1.0, 1.0], "metallicFactor": 0.0, "roughnessFactor": 1.0}, "alphaMode": "OPAQUE", "doubleSided": true}, {"name": "tree_mori_g1_", "pbrMetallicRoughness": {"baseColorFactor": [1.0, 1.0, 1.0, 1.0], "metallicFactor": 0.0, "roughnessFactor": 1.0}, "alphaMode": "OPAQUE", "doubleSided": true}, {"name": "tree_mori_ki", "pbrMetallicRoughness": {"baseColorFactor": [1.0, 1.0, 1.0, 1.0], "metallicFactor": 0.0, "roughnessFactor": 1.0}, "alphaMode": "OPAQUE", "doubleSided": true}], "buffers": [{"byteLength": 1594, "uri": "data:application/octet-stream;base64,"}], "bufferViews": [{"buffer": 0, "byteOffset": 0, "byteLength": 132}, {"buffer": 0, "byteOffset": 132, "byteLength": 88}, {"buffer": 0, "byteOffset": 220, "byteLength": 132}, {"buffer": 0, "byteOffset": 352, "byteLength": 30}, {"buffer": 0, "byteOffset": 384, "byteLength": 60}, {"buffer": 0, "byteOffset": 444, "byteLength": 40}, {"buffer": 0, "byteOffset": 484, "byteLength": 60}, {"buffer": 0, "byteOffset": 544, "byteLength": 18}, {"buffer": 0, "byteOffset": 564, "byteLength": 168}, {"buffer": 0, "byteOffset": 732, "byteLength": 112}, {"buffer": 0, "byteOffset": 844, "byteLength": 168}, {"buffer": 0, "byteOffset": 1012, "byteLength": 60}, {"buffer": 0, "byteOffset": 1072, "byteLength": 96}, {"buffer": 0, "byteOffset": 1168, "byteLength": 64}, {"buffer": 0, "byteOffset": 1232, "byteLength": 96}, {"buffer": 0, "byteOffset": 1328, "byteLength": 24}, {"buffer": 0, "byteOffset": 1352, "byteLength": 48}, {"buffer": 0, "byteOffset": 1400, "byteLength": 32}, {"buffer": 0, "byteOffset": 1432, "byteLength": 48}, {"buffer": 0, "byteOffset": 1480, "byteLength": 12}, {"buffer": 0, "byteOffset": 1492, "byteLength": 36}, {"buffer": 0, "byteOffset": 1528, "byteLength": 24}, {"buffer": 0, "byteOffset": 1552, "byteLength": 36}, {"buffer": 0, "byteOffset": 1588, "byteLength": 6}], "accessors": [{"bufferView": 0, "byteOffset": 0, "componentType": 5126, "count": 11, "type": "VEC3", "min": [-1.5, 1.5, -2.3798828125], "max": [1.0, 1.800048828125, 0.179931640625]}, {"bufferView": 1, "byteOffset": 0, "componentType": 5126, "count": 11, "type": "VEC2"}, {"bufferView": 2, "byteOffset": 0, "componentType": 5126, "count": 11, "type": "VEC3"}, {"bufferView": 3, "byteOffset": 0, "componentType": 5123, "count": 15, "type": "SCALAR"}, {"bufferView": 4, "byteOffset": 0, "componentType": 5126, "count": 5, "type": "VEC3", "min": [-0.349853515625, 1.434326171875, -1.22900390625], "max": [1.97119140625, 3.030517578125, 1.024658203125]}, {"bufferView": 5, "byteOffset": 0, "componentType": 5126, "count": 5, "type": "VEC2"}, {"bufferView": 6, "byteOffset": 0, "componentType": 5126, "count": 5, "type": "VEC3"}, {"bufferView": 7, "byteOffset": 0, "componentType": 5123, "count": 9, "type": "SCALAR"}, {"bufferView": 8, "byteOffset": 0, "componentType": 5126, "count": 14, "type": "VEC3", "min": [-1.1064453125, 2.0078125, -1.33203125], "max": [0.53076171875, 3.9228515625, -1.226318359375]}, {"bufferView": 9, "byteOffset": 0, "componentType": 5126, "count": 14, "type": "VEC2"}, {"bufferView": 10, "byteOffset": 0, "componentType": 5126, "count": 14, "type": "VEC3"}, {"bufferView": 11, "byteOffset": 0, "componentType": 5123, "count": 30, "type": "SCALAR"}, {"bufferView": 12, "byteOffset": 0, "componentType": 5126, "count": 8, "type": "VEC3", "min": [-0.95654296875, 3.683349609375, -1.43896484375], "max": [1.298583984375, 5.4873046875, -0.95263671875]}, {"bufferView": 13, "byteOffset": 0, "componentType": 5126, "count": 8, "type": "VEC2"}, {"bufferView": 14, "byteOffset": 0, "componentType": 5126, "count": 8, "type": "VEC3"}, {"bufferView": 15, "byteOffset": 0, "componentType": 5123, "count": 12, "type": "SCALAR"}, {"bufferView": 16, "byteOffset": 0, "componentType": 5126, "count": 4, "type": "VEC3", "min": [-0.408447265625, 3.55419921875, -0.837646484375], "max": [0.74169921875, 5.024169921875, -0.6728515625]}, {"bufferView": 17, "byteOffset": 0, "componentType": 5126, "count": 4, "type": "VEC2"}, {"bufferView": 18, "byteOffset": 0, "componentType": 5126, "count": 4, "type": "VEC3"}, {"bufferView": 19, "byteOffset": 0, "componentType": 5123, "count": 6, "type": "SCALAR"}, {"bufferView": 20, "byteOffset": 0, "componentType": 5126, "count": 3, "type": "VEC3", "min": [-1.5, 1.5, -2.35009765625], "max": [1.0, 1.5, 0.14990234375]}, {"bufferView": 21, "byteOffset": 0, "componentType": 5126, "count": 3, "type": "VEC2"}, {"bufferView": 22, "byteOffset": 0, "componentType": 5126, "count": 3, "type": "VEC3"}, {"bufferView": 23, "byteOffset": 0, "componentType": 5123, "count": 3, "type": "SCALAR"}], "samplers": [{"magFilter": 9729, "minFilter": 9729, "wrapS": 10497, "wrapT": 10497}]}