{"asset": {"version": "2.0", "generator": "tongari-nsbmd-to-gltf"}, "scene": 0, "scenes": [{"nodes": [0, 11]}], "nodes": [{"name": "ef_701", "translation": [5.51953125, 1.037841796875, 6.5078125], "children": [1, 6]}, {"name": "kona_ef_742", "translation": [2.821044921875, 0.172607421875, 4.38916015625], "children": [2]}, {"name": "kona_group22", "translation": [0.0, 0.0, 0.0], "rotation": [0.0, 0.0, 0.0, 0.7071067811865476], "children": [3, 4, 5]}, {"name": "kona_pPlane77", "translation": [0.177490234375, 0.11376953125, 0.665771484375], "rotation": [-0.11937292100943715, 0.9525484936802431, 0.03479307359534319, -0.2777038323429418]}, {"name": "kona_pPlane79", "translation": [0.3154296875, 0.13232421875, 1.248291015625], "rotation": [0.007251049225455531, -0.707063621496503, -0.007251049225455531, 0.7070636214965029]}, {"name": "kona_pPlane83", "translation": [0.27587890625, 0.149658203125, 0.801025390625]}, {"name": "kona_ef_743", "translation": [2.821044921875, 0.172607421875, 4.38916015625], "children": [7]}, {"name": "kona_group22_1", "translation": [0.0, 0.0, 0.0], "rotation": [0.0, 0.0, 0.0, 0.7071067811865476], "children": [8, 9, 10]}, {"name": "kona_pPlane77_1", "translation": [0.170166015625, 0.112548828125, 0.197265625], "rotation": [-0.07467135956029415, 0.2598985482928966, -0.2659672453596343, 0.9252784103818429]}, {"name": "kona_pPlane83_1", "translation": [0.2744140625, 0.149658203125, 0.374267578125]}, {"name": "kona_pPlane84", "translation": [0.33154296875, 0.150390625, 0.5673828125], "rotation": [-0.6807642333482642, 0.19123799680387826, -0.19123799680387826, 0.6807642333482643]}, {"mesh": 0, "name": "ef_701"}], "meshes": [{"name": "ef_701", "primitives": [{"attributes": {"POSITION": 0, "TEXCOORD_0": 1}, "indices": 2, "mode": 4, "material": 0}, {"attributes": {"POSITION": 3, "TEXCOORD_0": 4}, "indices": 5, "mode": 4, "material": 0}, {"attributes": {"POSITION": 6, "TEXCOORD_0": 7}, "indices": 8, "mode": 4, "material": 0}, {"attributes": {"POSITION": 9, "TEXCOORD_0": 10}, "indices": 11, "mode": 4, "material": 0}, {"attributes": {"POSITION": 12, "TEXCOORD_0": 13}, "indices": 14, "mode": 4, "material": 0}, {"attributes": {"POSITION": 15, "TEXCOORD_0": 16}, "indices": 17, "mode": 4, "material": 0}]}], "materials": [{"name": "ef_ef_pc_1", "pbrMetallicRoughness": {"baseColorFactor": [1.0, 1.0, 1.0, 1.0], "metallicFactor": 0.0, "roughnessFactor": 1.0}, "alphaMode": "OPAQUE", "doubleSided": true}], "buffers": [{"byteLength": 552, "uri": "data:application/octet-stream;base64,"}], "bufferViews": [{"buffer": 0, "byteOffset": 0, "byteLength": 48}, {"buffer": 0, "byteOffset": 48, "byteLength": 32}, {"buffer": 0, "byteOffset": 80, "byteLength": 12}, {"buffer": 0, "byteOffset": 92, "byteLength": 48}, {"buffer": 0, "byteOffset": 140, "byteLength": 32}, {"buffer": 0, "byteOffset": 172, "byteLength": 12}, {"buffer": 0, "byteOffset": 184, "byteLength": 48}, {"buffer": 0, "byteOffset": 232, "byteLength": 32}, {"buffer": 0, "byteOffset": 264, "byteLength": 12}, {"buffer": 0, "byteOffset": 276, "byteLength": 48}, {"buffer": 0, "byteOffset": 324, "byteLength": 32}, {"buffer": 0, "byteOffset": 356, "byteLength": 12}, {"buffer": 0, "byteOffset": 368, "byteLength": 48}, {"buffer": 0, "byteOffset": 416, "byteLength": 32}, {"buffer": 0, "byteOffset": 448, "byteLength": 12}, {"buffer": 0, "byteOffset": 460, "byteLength": 48}, {"buffer": 0, "byteOffset": 508, "byteLength": 32}, {"buffer": 0, "byteOffset": 540, "byteLength": 12}], "accessors": [{"bufferView": 0, "byteOffset": 0, "componentType": 5126, "count": 4, "type": "VEC3", "min": [5.26953125, 1.037841796875, 6.2578125], "max": [5.76953125, 1.037841796875, 6.7578125]}, {"bufferView": 1, "byteOffset": 0, "componentType": 5126, "count": 4, "type": "VEC2"}, {"bufferView": 2, "byteOffset": 0, "componentType": 5123, "count": 6, "type": "SCALAR"}, {"bufferView": 3, "byteOffset": 0, "componentType": 5126, "count": 4, "type": "VEC3", "min": [5.26953125, 1.037841796875, 6.2578125], "max": [5.76953125, 1.037841796875, 6.7578125]}, {"bufferView": 4, "byteOffset": 0, "componentType": 5126, "count": 4, "type": "VEC2"}, {"bufferView": 5, "byteOffset": 0, "componentType": 5123, "count": 6, "type": "SCALAR"}, {"bufferView": 6, "byteOffset": 0, "componentType": 5126, "count": 4, "type": "VEC3", "min": [5.26953125, 1.037841796875, 6.2578125], "max": [5.76953125, 1.037841796875, 6.7578125]}, {"bufferView": 7, "byteOffset": 0, "componentType": 5126, "count": 4, "type": "VEC2"}, {"bufferView": 8, "byteOffset": 0, "componentType": 5123, "count": 6, "type": "SCALAR"}, {"bufferView": 9, "byteOffset": 0, "componentType": 5126, "count": 4, "type": "VEC3", "min": [5.26953125, 1.037841796875, 6.2578125], "max": [5.76953125, 1.037841796875, 6.7578125]}, {"bufferView": 10, "byteOffset": 0, "componentType": 5126, "count": 4, "type": "VEC2"}, {"bufferView": 11, "byteOffset": 0, "componentType": 5123, "count": 6, "type": "SCALAR"}, {"bufferView": 12, "byteOffset": 0, "componentType": 5126, "count": 4, "type": "VEC3", "min": [5.26953125, 1.037841796875, 6.2578125], "max": [5.76953125, 1.037841796875, 6.7578125]}, {"bufferView": 13, "byteOffset": 0, "componentType": 5126, "count": 4, "type": "VEC2"}, {"bufferView": 14, "byteOffset": 0, "componentType": 5123, "count": 6, "type": "SCALAR"}, {"bufferView": 15, "byteOffset": 0, "componentType": 5126, "count": 4, "type": "VEC3", "min": [5.26953125, 1.037841796875, 6.2578125], "max": [5.76953125, 1.037841796875, 6.7578125]}, {"bufferView": 16, "byteOffset": 0, "componentType": 5126, "count": 4, "type": "VEC2"}, {"bufferView": 17, "byteOffset": 0, "componentType": 5123, "count": 6, "type": "SCALAR"}], "samplers": [{"magFilter": 9729, "minFilter": 9729, "wrapS": 10497, "wrapT": 10497}]}