{"asset": {"version": "2.0", "generator": "tongari-nsbmd-to-gltf"}, "scene": 0, "scenes": [{"nodes": [0, 3]}], "nodes": [{"name": "bone00", "translation": [0.0, 0.0, 0.0], "children": [1]}, {"name": "bone01", "translation": [0.0, 0.0, -0.701171875], "children": [2]}, {"name": "bone02", "translation": [0.0, 0.0, -0.665283203125]}, {"mesh": 0, "name": "4862fish72_r"}], "meshes": [{"name": "4862fish72_r", "primitives": [{"attributes": {"POSITION": 0, "TEXCOORD_0": 1, "NORMAL": 2}, "indices": 3, "mode": 4, "material": 0}]}], "materials": [{"name": "fish72_fish72", "pbrMetallicRoughness": {"baseColorFactor": [1.0, 1.0, 1.0, 1.0], "metallicFactor": 0.0, "roughnessFactor": 1.0}, "alphaMode": "OPAQUE", "doubleSided": true}], "buffers": [{"byteLength": 2620, "uri": "data:application/octet-stream;base64,"}], "bufferViews": [{"buffer": 0, "byteOffset": 0, "byteLength": 888}, {"buffer": 0, "byteOffset": 888, "byteLength": 592}, {"buffer": 0, "byteOffset": 1480, "byteLength": 888}, {"buffer": 0, "byteOffset": 2368, "byteLength": 252}], "accessors": [{"bufferView": 0, "byteOffset": 0, "componentType": 5126, "count": 74, "type": "VEC3", "min": [-0.119873046875, -0.19873046875, -1.6025390625], "max": [0.119873046875, 0.314697265625, 0.0]}, {"bufferView": 1, "byteOffset": 0, "componentType": 5126, "count": 74, "type": "VEC2"}, {"bufferView": 2, "byteOffset": 0, "componentType": 5126, "count": 74, "type": "VEC3"}, {"bufferView": 3, "byteOffset": 0, "componentType": 5123, "count": 126, "type": "SCALAR"}], "samplers": [{"magFilter": 9729, "minFilter": 9729, "wrapS": 10497, "wrapT": 10497}]}