{"asset": {"version": "2.0", "generator": "tongari-nsbmd-to-gltf"}, "scene": 0, "scenes": [{"nodes": [0, 3]}], "nodes": [{"name": "root", "translation": [0.0, 0.0, 0.0], "children": [1, 2]}, {"name": "bone_l", "translation": [0.752197265625, 1.0, 0.357421875], "rotation": [0.0017263349150062194, -0.7071067811865475, 0.7071067811865476, -0.0017263349150062194]}, {"name": "bone_r", "translation": [-0.751953125, 1.0, 0.357177734375], "rotation": [-0.0017263349150062194, -0.7071067811865475, 0.7071067811865476, 0.0017263349150062194]}, {"mesh": 0, "name": "3150IMFY03_02"}], "meshes": [{"name": "3150IMFY03_02", "primitives": [{"attributes": {"POSITION": 0, "TEXCOORD_0": 1, "NORMAL": 2}, "indices": 3, "mode": 4, "material": 2}, {"attributes": {"POSITION": 4, "TEXCOORD_0": 5, "NORMAL": 6}, "indices": 7, "mode": 4, "material": 0}, {"attributes": {"POSITION": 8, "TEXCOORD_0": 9, "NORMAL": 10}, "indices": 11, "mode": 4, "material": 1}]}], "materials": [{"name": "imfy03_02_0", "pbrMetallicRoughness": {"baseColorFactor": [1.0, 1.0, 1.0, 1.0], "metallicFactor": 0.0, "roughnessFactor": 1.0}, "alphaMode": "OPAQUE", "doubleSided": true}, {"name": "imfy03_02_1", "pbrMetallicRoughness": {"baseColorFactor": [1.0, 1.0, 1.0, 1.0], "metallicFactor": 0.0, "roughnessFactor": 1.0}, "alphaMode": "OPAQUE", "doubleSided": true}, {"name": "imfy03_02_2", "pbrMetallicRoughness": {"baseColorFactor": [1.0, 1.0, 1.0, 1.0], "metallicFactor": 0.0, "roughnessFactor": 1.0}, "alphaMode": "OPAQUE", "doubleSided": true}], "buffers": [{"byteLength": 4772, "uri": "data:application/octet-stream;base64,"}], "bufferViews": [{"buffer": 0, "byteOffset": 0, "byteLength": 480}, {"buffer": 0, "byteOffset": 480, "byteLength": 320}, {"buffer": 0, "byteOffset": 800, "byteLength": 480}, {"buffer": 0, "byteOffset": 1280, "byteLength": 132}, {"buffer": 0, "byteOffset": 1412, "byteLength": 144}, {"buffer": 0, "byteOffset": 1556, "byteLength": 96}, {"buffer": 0, "byteOffset": 1652, "byteLength": 144}, {"buffer": 0, "byteOffset": 1796, "byteLength": 36}, {"buffer": 0, "byteOffset": 1832, "byteLength": 1008}, {"buffer": 0, "byteOffset": 2840, "byteLength": 672}, {"buffer": 0, "byteOffset": 3512, "byteLength": 1008}, {"buffer": 0, "byteOffset": 4520, "byteLength": 252}], "accessors": [{"bufferView": 0, "byteOffset": 0, "componentType": 5126, "count": 40, "type": "VEC3", "min": [-0.7872285842895508, 0.225830078125, -0.4169921875], "max": [0.7874977588653564, 1.978271484375, 1.131591796875]}, {"bufferView": 1, "byteOffset": 0, "componentType": 5126, "count": 40, "type": "VEC2"}, {"bufferView": 2, "byteOffset": 0, "componentType": 5126, "count": 40, "type": "VEC3"}, {"bufferView": 3, "byteOffset": 0, "componentType": 5123, "count": 66, "type": "SCALAR"}, {"bufferView": 4, "byteOffset": 0, "componentType": 5126, "count": 12, "type": "VEC3", "min": [-0.787109375, -0.747314453125, -0.389892578125], "max": [0.787109375, 1.747314453125, 1.131591796875]}, {"bufferView": 5, "byteOffset": 0, "componentType": 5126, "count": 12, "type": "VEC2"}, {"bufferView": 6, "byteOffset": 0, "componentType": 5126, "count": 12, "type": "VEC3"}, {"bufferView": 7, "byteOffset": 0, "componentType": 5123, "count": 18, "type": "SCALAR"}, {"bufferView": 8, "byteOffset": 0, "componentType": 5126, "count": 84, "type": "VEC3", "min": [-0.7872285842895508, 0.011962890625, -0.389892578125], "max": [0.7874977588653564, 1.978271484375, 1.1044921875]}, {"bufferView": 9, "byteOffset": 0, "componentType": 5126, "count": 84, "type": "VEC2"}, {"bufferView": 10, "byteOffset": 0, "componentType": 5126, "count": 84, "type": "VEC3"}, {"bufferView": 11, "byteOffset": 0, "componentType": 5123, "count": 126, "type": "SCALAR"}], "samplers": [{"magFilter": 9729, "minFilter": 9729, "wrapS": 10497, "wrapT": 10497}]}