{"asset": {"version": "2.0", "generator": "tongari-nsbmd-to-gltf"}, "scene": 0, "scenes": [{"nodes": [0, 14]}], "nodes": [{"name": "root", "translation": [0.0, 0.465087890625, 0.000244140625], "children": [1, 9]}, {"name": "chest", "translation": [0.0, 0.05908203125, 0.03369140625], "children": [2, 4, 6]}, {"name": "l_shoulder", "translation": [0.15869140625, 0.2421875, -0.057373046875], "children": [3]}, {"name": "l_elbow", "translation": [0.166015625, -0.0078125, 0.0]}, {"name": "neck", "translation": [0.0, 0.28857421875, -0.05615234375], "children": [5]}, {"name": "mouse", "translation": [0.0, 0.06396484375, 0.225830078125]}, {"name": "r_shoulder", "translation": [-0.15869140625, 0.2421875, -0.057373046875], "children": [7]}, {"name": "r_elbow", "translation": [-0.166015625, -0.0078125, 0.0], "children": [8]}, {"name": "r_hand", "translation": [-0.190185546875, -0.009033203125, 0.031005859375]}, {"name": "hip", "translation": [0.0, -0.0556640625, -0.0302734375], "children": [10, 11, 12]}, {"name": "l_knee", "translation": [0.10595703125, -0.0419921875, 0.04736328125]}, {"name": "r_knee", "translation": [-0.10595703125, -0.0419921875, 0.04736328125]}, {"name": "tail1", "translation": [0.0, -0.009521484375, -0.104736328125], "children": [13]}, {"name": "tail2", "translation": [0.0, 0.0, -0.149658203125]}, {"mesh": 0, "name": "npc1072_0"}], "meshes": [{"name": "npc1072_0", "primitives": [{"attributes": {"POSITION": 0, "TEXCOORD_0": 1, "NORMAL": 2}, "indices": 3, "mode": 4, "material": 4}, {"attributes": {"POSITION": 4, "TEXCOORD_0": 5, "NORMAL": 6}, "indices": 7, "mode": 4, "material": 2}, {"attributes": {"POSITION": 8, "TEXCOORD_0": 9, "NORMAL": 10}, "indices": 11, "mode": 4, "material": 0}, {"attributes": {"POSITION": 12, "TEXCOORD_0": 13, "NORMAL": 14}, "indices": 15, "mode": 4, "material": 1}, {"attributes": {"POSITION": 16, "TEXCOORD_0": 17, "NORMAL": 18}, "indices": 19, "mode": 4, "material": 3}]}], "materials": [{"name": "c00_face", "pbrMetallicRoughness": {"baseColorFactor": [1.0, 1.0, 1.0, 1.0], "metallicFactor": 0.0, "roughnessFactor": 1.0}, "alphaMode": "OPAQUE", "doubleSided": true}, {"name": "c01_cloth_u", "pbrMetallicRoughness": {"baseColorFactor": [1.0, 1.0, 1.0, 1.0], "metallicFactor": 0.0, "roughnessFactor": 1.0}, "alphaMode": "OPAQUE", "doubleSided": true}, {"name": "c02_cloth_d", "pbrMetallicRoughness": {"baseColorFactor": [1.0, 1.0, 1.0, 1.0], "metallicFactor": 0.0, "roughnessFactor": 1.0}, "alphaMode": "OPAQUE", "doubleSided": true}, {"name": "c10_waku", "pbrMetallicRoughness": {"baseColorFactor": [1.0, 1.0, 1.0, 1.0], "metallicFactor": 0.0, "roughnessFactor": 1.0}, "alphaMode": "OPAQUE", "doubleSided": true}, {"name": "c11_red", "pbrMetallicRoughness": {"baseColorFactor": [1.0, 1.0, 1.0, 1.0], "metallicFactor": 0.0, "roughnessFactor": 1.0}, "alphaMode": "OPAQUE", "doubleSided": true}], "buffers": [{"byteLength": 14704, "uri": "data:application/octet-stream;base64,"}], "bufferViews": [{"buffer": 0, "byteOffset": 0, "byteLength": 1392}, {"buffer": 0, "byteOffset": 1392, "byteLength": 928}, {"buffer": 0, "byteOffset": 2320, "byteLength": 1392}, {"buffer": 0, "byteOffset": 3712, "byteLength": 492}, {"buffer": 0, "byteOffset": 4204, "byteLength": 576}, {"buffer": 0, "byteOffset": 4780, "byteLength": 384}, {"buffer": 0, "byteOffset": 5164, "byteLength": 576}, {"buffer": 0, "byteOffset": 5740, "byteLength": 180}, {"buffer": 0, "byteOffset": 5920, "byteLength": 1104}, {"buffer": 0, "byteOffset": 7024, "byteLength": 736}, {"buffer": 0, "byteOffset": 7760, "byteLength": 1104}, {"buffer": 0, "byteOffset": 8864, "byteLength": 348}, {"buffer": 0, "byteOffset": 9212, "byteLength": 1368}, {"buffer": 0, "byteOffset": 10580, "byteLength": 912}, {"buffer": 0, "byteOffset": 11492, "byteLength": 1368}, {"buffer": 0, "byteOffset": 12860, "byteLength": 420}, {"buffer": 0, "byteOffset": 13280, "byteLength": 480}, {"buffer": 0, "byteOffset": 13760, "byteLength": 320}, {"buffer": 0, "byteOffset": 14080, "byteLength": 480}, {"buffer": 0, "byteOffset": 14560, "byteLength": 144}], "accessors": [{"bufferView": 0, "byteOffset": 0, "componentType": 5126, "count": 116, "type": "VEC3", "min": [-0.54150390625, 0.35888671875, -0.447509765625], "max": [0.54150390625, 1.336669921875, 0.384765625]}, {"bufferView": 1, "byteOffset": 0, "componentType": 5126, "count": 116, "type": "VEC2"}, {"bufferView": 2, "byteOffset": 0, "componentType": 5126, "count": 116, "type": "VEC3"}, {"bufferView": 3, "byteOffset": 0, "componentType": 5123, "count": 246, "type": "SCALAR"}, {"bufferView": 4, "byteOffset": 0, "componentType": 5126, "count": 48, "type": "VEC3", "min": [-0.100341796875, 0.1943359375, -0.110107421875], "max": [0.3857421875, 0.805419921875, 0.055419921875]}, {"bufferView": 5, "byteOffset": 0, "componentType": 5126, "count": 48, "type": "VEC2"}, {"bufferView": 6, "byteOffset": 0, "componentType": 5126, "count": 48, "type": "VEC3"}, {"bufferView": 7, "byteOffset": 0, "componentType": 5123, "count": 90, "type": "SCALAR"}, {"bufferView": 8, "byteOffset": 0, "componentType": 5126, "count": 92, "type": "VEC3", "min": [-0.42431640625, 0.09765625, -0.101806640625], "max": [0.59033203125, 1.463623046875, 0.4716796875]}, {"bufferView": 9, "byteOffset": 0, "componentType": 5126, "count": 92, "type": "VEC2"}, {"bufferView": 10, "byteOffset": 0, "componentType": 5126, "count": 92, "type": "VEC3"}, {"bufferView": 11, "byteOffset": 0, "componentType": 5123, "count": 174, "type": "SCALAR"}, {"bufferView": 12, "byteOffset": 0, "componentType": 5126, "count": 114, "type": "VEC3", "min": [-0.602783203125, 0.548583984375, -0.235107421875], "max": [0.459228515625, 0.895263671875, 0.261962890625]}, {"bufferView": 13, "byteOffset": 0, "componentType": 5126, "count": 114, "type": "VEC2"}, {"bufferView": 14, "byteOffset": 0, "componentType": 5126, "count": 114, "type": "VEC3"}, {"bufferView": 15, "byteOffset": 0, "componentType": 5123, "count": 210, "type": "SCALAR"}, {"bufferView": 16, "byteOffset": 0, "componentType": 5126, "count": 40, "type": "VEC3", "min": [-0.4853515625, 0.39453125, 0.358642578125], "max": [0.484130859375, 1.260009765625, 0.4033203125]}, {"bufferView": 17, "byteOffset": 0, "componentType": 5126, "count": 40, "type": "VEC2"}, {"bufferView": 18, "byteOffset": 0, "componentType": 5126, "count": 40, "type": "VEC3"}, {"bufferView": 19, "byteOffset": 0, "componentType": 5123, "count": 72, "type": "SCALAR"}], "samplers": [{"magFilter": 9729, "minFilter": 9729, "wrapS": 10497, "wrapT": 10497}]}