{"asset": {"version": "2.0", "generator": "tongari-nsbmd-to-gltf"}, "scene": 0, "scenes": [{"nodes": [0, 1]}], "nodes": [{"name": "code_head58", "translation": [0.0, 1.871826171875, 0.0859375]}, {"mesh": 0, "name": "code_head58"}], "meshes": [{"name": "code_head58", "primitives": [{"attributes": {"POSITION": 0, "TEXCOORD_0": 1, "NORMAL": 2}, "indices": 3, "mode": 4, "material": 0}]}], "materials": [{"name": "zc08_hat58", "pbrMetallicRoughness": {"baseColorFactor": [1.0, 1.0, 1.0, 1.0], "metallicFactor": 0.0, "roughnessFactor": 1.0}, "alphaMode": "OPAQUE", "doubleSided": true}], "buffers": [{"byteLength": 1628, "uri": "data:application/octet-stream;base64,"}], "bufferViews": [{"buffer": 0, "byteOffset": 0, "byteLength": 552}, {"buffer": 0, "byteOffset": 552, "byteLength": 368}, {"buffer": 0, "byteOffset": 920, "byteLength": 552}, {"buffer": 0, "byteOffset": 1472, "byteLength": 156}], "accessors": [{"bufferView": 0, "byteOffset": 0, "componentType": 5126, "count": 46, "type": "VEC3", "min": [-0.311767578125, 1.704833984375, -0.003173828125], "max": [0.311767578125, 2.00439453125, 0.106689453125]}, {"bufferView": 1, "byteOffset": 0, "componentType": 5126, "count": 46, "type": "VEC2"}, {"bufferView": 2, "byteOffset": 0, "componentType": 5126, "count": 46, "type": "VEC3"}, {"bufferView": 3, "byteOffset": 0, "componentType": 5123, "count": 78, "type": "SCALAR"}], "samplers": [{"magFilter": 9729, "minFilter": 9729, "wrapS": 10497, "wrapT": 10497}]}