{"asset": {"version": "2.0", "generator": "tongari-nsbmd-to-gltf"}, "scene": 0, "scenes": [{"nodes": [0, 1]}], "nodes": [{"name": "imfy01_02", "translation": [0.0, 0.0, 0.0]}, {"mesh": 0, "name": "3133IMFY01_02"}], "meshes": [{"name": "3133IMFY01_02", "primitives": [{"attributes": {"POSITION": 0, "TEXCOORD_0": 1, "NORMAL": 2}, "indices": 3, "mode": 4, "material": 3}, {"attributes": {"POSITION": 4, "TEXCOORD_0": 5, "NORMAL": 6}, "indices": 7, "mode": 4, "material": 2}, {"attributes": {"POSITION": 8, "TEXCOORD_0": 9, "NORMAL": 10}, "indices": 11, "mode": 4, "material": 1}, {"attributes": {"POSITION": 12, "TEXCOORD_0": 13, "NORMAL": 14}, "indices": 15, "mode": 4, "material": 0}]}], "materials": [{"name": "imfy01_02_0", "pbrMetallicRoughness": {"baseColorFactor": [1.0, 1.0, 1.0, 1.0], "metallicFactor": 0.0, "roughnessFactor": 1.0}, "alphaMode": "OPAQUE", "doubleSided": true}, {"name": "imfy01_02_1", "pbrMetallicRoughness": {"baseColorFactor": [1.0, 1.0, 1.0, 1.0], "metallicFactor": 0.0, "roughnessFactor": 1.0}, "alphaMode": "OPAQUE", "doubleSided": true}, {"name": "imfy01_02_2", "pbrMetallicRoughness": {"baseColorFactor": [1.0, 1.0, 1.0, 1.0], "metallicFactor": 0.0, "roughnessFactor": 1.0}, "alphaMode": "OPAQUE", "doubleSided": true}, {"name": "imfy01_02_3", "pbrMetallicRoughness": {"baseColorFactor": [1.0, 1.0, 1.0, 1.0], "metallicFactor": 0.0, "roughnessFactor": 1.0}, "alphaMode": "OPAQUE", "doubleSided": true}], "buffers": [{"byteLength": 3628, "uri": "data:application/octet-stream;base64,"}], "bufferViews": [{"buffer": 0, "byteOffset": 0, "byteLength": 288}, {"buffer": 0, "byteOffset": 288, "byteLength": 192}, {"buffer": 0, "byteOffset": 480, "byteLength": 288}, {"buffer": 0, "byteOffset": 768, "byteLength": 72}, {"buffer": 0, "byteOffset": 840, "byteLength": 480}, {"buffer": 0, "byteOffset": 1320, "byteLength": 320}, {"buffer": 0, "byteOffset": 1640, "byteLength": 480}, {"buffer": 0, "byteOffset": 2120, "byteLength": 120}, {"buffer": 0, "byteOffset": 2240, "byteLength": 408}, {"buffer": 0, "byteOffset": 2648, "byteLength": 272}, {"buffer": 0, "byteOffset": 2920, "byteLength": 408}, {"buffer": 0, "byteOffset": 3328, "byteLength": 84}, {"buffer": 0, "byteOffset": 3412, "byteLength": 72}, {"buffer": 0, "byteOffset": 3484, "byteLength": 48}, {"buffer": 0, "byteOffset": 3532, "byteLength": 72}, {"buffer": 0, "byteOffset": 3604, "byteLength": 24}], "accessors": [{"bufferView": 0, "byteOffset": 0, "componentType": 5126, "count": 24, "type": "VEC3", "min": [-0.83544921875, 0.0, -0.98046875], "max": [0.83544921875, 0.75, 0.98046875]}, {"bufferView": 1, "byteOffset": 0, "componentType": 5126, "count": 24, "type": "VEC2"}, {"bufferView": 2, "byteOffset": 0, "componentType": 5126, "count": 24, "type": "VEC3"}, {"bufferView": 3, "byteOffset": 0, "componentType": 5123, "count": 36, "type": "SCALAR"}, {"bufferView": 4, "byteOffset": 0, "componentType": 5126, "count": 40, "type": "VEC3", "min": [-0.98046875, 0.0, -0.98046875], "max": [0.98046875, 0.75, 0.98046875]}, {"bufferView": 5, "byteOffset": 0, "componentType": 5126, "count": 40, "type": "VEC2"}, {"bufferView": 6, "byteOffset": 0, "componentType": 5126, "count": 40, "type": "VEC3"}, {"bufferView": 7, "byteOffset": 0, "componentType": 5123, "count": 60, "type": "SCALAR"}, {"bufferView": 8, "byteOffset": 0, "componentType": 5126, "count": 34, "type": "VEC3", "min": [-0.98046875, 0.75, -0.98046875], "max": [0.98046875, 0.75, 0.98046875]}, {"bufferView": 9, "byteOffset": 0, "componentType": 5126, "count": 34, "type": "VEC2"}, {"bufferView": 10, "byteOffset": 0, "componentType": 5126, "count": 34, "type": "VEC3"}, {"bufferView": 11, "byteOffset": 0, "componentType": 5123, "count": 42, "type": "SCALAR"}, {"bufferView": 12, "byteOffset": 0, "componentType": 5126, "count": 6, "type": "VEC3", "min": [-0.835693359375, 0.75, -0.835693359375], "max": [0.835693359375, 0.75, 0.835693359375]}, {"bufferView": 13, "byteOffset": 0, "componentType": 5126, "count": 6, "type": "VEC2"}, {"bufferView": 14, "byteOffset": 0, "componentType": 5126, "count": 6, "type": "VEC3"}, {"bufferView": 15, "byteOffset": 0, "componentType": 5123, "count": 12, "type": "SCALAR"}], "samplers": [{"magFilter": 9729, "minFilter": 9729, "wrapS": 10497, "wrapT": 10497}]}