{"asset": {"version": "2.0", "generator": "tongari-nsbmd-to-gltf"}, "scene": 0, "scenes": [{"nodes": [0, 1]}], "nodes": [{"name": "sp_summer", "translation": [-0.00927734375, 0.109375, 0.3095703125]}, {"mesh": 0, "name": "sp_summer"}], "meshes": [{"name": "sp_summer", "primitives": [{"attributes": {"POSITION": 0, "TEXCOORD_0": 1, "NORMAL": 2}, "indices": 3, "mode": 4, "material": 0}, {"attributes": {"POSITION": 4, "TEXCOORD_0": 5, "NORMAL": 6}, "indices": 7, "mode": 4, "material": 2}, {"attributes": {"POSITION": 8, "TEXCOORD_0": 9, "NORMAL": 10}, "indices": 11, "mode": 4, "material": 1}]}], "materials": [{"name": "summer_01", "pbrMetallicRoughness": {"baseColorFactor": [0.803921568627451, 0.803921568627451, 0.803921568627451, 1.0], "metallicFactor": 0.0, "roughnessFactor": 1.0}, "alphaMode": "OPAQUE", "doubleSided": true}, {"name": "summer_02", "pbrMetallicRoughness": {"baseColorFactor": [0.803921568627451, 0.803921568627451, 0.803921568627451, 1.0], "metallicFactor": 0.0, "roughnessFactor": 1.0}, "alphaMode": "OPAQUE", "doubleSided": true}, {"name": "summer_03", "pbrMetallicRoughness": {"baseColorFactor": [0.803921568627451, 0.803921568627451, 0.803921568627451, 1.0], "metallicFactor": 0.0, "roughnessFactor": 1.0}, "alphaMode": "OPAQUE", "doubleSided": true}], "buffers": [{"byteLength": 3156, "uri": "data:application/octet-stream;base64,"}], "bufferViews": [{"buffer": 0, "byteOffset": 0, "byteLength": 504}, {"buffer": 0, "byteOffset": 504, "byteLength": 336}, {"buffer": 0, "byteOffset": 840, "byteLength": 504}, {"buffer": 0, "byteOffset": 1344, "byteLength": 132}, {"buffer": 0, "byteOffset": 1476, "byteLength": 192}, {"buffer": 0, "byteOffset": 1668, "byteLength": 128}, {"buffer": 0, "byteOffset": 1796, "byteLength": 192}, {"buffer": 0, "byteOffset": 1988, "byteLength": 48}, {"buffer": 0, "byteOffset": 2036, "byteLength": 384}, {"buffer": 0, "byteOffset": 2420, "byteLength": 256}, {"buffer": 0, "byteOffset": 2676, "byteLength": 384}, {"buffer": 0, "byteOffset": 3060, "byteLength": 96}], "accessors": [{"bufferView": 0, "byteOffset": 0, "componentType": 5126, "count": 42, "type": "VEC3", "min": [-0.610595703125, 0.109375, -0.10107421875], "max": [0.61083984375, 1.663330078125, 0.72021484375]}, {"bufferView": 1, "byteOffset": 0, "componentType": 5126, "count": 42, "type": "VEC2"}, {"bufferView": 2, "byteOffset": 0, "componentType": 5126, "count": 42, "type": "VEC3"}, {"bufferView": 3, "byteOffset": 0, "componentType": 5123, "count": 66, "type": "SCALAR"}, {"bufferView": 4, "byteOffset": 0, "componentType": 5126, "count": 16, "type": "VEC3", "min": [-0.63037109375, 0.916748046875, 0.18359375], "max": [0.6162109375, 2.05712890625, 0.548095703125]}, {"bufferView": 5, "byteOffset": 0, "componentType": 5126, "count": 16, "type": "VEC2"}, {"bufferView": 6, "byteOffset": 0, "componentType": 5126, "count": 16, "type": "VEC3"}, {"bufferView": 7, "byteOffset": 0, "componentType": 5123, "count": 24, "type": "SCALAR"}, {"bufferView": 8, "byteOffset": 0, "componentType": 5126, "count": 32, "type": "VEC3", "min": [-0.634765625, 0.481201171875, 0.18505859375], "max": [0.572509765625, 1.4052734375, 0.450439453125]}, {"bufferView": 9, "byteOffset": 0, "componentType": 5126, "count": 32, "type": "VEC2"}, {"bufferView": 10, "byteOffset": 0, "componentType": 5126, "count": 32, "type": "VEC3"}, {"bufferView": 11, "byteOffset": 0, "componentType": 5123, "count": 48, "type": "SCALAR"}], "samplers": [{"magFilter": 9729, "minFilter": 9729, "wrapS": 10497, "wrapT": 10497}]}