{"asset": {"version": "2.0", "generator": "tongari-nsbmd-to-gltf"}, "scene": 0, "scenes": [{"nodes": [0, 1]}], "nodes": [{"name": "sh_s01_c07", "translation": [0.0, 0.0, 0.0]}, {"mesh": 0, "name": "sh_s01_c07"}], "meshes": [{"name": "sh_s01_c07", "primitives": [{"attributes": {"POSITION": 0, "TEXCOORD_0": 1, "NORMAL": 2}, "indices": 3, "mode": 4, "material": 1}, {"attributes": {"POSITION": 4, "TEXCOORD_0": 5, "NORMAL": 6}, "indices": 7, "mode": 4, "material": 0}]}], "materials": [{"name": "sh_t08c_0", "pbrMetallicRoughness": {"baseColorFactor": [0.803921568627451, 0.803921568627451, 0.803921568627451, 1.0], "metallicFactor": 0.0, "roughnessFactor": 1.0}, "alphaMode": "OPAQUE", "doubleSided": true}, {"name": "sh_t08c_1", "pbrMetallicRoughness": {"baseColorFactor": [0.803921568627451, 0.803921568627451, 0.803921568627451, 1.0], "metallicFactor": 0.0, "roughnessFactor": 1.0}, "alphaMode": "OPAQUE", "doubleSided": true}], "buffers": [{"byteLength": 2532, "uri": "data:application/octet-stream;base64,"}], "bufferViews": [{"buffer": 0, "byteOffset": 0, "byteLength": 384}, {"buffer": 0, "byteOffset": 384, "byteLength": 256}, {"buffer": 0, "byteOffset": 640, "byteLength": 384}, {"buffer": 0, "byteOffset": 1024, "byteLength": 96}, {"buffer": 0, "byteOffset": 1120, "byteLength": 480}, {"buffer": 0, "byteOffset": 1600, "byteLength": 320}, {"buffer": 0, "byteOffset": 1920, "byteLength": 480}, {"buffer": 0, "byteOffset": 2400, "byteLength": 132}], "accessors": [{"bufferView": 0, "byteOffset": 0, "componentType": 5126, "count": 32, "type": "VEC3", "min": [0.84716796875, 0.0, 4.160400390625], "max": [4.952880859375, 0.64990234375, 4.739990234375]}, {"bufferView": 1, "byteOffset": 0, "componentType": 5126, "count": 32, "type": "VEC2"}, {"bufferView": 2, "byteOffset": 0, "componentType": 5126, "count": 32, "type": "VEC3"}, {"bufferView": 3, "byteOffset": 0, "componentType": 5123, "count": 48, "type": "SCALAR"}, {"bufferView": 4, "byteOffset": 0, "componentType": 5126, "count": 40, "type": "VEC3", "min": [0.800048828125, 0.60009765625, 4.0], "max": [5.0, 0.739990234375, 4.89990234375]}, {"bufferView": 5, "byteOffset": 0, "componentType": 5126, "count": 40, "type": "VEC2"}, {"bufferView": 6, "byteOffset": 0, "componentType": 5126, "count": 40, "type": "VEC3"}, {"bufferView": 7, "byteOffset": 0, "componentType": 5123, "count": 66, "type": "SCALAR"}], "samplers": [{"magFilter": 9729, "minFilter": 9729, "wrapS": 10497, "wrapT": 10497}]}