{"asset": {"version": "2.0", "generator": "tongari-nsbmd-to-gltf"}, "scene": 0, "scenes": [{"nodes": [0, 1]}], "nodes": [{"name": "kg_sh0_22", "translation": [0.0, 0.0, 0.0]}, {"mesh": 0, "name": "3775kg_sh0_22"}], "meshes": [{"name": "3775kg_sh0_22", "primitives": [{"attributes": {"POSITION": 0, "TEXCOORD_0": 1, "NORMAL": 2}, "indices": 3, "mode": 4, "material": 3}, {"attributes": {"POSITION": 4, "TEXCOORD_0": 5, "NORMAL": 6}, "indices": 7, "mode": 4, "material": 2}, {"attributes": {"POSITION": 8, "TEXCOORD_0": 9, "NORMAL": 10}, "indices": 11, "mode": 4, "material": 0}, {"attributes": {"POSITION": 12, "TEXCOORD_0": 13, "NORMAL": 14}, "indices": 15, "mode": 4, "material": 1}]}], "materials": [{"name": "sh0_22_0", "pbrMetallicRoughness": {"baseColorFactor": [1.0, 1.0, 1.0, 1.0], "metallicFactor": 0.0, "roughnessFactor": 1.0}, "alphaMode": "OPAQUE", "doubleSided": true}, {"name": "sh0_22_1", "pbrMetallicRoughness": {"baseColorFactor": [1.0, 1.0, 1.0, 1.0], "metallicFactor": 0.0, "roughnessFactor": 1.0}, "alphaMode": "OPAQUE", "doubleSided": true}, {"name": "sh0_22_2", "pbrMetallicRoughness": {"baseColorFactor": [1.0, 1.0, 1.0, 1.0], "metallicFactor": 0.0, "roughnessFactor": 1.0}, "alphaMode": "OPAQUE", "doubleSided": true}, {"name": "sh0_22_3", "pbrMetallicRoughness": {"baseColorFactor": [1.0, 1.0, 1.0, 1.0], "metallicFactor": 0.0, "roughnessFactor": 1.0}, "alphaMode": "OPAQUE", "doubleSided": true}], "buffers": [{"byteLength": 4798, "uri": "data:application/octet-stream;base64,"}], "bufferViews": [{"buffer": 0, "byteOffset": 0, "byteLength": 624}, {"buffer": 0, "byteOffset": 624, "byteLength": 416}, {"buffer": 0, "byteOffset": 1040, "byteLength": 624}, {"buffer": 0, "byteOffset": 1664, "byteLength": 168}, {"buffer": 0, "byteOffset": 1832, "byteLength": 192}, {"buffer": 0, "byteOffset": 2024, "byteLength": 128}, {"buffer": 0, "byteOffset": 2152, "byteLength": 192}, {"buffer": 0, "byteOffset": 2344, "byteLength": 48}, {"buffer": 0, "byteOffset": 2392, "byteLength": 96}, {"buffer": 0, "byteOffset": 2488, "byteLength": 64}, {"buffer": 0, "byteOffset": 2552, "byteLength": 96}, {"buffer": 0, "byteOffset": 2648, "byteLength": 24}, {"buffer": 0, "byteOffset": 2672, "byteLength": 732}, {"buffer": 0, "byteOffset": 3404, "byteLength": 488}, {"buffer": 0, "byteOffset": 3892, "byteLength": 732}, {"buffer": 0, "byteOffset": 4624, "byteLength": 174}], "accessors": [{"bufferView": 0, "byteOffset": 0, "componentType": 5126, "count": 52, "type": "VEC3", "min": [-0.642578125, 0.0, -0.449951171875], "max": [0.675048828125, 1.651123046875, 0.385986328125]}, {"bufferView": 1, "byteOffset": 0, "componentType": 5126, "count": 52, "type": "VEC2"}, {"bufferView": 2, "byteOffset": 0, "componentType": 5126, "count": 52, "type": "VEC3"}, {"bufferView": 3, "byteOffset": 0, "componentType": 5123, "count": 84, "type": "SCALAR"}, {"bufferView": 4, "byteOffset": 0, "componentType": 5126, "count": 16, "type": "VEC3", "min": [0.0966796875, 0.140869140625, -0.177978515625], "max": [0.51416015625, 0.576904296875, 0.340087890625]}, {"bufferView": 5, "byteOffset": 0, "componentType": 5126, "count": 16, "type": "VEC2"}, {"bufferView": 6, "byteOffset": 0, "componentType": 5126, "count": 16, "type": "VEC3"}, {"bufferView": 7, "byteOffset": 0, "componentType": 5123, "count": 24, "type": "SCALAR"}, {"bufferView": 8, "byteOffset": 0, "componentType": 5126, "count": 8, "type": "VEC3", "min": [-0.742431640625, 0.162109375, -0.330810546875], "max": [0.742431640625, 1.858154296875, 0.449951171875]}, {"bufferView": 9, "byteOffset": 0, "componentType": 5126, "count": 8, "type": "VEC2"}, {"bufferView": 10, "byteOffset": 0, "componentType": 5126, "count": 8, "type": "VEC3"}, {"bufferView": 11, "byteOffset": 0, "componentType": 5123, "count": 12, "type": "SCALAR"}, {"bufferView": 12, "byteOffset": 0, "componentType": 5126, "count": 61, "type": "VEC3", "min": [-0.53759765625, 0.150634765625, -0.35107421875], "max": [0.08740234375, 0.63671875, 0.37060546875]}, {"bufferView": 13, "byteOffset": 0, "componentType": 5126, "count": 61, "type": "VEC2"}, {"bufferView": 14, "byteOffset": 0, "componentType": 5126, "count": 61, "type": "VEC3"}, {"bufferView": 15, "byteOffset": 0, "componentType": 5123, "count": 87, "type": "SCALAR"}], "samplers": [{"magFilter": 9729, "minFilter": 9729, "wrapS": 10497, "wrapT": 10497}]}