{"asset": {"version": "2.0", "generator": "tongari-nsbmd-to-gltf"}, "scene": 0, "scenes": [{"nodes": [0, 1]}], "nodes": [{"name": "sbim03_21", "translation": [0.0, 0.0, 0.0]}, {"mesh": 0, "name": "2728sbim03_21"}], "meshes": [{"name": "2728sbim03_21", "primitives": [{"attributes": {"POSITION": 0, "TEXCOORD_0": 1, "NORMAL": 2}, "indices": 3, "mode": 4, "material": 0}]}], "materials": [{"name": "sbim03_21_0", "pbrMetallicRoughness": {"baseColorFactor": [0.803921568627451, 0.803921568627451, 0.803921568627451, 1.0], "metallicFactor": 0.0, "roughnessFactor": 1.0}, "alphaMode": "OPAQUE", "doubleSided": true}], "buffers": [{"byteLength": 3368, "uri": "data:application/octet-stream;base64,"}], "bufferViews": [{"buffer": 0, "byteOffset": 0, "byteLength": 1128}, {"buffer": 0, "byteOffset": 1128, "byteLength": 752}, {"buffer": 0, "byteOffset": 1880, "byteLength": 1128}, {"buffer": 0, "byteOffset": 3008, "byteLength": 360}], "accessors": [{"bufferView": 0, "byteOffset": 0, "componentType": 5126, "count": 94, "type": "VEC3", "min": [-0.1767578125, -0.189453125, -0.476806640625], "max": [0.1767578125, 0.189453125, 1.595458984375]}, {"bufferView": 1, "byteOffset": 0, "componentType": 5126, "count": 94, "type": "VEC2"}, {"bufferView": 2, "byteOffset": 0, "componentType": 5126, "count": 94, "type": "VEC3"}, {"bufferView": 3, "byteOffset": 0, "componentType": 5123, "count": 180, "type": "SCALAR"}], "samplers": [{"magFilter": 9729, "minFilter": 9729, "wrapS": 10497, "wrapT": 10497}]}