{"asset": {"version": "2.0", "generator": "tongari-nsbmd-to-gltf"}, "scene": 0, "scenes": [{"nodes": [0, 14]}], "nodes": [{"name": "root", "translation": [0.0, 0.465087890625, 0.000244140625], "children": [1, 9]}, {"name": "chest", "translation": [0.0, 0.05908203125, 0.03369140625], "children": [2, 4, 6]}, {"name": "l_shoulder", "translation": [0.13671875, 0.2421875, -0.057373046875], "children": [3]}, {"name": "l_elbow", "translation": [0.166015625, -0.0078125, 0.0]}, {"name": "neck", "translation": [0.0, 0.31689453125, -0.05615234375], "children": [5]}, {"name": "mouse", "translation": [0.0, 0.05908203125, 0.555908203125]}, {"name": "r_shoulder", "translation": [-0.13671875, 0.2421875, -0.057373046875], "children": [7]}, {"name": "r_elbow", "translation": [-0.166015625, -0.0078125, 0.0], "children": [8]}, {"name": "r_hand", "translation": [-0.190185546875, -0.009033203125, 0.031005859375]}, {"name": "hip", "translation": [0.0, -0.0556640625, -0.0302734375], "children": [10, 11, 12]}, {"name": "l_knee", "translation": [0.10595703125, -0.0419921875, 0.04736328125]}, {"name": "r_knee", "translation": [-0.10595703125, -0.0419921875, 0.04736328125]}, {"name": "tail1", "translation": [0.0, -0.0908203125, -0.087890625], "children": [13]}, {"name": "tail2", "translation": [0.0, 0.0, -0.2587890625]}, {"mesh": 0, "name": "npc2011"}], "meshes": [{"name": "npc2011", "primitives": [{"attributes": {"POSITION": 0, "TEXCOORD_0": 1, "NORMAL": 2}, "indices": 3, "mode": 4, "material": 6}, {"attributes": {"POSITION": 4, "TEXCOORD_0": 5, "NORMAL": 6}, "indices": 7, "mode": 4, "material": 1}, {"attributes": {"POSITION": 8, "TEXCOORD_0": 9, "NORMAL": 10}, "indices": 11, "mode": 4, "material": 5}, {"attributes": {"POSITION": 12, "TEXCOORD_0": 13, "NORMAL": 14}, "indices": 15, "mode": 4, "material": 11}, {"attributes": {"POSITION": 16, "TEXCOORD_0": 17, "NORMAL": 18}, "indices": 19, "mode": 4, "material": 10}, {"attributes": {"POSITION": 20, "TEXCOORD_0": 21, "NORMAL": 22}, "indices": 23, "mode": 4, "material": 0}, {"attributes": {"POSITION": 24, "TEXCOORD_0": 25, "NORMAL": 26}, "indices": 27, "mode": 4, "material": 9}, {"attributes": {"POSITION": 28, "TEXCOORD_0": 29, "NORMAL": 30}, "indices": 31, "mode": 4, "material": 7}, {"attributes": {"POSITION": 32, "TEXCOORD_0": 33, "NORMAL": 34}, "indices": 35, "mode": 4, "material": 8}, {"attributes": {"POSITION": 36, "TEXCOORD_0": 37, "NORMAL": 38}, "indices": 39, "mode": 4, "material": 4}, {"attributes": {"POSITION": 40, "TEXCOORD_0": 41, "NORMAL": 42}, "indices": 43, "mode": 4, "material": 3}, {"attributes": {"POSITION": 44, "TEXCOORD_0": 45, "NORMAL": 46}, "indices": 47, "mode": 4, "material": 2}]}], "materials": [{"name": "c00_face", "pbrMetallicRoughness": {"baseColorFactor": [1.0, 1.0, 1.0, 1.0], "metallicFactor": 0.0, "roughnessFactor": 1.0}, "alphaMode": "OPAQUE", "doubleSided": true}, {"name": "c04_glass", "pbrMetallicRoughness": {"baseColorFactor": [1.0, 1.0, 1.0, 1.0], "metallicFactor": 0.0, "roughnessFactor": 1.0}, "alphaMode": "OPAQUE", "doubleSided": true}, {"name": "c05_tai", "pbrMetallicRoughness": {"baseColorFactor": [1.0, 1.0, 1.0, 1.0], "metallicFactor": 0.0, "roughnessFactor": 1.0}, "alphaMode": "OPAQUE", "doubleSided": true}, {"name": "c06_pen", "pbrMetallicRoughness": {"baseColorFactor": [1.0, 1.0, 1.0, 1.0], "metallicFactor": 0.0, "roughnessFactor": 1.0}, "alphaMode": "OPAQUE", "doubleSided": true}, {"name": "c07_belt", "pbrMetallicRoughness": {"baseColorFactor": [1.0, 1.0, 1.0, 1.0], "metallicFactor": 0.0, "roughnessFactor": 1.0}, "alphaMode": "OPAQUE", "doubleSided": true}, {"name": "c08_hair", "pbrMetallicRoughness": {"baseColorFactor": [1.0, 1.0, 1.0, 1.0], "metallicFactor": 0.0, "roughnessFactor": 1.0}, "alphaMode": "OPAQUE", "doubleSided": true}, {"name": "c09_skin", "pbrMetallicRoughness": {"baseColorFactor": [1.0, 1.0, 1.0, 1.0], "metallicFactor": 0.0, "roughnessFactor": 1.0}, "alphaMode": "OPAQUE", "doubleSided": true}, {"name": "c10_cloth_d", "pbrMetallicRoughness": {"baseColorFactor": [1.0, 1.0, 1.0, 1.0], "metallicFactor": 0.0, "roughnessFactor": 1.0}, "alphaMode": "OPAQUE", "doubleSided": true}, {"name": "c11_black", "pbrMetallicRoughness": {"baseColorFactor": [1.0, 1.0, 1.0, 1.0], "metallicFactor": 0.0, "roughnessFactor": 1.0}, "alphaMode": "OPAQUE", "doubleSided": true}, {"name": "c12_hige", "pbrMetallicRoughness": {"baseColorFactor": [1.0, 1.0, 1.0, 1.0], "metallicFactor": 0.0, "roughnessFactor": 1.0}, "alphaMode": "OPAQUE", "doubleSided": true}, {"name": "c13_skin2", "pbrMetallicRoughness": {"baseColorFactor": [1.0, 1.0, 1.0, 1.0], "metallicFactor": 0.0, "roughnessFactor": 1.0}, "alphaMode": "OPAQUE", "doubleSided": true}, {"name": "c14_skin3", "pbrMetallicRoughness": {"baseColorFactor": [1.0, 1.0, 1.0, 1.0], "metallicFactor": 0.0, "roughnessFactor": 1.0}, "alphaMode": "OPAQUE", "doubleSided": true}], "buffers": [{"byteLength": 15812, "uri": "data:application/octet-stream;base64,"}], "bufferViews": [{"buffer": 0, "byteOffset": 0, "byteLength": 852}, {"buffer": 0, "byteOffset": 852, "byteLength": 568}, {"buffer": 0, "byteOffset": 1420, "byteLength": 852}, {"buffer": 0, "byteOffset": 2272, "byteLength": 246}, {"buffer": 0, "byteOffset": 2520, "byteLength": 96}, {"buffer": 0, "byteOffset": 2616, "byteLength": 64}, {"buffer": 0, "byteOffset": 2680, "byteLength": 96}, {"buffer": 0, "byteOffset": 2776, "byteLength": 24}, {"buffer": 0, "byteOffset": 2800, "byteLength": 864}, {"buffer": 0, "byteOffset": 3664, "byteLength": 576}, {"buffer": 0, "byteOffset": 4240, "byteLength": 864}, {"buffer": 0, "byteOffset": 5104, "byteLength": 228}, {"buffer": 0, "byteOffset": 5332, "byteLength": 552}, {"buffer": 0, "byteOffset": 5884, "byteLength": 368}, {"buffer": 0, "byteOffset": 6252, "byteLength": 552}, {"buffer": 0, "byteOffset": 6804, "byteLength": 168}, {"buffer": 0, "byteOffset": 6972, "byteLength": 360}, {"buffer": 0, "byteOffset": 7332, "byteLength": 240}, {"buffer": 0, "byteOffset": 7572, "byteLength": 360}, {"buffer": 0, "byteOffset": 7932, "byteLength": 132}, {"buffer": 0, "byteOffset": 8064, "byteLength": 96}, {"buffer": 0, "byteOffset": 8160, "byteLength": 64}, {"buffer": 0, "byteOffset": 8224, "byteLength": 96}, {"buffer": 0, "byteOffset": 8320, "byteLength": 24}, {"buffer": 0, "byteOffset": 8344, "byteLength": 348}, {"buffer": 0, "byteOffset": 8692, "byteLength": 232}, {"buffer": 0, "byteOffset": 8924, "byteLength": 348}, {"buffer": 0, "byteOffset": 9272, "byteLength": 90}, {"buffer": 0, "byteOffset": 9364, "byteLength": 444}, {"buffer": 0, "byteOffset": 9808, "byteLength": 296}, {"buffer": 0, "byteOffset": 10104, "byteLength": 444}, {"buffer": 0, "byteOffset": 10548, "byteLength": 138}, {"buffer": 0, "byteOffset": 10688, "byteLength": 816}, {"buffer": 0, "byteOffset": 11504, "byteLength": 544}, {"buffer": 0, "byteOffset": 12048, "byteLength": 816}, {"buffer": 0, "byteOffset": 12864, "byteLength": 276}, {"buffer": 0, "byteOffset": 13140, "byteLength": 204}, {"buffer": 0, "byteOffset": 13344, "byteLength": 136}, {"buffer": 0, "byteOffset": 13480, "byteLength": 204}, {"buffer": 0, "byteOffset": 13684, "byteLength": 78}, {"buffer": 0, "byteOffset": 13764, "byteLength": 528}, {"buffer": 0, "byteOffset": 14292, "byteLength": 352}, {"buffer": 0, "byteOffset": 14644, "byteLength": 528}, {"buffer": 0, "byteOffset": 15172, "byteLength": 144}, {"buffer": 0, "byteOffset": 15316, "byteLength": 168}, {"buffer": 0, "byteOffset": 15484, "byteLength": 112}, {"buffer": 0, "byteOffset": 15596, "byteLength": 168}, {"buffer": 0, "byteOffset": 15764, "byteLength": 48}], "accessors": [{"bufferView": 0, "byteOffset": 0, "componentType": 5126, "count": 71, "type": "VEC3", "min": [-0.766845703125, 0.724609375, -0.603759765625], "max": [0.67626953125, 1.52734375, 0.721923828125]}, {"bufferView": 1, "byteOffset": 0, "componentType": 5126, "count": 71, "type": "VEC2"}, {"bufferView": 2, "byteOffset": 0, "componentType": 5126, "count": 71, "type": "VEC3"}, {"bufferView": 3, "byteOffset": 0, "componentType": 5123, "count": 123, "type": "SCALAR"}, {"bufferView": 4, "byteOffset": 0, "componentType": 5126, "count": 8, "type": "VEC3", "min": [-0.265380859375, 0.546875, 0.700439453125], "max": [0.265380859375, 0.815673828125, 0.700439453125]}, {"bufferView": 5, "byteOffset": 0, "componentType": 5126, "count": 8, "type": "VEC2"}, {"bufferView": 6, "byteOffset": 0, "componentType": 5126, "count": 8, "type": "VEC3"}, {"bufferView": 7, "byteOffset": 0, "componentType": 5123, "count": 12, "type": "SCALAR"}, {"bufferView": 8, "byteOffset": 0, "componentType": 5126, "count": 72, "type": "VEC3", "min": [-0.41259765625, 1.06591796875, -0.448486328125], "max": [0.356689453125, 1.7578125, 0.613525390625]}, {"bufferView": 9, "byteOffset": 0, "componentType": 5126, "count": 72, "type": "VEC2"}, {"bufferView": 10, "byteOffset": 0, "componentType": 5126, "count": 72, "type": "VEC3"}, {"bufferView": 11, "byteOffset": 0, "componentType": 5123, "count": 114, "type": "SCALAR"}, {"bufferView": 12, "byteOffset": 0, "componentType": 5126, "count": 46, "type": "VEC3", "min": [-0.766845703125, 0.79833984375, -0.603759765625], "max": [0.67626953125, 1.571533203125, 0.48291015625]}, {"bufferView": 13, "byteOffset": 0, "componentType": 5126, "count": 46, "type": "VEC2"}, {"bufferView": 14, "byteOffset": 0, "componentType": 5126, "count": 46, "type": "VEC3"}, {"bufferView": 15, "byteOffset": 0, "componentType": 5123, "count": 84, "type": "SCALAR"}, {"bufferView": 16, "byteOffset": 0, "componentType": 5126, "count": 30, "type": "VEC3", "min": [-0.3955078125, 0.674072265625, -0.486328125], "max": [0.691162109375, 1.784912109375, 0.08349609375]}, {"bufferView": 17, "byteOffset": 0, "componentType": 5126, "count": 30, "type": "VEC2"}, {"bufferView": 18, "byteOffset": 0, "componentType": 5126, "count": 30, "type": "VEC3"}, {"bufferView": 19, "byteOffset": 0, "componentType": 5123, "count": 66, "type": "SCALAR"}, {"bufferView": 20, "byteOffset": 0, "componentType": 5126, "count": 8, "type": "VEC3", "min": [-0.32861328125, 0.544677734375, 0.167724609375], "max": [0.32861328125, 0.90576171875, 0.4384765625]}, {"bufferView": 21, "byteOffset": 0, "componentType": 5126, "count": 8, "type": "VEC2"}, {"bufferView": 22, "byteOffset": 0, "componentType": 5126, "count": 8, "type": "VEC3"}, {"bufferView": 23, "byteOffset": 0, "componentType": 5123, "count": 12, "type": "SCALAR"}, {"bufferView": 24, "byteOffset": 0, "componentType": 5126, "count": 29, "type": "VEC3", "min": [-0.103759765625, 0.3642578125, -0.22998046875], "max": [0.103759765625, 0.870849609375, 0.548095703125]}, {"bufferView": 25, "byteOffset": 0, "componentType": 5126, "count": 29, "type": "VEC2"}, {"bufferView": 26, "byteOffset": 0, "componentType": 5126, "count": 29, "type": "VEC3"}, {"bufferView": 27, "byteOffset": 0, "componentType": 5123, "count": 45, "type": "SCALAR"}, {"bufferView": 28, "byteOffset": 0, "componentType": 5126, "count": 37, "type": "VEC3", "min": [-0.48828125, 0.165771484375, -0.1689453125], "max": [0.21484375, 0.829833984375, 0.203857421875]}, {"bufferView": 29, "byteOffset": 0, "componentType": 5126, "count": 37, "type": "VEC2"}, {"bufferView": 30, "byteOffset": 0, "componentType": 5126, "count": 37, "type": "VEC3"}, {"bufferView": 31, "byteOffset": 0, "componentType": 5123, "count": 69, "type": "SCALAR"}, {"bufferView": 32, "byteOffset": 0, "componentType": 5126, "count": 68, "type": "VEC3", "min": [-0.549072265625, 0.0986328125, -0.082275390625], "max": [0.549072265625, 0.854736328125, 0.158935546875]}, {"bufferView": 33, "byteOffset": 0, "componentType": 5126, "count": 68, "type": "VEC2"}, {"bufferView": 34, "byteOffset": 0, "componentType": 5126, "count": 68, "type": "VEC3"}, {"bufferView": 35, "byteOffset": 0, "componentType": 5123, "count": 138, "type": "SCALAR"}, {"bufferView": 36, "byteOffset": 0, "componentType": 5126, "count": 17, "type": "VEC3", "min": [-0.21484375, 0.389404296875, -0.1689453125], "max": [0.21484375, 0.829833984375, 0.203857421875]}, {"bufferView": 37, "byteOffset": 0, "componentType": 5126, "count": 17, "type": "VEC2"}, {"bufferView": 38, "byteOffset": 0, "componentType": 5126, "count": 17, "type": "VEC3"}, {"bufferView": 39, "byteOffset": 0, "componentType": 5123, "count": 39, "type": "SCALAR"}, {"bufferView": 40, "byteOffset": 0, "componentType": 5126, "count": 44, "type": "VEC3", "min": [-0.333740234375, 0.52099609375, -0.167236328125], "max": [0.333740234375, 0.864990234375, 0.18115234375]}, {"bufferView": 41, "byteOffset": 0, "componentType": 5126, "count": 44, "type": "VEC2"}, {"bufferView": 42, "byteOffset": 0, "componentType": 5126, "count": 44, "type": "VEC3"}, {"bufferView": 43, "byteOffset": 0, "componentType": 5123, "count": 72, "type": "SCALAR"}, {"bufferView": 44, "byteOffset": 0, "componentType": 5126, "count": 14, "type": "VEC3", "min": [-0.1064453125, 0.36669921875, -0.000732421875], "max": [0.1064453125, 0.82958984375, 0.2373046875]}, {"bufferView": 45, "byteOffset": 0, "componentType": 5126, "count": 14, "type": "VEC2"}, {"bufferView": 46, "byteOffset": 0, "componentType": 5126, "count": 14, "type": "VEC3"}, {"bufferView": 47, "byteOffset": 0, "componentType": 5123, "count": 24, "type": "SCALAR"}], "samplers": [{"magFilter": 9729, "minFilter": 9729, "wrapS": 10497, "wrapT": 10497}]}