{"asset": {"version": "2.0", "generator": "tongari-nsbmd-to-gltf"}, "scene": 0, "scenes": [{"nodes": [0, 1]}], "nodes": [{"name": "sh_l02_c02", "translation": [0.0, 0.0, 0.0]}, {"mesh": 0, "name": "sh_l02_c02"}], "meshes": [{"name": "sh_l02_c02", "primitives": [{"attributes": {"POSITION": 0, "TEXCOORD_0": 1, "NORMAL": 2}, "indices": 3, "mode": 4, "material": 1}, {"attributes": {"POSITION": 4, "TEXCOORD_0": 5, "NORMAL": 6}, "indices": 7, "mode": 4, "material": 0}]}], "materials": [{"name": "sh_t03c_0", "pbrMetallicRoughness": {"baseColorFactor": [0.803921568627451, 0.803921568627451, 0.803921568627451, 1.0], "metallicFactor": 0.0, "roughnessFactor": 1.0}, "alphaMode": "OPAQUE", "doubleSided": true}, {"name": "sh_t03c_1", "pbrMetallicRoughness": {"baseColorFactor": [0.803921568627451, 0.803921568627451, 0.803921568627451, 1.0], "metallicFactor": 0.0, "roughnessFactor": 1.0}, "alphaMode": "OPAQUE", "doubleSided": true}], "buffers": [{"byteLength": 6108, "uri": "data:application/octet-stream;base64,"}], "bufferViews": [{"buffer": 0, "byteOffset": 0, "byteLength": 840}, {"buffer": 0, "byteOffset": 840, "byteLength": 560}, {"buffer": 0, "byteOffset": 1400, "byteLength": 840}, {"buffer": 0, "byteOffset": 2240, "byteLength": 216}, {"buffer": 0, "byteOffset": 2456, "byteLength": 1248}, {"buffer": 0, "byteOffset": 3704, "byteLength": 832}, {"buffer": 0, "byteOffset": 4536, "byteLength": 1248}, {"buffer": 0, "byteOffset": 5784, "byteLength": 324}], "accessors": [{"bufferView": 0, "byteOffset": 0, "componentType": 5126, "count": 70, "type": "VEC3", "min": [4.6298828125, 0.0, 0.423583984375], "max": [4.919677734375, 0.324951171875, 4.476318359375]}, {"bufferView": 1, "byteOffset": 0, "componentType": 5126, "count": 70, "type": "VEC2"}, {"bufferView": 2, "byteOffset": 0, "componentType": 5126, "count": 70, "type": "VEC3"}, {"bufferView": 3, "byteOffset": 0, "componentType": 5123, "count": 108, "type": "SCALAR"}, {"bufferView": 4, "byteOffset": 0, "componentType": 5126, "count": 104, "type": "VEC3", "min": [4.550048828125, 0.300048828125, 0.39990234375], "max": [5.0, 0.3701171875, 4.5]}, {"bufferView": 5, "byteOffset": 0, "componentType": 5126, "count": 104, "type": "VEC2"}, {"bufferView": 6, "byteOffset": 0, "componentType": 5126, "count": 104, "type": "VEC3"}, {"bufferView": 7, "byteOffset": 0, "componentType": 5123, "count": 162, "type": "SCALAR"}], "samplers": [{"magFilter": 9729, "minFilter": 9729, "wrapS": 10497, "wrapT": 10497}]}