{"asset": {"version": "2.0", "generator": "tongari-nsbmd-to-gltf"}, "scene": 0, "scenes": [{"nodes": [0, 1]}], "nodes": [{"name": "sp_mother", "translation": [0.0, 0.109375, 0.3095703125]}, {"mesh": 0, "name": "sp_mother"}], "meshes": [{"name": "sp_mother", "primitives": [{"attributes": {"POSITION": 0, "TEXCOORD_0": 1, "NORMAL": 2}, "indices": 3, "mode": 4, "material": 2}, {"attributes": {"POSITION": 4, "TEXCOORD_0": 5, "NORMAL": 6}, "indices": 7, "mode": 4, "material": 3}, {"attributes": {"POSITION": 8, "TEXCOORD_0": 9, "NORMAL": 10}, "indices": 11, "mode": 4, "material": 0}, {"attributes": {"POSITION": 12, "TEXCOORD_0": 13, "NORMAL": 14}, "indices": 15, "mode": 4, "material": 1}]}], "materials": [{"name": "lambert10", "pbrMetallicRoughness": {"baseColorFactor": [0.803921568627451, 0.803921568627451, 0.803921568627451, 1.0], "metallicFactor": 0.0, "roughnessFactor": 1.0}, "alphaMode": "OPAQUE", "doubleSided": true}, {"name": "lambert11", "pbrMetallicRoughness": {"baseColorFactor": [0.803921568627451, 0.803921568627451, 0.803921568627451, 1.0], "metallicFactor": 0.0, "roughnessFactor": 1.0}, "alphaMode": "OPAQUE", "doubleSided": true}, {"name": "lambert41", "pbrMetallicRoughness": {"baseColorFactor": [0.803921568627451, 0.803921568627451, 0.803921568627451, 1.0], "metallicFactor": 0.0, "roughnessFactor": 1.0}, "alphaMode": "OPAQUE", "doubleSided": true}, {"name": "lambert9", "pbrMetallicRoughness": {"baseColorFactor": [0.803921568627451, 0.803921568627451, 0.803921568627451, 1.0], "metallicFactor": 0.0, "roughnessFactor": 1.0}, "alphaMode": "OPAQUE", "doubleSided": true}], "buffers": [{"byteLength": 1984, "uri": "data:application/octet-stream;base64,"}], "bufferViews": [{"buffer": 0, "byteOffset": 0, "byteLength": 240}, {"buffer": 0, "byteOffset": 240, "byteLength": 160}, {"buffer": 0, "byteOffset": 400, "byteLength": 240}, {"buffer": 0, "byteOffset": 640, "byteLength": 72}, {"buffer": 0, "byteOffset": 712, "byteLength": 288}, {"buffer": 0, "byteOffset": 1000, "byteLength": 192}, {"buffer": 0, "byteOffset": 1192, "byteLength": 288}, {"buffer": 0, "byteOffset": 1480, "byteLength": 84}, {"buffer": 0, "byteOffset": 1564, "byteLength": 96}, {"buffer": 0, "byteOffset": 1660, "byteLength": 64}, {"buffer": 0, "byteOffset": 1724, "byteLength": 96}, {"buffer": 0, "byteOffset": 1820, "byteLength": 24}, {"buffer": 0, "byteOffset": 1844, "byteLength": 48}, {"buffer": 0, "byteOffset": 1892, "byteLength": 32}, {"buffer": 0, "byteOffset": 1924, "byteLength": 48}, {"buffer": 0, "byteOffset": 1972, "byteLength": 12}], "accessors": [{"bufferView": 0, "byteOffset": 0, "componentType": 5126, "count": 20, "type": "VEC3", "min": [-0.573486328125, 0.109375, -0.076171875], "max": [0.573486328125, 0.243896484375, 0.6953125]}, {"bufferView": 1, "byteOffset": 0, "componentType": 5126, "count": 20, "type": "VEC2"}, {"bufferView": 2, "byteOffset": 0, "componentType": 5126, "count": 20, "type": "VEC3"}, {"bufferView": 3, "byteOffset": 0, "componentType": 5123, "count": 36, "type": "SCALAR"}, {"bufferView": 4, "byteOffset": 0, "componentType": 5126, "count": 24, "type": "VEC3", "min": [-0.1796875, 0.230712890625, 0.269287109375], "max": [0.2978515625, 1.340087890625, 0.357421875]}, {"bufferView": 5, "byteOffset": 0, "componentType": 5126, "count": 24, "type": "VEC2"}, {"bufferView": 6, "byteOffset": 0, "componentType": 5126, "count": 24, "type": "VEC3"}, {"bufferView": 7, "byteOffset": 0, "componentType": 5123, "count": 42, "type": "SCALAR"}, {"bufferView": 8, "byteOffset": 0, "componentType": 5126, "count": 8, "type": "VEC3", "min": [-0.597900390625, 0.855224609375, 0.26953125], "max": [0.5634765625, 1.93798828125, 0.3515625]}, {"bufferView": 9, "byteOffset": 0, "componentType": 5126, "count": 8, "type": "VEC2"}, {"bufferView": 10, "byteOffset": 0, "componentType": 5126, "count": 8, "type": "VEC3"}, {"bufferView": 11, "byteOffset": 0, "componentType": 5123, "count": 12, "type": "SCALAR"}, {"bufferView": 12, "byteOffset": 0, "componentType": 5126, "count": 4, "type": "VEC3", "min": [-0.270263671875, 0.5654296875, 0.2880859375], "max": [-0.087890625, 0.874267578125, 0.2880859375]}, {"bufferView": 13, "byteOffset": 0, "componentType": 5126, "count": 4, "type": "VEC2"}, {"bufferView": 14, "byteOffset": 0, "componentType": 5126, "count": 4, "type": "VEC3"}, {"bufferView": 15, "byteOffset": 0, "componentType": 5123, "count": 6, "type": "SCALAR"}], "samplers": [{"magFilter": 9729, "minFilter": 9729, "wrapS": 10497, "wrapT": 10497}]}