{"asset": {"version": "2.0", "generator": "tongari-nsbmd-to-gltf"}, "scene": 0, "scenes": [{"nodes": [0, 12]}], "nodes": [{"name": "root", "translation": [0.0, 0.465087890625, 0.000244140625], "children": [1, 9]}, {"name": "chest", "translation": [0.0, 0.05908203125, 0.03369140625], "children": [2, 4, 6]}, {"name": "l_shoulder", "translation": [0.13671875, 0.241943359375, -0.057373046875], "children": [3]}, {"name": "l_elbow", "translation": [0.166015625, -0.0078125, 0.0]}, {"name": "neck", "translation": [0.0, 0.24658203125, -0.05615234375], "children": [5]}, {"name": "mouse", "translation": [0.0, 0.2265625, 0.064208984375]}, {"name": "r_shoulder", "translation": [-0.13671875, 0.241943359375, -0.057373046875], "children": [7]}, {"name": "r_elbow", "translation": [-0.166015625, -0.0078125, 0.0], "children": [8]}, {"name": "r_hand", "translation": [-0.190185546875, -0.009033203125, 0.031005859375]}, {"name": "hip", "translation": [0.0, -0.0556640625, -0.0302734375], "children": [10, 11]}, {"name": "l_knee", "translation": [0.10595703125, -0.0419921875, 0.04736328125]}, {"name": "r_knee", "translation": [-0.10595703125, -0.0419921875, 0.04736328125]}, {"mesh": 0, "name": "pmd06_00_08"}], "meshes": [{"name": "pmd06_00_08", "primitives": [{"attributes": {"POSITION": 0, "TEXCOORD_0": 1, "NORMAL": 2}, "indices": 3, "mode": 4, "material": 0}, {"attributes": {"POSITION": 4, "TEXCOORD_0": 5, "NORMAL": 6}, "indices": 7, "mode": 4, "material": 1}, {"attributes": {"POSITION": 8, "TEXCOORD_0": 9, "NORMAL": 10}, "indices": 11, "mode": 4, "material": 3}, {"attributes": {"POSITION": 12, "TEXCOORD_0": 13, "NORMAL": 14}, "indices": 15, "mode": 4, "material": 6}, {"attributes": {"POSITION": 16, "TEXCOORD_0": 17, "NORMAL": 18}, "indices": 19, "mode": 4, "material": 7}, {"attributes": {"POSITION": 20, "TEXCOORD_0": 21, "NORMAL": 22}, "indices": 23, "mode": 4, "material": 2}, {"attributes": {"POSITION": 24, "TEXCOORD_0": 25, "NORMAL": 26}, "indices": 27, "mode": 4, "material": 4}, {"attributes": {"POSITION": 28, "TEXCOORD_0": 29, "NORMAL": 30}, "indices": 31, "mode": 4, "material": 0}, {"attributes": {"POSITION": 32, "TEXCOORD_0": 33, "NORMAL": 34}, "indices": 35, "mode": 4, "material": 5}, {"attributes": {"POSITION": 36, "TEXCOORD_0": 37, "NORMAL": 38}, "indices": 39, "mode": 4, "material": 8}]}], "materials": [{"name": "c00_face", "pbrMetallicRoughness": {"baseColorFactor": [1.0, 1.0, 1.0, 1.0], "metallicFactor": 0.0, "roughnessFactor": 1.0}, "alphaMode": "OPAQUE", "doubleSided": true}, {"name": "c01_cloth_u", "pbrMetallicRoughness": {"baseColorFactor": [1.0, 1.0, 1.0, 1.0], "metallicFactor": 0.0, "roughnessFactor": 1.0}, "alphaMode": "OPAQUE", "doubleSided": true}, {"name": "c02_cloth_d", "pbrMetallicRoughness": {"baseColorFactor": [1.0, 1.0, 1.0, 1.0], "metallicFactor": 0.0, "roughnessFactor": 1.0}, "alphaMode": "OPAQUE", "doubleSided": true}, {"name": "c03_shoes", "pbrMetallicRoughness": {"baseColorFactor": [1.0, 1.0, 1.0, 1.0], "metallicFactor": 0.0, "roughnessFactor": 1.0}, "alphaMode": "OPAQUE", "doubleSided": true}, {"name": "c05_hair", "pbrMetallicRoughness": {"baseColorFactor": [1.0, 1.0, 1.0, 1.0], "metallicFactor": 0.0, "roughnessFactor": 1.0}, "alphaMode": "OPAQUE", "doubleSided": true}, {"name": "c09_glasses", "pbrMetallicRoughness": {"baseColorFactor": [1.0, 1.0, 1.0, 1.0], "metallicFactor": 0.0, "roughnessFactor": 1.0}, "alphaMode": "OPAQUE", "doubleSided": true}, {"name": "ucc_n_b", "pbrMetallicRoughness": {"baseColorFactor": [1.0, 1.0, 1.0, 1.0], "metallicFactor": 0.0, "roughnessFactor": 1.0}, "alphaMode": "OPAQUE", "doubleSided": true}, {"name": "ucc_n_j", "pbrMetallicRoughness": {"baseColorFactor": [1.0, 1.0, 1.0, 1.0], "metallicFactor": 0.0, "roughnessFactor": 1.0}, "alphaMode": "OPAQUE", "doubleSided": true}, {"name": "zc08_hat", "pbrMetallicRoughness": {"baseColorFactor": [1.0, 1.0, 1.0, 1.0], "metallicFactor": 0.0, "roughnessFactor": 1.0}, "alphaMode": "OPAQUE", "doubleSided": true}], "buffers": [{"byteLength": 19588, "uri": "data:application/octet-stream;base64,"}], "bufferViews": [{"buffer": 0, "byteOffset": 0, "byteLength": 528}, {"buffer": 0, "byteOffset": 528, "byteLength": 352}, {"buffer": 0, "byteOffset": 880, "byteLength": 528}, {"buffer": 0, "byteOffset": 1408, "byteLength": 144}, {"buffer": 0, "byteOffset": 1552, "byteLength": 1560}, {"buffer": 0, "byteOffset": 3112, "byteLength": 1040}, {"buffer": 0, "byteOffset": 4152, "byteLength": 1560}, {"buffer": 0, "byteOffset": 5712, "byteLength": 492}, {"buffer": 0, "byteOffset": 6204, "byteLength": 552}, {"buffer": 0, "byteOffset": 6756, "byteLength": 368}, {"buffer": 0, "byteOffset": 7124, "byteLength": 552}, {"buffer": 0, "byteOffset": 7676, "byteLength": 168}, {"buffer": 0, "byteOffset": 7844, "byteLength": 240}, {"buffer": 0, "byteOffset": 8084, "byteLength": 160}, {"buffer": 0, "byteOffset": 8244, "byteLength": 240}, {"buffer": 0, "byteOffset": 8484, "byteLength": 60}, {"buffer": 0, "byteOffset": 8544, "byteLength": 48}, {"buffer": 0, "byteOffset": 8592, "byteLength": 32}, {"buffer": 0, "byteOffset": 8624, "byteLength": 48}, {"buffer": 0, "byteOffset": 8672, "byteLength": 12}, {"buffer": 0, "byteOffset": 8684, "byteLength": 408}, {"buffer": 0, "byteOffset": 9092, "byteLength": 272}, {"buffer": 0, "byteOffset": 9364, "byteLength": 408}, {"buffer": 0, "byteOffset": 9772, "byteLength": 108}, {"buffer": 0, "byteOffset": 9880, "byteLength": 420}, {"buffer": 0, "byteOffset": 10300, "byteLength": 280}, {"buffer": 0, "byteOffset": 10580, "byteLength": 420}, {"buffer": 0, "byteOffset": 11000, "byteLength": 90}, {"buffer": 0, "byteOffset": 11092, "byteLength": 948}, {"buffer": 0, "byteOffset": 12040, "byteLength": 632}, {"buffer": 0, "byteOffset": 12672, "byteLength": 948}, {"buffer": 0, "byteOffset": 13620, "byteLength": 258}, {"buffer": 0, "byteOffset": 13880, "byteLength": 96}, {"buffer": 0, "byteOffset": 13976, "byteLength": 64}, {"buffer": 0, "byteOffset": 14040, "byteLength": 96}, {"buffer": 0, "byteOffset": 14136, "byteLength": 36}, {"buffer": 0, "byteOffset": 14172, "byteLength": 1824}, {"buffer": 0, "byteOffset": 15996, "byteLength": 1216}, {"buffer": 0, "byteOffset": 17212, "byteLength": 1824}, {"buffer": 0, "byteOffset": 19036, "byteLength": 552}], "accessors": [{"bufferView": 0, "byteOffset": 0, "componentType": 5126, "count": 44, "type": "VEC3", "min": [-0.42431640625, 0.348388671875, -0.10693359375], "max": [0.59033203125, 0.835205078125, 0.113525390625]}, {"bufferView": 1, "byteOffset": 0, "componentType": 5126, "count": 44, "type": "VEC2"}, {"bufferView": 2, "byteOffset": 0, "componentType": 5126, "count": 44, "type": "VEC3"}, {"bufferView": 3, "byteOffset": 0, "componentType": 5123, "count": 72, "type": "SCALAR"}, {"bufferView": 4, "byteOffset": 0, "componentType": 5126, "count": 130, "type": "VEC3", "min": [-0.70458984375, 0.609130859375, -0.169921875], "max": [0.43115234375, 1.126220703125, 0.183837890625]}, {"bufferView": 5, "byteOffset": 0, "componentType": 5126, "count": 130, "type": "VEC2"}, {"bufferView": 6, "byteOffset": 0, "componentType": 5126, "count": 130, "type": "VEC3"}, {"bufferView": 7, "byteOffset": 0, "componentType": 5123, "count": 246, "type": "SCALAR"}, {"bufferView": 8, "byteOffset": 0, "componentType": 5126, "count": 46, "type": "VEC3", "min": [-0.136962890625, 0.09765625, -0.123779296875], "max": [0.13671875, 0.283447265625, 0.263916015625]}, {"bufferView": 9, "byteOffset": 0, "componentType": 5126, "count": 46, "type": "VEC2"}, {"bufferView": 10, "byteOffset": 0, "componentType": 5126, "count": 46, "type": "VEC3"}, {"bufferView": 11, "byteOffset": 0, "componentType": 5123, "count": 84, "type": "SCALAR"}, {"bufferView": 12, "byteOffset": 0, "componentType": 5126, "count": 20, "type": "VEC3", "min": [-0.1650390625, 0.40380859375, 0.009765625], "max": [0.1650390625, 0.7626953125, 0.188232421875]}, {"bufferView": 13, "byteOffset": 0, "componentType": 5126, "count": 20, "type": "VEC2"}, {"bufferView": 14, "byteOffset": 0, "componentType": 5126, "count": 20, "type": "VEC3"}, {"bufferView": 15, "byteOffset": 0, "componentType": 5123, "count": 30, "type": "SCALAR"}, {"bufferView": 16, "byteOffset": 0, "componentType": 5126, "count": 4, "type": "VEC3", "min": [-0.07666015625, 0.456787109375, 0.15087890625], "max": [0.077392578125, 0.605224609375, 0.192138671875]}, {"bufferView": 17, "byteOffset": 0, "componentType": 5126, "count": 4, "type": "VEC2"}, {"bufferView": 18, "byteOffset": 0, "componentType": 5126, "count": 4, "type": "VEC3"}, {"bufferView": 19, "byteOffset": 0, "componentType": 5123, "count": 6, "type": "SCALAR"}, {"bufferView": 20, "byteOffset": 0, "componentType": 5126, "count": 34, "type": "VEC3", "min": [-0.415283203125, 0.178466796875, -0.085205078125], "max": [0.060791015625, 0.873291015625, 0.082763671875]}, {"bufferView": 21, "byteOffset": 0, "componentType": 5126, "count": 34, "type": "VEC2"}, {"bufferView": 22, "byteOffset": 0, "componentType": 5126, "count": 34, "type": "VEC3"}, {"bufferView": 23, "byteOffset": 0, "componentType": 5123, "count": 54, "type": "SCALAR"}, {"bufferView": 24, "byteOffset": 0, "componentType": 5126, "count": 35, "type": "VEC3", "min": [-0.43994140625, 0.501953125, -0.382568359375], "max": [0.43994140625, 0.955322265625, 0.294677734375]}, {"bufferView": 25, "byteOffset": 0, "componentType": 5126, "count": 35, "type": "VEC2"}, {"bufferView": 26, "byteOffset": 0, "componentType": 5126, "count": 35, "type": "VEC3"}, {"bufferView": 27, "byteOffset": 0, "componentType": 5123, "count": 45, "type": "SCALAR"}, {"bufferView": 28, "byteOffset": 0, "componentType": 5126, "count": 79, "type": "VEC3", "min": [-0.441162109375, 0.455322265625, -0.0322265625], "max": [0.441162109375, 1.0458984375, 0.45166015625]}, {"bufferView": 29, "byteOffset": 0, "componentType": 5126, "count": 79, "type": "VEC2"}, {"bufferView": 30, "byteOffset": 0, "componentType": 5126, "count": 79, "type": "VEC3"}, {"bufferView": 31, "byteOffset": 0, "componentType": 5123, "count": 129, "type": "SCALAR"}, {"bufferView": 32, "byteOffset": 0, "componentType": 5126, "count": 8, "type": "VEC3", "min": [-0.326171875, 0.591796875, 0.3095703125], "max": [0.326171875, 0.93017578125, 0.503662109375]}, {"bufferView": 33, "byteOffset": 0, "componentType": 5126, "count": 8, "type": "VEC2"}, {"bufferView": 34, "byteOffset": 0, "componentType": 5126, "count": 8, "type": "VEC3"}, {"bufferView": 35, "byteOffset": 0, "componentType": 5123, "count": 18, "type": "SCALAR"}, {"bufferView": 36, "byteOffset": 0, "componentType": 5126, "count": 152, "type": "VEC3", "min": [-0.570068359375, 0.7470703125, -0.63232421875], "max": [0.570068359375, 1.982421875, 0.56005859375]}, {"bufferView": 37, "byteOffset": 0, "componentType": 5126, "count": 152, "type": "VEC2"}, {"bufferView": 38, "byteOffset": 0, "componentType": 5126, "count": 152, "type": "VEC3"}, {"bufferView": 39, "byteOffset": 0, "componentType": 5123, "count": 276, "type": "SCALAR"}], "samplers": [{"magFilter": 9729, "minFilter": 9729, "wrapS": 10497, "wrapT": 10497}]}