{"asset": {"version": "2.0", "generator": "tongari-nsbmd-to-gltf"}, "scene": 0, "scenes": [{"nodes": [0, 2]}], "nodes": [{"name": "root", "translation": [0.0, 0.0, 0.0], "children": [1]}, {"name": "hatch", "translation": [0.0, 0.2822265625, -0.34716796875]}, {"mesh": 0, "name": "3082IMRL05_10"}], "meshes": [{"name": "3082IMRL05_10", "primitives": [{"attributes": {"POSITION": 0, "TEXCOORD_0": 1, "NORMAL": 2}, "indices": 3, "mode": 4, "material": 1}, {"attributes": {"POSITION": 4, "TEXCOORD_0": 5, "NORMAL": 6}, "indices": 7, "mode": 4, "material": 0}, {"attributes": {"POSITION": 8, "TEXCOORD_0": 9, "NORMAL": 10}, "indices": 11, "mode": 4, "material": 2}]}], "materials": [{"name": "imrl05_10_0", "pbrMetallicRoughness": {"baseColorFactor": [1.0, 1.0, 1.0, 1.0], "metallicFactor": 0.0, "roughnessFactor": 1.0}, "alphaMode": "OPAQUE", "doubleSided": true}, {"name": "imrl05_10_1", "pbrMetallicRoughness": {"baseColorFactor": [1.0, 1.0, 1.0, 1.0], "metallicFactor": 0.0, "roughnessFactor": 1.0}, "alphaMode": "OPAQUE", "doubleSided": true}, {"name": "imrl05_10_2", "pbrMetallicRoughness": {"baseColorFactor": [1.0, 1.0, 1.0, 1.0], "metallicFactor": 0.0, "roughnessFactor": 1.0}, "alphaMode": "OPAQUE", "doubleSided": true}], "buffers": [{"byteLength": 4644, "uri": "data:application/octet-stream;base64,"}], "bufferViews": [{"buffer": 0, "byteOffset": 0, "byteLength": 648}, {"buffer": 0, "byteOffset": 648, "byteLength": 432}, {"buffer": 0, "byteOffset": 1080, "byteLength": 648}, {"buffer": 0, "byteOffset": 1728, "byteLength": 180}, {"buffer": 0, "byteOffset": 1908, "byteLength": 72}, {"buffer": 0, "byteOffset": 1980, "byteLength": 48}, {"buffer": 0, "byteOffset": 2028, "byteLength": 72}, {"buffer": 0, "byteOffset": 2100, "byteLength": 24}, {"buffer": 0, "byteOffset": 2124, "byteLength": 864}, {"buffer": 0, "byteOffset": 2988, "byteLength": 576}, {"buffer": 0, "byteOffset": 3564, "byteLength": 864}, {"buffer": 0, "byteOffset": 4428, "byteLength": 216}], "accessors": [{"bufferView": 0, "byteOffset": 0, "componentType": 5126, "count": 54, "type": "VEC3", "min": [-0.3876953125, 0.00048828125, -0.361572265625], "max": [0.3876953125, 0.373779296875, 0.36181640625]}, {"bufferView": 1, "byteOffset": 0, "componentType": 5126, "count": 54, "type": "VEC2"}, {"bufferView": 2, "byteOffset": 0, "componentType": 5126, "count": 54, "type": "VEC3"}, {"bufferView": 3, "byteOffset": 0, "componentType": 5123, "count": 90, "type": "SCALAR"}, {"bufferView": 4, "byteOffset": 0, "componentType": 5126, "count": 6, "type": "VEC3", "min": [-0.37255859375, 0.091552734375, 0.0], "max": [0.37255859375, 0.091552734375, 0.694580078125]}, {"bufferView": 5, "byteOffset": 0, "componentType": 5126, "count": 6, "type": "VEC2"}, {"bufferView": 6, "byteOffset": 0, "componentType": 5126, "count": 6, "type": "VEC3"}, {"bufferView": 7, "byteOffset": 0, "componentType": 5123, "count": 12, "type": "SCALAR"}, {"bufferView": 8, "byteOffset": 0, "componentType": 5126, "count": 72, "type": "VEC3", "min": [-0.365234375, 0.0126953125, -0.340576171875], "max": [0.365234375, 0.348388671875, 0.340576171875]}, {"bufferView": 9, "byteOffset": 0, "componentType": 5126, "count": 72, "type": "VEC2"}, {"bufferView": 10, "byteOffset": 0, "componentType": 5126, "count": 72, "type": "VEC3"}, {"bufferView": 11, "byteOffset": 0, "componentType": 5123, "count": 108, "type": "SCALAR"}], "samplers": [{"magFilter": 9729, "minFilter": 9729, "wrapS": 10497, "wrapT": 10497}]}