{"asset": {"version": "2.0", "generator": "tongari-nsbmd-to-gltf"}, "scene": 0, "scenes": [{"nodes": [0, 1]}], "nodes": [{"name": "gak_in_r12", "translation": [0.0, 0.0, 0.0]}, {"mesh": 0, "name": "gak_in_r12"}], "meshes": [{"name": "gak_in_r12", "primitives": [{"attributes": {"POSITION": 0, "TEXCOORD_0": 1, "NORMAL": 2}, "indices": 3, "mode": 4, "material": 0}, {"attributes": {"POSITION": 4, "TEXCOORD_0": 5, "NORMAL": 6}, "indices": 7, "mode": 4, "material": 2}, {"attributes": {"POSITION": 8, "TEXCOORD_0": 9, "NORMAL": 10}, "indices": 11, "mode": 4, "material": 1}]}], "materials": [{"name": "g_gake02_l", "pbrMetallicRoughness": {"baseColorFactor": [1.0, 1.0, 1.0, 1.0], "metallicFactor": 0.0, "roughnessFactor": 1.0}, "alphaMode": "OPAQUE", "doubleSided": true}, {"name": "z_ground", "pbrMetallicRoughness": {"baseColorFactor": [1.0, 1.0, 1.0, 1.0], "metallicFactor": 0.0, "roughnessFactor": 1.0}, "alphaMode": "OPAQUE", "doubleSided": true}, {"name": "z_ground_0", "pbrMetallicRoughness": {"baseColorFactor": [1.0, 1.0, 1.0, 1.0], "metallicFactor": 0.0, "roughnessFactor": 1.0}, "alphaMode": "OPAQUE", "doubleSided": true}], "buffers": [{"byteLength": 702, "uri": "data:application/octet-stream;base64,"}], "bufferViews": [{"buffer": 0, "byteOffset": 0, "byteLength": 108}, {"buffer": 0, "byteOffset": 108, "byteLength": 72}, {"buffer": 0, "byteOffset": 180, "byteLength": 108}, {"buffer": 0, "byteOffset": 288, "byteLength": 30}, {"buffer": 0, "byteOffset": 320, "byteLength": 48}, {"buffer": 0, "byteOffset": 368, "byteLength": 32}, {"buffer": 0, "byteOffset": 400, "byteLength": 48}, {"buffer": 0, "byteOffset": 448, "byteLength": 12}, {"buffer": 0, "byteOffset": 460, "byteLength": 84}, {"buffer": 0, "byteOffset": 544, "byteLength": 56}, {"buffer": 0, "byteOffset": 600, "byteLength": 84}, {"buffer": 0, "byteOffset": 684, "byteLength": 18}], "accessors": [{"bufferView": 0, "byteOffset": 0, "componentType": 5126, "count": 9, "type": "VEC3", "min": [-2.0, 0.0, -2.295654296875], "max": [2.736572265625, 3.0, 0.300048828125]}, {"bufferView": 1, "byteOffset": 0, "componentType": 5126, "count": 9, "type": "VEC2"}, {"bufferView": 2, "byteOffset": 0, "componentType": 5126, "count": 9, "type": "VEC3"}, {"bufferView": 3, "byteOffset": 0, "componentType": 5123, "count": 15, "type": "SCALAR"}, {"bufferView": 4, "byteOffset": 0, "componentType": 5126, "count": 4, "type": "VEC3", "min": [-2.0, 0.0, -4.0], "max": [2.0, 0.0, 0.0]}, {"bufferView": 5, "byteOffset": 0, "componentType": 5126, "count": 4, "type": "VEC2"}, {"bufferView": 6, "byteOffset": 0, "componentType": 5126, "count": 4, "type": "VEC3"}, {"bufferView": 7, "byteOffset": 0, "componentType": 5123, "count": 6, "type": "SCALAR"}, {"bufferView": 8, "byteOffset": 0, "componentType": 5126, "count": 7, "type": "VEC3", "min": [-2.0, 3.0, -4.300048828125], "max": [2.0, 3.0, 0.300048828125]}, {"bufferView": 9, "byteOffset": 0, "componentType": 5126, "count": 7, "type": "VEC2"}, {"bufferView": 10, "byteOffset": 0, "componentType": 5126, "count": 7, "type": "VEC3"}, {"bufferView": 11, "byteOffset": 0, "componentType": 5123, "count": 9, "type": "SCALAR"}], "samplers": [{"magFilter": 9729, "minFilter": 9729, "wrapS": 10497, "wrapT": 10497}]}