{"asset": {"version": "2.0", "generator": "tongari-nsbmd-to-gltf"}, "scene": 0, "scenes": [{"nodes": [0, 3]}], "nodes": [{"name": "river_t_a08", "translation": [0.0, 0.0, 0.0], "children": [1, 2]}, {"name": "river_t_a070", "translation": [0.65478515625, -0.678466796875, -2.0]}, {"name": "river_t_a074", "translation": [-1.446533203125, -0.678466796875, 0.239501953125]}, {"mesh": 0, "name": "river_t_a08"}], "meshes": [{"name": "river_t_a08", "primitives": [{"attributes": {"POSITION": 0, "TEXCOORD_0": 1, "NORMAL": 2}, "indices": 3, "mode": 4, "material": 1}, {"attributes": {"POSITION": 4, "TEXCOORD_0": 5, "NORMAL": 6}, "indices": 7, "mode": 4, "material": 0}, {"attributes": {"POSITION": 8, "TEXCOORD_0": 9, "NORMAL": 10}, "indices": 11, "mode": 4, "material": 2}, {"attributes": {"POSITION": 12, "TEXCOORD_0": 13, "NORMAL": 14}, "indices": 15, "mode": 4, "material": 3}, {"attributes": {"POSITION": 16, "TEXCOORD_0": 17, "NORMAL": 18}, "indices": 19, "mode": 4, "material": 4}]}], "materials": [{"name": "r_water", "pbrMetallicRoughness": {"baseColorFactor": [1.0, 1.0, 1.0, 1.0], "metallicFactor": 0.0, "roughnessFactor": 1.0}, "alphaMode": "OPAQUE", "doubleSided": true}, {"name": "r_z_gake", "pbrMetallicRoughness": {"baseColorFactor": [1.0, 1.0, 1.0, 1.0], "metallicFactor": 0.0, "roughnessFactor": 1.0}, "alphaMode": "OPAQUE", "doubleSided": true}, {"name": "r_z_ground", "pbrMetallicRoughness": {"baseColorFactor": [1.0, 1.0, 1.0, 1.0], "metallicFactor": 0.0, "roughnessFactor": 1.0}, "alphaMode": "OPAQUE", "doubleSided": true}, {"name": "river_futi1", "pbrMetallicRoughness": {"baseColorFactor": [1.0, 1.0, 1.0, 1.0], "metallicFactor": 0.0, "roughnessFactor": 1.0}, "alphaMode": "OPAQUE", "doubleSided": true}, {"name": "stone_futi", "pbrMetallicRoughness": {"baseColorFactor": [1.0, 1.0, 1.0, 0.5161290322580645], "metallicFactor": 0.0, "roughnessFactor": 1.0}, "alphaMode": "BLEND", "doubleSided": true}], "buffers": [{"byteLength": 2240, "uri": "data:application/octet-stream;base64,"}], "bufferViews": [{"buffer": 0, "byteOffset": 0, "byteLength": 516}, {"buffer": 0, "byteOffset": 516, "byteLength": 344}, {"buffer": 0, "byteOffset": 860, "byteLength": 516}, {"buffer": 0, "byteOffset": 1376, "byteLength": 186}, {"buffer": 0, "byteOffset": 1564, "byteLength": 48}, {"buffer": 0, "byteOffset": 1612, "byteLength": 32}, {"buffer": 0, "byteOffset": 1644, "byteLength": 48}, {"buffer": 0, "byteOffset": 1692, "byteLength": 12}, {"buffer": 0, "byteOffset": 1704, "byteLength": 84}, {"buffer": 0, "byteOffset": 1788, "byteLength": 56}, {"buffer": 0, "byteOffset": 1844, "byteLength": 84}, {"buffer": 0, "byteOffset": 1928, "byteLength": 30}, {"buffer": 0, "byteOffset": 1960, "byteLength": 48}, {"buffer": 0, "byteOffset": 2008, "byteLength": 32}, {"buffer": 0, "byteOffset": 2040, "byteLength": 48}, {"buffer": 0, "byteOffset": 2088, "byteLength": 12}, {"buffer": 0, "byteOffset": 2100, "byteLength": 48}, {"buffer": 0, "byteOffset": 2148, "byteLength": 32}, {"buffer": 0, "byteOffset": 2180, "byteLength": 48}, {"buffer": 0, "byteOffset": 2228, "byteLength": 12}], "accessors": [{"bufferView": 0, "byteOffset": 0, "componentType": 5126, "count": 43, "type": "VEC3", "min": [-2.38037109375, -1.5, -4.0], "max": [1.021728515625, 0.0, 0.0]}, {"bufferView": 1, "byteOffset": 0, "componentType": 5126, "count": 43, "type": "VEC2"}, {"bufferView": 2, "byteOffset": 0, "componentType": 5126, "count": 43, "type": "VEC3"}, {"bufferView": 3, "byteOffset": 0, "componentType": 5123, "count": 93, "type": "SCALAR"}, {"bufferView": 4, "byteOffset": 0, "componentType": 5126, "count": 4, "type": "VEC3", "min": [-2.0, -0.699951171875, -3.929931640625], "max": [2.0, -0.699951171875, -0.070068359375]}, {"bufferView": 5, "byteOffset": 0, "componentType": 5126, "count": 4, "type": "VEC2"}, {"bufferView": 6, "byteOffset": 0, "componentType": 5126, "count": 4, "type": "VEC3"}, {"bufferView": 7, "byteOffset": 0, "componentType": 5123, "count": 6, "type": "SCALAR"}, {"bufferView": 8, "byteOffset": 0, "componentType": 5126, "count": 7, "type": "VEC3", "min": [0.4482421875, 0.0, -4.0], "max": [2.0, 0.0, 0.0]}, {"bufferView": 9, "byteOffset": 0, "componentType": 5126, "count": 7, "type": "VEC2"}, {"bufferView": 10, "byteOffset": 0, "componentType": 5126, "count": 7, "type": "VEC3"}, {"bufferView": 11, "byteOffset": 0, "componentType": 5123, "count": 15, "type": "SCALAR"}, {"bufferView": 12, "byteOffset": 0, "componentType": 5126, "count": 4, "type": "VEC3", "min": [-1.146240234375, 0.04833984375, -1.93212890625], "max": [1.44677734375, 0.04833984375, 1.93212890625]}, {"bufferView": 13, "byteOffset": 0, "componentType": 5126, "count": 4, "type": "VEC2"}, {"bufferView": 14, "byteOffset": 0, "componentType": 5126, "count": 4, "type": "VEC3"}, {"bufferView": 15, "byteOffset": 0, "componentType": 5123, "count": 6, "type": "SCALAR"}, {"bufferView": 16, "byteOffset": 0, "componentType": 5126, "count": 4, "type": "VEC3", "min": [-0.94287109375, 0.0283203125, -1.598388671875], "max": [0.707763671875, 0.04833984375, -0.539794921875]}, {"bufferView": 17, "byteOffset": 0, "componentType": 5126, "count": 4, "type": "VEC2"}, {"bufferView": 18, "byteOffset": 0, "componentType": 5126, "count": 4, "type": "VEC3"}, {"bufferView": 19, "byteOffset": 0, "componentType": 5123, "count": 6, "type": "SCALAR"}], "samplers": [{"magFilter": 9729, "minFilter": 9729, "wrapS": 10497, "wrapT": 10497}]}