{"asset": {"version": "2.0", "generator": "tongari-nsbmd-to-gltf"}, "scene": 0, "scenes": [{"nodes": [0, 3]}], "nodes": [{"name": "river_t_a02", "translation": [0.0, 0.0, 0.0], "children": [1, 2]}, {"name": "river_t_a040", "translation": [0.0, 0.0, 0.0]}, {"name": "river_t_a096", "translation": [0.550537109375, -0.678466796875, -1.937744140625]}, {"mesh": 0, "name": "river_t_a02"}], "meshes": [{"name": "river_t_a02", "primitives": [{"attributes": {"POSITION": 0, "TEXCOORD_0": 1, "NORMAL": 2}, "indices": 3, "mode": 4, "material": 2}, {"attributes": {"POSITION": 4, "TEXCOORD_0": 5, "NORMAL": 6}, "indices": 7, "mode": 4, "material": 1}, {"attributes": {"POSITION": 8, "TEXCOORD_0": 9, "NORMAL": 10}, "indices": 11, "mode": 4, "material": 0}, {"attributes": {"POSITION": 12, "TEXCOORD_0": 13, "NORMAL": 14}, "indices": 15, "mode": 4, "material": 3}]}], "materials": [{"name": "r_water", "pbrMetallicRoughness": {"baseColorFactor": [1.0, 1.0, 1.0, 1.0], "metallicFactor": 0.0, "roughnessFactor": 1.0}, "alphaMode": "OPAQUE", "doubleSided": true}, {"name": "r_z_gake", "pbrMetallicRoughness": {"baseColorFactor": [1.0, 1.0, 1.0, 1.0], "metallicFactor": 0.0, "roughnessFactor": 1.0}, "alphaMode": "OPAQUE", "doubleSided": true}, {"name": "r_z_ground", "pbrMetallicRoughness": {"baseColorFactor": [1.0, 1.0, 1.0, 1.0], "metallicFactor": 0.0, "roughnessFactor": 1.0}, "alphaMode": "OPAQUE", "doubleSided": true}, {"name": "river_futi1", "pbrMetallicRoughness": {"baseColorFactor": [1.0, 1.0, 1.0, 1.0], "metallicFactor": 0.0, "roughnessFactor": 1.0}, "alphaMode": "OPAQUE", "doubleSided": true}], "buffers": [{"byteLength": 1412, "uri": "data:application/octet-stream;base64,"}], "bufferViews": [{"buffer": 0, "byteOffset": 0, "byteLength": 108}, {"buffer": 0, "byteOffset": 108, "byteLength": 72}, {"buffer": 0, "byteOffset": 180, "byteLength": 108}, {"buffer": 0, "byteOffset": 288, "byteLength": 30}, {"buffer": 0, "byteOffset": 320, "byteLength": 240}, {"buffer": 0, "byteOffset": 560, "byteLength": 160}, {"buffer": 0, "byteOffset": 720, "byteLength": 240}, {"buffer": 0, "byteOffset": 960, "byteLength": 96}, {"buffer": 0, "byteOffset": 1056, "byteLength": 48}, {"buffer": 0, "byteOffset": 1104, "byteLength": 32}, {"buffer": 0, "byteOffset": 1136, "byteLength": 48}, {"buffer": 0, "byteOffset": 1184, "byteLength": 12}, {"buffer": 0, "byteOffset": 1196, "byteLength": 72}, {"buffer": 0, "byteOffset": 1268, "byteLength": 48}, {"buffer": 0, "byteOffset": 1316, "byteLength": 72}, {"buffer": 0, "byteOffset": 1388, "byteLength": 24}], "accessors": [{"bufferView": 0, "byteOffset": 0, "componentType": 5126, "count": 9, "type": "VEC3", "min": [-0.82666015625, 0.0, -4.0], "max": [2.0, 0.0, 0.0]}, {"bufferView": 1, "byteOffset": 0, "componentType": 5126, "count": 9, "type": "VEC2"}, {"bufferView": 2, "byteOffset": 0, "componentType": 5126, "count": 9, "type": "VEC3"}, {"bufferView": 3, "byteOffset": 0, "componentType": 5123, "count": 15, "type": "SCALAR"}, {"bufferView": 4, "byteOffset": 0, "componentType": 5126, "count": 20, "type": "VEC3", "min": [-1.87109375, -1.5, -4.0], "max": [0.4482421875, 0.0, 0.0]}, {"bufferView": 5, "byteOffset": 0, "componentType": 5126, "count": 20, "type": "VEC2"}, {"bufferView": 6, "byteOffset": 0, "componentType": 5126, "count": 20, "type": "VEC3"}, {"bufferView": 7, "byteOffset": 0, "componentType": 5123, "count": 48, "type": "SCALAR"}, {"bufferView": 8, "byteOffset": 0, "componentType": 5126, "count": 4, "type": "VEC3", "min": [-2.0, -0.699951171875, -3.929931640625], "max": [2.0, -0.699951171875, -0.070068359375]}, {"bufferView": 9, "byteOffset": 0, "componentType": 5126, "count": 4, "type": "VEC2"}, {"bufferView": 10, "byteOffset": 0, "componentType": 5126, "count": 4, "type": "VEC3"}, {"bufferView": 11, "byteOffset": 0, "componentType": 5123, "count": 6, "type": "SCALAR"}, {"bufferView": 12, "byteOffset": 0, "componentType": 5126, "count": 6, "type": "VEC3", "min": [-2.513671875, 0.04833984375, -1.994384765625], "max": [1.44677734375, 0.04833984375, 1.869873046875]}, {"bufferView": 13, "byteOffset": 0, "componentType": 5126, "count": 6, "type": "VEC2"}, {"bufferView": 14, "byteOffset": 0, "componentType": 5126, "count": 6, "type": "VEC3"}, {"bufferView": 15, "byteOffset": 0, "componentType": 5123, "count": 12, "type": "SCALAR"}], "samplers": [{"magFilter": 9729, "minFilter": 9729, "wrapS": 10497, "wrapT": 10497}]}