{"asset": {"version": "2.0", "generator": "tongari-nsbmd-to-gltf"}, "scene": 0, "scenes": [{"nodes": [0, 4]}], "nodes": [{"name": "river_t_a01", "translation": [0.0, 0.0, 0.0], "children": [1, 2, 3]}, {"name": "river_t_a039", "translation": [0.0, 0.0, 0.0]}, {"name": "river_t_a095", "translation": [1.34716796875, -0.678466796875, -0.40234375]}, {"name": "river_t_a097", "translation": [-0.18212890625, -0.678466796875, -1.945068359375]}, {"mesh": 0, "name": "river_t_a01"}], "meshes": [{"name": "river_t_a01", "primitives": [{"attributes": {"POSITION": 0, "TEXCOORD_0": 1, "NORMAL": 2}, "indices": 3, "mode": 4, "material": 2}, {"attributes": {"POSITION": 4, "TEXCOORD_0": 5, "NORMAL": 6}, "indices": 7, "mode": 4, "material": 1}, {"attributes": {"POSITION": 8, "TEXCOORD_0": 9, "NORMAL": 10}, "indices": 11, "mode": 4, "material": 0}, {"attributes": {"POSITION": 12, "TEXCOORD_0": 13, "NORMAL": 14}, "indices": 15, "mode": 4, "material": 4}, {"attributes": {"POSITION": 16, "TEXCOORD_0": 17, "NORMAL": 18}, "indices": 19, "mode": 4, "material": 3}]}], "materials": [{"name": "r_water", "pbrMetallicRoughness": {"baseColorFactor": [1.0, 1.0, 1.0, 1.0], "metallicFactor": 0.0, "roughnessFactor": 1.0}, "alphaMode": "OPAQUE", "doubleSided": true}, {"name": "r_z_gake", "pbrMetallicRoughness": {"baseColorFactor": [1.0, 1.0, 1.0, 1.0], "metallicFactor": 0.0, "roughnessFactor": 1.0}, "alphaMode": "OPAQUE", "doubleSided": true}, {"name": "r_z_ground", "pbrMetallicRoughness": {"baseColorFactor": [1.0, 1.0, 1.0, 1.0], "metallicFactor": 0.0, "roughnessFactor": 1.0}, "alphaMode": "OPAQUE", "doubleSided": true}, {"name": "river_futi1", "pbrMetallicRoughness": {"baseColorFactor": [1.0, 1.0, 1.0, 1.0], "metallicFactor": 0.0, "roughnessFactor": 1.0}, "alphaMode": "OPAQUE", "doubleSided": true}, {"name": "stone_futi", "pbrMetallicRoughness": {"baseColorFactor": [1.0, 1.0, 1.0, 0.5161290322580645], "metallicFactor": 0.0, "roughnessFactor": 1.0}, "alphaMode": "BLEND", "doubleSided": true}], "buffers": [{"byteLength": 2734, "uri": "data:application/octet-stream;base64,"}], "bufferViews": [{"buffer": 0, "byteOffset": 0, "byteLength": 228}, {"buffer": 0, "byteOffset": 228, "byteLength": 152}, {"buffer": 0, "byteOffset": 380, "byteLength": 228}, {"buffer": 0, "byteOffset": 608, "byteLength": 54}, {"buffer": 0, "byteOffset": 664, "byteLength": 480}, {"buffer": 0, "byteOffset": 1144, "byteLength": 320}, {"buffer": 0, "byteOffset": 1464, "byteLength": 480}, {"buffer": 0, "byteOffset": 1944, "byteLength": 192}, {"buffer": 0, "byteOffset": 2136, "byteLength": 48}, {"buffer": 0, "byteOffset": 2184, "byteLength": 32}, {"buffer": 0, "byteOffset": 2216, "byteLength": 48}, {"buffer": 0, "byteOffset": 2264, "byteLength": 12}, {"buffer": 0, "byteOffset": 2276, "byteLength": 48}, {"buffer": 0, "byteOffset": 2324, "byteLength": 32}, {"buffer": 0, "byteOffset": 2356, "byteLength": 48}, {"buffer": 0, "byteOffset": 2404, "byteLength": 12}, {"buffer": 0, "byteOffset": 2416, "byteLength": 108}, {"buffer": 0, "byteOffset": 2524, "byteLength": 72}, {"buffer": 0, "byteOffset": 2596, "byteLength": 108}, {"buffer": 0, "byteOffset": 2704, "byteLength": 30}], "accessors": [{"bufferView": 0, "byteOffset": 0, "componentType": 5126, "count": 19, "type": "VEC3", "min": [-2.0, 0.0, -4.0], "max": [1.642578125, 0.0, 0.0]}, {"bufferView": 1, "byteOffset": 0, "componentType": 5126, "count": 19, "type": "VEC2"}, {"bufferView": 2, "byteOffset": 0, "componentType": 5126, "count": 19, "type": "VEC3"}, {"bufferView": 3, "byteOffset": 0, "componentType": 5123, "count": 27, "type": "SCALAR"}, {"bufferView": 4, "byteOffset": 0, "componentType": 5126, "count": 40, "type": "VEC3", "min": [-1.5888671875, -1.5, -4.0], "max": [2.150634765625, 0.0, 0.0]}, {"bufferView": 5, "byteOffset": 0, "componentType": 5126, "count": 40, "type": "VEC2"}, {"bufferView": 6, "byteOffset": 0, "componentType": 5126, "count": 40, "type": "VEC3"}, {"bufferView": 7, "byteOffset": 0, "componentType": 5123, "count": 96, "type": "SCALAR"}, {"bufferView": 8, "byteOffset": 0, "componentType": 5126, "count": 4, "type": "VEC3", "min": [-2.0, -0.699951171875, -3.929931640625], "max": [2.0, -0.699951171875, -0.070068359375]}, {"bufferView": 9, "byteOffset": 0, "componentType": 5126, "count": 4, "type": "VEC2"}, {"bufferView": 10, "byteOffset": 0, "componentType": 5126, "count": 4, "type": "VEC3"}, {"bufferView": 11, "byteOffset": 0, "componentType": 5123, "count": 6, "type": "SCALAR"}, {"bufferView": 12, "byteOffset": 0, "componentType": 5126, "count": 4, "type": "VEC3", "min": [-1.52783203125, 0.0283203125, -2.91357421875], "max": [0.99755859375, 0.04833984375, -1.449462890625]}, {"bufferView": 13, "byteOffset": 0, "componentType": 5126, "count": 4, "type": "VEC2"}, {"bufferView": 14, "byteOffset": 0, "componentType": 5126, "count": 4, "type": "VEC3"}, {"bufferView": 15, "byteOffset": 0, "componentType": 5123, "count": 6, "type": "SCALAR"}, {"bufferView": 16, "byteOffset": 0, "componentType": 5126, "count": 9, "type": "VEC3", "min": [-1.8056640625, 0.04833984375, -1.9873046875], "max": [0.53759765625, 0.04833984375, 1.877197265625]}, {"bufferView": 17, "byteOffset": 0, "componentType": 5126, "count": 9, "type": "VEC2"}, {"bufferView": 18, "byteOffset": 0, "componentType": 5126, "count": 9, "type": "VEC3"}, {"bufferView": 19, "byteOffset": 0, "componentType": 5123, "count": 15, "type": "SCALAR"}], "samplers": [{"magFilter": 9729, "minFilter": 9729, "wrapS": 10497, "wrapT": 10497}]}