{"asset": {"version": "2.0", "generator": "tongari-nsbmd-to-gltf"}, "scene": 0, "scenes": [{"nodes": [0, 1]}], "nodes": [{"name": "sh_c14", "translation": [0.0, 0.0, 0.0]}, {"mesh": 0, "name": "sh_c14"}], "meshes": [{"name": "sh_c14", "primitives": [{"attributes": {"POSITION": 0, "TEXCOORD_0": 1, "NORMAL": 2}, "indices": 3, "mode": 4, "material": 3}, {"attributes": {"POSITION": 4, "TEXCOORD_0": 5, "NORMAL": 6}, "indices": 7, "mode": 4, "material": 0}, {"attributes": {"POSITION": 8, "TEXCOORD_0": 9, "NORMAL": 10}, "indices": 11, "mode": 4, "material": 2}, {"attributes": {"POSITION": 12, "TEXCOORD_0": 13, "NORMAL": 14}, "indices": 15, "mode": 4, "material": 1}]}], "materials": [{"name": "sh_block0_w00", "pbrMetallicRoughness": {"baseColorFactor": [1.0, 1.0, 1.0, 1.0], "metallicFactor": 0.0, "roughnessFactor": 1.0}, "alphaMode": "OPAQUE", "doubleSided": true}, {"name": "sh_block0_w01", "pbrMetallicRoughness": {"baseColorFactor": [1.0, 1.0, 1.0, 1.0], "metallicFactor": 0.0, "roughnessFactor": 1.0}, "alphaMode": "OPAQUE", "doubleSided": true}, {"name": "sh_block0_w02", "pbrMetallicRoughness": {"baseColorFactor": [1.0, 1.0, 1.0, 1.0], "metallicFactor": 0.0, "roughnessFactor": 1.0}, "alphaMode": "OPAQUE", "doubleSided": true}, {"name": "sh_g_ground_0", "pbrMetallicRoughness": {"baseColorFactor": [1.0, 1.0, 1.0, 1.0], "metallicFactor": 0.0, "roughnessFactor": 1.0}, "alphaMode": "OPAQUE", "doubleSided": true}], "buffers": [{"byteLength": 700, "uri": "data:application/octet-stream;base64,"}], "bufferViews": [{"buffer": 0, "byteOffset": 0, "byteLength": 48}, {"buffer": 0, "byteOffset": 48, "byteLength": 32}, {"buffer": 0, "byteOffset": 80, "byteLength": 48}, {"buffer": 0, "byteOffset": 128, "byteLength": 12}, {"buffer": 0, "byteOffset": 140, "byteLength": 48}, {"buffer": 0, "byteOffset": 188, "byteLength": 32}, {"buffer": 0, "byteOffset": 220, "byteLength": 48}, {"buffer": 0, "byteOffset": 268, "byteLength": 12}, {"buffer": 0, "byteOffset": 280, "byteLength": 96}, {"buffer": 0, "byteOffset": 376, "byteLength": 64}, {"buffer": 0, "byteOffset": 440, "byteLength": 96}, {"buffer": 0, "byteOffset": 536, "byteLength": 24}, {"buffer": 0, "byteOffset": 560, "byteLength": 48}, {"buffer": 0, "byteOffset": 608, "byteLength": 32}, {"buffer": 0, "byteOffset": 640, "byteLength": 48}, {"buffer": 0, "byteOffset": 688, "byteLength": 12}], "accessors": [{"bufferView": 0, "byteOffset": 0, "componentType": 5126, "count": 4, "type": "VEC3", "min": [-2.0, 3.0, -4.300048828125], "max": [2.0, 3.0, 0.300048828125]}, {"bufferView": 1, "byteOffset": 0, "componentType": 5126, "count": 4, "type": "VEC2"}, {"bufferView": 2, "byteOffset": 0, "componentType": 5126, "count": 4, "type": "VEC3"}, {"bufferView": 3, "byteOffset": 0, "componentType": 5123, "count": 6, "type": "SCALAR"}, {"bufferView": 4, "byteOffset": 0, "componentType": 5126, "count": 4, "type": "VEC3", "min": [-2.0, 2.950927734375, 0.2412109375], "max": [2.0, 6.927734375, 0.2412109375]}, {"bufferView": 5, "byteOffset": 0, "componentType": 5126, "count": 4, "type": "VEC2"}, {"bufferView": 6, "byteOffset": 0, "componentType": 5126, "count": 4, "type": "VEC3"}, {"bufferView": 7, "byteOffset": 0, "componentType": 5123, "count": 6, "type": "SCALAR"}, {"bufferView": 8, "byteOffset": 0, "componentType": 5126, "count": 8, "type": "VEC3", "min": [-2.0, 6.575927734375, -1.3701171875], "max": [2.00048828125, 7.424072265625, 0.29345703125]}, {"bufferView": 9, "byteOffset": 0, "componentType": 5126, "count": 8, "type": "VEC2"}, {"bufferView": 10, "byteOffset": 0, "componentType": 5126, "count": 8, "type": "VEC3"}, {"bufferView": 11, "byteOffset": 0, "componentType": 5123, "count": 12, "type": "SCALAR"}, {"bufferView": 12, "byteOffset": 0, "componentType": 5126, "count": 4, "type": "VEC3", "min": [-2.19970703125, 2.90283203125, 0.29345703125], "max": [-1.7998046875, 6.575927734375, 0.29345703125]}, {"bufferView": 13, "byteOffset": 0, "componentType": 5126, "count": 4, "type": "VEC2"}, {"bufferView": 14, "byteOffset": 0, "componentType": 5126, "count": 4, "type": "VEC3"}, {"bufferView": 15, "byteOffset": 0, "componentType": 5123, "count": 6, "type": "SCALAR"}], "samplers": [{"magFilter": 9729, "minFilter": 9729, "wrapS": 10497, "wrapT": 10497}]}