{"asset": {"version": "2.0", "generator": "tongari-nsbmd-to-gltf"}, "scene": 0, "scenes": [{"nodes": [0, 1]}], "nodes": [{"name": "kg3_ser46", "translation": [0.0, 0.0, 0.0]}, {"mesh": 0, "name": "3865kg3_ser46"}], "meshes": [{"name": "3865kg3_ser46", "primitives": [{"attributes": {"POSITION": 0, "TEXCOORD_0": 1, "NORMAL": 2}, "indices": 3, "mode": 4, "material": 1}, {"attributes": {"POSITION": 4, "TEXCOORD_0": 5, "NORMAL": 6}, "indices": 7, "mode": 4, "material": 2}, {"attributes": {"POSITION": 8, "TEXCOORD_0": 9, "NORMAL": 10}, "indices": 11, "mode": 4, "material": 0}, {"attributes": {"POSITION": 12, "TEXCOORD_0": 13, "NORMAL": 14}, "indices": 15, "mode": 4, "material": 3}]}], "materials": [{"name": "ser46_0", "pbrMetallicRoughness": {"baseColorFactor": [1.0, 1.0, 1.0, 1.0], "metallicFactor": 0.0, "roughnessFactor": 1.0}, "alphaMode": "OPAQUE", "doubleSided": true}, {"name": "ser46_1", "pbrMetallicRoughness": {"baseColorFactor": [1.0, 1.0, 1.0, 1.0], "metallicFactor": 0.0, "roughnessFactor": 1.0}, "alphaMode": "OPAQUE", "doubleSided": true}, {"name": "ser46_2", "pbrMetallicRoughness": {"baseColorFactor": [1.0, 1.0, 1.0, 1.0], "metallicFactor": 0.0, "roughnessFactor": 1.0}, "alphaMode": "OPAQUE", "doubleSided": true}, {"name": "ser46_3", "pbrMetallicRoughness": {"baseColorFactor": [1.0, 1.0, 1.0, 1.0], "metallicFactor": 0.0, "roughnessFactor": 1.0}, "alphaMode": "OPAQUE", "doubleSided": true}], "buffers": [{"byteLength": 4708, "uri": "data:application/octet-stream;base64,"}], "bufferViews": [{"buffer": 0, "byteOffset": 0, "byteLength": 480}, {"buffer": 0, "byteOffset": 480, "byteLength": 320}, {"buffer": 0, "byteOffset": 800, "byteLength": 480}, {"buffer": 0, "byteOffset": 1280, "byteLength": 120}, {"buffer": 0, "byteOffset": 1400, "byteLength": 216}, {"buffer": 0, "byteOffset": 1616, "byteLength": 144}, {"buffer": 0, "byteOffset": 1760, "byteLength": 216}, {"buffer": 0, "byteOffset": 1976, "byteLength": 60}, {"buffer": 0, "byteOffset": 2036, "byteLength": 384}, {"buffer": 0, "byteOffset": 2420, "byteLength": 256}, {"buffer": 0, "byteOffset": 2676, "byteLength": 384}, {"buffer": 0, "byteOffset": 3060, "byteLength": 96}, {"buffer": 0, "byteOffset": 3156, "byteLength": 528}, {"buffer": 0, "byteOffset": 3684, "byteLength": 352}, {"buffer": 0, "byteOffset": 4036, "byteLength": 528}, {"buffer": 0, "byteOffset": 4564, "byteLength": 144}], "accessors": [{"bufferView": 0, "byteOffset": 0, "componentType": 5126, "count": 40, "type": "VEC3", "min": [-0.903564453125, 0.0, -0.830322265625], "max": [0.915771484375, 0.59375, 0.830322265625]}, {"bufferView": 1, "byteOffset": 0, "componentType": 5126, "count": 40, "type": "VEC2"}, {"bufferView": 2, "byteOffset": 0, "componentType": 5126, "count": 40, "type": "VEC3"}, {"bufferView": 3, "byteOffset": 0, "componentType": 5123, "count": 60, "type": "SCALAR"}, {"bufferView": 4, "byteOffset": 0, "componentType": 5126, "count": 18, "type": "VEC3", "min": [-1.019775390625, 0.0, -0.830322265625], "max": [-0.41845703125, 0.59619140625, 0.830322265625]}, {"bufferView": 5, "byteOffset": 0, "componentType": 5126, "count": 18, "type": "VEC2"}, {"bufferView": 6, "byteOffset": 0, "componentType": 5126, "count": 18, "type": "VEC3"}, {"bufferView": 7, "byteOffset": 0, "componentType": 5123, "count": 30, "type": "SCALAR"}, {"bufferView": 8, "byteOffset": 0, "componentType": 5126, "count": 32, "type": "VEC3", "min": [-1.140380859375, 1.439208984375, -1.13916015625], "max": [1.140380859375, 1.685791015625, 1.13916015625]}, {"bufferView": 9, "byteOffset": 0, "componentType": 5126, "count": 32, "type": "VEC2"}, {"bufferView": 10, "byteOffset": 0, "componentType": 5126, "count": 32, "type": "VEC3"}, {"bufferView": 11, "byteOffset": 0, "componentType": 5123, "count": 48, "type": "SCALAR"}, {"bufferView": 12, "byteOffset": 0, "componentType": 5126, "count": 44, "type": "VEC3", "min": [-0.9501953125, 0.0, -0.954833984375], "max": [0.9501953125, 1.51513671875, 0.954833984375]}, {"bufferView": 13, "byteOffset": 0, "componentType": 5126, "count": 44, "type": "VEC2"}, {"bufferView": 14, "byteOffset": 0, "componentType": 5126, "count": 44, "type": "VEC3"}, {"bufferView": 15, "byteOffset": 0, "componentType": 5123, "count": 72, "type": "SCALAR"}], "samplers": [{"magFilter": 9729, "minFilter": 9729, "wrapS": 10497, "wrapT": 10497}]}