{"asset": {"version": "2.0", "generator": "tongari-nsbmd-to-gltf"}, "scene": 0, "scenes": [{"nodes": [0, 2]}], "nodes": [{"name": "root", "translation": [0.0, 0.0, 0.0], "children": [1]}, {"name": "joint1", "translation": [0.0, 0.199951171875, 0.0]}, {"mesh": 0, "name": "3303IMIG07_07"}], "meshes": [{"name": "3303IMIG07_07", "primitives": [{"attributes": {"POSITION": 0, "TEXCOORD_0": 1, "NORMAL": 2}, "indices": 3, "mode": 4, "material": 0}]}], "materials": [{"name": "imig07_07_0", "pbrMetallicRoughness": {"baseColorFactor": [1.0, 1.0, 1.0, 1.0], "metallicFactor": 0.0, "roughnessFactor": 1.0}, "alphaMode": "OPAQUE", "doubleSided": true}], "buffers": [{"byteLength": 3608, "uri": "data:application/octet-stream;base64,"}], "bufferViews": [{"buffer": 0, "byteOffset": 0, "byteLength": 1200}, {"buffer": 0, "byteOffset": 1200, "byteLength": 800}, {"buffer": 0, "byteOffset": 2000, "byteLength": 1200}, {"buffer": 0, "byteOffset": 3200, "byteLength": 408}], "accessors": [{"bufferView": 0, "byteOffset": 0, "componentType": 5126, "count": 100, "type": "VEC3", "min": [-0.425048828125, 0.0, -0.425048828125], "max": [0.425048828125, 0.60888671875, 0.423095703125]}, {"bufferView": 1, "byteOffset": 0, "componentType": 5126, "count": 100, "type": "VEC2"}, {"bufferView": 2, "byteOffset": 0, "componentType": 5126, "count": 100, "type": "VEC3"}, {"bufferView": 3, "byteOffset": 0, "componentType": 5123, "count": 204, "type": "SCALAR"}], "samplers": [{"magFilter": 9729, "minFilter": 9729, "wrapS": 10497, "wrapT": 10497}]}