{"asset": {"version": "2.0", "generator": "tongari-nsbmd-to-gltf"}, "scene": 0, "scenes": [{"nodes": [0, 1]}], "nodes": [{"name": "polySurface31", "translation": [8.94580078125, 1.34619140625, 9.9970703125]}, {"mesh": 0, "name": "gaku02"}], "meshes": [{"name": "gaku02", "primitives": [{"attributes": {"POSITION": 0, "TEXCOORD_0": 1, "NORMAL": 2}, "indices": 3, "mode": 4, "material": 6}, {"attributes": {"POSITION": 4, "TEXCOORD_0": 5, "NORMAL": 6}, "indices": 7, "mode": 4, "material": 3}, {"attributes": {"POSITION": 8, "TEXCOORD_0": 9, "NORMAL": 10}, "indices": 11, "mode": 4, "material": 8}, {"attributes": {"POSITION": 12, "TEXCOORD_0": 13, "NORMAL": 14}, "indices": 15, "mode": 4, "material": 9}, {"attributes": {"POSITION": 16, "TEXCOORD_0": 17, "NORMAL": 18}, "indices": 19, "mode": 4, "material": 7}, {"attributes": {"POSITION": 20, "TEXCOORD_0": 21, "NORMAL": 22}, "indices": 23, "mode": 4, "material": 5}, {"attributes": {"POSITION": 24, "TEXCOORD_0": 25, "NORMAL": 26}, "indices": 27, "mode": 4, "material": 1}, {"attributes": {"POSITION": 28, "TEXCOORD_0": 29, "NORMAL": 30}, "indices": 31, "mode": 4, "material": 2}, {"attributes": {"POSITION": 32, "TEXCOORD_0": 33, "NORMAL": 34}, "indices": 35, "mode": 4, "material": 4}, {"attributes": {"POSITION": 36, "TEXCOORD_0": 37, "NORMAL": 38}, "indices": 39, "mode": 4, "material": 0}]}], "materials": [{"name": "IMP_c00_face1", "pbrMetallicRoughness": {"baseColorFactor": [0.803921568627451, 0.803921568627451, 0.803921568627451, 1.0], "metallicFactor": 0.0, "roughnessFactor": 1.0}, "alphaMode": "OPAQUE", "doubleSided": true}, {"name": "IMP_c04_frame1", "pbrMetallicRoughness": {"baseColorFactor": [0.803921568627451, 0.803921568627451, 0.803921568627451, 1.0], "metallicFactor": 0.0, "roughnessFactor": 1.0}, "alphaMode": "OPAQUE", "doubleSided": true}, {"name": "IMP_c05_back1", "pbrMetallicRoughness": {"baseColorFactor": [0.803921568627451, 0.803921568627451, 0.803921568627451, 1.0], "metallicFactor": 0.0, "roughnessFactor": 1.0}, "alphaMode": "OPAQUE", "doubleSided": true}, {"name": "IMP_c06_hair1", "pbrMetallicRoughness": {"baseColorFactor": [0.803921568627451, 0.803921568627451, 0.803921568627451, 1.0], "metallicFactor": 0.0, "roughnessFactor": 1.0}, "alphaMode": "OPAQUE", "doubleSided": true}, {"name": "IMP_c07_hige", "pbrMetallicRoughness": {"baseColorFactor": [0.803921568627451, 0.803921568627451, 0.803921568627451, 1.0], "metallicFactor": 0.0, "roughnessFactor": 1.0}, "alphaMode": "OPAQUE", "doubleSided": true}, {"name": "IMP_c08_sun1", "pbrMetallicRoughness": {"baseColorFactor": [0.803921568627451, 0.803921568627451, 0.803921568627451, 1.0], "metallicFactor": 0.0, "roughnessFactor": 1.0}, "alphaMode": "OPAQUE", "doubleSided": true}, {"name": "IMP_c09_obi1", "pbrMetallicRoughness": {"baseColorFactor": [0.803921568627451, 0.803921568627451, 0.803921568627451, 1.0], "metallicFactor": 0.0, "roughnessFactor": 1.0}, "alphaMode": "OPAQUE", "doubleSided": true}, {"name": "IMP_c10_moon1", "pbrMetallicRoughness": {"baseColorFactor": [0.803921568627451, 0.803921568627451, 0.803921568627451, 1.0], "metallicFactor": 0.0, "roughnessFactor": 1.0}, "alphaMode": "OPAQUE", "doubleSided": true}, {"name": "IMP_c11_cloth_c", "pbrMetallicRoughness": {"baseColorFactor": [0.803921568627451, 0.803921568627451, 0.803921568627451, 1.0], "metallicFactor": 0.0, "roughnessFactor": 1.0}, "alphaMode": "OPAQUE", "doubleSided": true}, {"name": "IMP_c12_cloth_u", "pbrMetallicRoughness": {"baseColorFactor": [0.803921568627451, 0.803921568627451, 0.803921568627451, 1.0], "metallicFactor": 0.0, "roughnessFactor": 1.0}, "alphaMode": "OPAQUE", "doubleSided": true}], "buffers": [{"byteLength": 14188, "uri": "data:application/octet-stream;base64,"}], "bufferViews": [{"buffer": 0, "byteOffset": 0, "byteLength": 216}, {"buffer": 0, "byteOffset": 216, "byteLength": 144}, {"buffer": 0, "byteOffset": 360, "byteLength": 216}, {"buffer": 0, "byteOffset": 576, "byteLength": 60}, {"buffer": 0, "byteOffset": 636, "byteLength": 1296}, {"buffer": 0, "byteOffset": 1932, "byteLength": 864}, {"buffer": 0, "byteOffset": 2796, "byteLength": 1296}, {"buffer": 0, "byteOffset": 4092, "byteLength": 360}, {"buffer": 0, "byteOffset": 4452, "byteLength": 168}, {"buffer": 0, "byteOffset": 4620, "byteLength": 112}, {"buffer": 0, "byteOffset": 4732, "byteLength": 168}, {"buffer": 0, "byteOffset": 4900, "byteLength": 48}, {"buffer": 0, "byteOffset": 4948, "byteLength": 612}, {"buffer": 0, "byteOffset": 5560, "byteLength": 408}, {"buffer": 0, "byteOffset": 5968, "byteLength": 612}, {"buffer": 0, "byteOffset": 6580, "byteLength": 150}, {"buffer": 0, "byteOffset": 6732, "byteLength": 48}, {"buffer": 0, "byteOffset": 6780, "byteLength": 32}, {"buffer": 0, "byteOffset": 6812, "byteLength": 48}, {"buffer": 0, "byteOffset": 6860, "byteLength": 12}, {"buffer": 0, "byteOffset": 6872, "byteLength": 216}, {"buffer": 0, "byteOffset": 7088, "byteLength": 144}, {"buffer": 0, "byteOffset": 7232, "byteLength": 216}, {"buffer": 0, "byteOffset": 7448, "byteLength": 72}, {"buffer": 0, "byteOffset": 7520, "byteLength": 1032}, {"buffer": 0, "byteOffset": 8552, "byteLength": 688}, {"buffer": 0, "byteOffset": 9240, "byteLength": 1032}, {"buffer": 0, "byteOffset": 10272, "byteLength": 312}, {"buffer": 0, "byteOffset": 10584, "byteLength": 132}, {"buffer": 0, "byteOffset": 10716, "byteLength": 88}, {"buffer": 0, "byteOffset": 10804, "byteLength": 132}, {"buffer": 0, "byteOffset": 10936, "byteLength": 30}, {"buffer": 0, "byteOffset": 10968, "byteLength": 480}, {"buffer": 0, "byteOffset": 11448, "byteLength": 320}, {"buffer": 0, "byteOffset": 11768, "byteLength": 480}, {"buffer": 0, "byteOffset": 12248, "byteLength": 120}, {"buffer": 0, "byteOffset": 12368, "byteLength": 624}, {"buffer": 0, "byteOffset": 12992, "byteLength": 416}, {"buffer": 0, "byteOffset": 13408, "byteLength": 624}, {"buffer": 0, "byteOffset": 14032, "byteLength": 156}], "accessors": [{"bufferView": 0, "byteOffset": 0, "componentType": 5126, "count": 18, "type": "VEC3", "min": [8.65478515625, 1.412109375, 9.38427734375], "max": [8.840087890625, 1.756591796875, 10.61572265625]}, {"bufferView": 1, "byteOffset": 0, "componentType": 5126, "count": 18, "type": "VEC2"}, {"bufferView": 2, "byteOffset": 0, "componentType": 5126, "count": 18, "type": "VEC3"}, {"bufferView": 3, "byteOffset": 0, "componentType": 5123, "count": 30, "type": "SCALAR"}, {"bufferView": 4, "byteOffset": 0, "componentType": 5126, "count": 108, "type": "VEC3", "min": [8.859130859375, 2.024169921875, 9.476318359375], "max": [8.921142578125, 3.13134765625, 10.684326171875]}, {"bufferView": 5, "byteOffset": 0, "componentType": 5126, "count": 108, "type": "VEC2"}, {"bufferView": 6, "byteOffset": 0, "componentType": 5126, "count": 108, "type": "VEC3"}, {"bufferView": 7, "byteOffset": 0, "componentType": 5123, "count": 180, "type": "SCALAR"}, {"bufferView": 8, "byteOffset": 0, "componentType": 5126, "count": 14, "type": "VEC3", "min": [8.931640625, 1.596923828125, 9.672119140625], "max": [8.931640625, 2.269287109375, 10.128662109375]}, {"bufferView": 9, "byteOffset": 0, "componentType": 5126, "count": 14, "type": "VEC2"}, {"bufferView": 10, "byteOffset": 0, "componentType": 5126, "count": 14, "type": "VEC3"}, {"bufferView": 11, "byteOffset": 0, "componentType": 5123, "count": 24, "type": "SCALAR"}, {"bufferView": 12, "byteOffset": 0, "componentType": 5126, "count": 51, "type": "VEC3", "min": [8.931640625, 1.48828125, 9.19287109375], "max": [8.943359375, 2.68896484375, 10.790283203125]}, {"bufferView": 13, "byteOffset": 0, "componentType": 5126, "count": 51, "type": "VEC2"}, {"bufferView": 14, "byteOffset": 0, "componentType": 5126, "count": 51, "type": "VEC3"}, {"bufferView": 15, "byteOffset": 0, "componentType": 5123, "count": 75, "type": "SCALAR"}, {"bufferView": 16, "byteOffset": 0, "componentType": 5126, "count": 4, "type": "VEC3", "min": [8.80859375, 1.26953125, 9.74658203125], "max": [8.808837890625, 1.7763671875, 10.253662109375]}, {"bufferView": 17, "byteOffset": 0, "componentType": 5126, "count": 4, "type": "VEC2"}, {"bufferView": 18, "byteOffset": 0, "componentType": 5126, "count": 4, "type": "VEC3"}, {"bufferView": 19, "byteOffset": 0, "componentType": 5123, "count": 6, "type": "SCALAR"}, {"bufferView": 20, "byteOffset": 0, "componentType": 5126, "count": 18, "type": "VEC3", "min": [8.64892578125, 3.35302734375, 9.369384765625], "max": [8.90966796875, 4.13037109375, 10.629638671875]}, {"bufferView": 21, "byteOffset": 0, "componentType": 5126, "count": 18, "type": "VEC2"}, {"bufferView": 22, "byteOffset": 0, "componentType": 5126, "count": 18, "type": "VEC3"}, {"bufferView": 23, "byteOffset": 0, "componentType": 5123, "count": 36, "type": "SCALAR"}, {"bufferView": 24, "byteOffset": 0, "componentType": 5126, "count": 86, "type": "VEC3", "min": [8.84326171875, 1.345947265625, 8.95703125], "max": [9.017333984375, 3.914794921875, 11.04296875]}, {"bufferView": 25, "byteOffset": 0, "componentType": 5126, "count": 86, "type": "VEC2"}, {"bufferView": 26, "byteOffset": 0, "componentType": 5126, "count": 86, "type": "VEC3"}, {"bufferView": 27, "byteOffset": 0, "componentType": 5123, "count": 156, "type": "SCALAR"}, {"bufferView": 28, "byteOffset": 0, "componentType": 5126, "count": 11, "type": "VEC3", "min": [8.95361328125, 1.7080078125, 9.3310546875], "max": [8.95361328125, 3.540771484375, 10.6630859375]}, {"bufferView": 29, "byteOffset": 0, "componentType": 5126, "count": 11, "type": "VEC2"}, {"bufferView": 30, "byteOffset": 0, "componentType": 5126, "count": 11, "type": "VEC3"}, {"bufferView": 31, "byteOffset": 0, "componentType": 5123, "count": 15, "type": "SCALAR"}, {"bufferView": 32, "byteOffset": 0, "componentType": 5126, "count": 40, "type": "VEC3", "min": [8.892578125, 2.376708984375, 9.60400390625], "max": [8.892578125, 2.588623046875, 10.253173828125]}, {"bufferView": 33, "byteOffset": 0, "componentType": 5126, "count": 40, "type": "VEC2"}, {"bufferView": 34, "byteOffset": 0, "componentType": 5126, "count": 40, "type": "VEC3"}, {"bufferView": 35, "byteOffset": 0, "componentType": 5123, "count": 60, "type": "SCALAR"}, {"bufferView": 36, "byteOffset": 0, "componentType": 5126, "count": 52, "type": "VEC3", "min": [8.900390625, 2.271728515625, 9.7021484375], "max": [8.900390625, 2.92724609375, 10.4541015625]}, {"bufferView": 37, "byteOffset": 0, "componentType": 5126, "count": 52, "type": "VEC2"}, {"bufferView": 38, "byteOffset": 0, "componentType": 5126, "count": 52, "type": "VEC3"}, {"bufferView": 39, "byteOffset": 0, "componentType": 5123, "count": 78, "type": "SCALAR"}], "samplers": [{"magFilter": 9729, "minFilter": 9729, "wrapS": 10497, "wrapT": 10497}]}