{"asset": {"version": "2.0", "generator": "tongari-nsbmd-to-gltf"}, "scene": 0, "scenes": [{"nodes": [0, 1]}], "nodes": [{"name": "mori_g_j09", "translation": [0.0, 0.0, 0.0]}, {"mesh": 0, "name": "mori_g_j09"}], "meshes": [{"name": "mori_g_j09", "primitives": [{"attributes": {"POSITION": 0, "TEXCOORD_0": 1}, "indices": 2, "mode": 4, "material": 4}, {"attributes": {"POSITION": 3, "TEXCOORD_0": 4, "NORMAL": 5}, "indices": 6, "mode": 4, "material": 0}, {"attributes": {"POSITION": 7, "TEXCOORD_0": 8, "NORMAL": 9}, "indices": 10, "mode": 4, "material": 1}, {"attributes": {"POSITION": 11, "TEXCOORD_0": 12}, "indices": 13, "mode": 4, "material": 3}, {"attributes": {"POSITION": 14, "TEXCOORD_0": 15, "NORMAL": 16}, "indices": 17, "mode": 4, "material": 2}]}], "materials": [{"name": "mo_green00", "pbrMetallicRoughness": {"baseColorFactor": [1.0, 1.0, 1.0, 1.0], "metallicFactor": 0.0, "roughnessFactor": 1.0}, "alphaMode": "OPAQUE", "doubleSided": true}, {"name": "mo_green022", "pbrMetallicRoughness": {"baseColorFactor": [1.0, 1.0, 1.0, 1.0], "metallicFactor": 0.0, "roughnessFactor": 1.0}, "alphaMode": "OPAQUE", "doubleSided": true}, {"name": "mo_green1", "pbrMetallicRoughness": {"baseColorFactor": [1.0, 1.0, 1.0, 1.0], "metallicFactor": 0.0, "roughnessFactor": 1.0}, "alphaMode": "OPAQUE", "doubleSided": true}, {"name": "mori_bush0", "pbrMetallicRoughness": {"baseColorFactor": [1.0, 1.0, 1.0, 1.0], "metallicFactor": 0.0, "roughnessFactor": 1.0}, "alphaMode": "OPAQUE", "doubleSided": true}, {"name": "mori_bush01", "pbrMetallicRoughness": {"baseColorFactor": [1.0, 1.0, 1.0, 1.0], "metallicFactor": 0.0, "roughnessFactor": 1.0}, "alphaMode": "OPAQUE", "doubleSided": true}], "buffers": [{"byteLength": 1394, "uri": "data:application/octet-stream;base64,"}], "bufferViews": [{"buffer": 0, "byteOffset": 0, "byteLength": 96}, {"buffer": 0, "byteOffset": 96, "byteLength": 64}, {"buffer": 0, "byteOffset": 160, "byteLength": 24}, {"buffer": 0, "byteOffset": 184, "byteLength": 204}, {"buffer": 0, "byteOffset": 388, "byteLength": 136}, {"buffer": 0, "byteOffset": 524, "byteLength": 204}, {"buffer": 0, "byteOffset": 728, "byteLength": 54}, {"buffer": 0, "byteOffset": 784, "byteLength": 48}, {"buffer": 0, "byteOffset": 832, "byteLength": 32}, {"buffer": 0, "byteOffset": 864, "byteLength": 48}, {"buffer": 0, "byteOffset": 912, "byteLength": 12}, {"buffer": 0, "byteOffset": 924, "byteLength": 192}, {"buffer": 0, "byteOffset": 1116, "byteLength": 128}, {"buffer": 0, "byteOffset": 1244, "byteLength": 48}, {"buffer": 0, "byteOffset": 1292, "byteLength": 36}, {"buffer": 0, "byteOffset": 1328, "byteLength": 24}, {"buffer": 0, "byteOffset": 1352, "byteLength": 36}, {"buffer": 0, "byteOffset": 1388, "byteLength": 6}], "accessors": [{"bufferView": 0, "byteOffset": 0, "componentType": 5126, "count": 8, "type": "VEC3", "min": [-3.1787109375, 3.345947265625, -4.9716796875], "max": [3.0517578125, 4.95068359375, -1.970703125]}, {"bufferView": 1, "byteOffset": 0, "componentType": 5126, "count": 8, "type": "VEC2"}, {"bufferView": 2, "byteOffset": 0, "componentType": 5123, "count": 12, "type": "SCALAR"}, {"bufferView": 3, "byteOffset": 0, "componentType": 5126, "count": 17, "type": "VEC3", "min": [-3.0, 3.0, -4.360107421875], "max": [2.0, 3.60009765625, 0.150390625]}, {"bufferView": 4, "byteOffset": 0, "componentType": 5126, "count": 17, "type": "VEC2"}, {"bufferView": 5, "byteOffset": 0, "componentType": 5126, "count": 17, "type": "VEC3"}, {"bufferView": 6, "byteOffset": 0, "componentType": 5123, "count": 27, "type": "SCALAR"}, {"bufferView": 7, "byteOffset": 0, "componentType": 5126, "count": 4, "type": "VEC3", "min": [-3.0, 3.0, -2.0], "max": [2.0, 3.0, 0.300048828125]}, {"bufferView": 8, "byteOffset": 0, "componentType": 5126, "count": 4, "type": "VEC2"}, {"bufferView": 9, "byteOffset": 0, "componentType": 5126, "count": 4, "type": "VEC3"}, {"bufferView": 10, "byteOffset": 0, "componentType": 5123, "count": 6, "type": "SCALAR"}, {"bufferView": 11, "byteOffset": 0, "componentType": 5126, "count": 16, "type": "VEC3", "min": [-3.447265625, 3.003173828125, -3.39013671875], "max": [3.6484375, 5.760986328125, 0.563720703125]}, {"bufferView": 12, "byteOffset": 0, "componentType": 5126, "count": 16, "type": "VEC2"}, {"bufferView": 13, "byteOffset": 0, "componentType": 5123, "count": 24, "type": "SCALAR"}, {"bufferView": 14, "byteOffset": 0, "componentType": 5126, "count": 3, "type": "VEC3", "min": [-3.0, 3.0, -4.300048828125], "max": [2.0, 3.0, -2.0]}, {"bufferView": 15, "byteOffset": 0, "componentType": 5126, "count": 3, "type": "VEC2"}, {"bufferView": 16, "byteOffset": 0, "componentType": 5126, "count": 3, "type": "VEC3"}, {"bufferView": 17, "byteOffset": 0, "componentType": 5123, "count": 3, "type": "SCALAR"}], "samplers": [{"magFilter": 9729, "minFilter": 9729, "wrapS": 10497, "wrapT": 10497}]}