{"asset": {"version": "2.0", "generator": "tongari-nsbmd-to-gltf"}, "scene": 0, "scenes": [{"nodes": [0, 1]}], "nodes": [{"name": "mori_g_l09", "translation": [0.0, 0.0, 0.0]}, {"mesh": 0, "name": "mori_g_l09"}], "meshes": [{"name": "mori_g_l09", "primitives": [{"attributes": {"POSITION": 0, "TEXCOORD_0": 1}, "indices": 2, "mode": 4, "material": 1}, {"attributes": {"POSITION": 3, "TEXCOORD_0": 4, "NORMAL": 5}, "indices": 6, "mode": 4, "material": 0}, {"attributes": {"POSITION": 7, "TEXCOORD_0": 8}, "indices": 9, "mode": 4, "material": 2}, {"attributes": {"POSITION": 10, "TEXCOORD_0": 11}, "indices": 12, "mode": 4, "material": 3}]}], "materials": [{"name": "mo_green00", "pbrMetallicRoughness": {"baseColorFactor": [1.0, 1.0, 1.0, 1.0], "metallicFactor": 0.0, "roughnessFactor": 1.0}, "alphaMode": "OPAQUE", "doubleSided": true}, {"name": "tree00_miki2", "pbrMetallicRoughness": {"baseColorFactor": [1.0, 1.0, 1.0, 1.0], "metallicFactor": 0.0, "roughnessFactor": 1.0}, "alphaMode": "OPAQUE", "doubleSided": true}, {"name": "tree_mori_y0", "pbrMetallicRoughness": {"baseColorFactor": [1.0, 1.0, 1.0, 1.0], "metallicFactor": 0.0, "roughnessFactor": 1.0}, "alphaMode": "OPAQUE", "doubleSided": true}, {"name": "tree_mori_y1", "pbrMetallicRoughness": {"baseColorFactor": [1.0, 1.0, 1.0, 1.0], "metallicFactor": 0.0, "roughnessFactor": 1.0}, "alphaMode": "OPAQUE", "doubleSided": true}], "buffers": [{"byteLength": 600, "uri": "data:application/octet-stream;base64,"}], "bufferViews": [{"buffer": 0, "byteOffset": 0, "byteLength": 48}, {"buffer": 0, "byteOffset": 48, "byteLength": 32}, {"buffer": 0, "byteOffset": 80, "byteLength": 12}, {"buffer": 0, "byteOffset": 92, "byteLength": 48}, {"buffer": 0, "byteOffset": 140, "byteLength": 32}, {"buffer": 0, "byteOffset": 172, "byteLength": 48}, {"buffer": 0, "byteOffset": 220, "byteLength": 12}, {"buffer": 0, "byteOffset": 232, "byteLength": 144}, {"buffer": 0, "byteOffset": 376, "byteLength": 96}, {"buffer": 0, "byteOffset": 472, "byteLength": 36}, {"buffer": 0, "byteOffset": 508, "byteLength": 48}, {"buffer": 0, "byteOffset": 556, "byteLength": 32}, {"buffer": 0, "byteOffset": 588, "byteLength": 12}], "accessors": [{"bufferView": 0, "byteOffset": 0, "componentType": 5126, "count": 4, "type": "VEC3", "min": [0.4375, 1.73486328125, -0.488525390625], "max": [0.8994140625, 2.868408203125, -0.27587890625]}, {"bufferView": 1, "byteOffset": 0, "componentType": 5126, "count": 4, "type": "VEC2"}, {"bufferView": 2, "byteOffset": 0, "componentType": 5123, "count": 6, "type": "SCALAR"}, {"bufferView": 3, "byteOffset": 0, "componentType": 5126, "count": 4, "type": "VEC3", "min": [-1.49658203125, 1.795654296875, -2.1748046875], "max": [1.0, 1.795654296875, 0.1796875]}, {"bufferView": 4, "byteOffset": 0, "componentType": 5126, "count": 4, "type": "VEC2"}, {"bufferView": 5, "byteOffset": 0, "componentType": 5126, "count": 4, "type": "VEC3"}, {"bufferView": 6, "byteOffset": 0, "componentType": 5123, "count": 6, "type": "SCALAR"}, {"bufferView": 7, "byteOffset": 0, "componentType": 5126, "count": 12, "type": "VEC3", "min": [-0.405029296875, 1.99072265625, -1.376220703125], "max": [1.70654296875, 4.337646484375, -0.17529296875]}, {"bufferView": 8, "byteOffset": 0, "componentType": 5126, "count": 12, "type": "VEC2"}, {"bufferView": 9, "byteOffset": 0, "componentType": 5123, "count": 18, "type": "SCALAR"}, {"bufferView": 10, "byteOffset": 0, "componentType": 5126, "count": 4, "type": "VEC3", "min": [0.095703125, 2.72314453125, -0.702392578125], "max": [1.32275390625, 4.1591796875, 0.116943359375]}, {"bufferView": 11, "byteOffset": 0, "componentType": 5126, "count": 4, "type": "VEC2"}, {"bufferView": 12, "byteOffset": 0, "componentType": 5123, "count": 6, "type": "SCALAR"}], "samplers": [{"magFilter": 9729, "minFilter": 9729, "wrapS": 10497, "wrapT": 10497}]}