{"asset": {"version": "2.0", "generator": "tongari-nsbmd-to-gltf"}, "scene": 0, "scenes": [{"nodes": [0, 1]}], "nodes": [{"name": "sh_r_depa", "translation": [0.0, 0.0, 0.0]}, {"mesh": 0, "name": "sh_r_depa00"}], "meshes": [{"name": "sh_r_depa00", "primitives": [{"attributes": {"POSITION": 0, "TEXCOORD_0": 1, "NORMAL": 2}, "indices": 3, "mode": 4, "material": 20}, {"attributes": {"POSITION": 4, "TEXCOORD_0": 5, "NORMAL": 6}, "indices": 7, "mode": 4, "material": 7}, {"attributes": {"POSITION": 8, "TEXCOORD_0": 9, "NORMAL": 10}, "indices": 11, "mode": 4, "material": 3}, {"attributes": {"POSITION": 12, "TEXCOORD_0": 13, "NORMAL": 14}, "indices": 15, "mode": 4, "material": 21}, {"attributes": {"POSITION": 16, "TEXCOORD_0": 17, "NORMAL": 18}, "indices": 19, "mode": 4, "material": 17}, {"attributes": {"POSITION": 20, "TEXCOORD_0": 21, "NORMAL": 22}, "indices": 23, "mode": 4, "material": 26}, {"attributes": {"POSITION": 24, "TEXCOORD_0": 25, "NORMAL": 26}, "indices": 27, "mode": 4, "material": 14}, {"attributes": {"POSITION": 28, "TEXCOORD_0": 29, "NORMAL": 30}, "indices": 31, "mode": 4, "material": 13}, {"attributes": {"POSITION": 32, "TEXCOORD_0": 33, "NORMAL": 34}, "indices": 35, "mode": 4, "material": 15}, {"attributes": {"POSITION": 36, "TEXCOORD_0": 37, "NORMAL": 38}, "indices": 39, "mode": 4, "material": 5}, {"attributes": {"POSITION": 40, "TEXCOORD_0": 41, "NORMAL": 42}, "indices": 43, "mode": 4, "material": 6}, {"attributes": {"POSITION": 44, "TEXCOORD_0": 45, "NORMAL": 46}, "indices": 47, "mode": 4, "material": 23}, {"attributes": {"POSITION": 48, "TEXCOORD_0": 49, "NORMAL": 50}, "indices": 51, "mode": 4, "material": 24}, {"attributes": {"POSITION": 52, "TEXCOORD_0": 53, "NORMAL": 54}, "indices": 55, "mode": 4, "material": 25}, {"attributes": {"POSITION": 56, "TEXCOORD_0": 57, "NORMAL": 58}, "indices": 59, "mode": 4, "material": 18}, {"attributes": {"POSITION": 60, "TEXCOORD_0": 61, "NORMAL": 62}, "indices": 63, "mode": 4, "material": 0}, {"attributes": {"POSITION": 64, "TEXCOORD_0": 65, "NORMAL": 66}, "indices": 67, "mode": 4, "material": 4}, {"attributes": {"POSITION": 68, "TEXCOORD_0": 69, "NORMAL": 70}, "indices": 71, "mode": 4, "material": 22}, {"attributes": {"POSITION": 72, "TEXCOORD_0": 73, "NORMAL": 74}, "indices": 75, "mode": 4, "material": 12}, {"attributes": {"POSITION": 76, "TEXCOORD_0": 77, "NORMAL": 78}, "indices": 79, "mode": 4, "material": 16}, {"attributes": {"POSITION": 80, "TEXCOORD_0": 81, "NORMAL": 82}, "indices": 83, "mode": 4, "material": 1}, {"attributes": {"POSITION": 84, "TEXCOORD_0": 85, "NORMAL": 86}, "indices": 87, "mode": 4, "material": 11}, {"attributes": {"POSITION": 88, "TEXCOORD_0": 89, "NORMAL": 90}, "indices": 91, "mode": 4, "material": 9}, {"attributes": {"POSITION": 92, "TEXCOORD_0": 93, "NORMAL": 94}, "indices": 95, "mode": 4, "material": 10}, {"attributes": {"POSITION": 96, "TEXCOORD_0": 97, "NORMAL": 98}, "indices": 99, "mode": 4, "material": 8}, {"attributes": {"POSITION": 100, "TEXCOORD_0": 101, "NORMAL": 102}, "indices": 103, "mode": 4, "material": 2}, {"attributes": {"POSITION": 104, "TEXCOORD_0": 105, "NORMAL": 106}, "indices": 107, "mode": 4, "material": 19}]}], "materials": [{"name": "bg_r_ry00_dw1", "pbrMetallicRoughness": {"baseColorFactor": [1.0, 1.0, 1.0, 1.0], "metallicFactor": 0.0, "roughnessFactor": 1.0}, "alphaMode": "OPAQUE", "doubleSided": true}, {"name": "lambert113", "pbrMetallicRoughness": {"baseColorFactor": [0.803921568627451, 0.803921568627451, 0.803921568627451, 0.41935483870967744], "metallicFactor": 0.0, "roughnessFactor": 1.0}, "alphaMode": "BLEND", "doubleSided": true}, {"name": "r_zakka_c00", "pbrMetallicRoughness": {"baseColorFactor": [1.0, 1.0, 1.0, 1.0], "metallicFactor": 0.0, "roughnessFactor": 1.0}, "alphaMode": "OPAQUE", "doubleSided": true}, {"name": "r_zakka_door0", "pbrMetallicRoughness": {"baseColorFactor": [1.0, 1.0, 1.0, 1.0], "metallicFactor": 0.0, "roughnessFactor": 1.0}, "alphaMode": "OPAQUE", "doubleSided": true}, {"name": "r_zakka_ere00", "pbrMetallicRoughness": {"baseColorFactor": [1.0, 1.0, 1.0, 1.0], "metallicFactor": 0.0, "roughnessFactor": 1.0}, "alphaMode": "OPAQUE", "doubleSided": true}, {"name": "r_zakka_f00", "pbrMetallicRoughness": {"baseColorFactor": [1.0, 1.0, 1.0, 1.0], "metallicFactor": 0.0, "roughnessFactor": 1.0}, "alphaMode": "OPAQUE", "doubleSided": true}, {"name": "r_zakka_f02", "pbrMetallicRoughness": {"baseColorFactor": [1.0, 1.0, 1.0, 1.0], "metallicFactor": 0.0, "roughnessFactor": 1.0}, "alphaMode": "OPAQUE", "doubleSided": true}, {"name": "r_zakka_f03", "pbrMetallicRoughness": {"baseColorFactor": [1.0, 1.0, 1.0, 1.0], "metallicFactor": 0.0, "roughnessFactor": 1.0}, "alphaMode": "OPAQUE", "doubleSided": true}, {"name": "r_zakka_flo00", "pbrMetallicRoughness": {"baseColorFactor": [1.0, 1.0, 1.0, 1.0], "metallicFactor": 0.0, "roughnessFactor": 1.0}, "alphaMode": "OPAQUE", "doubleSided": true}, {"name": "r_zakka_flo01", "pbrMetallicRoughness": {"baseColorFactor": [1.0, 1.0, 1.0, 1.0], "metallicFactor": 0.0, "roughnessFactor": 1.0}, "alphaMode": "OPAQUE", "doubleSided": true}, {"name": "r_zakka_flo02", "pbrMetallicRoughness": {"baseColorFactor": [1.0, 1.0, 1.0, 1.0], "metallicFactor": 0.0, "roughnessFactor": 1.0}, "alphaMode": "OPAQUE", "doubleSided": true}, {"name": "r_zakka_flo03", "pbrMetallicRoughness": {"baseColorFactor": [1.0, 1.0, 1.0, 1.0], "metallicFactor": 0.0, "roughnessFactor": 1.0}, "alphaMode": "OPAQUE", "doubleSided": true}, {"name": "r_zakka_hasi", "pbrMetallicRoughness": {"baseColorFactor": [1.0, 1.0, 1.0, 1.0], "metallicFactor": 0.0, "roughnessFactor": 1.0}, "alphaMode": "OPAQUE", "doubleSided": true}, {"name": "r_zakka_hasi0", "pbrMetallicRoughness": {"baseColorFactor": [1.0, 1.0, 1.0, 1.0], "metallicFactor": 0.0, "roughnessFactor": 1.0}, "alphaMode": "OPAQUE", "doubleSided": true}, {"name": "r_zakka_hasi1", "pbrMetallicRoughness": {"baseColorFactor": [1.0, 1.0, 1.0, 1.0], "metallicFactor": 0.0, "roughnessFactor": 1.0}, "alphaMode": "OPAQUE", "doubleSided": true}, {"name": "r_zakka_hasi2", "pbrMetallicRoughness": {"baseColorFactor": [1.0, 1.0, 1.0, 1.0], "metallicFactor": 0.0, "roughnessFactor": 1.0}, "alphaMode": "OPAQUE", "doubleSided": true}, {"name": "r_zakka_ka00", "pbrMetallicRoughness": {"baseColorFactor": [1.0, 1.0, 1.0, 1.0], "metallicFactor": 0.0, "roughnessFactor": 1.0}, "alphaMode": "OPAQUE", "doubleSided": true}, {"name": "r_zakka_lt00", "pbrMetallicRoughness": {"baseColorFactor": [1.0, 1.0, 1.0, 1.0], "metallicFactor": 0.0, "roughnessFactor": 1.0}, "alphaMode": "OPAQUE", "doubleSided": true}, {"name": "r_zakka_ltef0", "pbrMetallicRoughness": {"baseColorFactor": [1.0, 1.0, 1.0, 0.6774193548387096], "metallicFactor": 0.0, "roughnessFactor": 1.0}, "alphaMode": "BLEND", "doubleSided": true}, {"name": "r_zakka_r00", "pbrMetallicRoughness": {"baseColorFactor": [1.0, 1.0, 1.0, 1.0], "metallicFactor": 0.0, "roughnessFactor": 1.0}, "alphaMode": "OPAQUE", "doubleSided": true}, {"name": "r_zakka_r01", "pbrMetallicRoughness": {"baseColorFactor": [1.0, 1.0, 1.0, 1.0], "metallicFactor": 0.0, "roughnessFactor": 1.0}, "alphaMode": "OPAQUE", "doubleSided": true}, {"name": "r_zakka_sak00", "pbrMetallicRoughness": {"baseColorFactor": [1.0, 1.0, 1.0, 1.0], "metallicFactor": 0.0, "roughnessFactor": 1.0}, "alphaMode": "OPAQUE", "doubleSided": true}, {"name": "r_zakka_t00", "pbrMetallicRoughness": {"baseColorFactor": [1.0, 1.0, 1.0, 1.0], "metallicFactor": 0.0, "roughnessFactor": 1.0}, "alphaMode": "OPAQUE", "doubleSided": true}, {"name": "r_zakka_ten00", "pbrMetallicRoughness": {"baseColorFactor": [1.0, 1.0, 1.0, 1.0], "metallicFactor": 0.0, "roughnessFactor": 1.0}, "alphaMode": "OPAQUE", "doubleSided": true}, {"name": "r_zakka_ten01", "pbrMetallicRoughness": {"baseColorFactor": [1.0, 1.0, 1.0, 1.0], "metallicFactor": 0.0, "roughnessFactor": 1.0}, "alphaMode": "OPAQUE", "doubleSided": true}, {"name": "r_zakka_w00", "pbrMetallicRoughness": {"baseColorFactor": [1.0, 1.0, 1.0, 1.0], "metallicFactor": 0.0, "roughnessFactor": 1.0}, "alphaMode": "OPAQUE", "doubleSided": true}, {"name": "r_zakka_w01", "pbrMetallicRoughness": {"baseColorFactor": [1.0, 1.0, 1.0, 1.0], "metallicFactor": 0.0, "roughnessFactor": 1.0}, "alphaMode": "OPAQUE", "doubleSided": true}], "buffers": [{"byteLength": 62060, "uri": "data:application/octet-stream;base64,"}], "bufferViews": [{"buffer": 0, "byteOffset": 0, "byteLength": 576}, {"buffer": 0, "byteOffset": 576, "byteLength": 384}, {"buffer": 0, "byteOffset": 960, "byteLength": 576}, {"buffer": 0, "byteOffset": 1536, "byteLength": 180}, {"buffer": 0, "byteOffset": 1716, "byteLength": 144}, {"buffer": 0, "byteOffset": 1860, "byteLength": 96}, {"buffer": 0, "byteOffset": 1956, "byteLength": 144}, {"buffer": 0, "byteOffset": 2100, "byteLength": 48}, {"buffer": 0, "byteOffset": 2148, "byteLength": 432}, {"buffer": 0, "byteOffset": 2580, "byteLength": 288}, {"buffer": 0, "byteOffset": 2868, "byteLength": 432}, {"buffer": 0, "byteOffset": 3300, "byteLength": 120}, {"buffer": 0, "byteOffset": 3420, "byteLength": 48}, {"buffer": 0, "byteOffset": 3468, "byteLength": 32}, {"buffer": 0, "byteOffset": 3500, "byteLength": 48}, {"buffer": 0, "byteOffset": 3548, "byteLength": 12}, {"buffer": 0, "byteOffset": 3560, "byteLength": 192}, {"buffer": 0, "byteOffset": 3752, "byteLength": 128}, {"buffer": 0, "byteOffset": 3880, "byteLength": 192}, {"buffer": 0, "byteOffset": 4072, "byteLength": 48}, {"buffer": 0, "byteOffset": 4120, "byteLength": 2328}, {"buffer": 0, "byteOffset": 6448, "byteLength": 1552}, {"buffer": 0, "byteOffset": 8000, "byteLength": 2328}, {"buffer": 0, "byteOffset": 10328, "byteLength": 696}, {"buffer": 0, "byteOffset": 11024, "byteLength": 576}, {"buffer": 0, "byteOffset": 11600, "byteLength": 384}, {"buffer": 0, "byteOffset": 11984, "byteLength": 576}, {"buffer": 0, "byteOffset": 12560, "byteLength": 192}, {"buffer": 0, "byteOffset": 12752, "byteLength": 2040}, {"buffer": 0, "byteOffset": 14792, "byteLength": 1360}, {"buffer": 0, "byteOffset": 16152, "byteLength": 2040}, {"buffer": 0, "byteOffset": 18192, "byteLength": 672}, {"buffer": 0, "byteOffset": 18864, "byteLength": 816}, {"buffer": 0, "byteOffset": 19680, "byteLength": 544}, {"buffer": 0, "byteOffset": 20224, "byteLength": 816}, {"buffer": 0, "byteOffset": 21040, "byteLength": 312}, {"buffer": 0, "byteOffset": 21352, "byteLength": 312}, {"buffer": 0, "byteOffset": 21664, "byteLength": 208}, {"buffer": 0, "byteOffset": 21872, "byteLength": 312}, {"buffer": 0, "byteOffset": 22184, "byteLength": 96}, {"buffer": 0, "byteOffset": 22280, "byteLength": 72}, {"buffer": 0, "byteOffset": 22352, "byteLength": 48}, {"buffer": 0, "byteOffset": 22400, "byteLength": 72}, {"buffer": 0, "byteOffset": 22472, "byteLength": 24}, {"buffer": 0, "byteOffset": 22496, "byteLength": 216}, {"buffer": 0, "byteOffset": 22712, "byteLength": 144}, {"buffer": 0, "byteOffset": 22856, "byteLength": 216}, {"buffer": 0, "byteOffset": 23072, "byteLength": 96}, {"buffer": 0, "byteOffset": 23168, "byteLength": 168}, {"buffer": 0, "byteOffset": 23336, "byteLength": 112}, {"buffer": 0, "byteOffset": 23448, "byteLength": 168}, {"buffer": 0, "byteOffset": 23616, "byteLength": 48}, {"buffer": 0, "byteOffset": 23664, "byteLength": 1224}, {"buffer": 0, "byteOffset": 24888, "byteLength": 816}, {"buffer": 0, "byteOffset": 25704, "byteLength": 1224}, {"buffer": 0, "byteOffset": 26928, "byteLength": 336}, {"buffer": 0, "byteOffset": 27264, "byteLength": 192}, {"buffer": 0, "byteOffset": 27456, "byteLength": 128}, {"buffer": 0, "byteOffset": 27584, "byteLength": 192}, {"buffer": 0, "byteOffset": 27776, "byteLength": 48}, {"buffer": 0, "byteOffset": 27824, "byteLength": 1272}, {"buffer": 0, "byteOffset": 29096, "byteLength": 848}, {"buffer": 0, "byteOffset": 29944, "byteLength": 1272}, {"buffer": 0, "byteOffset": 31216, "byteLength": 432}, {"buffer": 0, "byteOffset": 31648, "byteLength": 1728}, {"buffer": 0, "byteOffset": 33376, "byteLength": 1152}, {"buffer": 0, "byteOffset": 34528, "byteLength": 1728}, {"buffer": 0, "byteOffset": 36256, "byteLength": 600}, {"buffer": 0, "byteOffset": 36856, "byteLength": 1632}, {"buffer": 0, "byteOffset": 38488, "byteLength": 1088}, {"buffer": 0, "byteOffset": 39576, "byteLength": 1632}, {"buffer": 0, "byteOffset": 41208, "byteLength": 480}, {"buffer": 0, "byteOffset": 41688, "byteLength": 1008}, {"buffer": 0, "byteOffset": 42696, "byteLength": 672}, {"buffer": 0, "byteOffset": 43368, "byteLength": 1008}, {"buffer": 0, "byteOffset": 44376, "byteLength": 336}, {"buffer": 0, "byteOffset": 44712, "byteLength": 3072}, {"buffer": 0, "byteOffset": 47784, "byteLength": 2048}, {"buffer": 0, "byteOffset": 49832, "byteLength": 3072}, {"buffer": 0, "byteOffset": 52904, "byteLength": 1008}, {"buffer": 0, "byteOffset": 53912, "byteLength": 504}, {"buffer": 0, "byteOffset": 54416, "byteLength": 336}, {"buffer": 0, "byteOffset": 54752, "byteLength": 504}, {"buffer": 0, "byteOffset": 55256, "byteLength": 168}, {"buffer": 0, "byteOffset": 55424, "byteLength": 372}, {"buffer": 0, "byteOffset": 55796, "byteLength": 248}, {"buffer": 0, "byteOffset": 56044, "byteLength": 372}, {"buffer": 0, "byteOffset": 56416, "byteLength": 126}, {"buffer": 0, "byteOffset": 56544, "byteLength": 48}, {"buffer": 0, "byteOffset": 56592, "byteLength": 32}, {"buffer": 0, "byteOffset": 56624, "byteLength": 48}, {"buffer": 0, "byteOffset": 56672, "byteLength": 12}, {"buffer": 0, "byteOffset": 56684, "byteLength": 48}, {"buffer": 0, "byteOffset": 56732, "byteLength": 32}, {"buffer": 0, "byteOffset": 56764, "byteLength": 48}, {"buffer": 0, "byteOffset": 56812, "byteLength": 12}, {"buffer": 0, "byteOffset": 56824, "byteLength": 48}, {"buffer": 0, "byteOffset": 56872, "byteLength": 32}, {"buffer": 0, "byteOffset": 56904, "byteLength": 48}, {"buffer": 0, "byteOffset": 56952, "byteLength": 12}, {"buffer": 0, "byteOffset": 56964, "byteLength": 1128}, {"buffer": 0, "byteOffset": 58092, "byteLength": 752}, {"buffer": 0, "byteOffset": 58844, "byteLength": 1128}, {"buffer": 0, "byteOffset": 59972, "byteLength": 372}, {"buffer": 0, "byteOffset": 60344, "byteLength": 576}, {"buffer": 0, "byteOffset": 60920, "byteLength": 384}, {"buffer": 0, "byteOffset": 61304, "byteLength": 576}, {"buffer": 0, "byteOffset": 61880, "byteLength": 180}], "accessors": [{"bufferView": 0, "byteOffset": 0, "componentType": 5126, "count": 48, "type": "VEC3", "min": [2.054931640625, 0.25, 5.377197265625], "max": [2.177978515625, 0.324951171875, 5.584716796875]}, {"bufferView": 1, "byteOffset": 0, "componentType": 5126, "count": 48, "type": "VEC2"}, {"bufferView": 2, "byteOffset": 0, "componentType": 5126, "count": 48, "type": "VEC3"}, {"bufferView": 3, "byteOffset": 0, "componentType": 5123, "count": 90, "type": "SCALAR"}, {"bufferView": 4, "byteOffset": 0, "componentType": 5126, "count": 12, "type": "VEC3", "min": [1.75, 0.0, 0.25], "max": [3.0, 1.985107421875, 2.25]}, {"bufferView": 5, "byteOffset": 0, "componentType": 5126, "count": 12, "type": "VEC2"}, {"bufferView": 6, "byteOffset": 0, "componentType": 5126, "count": 12, "type": "VEC3"}, {"bufferView": 7, "byteOffset": 0, "componentType": 5123, "count": 24, "type": "SCALAR"}, {"bufferView": 8, "byteOffset": 0, "componentType": 5126, "count": 36, "type": "VEC3", "min": [1.77490234375, 0.0, 0.27490234375], "max": [2.97509765625, 3.25, 2.02490234375]}, {"bufferView": 9, "byteOffset": 0, "componentType": 5126, "count": 36, "type": "VEC2"}, {"bufferView": 10, "byteOffset": 0, "componentType": 5126, "count": 36, "type": "VEC3"}, {"bufferView": 11, "byteOffset": 0, "componentType": 5123, "count": 60, "type": "SCALAR"}, {"bufferView": 12, "byteOffset": 0, "componentType": 5126, "count": 4, "type": "VEC3", "min": [0.25, 1.9853515625, 1.625], "max": [4.5, 2.375, 1.625]}, {"bufferView": 13, "byteOffset": 0, "componentType": 5126, "count": 4, "type": "VEC2"}, {"bufferView": 14, "byteOffset": 0, "componentType": 5126, "count": 4, "type": "VEC3"}, {"bufferView": 15, "byteOffset": 0, "componentType": 5123, "count": 6, "type": "SCALAR"}, {"bufferView": 16, "byteOffset": 0, "componentType": 5126, "count": 16, "type": "VEC3", "min": [0.710205078125, 0.660400390625, 2.550048828125], "max": [4.039794921875, 0.98974609375, 2.550048828125]}, {"bufferView": 17, "byteOffset": 0, "componentType": 5126, "count": 16, "type": "VEC2"}, {"bufferView": 18, "byteOffset": 0, "componentType": 5126, "count": 16, "type": "VEC3"}, {"bufferView": 19, "byteOffset": 0, "componentType": 5123, "count": 24, "type": "SCALAR"}, {"bufferView": 20, "byteOffset": 0, "componentType": 5126, "count": 194, "type": "VEC3", "min": [0.25, 0.0, 0.22509765625], "max": [4.5, 3.5, 6.75]}, {"bufferView": 21, "byteOffset": 0, "componentType": 5126, "count": 194, "type": "VEC2"}, {"bufferView": 22, "byteOffset": 0, "componentType": 5126, "count": 194, "type": "VEC3"}, {"bufferView": 23, "byteOffset": 0, "componentType": 5123, "count": 348, "type": "SCALAR"}, {"bufferView": 24, "byteOffset": 0, "componentType": 5126, "count": 48, "type": "VEC3", "min": [1.75, 0.074951171875, 0.22509765625], "max": [3.0, 2.625, 2.25]}, {"bufferView": 25, "byteOffset": 0, "componentType": 5126, "count": 48, "type": "VEC2"}, {"bufferView": 26, "byteOffset": 0, "componentType": 5126, "count": 48, "type": "VEC3"}, {"bufferView": 27, "byteOffset": 0, "componentType": 5123, "count": 96, "type": "SCALAR"}, {"bufferView": 28, "byteOffset": 0, "componentType": 5126, "count": 170, "type": "VEC3", "min": [1.75, 0.625, 0.22509765625], "max": [3.0, 3.024658203125, 2.25]}, {"bufferView": 29, "byteOffset": 0, "componentType": 5126, "count": 170, "type": "VEC2"}, {"bufferView": 30, "byteOffset": 0, "componentType": 5126, "count": 170, "type": "VEC3"}, {"bufferView": 31, "byteOffset": 0, "componentType": 5123, "count": 336, "type": "SCALAR"}, {"bufferView": 32, "byteOffset": 0, "componentType": 5126, "count": 68, "type": "VEC3", "min": [1.75, 0.875, 0.25], "max": [3.0, 3.25, 2.25]}, {"bufferView": 33, "byteOffset": 0, "componentType": 5126, "count": 68, "type": "VEC2"}, {"bufferView": 34, "byteOffset": 0, "componentType": 5126, "count": 68, "type": "VEC3"}, {"bufferView": 35, "byteOffset": 0, "componentType": 5123, "count": 156, "type": "SCALAR"}, {"bufferView": 36, "byteOffset": 0, "componentType": 5126, "count": 26, "type": "VEC3", "min": [0.25, 0.0, -0.125], "max": [4.5, 1.985107421875, 6.75]}, {"bufferView": 37, "byteOffset": 0, "componentType": 5126, "count": 26, "type": "VEC2"}, {"bufferView": 38, "byteOffset": 0, "componentType": 5126, "count": 26, "type": "VEC3"}, {"bufferView": 39, "byteOffset": 0, "componentType": 5123, "count": 48, "type": "SCALAR"}, {"bufferView": 40, "byteOffset": 0, "componentType": 5126, "count": 6, "type": "VEC3", "min": [1.75, 0.0, 6.75], "max": [3.0, 0.0, 7.25]}, {"bufferView": 41, "byteOffset": 0, "componentType": 5126, "count": 6, "type": "VEC2"}, {"bufferView": 42, "byteOffset": 0, "componentType": 5126, "count": 6, "type": "VEC3"}, {"bufferView": 43, "byteOffset": 0, "componentType": 5123, "count": 12, "type": "SCALAR"}, {"bufferView": 44, "byteOffset": 0, "componentType": 5126, "count": 18, "type": "VEC3", "min": [0.25, 3.5, 0.5], "max": [4.5, 5.28857421875, 5.0]}, {"bufferView": 45, "byteOffset": 0, "componentType": 5126, "count": 18, "type": "VEC2"}, {"bufferView": 46, "byteOffset": 0, "componentType": 5126, "count": 18, "type": "VEC3"}, {"bufferView": 47, "byteOffset": 0, "componentType": 5123, "count": 48, "type": "SCALAR"}, {"bufferView": 48, "byteOffset": 0, "componentType": 5126, "count": 14, "type": "VEC3", "min": [0.25, 3.5, 0.5], "max": [4.5, 5.28857421875, 0.5]}, {"bufferView": 49, "byteOffset": 0, "componentType": 5126, "count": 14, "type": "VEC2"}, {"bufferView": 50, "byteOffset": 0, "componentType": 5126, "count": 14, "type": "VEC3"}, {"bufferView": 51, "byteOffset": 0, "componentType": 5123, "count": 24, "type": "SCALAR"}, {"bufferView": 52, "byteOffset": 0, "componentType": 5126, "count": 102, "type": "VEC3", "min": [0.25, 0.0, -0.125], "max": [4.5, 3.25, 6.75]}, {"bufferView": 53, "byteOffset": 0, "componentType": 5126, "count": 102, "type": "VEC2"}, {"bufferView": 54, "byteOffset": 0, "componentType": 5126, "count": 102, "type": "VEC3"}, {"bufferView": 55, "byteOffset": 0, "componentType": 5123, "count": 168, "type": "SCALAR"}, {"bufferView": 56, "byteOffset": 0, "componentType": 5126, "count": 16, "type": "VEC3", "min": [0.617919921875, 0.789306640625, 2.52490234375], "max": [4.132080078125, 1.084716796875, 2.52490234375]}, {"bufferView": 57, "byteOffset": 0, "componentType": 5126, "count": 16, "type": "VEC2"}, {"bufferView": 58, "byteOffset": 0, "componentType": 5126, "count": 16, "type": "VEC3"}, {"bufferView": 59, "byteOffset": 0, "componentType": 5123, "count": 24, "type": "SCALAR"}, {"bufferView": 60, "byteOffset": 0, "componentType": 5126, "count": 106, "type": "VEC3", "min": [0.89990234375, 1.9833984375, 0.72509765625], "max": [3.85009765625, 2.850341796875, 0.800048828125]}, {"bufferView": 61, "byteOffset": 0, "componentType": 5126, "count": 106, "type": "VEC2"}, {"bufferView": 62, "byteOffset": 0, "componentType": 5126, "count": 106, "type": "VEC3"}, {"bufferView": 63, "byteOffset": 0, "componentType": 5123, "count": 216, "type": "SCALAR"}, {"bufferView": 64, "byteOffset": 0, "componentType": 5126, "count": 144, "type": "VEC3", "min": [1.89990234375, 0.0, 0.24658203125], "max": [2.699951171875, 3.0771484375, 2.080322265625]}, {"bufferView": 65, "byteOffset": 0, "componentType": 5126, "count": 144, "type": "VEC2"}, {"bufferView": 66, "byteOffset": 0, "componentType": 5126, "count": 144, "type": "VEC3"}, {"bufferView": 67, "byteOffset": 0, "componentType": 5123, "count": 300, "type": "SCALAR"}, {"bufferView": 68, "byteOffset": 0, "componentType": 5126, "count": 136, "type": "VEC3", "min": [0.75, 0.0, 3.0], "max": [4.0, 0.1875, 5.740966796875]}, {"bufferView": 69, "byteOffset": 0, "componentType": 5126, "count": 136, "type": "VEC2"}, {"bufferView": 70, "byteOffset": 0, "componentType": 5126, "count": 136, "type": "VEC3"}, {"bufferView": 71, "byteOffset": 0, "componentType": 5123, "count": 240, "type": "SCALAR"}, {"bufferView": 72, "byteOffset": 0, "componentType": 5126, "count": 84, "type": "VEC3", "min": [-0.074951171875, 0.0, 0.750244140625], "max": [4.824951171875, 3.5, 7.0]}, {"bufferView": 73, "byteOffset": 0, "componentType": 5126, "count": 84, "type": "VEC2"}, {"bufferView": 74, "byteOffset": 0, "componentType": 5126, "count": 84, "type": "VEC3"}, {"bufferView": 75, "byteOffset": 0, "componentType": 5123, "count": 168, "type": "SCALAR"}, {"bufferView": 76, "byteOffset": 0, "componentType": 5126, "count": 256, "type": "VEC3", "min": [0.25, 0.27490234375, 2.75], "max": [4.5, 1.27490234375, 6.75]}, {"bufferView": 77, "byteOffset": 0, "componentType": 5126, "count": 256, "type": "VEC2"}, {"bufferView": 78, "byteOffset": 0, "componentType": 5126, "count": 256, "type": "VEC3"}, {"bufferView": 79, "byteOffset": 0, "componentType": 5123, "count": 504, "type": "SCALAR"}, {"bufferView": 80, "byteOffset": 0, "componentType": 5126, "count": 42, "type": "VEC3", "min": [0.60009765625, 0.007568359375, 2.89990234375], "max": [4.14990234375, 0.007568359375, 5.851318359375]}, {"bufferView": 81, "byteOffset": 0, "componentType": 5126, "count": 42, "type": "VEC2"}, {"bufferView": 82, "byteOffset": 0, "componentType": 5126, "count": 42, "type": "VEC3"}, {"bufferView": 83, "byteOffset": 0, "componentType": 5123, "count": 84, "type": "SCALAR"}, {"bufferView": 84, "byteOffset": 0, "componentType": 5126, "count": 31, "type": "VEC3", "min": [2.5703125, 0.1875, 5.583251953125], "max": [2.716552734375, 0.325439453125, 5.646484375]}, {"bufferView": 85, "byteOffset": 0, "componentType": 5126, "count": 31, "type": "VEC2"}, {"bufferView": 86, "byteOffset": 0, "componentType": 5126, "count": 31, "type": "VEC3"}, {"bufferView": 87, "byteOffset": 0, "componentType": 5123, "count": 63, "type": "SCALAR"}, {"bufferView": 88, "byteOffset": 0, "componentType": 5126, "count": 4, "type": "VEC3", "min": [2.535888671875, 0.437255859375, 5.581787109375], "max": [2.7509765625, 0.548583984375, 5.617431640625]}, {"bufferView": 89, "byteOffset": 0, "componentType": 5126, "count": 4, "type": "VEC2"}, {"bufferView": 90, "byteOffset": 0, "componentType": 5126, "count": 4, "type": "VEC3"}, {"bufferView": 91, "byteOffset": 0, "componentType": 5123, "count": 6, "type": "SCALAR"}, {"bufferView": 92, "byteOffset": 0, "componentType": 5126, "count": 4, "type": "VEC3", "min": [2.5185546875, 0.336181640625, 5.654052734375], "max": [2.7685546875, 0.44970703125, 5.6904296875]}, {"bufferView": 93, "byteOffset": 0, "componentType": 5126, "count": 4, "type": "VEC2"}, {"bufferView": 94, "byteOffset": 0, "componentType": 5126, "count": 4, "type": "VEC3"}, {"bufferView": 95, "byteOffset": 0, "componentType": 5123, "count": 6, "type": "SCALAR"}, {"bufferView": 96, "byteOffset": 0, "componentType": 5126, "count": 4, "type": "VEC3", "min": [2.5185546875, 0.2890625, 5.576904296875], "max": [2.7685546875, 0.493408203125, 5.6533203125]}, {"bufferView": 97, "byteOffset": 0, "componentType": 5126, "count": 4, "type": "VEC2"}, {"bufferView": 98, "byteOffset": 0, "componentType": 5126, "count": 4, "type": "VEC3"}, {"bufferView": 99, "byteOffset": 0, "componentType": 5123, "count": 6, "type": "SCALAR"}, {"bufferView": 100, "byteOffset": 0, "componentType": 5126, "count": 94, "type": "VEC3", "min": [1.994873046875, 0.0, 5.355224609375], "max": [2.750244140625, 0.1875, 5.756103515625]}, {"bufferView": 101, "byteOffset": 0, "componentType": 5126, "count": 94, "type": "VEC2"}, {"bufferView": 102, "byteOffset": 0, "componentType": 5126, "count": 94, "type": "VEC3"}, {"bufferView": 103, "byteOffset": 0, "componentType": 5123, "count": 186, "type": "SCALAR"}, {"bufferView": 104, "byteOffset": 0, "componentType": 5126, "count": 48, "type": "VEC3", "min": [2.00537109375, 0.1875, 5.371337890625], "max": [2.20263671875, 0.437255859375, 5.590576171875]}, {"bufferView": 105, "byteOffset": 0, "componentType": 5126, "count": 48, "type": "VEC2"}, {"bufferView": 106, "byteOffset": 0, "componentType": 5126, "count": 48, "type": "VEC3"}, {"bufferView": 107, "byteOffset": 0, "componentType": 5123, "count": 90, "type": "SCALAR"}], "samplers": [{"magFilter": 9729, "minFilter": 9729, "wrapS": 10497, "wrapT": 10497}]}