{"asset": {"version": "2.0", "generator": "tongari-nsbmd-to-gltf"}, "scene": 0, "scenes": [{"nodes": [0, 5]}], "nodes": [{"name": "ucc_mis_ht0", "translation": [0.0, 0.0, 0.0], "children": [1, 2, 3, 4]}, {"name": "sara014", "translation": [0.0, 0.0, 0.0]}, {"name": "sp0_fry_body", "translation": [0.0, 0.17236328125, 0.0]}, {"name": "topping22", "translation": [-0.004638671875, 0.11962890625, 0.011474609375]}, {"name": "topping23", "translation": [0.0048828125, 0.11962890625, -0.0322265625]}, {"mesh": 0, "name": "1157ucc_mis_ht0"}], "meshes": [{"name": "1157ucc_mis_ht0", "primitives": [{"attributes": {"POSITION": 0, "TEXCOORD_0": 1, "NORMAL": 2}, "indices": 3, "mode": 4, "material": 1}, {"attributes": {"POSITION": 4, "TEXCOORD_0": 5, "NORMAL": 6}, "indices": 7, "mode": 4, "material": 0}, {"attributes": {"POSITION": 8, "TEXCOORD_0": 9, "NORMAL": 10}, "indices": 11, "mode": 4, "material": 3}, {"attributes": {"POSITION": 12, "TEXCOORD_0": 13, "NORMAL": 14}, "indices": 15, "mode": 4, "material": 2}]}], "materials": [{"name": "ucc_hotcake00", "pbrMetallicRoughness": {"baseColorFactor": [0.803921568627451, 0.803921568627451, 0.803921568627451, 1.0], "metallicFactor": 0.0, "roughnessFactor": 1.0}, "alphaMode": "OPAQUE", "doubleSided": true}, {"name": "ucc_sara0", "pbrMetallicRoughness": {"baseColorFactor": [0.803921568627451, 0.803921568627451, 0.803921568627451, 1.0], "metallicFactor": 0.0, "roughnessFactor": 1.0}, "alphaMode": "OPAQUE", "doubleSided": true}, {"name": "ucc_top00", "pbrMetallicRoughness": {"baseColorFactor": [0.803921568627451, 0.803921568627451, 0.803921568627451, 1.0], "metallicFactor": 0.0, "roughnessFactor": 1.0}, "alphaMode": "OPAQUE", "doubleSided": true}, {"name": "ucc_top01", "pbrMetallicRoughness": {"baseColorFactor": [0.803921568627451, 0.803921568627451, 0.803921568627451, 1.0], "metallicFactor": 0.0, "roughnessFactor": 1.0}, "alphaMode": "OPAQUE", "doubleSided": true}], "buffers": [{"byteLength": 2328, "uri": "data:application/octet-stream;base64,"}], "bufferViews": [{"buffer": 0, "byteOffset": 0, "byteLength": 168}, {"buffer": 0, "byteOffset": 168, "byteLength": 112}, {"buffer": 0, "byteOffset": 280, "byteLength": 168}, {"buffer": 0, "byteOffset": 448, "byteLength": 48}, {"buffer": 0, "byteOffset": 496, "byteLength": 528}, {"buffer": 0, "byteOffset": 1024, "byteLength": 352}, {"buffer": 0, "byteOffset": 1376, "byteLength": 528}, {"buffer": 0, "byteOffset": 1904, "byteLength": 144}, {"buffer": 0, "byteOffset": 2048, "byteLength": 48}, {"buffer": 0, "byteOffset": 2096, "byteLength": 32}, {"buffer": 0, "byteOffset": 2128, "byteLength": 48}, {"buffer": 0, "byteOffset": 2176, "byteLength": 12}, {"buffer": 0, "byteOffset": 2188, "byteLength": 48}, {"buffer": 0, "byteOffset": 2236, "byteLength": 32}, {"buffer": 0, "byteOffset": 2268, "byteLength": 48}, {"buffer": 0, "byteOffset": 2316, "byteLength": 12}], "accessors": [{"bufferView": 0, "byteOffset": 0, "componentType": 5126, "count": 14, "type": "VEC3", "min": [-0.450439453125, 0.034423828125, -0.449462890625], "max": [0.450439453125, 0.14501953125, 0.451416015625]}, {"bufferView": 1, "byteOffset": 0, "componentType": 5126, "count": 14, "type": "VEC2"}, {"bufferView": 2, "byteOffset": 0, "componentType": 5126, "count": 14, "type": "VEC3"}, {"bufferView": 3, "byteOffset": 0, "componentType": 5123, "count": 24, "type": "SCALAR"}, {"bufferView": 4, "byteOffset": 0, "componentType": 5126, "count": 44, "type": "VEC3", "min": [-0.3095703125, -0.03564453125, -0.3095703125], "max": [0.3095703125, 0.060546875, 0.3095703125]}, {"bufferView": 5, "byteOffset": 0, "componentType": 5126, "count": 44, "type": "VEC2"}, {"bufferView": 6, "byteOffset": 0, "componentType": 5126, "count": 44, "type": "VEC3"}, {"bufferView": 7, "byteOffset": 0, "componentType": 5123, "count": 72, "type": "SCALAR"}, {"bufferView": 8, "byteOffset": 0, "componentType": 5126, "count": 4, "type": "VEC3", "min": [-0.035888671875, -0.035888671875, 0.0], "max": [0.035888671875, 0.035888671875, 0.0]}, {"bufferView": 9, "byteOffset": 0, "componentType": 5126, "count": 4, "type": "VEC2"}, {"bufferView": 10, "byteOffset": 0, "componentType": 5126, "count": 4, "type": "VEC3"}, {"bufferView": 11, "byteOffset": 0, "componentType": 5123, "count": 6, "type": "SCALAR"}, {"bufferView": 12, "byteOffset": 0, "componentType": 5126, "count": 4, "type": "VEC3", "min": [-0.03662109375, -0.03662109375, 0.0], "max": [0.03662109375, 0.03662109375, 0.0]}, {"bufferView": 13, "byteOffset": 0, "componentType": 5126, "count": 4, "type": "VEC2"}, {"bufferView": 14, "byteOffset": 0, "componentType": 5126, "count": 4, "type": "VEC3"}, {"bufferView": 15, "byteOffset": 0, "componentType": 5123, "count": 6, "type": "SCALAR"}], "samplers": [{"magFilter": 9729, "minFilter": 9729, "wrapS": 10497, "wrapT": 10497}]}