{"asset": {"version": "2.0", "generator": "tongari-nsbmd-to-gltf"}, "scene": 0, "scenes": [{"nodes": [0, 6]}], "nodes": [{"name": "world_root", "translation": [0.0, 0.0, 0.0], "children": [1, 5]}, {"name": "fish00", "translation": [0.0, 0.0, 0.0], "rotation": [0.0, 0.7071067811865475, 0.0, 0.7071067811865476], "children": [2]}, {"name": "body", "translation": [0.0, -0.2412109375, 0.0], "children": [3, 4]}, {"name": "l_leg00", "translation": [0.16064453125, -0.20166015625, 0.000244140625], "rotation": [0.5, -0.5, 0.5, -0.5]}, {"name": "r_leg00", "translation": [-0.161376953125, -0.20166015625, 0.000244140625], "rotation": [0.5, -0.5, 0.5, -0.5]}, {"name": "fish59", "translation": [0.0, 0.0, 0.0]}, {"mesh": 0, "name": "4849fish59"}], "meshes": [{"name": "4849fish59", "primitives": [{"attributes": {"POSITION": 0, "TEXCOORD_0": 1, "NORMAL": 2}, "indices": 3, "mode": 4, "material": 0}]}], "materials": [{"name": "fish59", "pbrMetallicRoughness": {"baseColorFactor": [1.0, 1.0, 1.0, 1.0], "metallicFactor": 0.0, "roughnessFactor": 1.0}, "alphaMode": "OPAQUE", "doubleSided": true}], "buffers": [{"byteLength": 3320, "uri": "data:application/octet-stream;base64,"}], "bufferViews": [{"buffer": 0, "byteOffset": 0, "byteLength": 1128}, {"buffer": 0, "byteOffset": 1128, "byteLength": 752}, {"buffer": 0, "byteOffset": 1880, "byteLength": 1128}, {"buffer": 0, "byteOffset": 3008, "byteLength": 312}], "accessors": [{"bufferView": 0, "byteOffset": 0, "componentType": 5126, "count": 94, "type": "VEC3", "min": [-0.014404296875, -0.458984375, -0.231201171875], "max": [0.056884765625, 0.24169921875, 0.231201171875]}, {"bufferView": 1, "byteOffset": 0, "componentType": 5126, "count": 94, "type": "VEC2"}, {"bufferView": 2, "byteOffset": 0, "componentType": 5126, "count": 94, "type": "VEC3"}, {"bufferView": 3, "byteOffset": 0, "componentType": 5123, "count": 156, "type": "SCALAR"}], "samplers": [{"magFilter": 9729, "minFilter": 9729, "wrapS": 10497, "wrapT": 10497}]}