{"asset": {"version": "2.0", "generator": "tongari-nsbmd-to-gltf"}, "scene": 0, "scenes": [{"nodes": [0, 13]}], "nodes": [{"name": "world_root", "translation": [0.0, 0.0, 0.0], "children": [1, 2, 4, 5, 6, 7, 8, 9, 10, 11, 12]}, {"name": "jouro_0", "translation": [0.0, 0.0, 0.717041015625]}, {"name": "jouro_1", "translation": [0.0, 0.0, 0.0], "children": [3]}, {"name": "jouro_2", "translation": [0.0, 0.0, 0.583984375]}, {"name": "water1", "translation": [0.01416015625, 0.036865234375, 0.586669921875]}, {"name": "water2", "translation": [0.01416015625, -0.001708984375, 0.586669921875]}, {"name": "water3", "translation": [0.01416015625, -0.0498046875, 0.586669921875]}, {"name": "water4", "translation": [0.01416015625, 0.036865234375, 0.586669921875]}, {"name": "water5", "translation": [0.01416015625, -0.0498046875, 0.586669921875]}, {"name": "water6", "translation": [0.01416015625, -0.001708984375, 0.586669921875]}, {"name": "water7", "translation": [0.01416015625, 0.036865234375, 0.586669921875]}, {"name": "water8", "translation": [0.01416015625, -0.0498046875, 0.586669921875]}, {"name": "water9", "translation": [0.01416015625, -0.001708984375, 0.586669921875]}, {"mesh": 0, "name": "05_04_stick"}], "meshes": [{"name": "05_04_stick", "primitives": [{"attributes": {"POSITION": 0, "TEXCOORD_0": 1, "NORMAL": 2}, "indices": 3, "mode": 4, "material": 0}, {"attributes": {"POSITION": 4, "TEXCOORD_0": 5, "NORMAL": 6}, "indices": 7, "mode": 4, "material": 1}, {"attributes": {"POSITION": 8, "TEXCOORD_0": 9, "NORMAL": 10}, "indices": 11, "mode": 4, "material": 0}, {"attributes": {"POSITION": 12, "TEXCOORD_0": 13, "NORMAL": 14}, "indices": 15, "mode": 4, "material": 0}, {"attributes": {"POSITION": 16, "TEXCOORD_0": 17, "NORMAL": 18}, "indices": 19, "mode": 4, "material": 0}, {"attributes": {"POSITION": 20, "TEXCOORD_0": 21, "NORMAL": 22}, "indices": 23, "mode": 4, "material": 0}, {"attributes": {"POSITION": 24, "TEXCOORD_0": 25, "NORMAL": 26}, "indices": 27, "mode": 4, "material": 0}, {"attributes": {"POSITION": 28, "TEXCOORD_0": 29, "NORMAL": 30}, "indices": 31, "mode": 4, "material": 0}, {"attributes": {"POSITION": 32, "TEXCOORD_0": 33, "NORMAL": 34}, "indices": 35, "mode": 4, "material": 0}, {"attributes": {"POSITION": 36, "TEXCOORD_0": 37, "NORMAL": 38}, "indices": 39, "mode": 4, "material": 0}, {"attributes": {"POSITION": 40, "TEXCOORD_0": 41, "NORMAL": 42}, "indices": 43, "mode": 4, "material": 0}]}], "materials": [{"name": "equip04", "pbrMetallicRoughness": {"baseColorFactor": [1.0, 1.0, 1.0, 1.0], "metallicFactor": 0.0, "roughnessFactor": 1.0}, "alphaMode": "OPAQUE", "doubleSided": true}, {"name": "sbim02_05_0", "pbrMetallicRoughness": {"baseColorFactor": [1.0, 1.0, 1.0, 1.0], "metallicFactor": 0.0, "roughnessFactor": 1.0}, "alphaMode": "OPAQUE", "doubleSided": true}], "buffers": [{"byteLength": 6828, "uri": "data:application/octet-stream;base64,"}], "bufferViews": [{"buffer": 0, "byteOffset": 0, "byteLength": 264}, {"buffer": 0, "byteOffset": 264, "byteLength": 176}, {"buffer": 0, "byteOffset": 440, "byteLength": 264}, {"buffer": 0, "byteOffset": 704, "byteLength": 96}, {"buffer": 0, "byteOffset": 800, "byteLength": 1176}, {"buffer": 0, "byteOffset": 1976, "byteLength": 784}, {"buffer": 0, "byteOffset": 2760, "byteLength": 1176}, {"buffer": 0, "byteOffset": 3936, "byteLength": 372}, {"buffer": 0, "byteOffset": 4308, "byteLength": 96}, {"buffer": 0, "byteOffset": 4404, "byteLength": 64}, {"buffer": 0, "byteOffset": 4468, "byteLength": 96}, {"buffer": 0, "byteOffset": 4564, "byteLength": 24}, {"buffer": 0, "byteOffset": 4588, "byteLength": 96}, {"buffer": 0, "byteOffset": 4684, "byteLength": 64}, {"buffer": 0, "byteOffset": 4748, "byteLength": 96}, {"buffer": 0, "byteOffset": 4844, "byteLength": 24}, {"buffer": 0, "byteOffset": 4868, "byteLength": 96}, {"buffer": 0, "byteOffset": 4964, "byteLength": 64}, {"buffer": 0, "byteOffset": 5028, "byteLength": 96}, {"buffer": 0, "byteOffset": 5124, "byteLength": 24}, {"buffer": 0, "byteOffset": 5148, "byteLength": 96}, {"buffer": 0, "byteOffset": 5244, "byteLength": 64}, {"buffer": 0, "byteOffset": 5308, "byteLength": 96}, {"buffer": 0, "byteOffset": 5404, "byteLength": 24}, {"buffer": 0, "byteOffset": 5428, "byteLength": 96}, {"buffer": 0, "byteOffset": 5524, "byteLength": 64}, {"buffer": 0, "byteOffset": 5588, "byteLength": 96}, {"buffer": 0, "byteOffset": 5684, "byteLength": 24}, {"buffer": 0, "byteOffset": 5708, "byteLength": 96}, {"buffer": 0, "byteOffset": 5804, "byteLength": 64}, {"buffer": 0, "byteOffset": 5868, "byteLength": 96}, {"buffer": 0, "byteOffset": 5964, "byteLength": 24}, {"buffer": 0, "byteOffset": 5988, "byteLength": 96}, {"buffer": 0, "byteOffset": 6084, "byteLength": 64}, {"buffer": 0, "byteOffset": 6148, "byteLength": 96}, {"buffer": 0, "byteOffset": 6244, "byteLength": 24}, {"buffer": 0, "byteOffset": 6268, "byteLength": 96}, {"buffer": 0, "byteOffset": 6364, "byteLength": 64}, {"buffer": 0, "byteOffset": 6428, "byteLength": 96}, {"buffer": 0, "byteOffset": 6524, "byteLength": 24}, {"buffer": 0, "byteOffset": 6548, "byteLength": 96}, {"buffer": 0, "byteOffset": 6644, "byteLength": 64}, {"buffer": 0, "byteOffset": 6708, "byteLength": 96}, {"buffer": 0, "byteOffset": 6804, "byteLength": 24}], "accessors": [{"bufferView": 0, "byteOffset": 0, "componentType": 5126, "count": 22, "type": "VEC3", "min": [-0.104248046875, -0.111328125, -0.03955078125], "max": [0.1259765625, 0.107666015625, 0.087646484375]}, {"bufferView": 1, "byteOffset": 0, "componentType": 5126, "count": 22, "type": "VEC2"}, {"bufferView": 2, "byteOffset": 0, "componentType": 5126, "count": 22, "type": "VEC3"}, {"bufferView": 3, "byteOffset": 0, "componentType": 5123, "count": 48, "type": "SCALAR"}, {"bufferView": 4, "byteOffset": 0, "componentType": 5126, "count": 98, "type": "VEC3", "min": [-0.0380859375, -0.11083984375, -0.27294921875], "max": [0.05712890625, 0.1318359375, 0.862548828125]}, {"bufferView": 5, "byteOffset": 0, "componentType": 5126, "count": 98, "type": "VEC2"}, {"bufferView": 6, "byteOffset": 0, "componentType": 5126, "count": 98, "type": "VEC3"}, {"bufferView": 7, "byteOffset": 0, "componentType": 5123, "count": 186, "type": "SCALAR"}, {"bufferView": 8, "byteOffset": 0, "componentType": 5126, "count": 8, "type": "VEC3", "min": [-0.05810546875, -0.04736328125, 0.7158203125], "max": [0.04736328125, 0.04736328125, 1.148193359375]}, {"bufferView": 9, "byteOffset": 0, "componentType": 5126, "count": 8, "type": "VEC2"}, {"bufferView": 10, "byteOffset": 0, "componentType": 5126, "count": 8, "type": "VEC3"}, {"bufferView": 11, "byteOffset": 0, "componentType": 5123, "count": 12, "type": "SCALAR"}, {"bufferView": 12, "byteOffset": 0, "componentType": 5126, "count": 8, "type": "VEC3", "min": [-0.05810546875, -0.04736328125, 0.7158203125], "max": [0.04736328125, 0.04736328125, 1.148193359375]}, {"bufferView": 13, "byteOffset": 0, "componentType": 5126, "count": 8, "type": "VEC2"}, {"bufferView": 14, "byteOffset": 0, "componentType": 5126, "count": 8, "type": "VEC3"}, {"bufferView": 15, "byteOffset": 0, "componentType": 5123, "count": 12, "type": "SCALAR"}, {"bufferView": 16, "byteOffset": 0, "componentType": 5126, "count": 8, "type": "VEC3", "min": [-0.05810546875, -0.04736328125, 0.7158203125], "max": [0.04736328125, 0.04736328125, 1.148193359375]}, {"bufferView": 17, "byteOffset": 0, "componentType": 5126, "count": 8, "type": "VEC2"}, {"bufferView": 18, "byteOffset": 0, "componentType": 5126, "count": 8, "type": "VEC3"}, {"bufferView": 19, "byteOffset": 0, "componentType": 5123, "count": 12, "type": "SCALAR"}, {"bufferView": 20, "byteOffset": 0, "componentType": 5126, "count": 8, "type": "VEC3", "min": [-0.05810546875, -0.04736328125, 0.7158203125], "max": [0.04736328125, 0.04736328125, 1.148193359375]}, {"bufferView": 21, "byteOffset": 0, "componentType": 5126, "count": 8, "type": "VEC2"}, {"bufferView": 22, "byteOffset": 0, "componentType": 5126, "count": 8, "type": "VEC3"}, {"bufferView": 23, "byteOffset": 0, "componentType": 5123, "count": 12, "type": "SCALAR"}, {"bufferView": 24, "byteOffset": 0, "componentType": 5126, "count": 8, "type": "VEC3", "min": [-0.05810546875, -0.04736328125, 0.7158203125], "max": [0.04736328125, 0.04736328125, 1.148193359375]}, {"bufferView": 25, "byteOffset": 0, "componentType": 5126, "count": 8, "type": "VEC2"}, {"bufferView": 26, "byteOffset": 0, "componentType": 5126, "count": 8, "type": "VEC3"}, {"bufferView": 27, "byteOffset": 0, "componentType": 5123, "count": 12, "type": "SCALAR"}, {"bufferView": 28, "byteOffset": 0, "componentType": 5126, "count": 8, "type": "VEC3", "min": [-0.05810546875, -0.04736328125, 0.7158203125], "max": [0.04736328125, 0.04736328125, 1.148193359375]}, {"bufferView": 29, "byteOffset": 0, "componentType": 5126, "count": 8, "type": "VEC2"}, {"bufferView": 30, "byteOffset": 0, "componentType": 5126, "count": 8, "type": "VEC3"}, {"bufferView": 31, "byteOffset": 0, "componentType": 5123, "count": 12, "type": "SCALAR"}, {"bufferView": 32, "byteOffset": 0, "componentType": 5126, "count": 8, "type": "VEC3", "min": [-0.05810546875, -0.04736328125, 0.7158203125], "max": [0.04736328125, 0.04736328125, 1.148193359375]}, {"bufferView": 33, "byteOffset": 0, "componentType": 5126, "count": 8, "type": "VEC2"}, {"bufferView": 34, "byteOffset": 0, "componentType": 5126, "count": 8, "type": "VEC3"}, {"bufferView": 35, "byteOffset": 0, "componentType": 5123, "count": 12, "type": "SCALAR"}, {"bufferView": 36, "byteOffset": 0, "componentType": 5126, "count": 8, "type": "VEC3", "min": [-0.05810546875, -0.04736328125, 0.7158203125], "max": [0.04736328125, 0.04736328125, 1.148193359375]}, {"bufferView": 37, "byteOffset": 0, "componentType": 5126, "count": 8, "type": "VEC2"}, {"bufferView": 38, "byteOffset": 0, "componentType": 5126, "count": 8, "type": "VEC3"}, {"bufferView": 39, "byteOffset": 0, "componentType": 5123, "count": 12, "type": "SCALAR"}, {"bufferView": 40, "byteOffset": 0, "componentType": 5126, "count": 8, "type": "VEC3", "min": [-0.05810546875, -0.04736328125, 0.7158203125], "max": [0.04736328125, 0.04736328125, 1.148193359375]}, {"bufferView": 41, "byteOffset": 0, "componentType": 5126, "count": 8, "type": "VEC2"}, {"bufferView": 42, "byteOffset": 0, "componentType": 5126, "count": 8, "type": "VEC3"}, {"bufferView": 43, "byteOffset": 0, "componentType": 5123, "count": 12, "type": "SCALAR"}], "samplers": [{"magFilter": 9729, "minFilter": 9729, "wrapS": 10497, "wrapT": 10497}]}