{"asset": {"version": "2.0", "generator": "tongari-nsbmd-to-gltf"}, "scene": 0, "scenes": [{"nodes": [0, 4]}], "nodes": [{"name": "mycloset00", "translation": [0.0, 0.0, 0.0], "children": [1, 2, 3]}, {"name": "polySurface478", "translation": [0.0, 0.0, 0.0]}, {"name": "polySurface95", "translation": [0.889404296875, 1.39990234375, -0.27783203125]}, {"name": "polySurface97", "translation": [-1.03076171875, 1.39990234375, -0.27783203125]}, {"mesh": 0, "name": "mycloset00"}], "meshes": [{"name": "mycloset00", "primitives": [{"attributes": {"POSITION": 0, "TEXCOORD_0": 1, "NORMAL": 2}, "indices": 3, "mode": 4, "material": 0}, {"attributes": {"POSITION": 4, "TEXCOORD_0": 5, "NORMAL": 6}, "indices": 7, "mode": 4, "material": 0}, {"attributes": {"POSITION": 8, "TEXCOORD_0": 9, "NORMAL": 10}, "indices": 11, "mode": 4, "material": 0}]}], "materials": [{"name": "attic_clo00", "pbrMetallicRoughness": {"baseColorFactor": [1.0, 1.0, 1.0, 1.0], "metallicFactor": 0.0, "roughnessFactor": 1.0}, "alphaMode": "OPAQUE", "doubleSided": true}], "buffers": [{"byteLength": 7048, "uri": "data:application/octet-stream;base64,"}], "bufferViews": [{"buffer": 0, "byteOffset": 0, "byteLength": 1632}, {"buffer": 0, "byteOffset": 1632, "byteLength": 1088}, {"buffer": 0, "byteOffset": 2720, "byteLength": 1632}, {"buffer": 0, "byteOffset": 4352, "byteLength": 456}, {"buffer": 0, "byteOffset": 4808, "byteLength": 384}, {"buffer": 0, "byteOffset": 5192, "byteLength": 256}, {"buffer": 0, "byteOffset": 5448, "byteLength": 384}, {"buffer": 0, "byteOffset": 5832, "byteLength": 96}, {"buffer": 0, "byteOffset": 5928, "byteLength": 384}, {"buffer": 0, "byteOffset": 6312, "byteLength": 256}, {"buffer": 0, "byteOffset": 6568, "byteLength": 384}, {"buffer": 0, "byteOffset": 6952, "byteLength": 96}], "accessors": [{"bufferView": 0, "byteOffset": 0, "componentType": 5126, "count": 136, "type": "VEC3", "min": [-1.4736328125, 0.055908203125, -1.340576171875], "max": [1.332275390625, 2.969970703125, -0.177734375]}, {"bufferView": 1, "byteOffset": 0, "componentType": 5126, "count": 136, "type": "VEC2"}, {"bufferView": 2, "byteOffset": 0, "componentType": 5126, "count": 136, "type": "VEC3"}, {"bufferView": 3, "byteOffset": 0, "componentType": 5123, "count": 228, "type": "SCALAR"}, {"bufferView": 4, "byteOffset": 0, "componentType": 5126, "count": 32, "type": "VEC3", "min": [-0.800048828125, -0.927734375, -0.058349609375], "max": [0.029052734375, 1.1162109375, 0.0]}, {"bufferView": 5, "byteOffset": 0, "componentType": 5126, "count": 32, "type": "VEC2"}, {"bufferView": 6, "byteOffset": 0, "componentType": 5126, "count": 32, "type": "VEC3"}, {"bufferView": 7, "byteOffset": 0, "componentType": 5123, "count": 48, "type": "SCALAR"}, {"bufferView": 8, "byteOffset": 0, "componentType": 5126, "count": 32, "type": "VEC3", "min": [-0.029052734375, -0.927734375, -0.058349609375], "max": [0.800537109375, 1.1162109375, 0.00634765625]}, {"bufferView": 9, "byteOffset": 0, "componentType": 5126, "count": 32, "type": "VEC2"}, {"bufferView": 10, "byteOffset": 0, "componentType": 5126, "count": 32, "type": "VEC3"}, {"bufferView": 11, "byteOffset": 0, "componentType": 5123, "count": 48, "type": "SCALAR"}], "samplers": [{"magFilter": 9729, "minFilter": 9729, "wrapS": 10497, "wrapT": 10497}]}