{"asset": {"version": "2.0", "generator": "tongari-nsbmd-to-gltf"}, "scene": 0, "scenes": [{"nodes": [0, 8]}], "nodes": [{"name": "ef_074", "translation": [0.0, 0.0, 0.0], "children": [1, 2, 3, 4, 5, 6, 7]}, {"name": "pCylinder1", "translation": [0.0, 0.771484375, 0.0], "rotation": [-0.7050754198355308, 0.05349743516984138, -0.05349743516984138, 0.7050754198355308]}, {"name": "s1", "translation": [0.439697265625, 1.772705078125, -0.99267578125]}, {"name": "s2", "translation": [1.361572265625, 1.360595703125, 0.822509765625]}, {"name": "s3", "translation": [0.0, 1.00390625, 1.786865234375]}, {"name": "s4", "translation": [0.541748046875, 1.00390625, 1.548583984375]}, {"name": "s5", "translation": [1.971923828125, 1.360595703125, 0.210205078125]}, {"name": "s6", "translation": [-0.136962890625, 1.772705078125, -1.491943359375]}, {"mesh": 0, "name": "ef_074"}], "meshes": [{"name": "ef_074", "primitives": [{"attributes": {"POSITION": 0, "TEXCOORD_0": 1}, "indices": 2, "mode": 4, "material": 0}, {"attributes": {"POSITION": 3, "TEXCOORD_0": 4, "NORMAL": 5}, "indices": 6, "mode": 4, "material": 2}, {"attributes": {"POSITION": 7, "TEXCOORD_0": 8, "NORMAL": 9}, "indices": 10, "mode": 4, "material": 3}, {"attributes": {"POSITION": 11, "TEXCOORD_0": 12, "NORMAL": 13}, "indices": 14, "mode": 4, "material": 1}, {"attributes": {"POSITION": 15, "TEXCOORD_0": 16, "NORMAL": 17}, "indices": 18, "mode": 4, "material": 1}, {"attributes": {"POSITION": 19, "TEXCOORD_0": 20, "NORMAL": 21}, "indices": 22, "mode": 4, "material": 3}, {"attributes": {"POSITION": 23, "TEXCOORD_0": 24, "NORMAL": 25}, "indices": 26, "mode": 4, "material": 2}]}], "materials": [{"name": "lambert13", "pbrMetallicRoughness": {"baseColorFactor": [0.803921568627451, 0.803921568627451, 0.803921568627451, 0.001], "metallicFactor": 0.0, "roughnessFactor": 1.0}, "alphaMode": "BLEND", "doubleSided": true}, {"name": "lambert14", "pbrMetallicRoughness": {"baseColorFactor": [1.0, 1.0, 1.0, 0.001], "metallicFactor": 0.0, "roughnessFactor": 1.0}, "alphaMode": "BLEND", "doubleSided": true}, {"name": "lambert15", "pbrMetallicRoughness": {"baseColorFactor": [1.0, 1.0, 1.0, 0.001], "metallicFactor": 0.0, "roughnessFactor": 1.0}, "alphaMode": "BLEND", "doubleSided": true}, {"name": "lambert16", "pbrMetallicRoughness": {"baseColorFactor": [1.0, 1.0, 1.0, 0.001], "metallicFactor": 0.0, "roughnessFactor": 1.0}, "alphaMode": "BLEND", "doubleSided": true}], "buffers": [{"byteLength": 1676, "uri": "data:application/octet-stream;base64,"}], "bufferViews": [{"buffer": 0, "byteOffset": 0, "byteLength": 408}, {"buffer": 0, "byteOffset": 408, "byteLength": 272}, {"buffer": 0, "byteOffset": 680, "byteLength": 156}, {"buffer": 0, "byteOffset": 836, "byteLength": 48}, {"buffer": 0, "byteOffset": 884, "byteLength": 32}, {"buffer": 0, "byteOffset": 916, "byteLength": 48}, {"buffer": 0, "byteOffset": 964, "byteLength": 12}, {"buffer": 0, "byteOffset": 976, "byteLength": 48}, {"buffer": 0, "byteOffset": 1024, "byteLength": 32}, {"buffer": 0, "byteOffset": 1056, "byteLength": 48}, {"buffer": 0, "byteOffset": 1104, "byteLength": 12}, {"buffer": 0, "byteOffset": 1116, "byteLength": 48}, {"buffer": 0, "byteOffset": 1164, "byteLength": 32}, {"buffer": 0, "byteOffset": 1196, "byteLength": 48}, {"buffer": 0, "byteOffset": 1244, "byteLength": 12}, {"buffer": 0, "byteOffset": 1256, "byteLength": 48}, {"buffer": 0, "byteOffset": 1304, "byteLength": 32}, {"buffer": 0, "byteOffset": 1336, "byteLength": 48}, {"buffer": 0, "byteOffset": 1384, "byteLength": 12}, {"buffer": 0, "byteOffset": 1396, "byteLength": 48}, {"buffer": 0, "byteOffset": 1444, "byteLength": 32}, {"buffer": 0, "byteOffset": 1476, "byteLength": 48}, {"buffer": 0, "byteOffset": 1524, "byteLength": 12}, {"buffer": 0, "byteOffset": 1536, "byteLength": 48}, {"buffer": 0, "byteOffset": 1584, "byteLength": 32}, {"buffer": 0, "byteOffset": 1616, "byteLength": 48}, {"buffer": 0, "byteOffset": 1664, "byteLength": 12}], "accessors": [{"bufferView": 0, "byteOffset": 0, "componentType": 5126, "count": 34, "type": "VEC3", "min": [-0.599365234375, -0.16845703125, -0.619384765625], "max": [0.675537109375, 0.182373046875, 0.6552734375]}, {"bufferView": 1, "byteOffset": 0, "componentType": 5126, "count": 34, "type": "VEC2"}, {"bufferView": 2, "byteOffset": 0, "componentType": 5123, "count": 78, "type": "SCALAR"}, {"bufferView": 3, "byteOffset": 0, "componentType": 5126, "count": 4, "type": "VEC3", "min": [-0.5, -0.5, 0.0], "max": [0.5, 0.5, 0.0]}, {"bufferView": 4, "byteOffset": 0, "componentType": 5126, "count": 4, "type": "VEC2"}, {"bufferView": 5, "byteOffset": 0, "componentType": 5126, "count": 4, "type": "VEC3"}, {"bufferView": 6, "byteOffset": 0, "componentType": 5123, "count": 6, "type": "SCALAR"}, {"bufferView": 7, "byteOffset": 0, "componentType": 5126, "count": 4, "type": "VEC3", "min": [-0.5, -0.5, 0.0], "max": [0.5, 0.5, 0.0]}, {"bufferView": 8, "byteOffset": 0, "componentType": 5126, "count": 4, "type": "VEC2"}, {"bufferView": 9, "byteOffset": 0, "componentType": 5126, "count": 4, "type": "VEC3"}, {"bufferView": 10, "byteOffset": 0, "componentType": 5123, "count": 6, "type": "SCALAR"}, {"bufferView": 11, "byteOffset": 0, "componentType": 5126, "count": 4, "type": "VEC3", "min": [-0.5, -0.5, 0.0], "max": [0.5, 0.5, 0.0]}, {"bufferView": 12, "byteOffset": 0, "componentType": 5126, "count": 4, "type": "VEC2"}, {"bufferView": 13, "byteOffset": 0, "componentType": 5126, "count": 4, "type": "VEC3"}, {"bufferView": 14, "byteOffset": 0, "componentType": 5123, "count": 6, "type": "SCALAR"}, {"bufferView": 15, "byteOffset": 0, "componentType": 5126, "count": 4, "type": "VEC3", "min": [-0.5, -0.5, 0.0], "max": [0.5, 0.5, 0.0]}, {"bufferView": 16, "byteOffset": 0, "componentType": 5126, "count": 4, "type": "VEC2"}, {"bufferView": 17, "byteOffset": 0, "componentType": 5126, "count": 4, "type": "VEC3"}, {"bufferView": 18, "byteOffset": 0, "componentType": 5123, "count": 6, "type": "SCALAR"}, {"bufferView": 19, "byteOffset": 0, "componentType": 5126, "count": 4, "type": "VEC3", "min": [-0.5, -0.5, 0.0], "max": [0.5, 0.5, 0.0]}, {"bufferView": 20, "byteOffset": 0, "componentType": 5126, "count": 4, "type": "VEC2"}, {"bufferView": 21, "byteOffset": 0, "componentType": 5126, "count": 4, "type": "VEC3"}, {"bufferView": 22, "byteOffset": 0, "componentType": 5123, "count": 6, "type": "SCALAR"}, {"bufferView": 23, "byteOffset": 0, "componentType": 5126, "count": 4, "type": "VEC3", "min": [-0.5, -0.5, 0.0], "max": [0.5, 0.5, 0.0]}, {"bufferView": 24, "byteOffset": 0, "componentType": 5126, "count": 4, "type": "VEC2"}, {"bufferView": 25, "byteOffset": 0, "componentType": 5126, "count": 4, "type": "VEC3"}, {"bufferView": 26, "byteOffset": 0, "componentType": 5123, "count": 6, "type": "SCALAR"}], "samplers": [{"magFilter": 9729, "minFilter": 9729, "wrapS": 10497, "wrapT": 10497}]}