{"asset": {"version": "2.0", "generator": "tongari-nsbmd-to-gltf"}, "scene": 0, "scenes": [{"nodes": [0, 4]}], "nodes": [{"name": "u_pie01_h_re", "translation": [0.0, 0.0, 0.0], "children": [1]}, {"name": "body", "translation": [0.0, 0.0, 0.0], "children": [2, 3]}, {"name": "polySurface164", "translation": [0.0, 0.0703125, 0.081298828125], "rotation": [0.5985109289154626, 0.3765040636489842, 0.5985109289154626, 0.3765040636489842]}, {"name": "polySurface165", "translation": [0.0, 0.06884765625, 0.146484375], "rotation": [0.5985109289154626, 0.3765040636489842, 0.5985109289154626, 0.3765040636489842]}, {"mesh": 0, "name": "5501u_pie01_h"}], "meshes": [{"name": "5501u_pie01_h", "primitives": [{"attributes": {"POSITION": 0, "TEXCOORD_0": 1, "NORMAL": 2}, "indices": 3, "mode": 4, "material": 0}, {"attributes": {"POSITION": 4, "TEXCOORD_0": 5, "NORMAL": 6}, "indices": 7, "mode": 4, "material": 0}, {"attributes": {"POSITION": 8, "TEXCOORD_0": 9, "NORMAL": 10}, "indices": 11, "mode": 4, "material": 0}, {"attributes": {"POSITION": 12, "TEXCOORD_0": 13, "NORMAL": 14}, "indices": 15, "mode": 4, "material": 1}, {"attributes": {"POSITION": 16, "TEXCOORD_0": 17, "NORMAL": 18}, "indices": 19, "mode": 4, "material": 1}, {"attributes": {"POSITION": 20, "TEXCOORD_0": 21, "NORMAL": 22}, "indices": 23, "mode": 4, "material": 1}, {"attributes": {"POSITION": 24, "TEXCOORD_0": 25, "NORMAL": 26}, "indices": 27, "mode": 4, "material": 3}, {"attributes": {"POSITION": 28, "TEXCOORD_0": 29, "NORMAL": 30}, "indices": 31, "mode": 4, "material": 2}]}], "materials": [{"name": "ucc_pai_m", "pbrMetallicRoughness": {"baseColorFactor": [0.803921568627451, 0.803921568627451, 0.803921568627451, 1.0], "metallicFactor": 0.0, "roughnessFactor": 1.0}, "alphaMode": "OPAQUE", "doubleSided": true}, {"name": "ucc_pie2", "pbrMetallicRoughness": {"baseColorFactor": [0.803921568627451, 0.803921568627451, 0.803921568627451, 1.0], "metallicFactor": 0.0, "roughnessFactor": 1.0}, "alphaMode": "OPAQUE", "doubleSided": true}, {"name": "ucc_top0", "pbrMetallicRoughness": {"baseColorFactor": [1.0, 1.0, 1.0, 1.0], "metallicFactor": 0.0, "roughnessFactor": 1.0}, "alphaMode": "OPAQUE", "doubleSided": true}, {"name": "ucc_top1", "pbrMetallicRoughness": {"baseColorFactor": [0.803921568627451, 0.803921568627451, 0.803921568627451, 1.0], "metallicFactor": 0.0, "roughnessFactor": 1.0}, "alphaMode": "OPAQUE", "doubleSided": true}], "buffers": [{"byteLength": 4346, "uri": "data:application/octet-stream;base64,"}], "bufferViews": [{"buffer": 0, "byteOffset": 0, "byteLength": 168}, {"buffer": 0, "byteOffset": 168, "byteLength": 112}, {"buffer": 0, "byteOffset": 280, "byteLength": 168}, {"buffer": 0, "byteOffset": 448, "byteLength": 36}, {"buffer": 0, "byteOffset": 484, "byteLength": 36}, {"buffer": 0, "byteOffset": 520, "byteLength": 24}, {"buffer": 0, "byteOffset": 544, "byteLength": 36}, {"buffer": 0, "byteOffset": 580, "byteLength": 6}, {"buffer": 0, "byteOffset": 588, "byteLength": 684}, {"buffer": 0, "byteOffset": 1272, "byteLength": 456}, {"buffer": 0, "byteOffset": 1728, "byteLength": 684}, {"buffer": 0, "byteOffset": 2412, "byteLength": 150}, {"buffer": 0, "byteOffset": 2564, "byteLength": 96}, {"buffer": 0, "byteOffset": 2660, "byteLength": 64}, {"buffer": 0, "byteOffset": 2724, "byteLength": 96}, {"buffer": 0, "byteOffset": 2820, "byteLength": 36}, {"buffer": 0, "byteOffset": 2856, "byteLength": 96}, {"buffer": 0, "byteOffset": 2952, "byteLength": 64}, {"buffer": 0, "byteOffset": 3016, "byteLength": 96}, {"buffer": 0, "byteOffset": 3112, "byteLength": 36}, {"buffer": 0, "byteOffset": 3148, "byteLength": 336}, {"buffer": 0, "byteOffset": 3484, "byteLength": 224}, {"buffer": 0, "byteOffset": 3708, "byteLength": 336}, {"buffer": 0, "byteOffset": 4044, "byteLength": 96}, {"buffer": 0, "byteOffset": 4140, "byteLength": 36}, {"buffer": 0, "byteOffset": 4176, "byteLength": 24}, {"buffer": 0, "byteOffset": 4200, "byteLength": 36}, {"buffer": 0, "byteOffset": 4236, "byteLength": 6}, {"buffer": 0, "byteOffset": 4244, "byteLength": 36}, {"buffer": 0, "byteOffset": 4280, "byteLength": 24}, {"buffer": 0, "byteOffset": 4304, "byteLength": 36}, {"buffer": 0, "byteOffset": 4340, "byteLength": 6}], "accessors": [{"bufferView": 0, "byteOffset": 0, "componentType": 5126, "count": 14, "type": "VEC3", "min": [0.323486328125, -0.00341796875, -0.151611328125], "max": [0.447265625, 0.143798828125, 0.15185546875]}, {"bufferView": 1, "byteOffset": 0, "componentType": 5126, "count": 14, "type": "VEC2"}, {"bufferView": 2, "byteOffset": 0, "componentType": 5126, "count": 14, "type": "VEC3"}, {"bufferView": 3, "byteOffset": 0, "componentType": 5123, "count": 18, "type": "SCALAR"}, {"bufferView": 4, "byteOffset": 0, "componentType": 5126, "count": 3, "type": "VEC3", "min": [-0.263916015625, 0.0107421875, -0.310791015625], "max": [0.263916015625, 0.143798828125, 0.0]}, {"bufferView": 5, "byteOffset": 0, "componentType": 5126, "count": 3, "type": "VEC2"}, {"bufferView": 6, "byteOffset": 0, "componentType": 5126, "count": 3, "type": "VEC3"}, {"bufferView": 7, "byteOffset": 0, "componentType": 5123, "count": 3, "type": "SCALAR"}, {"bufferView": 8, "byteOffset": 0, "componentType": 5126, "count": 57, "type": "VEC3", "min": [-0.447265625, -0.00341796875, -0.310791015625], "max": [0.37060546875, 0.143798828125, 0.31103515625]}, {"bufferView": 9, "byteOffset": 0, "componentType": 5126, "count": 57, "type": "VEC2"}, {"bufferView": 10, "byteOffset": 0, "componentType": 5126, "count": 57, "type": "VEC3"}, {"bufferView": 11, "byteOffset": 0, "componentType": 5123, "count": 75, "type": "SCALAR"}, {"bufferView": 12, "byteOffset": 0, "componentType": 5126, "count": 8, "type": "VEC3", "min": [-0.283935546875, 0.16845703125, -0.232666015625], "max": [0.283935546875, 0.16845703125, 0.232666015625]}, {"bufferView": 13, "byteOffset": 0, "componentType": 5126, "count": 8, "type": "VEC2"}, {"bufferView": 14, "byteOffset": 0, "componentType": 5126, "count": 8, "type": "VEC3"}, {"bufferView": 15, "byteOffset": 0, "componentType": 5123, "count": 18, "type": "SCALAR"}, {"bufferView": 16, "byteOffset": 0, "componentType": 5126, "count": 8, "type": "VEC3", "min": [-0.283935546875, 0.16845703125, -0.232666015625], "max": [0.283935546875, 0.16845703125, 0.232666015625]}, {"bufferView": 17, "byteOffset": 0, "componentType": 5126, "count": 8, "type": "VEC2"}, {"bufferView": 18, "byteOffset": 0, "componentType": 5126, "count": 8, "type": "VEC3"}, {"bufferView": 19, "byteOffset": 0, "componentType": 5123, "count": 18, "type": "SCALAR"}, {"bufferView": 20, "byteOffset": 0, "componentType": 5126, "count": 28, "type": "VEC3", "min": [-0.345947265625, 0.130859375, -0.28369140625], "max": [0.345947265625, 0.16845703125, 0.28369140625]}, {"bufferView": 21, "byteOffset": 0, "componentType": 5126, "count": 28, "type": "VEC2"}, {"bufferView": 22, "byteOffset": 0, "componentType": 5126, "count": 28, "type": "VEC3"}, {"bufferView": 23, "byteOffset": 0, "componentType": 5123, "count": 48, "type": "SCALAR"}, {"bufferView": 24, "byteOffset": 0, "componentType": 5126, "count": 3, "type": "VEC3", "min": [-0.082763671875, -0.08251953125, 0.0], "max": [0.082763671875, 0.082763671875, 0.0]}, {"bufferView": 25, "byteOffset": 0, "componentType": 5126, "count": 3, "type": "VEC2"}, {"bufferView": 26, "byteOffset": 0, "componentType": 5126, "count": 3, "type": "VEC3"}, {"bufferView": 27, "byteOffset": 0, "componentType": 5123, "count": 3, "type": "SCALAR"}, {"bufferView": 28, "byteOffset": 0, "componentType": 5126, "count": 3, "type": "VEC3", "min": [-0.082763671875, -0.08251953125, 0.0], "max": [0.082763671875, 0.082763671875, 0.0]}, {"bufferView": 29, "byteOffset": 0, "componentType": 5126, "count": 3, "type": "VEC2"}, {"bufferView": 30, "byteOffset": 0, "componentType": 5126, "count": 3, "type": "VEC3"}, {"bufferView": 31, "byteOffset": 0, "componentType": 5123, "count": 3, "type": "SCALAR"}], "samplers": [{"magFilter": 9729, "minFilter": 9729, "wrapS": 10497, "wrapT": 10497}]}