{"asset": {"version": "2.0", "generator": "tongari-nsbmd-to-gltf"}, "scene": 0, "scenes": [{"nodes": [0, 1]}], "nodes": [{"name": "fish91_1", "translation": [0.0, 0.0, 0.0]}, {"mesh": 0, "name": "4881fish91d"}], "meshes": [{"name": "4881fish91d", "primitives": [{"attributes": {"POSITION": 0, "TEXCOORD_0": 1, "NORMAL": 2}, "indices": 3, "mode": 4, "material": 0}]}], "materials": [{"name": "fish91", "pbrMetallicRoughness": {"baseColorFactor": [1.0, 1.0, 1.0, 1.0], "metallicFactor": 0.0, "roughnessFactor": 1.0}, "alphaMode": "OPAQUE", "doubleSided": true}], "buffers": [{"byteLength": 776, "uri": "data:application/octet-stream;base64,"}], "bufferViews": [{"buffer": 0, "byteOffset": 0, "byteLength": 264}, {"buffer": 0, "byteOffset": 264, "byteLength": 176}, {"buffer": 0, "byteOffset": 440, "byteLength": 264}, {"buffer": 0, "byteOffset": 704, "byteLength": 72}], "accessors": [{"bufferView": 0, "byteOffset": 0, "componentType": 5126, "count": 22, "type": "VEC3", "min": [-0.31982421875, -0.303955078125, -0.00048828125], "max": [0.31982421875, 0.303955078125, 0.069580078125]}, {"bufferView": 1, "byteOffset": 0, "componentType": 5126, "count": 22, "type": "VEC2"}, {"bufferView": 2, "byteOffset": 0, "componentType": 5126, "count": 22, "type": "VEC3"}, {"bufferView": 3, "byteOffset": 0, "componentType": 5123, "count": 36, "type": "SCALAR"}], "samplers": [{"magFilter": 9729, "minFilter": 9729, "wrapS": 10497, "wrapT": 10497}]}