{"asset": {"version": "2.0", "generator": "tongari-nsbmd-to-gltf"}, "scene": 0, "scenes": [{"nodes": [0, 1]}], "nodes": [{"name": "kg3_gs00", "translation": [0.0, 0.0, 0.0]}, {"mesh": 0, "name": "3898kg3_gs00"}], "meshes": [{"name": "3898kg3_gs00", "primitives": [{"attributes": {"POSITION": 0, "TEXCOORD_0": 1, "NORMAL": 2}, "indices": 3, "mode": 4, "material": 1}, {"attributes": {"POSITION": 4, "TEXCOORD_0": 5, "NORMAL": 6}, "indices": 7, "mode": 4, "material": 0}, {"attributes": {"POSITION": 8, "TEXCOORD_0": 9, "NORMAL": 10}, "indices": 11, "mode": 4, "material": 2}]}], "materials": [{"name": "gs00_0", "pbrMetallicRoughness": {"baseColorFactor": [1.0, 1.0, 1.0, 1.0], "metallicFactor": 0.0, "roughnessFactor": 1.0}, "alphaMode": "OPAQUE", "doubleSided": true}, {"name": "gs00_1", "pbrMetallicRoughness": {"baseColorFactor": [1.0, 1.0, 1.0, 1.0], "metallicFactor": 0.0, "roughnessFactor": 1.0}, "alphaMode": "OPAQUE", "doubleSided": true}, {"name": "gs00_2", "pbrMetallicRoughness": {"baseColorFactor": [1.0, 1.0, 1.0, 1.0], "metallicFactor": 0.0, "roughnessFactor": 1.0}, "alphaMode": "OPAQUE", "doubleSided": true}], "buffers": [{"byteLength": 4760, "uri": "data:application/octet-stream;base64,"}], "bufferViews": [{"buffer": 0, "byteOffset": 0, "byteLength": 792}, {"buffer": 0, "byteOffset": 792, "byteLength": 528}, {"buffer": 0, "byteOffset": 1320, "byteLength": 792}, {"buffer": 0, "byteOffset": 2112, "byteLength": 192}, {"buffer": 0, "byteOffset": 2304, "byteLength": 408}, {"buffer": 0, "byteOffset": 2712, "byteLength": 272}, {"buffer": 0, "byteOffset": 2984, "byteLength": 408}, {"buffer": 0, "byteOffset": 3392, "byteLength": 108}, {"buffer": 0, "byteOffset": 3500, "byteLength": 432}, {"buffer": 0, "byteOffset": 3932, "byteLength": 288}, {"buffer": 0, "byteOffset": 4220, "byteLength": 432}, {"buffer": 0, "byteOffset": 4652, "byteLength": 108}], "accessors": [{"bufferView": 0, "byteOffset": 0, "componentType": 5126, "count": 66, "type": "VEC3", "min": [-0.457275390625, -0.371337890625, -0.471923828125], "max": [0.457275390625, 0.916748046875, 0.356201171875]}, {"bufferView": 1, "byteOffset": 0, "componentType": 5126, "count": 66, "type": "VEC2"}, {"bufferView": 2, "byteOffset": 0, "componentType": 5126, "count": 66, "type": "VEC3"}, {"bufferView": 3, "byteOffset": 0, "componentType": 5123, "count": 96, "type": "SCALAR"}, {"bufferView": 4, "byteOffset": 0, "componentType": 5126, "count": 34, "type": "VEC3", "min": [-0.319091796875, 0.2001953125, -0.471923828125], "max": [0.319580078125, 0.916748046875, 0.434814453125]}, {"bufferView": 5, "byteOffset": 0, "componentType": 5126, "count": 34, "type": "VEC2"}, {"bufferView": 6, "byteOffset": 0, "componentType": 5126, "count": 34, "type": "VEC3"}, {"bufferView": 7, "byteOffset": 0, "componentType": 5123, "count": 54, "type": "SCALAR"}, {"bufferView": 8, "byteOffset": 0, "componentType": 5126, "count": 36, "type": "VEC3", "min": [-0.362060546875, 0.0, -0.304443359375], "max": [0.363525390625, 0.5966796875, 0.38720703125]}, {"bufferView": 9, "byteOffset": 0, "componentType": 5126, "count": 36, "type": "VEC2"}, {"bufferView": 10, "byteOffset": 0, "componentType": 5126, "count": 36, "type": "VEC3"}, {"bufferView": 11, "byteOffset": 0, "componentType": 5123, "count": 54, "type": "SCALAR"}], "samplers": [{"magFilter": 9729, "minFilter": 9729, "wrapS": 10497, "wrapT": 10497}]}