{"asset": {"version": "2.0", "generator": "tongari-nsbmd-to-gltf"}, "scene": 0, "scenes": [{"nodes": [0, 1]}], "nodes": [{"name": "kg_sh2_08", "translation": [0.0, 0.0, 0.0]}, {"mesh": 0, "name": "3367kg_sh2_08"}], "meshes": [{"name": "3367kg_sh2_08", "primitives": [{"attributes": {"POSITION": 0, "TEXCOORD_0": 1, "NORMAL": 2}, "indices": 3, "mode": 4, "material": 0}]}], "materials": [{"name": "sh2_08_0", "pbrMetallicRoughness": {"baseColorFactor": [1.0, 1.0, 1.0, 1.0], "metallicFactor": 0.0, "roughnessFactor": 1.0}, "alphaMode": "OPAQUE", "doubleSided": true}], "buffers": [{"byteLength": 3276, "uri": "data:application/octet-stream;base64,"}], "bufferViews": [{"buffer": 0, "byteOffset": 0, "byteLength": 1080}, {"buffer": 0, "byteOffset": 1080, "byteLength": 720}, {"buffer": 0, "byteOffset": 1800, "byteLength": 1080}, {"buffer": 0, "byteOffset": 2880, "byteLength": 396}], "accessors": [{"bufferView": 0, "byteOffset": 0, "componentType": 5126, "count": 90, "type": "VEC3", "min": [-0.232177734375, 0.001220703125, -0.200927734375], "max": [0.232177734375, 1.125, 0.200927734375]}, {"bufferView": 1, "byteOffset": 0, "componentType": 5126, "count": 90, "type": "VEC2"}, {"bufferView": 2, "byteOffset": 0, "componentType": 5126, "count": 90, "type": "VEC3"}, {"bufferView": 3, "byteOffset": 0, "componentType": 5123, "count": 198, "type": "SCALAR"}], "samplers": [{"magFilter": 9729, "minFilter": 9729, "wrapS": 10497, "wrapT": 10497}]}