{"asset": {"version": "2.0", "generator": "tongari-nsbmd-to-gltf"}, "scene": 0, "scenes": [{"nodes": [0, 1]}], "nodes": [{"name": "imsy01_03", "translation": [0.0, 0.0, 0.0]}, {"mesh": 0, "name": "3441IMSY01_03"}], "meshes": [{"name": "3441IMSY01_03", "primitives": [{"attributes": {"POSITION": 0, "TEXCOORD_0": 1, "NORMAL": 2}, "indices": 3, "mode": 4, "material": 0}, {"attributes": {"POSITION": 4, "TEXCOORD_0": 5, "NORMAL": 6}, "indices": 7, "mode": 4, "material": 1}]}], "materials": [{"name": "imsy01_03_0", "pbrMetallicRoughness": {"baseColorFactor": [1.0, 1.0, 1.0, 1.0], "metallicFactor": 0.0, "roughnessFactor": 1.0}, "alphaMode": "OPAQUE", "doubleSided": true}, {"name": "imsy01_03_1", "pbrMetallicRoughness": {"baseColorFactor": [1.0, 1.0, 1.0, 0.8064516129032258], "metallicFactor": 0.0, "roughnessFactor": 1.0}, "alphaMode": "BLEND", "doubleSided": true}], "buffers": [{"byteLength": 3878, "uri": "data:application/octet-stream;base64,"}], "bufferViews": [{"buffer": 0, "byteOffset": 0, "byteLength": 1212}, {"buffer": 0, "byteOffset": 1212, "byteLength": 808}, {"buffer": 0, "byteOffset": 2020, "byteLength": 1212}, {"buffer": 0, "byteOffset": 3232, "byteLength": 390}, {"buffer": 0, "byteOffset": 3624, "byteLength": 84}, {"buffer": 0, "byteOffset": 3708, "byteLength": 56}, {"buffer": 0, "byteOffset": 3764, "byteLength": 84}, {"buffer": 0, "byteOffset": 3848, "byteLength": 30}], "accessors": [{"bufferView": 0, "byteOffset": 0, "componentType": 5126, "count": 101, "type": "VEC3", "min": [-0.4208984375, 0.0, -0.16845703125], "max": [0.427490234375, 0.380859375, 0.16845703125]}, {"bufferView": 1, "byteOffset": 0, "componentType": 5126, "count": 101, "type": "VEC2"}, {"bufferView": 2, "byteOffset": 0, "componentType": 5126, "count": 101, "type": "VEC3"}, {"bufferView": 3, "byteOffset": 0, "componentType": 5123, "count": 195, "type": "SCALAR"}, {"bufferView": 4, "byteOffset": 0, "componentType": 5126, "count": 7, "type": "VEC3", "min": [-0.68115234375, 0.28857421875, -0.169189453125], "max": [0.02294921875, 1.854736328125, 0.369873046875]}, {"bufferView": 5, "byteOffset": 0, "componentType": 5126, "count": 7, "type": "VEC2"}, {"bufferView": 6, "byteOffset": 0, "componentType": 5126, "count": 7, "type": "VEC3"}, {"bufferView": 7, "byteOffset": 0, "componentType": 5123, "count": 15, "type": "SCALAR"}], "samplers": [{"magFilter": 9729, "minFilter": 9729, "wrapS": 10497, "wrapT": 10497}]}