{"asset": {"version": "2.0", "generator": "tongari-nsbmd-to-gltf"}, "scene": 0, "scenes": [{"nodes": [0, 6]}], "nodes": [{"name": "sao", "translation": [0.0, 0.0, 0.0], "children": [1, 2]}, {"name": "sao_0", "translation": [0.0, 0.0, -0.0654296875]}, {"name": "sao_1", "translation": [0.0, 0.0, 0.0], "rotation": [-0.7037757405372468, -0.06877315616094105, 0.06877315616094105, 0.7037757405372467], "children": [3]}, {"name": "sao_2", "translation": [0.0, 0.0, 0.5244140625], "children": [4]}, {"name": "sao_3", "translation": [0.0, 0.0, 0.269775390625], "children": [5]}, {"name": "sao_4", "translation": [0.0, 0.0, 0.3671875]}, {"mesh": 0, "name": "03_02_stick"}], "meshes": [{"name": "03_02_stick", "primitives": [{"attributes": {"POSITION": 0, "TEXCOORD_0": 1, "NORMAL": 2}, "indices": 3, "mode": 4, "material": 1}, {"attributes": {"POSITION": 4, "TEXCOORD_0": 5, "NORMAL": 6}, "indices": 7, "mode": 4, "material": 0}]}], "materials": [{"name": "equip02", "pbrMetallicRoughness": {"baseColorFactor": [1.0, 1.0, 1.0, 1.0], "metallicFactor": 0.0, "roughnessFactor": 1.0}, "alphaMode": "OPAQUE", "doubleSided": true}, {"name": "sbim02_03_0", "pbrMetallicRoughness": {"baseColorFactor": [1.0, 1.0, 1.0, 1.0], "metallicFactor": 0.0, "roughnessFactor": 1.0}, "alphaMode": "OPAQUE", "doubleSided": true}], "buffers": [{"byteLength": 6594, "uri": "data:application/octet-stream;base64,"}], "bufferViews": [{"buffer": 0, "byteOffset": 0, "byteLength": 1368}, {"buffer": 0, "byteOffset": 1368, "byteLength": 912}, {"buffer": 0, "byteOffset": 2280, "byteLength": 1368}, {"buffer": 0, "byteOffset": 3648, "byteLength": 420}, {"buffer": 0, "byteOffset": 4068, "byteLength": 828}, {"buffer": 0, "byteOffset": 4896, "byteLength": 552}, {"buffer": 0, "byteOffset": 5448, "byteLength": 828}, {"buffer": 0, "byteOffset": 6276, "byteLength": 318}], "accessors": [{"bufferView": 0, "byteOffset": 0, "componentType": 5126, "count": 114, "type": "VEC3", "min": [-0.09228515625, -0.22775393724441528, -0.3369140625], "max": [0.09945929050445557, 0.106689453125, 0.915771484375]}, {"bufferView": 1, "byteOffset": 0, "componentType": 5126, "count": 114, "type": "VEC2"}, {"bufferView": 2, "byteOffset": 0, "componentType": 5126, "count": 114, "type": "VEC3"}, {"bufferView": 3, "byteOffset": 0, "componentType": 5123, "count": 210, "type": "SCALAR"}, {"bufferView": 4, "byteOffset": 0, "componentType": 5126, "count": 69, "type": "VEC3", "min": [-0.145751953125, -0.06396484375, -0.494384765625], "max": [0.0263671875, 0.46204674243927, 0.21728515625]}, {"bufferView": 5, "byteOffset": 0, "componentType": 5126, "count": 69, "type": "VEC2"}, {"bufferView": 6, "byteOffset": 0, "componentType": 5126, "count": 69, "type": "VEC3"}, {"bufferView": 7, "byteOffset": 0, "componentType": 5123, "count": 159, "type": "SCALAR"}], "samplers": [{"magFilter": 9729, "minFilter": 9729, "wrapS": 10497, "wrapT": 10497}]}