{"asset": {"version": "2.0", "generator": "tongari-nsbmd-to-gltf"}, "scene": 0, "scenes": [{"nodes": [0, 1]}], "nodes": [{"name": "uc_m_kous3", "translation": [0.0, 0.0, 0.0]}, {"mesh": 0, "name": "5649uc_m_kous3"}], "meshes": [{"name": "5649uc_m_kous3", "primitives": [{"attributes": {"POSITION": 0, "TEXCOORD_0": 1, "NORMAL": 2}, "indices": 3, "mode": 4, "material": 2}, {"attributes": {"POSITION": 4, "TEXCOORD_0": 5, "NORMAL": 6}, "indices": 7, "mode": 4, "material": 0}, {"attributes": {"POSITION": 8, "TEXCOORD_0": 9, "NORMAL": 10}, "indices": 11, "mode": 4, "material": 1}]}], "materials": [{"name": "uc_m_kous20", "pbrMetallicRoughness": {"baseColorFactor": [0.803921568627451, 0.803921568627451, 0.803921568627451, 1.0], "metallicFactor": 0.0, "roughnessFactor": 1.0}, "alphaMode": "OPAQUE", "doubleSided": true}, {"name": "uc_m_kous21", "pbrMetallicRoughness": {"baseColorFactor": [0.803921568627451, 0.803921568627451, 0.803921568627451, 1.0], "metallicFactor": 0.0, "roughnessFactor": 1.0}, "alphaMode": "OPAQUE", "doubleSided": true}, {"name": "uc_m_kous22", "pbrMetallicRoughness": {"baseColorFactor": [0.803921568627451, 0.803921568627451, 0.803921568627451, 1.0], "metallicFactor": 0.0, "roughnessFactor": 1.0}, "alphaMode": "OPAQUE", "doubleSided": true}], "buffers": [{"byteLength": 4846, "uri": "data:application/octet-stream;base64,"}], "bufferViews": [{"buffer": 0, "byteOffset": 0, "byteLength": 168}, {"buffer": 0, "byteOffset": 168, "byteLength": 112}, {"buffer": 0, "byteOffset": 280, "byteLength": 168}, {"buffer": 0, "byteOffset": 448, "byteLength": 48}, {"buffer": 0, "byteOffset": 496, "byteLength": 960}, {"buffer": 0, "byteOffset": 1456, "byteLength": 640}, {"buffer": 0, "byteOffset": 2096, "byteLength": 960}, {"buffer": 0, "byteOffset": 3056, "byteLength": 240}, {"buffer": 0, "byteOffset": 3296, "byteLength": 516}, {"buffer": 0, "byteOffset": 3812, "byteLength": 344}, {"buffer": 0, "byteOffset": 4156, "byteLength": 516}, {"buffer": 0, "byteOffset": 4672, "byteLength": 174}], "accessors": [{"bufferView": 0, "byteOffset": 0, "componentType": 5126, "count": 14, "type": "VEC3", "min": [-0.0615234375, 0.440673828125, -0.033447265625], "max": [0.0615234375, 0.740478515625, 0.033447265625]}, {"bufferView": 1, "byteOffset": 0, "componentType": 5126, "count": 14, "type": "VEC2"}, {"bufferView": 2, "byteOffset": 0, "componentType": 5126, "count": 14, "type": "VEC3"}, {"bufferView": 3, "byteOffset": 0, "componentType": 5123, "count": 24, "type": "SCALAR"}, {"bufferView": 4, "byteOffset": 0, "componentType": 5126, "count": 80, "type": "VEC3", "min": [-0.27880859375, 0.112548828125, -0.091064453125], "max": [0.259521484375, 0.6337890625, 0.091064453125]}, {"bufferView": 5, "byteOffset": 0, "componentType": 5126, "count": 80, "type": "VEC2"}, {"bufferView": 6, "byteOffset": 0, "componentType": 5126, "count": 80, "type": "VEC3"}, {"bufferView": 7, "byteOffset": 0, "componentType": 5123, "count": 120, "type": "SCALAR"}, {"bufferView": 8, "byteOffset": 0, "componentType": 5126, "count": 43, "type": "VEC3", "min": [-0.0869140625, 0.0, -0.077880859375], "max": [0.09423828125, 0.273681640625, 0.091796875]}, {"bufferView": 9, "byteOffset": 0, "componentType": 5126, "count": 43, "type": "VEC2"}, {"bufferView": 10, "byteOffset": 0, "componentType": 5126, "count": 43, "type": "VEC3"}, {"bufferView": 11, "byteOffset": 0, "componentType": 5123, "count": 87, "type": "SCALAR"}], "samplers": [{"magFilter": 9729, "minFilter": 9729, "wrapS": 10497, "wrapT": 10497}]}