{"asset": {"version": "2.0", "generator": "tongari-nsbmd-to-gltf"}, "scene": 0, "scenes": [{"nodes": [0, 1]}], "nodes": [{"name": "kg_20_ta0", "translation": [0.0, 0.0, 0.0]}, {"mesh": 0, "name": "3609kg_20_ta0"}], "meshes": [{"name": "3609kg_20_ta0", "primitives": [{"attributes": {"POSITION": 0, "TEXCOORD_0": 1, "NORMAL": 2}, "indices": 3, "mode": 4, "material": 0}]}], "materials": [{"name": "ta_mat_200", "pbrMetallicRoughness": {"baseColorFactor": [1.0, 1.0, 1.0, 1.0], "metallicFactor": 0.0, "roughnessFactor": 1.0}, "alphaMode": "OPAQUE", "doubleSided": true}], "buffers": [{"byteLength": 4452, "uri": "data:application/octet-stream;base64,"}], "bufferViews": [{"buffer": 0, "byteOffset": 0, "byteLength": 1512}, {"buffer": 0, "byteOffset": 1512, "byteLength": 1008}, {"buffer": 0, "byteOffset": 2520, "byteLength": 1512}, {"buffer": 0, "byteOffset": 4032, "byteLength": 420}], "accessors": [{"bufferView": 0, "byteOffset": 0, "componentType": 5126, "count": 126, "type": "VEC3", "min": [-1.499267578125, 0.0029296875, -1.999267578125], "max": [0.499267578125, 0.982666015625, -0.000732421875]}, {"bufferView": 1, "byteOffset": 0, "componentType": 5126, "count": 126, "type": "VEC2"}, {"bufferView": 2, "byteOffset": 0, "componentType": 5126, "count": 126, "type": "VEC3"}, {"bufferView": 3, "byteOffset": 0, "componentType": 5123, "count": 210, "type": "SCALAR"}], "samplers": [{"magFilter": 9729, "minFilter": 9729, "wrapS": 10497, "wrapT": 10497}]}