{"asset": {"version": "2.0", "generator": "tongari-nsbmd-to-gltf"}, "scene": 0, "scenes": [{"nodes": [0, 1]}], "nodes": [{"name": "kg3_ser23", "translation": [0.0, 0.0, 0.0]}, {"mesh": 0, "name": "3842kg3_ser23"}], "meshes": [{"name": "3842kg3_ser23", "primitives": [{"attributes": {"POSITION": 0, "TEXCOORD_0": 1, "NORMAL": 2}, "indices": 3, "mode": 4, "material": 1}, {"attributes": {"POSITION": 4, "TEXCOORD_0": 5, "NORMAL": 6}, "indices": 7, "mode": 4, "material": 0}, {"attributes": {"POSITION": 8, "TEXCOORD_0": 9, "NORMAL": 10}, "indices": 11, "mode": 4, "material": 2}]}], "materials": [{"name": "ser23_0", "pbrMetallicRoughness": {"baseColorFactor": [1.0, 1.0, 1.0, 1.0], "metallicFactor": 0.0, "roughnessFactor": 1.0}, "alphaMode": "OPAQUE", "doubleSided": true}, {"name": "ser23_1", "pbrMetallicRoughness": {"baseColorFactor": [1.0, 1.0, 1.0, 1.0], "metallicFactor": 0.0, "roughnessFactor": 1.0}, "alphaMode": "OPAQUE", "doubleSided": true}, {"name": "ser23_2", "pbrMetallicRoughness": {"baseColorFactor": [1.0, 1.0, 1.0, 1.0], "metallicFactor": 0.0, "roughnessFactor": 1.0}, "alphaMode": "OPAQUE", "doubleSided": true}], "buffers": [{"byteLength": 4772, "uri": "data:application/octet-stream;base64,"}], "bufferViews": [{"buffer": 0, "byteOffset": 0, "byteLength": 816}, {"buffer": 0, "byteOffset": 816, "byteLength": 544}, {"buffer": 0, "byteOffset": 1360, "byteLength": 816}, {"buffer": 0, "byteOffset": 2176, "byteLength": 180}, {"buffer": 0, "byteOffset": 2356, "byteLength": 288}, {"buffer": 0, "byteOffset": 2644, "byteLength": 192}, {"buffer": 0, "byteOffset": 2836, "byteLength": 288}, {"buffer": 0, "byteOffset": 3124, "byteLength": 96}, {"buffer": 0, "byteOffset": 3220, "byteLength": 528}, {"buffer": 0, "byteOffset": 3748, "byteLength": 352}, {"buffer": 0, "byteOffset": 4100, "byteLength": 528}, {"buffer": 0, "byteOffset": 4628, "byteLength": 144}], "accessors": [{"bufferView": 0, "byteOffset": 0, "componentType": 5126, "count": 68, "type": "VEC3", "min": [-0.943603515625, 0.0, -0.95263671875], "max": [0.97998046875, 0.635986328125, 0.95263671875]}, {"bufferView": 1, "byteOffset": 0, "componentType": 5126, "count": 68, "type": "VEC2"}, {"bufferView": 2, "byteOffset": 0, "componentType": 5126, "count": 68, "type": "VEC3"}, {"bufferView": 3, "byteOffset": 0, "componentType": 5123, "count": 90, "type": "SCALAR"}, {"bufferView": 4, "byteOffset": 0, "componentType": 5126, "count": 24, "type": "VEC3", "min": [-0.943603515625, 0.086181640625, -0.95263671875], "max": [0.817626953125, 1.6591796875, 0.95263671875]}, {"bufferView": 5, "byteOffset": 0, "componentType": 5126, "count": 24, "type": "VEC2"}, {"bufferView": 6, "byteOffset": 0, "componentType": 5126, "count": 24, "type": "VEC3"}, {"bufferView": 7, "byteOffset": 0, "componentType": 5123, "count": 48, "type": "SCALAR"}, {"bufferView": 8, "byteOffset": 0, "componentType": 5126, "count": 44, "type": "VEC3", "min": [-0.8798828125, 0.460693359375, -0.858642578125], "max": [-0.531494140625, 1.621337890625, 0.818603515625]}, {"bufferView": 9, "byteOffset": 0, "componentType": 5126, "count": 44, "type": "VEC2"}, {"bufferView": 10, "byteOffset": 0, "componentType": 5126, "count": 44, "type": "VEC3"}, {"bufferView": 11, "byteOffset": 0, "componentType": 5123, "count": 72, "type": "SCALAR"}], "samplers": [{"magFilter": 9729, "minFilter": 9729, "wrapS": 10497, "wrapT": 10497}]}