{"asset": {"version": "2.0", "generator": "tongari-nsbmd-to-gltf"}, "scene": 0, "scenes": [{"nodes": [0, 1]}], "nodes": [{"name": "polySurface391", "translation": [0.0, 0.0, 0.0]}, {"mesh": 0, "name": "sh_r_bar"}], "meshes": [{"name": "sh_r_bar", "primitives": [{"attributes": {"POSITION": 0, "TEXCOORD_0": 1}, "indices": 2, "mode": 4, "material": 13}, {"attributes": {"POSITION": 3, "TEXCOORD_0": 4, "NORMAL": 5}, "indices": 6, "mode": 4, "material": 9}, {"attributes": {"POSITION": 7, "TEXCOORD_0": 8}, "indices": 9, "mode": 4, "material": 33}, {"attributes": {"POSITION": 10, "TEXCOORD_0": 11, "NORMAL": 12}, "indices": 13, "mode": 4, "material": 31}, {"attributes": {"POSITION": 14, "TEXCOORD_0": 15}, "indices": 16, "mode": 4, "material": 10}, {"attributes": {"POSITION": 17, "TEXCOORD_0": 18}, "indices": 19, "mode": 4, "material": 27}, {"attributes": {"POSITION": 20, "TEXCOORD_0": 21, "NORMAL": 22}, "indices": 23, "mode": 4, "material": 12}, {"attributes": {"POSITION": 24, "TEXCOORD_0": 25}, "indices": 26, "mode": 4, "material": 11}, {"attributes": {"POSITION": 27, "TEXCOORD_0": 28}, "indices": 29, "mode": 4, "material": 28}, {"attributes": {"POSITION": 30, "TEXCOORD_0": 31, "NORMAL": 32}, "indices": 33, "mode": 4, "material": 25}, {"attributes": {"POSITION": 34, "TEXCOORD_0": 35, "NORMAL": 36}, "indices": 37, "mode": 4, "material": 15}, {"attributes": {"POSITION": 38, "TEXCOORD_0": 39, "NORMAL": 40}, "indices": 41, "mode": 4, "material": 14}, {"attributes": {"POSITION": 42, "TEXCOORD_0": 43}, "indices": 44, "mode": 4, "material": 0}, {"attributes": {"POSITION": 45, "TEXCOORD_0": 46}, "indices": 47, "mode": 4, "material": 32}, {"attributes": {"POSITION": 48, "TEXCOORD_0": 49, "NORMAL": 50}, "indices": 51, "mode": 4, "material": 3}, {"attributes": {"POSITION": 52, "TEXCOORD_0": 53, "NORMAL": 54}, "indices": 55, "mode": 4, "material": 4}, {"attributes": {"POSITION": 56, "TEXCOORD_0": 57, "NORMAL": 58}, "indices": 59, "mode": 4, "material": 6}, {"attributes": {"POSITION": 60, "TEXCOORD_0": 61, "NORMAL": 62}, "indices": 63, "mode": 4, "material": 5}, {"attributes": {"POSITION": 64, "TEXCOORD_0": 65, "NORMAL": 66}, "indices": 67, "mode": 4, "material": 19}, {"attributes": {"POSITION": 68, "TEXCOORD_0": 69, "NORMAL": 70}, "indices": 71, "mode": 4, "material": 7}, {"attributes": {"POSITION": 72, "TEXCOORD_0": 73, "NORMAL": 74}, "indices": 75, "mode": 4, "material": 22}, {"attributes": {"POSITION": 76, "TEXCOORD_0": 77, "NORMAL": 78}, "indices": 79, "mode": 4, "material": 8}, {"attributes": {"POSITION": 80, "TEXCOORD_0": 81, "NORMAL": 82}, "indices": 83, "mode": 4, "material": 20}, {"attributes": {"POSITION": 84, "TEXCOORD_0": 85, "NORMAL": 86}, "indices": 87, "mode": 4, "material": 21}, {"attributes": {"POSITION": 88, "TEXCOORD_0": 89, "NORMAL": 90}, "indices": 91, "mode": 4, "material": 30}, {"attributes": {"POSITION": 92, "TEXCOORD_0": 93, "NORMAL": 94}, "indices": 95, "mode": 4, "material": 29}, {"attributes": {"POSITION": 96, "TEXCOORD_0": 97, "NORMAL": 98}, "indices": 99, "mode": 4, "material": 26}, {"attributes": {"POSITION": 100, "TEXCOORD_0": 101}, "indices": 102, "mode": 4, "material": 24}, {"attributes": {"POSITION": 103, "TEXCOORD_0": 104, "NORMAL": 105}, "indices": 106, "mode": 4, "material": 23}, {"attributes": {"POSITION": 107, "TEXCOORD_0": 108, "NORMAL": 109}, "indices": 110, "mode": 4, "material": 1}, {"attributes": {"POSITION": 111, "TEXCOORD_0": 112, "NORMAL": 113}, "indices": 114, "mode": 4, "material": 2}, {"attributes": {"POSITION": 115, "TEXCOORD_0": 116, "NORMAL": 117}, "indices": 118, "mode": 4, "material": 16}, {"attributes": {"POSITION": 119, "TEXCOORD_0": 120, "NORMAL": 121}, "indices": 122, "mode": 4, "material": 17}, {"attributes": {"POSITION": 123, "TEXCOORD_0": 124, "NORMAL": 125}, "indices": 126, "mode": 4, "material": 18}]}], "materials": [{"name": "floor", "pbrMetallicRoughness": {"baseColorFactor": [1.0, 1.0, 1.0, 1.0], "metallicFactor": 0.0, "roughnessFactor": 1.0}, "alphaMode": "OPAQUE", "doubleSided": true}, {"name": "flower0", "pbrMetallicRoughness": {"baseColorFactor": [1.0, 1.0, 1.0, 1.0], "metallicFactor": 0.0, "roughnessFactor": 1.0}, "alphaMode": "OPAQUE", "doubleSided": true}, {"name": "flower1", "pbrMetallicRoughness": {"baseColorFactor": [1.0, 1.0, 1.0, 1.0], "metallicFactor": 0.0, "roughnessFactor": 1.0}, "alphaMode": "OPAQUE", "doubleSided": true}, {"name": "imel01_01_0", "pbrMetallicRoughness": {"baseColorFactor": [1.0, 1.0, 1.0, 1.0], "metallicFactor": 0.0, "roughnessFactor": 1.0}, "alphaMode": "OPAQUE", "doubleSided": true}, {"name": "imel01_01_1", "pbrMetallicRoughness": {"baseColorFactor": [1.0, 1.0, 1.0, 1.0], "metallicFactor": 0.0, "roughnessFactor": 1.0}, "alphaMode": "OPAQUE", "doubleSided": true}, {"name": "imel01_01_2", "pbrMetallicRoughness": {"baseColorFactor": [1.0, 1.0, 1.0, 1.0], "metallicFactor": 0.0, "roughnessFactor": 1.0}, "alphaMode": "OPAQUE", "doubleSided": true}, {"name": "imel01_01_3", "pbrMetallicRoughness": {"baseColorFactor": [1.0, 1.0, 1.0, 1.0], "metallicFactor": 0.0, "roughnessFactor": 1.0}, "alphaMode": "OPAQUE", "doubleSided": true}, {"name": "lambert178", "pbrMetallicRoughness": {"baseColorFactor": [1.0, 1.0, 1.0, 1.0], "metallicFactor": 0.0, "roughnessFactor": 1.0}, "alphaMode": "OPAQUE", "doubleSided": true}, {"name": "lambert179", "pbrMetallicRoughness": {"baseColorFactor": [1.0, 1.0, 1.0, 1.0], "metallicFactor": 0.0, "roughnessFactor": 1.0}, "alphaMode": "OPAQUE", "doubleSided": true}, {"name": "object_shade", "pbrMetallicRoughness": {"baseColorFactor": [0.803921568627451, 0.803921568627451, 0.803921568627451, 0.41935483870967744], "metallicFactor": 0.0, "roughnessFactor": 1.0}, "alphaMode": "BLEND", "doubleSided": true}, {"name": "r_bar_ashi", "pbrMetallicRoughness": {"baseColorFactor": [1.0, 1.0, 1.0, 1.0], "metallicFactor": 0.0, "roughnessFactor": 1.0}, "alphaMode": "OPAQUE", "doubleSided": true}, {"name": "r_bar_c00", "pbrMetallicRoughness": {"baseColorFactor": [1.0, 1.0, 1.0, 1.0], "metallicFactor": 0.0, "roughnessFactor": 1.0}, "alphaMode": "OPAQUE", "doubleSided": true}, {"name": "r_bar_c01", "pbrMetallicRoughness": {"baseColorFactor": [1.0, 1.0, 1.0, 1.0], "metallicFactor": 0.0, "roughnessFactor": 1.0}, "alphaMode": "OPAQUE", "doubleSided": true}, {"name": "r_bar_cheir00", "pbrMetallicRoughness": {"baseColorFactor": [1.0, 1.0, 1.0, 1.0], "metallicFactor": 0.0, "roughnessFactor": 1.0}, "alphaMode": "OPAQUE", "doubleSided": true}, {"name": "r_bar_door00", "pbrMetallicRoughness": {"baseColorFactor": [1.0, 1.0, 1.0, 1.0], "metallicFactor": 0.0, "roughnessFactor": 1.0}, "alphaMode": "OPAQUE", "doubleSided": true}, {"name": "r_bar_door01", "pbrMetallicRoughness": {"baseColorFactor": [1.0, 1.0, 1.0, 1.0], "metallicFactor": 0.0, "roughnessFactor": 1.0}, "alphaMode": "OPAQUE", "doubleSided": true}, {"name": "r_bar_flower2", "pbrMetallicRoughness": {"baseColorFactor": [1.0, 1.0, 1.0, 1.0], "metallicFactor": 0.0, "roughnessFactor": 1.0}, "alphaMode": "OPAQUE", "doubleSided": true}, {"name": "r_bar_fro00", "pbrMetallicRoughness": {"baseColorFactor": [1.0, 1.0, 1.0, 1.0], "metallicFactor": 0.0, "roughnessFactor": 1.0}, "alphaMode": "OPAQUE", "doubleSided": true}, {"name": "r_bar_grass00", "pbrMetallicRoughness": {"baseColorFactor": [1.0, 1.0, 1.0, 1.0], "metallicFactor": 0.0, "roughnessFactor": 1.0}, "alphaMode": "OPAQUE", "doubleSided": true}, {"name": "r_bar_juice00", "pbrMetallicRoughness": {"baseColorFactor": [1.0, 1.0, 1.0, 1.0], "metallicFactor": 0.0, "roughnessFactor": 1.0}, "alphaMode": "OPAQUE", "doubleSided": true}, {"name": "r_bar_juice01", "pbrMetallicRoughness": {"baseColorFactor": [1.0, 1.0, 1.0, 1.0], "metallicFactor": 0.0, "roughnessFactor": 1.0}, "alphaMode": "OPAQUE", "doubleSided": true}, {"name": "r_bar_juice02", "pbrMetallicRoughness": {"baseColorFactor": [1.0, 1.0, 1.0, 1.0], "metallicFactor": 0.0, "roughnessFactor": 1.0}, "alphaMode": "OPAQUE", "doubleSided": true}, {"name": "r_bar_juice03", "pbrMetallicRoughness": {"baseColorFactor": [1.0, 1.0, 1.0, 1.0], "metallicFactor": 0.0, "roughnessFactor": 1.0}, "alphaMode": "OPAQUE", "doubleSided": true}, {"name": "r_bar_lt00", "pbrMetallicRoughness": {"baseColorFactor": [1.0, 1.0, 1.0, 1.0], "metallicFactor": 0.0, "roughnessFactor": 1.0}, "alphaMode": "OPAQUE", "doubleSided": true}, {"name": "r_bar_lt01", "pbrMetallicRoughness": {"baseColorFactor": [1.0, 1.0, 1.0, 0.6129032258064516], "metallicFactor": 0.0, "roughnessFactor": 1.0}, "alphaMode": "BLEND", "doubleSided": true}, {"name": "r_bar_pi00", "pbrMetallicRoughness": {"baseColorFactor": [1.0, 1.0, 1.0, 1.0], "metallicFactor": 0.0, "roughnessFactor": 1.0}, "alphaMode": "OPAQUE", "doubleSided": true}, {"name": "r_bar_suido", "pbrMetallicRoughness": {"baseColorFactor": [1.0, 1.0, 1.0, 1.0], "metallicFactor": 0.0, "roughnessFactor": 1.0}, "alphaMode": "OPAQUE", "doubleSided": true}, {"name": "r_bar_table00", "pbrMetallicRoughness": {"baseColorFactor": [1.0, 1.0, 1.0, 1.0], "metallicFactor": 0.0, "roughnessFactor": 1.0}, "alphaMode": "OPAQUE", "doubleSided": true}, {"name": "r_bar_tana00", "pbrMetallicRoughness": {"baseColorFactor": [1.0, 1.0, 1.0, 1.0], "metallicFactor": 0.0, "roughnessFactor": 1.0}, "alphaMode": "OPAQUE", "doubleSided": true}, {"name": "r_zakka_cdd2", "pbrMetallicRoughness": {"baseColorFactor": [1.0, 1.0, 1.0, 1.0], "metallicFactor": 0.0, "roughnessFactor": 1.0}, "alphaMode": "OPAQUE", "doubleSided": true}, {"name": "r_zakka_sp00", "pbrMetallicRoughness": {"baseColorFactor": [1.0, 1.0, 1.0, 1.0], "metallicFactor": 0.0, "roughnessFactor": 1.0}, "alphaMode": "OPAQUE", "doubleSided": true}, {"name": "shade_shade", "pbrMetallicRoughness": {"baseColorFactor": [0.803921568627451, 0.803921568627451, 0.803921568627451, 1.0], "metallicFactor": 0.0, "roughnessFactor": 1.0}, "alphaMode": "OPAQUE", "doubleSided": true}, {"name": "wall", "pbrMetallicRoughness": {"baseColorFactor": [1.0, 1.0, 1.0, 1.0], "metallicFactor": 0.0, "roughnessFactor": 1.0}, "alphaMode": "OPAQUE", "doubleSided": true}, {"name": "wall01", "pbrMetallicRoughness": {"baseColorFactor": [1.0, 1.0, 1.0, 1.0], "metallicFactor": 0.0, "roughnessFactor": 1.0}, "alphaMode": "OPAQUE", "doubleSided": true}], "buffers": [{"byteLength": 51180, "uri": "data:application/octet-stream;base64,"}], "bufferViews": [{"buffer": 0, "byteOffset": 0, "byteLength": 2688}, {"buffer": 0, "byteOffset": 2688, "byteLength": 1792}, {"buffer": 0, "byteOffset": 4480, "byteLength": 792}, {"buffer": 0, "byteOffset": 5272, "byteLength": 312}, {"buffer": 0, "byteOffset": 5584, "byteLength": 208}, {"buffer": 0, "byteOffset": 5792, "byteLength": 312}, {"buffer": 0, "byteOffset": 6104, "byteLength": 96}, {"buffer": 0, "byteOffset": 6200, "byteLength": 48}, {"buffer": 0, "byteOffset": 6248, "byteLength": 32}, {"buffer": 0, "byteOffset": 6280, "byteLength": 12}, {"buffer": 0, "byteOffset": 6292, "byteLength": 384}, {"buffer": 0, "byteOffset": 6676, "byteLength": 256}, {"buffer": 0, "byteOffset": 6932, "byteLength": 384}, {"buffer": 0, "byteOffset": 7316, "byteLength": 108}, {"buffer": 0, "byteOffset": 7424, "byteLength": 792}, {"buffer": 0, "byteOffset": 8216, "byteLength": 528}, {"buffer": 0, "byteOffset": 8744, "byteLength": 324}, {"buffer": 0, "byteOffset": 9068, "byteLength": 336}, {"buffer": 0, "byteOffset": 9404, "byteLength": 224}, {"buffer": 0, "byteOffset": 9628, "byteLength": 120}, {"buffer": 0, "byteOffset": 9748, "byteLength": 384}, {"buffer": 0, "byteOffset": 10132, "byteLength": 256}, {"buffer": 0, "byteOffset": 10388, "byteLength": 384}, {"buffer": 0, "byteOffset": 10772, "byteLength": 108}, {"buffer": 0, "byteOffset": 10880, "byteLength": 48}, {"buffer": 0, "byteOffset": 10928, "byteLength": 32}, {"buffer": 0, "byteOffset": 10960, "byteLength": 12}, {"buffer": 0, "byteOffset": 10972, "byteLength": 720}, {"buffer": 0, "byteOffset": 11692, "byteLength": 480}, {"buffer": 0, "byteOffset": 12172, "byteLength": 240}, {"buffer": 0, "byteOffset": 12412, "byteLength": 408}, {"buffer": 0, "byteOffset": 12820, "byteLength": 272}, {"buffer": 0, "byteOffset": 13092, "byteLength": 408}, {"buffer": 0, "byteOffset": 13500, "byteLength": 144}, {"buffer": 0, "byteOffset": 13644, "byteLength": 48}, {"buffer": 0, "byteOffset": 13692, "byteLength": 32}, {"buffer": 0, "byteOffset": 13724, "byteLength": 48}, {"buffer": 0, "byteOffset": 13772, "byteLength": 12}, {"buffer": 0, "byteOffset": 13784, "byteLength": 120}, {"buffer": 0, "byteOffset": 13904, "byteLength": 80}, {"buffer": 0, "byteOffset": 13984, "byteLength": 120}, {"buffer": 0, "byteOffset": 14104, "byteLength": 36}, {"buffer": 0, "byteOffset": 14140, "byteLength": 144}, {"buffer": 0, "byteOffset": 14284, "byteLength": 96}, {"buffer": 0, "byteOffset": 14380, "byteLength": 48}, {"buffer": 0, "byteOffset": 14428, "byteLength": 360}, {"buffer": 0, "byteOffset": 14788, "byteLength": 240}, {"buffer": 0, "byteOffset": 15028, "byteLength": 120}, {"buffer": 0, "byteOffset": 15148, "byteLength": 192}, {"buffer": 0, "byteOffset": 15340, "byteLength": 128}, {"buffer": 0, "byteOffset": 15468, "byteLength": 192}, {"buffer": 0, "byteOffset": 15660, "byteLength": 48}, {"buffer": 0, "byteOffset": 15708, "byteLength": 492}, {"buffer": 0, "byteOffset": 16200, "byteLength": 328}, {"buffer": 0, "byteOffset": 16528, "byteLength": 492}, {"buffer": 0, "byteOffset": 17020, "byteLength": 126}, {"buffer": 0, "byteOffset": 17148, "byteLength": 312}, {"buffer": 0, "byteOffset": 17460, "byteLength": 208}, {"buffer": 0, "byteOffset": 17668, "byteLength": 312}, {"buffer": 0, "byteOffset": 17980, "byteLength": 84}, {"buffer": 0, "byteOffset": 18064, "byteLength": 720}, {"buffer": 0, "byteOffset": 18784, "byteLength": 480}, {"buffer": 0, "byteOffset": 19264, "byteLength": 720}, {"buffer": 0, "byteOffset": 19984, "byteLength": 156}, {"buffer": 0, "byteOffset": 20140, "byteLength": 1728}, {"buffer": 0, "byteOffset": 21868, "byteLength": 1152}, {"buffer": 0, "byteOffset": 23020, "byteLength": 1728}, {"buffer": 0, "byteOffset": 24748, "byteLength": 648}, {"buffer": 0, "byteOffset": 25396, "byteLength": 576}, {"buffer": 0, "byteOffset": 25972, "byteLength": 384}, {"buffer": 0, "byteOffset": 26356, "byteLength": 576}, {"buffer": 0, "byteOffset": 26932, "byteLength": 216}, {"buffer": 0, "byteOffset": 27148, "byteLength": 864}, {"buffer": 0, "byteOffset": 28012, "byteLength": 576}, {"buffer": 0, "byteOffset": 28588, "byteLength": 864}, {"buffer": 0, "byteOffset": 29452, "byteLength": 324}, {"buffer": 0, "byteOffset": 29776, "byteLength": 576}, {"buffer": 0, "byteOffset": 30352, "byteLength": 384}, {"buffer": 0, "byteOffset": 30736, "byteLength": 576}, {"buffer": 0, "byteOffset": 31312, "byteLength": 216}, {"buffer": 0, "byteOffset": 31528, "byteLength": 1440}, {"buffer": 0, "byteOffset": 32968, "byteLength": 960}, {"buffer": 0, "byteOffset": 33928, "byteLength": 1440}, {"buffer": 0, "byteOffset": 35368, "byteLength": 540}, {"buffer": 0, "byteOffset": 35908, "byteLength": 1152}, {"buffer": 0, "byteOffset": 37060, "byteLength": 768}, {"buffer": 0, "byteOffset": 37828, "byteLength": 1152}, {"buffer": 0, "byteOffset": 38980, "byteLength": 432}, {"buffer": 0, "byteOffset": 39412, "byteLength": 120}, {"buffer": 0, "byteOffset": 39532, "byteLength": 80}, {"buffer": 0, "byteOffset": 39612, "byteLength": 120}, {"buffer": 0, "byteOffset": 39732, "byteLength": 36}, {"buffer": 0, "byteOffset": 39768, "byteLength": 120}, {"buffer": 0, "byteOffset": 39888, "byteLength": 80}, {"buffer": 0, "byteOffset": 39968, "byteLength": 120}, {"buffer": 0, "byteOffset": 40088, "byteLength": 36}, {"buffer": 0, "byteOffset": 40124, "byteLength": 576}, {"buffer": 0, "byteOffset": 40700, "byteLength": 384}, {"buffer": 0, "byteOffset": 41084, "byteLength": 576}, {"buffer": 0, "byteOffset": 41660, "byteLength": 168}, {"buffer": 0, "byteOffset": 41828, "byteLength": 144}, {"buffer": 0, "byteOffset": 41972, "byteLength": 96}, {"buffer": 0, "byteOffset": 42068, "byteLength": 36}, {"buffer": 0, "byteOffset": 42104, "byteLength": 648}, {"buffer": 0, "byteOffset": 42752, "byteLength": 432}, {"buffer": 0, "byteOffset": 43184, "byteLength": 648}, {"buffer": 0, "byteOffset": 43832, "byteLength": 288}, {"buffer": 0, "byteOffset": 44120, "byteLength": 288}, {"buffer": 0, "byteOffset": 44408, "byteLength": 192}, {"buffer": 0, "byteOffset": 44600, "byteLength": 288}, {"buffer": 0, "byteOffset": 44888, "byteLength": 72}, {"buffer": 0, "byteOffset": 44960, "byteLength": 144}, {"buffer": 0, "byteOffset": 45104, "byteLength": 96}, {"buffer": 0, "byteOffset": 45200, "byteLength": 144}, {"buffer": 0, "byteOffset": 45344, "byteLength": 36}, {"buffer": 0, "byteOffset": 45380, "byteLength": 384}, {"buffer": 0, "byteOffset": 45764, "byteLength": 256}, {"buffer": 0, "byteOffset": 46020, "byteLength": 384}, {"buffer": 0, "byteOffset": 46404, "byteLength": 144}, {"buffer": 0, "byteOffset": 46548, "byteLength": 420}, {"buffer": 0, "byteOffset": 46968, "byteLength": 280}, {"buffer": 0, "byteOffset": 47248, "byteLength": 420}, {"buffer": 0, "byteOffset": 47668, "byteLength": 150}, {"buffer": 0, "byteOffset": 47820, "byteLength": 1080}, {"buffer": 0, "byteOffset": 48900, "byteLength": 720}, {"buffer": 0, "byteOffset": 49620, "byteLength": 1080}, {"buffer": 0, "byteOffset": 50700, "byteLength": 480}], "accessors": [{"bufferView": 0, "byteOffset": 0, "componentType": 5126, "count": 224, "type": "VEC3", "min": [0.970703125, 0.103515625, 1.87109375], "max": [3.67919921875, 0.218017578125, 2.361572265625]}, {"bufferView": 1, "byteOffset": 0, "componentType": 5126, "count": 224, "type": "VEC2"}, {"bufferView": 2, "byteOffset": 0, "componentType": 5123, "count": 396, "type": "SCALAR"}, {"bufferView": 3, "byteOffset": 0, "componentType": 5126, "count": 26, "type": "VEC3", "min": [0.5, 0.007080078125, 0.449951171875], "max": [4.5, 0.010986328125, 2.401611328125]}, {"bufferView": 4, "byteOffset": 0, "componentType": 5126, "count": 26, "type": "VEC2"}, {"bufferView": 5, "byteOffset": 0, "componentType": 5126, "count": 26, "type": "VEC3"}, {"bufferView": 6, "byteOffset": 0, "componentType": 5123, "count": 48, "type": "SCALAR"}, {"bufferView": 7, "byteOffset": 0, "componentType": 5126, "count": 4, "type": "VEC3", "min": [2.0, 0.0, 4.0], "max": [3.0, 0.0, 4.5]}, {"bufferView": 8, "byteOffset": 0, "componentType": 5126, "count": 4, "type": "VEC2"}, {"bufferView": 9, "byteOffset": 0, "componentType": 5123, "count": 6, "type": "SCALAR"}, {"bufferView": 10, "byteOffset": 0, "componentType": 5126, "count": 32, "type": "VEC3", "min": [0.25, 2.0, 2.236572265625], "max": [4.800048828125, 2.426513671875, 4.409423828125]}, {"bufferView": 11, "byteOffset": 0, "componentType": 5126, "count": 32, "type": "VEC2"}, {"bufferView": 12, "byteOffset": 0, "componentType": 5126, "count": 32, "type": "VEC3"}, {"bufferView": 13, "byteOffset": 0, "componentType": 5123, "count": 54, "type": "SCALAR"}, {"bufferView": 14, "byteOffset": 0, "componentType": 5126, "count": 66, "type": "VEC3", "min": [1.081298828125, 0.020751953125, 1.96923828125], "max": [3.568603515625, 0.209716796875, 2.261474609375]}, {"bufferView": 15, "byteOffset": 0, "componentType": 5126, "count": 66, "type": "VEC2"}, {"bufferView": 16, "byteOffset": 0, "componentType": 5123, "count": 162, "type": "SCALAR"}, {"bufferView": 17, "byteOffset": 0, "componentType": 5126, "count": 28, "type": "VEC3", "min": [0.5, 0.0, 3.5], "max": [0.89990234375, 0.375, 4.0]}, {"bufferView": 18, "byteOffset": 0, "componentType": 5126, "count": 28, "type": "VEC2"}, {"bufferView": 19, "byteOffset": 0, "componentType": 5123, "count": 60, "type": "SCALAR"}, {"bufferView": 20, "byteOffset": 0, "componentType": 5126, "count": 32, "type": "VEC3", "min": [0.5, 0.300048828125, 1.550048828125], "max": [4.5, 0.35009765625, 1.9765625]}, {"bufferView": 21, "byteOffset": 0, "componentType": 5126, "count": 32, "type": "VEC2"}, {"bufferView": 22, "byteOffset": 0, "componentType": 5126, "count": 32, "type": "VEC3"}, {"bufferView": 23, "byteOffset": 0, "componentType": 5123, "count": 54, "type": "SCALAR"}, {"bufferView": 24, "byteOffset": 0, "componentType": 5126, "count": 4, "type": "VEC3", "min": [0.5, 0.0, 1.85009765625], "max": [4.5, 0.300048828125, 1.85009765625]}, {"bufferView": 25, "byteOffset": 0, "componentType": 5126, "count": 4, "type": "VEC2"}, {"bufferView": 26, "byteOffset": 0, "componentType": 5123, "count": 6, "type": "SCALAR"}, {"bufferView": 27, "byteOffset": 0, "componentType": 5126, "count": 60, "type": "VEC3", "min": [0.5, 0.0, 0.35009765625], "max": [4.5, 1.5, 0.64990234375]}, {"bufferView": 28, "byteOffset": 0, "componentType": 5126, "count": 60, "type": "VEC2"}, {"bufferView": 29, "byteOffset": 0, "componentType": 5123, "count": 120, "type": "SCALAR"}, {"bufferView": 30, "byteOffset": 0, "componentType": 5126, "count": 34, "type": "VEC3", "min": [0.300048828125, 0.0, 1.89990234375], "max": [4.699951171875, 2.300048828125, 4.10009765625]}, {"bufferView": 31, "byteOffset": 0, "componentType": 5126, "count": 34, "type": "VEC2"}, {"bufferView": 32, "byteOffset": 0, "componentType": 5126, "count": 34, "type": "VEC3"}, {"bufferView": 33, "byteOffset": 0, "componentType": 5123, "count": 72, "type": "SCALAR"}, {"bufferView": 34, "byteOffset": 0, "componentType": 5126, "count": 4, "type": "VEC3", "min": [4.35009765625, 0.5, 0.89990234375], "max": [4.449951171875, 0.60009765625, 0.89990234375]}, {"bufferView": 35, "byteOffset": 0, "componentType": 5126, "count": 4, "type": "VEC2"}, {"bufferView": 36, "byteOffset": 0, "componentType": 5126, "count": 4, "type": "VEC3"}, {"bufferView": 37, "byteOffset": 0, "componentType": 5123, "count": 6, "type": "SCALAR"}, {"bufferView": 38, "byteOffset": 0, "componentType": 5126, "count": 10, "type": "VEC3", "min": [4.449951171875, 0.0, 0.699951171875], "max": [4.5, 1.300048828125, 1.5]}, {"bufferView": 39, "byteOffset": 0, "componentType": 5126, "count": 10, "type": "VEC2"}, {"bufferView": 40, "byteOffset": 0, "componentType": 5126, "count": 10, "type": "VEC3"}, {"bufferView": 41, "byteOffset": 0, "componentType": 5123, "count": 18, "type": "SCALAR"}, {"bufferView": 42, "byteOffset": 0, "componentType": 5126, "count": 12, "type": "VEC3", "min": [0.5, 0.0, 0.5], "max": [4.5, 0.0, 4.0]}, {"bufferView": 43, "byteOffset": 0, "componentType": 5126, "count": 12, "type": "VEC2"}, {"bufferView": 44, "byteOffset": 0, "componentType": 5123, "count": 24, "type": "SCALAR"}, {"bufferView": 45, "byteOffset": 0, "componentType": 5126, "count": 30, "type": "VEC3", "min": [0.5, 0.0, 0.5], "max": [4.5, 2.300048828125, 4.009521484375]}, {"bufferView": 46, "byteOffset": 0, "componentType": 5126, "count": 30, "type": "VEC2"}, {"bufferView": 47, "byteOffset": 0, "componentType": 5123, "count": 60, "type": "SCALAR"}, {"bufferView": 48, "byteOffset": 0, "componentType": 5126, "count": 16, "type": "VEC3", "min": [0.512451171875, 0.40869140625, 3.53125], "max": [0.85009765625, 0.516845703125, 3.962158203125]}, {"bufferView": 49, "byteOffset": 0, "componentType": 5126, "count": 16, "type": "VEC2"}, {"bufferView": 50, "byteOffset": 0, "componentType": 5126, "count": 16, "type": "VEC3"}, {"bufferView": 51, "byteOffset": 0, "componentType": 5123, "count": 24, "type": "SCALAR"}, {"bufferView": 52, "byteOffset": 0, "componentType": 5126, "count": 41, "type": "VEC3", "min": [0.512451171875, 0.375732421875, 3.50830078125], "max": [0.8564453125, 0.57080078125, 3.962158203125]}, {"bufferView": 53, "byteOffset": 0, "componentType": 5126, "count": 41, "type": "VEC2"}, {"bufferView": 54, "byteOffset": 0, "componentType": 5126, "count": 41, "type": "VEC3"}, {"bufferView": 55, "byteOffset": 0, "componentType": 5123, "count": 63, "type": "SCALAR"}, {"bufferView": 56, "byteOffset": 0, "componentType": 5126, "count": 26, "type": "VEC3", "min": [0.567138671875, 0.42724609375, 3.538330078125], "max": [0.82763671875, 0.592041015625, 3.890380859375]}, {"bufferView": 57, "byteOffset": 0, "componentType": 5126, "count": 26, "type": "VEC2"}, {"bufferView": 58, "byteOffset": 0, "componentType": 5126, "count": 26, "type": "VEC3"}, {"bufferView": 59, "byteOffset": 0, "componentType": 5123, "count": 42, "type": "SCALAR"}, {"bufferView": 60, "byteOffset": 0, "componentType": 5126, "count": 60, "type": "VEC3", "min": [0.617919921875, 0.541259765625, 3.56298828125], "max": [0.930908203125, 0.79833984375, 3.962646484375]}, {"bufferView": 61, "byteOffset": 0, "componentType": 5126, "count": 60, "type": "VEC2"}, {"bufferView": 62, "byteOffset": 0, "componentType": 5126, "count": 60, "type": "VEC3"}, {"bufferView": 63, "byteOffset": 0, "componentType": 5123, "count": 78, "type": "SCALAR"}, {"bufferView": 64, "byteOffset": 0, "componentType": 5126, "count": 144, "type": "VEC3", "min": [0.654052734375, 0.45849609375, 0.3515625], "max": [4.02734375, 1.3740234375, 1.7626953125]}, {"bufferView": 65, "byteOffset": 0, "componentType": 5126, "count": 144, "type": "VEC2"}, {"bufferView": 66, "byteOffset": 0, "componentType": 5126, "count": 144, "type": "VEC3"}, {"bufferView": 67, "byteOffset": 0, "componentType": 5123, "count": 324, "type": "SCALAR"}, {"bufferView": 68, "byteOffset": 0, "componentType": 5126, "count": 48, "type": "VEC3", "min": [1.5234375, 0.5, 0.45751953125], "max": [2.50439453125, 1.3740234375, 0.550048828125]}, {"bufferView": 69, "byteOffset": 0, "componentType": 5126, "count": 48, "type": "VEC2"}, {"bufferView": 70, "byteOffset": 0, "componentType": 5126, "count": 48, "type": "VEC3"}, {"bufferView": 71, "byteOffset": 0, "componentType": 5123, "count": 108, "type": "SCALAR"}, {"bufferView": 72, "byteOffset": 0, "componentType": 5126, "count": 72, "type": "VEC3", "min": [0.95263671875, 0.5, 0.458251953125], "max": [3.16064453125, 1.36865234375, 0.54931640625]}, {"bufferView": 73, "byteOffset": 0, "componentType": 5126, "count": 72, "type": "VEC2"}, {"bufferView": 74, "byteOffset": 0, "componentType": 5126, "count": 72, "type": "VEC3"}, {"bufferView": 75, "byteOffset": 0, "componentType": 5123, "count": 162, "type": "SCALAR"}, {"bufferView": 76, "byteOffset": 0, "componentType": 5126, "count": 48, "type": "VEC3", "min": [1.717529296875, 0.5, 0.3515625], "max": [3.018798828125, 0.8740234375, 0.550048828125]}, {"bufferView": 77, "byteOffset": 0, "componentType": 5126, "count": 48, "type": "VEC2"}, {"bufferView": 78, "byteOffset": 0, "componentType": 5126, "count": 48, "type": "VEC3"}, {"bufferView": 79, "byteOffset": 0, "componentType": 5123, "count": 108, "type": "SCALAR"}, {"bufferView": 80, "byteOffset": 0, "componentType": 5126, "count": 120, "type": "VEC3", "min": [1.180419921875, 0.5, 0.37890625], "max": [3.8779296875, 1.3740234375, 0.550048828125]}, {"bufferView": 81, "byteOffset": 0, "componentType": 5126, "count": 120, "type": "VEC2"}, {"bufferView": 82, "byteOffset": 0, "componentType": 5126, "count": 120, "type": "VEC3"}, {"bufferView": 83, "byteOffset": 0, "componentType": 5123, "count": 270, "type": "SCALAR"}, {"bufferView": 84, "byteOffset": 0, "componentType": 5126, "count": 96, "type": "VEC3", "min": [0.680419921875, 1.0, 0.45751953125], "max": [4.214599609375, 1.3740234375, 0.550048828125]}, {"bufferView": 85, "byteOffset": 0, "componentType": 5126, "count": 96, "type": "VEC2"}, {"bufferView": 86, "byteOffset": 0, "componentType": 5126, "count": 96, "type": "VEC3"}, {"bufferView": 87, "byteOffset": 0, "componentType": 5123, "count": 216, "type": "SCALAR"}, {"bufferView": 88, "byteOffset": 0, "componentType": 5126, "count": 10, "type": "VEC3", "min": [3.85009765625, 0.5, 0.32470703125], "max": [4.35009765625, 0.85009765625, 0.5751953125]}, {"bufferView": 89, "byteOffset": 0, "componentType": 5126, "count": 10, "type": "VEC2"}, {"bufferView": 90, "byteOffset": 0, "componentType": 5126, "count": 10, "type": "VEC3"}, {"bufferView": 91, "byteOffset": 0, "componentType": 5123, "count": 18, "type": "SCALAR"}, {"bufferView": 92, "byteOffset": 0, "componentType": 5126, "count": 10, "type": "VEC3", "min": [3.14990234375, 0.5, 0.35009765625], "max": [3.85009765625, 0.699951171875, 0.64990234375]}, {"bufferView": 93, "byteOffset": 0, "componentType": 5126, "count": 10, "type": "VEC2"}, {"bufferView": 94, "byteOffset": 0, "componentType": 5126, "count": 10, "type": "VEC3"}, {"bufferView": 95, "byteOffset": 0, "componentType": 5123, "count": 18, "type": "SCALAR"}, {"bufferView": 96, "byteOffset": 0, "componentType": 5126, "count": 48, "type": "VEC3", "min": [1.550048828125, 0.105712890625, 1.511962890625], "max": [1.64990234375, 0.4736328125, 1.74267578125]}, {"bufferView": 97, "byteOffset": 0, "componentType": 5126, "count": 48, "type": "VEC2"}, {"bufferView": 98, "byteOffset": 0, "componentType": 5126, "count": 48, "type": "VEC3"}, {"bufferView": 99, "byteOffset": 0, "componentType": 5123, "count": 84, "type": "SCALAR"}, {"bufferView": 100, "byteOffset": 0, "componentType": 5126, "count": 12, "type": "VEC3", "min": [1.34765625, 1.25, 1.800048828125], "max": [3.65234375, 1.5751953125, 1.800048828125]}, {"bufferView": 101, "byteOffset": 0, "componentType": 5126, "count": 12, "type": "VEC2"}, {"bufferView": 102, "byteOffset": 0, "componentType": 5123, "count": 18, "type": "SCALAR"}, {"bufferView": 103, "byteOffset": 0, "componentType": 5126, "count": 54, "type": "VEC3", "min": [1.392333984375, 1.5751953125, 1.69482421875], "max": [3.60791015625, 1.800048828125, 1.89990234375]}, {"bufferView": 104, "byteOffset": 0, "componentType": 5126, "count": 54, "type": "VEC2"}, {"bufferView": 105, "byteOffset": 0, "componentType": 5126, "count": 54, "type": "VEC3"}, {"bufferView": 106, "byteOffset": 0, "componentType": 5123, "count": 144, "type": "SCALAR"}, {"bufferView": 107, "byteOffset": 0, "componentType": 5126, "count": 24, "type": "VEC3", "min": [3.9296875, 0.734130859375, 2.050048828125], "max": [4.358154296875, 1.245361328125, 2.199951171875]}, {"bufferView": 108, "byteOffset": 0, "componentType": 5126, "count": 24, "type": "VEC2"}, {"bufferView": 109, "byteOffset": 0, "componentType": 5126, "count": 24, "type": "VEC3"}, {"bufferView": 110, "byteOffset": 0, "componentType": 5123, "count": 36, "type": "SCALAR"}, {"bufferView": 111, "byteOffset": 0, "componentType": 5126, "count": 12, "type": "VEC3", "min": [3.80078125, 0.416748046875, 1.699951171875], "max": [4.467529296875, 1.236083984375, 1.89990234375]}, {"bufferView": 112, "byteOffset": 0, "componentType": 5126, "count": 12, "type": "VEC2"}, {"bufferView": 113, "byteOffset": 0, "componentType": 5126, "count": 12, "type": "VEC3"}, {"bufferView": 114, "byteOffset": 0, "componentType": 5123, "count": 18, "type": "SCALAR"}, {"bufferView": 115, "byteOffset": 0, "componentType": 5126, "count": 32, "type": "VEC3", "min": [4.14990234375, 0.35009765625, 1.699951171875], "max": [4.35009765625, 0.64990234375, 1.89990234375]}, {"bufferView": 116, "byteOffset": 0, "componentType": 5126, "count": 32, "type": "VEC2"}, {"bufferView": 117, "byteOffset": 0, "componentType": 5126, "count": 32, "type": "VEC3"}, {"bufferView": 118, "byteOffset": 0, "componentType": 5123, "count": 72, "type": "SCALAR"}, {"bufferView": 119, "byteOffset": 0, "componentType": 5126, "count": 35, "type": "VEC3", "min": [0.5302734375, 0.35009765625, 1.480224609375], "max": [0.9697265625, 0.617919921875, 1.919921875]}, {"bufferView": 120, "byteOffset": 0, "componentType": 5126, "count": 35, "type": "VEC2"}, {"bufferView": 121, "byteOffset": 0, "componentType": 5126, "count": 35, "type": "VEC3"}, {"bufferView": 122, "byteOffset": 0, "componentType": 5123, "count": 75, "type": "SCALAR"}, {"bufferView": 123, "byteOffset": 0, "componentType": 5126, "count": 90, "type": "VEC3", "min": [1.2685546875, 0.5, 0.358154296875], "max": [1.452392578125, 0.673583984375, 0.641845703125]}, {"bufferView": 124, "byteOffset": 0, "componentType": 5126, "count": 90, "type": "VEC2"}, {"bufferView": 125, "byteOffset": 0, "componentType": 5126, "count": 90, "type": "VEC3"}, {"bufferView": 126, "byteOffset": 0, "componentType": 5123, "count": 240, "type": "SCALAR"}], "samplers": [{"magFilter": 9729, "minFilter": 9729, "wrapS": 10497, "wrapT": 10497}]}