{"asset": {"version": "2.0", "generator": "tongari-nsbmd-to-gltf"}, "scene": 0, "scenes": [{"nodes": [0, 3]}], "nodes": [{"name": "uma_cya", "translation": [0.0, 0.0, 0.0], "children": [1]}, {"name": "group3", "translation": [2.82958984375, 0.79931640625, 4.037353515625], "children": [2]}, {"name": "polySurface1", "translation": [0.020751953125, -0.0283203125, -0.0302734375], "rotation": [-0.0008545965147316322, -0.015993163347120545, -0.0004272982573658161, 0.9998779222360098]}, {"mesh": 0, "name": "uma_tea"}], "meshes": [{"name": "uma_tea", "primitives": [{"attributes": {"POSITION": 0, "TEXCOORD_0": 1, "NORMAL": 2}, "indices": 3, "mode": 4, "material": 0}]}], "materials": [{"name": "equip08", "pbrMetallicRoughness": {"baseColorFactor": [1.0, 1.0, 1.0, 1.0], "metallicFactor": 0.0, "roughnessFactor": 1.0}, "alphaMode": "OPAQUE", "doubleSided": true}], "buffers": [{"byteLength": 2756, "uri": "data:application/octet-stream;base64,"}], "bufferViews": [{"buffer": 0, "byteOffset": 0, "byteLength": 912}, {"buffer": 0, "byteOffset": 912, "byteLength": 608}, {"buffer": 0, "byteOffset": 1520, "byteLength": 912}, {"buffer": 0, "byteOffset": 2432, "byteLength": 324}], "accessors": [{"bufferView": 0, "byteOffset": 0, "componentType": 5126, "count": 76, "type": "VEC3", "min": [-0.218505859375, -0.069091796875, -0.23095703125], "max": [0.012451171875, 0.05908203125, 0.0]}, {"bufferView": 1, "byteOffset": 0, "componentType": 5126, "count": 76, "type": "VEC2"}, {"bufferView": 2, "byteOffset": 0, "componentType": 5126, "count": 76, "type": "VEC3"}, {"bufferView": 3, "byteOffset": 0, "componentType": 5123, "count": 162, "type": "SCALAR"}], "samplers": [{"magFilter": 9729, "minFilter": 9729, "wrapS": 10497, "wrapT": 10497}]}