{"asset": {"version": "2.0", "generator": "tongari-nsbmd-to-gltf"}, "scene": 0, "scenes": [{"nodes": [0, 1]}], "nodes": [{"name": "mori_haka_b", "translation": [0.0, 0.0, 0.0]}, {"mesh": 0, "name": "mori_haka_b"}], "meshes": [{"name": "mori_haka_b", "primitives": [{"attributes": {"POSITION": 0, "TEXCOORD_0": 1, "NORMAL": 2}, "indices": 3, "mode": 4, "material": 1}, {"attributes": {"POSITION": 4, "TEXCOORD_0": 5, "NORMAL": 6}, "indices": 7, "mode": 4, "material": 0}]}], "materials": [{"name": "haka_1", "pbrMetallicRoughness": {"baseColorFactor": [1.0, 1.0, 1.0, 1.0], "metallicFactor": 0.0, "roughnessFactor": 1.0}, "alphaMode": "OPAQUE", "doubleSided": true}, {"name": "haka_2", "pbrMetallicRoughness": {"baseColorFactor": [1.0, 1.0, 1.0, 1.0], "metallicFactor": 0.0, "roughnessFactor": 1.0}, "alphaMode": "OPAQUE", "doubleSided": true}], "buffers": [{"byteLength": 1348, "uri": "data:application/octet-stream;base64,"}], "bufferViews": [{"buffer": 0, "byteOffset": 0, "byteLength": 192}, {"buffer": 0, "byteOffset": 192, "byteLength": 128}, {"buffer": 0, "byteOffset": 320, "byteLength": 192}, {"buffer": 0, "byteOffset": 512, "byteLength": 48}, {"buffer": 0, "byteOffset": 560, "byteLength": 264}, {"buffer": 0, "byteOffset": 824, "byteLength": 176}, {"buffer": 0, "byteOffset": 1000, "byteLength": 264}, {"buffer": 0, "byteOffset": 1264, "byteLength": 84}], "accessors": [{"bufferView": 0, "byteOffset": 0, "componentType": 5126, "count": 16, "type": "VEC3", "min": [-0.83984375, 0.0, -0.602783203125], "max": [0.942626953125, 0.162841796875, 0.602783203125]}, {"bufferView": 1, "byteOffset": 0, "componentType": 5126, "count": 16, "type": "VEC2"}, {"bufferView": 2, "byteOffset": 0, "componentType": 5126, "count": 16, "type": "VEC3"}, {"bufferView": 3, "byteOffset": 0, "componentType": 5123, "count": 24, "type": "SCALAR"}, {"bufferView": 4, "byteOffset": 0, "componentType": 5126, "count": 22, "type": "VEC3", "min": [-0.541259765625, 0.162841796875, -0.48388671875], "max": [0.7705078125, 1.465087890625, 0.303955078125]}, {"bufferView": 5, "byteOffset": 0, "componentType": 5126, "count": 22, "type": "VEC2"}, {"bufferView": 6, "byteOffset": 0, "componentType": 5126, "count": 22, "type": "VEC3"}, {"bufferView": 7, "byteOffset": 0, "componentType": 5123, "count": 42, "type": "SCALAR"}], "samplers": [{"magFilter": 9729, "minFilter": 9729, "wrapS": 10497, "wrapT": 10497}]}