{"asset": {"version": "2.0", "generator": "tongari-nsbmd-to-gltf"}, "scene": 0, "scenes": [{"nodes": [0, 5]}], "nodes": [{"name": "sibuki", "translation": [0.0, 0.68798828125, 0.0], "children": [1, 2, 3, 4]}, {"name": "mizu_pPlane1", "translation": [0.26025390625, -0.336669921875, -0.526123046875]}, {"name": "mizu_pPlane2", "translation": [-0.32373046875, -0.230224609375, -0.526123046875]}, {"name": "mizu_pPlane3", "translation": [0.545654296875, -0.336669921875, -0.526123046875], "rotation": [0.060557581329925385, -0.7045125198497185, -0.060557581329925385, 0.7045125198497185]}, {"name": "mizu_pPlane4", "translation": [-0.292724609375, -0.237548828125, -0.534912109375], "rotation": [-0.0032800363385118167, -0.7071067811865475, 0.0032800363385118167, 0.7071067811865476]}, {"mesh": 0, "name": "sibuki0"}], "meshes": [{"name": "sibuki0", "primitives": [{"attributes": {"POSITION": 0, "TEXCOORD_0": 1}, "indices": 2, "mode": 4, "material": 0}, {"attributes": {"POSITION": 3, "TEXCOORD_0": 4}, "indices": 5, "mode": 4, "material": 0}, {"attributes": {"POSITION": 6, "TEXCOORD_0": 7}, "indices": 8, "mode": 4, "material": 0}, {"attributes": {"POSITION": 9, "TEXCOORD_0": 10}, "indices": 11, "mode": 4, "material": 0}]}], "materials": [{"name": "mizu_suiteki", "pbrMetallicRoughness": {"baseColorFactor": [1.0, 1.0, 1.0, 1.0], "metallicFactor": 0.0, "roughnessFactor": 1.0}, "alphaMode": "OPAQUE", "doubleSided": true}], "buffers": [{"byteLength": 368, "uri": "data:application/octet-stream;base64,"}], "bufferViews": [{"buffer": 0, "byteOffset": 0, "byteLength": 48}, {"buffer": 0, "byteOffset": 48, "byteLength": 32}, {"buffer": 0, "byteOffset": 80, "byteLength": 12}, {"buffer": 0, "byteOffset": 92, "byteLength": 48}, {"buffer": 0, "byteOffset": 140, "byteLength": 32}, {"buffer": 0, "byteOffset": 172, "byteLength": 12}, {"buffer": 0, "byteOffset": 184, "byteLength": 48}, {"buffer": 0, "byteOffset": 232, "byteLength": 32}, {"buffer": 0, "byteOffset": 264, "byteLength": 12}, {"buffer": 0, "byteOffset": 276, "byteLength": 48}, {"buffer": 0, "byteOffset": 324, "byteLength": 32}, {"buffer": 0, "byteOffset": 356, "byteLength": 12}], "accessors": [{"bufferView": 0, "byteOffset": 0, "componentType": 5126, "count": 4, "type": "VEC3", "min": [-0.13729584217071533, 0.5506924390792847, 0.0], "max": [0.13729584217071533, 0.8252841234207153, 0.0]}, {"bufferView": 1, "byteOffset": 0, "componentType": 5126, "count": 4, "type": "VEC2"}, {"bufferView": 2, "byteOffset": 0, "componentType": 5123, "count": 6, "type": "SCALAR"}, {"bufferView": 3, "byteOffset": 0, "componentType": 5126, "count": 4, "type": "VEC3", "min": [-0.13729584217071533, 0.5506924390792847, 0.0], "max": [0.13729584217071533, 0.8252841234207153, 0.0]}, {"bufferView": 4, "byteOffset": 0, "componentType": 5126, "count": 4, "type": "VEC2"}, {"bufferView": 5, "byteOffset": 0, "componentType": 5123, "count": 6, "type": "SCALAR"}, {"bufferView": 6, "byteOffset": 0, "componentType": 5126, "count": 4, "type": "VEC3", "min": [-0.13729584217071533, 0.5506924390792847, 0.0], "max": [0.13729584217071533, 0.8252841234207153, 0.0]}, {"bufferView": 7, "byteOffset": 0, "componentType": 5126, "count": 4, "type": "VEC2"}, {"bufferView": 8, "byteOffset": 0, "componentType": 5123, "count": 6, "type": "SCALAR"}, {"bufferView": 9, "byteOffset": 0, "componentType": 5126, "count": 4, "type": "VEC3", "min": [-0.13729584217071533, 0.5506924390792847, 0.0], "max": [0.13729584217071533, 0.8252841234207153, 0.0]}, {"bufferView": 10, "byteOffset": 0, "componentType": 5126, "count": 4, "type": "VEC2"}, {"bufferView": 11, "byteOffset": 0, "componentType": 5123, "count": 6, "type": "SCALAR"}], "samplers": [{"magFilter": 9729, "minFilter": 9729, "wrapS": 10497, "wrapT": 10497}]}