{"asset": {"version": "2.0", "generator": "tongari-nsbmd-to-gltf"}, "scene": 0, "scenes": [{"nodes": [0, 1]}], "nodes": [{"name": "imig06_06", "translation": [0.0, 0.0, 0.0]}, {"mesh": 0, "name": "3292IMIG06_06"}], "meshes": [{"name": "3292IMIG06_06", "primitives": [{"attributes": {"POSITION": 0, "TEXCOORD_0": 1, "NORMAL": 2}, "indices": 3, "mode": 4, "material": 0}, {"attributes": {"POSITION": 4, "TEXCOORD_0": 5, "NORMAL": 6}, "indices": 7, "mode": 4, "material": 1}, {"attributes": {"POSITION": 8, "TEXCOORD_0": 9, "NORMAL": 10}, "indices": 11, "mode": 4, "material": 2}]}], "materials": [{"name": "imig06_06_0", "pbrMetallicRoughness": {"baseColorFactor": [1.0, 1.0, 1.0, 1.0], "metallicFactor": 0.0, "roughnessFactor": 1.0}, "alphaMode": "OPAQUE", "doubleSided": true}, {"name": "imig06_06_1", "pbrMetallicRoughness": {"baseColorFactor": [1.0, 1.0, 1.0, 1.0], "metallicFactor": 0.0, "roughnessFactor": 1.0}, "alphaMode": "OPAQUE", "doubleSided": true}, {"name": "imig06_06_2", "pbrMetallicRoughness": {"baseColorFactor": [1.0, 1.0, 1.0, 0.7096774193548387], "metallicFactor": 0.0, "roughnessFactor": 1.0}, "alphaMode": "BLEND", "doubleSided": true}], "buffers": [{"byteLength": 5412, "uri": "data:application/octet-stream;base64,"}], "bufferViews": [{"buffer": 0, "byteOffset": 0, "byteLength": 1032}, {"buffer": 0, "byteOffset": 1032, "byteLength": 688}, {"buffer": 0, "byteOffset": 1720, "byteLength": 1032}, {"buffer": 0, "byteOffset": 2752, "byteLength": 240}, {"buffer": 0, "byteOffset": 2992, "byteLength": 504}, {"buffer": 0, "byteOffset": 3496, "byteLength": 336}, {"buffer": 0, "byteOffset": 3832, "byteLength": 504}, {"buffer": 0, "byteOffset": 4336, "byteLength": 108}, {"buffer": 0, "byteOffset": 4444, "byteLength": 336}, {"buffer": 0, "byteOffset": 4780, "byteLength": 224}, {"buffer": 0, "byteOffset": 5004, "byteLength": 336}, {"buffer": 0, "byteOffset": 5340, "byteLength": 72}], "accessors": [{"bufferView": 0, "byteOffset": 0, "componentType": 5126, "count": 86, "type": "VEC3", "min": [-0.19580078125, -0.0009765625, -0.222900390625], "max": [0.19580078125, 0.9326171875, 0.222900390625]}, {"bufferView": 1, "byteOffset": 0, "componentType": 5126, "count": 86, "type": "VEC2"}, {"bufferView": 2, "byteOffset": 0, "componentType": 5126, "count": 86, "type": "VEC3"}, {"bufferView": 3, "byteOffset": 0, "componentType": 5123, "count": 120, "type": "SCALAR"}, {"bufferView": 4, "byteOffset": 0, "componentType": 5126, "count": 42, "type": "VEC3", "min": [-0.086181640625, 0.0, -0.086181640625], "max": [0.086181640625, 0.97265625, 0.086181640625]}, {"bufferView": 5, "byteOffset": 0, "componentType": 5126, "count": 42, "type": "VEC2"}, {"bufferView": 6, "byteOffset": 0, "componentType": 5126, "count": 42, "type": "VEC3"}, {"bufferView": 7, "byteOffset": 0, "componentType": 5123, "count": 54, "type": "SCALAR"}, {"bufferView": 8, "byteOffset": 0, "componentType": 5126, "count": 28, "type": "VEC3", "min": [-0.1572265625, 0.16650390625, -0.1572265625], "max": [0.1572265625, 0.550537109375, 0.1572265625]}, {"bufferView": 9, "byteOffset": 0, "componentType": 5126, "count": 28, "type": "VEC2"}, {"bufferView": 10, "byteOffset": 0, "componentType": 5126, "count": 28, "type": "VEC3"}, {"bufferView": 11, "byteOffset": 0, "componentType": 5123, "count": 36, "type": "SCALAR"}], "samplers": [{"magFilter": 9729, "minFilter": 9729, "wrapS": 10497, "wrapT": 10497}]}