{"asset": {"version": "2.0", "generator": "tongari-nsbmd-to-gltf"}, "scene": 0, "scenes": [{"nodes": [0, 1]}], "nodes": [{"name": "musi_kago", "translation": [0.0, 0.0, 0.0]}, {"mesh": 0, "name": "musi_kago"}], "meshes": [{"name": "musi_kago", "primitives": [{"attributes": {"POSITION": 0, "TEXCOORD_0": 1, "NORMAL": 2}, "indices": 3, "mode": 4, "material": 2}, {"attributes": {"POSITION": 4, "TEXCOORD_0": 5, "NORMAL": 6}, "indices": 7, "mode": 4, "material": 1}, {"attributes": {"POSITION": 8, "TEXCOORD_0": 9, "NORMAL": 10}, "indices": 11, "mode": 4, "material": 0}]}], "materials": [{"name": "kago00_kago00", "pbrMetallicRoughness": {"baseColorFactor": [1.0, 1.0, 1.0, 1.0], "metallicFactor": 0.0, "roughnessFactor": 1.0}, "alphaMode": "OPAQUE", "doubleSided": true}, {"name": "kago01_kago01", "pbrMetallicRoughness": {"baseColorFactor": [1.0, 1.0, 1.0, 1.0], "metallicFactor": 0.0, "roughnessFactor": 1.0}, "alphaMode": "OPAQUE", "doubleSided": true}, {"name": "kago02", "pbrMetallicRoughness": {"baseColorFactor": [0.3215686274509804, 0.9019607843137255, 1.0, 0.22580645161290322], "metallicFactor": 0.0, "roughnessFactor": 1.0}, "alphaMode": "BLEND", "doubleSided": true}], "buffers": [{"byteLength": 1820, "uri": "data:application/octet-stream;base64,"}], "bufferViews": [{"buffer": 0, "byteOffset": 0, "byteLength": 240}, {"buffer": 0, "byteOffset": 240, "byteLength": 160}, {"buffer": 0, "byteOffset": 400, "byteLength": 240}, {"buffer": 0, "byteOffset": 640, "byteLength": 60}, {"buffer": 0, "byteOffset": 700, "byteLength": 144}, {"buffer": 0, "byteOffset": 844, "byteLength": 96}, {"buffer": 0, "byteOffset": 940, "byteLength": 144}, {"buffer": 0, "byteOffset": 1084, "byteLength": 36}, {"buffer": 0, "byteOffset": 1120, "byteLength": 240}, {"buffer": 0, "byteOffset": 1360, "byteLength": 160}, {"buffer": 0, "byteOffset": 1520, "byteLength": 240}, {"buffer": 0, "byteOffset": 1760, "byteLength": 60}], "accessors": [{"bufferView": 0, "byteOffset": 0, "componentType": 5126, "count": 20, "type": "VEC3", "min": [-0.3876953125, 0.0, -0.3876953125], "max": [0.3876953125, 0.989990234375, 0.3876953125]}, {"bufferView": 1, "byteOffset": 0, "componentType": 5126, "count": 20, "type": "VEC2"}, {"bufferView": 2, "byteOffset": 0, "componentType": 5126, "count": 20, "type": "VEC3"}, {"bufferView": 3, "byteOffset": 0, "componentType": 5123, "count": 30, "type": "SCALAR"}, {"bufferView": 4, "byteOffset": 0, "componentType": 5126, "count": 12, "type": "VEC3", "min": [-0.1787109375, 0.0380859375, -0.372802734375], "max": [0.169677734375, 0.323974609375, 0.371826171875]}, {"bufferView": 5, "byteOffset": 0, "componentType": 5126, "count": 12, "type": "VEC2"}, {"bufferView": 6, "byteOffset": 0, "componentType": 5126, "count": 12, "type": "VEC3"}, {"bufferView": 7, "byteOffset": 0, "componentType": 5123, "count": 18, "type": "SCALAR"}, {"bufferView": 8, "byteOffset": 0, "componentType": 5126, "count": 20, "type": "VEC3", "min": [-0.3876953125, 0.0, -0.3876953125], "max": [0.3876953125, 0.989990234375, 0.3876953125]}, {"bufferView": 9, "byteOffset": 0, "componentType": 5126, "count": 20, "type": "VEC2"}, {"bufferView": 10, "byteOffset": 0, "componentType": 5126, "count": 20, "type": "VEC3"}, {"bufferView": 11, "byteOffset": 0, "componentType": 5123, "count": 30, "type": "SCALAR"}], "samplers": [{"magFilter": 9729, "minFilter": 9729, "wrapS": 10497, "wrapT": 10497}]}