{"asset": {"version": "2.0", "generator": "tongari-nsbmd-to-gltf"}, "scene": 0, "scenes": [{"nodes": [0, 1]}], "nodes": [{"name": "sp_art", "translation": [0.0, 0.109375, 0.275146484375]}, {"mesh": 0, "name": "sp_art"}], "meshes": [{"name": "sp_art", "primitives": [{"attributes": {"POSITION": 0, "TEXCOORD_0": 1, "NORMAL": 2}, "indices": 3, "mode": 4, "material": 4}, {"attributes": {"POSITION": 4, "TEXCOORD_0": 5, "NORMAL": 6}, "indices": 7, "mode": 4, "material": 0}, {"attributes": {"POSITION": 8, "TEXCOORD_0": 9, "NORMAL": 10}, "indices": 11, "mode": 4, "material": 1}, {"attributes": {"POSITION": 12, "TEXCOORD_0": 13, "NORMAL": 14}, "indices": 15, "mode": 4, "material": 2}, {"attributes": {"POSITION": 16, "TEXCOORD_0": 17, "NORMAL": 18}, "indices": 19, "mode": 4, "material": 3}]}], "materials": [{"name": "sp_art0", "pbrMetallicRoughness": {"baseColorFactor": [0.803921568627451, 0.803921568627451, 0.803921568627451, 1.0], "metallicFactor": 0.0, "roughnessFactor": 1.0}, "alphaMode": "OPAQUE", "doubleSided": true}, {"name": "sp_art1", "pbrMetallicRoughness": {"baseColorFactor": [0.803921568627451, 0.803921568627451, 0.803921568627451, 1.0], "metallicFactor": 0.0, "roughnessFactor": 1.0}, "alphaMode": "OPAQUE", "doubleSided": true}, {"name": "sp_art2", "pbrMetallicRoughness": {"baseColorFactor": [0.803921568627451, 0.803921568627451, 0.803921568627451, 1.0], "metallicFactor": 0.0, "roughnessFactor": 1.0}, "alphaMode": "OPAQUE", "doubleSided": true}, {"name": "sp_art3", "pbrMetallicRoughness": {"baseColorFactor": [0.803921568627451, 0.803921568627451, 0.803921568627451, 1.0], "metallicFactor": 0.0, "roughnessFactor": 1.0}, "alphaMode": "OPAQUE", "doubleSided": true}, {"name": "sp_art4", "pbrMetallicRoughness": {"baseColorFactor": [0.803921568627451, 0.803921568627451, 0.803921568627451, 1.0], "metallicFactor": 0.0, "roughnessFactor": 1.0}, "alphaMode": "OPAQUE", "doubleSided": true}], "buffers": [{"byteLength": 3964, "uri": "data:application/octet-stream;base64,"}], "bufferViews": [{"buffer": 0, "byteOffset": 0, "byteLength": 132}, {"buffer": 0, "byteOffset": 132, "byteLength": 88}, {"buffer": 0, "byteOffset": 220, "byteLength": 132}, {"buffer": 0, "byteOffset": 352, "byteLength": 30}, {"buffer": 0, "byteOffset": 384, "byteLength": 1092}, {"buffer": 0, "byteOffset": 1476, "byteLength": 728}, {"buffer": 0, "byteOffset": 2204, "byteLength": 1092}, {"buffer": 0, "byteOffset": 3296, "byteLength": 246}, {"buffer": 0, "byteOffset": 3544, "byteLength": 48}, {"buffer": 0, "byteOffset": 3592, "byteLength": 32}, {"buffer": 0, "byteOffset": 3624, "byteLength": 48}, {"buffer": 0, "byteOffset": 3672, "byteLength": 12}, {"buffer": 0, "byteOffset": 3684, "byteLength": 48}, {"buffer": 0, "byteOffset": 3732, "byteLength": 32}, {"buffer": 0, "byteOffset": 3764, "byteLength": 48}, {"buffer": 0, "byteOffset": 3812, "byteLength": 12}, {"buffer": 0, "byteOffset": 3824, "byteLength": 48}, {"buffer": 0, "byteOffset": 3872, "byteLength": 32}, {"buffer": 0, "byteOffset": 3904, "byteLength": 48}, {"buffer": 0, "byteOffset": 3952, "byteLength": 12}], "accessors": [{"bufferView": 0, "byteOffset": 0, "componentType": 5126, "count": 11, "type": "VEC3", "min": [-0.37646484375, 0.763916015625, 0.444091796875], "max": [0.4697265625, 1.5439453125, 0.641357421875]}, {"bufferView": 1, "byteOffset": 0, "componentType": 5126, "count": 11, "type": "VEC2"}, {"bufferView": 2, "byteOffset": 0, "componentType": 5126, "count": 11, "type": "VEC3"}, {"bufferView": 3, "byteOffset": 0, "componentType": 5123, "count": 15, "type": "SCALAR"}, {"bufferView": 4, "byteOffset": 0, "componentType": 5126, "count": 91, "type": "VEC3", "min": [-0.4873046875, 0.109375, -0.15380859375], "max": [0.586181640625, 1.82275390625, 0.65673828125]}, {"bufferView": 5, "byteOffset": 0, "componentType": 5126, "count": 91, "type": "VEC2"}, {"bufferView": 6, "byteOffset": 0, "componentType": 5126, "count": 91, "type": "VEC3"}, {"bufferView": 7, "byteOffset": 0, "componentType": 5123, "count": 123, "type": "SCALAR"}, {"bufferView": 8, "byteOffset": 0, "componentType": 5126, "count": 4, "type": "VEC3", "min": [-0.706298828125, 0.667724609375, 0.354248046875], "max": [0.1376953125, 2.0546875, 0.7041015625]}, {"bufferView": 9, "byteOffset": 0, "componentType": 5126, "count": 4, "type": "VEC2"}, {"bufferView": 10, "byteOffset": 0, "componentType": 5126, "count": 4, "type": "VEC3"}, {"bufferView": 11, "byteOffset": 0, "componentType": 5123, "count": 6, "type": "SCALAR"}, {"bufferView": 12, "byteOffset": 0, "componentType": 5126, "count": 4, "type": "VEC3", "min": [-0.100341796875, 1.276123046875, 0.40771484375], "max": [0.519775390625, 1.81640625, 0.5439453125]}, {"bufferView": 13, "byteOffset": 0, "componentType": 5126, "count": 4, "type": "VEC2"}, {"bufferView": 14, "byteOffset": 0, "componentType": 5126, "count": 4, "type": "VEC3"}, {"bufferView": 15, "byteOffset": 0, "componentType": 5123, "count": 6, "type": "SCALAR"}, {"bufferView": 16, "byteOffset": 0, "componentType": 5126, "count": 4, "type": "VEC3", "min": [-0.005126953125, 0.76953125, 0.5087890625], "max": [0.706298828125, 1.392822265625, 0.66552734375]}, {"bufferView": 17, "byteOffset": 0, "componentType": 5126, "count": 4, "type": "VEC2"}, {"bufferView": 18, "byteOffset": 0, "componentType": 5126, "count": 4, "type": "VEC3"}, {"bufferView": 19, "byteOffset": 0, "componentType": 5123, "count": 6, "type": "SCALAR"}], "samplers": [{"magFilter": 9729, "minFilter": 9729, "wrapS": 10497, "wrapT": 10497}]}