{"asset": {"version": "2.0", "generator": "tongari-nsbmd-to-gltf"}, "scene": 0, "scenes": [{"nodes": [0, 1]}], "nodes": [{"name": "g_tou01", "translation": [0.0, 0.0, 0.0]}, {"mesh": 0, "name": "g_tou01"}], "meshes": [{"name": "g_tou01", "primitives": [{"attributes": {"POSITION": 0, "TEXCOORD_0": 1, "NORMAL": 2}, "indices": 3, "mode": 4, "material": 1}, {"attributes": {"POSITION": 4, "TEXCOORD_0": 5, "NORMAL": 6}, "indices": 7, "mode": 4, "material": 0}, {"attributes": {"POSITION": 8, "TEXCOORD_0": 9, "NORMAL": 10}, "indices": 11, "mode": 4, "material": 2}]}], "materials": [{"name": "g_ishi01_00", "pbrMetallicRoughness": {"baseColorFactor": [1.0, 1.0, 1.0, 1.0], "metallicFactor": 0.0, "roughnessFactor": 1.0}, "alphaMode": "OPAQUE", "doubleSided": true}, {"name": "g_ishi01_01", "pbrMetallicRoughness": {"baseColorFactor": [1.0, 1.0, 1.0, 1.0], "metallicFactor": 0.0, "roughnessFactor": 1.0}, "alphaMode": "OPAQUE", "doubleSided": true}, {"name": "mat_green00", "pbrMetallicRoughness": {"baseColorFactor": [1.0, 1.0, 1.0, 1.0], "metallicFactor": 0.0, "roughnessFactor": 1.0}, "alphaMode": "OPAQUE", "doubleSided": true}], "buffers": [{"byteLength": 892, "uri": "data:application/octet-stream;base64,"}], "bufferViews": [{"buffer": 0, "byteOffset": 0, "byteLength": 120}, {"buffer": 0, "byteOffset": 120, "byteLength": 80}, {"buffer": 0, "byteOffset": 200, "byteLength": 120}, {"buffer": 0, "byteOffset": 320, "byteLength": 36}, {"buffer": 0, "byteOffset": 356, "byteLength": 84}, {"buffer": 0, "byteOffset": 440, "byteLength": 56}, {"buffer": 0, "byteOffset": 496, "byteLength": 84}, {"buffer": 0, "byteOffset": 580, "byteLength": 18}, {"buffer": 0, "byteOffset": 600, "byteLength": 96}, {"buffer": 0, "byteOffset": 696, "byteLength": 64}, {"buffer": 0, "byteOffset": 760, "byteLength": 96}, {"buffer": 0, "byteOffset": 856, "byteLength": 36}], "accessors": [{"bufferView": 0, "byteOffset": 0, "componentType": 5126, "count": 10, "type": "VEC3", "min": [-2.0, 0.0, -2.9736328125], "max": [1.4736328125, 0.0, 0.0]}, {"bufferView": 1, "byteOffset": 0, "componentType": 5126, "count": 10, "type": "VEC2"}, {"bufferView": 2, "byteOffset": 0, "componentType": 5126, "count": 10, "type": "VEC3"}, {"bufferView": 3, "byteOffset": 0, "componentType": 5123, "count": 18, "type": "SCALAR"}, {"bufferView": 4, "byteOffset": 0, "componentType": 5126, "count": 7, "type": "VEC3", "min": [-2.0, 0.0, -2.36083984375], "max": [0.86083984375, 0.0, 0.0]}, {"bufferView": 5, "byteOffset": 0, "componentType": 5126, "count": 7, "type": "VEC2"}, {"bufferView": 6, "byteOffset": 0, "componentType": 5126, "count": 7, "type": "VEC3"}, {"bufferView": 7, "byteOffset": 0, "componentType": 5123, "count": 9, "type": "SCALAR"}, {"bufferView": 8, "byteOffset": 0, "componentType": 5126, "count": 8, "type": "VEC3", "min": [-2.0, 0.0, -4.0], "max": [2.0, 0.0, 0.0]}, {"bufferView": 9, "byteOffset": 0, "componentType": 5126, "count": 8, "type": "VEC2"}, {"bufferView": 10, "byteOffset": 0, "componentType": 5126, "count": 8, "type": "VEC3"}, {"bufferView": 11, "byteOffset": 0, "componentType": 5123, "count": 18, "type": "SCALAR"}], "samplers": [{"magFilter": 9729, "minFilter": 9729, "wrapS": 10497, "wrapT": 10497}]}