{"asset": {"version": "2.0", "generator": "tongari-nsbmd-to-gltf"}, "scene": 0, "scenes": [{"nodes": [0, 1]}], "nodes": [{"name": "imig20_22", "translation": [0.0, 0.0, 0.0]}, {"mesh": 0, "name": "3423IMIG20_22"}], "meshes": [{"name": "3423IMIG20_22", "primitives": [{"attributes": {"POSITION": 0, "TEXCOORD_0": 1, "NORMAL": 2}, "indices": 3, "mode": 4, "material": 0}, {"attributes": {"POSITION": 4, "TEXCOORD_0": 5, "NORMAL": 6}, "indices": 7, "mode": 4, "material": 1}]}], "materials": [{"name": "imig20_22_0", "pbrMetallicRoughness": {"baseColorFactor": [1.0, 1.0, 1.0, 1.0], "metallicFactor": 0.0, "roughnessFactor": 1.0}, "alphaMode": "OPAQUE", "doubleSided": true}, {"name": "imig20_22_1", "pbrMetallicRoughness": {"baseColorFactor": [1.0, 1.0, 1.0, 1.0], "metallicFactor": 0.0, "roughnessFactor": 1.0}, "alphaMode": "OPAQUE", "doubleSided": true}], "buffers": [{"byteLength": 4580, "uri": "data:application/octet-stream;base64,"}], "bufferViews": [{"buffer": 0, "byteOffset": 0, "byteLength": 1248}, {"buffer": 0, "byteOffset": 1248, "byteLength": 832}, {"buffer": 0, "byteOffset": 2080, "byteLength": 1248}, {"buffer": 0, "byteOffset": 3328, "byteLength": 312}, {"buffer": 0, "byteOffset": 3640, "byteLength": 312}, {"buffer": 0, "byteOffset": 3952, "byteLength": 208}, {"buffer": 0, "byteOffset": 4160, "byteLength": 312}, {"buffer": 0, "byteOffset": 4472, "byteLength": 108}], "accessors": [{"bufferView": 0, "byteOffset": 0, "componentType": 5126, "count": 104, "type": "VEC3", "min": [-0.96875, 0.000244140625, -0.432861328125], "max": [0.9658203125, 0.8076171875, 0.432861328125]}, {"bufferView": 1, "byteOffset": 0, "componentType": 5126, "count": 104, "type": "VEC2"}, {"bufferView": 2, "byteOffset": 0, "componentType": 5126, "count": 104, "type": "VEC3"}, {"bufferView": 3, "byteOffset": 0, "componentType": 5123, "count": 156, "type": "SCALAR"}, {"bufferView": 4, "byteOffset": 0, "componentType": 5126, "count": 26, "type": "VEC3", "min": [-0.8916015625, 0.169189453125, -0.473876953125], "max": [0.88720703125, 0.768310546875, 0.465576171875]}, {"bufferView": 5, "byteOffset": 0, "componentType": 5126, "count": 26, "type": "VEC2"}, {"bufferView": 6, "byteOffset": 0, "componentType": 5126, "count": 26, "type": "VEC3"}, {"bufferView": 7, "byteOffset": 0, "componentType": 5123, "count": 54, "type": "SCALAR"}], "samplers": [{"magFilter": 9729, "minFilter": 9729, "wrapS": 10497, "wrapT": 10497}]}