{"asset": {"version": "2.0", "generator": "tongari-nsbmd-to-gltf"}, "scene": 0, "scenes": [{"nodes": [0, 1]}], "nodes": [{"name": "imot01_20", "translation": [0.0, 0.0, 0.0]}, {"mesh": 0, "name": "3547IMOT01_20"}], "meshes": [{"name": "3547IMOT01_20", "primitives": [{"attributes": {"POSITION": 0, "TEXCOORD_0": 1, "NORMAL": 2}, "indices": 3, "mode": 4, "material": 2}, {"attributes": {"POSITION": 4, "TEXCOORD_0": 5, "NORMAL": 6}, "indices": 7, "mode": 4, "material": 0}, {"attributes": {"POSITION": 8, "TEXCOORD_0": 9, "NORMAL": 10}, "indices": 11, "mode": 4, "material": 1}]}], "materials": [{"name": "imot01_20_0", "pbrMetallicRoughness": {"baseColorFactor": [1.0, 1.0, 1.0, 1.0], "metallicFactor": 0.0, "roughnessFactor": 1.0}, "alphaMode": "OPAQUE", "doubleSided": true}, {"name": "imot01_20_1", "pbrMetallicRoughness": {"baseColorFactor": [1.0, 1.0, 1.0, 1.0], "metallicFactor": 0.0, "roughnessFactor": 1.0}, "alphaMode": "OPAQUE", "doubleSided": true}, {"name": "imot01_20_2", "pbrMetallicRoughness": {"baseColorFactor": [1.0, 1.0, 1.0, 1.0], "metallicFactor": 0.0, "roughnessFactor": 1.0}, "alphaMode": "OPAQUE", "doubleSided": true}], "buffers": [{"byteLength": 4900, "uri": "data:application/octet-stream;base64,"}], "bufferViews": [{"buffer": 0, "byteOffset": 0, "byteLength": 1368}, {"buffer": 0, "byteOffset": 1368, "byteLength": 912}, {"buffer": 0, "byteOffset": 2280, "byteLength": 1368}, {"buffer": 0, "byteOffset": 3648, "byteLength": 336}, {"buffer": 0, "byteOffset": 3984, "byteLength": 264}, {"buffer": 0, "byteOffset": 4248, "byteLength": 176}, {"buffer": 0, "byteOffset": 4424, "byteLength": 264}, {"buffer": 0, "byteOffset": 4688, "byteLength": 72}, {"buffer": 0, "byteOffset": 4760, "byteLength": 48}, {"buffer": 0, "byteOffset": 4808, "byteLength": 32}, {"buffer": 0, "byteOffset": 4840, "byteLength": 48}, {"buffer": 0, "byteOffset": 4888, "byteLength": 12}], "accessors": [{"bufferView": 0, "byteOffset": 0, "componentType": 5126, "count": 114, "type": "VEC3", "min": [-0.96337890625, -1.086181640625, -0.490966796875], "max": [0.96337890625, 1.58203125, 0.490966796875]}, {"bufferView": 1, "byteOffset": 0, "componentType": 5126, "count": 114, "type": "VEC2"}, {"bufferView": 2, "byteOffset": 0, "componentType": 5126, "count": 114, "type": "VEC3"}, {"bufferView": 3, "byteOffset": 0, "componentType": 5123, "count": 168, "type": "SCALAR"}, {"bufferView": 4, "byteOffset": 0, "componentType": 5126, "count": 22, "type": "VEC3", "min": [-0.793701171875, 0.370849609375, -0.490966796875], "max": [0.96337890625, 1.58203125, 0.490966796875]}, {"bufferView": 5, "byteOffset": 0, "componentType": 5126, "count": 22, "type": "VEC2"}, {"bufferView": 6, "byteOffset": 0, "componentType": 5126, "count": 22, "type": "VEC3"}, {"bufferView": 7, "byteOffset": 0, "componentType": 5123, "count": 36, "type": "SCALAR"}, {"bufferView": 8, "byteOffset": 0, "componentType": 5126, "count": 4, "type": "VEC3", "min": [0.755126953125, 0.916748046875, -0.490966796875], "max": [0.755126953125, 1.58203125, 0.490966796875]}, {"bufferView": 9, "byteOffset": 0, "componentType": 5126, "count": 4, "type": "VEC2"}, {"bufferView": 10, "byteOffset": 0, "componentType": 5126, "count": 4, "type": "VEC3"}, {"bufferView": 11, "byteOffset": 0, "componentType": 5123, "count": 6, "type": "SCALAR"}], "samplers": [{"magFilter": 9729, "minFilter": 9729, "wrapS": 10497, "wrapT": 10497}]}