{"asset": {"version": "2.0", "generator": "tongari-nsbmd-to-gltf"}, "scene": 0, "scenes": [{"nodes": [0, 1]}], "nodes": [{"name": "sh_s01_c06", "translation": [0.0, 0.0, 0.0]}, {"mesh": 0, "name": "sh_s01_c06"}], "meshes": [{"name": "sh_s01_c06", "primitives": [{"attributes": {"POSITION": 0, "TEXCOORD_0": 1, "NORMAL": 2}, "indices": 3, "mode": 4, "material": 1}, {"attributes": {"POSITION": 4, "TEXCOORD_0": 5, "NORMAL": 6}, "indices": 7, "mode": 4, "material": 2}, {"attributes": {"POSITION": 8, "TEXCOORD_0": 9, "NORMAL": 10}, "indices": 11, "mode": 4, "material": 0}]}], "materials": [{"name": "lambert40", "pbrMetallicRoughness": {"baseColorFactor": [0.803921568627451, 0.803921568627451, 0.803921568627451, 1.0], "metallicFactor": 0.0, "roughnessFactor": 1.0}, "alphaMode": "OPAQUE", "doubleSided": true}, {"name": "lambert41", "pbrMetallicRoughness": {"baseColorFactor": [0.803921568627451, 0.803921568627451, 0.803921568627451, 1.0], "metallicFactor": 0.0, "roughnessFactor": 1.0}, "alphaMode": "OPAQUE", "doubleSided": true}, {"name": "lambert42", "pbrMetallicRoughness": {"baseColorFactor": [0.803921568627451, 0.803921568627451, 0.803921568627451, 1.0], "metallicFactor": 0.0, "roughnessFactor": 1.0}, "alphaMode": "OPAQUE", "doubleSided": true}], "buffers": [{"byteLength": 14296, "uri": "data:application/octet-stream;base64,"}], "bufferViews": [{"buffer": 0, "byteOffset": 0, "byteLength": 144}, {"buffer": 0, "byteOffset": 144, "byteLength": 96}, {"buffer": 0, "byteOffset": 240, "byteLength": 144}, {"buffer": 0, "byteOffset": 384, "byteLength": 48}, {"buffer": 0, "byteOffset": 432, "byteLength": 552}, {"buffer": 0, "byteOffset": 984, "byteLength": 368}, {"buffer": 0, "byteOffset": 1352, "byteLength": 552}, {"buffer": 0, "byteOffset": 1904, "byteLength": 156}, {"buffer": 0, "byteOffset": 2060, "byteLength": 4224}, {"buffer": 0, "byteOffset": 6284, "byteLength": 2816}, {"buffer": 0, "byteOffset": 9100, "byteLength": 4224}, {"buffer": 0, "byteOffset": 13324, "byteLength": 972}], "accessors": [{"bufferView": 0, "byteOffset": 0, "componentType": 5126, "count": 12, "type": "VEC3", "min": [0.800048828125, 0.739990234375, 4.1201171875], "max": [4.8798828125, 0.739990234375, 4.780029296875]}, {"bufferView": 1, "byteOffset": 0, "componentType": 5126, "count": 12, "type": "VEC2"}, {"bufferView": 2, "byteOffset": 0, "componentType": 5126, "count": 12, "type": "VEC3"}, {"bufferView": 3, "byteOffset": 0, "componentType": 5123, "count": 24, "type": "SCALAR"}, {"bufferView": 4, "byteOffset": 0, "componentType": 5126, "count": 46, "type": "VEC3", "min": [0.800048828125, 0.0, 4.10009765625], "max": [4.89990234375, 0.5478515625, 4.800048828125]}, {"bufferView": 5, "byteOffset": 0, "componentType": 5126, "count": 46, "type": "VEC2"}, {"bufferView": 6, "byteOffset": 0, "componentType": 5126, "count": 46, "type": "VEC3"}, {"bufferView": 7, "byteOffset": 0, "componentType": 5123, "count": 78, "type": "SCALAR"}, {"bufferView": 8, "byteOffset": 0, "componentType": 5126, "count": 352, "type": "VEC3", "min": [0.800048828125, 0.0, 4.0], "max": [5.0, 0.739990234375, 5.019775390625]}, {"bufferView": 9, "byteOffset": 0, "componentType": 5126, "count": 352, "type": "VEC2"}, {"bufferView": 10, "byteOffset": 0, "componentType": 5126, "count": 352, "type": "VEC3"}, {"bufferView": 11, "byteOffset": 0, "componentType": 5123, "count": 486, "type": "SCALAR"}], "samplers": [{"magFilter": 9729, "minFilter": 9729, "wrapS": 10497, "wrapT": 10497}]}