{"asset": {"version": "2.0", "generator": "tongari-nsbmd-to-gltf"}, "scene": 0, "scenes": [{"nodes": [0, 1]}], "nodes": [{"name": "sbim03_13", "translation": [0.0, 0.39990234375, 0.0]}, {"mesh": 0, "name": "1330sbim03_13_c"}], "meshes": [{"name": "1330sbim03_13_c", "primitives": [{"attributes": {"POSITION": 0, "TEXCOORD_0": 1, "NORMAL": 2}, "indices": 3, "mode": 4, "material": 0}]}], "materials": [{"name": "sbim03_13_0", "pbrMetallicRoughness": {"baseColorFactor": [0.803921568627451, 0.803921568627451, 0.803921568627451, 1.0], "metallicFactor": 0.0, "roughnessFactor": 1.0}, "alphaMode": "OPAQUE", "doubleSided": true}], "buffers": [{"byteLength": 3752, "uri": "data:application/octet-stream;base64,"}], "bufferViews": [{"buffer": 0, "byteOffset": 0, "byteLength": 1272}, {"buffer": 0, "byteOffset": 1272, "byteLength": 848}, {"buffer": 0, "byteOffset": 2120, "byteLength": 1272}, {"buffer": 0, "byteOffset": 3392, "byteLength": 360}], "accessors": [{"bufferView": 0, "byteOffset": 0, "componentType": 5126, "count": 106, "type": "VEC3", "min": [-1.0146484375, 0.303955078125, -0.138916015625], "max": [1.005615234375, 0.953369140625, 0.138916015625]}, {"bufferView": 1, "byteOffset": 0, "componentType": 5126, "count": 106, "type": "VEC2"}, {"bufferView": 2, "byteOffset": 0, "componentType": 5126, "count": 106, "type": "VEC3"}, {"bufferView": 3, "byteOffset": 0, "componentType": 5123, "count": 180, "type": "SCALAR"}], "samplers": [{"magFilter": 9729, "minFilter": 9729, "wrapS": 10497, "wrapT": 10497}]}