{"asset": {"version": "2.0", "generator": "tongari-nsbmd-to-gltf"}, "scene": 0, "scenes": [{"nodes": [0, 13]}], "nodes": [{"name": "kb_ct_oven00", "translation": [0.0, 0.0, 0.0], "children": [1]}, {"name": "oven_move", "translation": [4.037109375, 0.0, 6.817626953125], "children": [2, 3, 4, 5, 6, 7, 8, 9, 10, 11]}, {"name": "entotsu", "translation": [0.30419921875, 3.504638671875, -0.52197265625]}, {"name": "fire1", "translation": [0.33251953125, 0.697265625, -0.267822265625], "rotation": [-0.6830019759991548, 0.1830155759317374, -0.1830155759317374, 0.6830019759991548]}, {"name": "fire2", "translation": [-0.197021484375, 0.483642578125, 0.179443359375], "rotation": [-0.1830155759317374, -0.6830019759991548, 0.6830019759991548, 0.1830155759317374]}, {"name": "lever", "translation": [-0.34619140625, 1.579833984375, 1.14501953125], "rotation": [-0.30056130253560137, -0.3075859937453057, 0.11901054525178678, 0.8949320199392242]}, {"name": "m_dummy", "translation": [-4.037109375, 0.0, -6.817626953125]}, {"name": "none_anime", "translation": [-4.037109375, 0.0, -6.817626953125]}, {"name": "pot", "translation": [-0.490234375, 3.48681640625, 0.299560546875]}, {"name": "s_dummy", "translation": [-4.037109375, 0.0, -6.817626953125]}, {"name": "window", "translation": [0.44091796875, -0.537841796875, 0.48486328125]}, {"name": "x_open", "translation": [1.1220703125, 2.802734375, -0.118408203125], "children": [12]}, {"name": "meter", "translation": [-0.6181640625, -0.77978515625, 0.686279296875], "rotation": [-0.23428910025661057, -0.23282135334819015, -0.669476058603267, 0.6653480204233345]}, {"mesh": 0, "name": "kb_ct_oven00"}], "meshes": [{"name": "kb_ct_oven00", "primitives": [{"attributes": {"POSITION": 0, "TEXCOORD_0": 1, "NORMAL": 2}, "indices": 3, "mode": 4, "material": 0}, {"attributes": {"POSITION": 4, "TEXCOORD_0": 5}, "indices": 6, "mode": 4, "material": 9}, {"attributes": {"POSITION": 7, "TEXCOORD_0": 8}, "indices": 9, "mode": 4, "material": 9}, {"attributes": {"POSITION": 10, "TEXCOORD_0": 11, "NORMAL": 12}, "indices": 13, "mode": 4, "material": 13}, {"attributes": {"POSITION": 14, "TEXCOORD_0": 15, "NORMAL": 16}, "indices": 17, "mode": 4, "material": 1}, {"attributes": {"POSITION": 18, "TEXCOORD_0": 19, "NORMAL": 20}, "indices": 21, "mode": 4, "material": 13}, {"attributes": {"POSITION": 22, "TEXCOORD_0": 23, "NORMAL": 24}, "indices": 25, "mode": 4, "material": 0}, {"attributes": {"POSITION": 26, "TEXCOORD_0": 27, "NORMAL": 28}, "indices": 29, "mode": 4, "material": 6}, {"attributes": {"POSITION": 30, "TEXCOORD_0": 31}, "indices": 32, "mode": 4, "material": 5}, {"attributes": {"POSITION": 33, "TEXCOORD_0": 34, "NORMAL": 35}, "indices": 36, "mode": 4, "material": 3}, {"attributes": {"POSITION": 37, "TEXCOORD_0": 38}, "indices": 39, "mode": 4, "material": 7}, {"attributes": {"POSITION": 40, "TEXCOORD_0": 41, "NORMAL": 42}, "indices": 43, "mode": 4, "material": 11}, {"attributes": {"POSITION": 44, "TEXCOORD_0": 45, "NORMAL": 46}, "indices": 47, "mode": 4, "material": 12}, {"attributes": {"POSITION": 48, "TEXCOORD_0": 49, "NORMAL": 50}, "indices": 51, "mode": 4, "material": 2}, {"attributes": {"POSITION": 52, "TEXCOORD_0": 53, "NORMAL": 54}, "indices": 55, "mode": 4, "material": 10}, {"attributes": {"POSITION": 56, "TEXCOORD_0": 57, "NORMAL": 58}, "indices": 59, "mode": 4, "material": 6}, {"attributes": {"POSITION": 60, "TEXCOORD_0": 61, "NORMAL": 62}, "indices": 63, "mode": 4, "material": 8}, {"attributes": {"POSITION": 64, "TEXCOORD_0": 65, "NORMAL": 66}, "indices": 67, "mode": 4, "material": 4}]}], "materials": [{"name": "bowl_ove", "pbrMetallicRoughness": {"baseColorFactor": [0.803921568627451, 0.803921568627451, 0.803921568627451, 1.0], "metallicFactor": 0.0, "roughnessFactor": 1.0}, "alphaMode": "OPAQUE", "doubleSided": true}, {"name": "lambert1", "pbrMetallicRoughness": {"baseColorFactor": [0.3843137254901961, 0.3843137254901961, 0.3843137254901961, 1.0], "metallicFactor": 0.0, "roughnessFactor": 1.0}, "alphaMode": "OPAQUE", "doubleSided": true}, {"name": "lambert162", "pbrMetallicRoughness": {"baseColorFactor": [0.3843137254901961, 0.3843137254901961, 0.3843137254901961, 0.6451612903225806], "metallicFactor": 0.0, "roughnessFactor": 1.0}, "alphaMode": "BLEND", "doubleSided": true}, {"name": "ma00", "pbrMetallicRoughness": {"baseColorFactor": [0.803921568627451, 0.803921568627451, 0.803921568627451, 1.0], "metallicFactor": 0.0, "roughnessFactor": 1.0}, "alphaMode": "OPAQUE", "doubleSided": true}, {"name": "mater", "pbrMetallicRoughness": {"baseColorFactor": [0.803921568627451, 0.803921568627451, 0.803921568627451, 1.0], "metallicFactor": 0.0, "roughnessFactor": 1.0}, "alphaMode": "OPAQUE", "doubleSided": true}, {"name": "ov_back_up", "pbrMetallicRoughness": {"baseColorFactor": [0.0, 0.0, 0.0, 0.6774193548387096], "metallicFactor": 0.0, "roughnessFactor": 1.0}, "alphaMode": "BLEND", "doubleSided": true}, {"name": "ov_body", "pbrMetallicRoughness": {"baseColorFactor": [0.803921568627451, 0.803921568627451, 0.803921568627451, 1.0], "metallicFactor": 0.0, "roughnessFactor": 1.0}, "alphaMode": "OPAQUE", "doubleSided": true}, {"name": "ov_body1", "pbrMetallicRoughness": {"baseColorFactor": [0.2235294117647059, 0.2235294117647059, 0.2235294117647059, 1.0], "metallicFactor": 0.0, "roughnessFactor": 1.0}, "alphaMode": "OPAQUE", "doubleSided": true}, {"name": "ov_door", "pbrMetallicRoughness": {"baseColorFactor": [0.803921568627451, 0.803921568627451, 0.803921568627451, 1.0], "metallicFactor": 0.0, "roughnessFactor": 1.0}, "alphaMode": "OPAQUE", "doubleSided": true}, {"name": "ov_fire", "pbrMetallicRoughness": {"baseColorFactor": [0.803921568627451, 0.803921568627451, 0.803921568627451, 1.0], "metallicFactor": 0.0, "roughnessFactor": 1.0}, "alphaMode": "OPAQUE", "doubleSided": true}, {"name": "ov_mete", "pbrMetallicRoughness": {"baseColorFactor": [0.803921568627451, 0.803921568627451, 0.803921568627451, 1.0], "metallicFactor": 0.0, "roughnessFactor": 1.0}, "alphaMode": "OPAQUE", "doubleSided": true}, {"name": "ov_potto", "pbrMetallicRoughness": {"baseColorFactor": [0.803921568627451, 0.803921568627451, 0.803921568627451, 1.0], "metallicFactor": 0.0, "roughnessFactor": 1.0}, "alphaMode": "OPAQUE", "doubleSided": true}, {"name": "ov_sara", "pbrMetallicRoughness": {"baseColorFactor": [0.5137254901960784, 0.5137254901960784, 0.5137254901960784, 1.0], "metallicFactor": 0.0, "roughnessFactor": 1.0}, "alphaMode": "OPAQUE", "doubleSided": true}, {"name": "ov_switch", "pbrMetallicRoughness": {"baseColorFactor": [1.0, 1.0, 1.0, 1.0], "metallicFactor": 0.0, "roughnessFactor": 1.0}, "alphaMode": "OPAQUE", "doubleSided": true}], "buffers": [{"byteLength": 13148, "uri": "data:application/octet-stream;base64,"}], "bufferViews": [{"buffer": 0, "byteOffset": 0, "byteLength": 240}, {"buffer": 0, "byteOffset": 240, "byteLength": 160}, {"buffer": 0, "byteOffset": 400, "byteLength": 240}, {"buffer": 0, "byteOffset": 640, "byteLength": 60}, {"buffer": 0, "byteOffset": 700, "byteLength": 360}, {"buffer": 0, "byteOffset": 1060, "byteLength": 240}, {"buffer": 0, "byteOffset": 1300, "byteLength": 96}, {"buffer": 0, "byteOffset": 1396, "byteLength": 216}, {"buffer": 0, "byteOffset": 1612, "byteLength": 144}, {"buffer": 0, "byteOffset": 1756, "byteLength": 72}, {"buffer": 0, "byteOffset": 1828, "byteLength": 144}, {"buffer": 0, "byteOffset": 1972, "byteLength": 96}, {"buffer": 0, "byteOffset": 2068, "byteLength": 144}, {"buffer": 0, "byteOffset": 2212, "byteLength": 36}, {"buffer": 0, "byteOffset": 2248, "byteLength": 36}, {"buffer": 0, "byteOffset": 2284, "byteLength": 24}, {"buffer": 0, "byteOffset": 2308, "byteLength": 36}, {"buffer": 0, "byteOffset": 2344, "byteLength": 6}, {"buffer": 0, "byteOffset": 2352, "byteLength": 48}, {"buffer": 0, "byteOffset": 2400, "byteLength": 32}, {"buffer": 0, "byteOffset": 2432, "byteLength": 48}, {"buffer": 0, "byteOffset": 2480, "byteLength": 12}, {"buffer": 0, "byteOffset": 2492, "byteLength": 276}, {"buffer": 0, "byteOffset": 2768, "byteLength": 184}, {"buffer": 0, "byteOffset": 2952, "byteLength": 276}, {"buffer": 0, "byteOffset": 3228, "byteLength": 78}, {"buffer": 0, "byteOffset": 3308, "byteLength": 888}, {"buffer": 0, "byteOffset": 4196, "byteLength": 592}, {"buffer": 0, "byteOffset": 4788, "byteLength": 888}, {"buffer": 0, "byteOffset": 5676, "byteLength": 240}, {"buffer": 0, "byteOffset": 5916, "byteLength": 48}, {"buffer": 0, "byteOffset": 5964, "byteLength": 32}, {"buffer": 0, "byteOffset": 5996, "byteLength": 12}, {"buffer": 0, "byteOffset": 6008, "byteLength": 72}, {"buffer": 0, "byteOffset": 6080, "byteLength": 48}, {"buffer": 0, "byteOffset": 6128, "byteLength": 72}, {"buffer": 0, "byteOffset": 6200, "byteLength": 24}, {"buffer": 0, "byteOffset": 6224, "byteLength": 696}, {"buffer": 0, "byteOffset": 6920, "byteLength": 464}, {"buffer": 0, "byteOffset": 7384, "byteLength": 192}, {"buffer": 0, "byteOffset": 7576, "byteLength": 36}, {"buffer": 0, "byteOffset": 7612, "byteLength": 24}, {"buffer": 0, "byteOffset": 7636, "byteLength": 36}, {"buffer": 0, "byteOffset": 7672, "byteLength": 6}, {"buffer": 0, "byteOffset": 7680, "byteLength": 36}, {"buffer": 0, "byteOffset": 7716, "byteLength": 24}, {"buffer": 0, "byteOffset": 7740, "byteLength": 36}, {"buffer": 0, "byteOffset": 7776, "byteLength": 6}, {"buffer": 0, "byteOffset": 7784, "byteLength": 48}, {"buffer": 0, "byteOffset": 7832, "byteLength": 32}, {"buffer": 0, "byteOffset": 7864, "byteLength": 48}, {"buffer": 0, "byteOffset": 7912, "byteLength": 12}, {"buffer": 0, "byteOffset": 7924, "byteLength": 48}, {"buffer": 0, "byteOffset": 7972, "byteLength": 32}, {"buffer": 0, "byteOffset": 8004, "byteLength": 48}, {"buffer": 0, "byteOffset": 8052, "byteLength": 12}, {"buffer": 0, "byteOffset": 8064, "byteLength": 1368}, {"buffer": 0, "byteOffset": 9432, "byteLength": 912}, {"buffer": 0, "byteOffset": 10344, "byteLength": 1368}, {"buffer": 0, "byteOffset": 11712, "byteLength": 420}, {"buffer": 0, "byteOffset": 12132, "byteLength": 288}, {"buffer": 0, "byteOffset": 12420, "byteLength": 192}, {"buffer": 0, "byteOffset": 12612, "byteLength": 288}, {"buffer": 0, "byteOffset": 12900, "byteLength": 108}, {"buffer": 0, "byteOffset": 13008, "byteLength": 48}, {"buffer": 0, "byteOffset": 13056, "byteLength": 32}, {"buffer": 0, "byteOffset": 13088, "byteLength": 48}, {"buffer": 0, "byteOffset": 13136, "byteLength": 12}], "accessors": [{"bufferView": 0, "byteOffset": 0, "componentType": 5126, "count": 20, "type": "VEC3", "min": [-0.44140625, 0.02392578125, -0.169677734375], "max": [0.220458984375, 0.187744140625, 0.438720703125]}, {"bufferView": 1, "byteOffset": 0, "componentType": 5126, "count": 20, "type": "VEC2"}, {"bufferView": 2, "byteOffset": 0, "componentType": 5126, "count": 20, "type": "VEC3"}, {"bufferView": 3, "byteOffset": 0, "componentType": 5123, "count": 30, "type": "SCALAR"}, {"bufferView": 4, "byteOffset": 0, "componentType": 5126, "count": 30, "type": "VEC3", "min": [-0.112548828125, -0.0556640625, -0.064697265625], "max": [0.112548828125, 0.0556640625, 0.064697265625]}, {"bufferView": 5, "byteOffset": 0, "componentType": 5126, "count": 30, "type": "VEC2"}, {"bufferView": 6, "byteOffset": 0, "componentType": 5123, "count": 48, "type": "SCALAR"}, {"bufferView": 7, "byteOffset": 0, "componentType": 5126, "count": 18, "type": "VEC3", "min": [-0.131591796875, -0.000244140625, -0.067138671875], "max": [0.0888671875, 0.111083984375, 0.063232421875]}, {"bufferView": 8, "byteOffset": 0, "componentType": 5126, "count": 18, "type": "VEC2"}, {"bufferView": 9, "byteOffset": 0, "componentType": 5123, "count": 36, "type": "SCALAR"}, {"bufferView": 10, "byteOffset": 0, "componentType": 5126, "count": 12, "type": "VEC3", "min": [-0.080078125, -0.04345703125, -0.0166015625], "max": [-0.01611328125, 0.1015625, 0.013427734375]}, {"bufferView": 11, "byteOffset": 0, "componentType": 5126, "count": 12, "type": "VEC2"}, {"bufferView": 12, "byteOffset": 0, "componentType": 5126, "count": 12, "type": "VEC3"}, {"bufferView": 13, "byteOffset": 0, "componentType": 5123, "count": 18, "type": "SCALAR"}, {"bufferView": 14, "byteOffset": 0, "componentType": 5126, "count": 3, "type": "VEC3", "min": [-2.062744140625, -0.861083984375, -7.2314453125], "max": [-1.812744140625, -0.861083984375, -6.9814453125]}, {"bufferView": 15, "byteOffset": 0, "componentType": 5126, "count": 3, "type": "VEC2"}, {"bufferView": 16, "byteOffset": 0, "componentType": 5126, "count": 3, "type": "VEC3"}, {"bufferView": 17, "byteOffset": 0, "componentType": 5123, "count": 3, "type": "SCALAR"}, {"bufferView": 18, "byteOffset": 0, "componentType": 5126, "count": 4, "type": "VEC3", "min": [0.86767578125, 0.341796875, 2.00146484375], "max": [0.90185546875, 0.459228515625, 2.039306640625]}, {"bufferView": 19, "byteOffset": 0, "componentType": 5126, "count": 4, "type": "VEC2"}, {"bufferView": 20, "byteOffset": 0, "componentType": 5126, "count": 4, "type": "VEC3"}, {"bufferView": 21, "byteOffset": 0, "componentType": 5123, "count": 6, "type": "SCALAR"}, {"bufferView": 22, "byteOffset": 0, "componentType": 5126, "count": 23, "type": "VEC3", "min": [0.633056640625, 0.0, 1.3955078125], "max": [1.34375, 0.444580078125, 2.050537109375]}, {"bufferView": 23, "byteOffset": 0, "componentType": 5126, "count": 23, "type": "VEC2"}, {"bufferView": 24, "byteOffset": 0, "componentType": 5126, "count": 23, "type": "VEC3"}, {"bufferView": 25, "byteOffset": 0, "componentType": 5123, "count": 39, "type": "SCALAR"}, {"bufferView": 26, "byteOffset": 0, "componentType": 5126, "count": 74, "type": "VEC3", "min": [0.607421875, 0.1279296875, 1.37158203125], "max": [1.369384765625, 0.87646484375, 2.07421875]}, {"bufferView": 27, "byteOffset": 0, "componentType": 5126, "count": 74, "type": "VEC2"}, {"bufferView": 28, "byteOffset": 0, "componentType": 5126, "count": 74, "type": "VEC3"}, {"bufferView": 29, "byteOffset": 0, "componentType": 5123, "count": 120, "type": "SCALAR"}, {"bufferView": 30, "byteOffset": 0, "componentType": 5126, "count": 4, "type": "VEC3", "min": [0.633056640625, 0.438720703125, 1.3955078125], "max": [1.154052734375, 0.761962890625, 1.814453125]}, {"bufferView": 31, "byteOffset": 0, "componentType": 5126, "count": 4, "type": "VEC2"}, {"bufferView": 32, "byteOffset": 0, "componentType": 5123, "count": 6, "type": "SCALAR"}, {"bufferView": 33, "byteOffset": 0, "componentType": 5126, "count": 6, "type": "VEC3", "min": [0.82275390625, 0.27490234375, 1.962158203125], "max": [0.932373046875, 0.761962890625, 2.050537109375]}, {"bufferView": 34, "byteOffset": 0, "componentType": 5126, "count": 6, "type": "VEC2"}, {"bufferView": 35, "byteOffset": 0, "componentType": 5126, "count": 6, "type": "VEC3"}, {"bufferView": 36, "byteOffset": 0, "componentType": 5123, "count": 12, "type": "SCALAR"}, {"bufferView": 37, "byteOffset": 0, "componentType": 5126, "count": 58, "type": "VEC3", "min": [0.642578125, 0.459716796875, 1.362060546875], "max": [1.34033203125, 0.717041015625, 2.021484375]}, {"bufferView": 38, "byteOffset": 0, "componentType": 5126, "count": 58, "type": "VEC2"}, {"bufferView": 39, "byteOffset": 0, "componentType": 5123, "count": 96, "type": "SCALAR"}, {"bufferView": 40, "byteOffset": 0, "componentType": 5126, "count": 3, "type": "VEC3", "min": [0.006591796875, 0.0, 0.016357421875], "max": [0.075927734375, 0.026123046875, 0.051025390625]}, {"bufferView": 41, "byteOffset": 0, "componentType": 5126, "count": 3, "type": "VEC2"}, {"bufferView": 42, "byteOffset": 0, "componentType": 5126, "count": 3, "type": "VEC3"}, {"bufferView": 43, "byteOffset": 0, "componentType": 5123, "count": 3, "type": "SCALAR"}, {"bufferView": 44, "byteOffset": 0, "componentType": 5126, "count": 3, "type": "VEC3", "min": [-0.152099609375, -0.848388671875, -0.107421875], "max": [0.0, -0.81640625, 0.0]}, {"bufferView": 45, "byteOffset": 0, "componentType": 5126, "count": 3, "type": "VEC2"}, {"bufferView": 46, "byteOffset": 0, "componentType": 5126, "count": 3, "type": "VEC3"}, {"bufferView": 47, "byteOffset": 0, "componentType": 5123, "count": 3, "type": "SCALAR"}, {"bufferView": 48, "byteOffset": 0, "componentType": 5126, "count": 4, "type": "VEC3", "min": [-1.262451171875, 0.64404296875, -0.12841796875], "max": [-0.943115234375, 0.848388671875, 0.12841796875]}, {"bufferView": 49, "byteOffset": 0, "componentType": 5126, "count": 4, "type": "VEC2"}, {"bufferView": 50, "byteOffset": 0, "componentType": 5126, "count": 4, "type": "VEC3"}, {"bufferView": 51, "byteOffset": 0, "componentType": 5123, "count": 6, "type": "SCALAR"}, {"bufferView": 52, "byteOffset": 0, "componentType": 5126, "count": 4, "type": "VEC3", "min": [-0.18994140625, -0.232666015625, 0.140380859375], "max": [-0.126220703125, -0.150634765625, 0.191650390625]}, {"bufferView": 53, "byteOffset": 0, "componentType": 5126, "count": 4, "type": "VEC2"}, {"bufferView": 54, "byteOffset": 0, "componentType": 5126, "count": 4, "type": "VEC3"}, {"bufferView": 55, "byteOffset": 0, "componentType": 5123, "count": 6, "type": "SCALAR"}, {"bufferView": 56, "byteOffset": 0, "componentType": 5126, "count": 114, "type": "VEC3", "min": [-0.354248046875, -0.24609375, -0.000732421875], "max": [0.02099609375, 0.042724609375, 0.30224609375]}, {"bufferView": 57, "byteOffset": 0, "componentType": 5126, "count": 114, "type": "VEC2"}, {"bufferView": 58, "byteOffset": 0, "componentType": 5126, "count": 114, "type": "VEC3"}, {"bufferView": 59, "byteOffset": 0, "componentType": 5123, "count": 210, "type": "SCALAR"}, {"bufferView": 60, "byteOffset": 0, "componentType": 5126, "count": 24, "type": "VEC3", "min": [-0.3349609375, -0.16650390625, 0.269775390625], "max": [-0.298828125, -0.0224609375, 0.307373046875]}, {"bufferView": 61, "byteOffset": 0, "componentType": 5126, "count": 24, "type": "VEC2"}, {"bufferView": 62, "byteOffset": 0, "componentType": 5126, "count": 24, "type": "VEC3"}, {"bufferView": 63, "byteOffset": 0, "componentType": 5123, "count": 54, "type": "SCALAR"}, {"bufferView": 64, "byteOffset": 0, "componentType": 5126, "count": 4, "type": "VEC3", "min": [-0.0107421875, -0.00390625, 0.0], "max": [0.0107421875, 0.038818359375, 0.0]}, {"bufferView": 65, "byteOffset": 0, "componentType": 5126, "count": 4, "type": "VEC2"}, {"bufferView": 66, "byteOffset": 0, "componentType": 5126, "count": 4, "type": "VEC3"}, {"bufferView": 67, "byteOffset": 0, "componentType": 5123, "count": 6, "type": "SCALAR"}], "samplers": [{"magFilter": 9729, "minFilter": 9729, "wrapS": 10497, "wrapT": 10497}]}