{"asset": {"version": "2.0", "generator": "tongari-nsbmd-to-gltf"}, "scene": 0, "scenes": [{"nodes": [0, 8]}], "nodes": [{"name": "k_camsole0", "translation": [0.0, 0.0, 0.0], "children": [1, 2]}, {"name": "k_camsole_model", "translation": [0.0, 0.0, 0.0]}, {"name": "yajirusi", "translation": [0.0, 0.0, 0.0], "children": [3, 4, 5, 6, 7]}, {"name": "k_camsole1", "translation": [-0.0078125, 0.00537109375, -0.399169921875], "rotation": [-0.2811809101752426, -0.64881389678108, 0.64881389678108, 0.2811809101752426]}, {"name": "k_camsole2_1", "translation": [0.3955078125, 0.00537109375, -0.21533203125], "rotation": [-0.7051619799512379, 0.052192546202356256, -0.05236565580833422, 0.7051619799512379]}, {"name": "k_camsole2_2", "translation": [0.00830078125, 0.0, 0.0146484375]}, {"name": "k_camsole3", "translation": [0.0, 0.0, 0.031494140625]}, {"name": "k_camsole4", "translation": [-0.0146484375, 0.0, 0.02294921875]}, {"mesh": 0, "name": "k_camsole0"}], "meshes": [{"name": "k_camsole0", "primitives": [{"attributes": {"POSITION": 0, "TEXCOORD_0": 1, "NORMAL": 2}, "indices": 3, "mode": 4, "material": 0}, {"attributes": {"POSITION": 4, "TEXCOORD_0": 5, "NORMAL": 6}, "indices": 7, "mode": 4, "material": 1}, {"attributes": {"POSITION": 8, "TEXCOORD_0": 9, "NORMAL": 10}, "indices": 11, "mode": 4, "material": 2}, {"attributes": {"POSITION": 12, "TEXCOORD_0": 13, "NORMAL": 14}, "indices": 15, "mode": 4, "material": 2}, {"attributes": {"POSITION": 16, "TEXCOORD_0": 17, "NORMAL": 18}, "indices": 19, "mode": 4, "material": 3}, {"attributes": {"POSITION": 20, "TEXCOORD_0": 21, "NORMAL": 22}, "indices": 23, "mode": 4, "material": 4}]}], "materials": [{"name": "k_misin0", "pbrMetallicRoughness": {"baseColorFactor": [0.803921568627451, 0.803921568627451, 0.803921568627451, 1.0], "metallicFactor": 0.0, "roughnessFactor": 1.0}, "alphaMode": "OPAQUE", "doubleSided": true}, {"name": "y_yajirusi1", "pbrMetallicRoughness": {"baseColorFactor": [0.803921568627451, 0.803921568627451, 0.803921568627451, 0.001], "metallicFactor": 0.0, "roughnessFactor": 1.0}, "alphaMode": "BLEND", "doubleSided": true}, {"name": "y_yajirusi2", "pbrMetallicRoughness": {"baseColorFactor": [0.803921568627451, 0.803921568627451, 0.803921568627451, 0.001], "metallicFactor": 0.0, "roughnessFactor": 1.0}, "alphaMode": "BLEND", "doubleSided": true}, {"name": "y_yajirusi3", "pbrMetallicRoughness": {"baseColorFactor": [0.803921568627451, 0.803921568627451, 0.803921568627451, 0.001], "metallicFactor": 0.0, "roughnessFactor": 1.0}, "alphaMode": "BLEND", "doubleSided": true}, {"name": "y_yajirusi4", "pbrMetallicRoughness": {"baseColorFactor": [0.803921568627451, 0.803921568627451, 0.803921568627451, 0.001], "metallicFactor": 0.0, "roughnessFactor": 1.0}, "alphaMode": "BLEND", "doubleSided": true}], "buffers": [{"byteLength": 4118, "uri": "data:application/octet-stream;base64,"}], "bufferViews": [{"buffer": 0, "byteOffset": 0, "byteLength": 624}, {"buffer": 0, "byteOffset": 624, "byteLength": 416}, {"buffer": 0, "byteOffset": 1040, "byteLength": 624}, {"buffer": 0, "byteOffset": 1664, "byteLength": 156}, {"buffer": 0, "byteOffset": 1820, "byteLength": 132}, {"buffer": 0, "byteOffset": 1952, "byteLength": 88}, {"buffer": 0, "byteOffset": 2040, "byteLength": 132}, {"buffer": 0, "byteOffset": 2172, "byteLength": 30}, {"buffer": 0, "byteOffset": 2204, "byteLength": 132}, {"buffer": 0, "byteOffset": 2336, "byteLength": 88}, {"buffer": 0, "byteOffset": 2424, "byteLength": 132}, {"buffer": 0, "byteOffset": 2556, "byteLength": 30}, {"buffer": 0, "byteOffset": 2588, "byteLength": 156}, {"buffer": 0, "byteOffset": 2744, "byteLength": 104}, {"buffer": 0, "byteOffset": 2848, "byteLength": 156}, {"buffer": 0, "byteOffset": 3004, "byteLength": 42}, {"buffer": 0, "byteOffset": 3048, "byteLength": 204}, {"buffer": 0, "byteOffset": 3252, "byteLength": 136}, {"buffer": 0, "byteOffset": 3388, "byteLength": 204}, {"buffer": 0, "byteOffset": 3592, "byteLength": 66}, {"buffer": 0, "byteOffset": 3660, "byteLength": 156}, {"buffer": 0, "byteOffset": 3816, "byteLength": 104}, {"buffer": 0, "byteOffset": 3920, "byteLength": 156}, {"buffer": 0, "byteOffset": 4076, "byteLength": 42}], "accessors": [{"bufferView": 0, "byteOffset": 0, "componentType": 5126, "count": 52, "type": "VEC3", "min": [-0.396240234375, 0.00537109375, -0.511962890625], "max": [0.396240234375, 0.00537109375, 0.505615234375]}, {"bufferView": 1, "byteOffset": 0, "componentType": 5126, "count": 52, "type": "VEC2"}, {"bufferView": 2, "byteOffset": 0, "componentType": 5126, "count": 52, "type": "VEC3"}, {"bufferView": 3, "byteOffset": 0, "componentType": 5123, "count": 78, "type": "SCALAR"}, {"bufferView": 4, "byteOffset": 0, "componentType": 5126, "count": 11, "type": "VEC3", "min": [-0.040771484375, 0.0, -0.2412109375], "max": [0.232177734375, 0.0, 0.044677734375]}, {"bufferView": 5, "byteOffset": 0, "componentType": 5126, "count": 11, "type": "VEC2"}, {"bufferView": 6, "byteOffset": 0, "componentType": 5126, "count": 11, "type": "VEC3"}, {"bufferView": 7, "byteOffset": 0, "componentType": 5123, "count": 15, "type": "SCALAR"}, {"bufferView": 8, "byteOffset": 0, "componentType": 5126, "count": 11, "type": "VEC3", "min": [-0.048095703125, -0.18017578125, 0.0], "max": [0.06982421875, 0.233154296875, 0.0]}, {"bufferView": 9, "byteOffset": 0, "componentType": 5126, "count": 11, "type": "VEC2"}, {"bufferView": 10, "byteOffset": 0, "componentType": 5126, "count": 11, "type": "VEC3"}, {"bufferView": 11, "byteOffset": 0, "componentType": 5123, "count": 15, "type": "SCALAR"}, {"bufferView": 12, "byteOffset": 0, "componentType": 5126, "count": 13, "type": "VEC3", "min": [0.150634765625, 0.00537109375, 0.151611328125], "max": [0.407958984375, 0.00537109375, 0.593994140625]}, {"bufferView": 13, "byteOffset": 0, "componentType": 5126, "count": 13, "type": "VEC2"}, {"bufferView": 14, "byteOffset": 0, "componentType": 5126, "count": 13, "type": "VEC3"}, {"bufferView": 15, "byteOffset": 0, "componentType": 5123, "count": 21, "type": "SCALAR"}, {"bufferView": 16, "byteOffset": 0, "componentType": 5126, "count": 17, "type": "VEC3", "min": [-0.1533203125, 0.00537109375, 0.27294921875], "max": [0.172607421875, 0.00537109375, 0.513916015625]}, {"bufferView": 17, "byteOffset": 0, "componentType": 5126, "count": 17, "type": "VEC2"}, {"bufferView": 18, "byteOffset": 0, "componentType": 5126, "count": 17, "type": "VEC3"}, {"bufferView": 19, "byteOffset": 0, "componentType": 5123, "count": 33, "type": "SCALAR"}, {"bufferView": 20, "byteOffset": 0, "componentType": 5126, "count": 13, "type": "VEC3", "min": [-0.404296875, 0.00537109375, 0.08203125], "max": [-0.12744140625, 0.00537109375, 0.591552734375]}, {"bufferView": 21, "byteOffset": 0, "componentType": 5126, "count": 13, "type": "VEC2"}, {"bufferView": 22, "byteOffset": 0, "componentType": 5126, "count": 13, "type": "VEC3"}, {"bufferView": 23, "byteOffset": 0, "componentType": 5123, "count": 21, "type": "SCALAR"}], "samplers": [{"magFilter": 9729, "minFilter": 9729, "wrapS": 10497, "wrapT": 10497}]}