{"asset": {"version": "2.0", "generator": "tongari-nsbmd-to-gltf"}, "scene": 0, "scenes": [{"nodes": [0, 1]}], "nodes": [{"name": "uma_takara", "translation": [0.0, 0.0, 0.0]}, {"mesh": 0, "name": "uma_takara"}], "meshes": [{"name": "uma_takara", "primitives": [{"attributes": {"POSITION": 0, "TEXCOORD_0": 1, "NORMAL": 2}, "indices": 3, "mode": 4, "material": 0}]}], "materials": [{"name": "lambert2", "pbrMetallicRoughness": {"baseColorFactor": [1.0, 1.0, 1.0, 1.0], "metallicFactor": 0.0, "roughnessFactor": 1.0}, "alphaMode": "OPAQUE", "doubleSided": true}], "buffers": [{"byteLength": 2584, "uri": "data:application/octet-stream;base64,"}], "bufferViews": [{"buffer": 0, "byteOffset": 0, "byteLength": 888}, {"buffer": 0, "byteOffset": 888, "byteLength": 592}, {"buffer": 0, "byteOffset": 1480, "byteLength": 888}, {"buffer": 0, "byteOffset": 2368, "byteLength": 216}], "accessors": [{"bufferView": 0, "byteOffset": 0, "componentType": 5126, "count": 74, "type": "VEC3", "min": [-0.80615234375, -0.4580078125, -0.292236328125], "max": [0.00634765625, 0.454345703125, 0.505615234375]}, {"bufferView": 1, "byteOffset": 0, "componentType": 5126, "count": 74, "type": "VEC2"}, {"bufferView": 2, "byteOffset": 0, "componentType": 5126, "count": 74, "type": "VEC3"}, {"bufferView": 3, "byteOffset": 0, "componentType": 5123, "count": 108, "type": "SCALAR"}], "samplers": [{"magFilter": 9729, "minFilter": 9729, "wrapS": 10497, "wrapT": 10497}]}