{"asset": {"version": "2.0", "generator": "tongari-nsbmd-to-gltf"}, "scene": 0, "scenes": [{"nodes": [0, 1]}], "nodes": [{"name": "polySurface372", "translation": [0.0, 0.0, 0.0]}, {"mesh": 0, "name": "sh_r_bank"}], "meshes": [{"name": "sh_r_bank", "primitives": [{"attributes": {"POSITION": 0, "TEXCOORD_0": 1, "NORMAL": 2}, "indices": 3, "mode": 4, "material": 18}, {"attributes": {"POSITION": 4, "TEXCOORD_0": 5, "NORMAL": 6}, "indices": 7, "mode": 4, "material": 14}, {"attributes": {"POSITION": 8, "TEXCOORD_0": 9, "NORMAL": 10}, "indices": 11, "mode": 4, "material": 0}, {"attributes": {"POSITION": 12, "TEXCOORD_0": 13, "NORMAL": 14}, "indices": 15, "mode": 4, "material": 8}, {"attributes": {"POSITION": 16, "TEXCOORD_0": 17, "NORMAL": 18}, "indices": 19, "mode": 4, "material": 20}, {"attributes": {"POSITION": 20, "TEXCOORD_0": 21, "NORMAL": 22}, "indices": 23, "mode": 4, "material": 6}, {"attributes": {"POSITION": 24, "TEXCOORD_0": 25, "NORMAL": 26}, "indices": 27, "mode": 4, "material": 7}, {"attributes": {"POSITION": 28, "TEXCOORD_0": 29, "NORMAL": 30}, "indices": 31, "mode": 4, "material": 5}, {"attributes": {"POSITION": 32, "TEXCOORD_0": 33, "NORMAL": 34}, "indices": 35, "mode": 4, "material": 9}, {"attributes": {"POSITION": 36, "TEXCOORD_0": 37, "NORMAL": 38}, "indices": 39, "mode": 4, "material": 10}, {"attributes": {"POSITION": 40, "TEXCOORD_0": 41, "NORMAL": 42}, "indices": 43, "mode": 4, "material": 1}, {"attributes": {"POSITION": 44, "TEXCOORD_0": 45, "NORMAL": 46}, "indices": 47, "mode": 4, "material": 2}, {"attributes": {"POSITION": 48, "TEXCOORD_0": 49, "NORMAL": 50}, "indices": 51, "mode": 4, "material": 11}, {"attributes": {"POSITION": 52, "TEXCOORD_0": 53, "NORMAL": 54}, "indices": 55, "mode": 4, "material": 12}, {"attributes": {"POSITION": 56, "TEXCOORD_0": 57, "NORMAL": 58}, "indices": 59, "mode": 4, "material": 3}, {"attributes": {"POSITION": 60, "TEXCOORD_0": 61, "NORMAL": 62}, "indices": 63, "mode": 4, "material": 13}, {"attributes": {"POSITION": 64, "TEXCOORD_0": 65, "NORMAL": 66}, "indices": 67, "mode": 4, "material": 17}, {"attributes": {"POSITION": 68, "TEXCOORD_0": 69, "NORMAL": 70}, "indices": 71, "mode": 4, "material": 16}, {"attributes": {"POSITION": 72, "TEXCOORD_0": 73, "NORMAL": 74}, "indices": 75, "mode": 4, "material": 4}, {"attributes": {"POSITION": 76, "TEXCOORD_0": 77, "NORMAL": 78}, "indices": 79, "mode": 4, "material": 15}, {"attributes": {"POSITION": 80, "TEXCOORD_0": 81, "NORMAL": 82}, "indices": 83, "mode": 4, "material": 19}]}], "materials": [{"name": "floor", "pbrMetallicRoughness": {"baseColorFactor": [1.0, 1.0, 1.0, 1.0], "metallicFactor": 0.0, "roughnessFactor": 1.0}, "alphaMode": "OPAQUE", "doubleSided": true}, {"name": "impt01_09_0", "pbrMetallicRoughness": {"baseColorFactor": [0.803921568627451, 0.803921568627451, 0.803921568627451, 1.0], "metallicFactor": 0.0, "roughnessFactor": 1.0}, "alphaMode": "OPAQUE", "doubleSided": true}, {"name": "impt01_09_1", "pbrMetallicRoughness": {"baseColorFactor": [0.803921568627451, 0.803921568627451, 0.803921568627451, 1.0], "metallicFactor": 0.0, "roughnessFactor": 1.0}, "alphaMode": "OPAQUE", "doubleSided": true}, {"name": "lambert52", "pbrMetallicRoughness": {"baseColorFactor": [0.803921568627451, 0.803921568627451, 0.803921568627451, 0.41935483870967744], "metallicFactor": 0.0, "roughnessFactor": 1.0}, "alphaMode": "BLEND", "doubleSided": true}, {"name": "lambert55", "pbrMetallicRoughness": {"baseColorFactor": [0.803921568627451, 0.803921568627451, 0.803921568627451, 0.3870967741935484], "metallicFactor": 0.0, "roughnessFactor": 1.0}, "alphaMode": "BLEND", "doubleSided": true}, {"name": "r_bank_bord00", "pbrMetallicRoughness": {"baseColorFactor": [1.0, 1.0, 1.0, 1.0], "metallicFactor": 0.0, "roughnessFactor": 1.0}, "alphaMode": "OPAQUE", "doubleSided": true}, {"name": "r_bank_bord01", "pbrMetallicRoughness": {"baseColorFactor": [1.0, 1.0, 1.0, 1.0], "metallicFactor": 0.0, "roughnessFactor": 1.0}, "alphaMode": "OPAQUE", "doubleSided": true}, {"name": "r_bank_c00", "pbrMetallicRoughness": {"baseColorFactor": [1.0, 1.0, 1.0, 1.0], "metallicFactor": 0.0, "roughnessFactor": 1.0}, "alphaMode": "OPAQUE", "doubleSided": true}, {"name": "r_bank_exit", "pbrMetallicRoughness": {"baseColorFactor": [1.0, 1.0, 1.0, 1.0], "metallicFactor": 0.0, "roughnessFactor": 1.0}, "alphaMode": "OPAQUE", "doubleSided": true}, {"name": "r_bank_kin00", "pbrMetallicRoughness": {"baseColorFactor": [1.0, 1.0, 1.0, 1.0], "metallicFactor": 0.0, "roughnessFactor": 1.0}, "alphaMode": "OPAQUE", "doubleSided": true}, {"name": "r_bank_kin01", "pbrMetallicRoughness": {"baseColorFactor": [1.0, 1.0, 1.0, 1.0], "metallicFactor": 0.0, "roughnessFactor": 1.0}, "alphaMode": "OPAQUE", "doubleSided": true}, {"name": "r_bank_kin02", "pbrMetallicRoughness": {"baseColorFactor": [1.0, 1.0, 1.0, 1.0], "metallicFactor": 0.0, "roughnessFactor": 1.0}, "alphaMode": "OPAQUE", "doubleSided": true}, {"name": "r_bank_kin03", "pbrMetallicRoughness": {"baseColorFactor": [1.0, 1.0, 1.0, 1.0], "metallicFactor": 0.0, "roughnessFactor": 1.0}, "alphaMode": "OPAQUE", "doubleSided": true}, {"name": "r_bank_ticket", "pbrMetallicRoughness": {"baseColorFactor": [1.0, 1.0, 1.0, 1.0], "metallicFactor": 0.0, "roughnessFactor": 1.0}, "alphaMode": "OPAQUE", "doubleSided": true}, {"name": "r_bank_w01", "pbrMetallicRoughness": {"baseColorFactor": [1.0, 1.0, 1.0, 1.0], "metallicFactor": 0.0, "roughnessFactor": 1.0}, "alphaMode": "OPAQUE", "doubleSided": true}, {"name": "sc_heri0", "pbrMetallicRoughness": {"baseColorFactor": [1.0, 1.0, 1.0, 1.0], "metallicFactor": 0.0, "roughnessFactor": 1.0}, "alphaMode": "OPAQUE", "doubleSided": true}, {"name": "shade_shade", "pbrMetallicRoughness": {"baseColorFactor": [0.803921568627451, 0.803921568627451, 0.803921568627451, 1.0], "metallicFactor": 0.0, "roughnessFactor": 1.0}, "alphaMode": "OPAQUE", "doubleSided": true}, {"name": "staff_ch03", "pbrMetallicRoughness": {"baseColorFactor": [1.0, 1.0, 1.0, 1.0], "metallicFactor": 0.0, "roughnessFactor": 1.0}, "alphaMode": "OPAQUE", "doubleSided": true}, {"name": "staff_tana01", "pbrMetallicRoughness": {"baseColorFactor": [1.0, 1.0, 1.0, 1.0], "metallicFactor": 0.0, "roughnessFactor": 1.0}, "alphaMode": "OPAQUE", "doubleSided": true}, {"name": "staff_tana02", "pbrMetallicRoughness": {"baseColorFactor": [1.0, 1.0, 1.0, 1.0], "metallicFactor": 0.0, "roughnessFactor": 1.0}, "alphaMode": "OPAQUE", "doubleSided": true}, {"name": "wall", "pbrMetallicRoughness": {"baseColorFactor": [1.0, 1.0, 1.0, 1.0], "metallicFactor": 0.0, "roughnessFactor": 1.0}, "alphaMode": "OPAQUE", "doubleSided": true}], "buffers": [{"byteLength": 25924, "uri": "data:application/octet-stream;base64,"}], "bufferViews": [{"buffer": 0, "byteOffset": 0, "byteLength": 432}, {"buffer": 0, "byteOffset": 432, "byteLength": 288}, {"buffer": 0, "byteOffset": 720, "byteLength": 432}, {"buffer": 0, "byteOffset": 1152, "byteLength": 144}, {"buffer": 0, "byteOffset": 1296, "byteLength": 672}, {"buffer": 0, "byteOffset": 1968, "byteLength": 448}, {"buffer": 0, "byteOffset": 2416, "byteLength": 672}, {"buffer": 0, "byteOffset": 3088, "byteLength": 216}, {"buffer": 0, "byteOffset": 3304, "byteLength": 144}, {"buffer": 0, "byteOffset": 3448, "byteLength": 96}, {"buffer": 0, "byteOffset": 3544, "byteLength": 144}, {"buffer": 0, "byteOffset": 3688, "byteLength": 48}, {"buffer": 0, "byteOffset": 3736, "byteLength": 48}, {"buffer": 0, "byteOffset": 3784, "byteLength": 32}, {"buffer": 0, "byteOffset": 3816, "byteLength": 48}, {"buffer": 0, "byteOffset": 3864, "byteLength": 12}, {"buffer": 0, "byteOffset": 3876, "byteLength": 168}, {"buffer": 0, "byteOffset": 4044, "byteLength": 112}, {"buffer": 0, "byteOffset": 4156, "byteLength": 168}, {"buffer": 0, "byteOffset": 4324, "byteLength": 48}, {"buffer": 0, "byteOffset": 4372, "byteLength": 144}, {"buffer": 0, "byteOffset": 4516, "byteLength": 96}, {"buffer": 0, "byteOffset": 4612, "byteLength": 144}, {"buffer": 0, "byteOffset": 4756, "byteLength": 48}, {"buffer": 0, "byteOffset": 4804, "byteLength": 792}, {"buffer": 0, "byteOffset": 5596, "byteLength": 528}, {"buffer": 0, "byteOffset": 6124, "byteLength": 792}, {"buffer": 0, "byteOffset": 6916, "byteLength": 312}, {"buffer": 0, "byteOffset": 7228, "byteLength": 120}, {"buffer": 0, "byteOffset": 7348, "byteLength": 80}, {"buffer": 0, "byteOffset": 7428, "byteLength": 120}, {"buffer": 0, "byteOffset": 7548, "byteLength": 36}, {"buffer": 0, "byteOffset": 7584, "byteLength": 48}, {"buffer": 0, "byteOffset": 7632, "byteLength": 32}, {"buffer": 0, "byteOffset": 7664, "byteLength": 48}, {"buffer": 0, "byteOffset": 7712, "byteLength": 12}, {"buffer": 0, "byteOffset": 7724, "byteLength": 576}, {"buffer": 0, "byteOffset": 8300, "byteLength": 384}, {"buffer": 0, "byteOffset": 8684, "byteLength": 576}, {"buffer": 0, "byteOffset": 9260, "byteLength": 216}, {"buffer": 0, "byteOffset": 9476, "byteLength": 1068}, {"buffer": 0, "byteOffset": 10544, "byteLength": 712}, {"buffer": 0, "byteOffset": 11256, "byteLength": 1068}, {"buffer": 0, "byteOffset": 12324, "byteLength": 294}, {"buffer": 0, "byteOffset": 12620, "byteLength": 384}, {"buffer": 0, "byteOffset": 13004, "byteLength": 256}, {"buffer": 0, "byteOffset": 13260, "byteLength": 384}, {"buffer": 0, "byteOffset": 13644, "byteLength": 108}, {"buffer": 0, "byteOffset": 13752, "byteLength": 552}, {"buffer": 0, "byteOffset": 14304, "byteLength": 368}, {"buffer": 0, "byteOffset": 14672, "byteLength": 552}, {"buffer": 0, "byteOffset": 15224, "byteLength": 216}, {"buffer": 0, "byteOffset": 15440, "byteLength": 576}, {"buffer": 0, "byteOffset": 16016, "byteLength": 384}, {"buffer": 0, "byteOffset": 16400, "byteLength": 576}, {"buffer": 0, "byteOffset": 16976, "byteLength": 216}, {"buffer": 0, "byteOffset": 17192, "byteLength": 144}, {"buffer": 0, "byteOffset": 17336, "byteLength": 96}, {"buffer": 0, "byteOffset": 17432, "byteLength": 144}, {"buffer": 0, "byteOffset": 17576, "byteLength": 60}, {"buffer": 0, "byteOffset": 17636, "byteLength": 288}, {"buffer": 0, "byteOffset": 17924, "byteLength": 192}, {"buffer": 0, "byteOffset": 18116, "byteLength": 288}, {"buffer": 0, "byteOffset": 18404, "byteLength": 84}, {"buffer": 0, "byteOffset": 18488, "byteLength": 1416}, {"buffer": 0, "byteOffset": 19904, "byteLength": 944}, {"buffer": 0, "byteOffset": 20848, "byteLength": 1416}, {"buffer": 0, "byteOffset": 22264, "byteLength": 456}, {"buffer": 0, "byteOffset": 22720, "byteLength": 384}, {"buffer": 0, "byteOffset": 23104, "byteLength": 256}, {"buffer": 0, "byteOffset": 23360, "byteLength": 384}, {"buffer": 0, "byteOffset": 23744, "byteLength": 108}, {"buffer": 0, "byteOffset": 23852, "byteLength": 264}, {"buffer": 0, "byteOffset": 24116, "byteLength": 176}, {"buffer": 0, "byteOffset": 24292, "byteLength": 264}, {"buffer": 0, "byteOffset": 24556, "byteLength": 72}, {"buffer": 0, "byteOffset": 24628, "byteLength": 288}, {"buffer": 0, "byteOffset": 24916, "byteLength": 192}, {"buffer": 0, "byteOffset": 25108, "byteLength": 288}, {"buffer": 0, "byteOffset": 25396, "byteLength": 96}, {"buffer": 0, "byteOffset": 25492, "byteLength": 144}, {"buffer": 0, "byteOffset": 25636, "byteLength": 96}, {"buffer": 0, "byteOffset": 25732, "byteLength": 144}, {"buffer": 0, "byteOffset": 25876, "byteLength": 48}], "accessors": [{"bufferView": 0, "byteOffset": 0, "componentType": 5126, "count": 36, "type": "VEC3", "min": [0.5, 0.0, 0.75], "max": [4.5, 1.10009765625, 1.949951171875]}, {"bufferView": 1, "byteOffset": 0, "componentType": 5126, "count": 36, "type": "VEC2"}, {"bufferView": 2, "byteOffset": 0, "componentType": 5126, "count": 36, "type": "VEC3"}, {"bufferView": 3, "byteOffset": 0, "componentType": 5123, "count": 72, "type": "SCALAR"}, {"bufferView": 4, "byteOffset": 0, "componentType": 5126, "count": 56, "type": "VEC3", "min": [0.25, -0.002197265625, 2.25], "max": [4.75, 2.25, 4.89990234375]}, {"bufferView": 5, "byteOffset": 0, "componentType": 5126, "count": 56, "type": "VEC2"}, {"bufferView": 6, "byteOffset": 0, "componentType": 5126, "count": 56, "type": "VEC3"}, {"bufferView": 7, "byteOffset": 0, "componentType": 5123, "count": 108, "type": "SCALAR"}, {"bufferView": 8, "byteOffset": 0, "componentType": 5126, "count": 12, "type": "VEC3", "min": [0.5, -0.000732421875, 0.5], "max": [4.5, 0.0, 4.5]}, {"bufferView": 9, "byteOffset": 0, "componentType": 5126, "count": 12, "type": "VEC2"}, {"bufferView": 10, "byteOffset": 0, "componentType": 5126, "count": 12, "type": "VEC3"}, {"bufferView": 11, "byteOffset": 0, "componentType": 5123, "count": 24, "type": "SCALAR"}, {"bufferView": 12, "byteOffset": 0, "componentType": 5126, "count": 4, "type": "VEC3", "min": [2.0, 0.0, 4.5], "max": [3.0, 0.0, 5.0]}, {"bufferView": 13, "byteOffset": 0, "componentType": 5126, "count": 4, "type": "VEC2"}, {"bufferView": 14, "byteOffset": 0, "componentType": 5126, "count": 4, "type": "VEC3"}, {"bufferView": 15, "byteOffset": 0, "componentType": 5123, "count": 6, "type": "SCALAR"}, {"bufferView": 16, "byteOffset": 0, "componentType": 5126, "count": 14, "type": "VEC3", "min": [0.5, -0.000732421875, 0.5], "max": [4.5, 2.0, 4.5]}, {"bufferView": 17, "byteOffset": 0, "componentType": 5126, "count": 14, "type": "VEC2"}, {"bufferView": 18, "byteOffset": 0, "componentType": 5126, "count": 14, "type": "VEC3"}, {"bufferView": 19, "byteOffset": 0, "componentType": 5123, "count": 24, "type": "SCALAR"}, {"bufferView": 20, "byteOffset": 0, "componentType": 5126, "count": 12, "type": "VEC3", "min": [0.75, 1.3310546875, 2.60009765625], "max": [1.25, 1.68115234375, 2.699951171875]}, {"bufferView": 21, "byteOffset": 0, "componentType": 5126, "count": 12, "type": "VEC2"}, {"bufferView": 22, "byteOffset": 0, "componentType": 5126, "count": 12, "type": "VEC3"}, {"bufferView": 23, "byteOffset": 0, "componentType": 5123, "count": 24, "type": "SCALAR"}, {"bufferView": 24, "byteOffset": 0, "componentType": 5126, "count": 66, "type": "VEC3", "min": [0.75, 0.0, 2.25], "max": [4.25, 0.375, 3.0]}, {"bufferView": 25, "byteOffset": 0, "componentType": 5126, "count": 66, "type": "VEC2"}, {"bufferView": 26, "byteOffset": 0, "componentType": 5126, "count": 66, "type": "VEC3"}, {"bufferView": 27, "byteOffset": 0, "componentType": 5123, "count": 156, "type": "SCALAR"}, {"bufferView": 28, "byteOffset": 0, "componentType": 5126, "count": 10, "type": "VEC3", "min": [3.300048828125, 0.375, 2.300048828125], "max": [3.949951171875, 0.72509765625, 2.75]}, {"bufferView": 29, "byteOffset": 0, "componentType": 5126, "count": 10, "type": "VEC2"}, {"bufferView": 30, "byteOffset": 0, "componentType": 5126, "count": 10, "type": "VEC3"}, {"bufferView": 31, "byteOffset": 0, "componentType": 5123, "count": 18, "type": "SCALAR"}, {"bufferView": 32, "byteOffset": 0, "componentType": 5126, "count": 4, "type": "VEC3", "min": [1.75, 0.0, 0.550048828125], "max": [3.25, 1.5, 0.550048828125]}, {"bufferView": 33, "byteOffset": 0, "componentType": 5126, "count": 4, "type": "VEC2"}, {"bufferView": 34, "byteOffset": 0, "componentType": 5126, "count": 4, "type": "VEC3"}, {"bufferView": 35, "byteOffset": 0, "componentType": 5123, "count": 6, "type": "SCALAR"}, {"bufferView": 36, "byteOffset": 0, "componentType": 5126, "count": 48, "type": "VEC3", "min": [2.0390625, 0.2890625, 0.570068359375], "max": [2.9609375, 1.2109375, 0.72998046875]}, {"bufferView": 37, "byteOffset": 0, "componentType": 5126, "count": 48, "type": "VEC2"}, {"bufferView": 38, "byteOffset": 0, "componentType": 5126, "count": 48, "type": "VEC3"}, {"bufferView": 39, "byteOffset": 0, "componentType": 5123, "count": 108, "type": "SCALAR"}, {"bufferView": 40, "byteOffset": 0, "componentType": 5126, "count": 89, "type": "VEC3", "min": [0.582763671875, 0.142822265625, 2.835205078125], "max": [0.91162109375, 0.443359375, 3.162841796875]}, {"bufferView": 41, "byteOffset": 0, "componentType": 5126, "count": 89, "type": "VEC2"}, {"bufferView": 42, "byteOffset": 0, "componentType": 5126, "count": 89, "type": "VEC3"}, {"bufferView": 43, "byteOffset": 0, "componentType": 5123, "count": 147, "type": "SCALAR"}, {"bufferView": 44, "byteOffset": 0, "componentType": 5126, "count": 32, "type": "VEC3", "min": [0.662109375, 0.0, 2.925048828125], "max": [0.837890625, 0.151123046875, 3.077392578125]}, {"bufferView": 45, "byteOffset": 0, "componentType": 5126, "count": 32, "type": "VEC2"}, {"bufferView": 46, "byteOffset": 0, "componentType": 5126, "count": 32, "type": "VEC3"}, {"bufferView": 47, "byteOffset": 0, "componentType": 5123, "count": 54, "type": "SCALAR"}, {"bufferView": 48, "byteOffset": 0, "componentType": 5126, "count": 46, "type": "VEC3", "min": [1.64990234375, 0.0, 0.5], "max": [3.35009765625, 1.60009765625, 0.60009765625]}, {"bufferView": 49, "byteOffset": 0, "componentType": 5126, "count": 46, "type": "VEC2"}, {"bufferView": 50, "byteOffset": 0, "componentType": 5126, "count": 46, "type": "VEC3"}, {"bufferView": 51, "byteOffset": 0, "componentType": 5123, "count": 108, "type": "SCALAR"}, {"bufferView": 52, "byteOffset": 0, "componentType": 5126, "count": 48, "type": "VEC3", "min": [2.28662109375, 0.53662109375, 0.760009765625], "max": [2.71337890625, 0.96337890625, 0.800048828125]}, {"bufferView": 53, "byteOffset": 0, "componentType": 5126, "count": 48, "type": "VEC2"}, {"bufferView": 54, "byteOffset": 0, "componentType": 5126, "count": 48, "type": "VEC3"}, {"bufferView": 55, "byteOffset": 0, "componentType": 5123, "count": 108, "type": "SCALAR"}, {"bufferView": 56, "byteOffset": 0, "componentType": 5126, "count": 12, "type": "VEC3", "min": [0.456787109375, 0.014892578125, 2.4921875], "max": [4.543212890625, 0.014892578125, 3.103759765625]}, {"bufferView": 57, "byteOffset": 0, "componentType": 5126, "count": 12, "type": "VEC2"}, {"bufferView": 58, "byteOffset": 0, "componentType": 5126, "count": 12, "type": "VEC3"}, {"bufferView": 59, "byteOffset": 0, "componentType": 5123, "count": 30, "type": "SCALAR"}, {"bufferView": 60, "byteOffset": 0, "componentType": 5126, "count": 24, "type": "VEC3", "min": [1.157470703125, 0.375, 2.384033203125], "max": [1.4755859375, 0.64990234375, 2.73486328125]}, {"bufferView": 61, "byteOffset": 0, "componentType": 5126, "count": 24, "type": "VEC2"}, {"bufferView": 62, "byteOffset": 0, "componentType": 5126, "count": 24, "type": "VEC3"}, {"bufferView": 63, "byteOffset": 0, "componentType": 5123, "count": 42, "type": "SCALAR"}, {"bufferView": 64, "byteOffset": 0, "componentType": 5126, "count": 118, "type": "VEC3", "min": [0.550048828125, 0.0, 3.25], "max": [4.449951171875, 0.244140625, 4.25]}, {"bufferView": 65, "byteOffset": 0, "componentType": 5126, "count": 118, "type": "VEC2"}, {"bufferView": 66, "byteOffset": 0, "componentType": 5126, "count": 118, "type": "VEC3"}, {"bufferView": 67, "byteOffset": 0, "componentType": 5123, "count": 228, "type": "SCALAR"}, {"bufferView": 68, "byteOffset": 0, "componentType": 5126, "count": 32, "type": "VEC3", "min": [0.0, 1.75, 0.402099609375], "max": [5.0, 2.527587890625, 5.0]}, {"bufferView": 69, "byteOffset": 0, "componentType": 5126, "count": 32, "type": "VEC2"}, {"bufferView": 70, "byteOffset": 0, "componentType": 5126, "count": 32, "type": "VEC3"}, {"bufferView": 71, "byteOffset": 0, "componentType": 5123, "count": 54, "type": "SCALAR"}, {"bufferView": 72, "byteOffset": 0, "componentType": 5126, "count": 22, "type": "VEC3", "min": [2.29150390625, 0.501953125, 0.746826171875], "max": [2.70849609375, 0.9189453125, 0.746826171875]}, {"bufferView": 73, "byteOffset": 0, "componentType": 5126, "count": 22, "type": "VEC2"}, {"bufferView": 74, "byteOffset": 0, "componentType": 5126, "count": 22, "type": "VEC3"}, {"bufferView": 75, "byteOffset": 0, "componentType": 5123, "count": 36, "type": "SCALAR"}, {"bufferView": 76, "byteOffset": 0, "componentType": 5126, "count": 24, "type": "VEC3", "min": [0.25, 2.0, 0.52490234375], "max": [4.75, 2.25, 4.89990234375]}, {"bufferView": 77, "byteOffset": 0, "componentType": 5126, "count": 24, "type": "VEC2"}, {"bufferView": 78, "byteOffset": 0, "componentType": 5126, "count": 24, "type": "VEC3"}, {"bufferView": 79, "byteOffset": 0, "componentType": 5123, "count": 48, "type": "SCALAR"}, {"bufferView": 80, "byteOffset": 0, "componentType": 5126, "count": 12, "type": "VEC3", "min": [1.0, 0.0, 0.75], "max": [4.0, 0.550048828125, 1.949951171875]}, {"bufferView": 81, "byteOffset": 0, "componentType": 5126, "count": 12, "type": "VEC2"}, {"bufferView": 82, "byteOffset": 0, "componentType": 5126, "count": 12, "type": "VEC3"}, {"bufferView": 83, "byteOffset": 0, "componentType": 5123, "count": 24, "type": "SCALAR"}], "samplers": [{"magFilter": 9729, "minFilter": 9729, "wrapS": 10497, "wrapT": 10497}]}