{"asset": {"version": "2.0", "generator": "tongari-nsbmd-to-gltf"}, "scene": 0, "scenes": [{"nodes": [0, 1]}], "nodes": [{"name": "berry_nae_d", "translation": [0.0, 0.0, 0.0]}, {"mesh": 0, "name": "berry_nae_d"}], "meshes": [{"name": "berry_nae_d", "primitives": [{"attributes": {"POSITION": 0, "TEXCOORD_0": 1, "NORMAL": 2}, "indices": 3, "mode": 4, "material": 0}]}], "materials": [{"name": "berry_ha_kare", "pbrMetallicRoughness": {"baseColorFactor": [1.0, 1.0, 1.0, 1.0], "metallicFactor": 0.0, "roughnessFactor": 1.0}, "alphaMode": "OPAQUE", "doubleSided": true}], "buffers": [{"byteLength": 280, "uri": "data:application/octet-stream;base64,"}], "bufferViews": [{"buffer": 0, "byteOffset": 0, "byteLength": 96}, {"buffer": 0, "byteOffset": 96, "byteLength": 64}, {"buffer": 0, "byteOffset": 160, "byteLength": 96}, {"buffer": 0, "byteOffset": 256, "byteLength": 24}], "accessors": [{"bufferView": 0, "byteOffset": 0, "componentType": 5126, "count": 8, "type": "VEC3", "min": [-0.320068359375, 0.0, -0.36962890625], "max": [0.41650390625, 0.6533203125, 0.09521484375]}, {"bufferView": 1, "byteOffset": 0, "componentType": 5126, "count": 8, "type": "VEC2"}, {"bufferView": 2, "byteOffset": 0, "componentType": 5126, "count": 8, "type": "VEC3"}, {"bufferView": 3, "byteOffset": 0, "componentType": 5123, "count": 12, "type": "SCALAR"}], "samplers": [{"magFilter": 9729, "minFilter": 9729, "wrapS": 10497, "wrapT": 10497}]}